<?xml version="1.0" encoding="UTF-8"?>
<svg version="1.0" viewBox="0 0 200 250" xmlns="http://www.w3.org/2000/svg" xmlns:cc="http://creativecommons.org/ns#" xmlns:dc="http://purl.org/dc/elements/1.1/" xmlns:rdf="http://www.w3.org/1999/02/22-rdf-syntax-ns#">
 <title>3cards</title>
 <defs>
  <filter id="filter439" color-interpolation-filters="sRGB">
   <feFlood flood-color="rgb(0,0,0)" flood-opacity=".49804" result="flood"/>
   <feComposite in="flood" in2="SourceGraphic" operator="in" result="composite1"/>
   <feGaussianBlur in="composite1" result="blur" stdDeviation="4.86322"/>
   <feOffset dx="2.87009" dy="6" result="offset"/>
   <feComposite in="SourceGraphic" in2="offset" result="composite2"/>
  </filter>
 </defs>
 <metadata>
  <rdf:RDF>
   <cc:Work rdf:about="">
    <dc:format>image/svg+xml</dc:format>
    <dc:type rdf:resource="http://purl.org/dc/dcmitype/StillImage"/>
    <dc:title>3cards</dc:title>
   </cc:Work>
  </rdf:RDF>
 </metadata>
 <g transform="matrix(.9602 0 0 .9602 .039294 4.7945)" fill-rule="evenodd" filter="url(#filter439)" stroke="#000">
  <g fill="#fff" stroke-width="1.2979">
   <path d="m87 27c1.0196-3.4642 4.0729-5.577 6.87-4.7537l100.7 29.637c2.7971 0.82324 4.2192 4.2532 3.1996 7.7174l-46.9 159.35c-1.0196 3.4642-4.0729 5.577-6.87 4.7537l-100.7-29.637c-2.7971-0.82323-4.2192-4.2532-3.1996-7.7174z"/>
   <path d="m116 22c-1.0196-3.4642-4.0729-5.577-6.87-4.7537l-100.7 29.637c-2.7971 0.82324-4.2192 4.2532-3.1996 7.7174l46.9 159.35c1.0196 3.4642 4.0729 5.577 6.87 4.7537l100.7-29.637c2.7971-0.82324 4.2192-4.2532 3.1996-7.7174z"/>
   <path d="m165 35c0-3.6111-2.3326-6.5-5.2484-6.5h-104.97c-2.9158 0-5.2484 2.8889-5.2484 6.5v166.11c0 3.6111 2.3326 6.5 5.2484 6.5h104.97c2.9158 0 5.2484-2.8889 5.2484-6.5z"/>
  </g>
  <path d="m107 91c-9.2603 13.043-21.414 20.652-21.414 31.522 0 9.7826 5.7877 11.957 9.2603 11.957 4.6302 0 9.1542-1.8696 9.1542-9.4783 2.0514-1.6957 1.2637-2.4783 1.2637-0.30434 0 10.87-2.3151 10.87-4.6302 16.304h12.733c-2.3151-5.4348-4.6302-5.4348-4.6302-16.304 0-2.1739-0.78768-1.3913 1.2637 0.30434 0 8.6956 4.524 9.4783 9.1542 9.4783 3.4726 0 10.418-2.1739 10.418-11.957 0-11.011-13.312-18.478-22.572-31.522z" fill="#ccc" stroke-width="1.1217px"/>
 </g>
</svg>
