<?xml version="1.0" standalone="no"?>
<!DOCTYPE svg PUBLIC "-//W3C//DTD SVG 20010904//EN"
 "http://www.w3.org/TR/2001/REC-SVG-20010904/DTD/svg10.dtd">
<svg version="1.0" xmlns="http://www.w3.org/2000/svg"
 width="1102.000000pt" height="1280.000000pt" viewBox="0 0 1102.000000 1280.000000"
 preserveAspectRatio="xMidYMid meet">
<g transform="translate(0.000000,1280.000000) scale(0.100000,-0.100000)"
fill="#000000" stroke="none">
<path d="M6415 12386 c-447 -65 -765 -307 -867 -661 -21 -75 -23 -97 -23 -345
1 -221 4 -277 19 -340 21 -86 20 -69 7 -230 -6 -71 -19 -153 -31 -188 -24 -75
-25 -127 -5 -201 8 -30 12 -57 10 -60 -2 -3 -36 -30 -77 -59 -178 -129 -266
-188 -357 -234 -53 -28 -100 -54 -106 -58 -5 -4 -46 -27 -90 -51 -44 -23 -103
-57 -130 -74 -28 -17 -89 -51 -135 -74 -156 -77 -266 -153 -382 -262 -175
-164 -192 -177 -348 -265 -212 -119 -333 -314 -376 -608 -26 -176 -10 -286 83
-571 44 -133 45 -185 10 -315 -42 -152 -57 -262 -58 -424 0 -182 -10 -309 -60
-786 -12 -117 -43 -291 -64 -360 -58 -190 -92 -286 -154 -430 -77 -182 -110
-287 -141 -448 -30 -155 -57 -399 -59 -531 -1 -62 -6 -136 -12 -164 -22 -120
-40 -308 -50 -532 -13 -303 -52 -537 -131 -786 -27 -86 -33 -98 -57 -103 -70
-15 -111 -62 -111 -130 0 -32 -2 -34 -47 -40 -109 -14 -236 -8 -297 14 -58 21
-60 21 -105 3 -34 -13 -74 -18 -153 -18 -94 0 -110 3 -136 22 -34 25 -81 30
-132 14 -47 -15 -112 -14 -185 3 -33 7 -87 14 -120 15 -33 1 -83 4 -111 7 -40
5 -53 2 -64 -11 -12 -15 -12 -21 1 -44 l15 -26 -226 3 c-215 3 -280 -4 -280
-26 0 -5 11 -25 24 -44 l24 -36 -117 1 c-111 0 -161 -10 -161 -33 0 -18 65
-83 97 -96 18 -8 48 -14 67 -14 24 0 35 -5 39 -19 8 -30 91 -81 153 -92 42 -8
80 -7 141 1 71 10 96 10 176 -5 55 -11 146 -18 228 -19 105 -1 135 -4 132 -14
-11 -27 27 -61 84 -78 44 -13 72 -15 122 -8 65 8 291 15 481 16 65 0 120 -7
174 -21 44 -12 90 -21 103 -21 18 0 23 -6 23 -25 0 -14 10 -35 21 -46 22 -22
57 -22 128 -3 23 7 23 5 17 -28 -5 -27 -2 -41 12 -58 18 -22 22 -23 90 -14 71
10 71 10 66 -12 -10 -41 12 -64 60 -64 72 0 195 28 240 54 45 26 129 54 240
80 38 9 120 39 182 66 148 66 326 108 509 122 185 14 175 15 246 -21 69 -35
91 -37 164 -17 59 16 95 31 230 98 184 92 541 193 835 238 36 5 124 19 195 30
97 16 215 23 465 31 184 5 410 12 501 16 l166 5 110 -133 c215 -261 225 -274
395 -539 90 -139 104 -163 146 -246 85 -169 103 -220 104 -296 1 -39 -5 -63
-22 -92 -13 -22 -31 -74 -41 -116 -14 -67 -14 -82 -3 -110 26 -60 71 -106 126
-127 29 -12 89 -37 133 -57 44 -20 96 -36 115 -36 25 0 53 -12 95 -41 79 -56
106 -90 176 -229 45 -88 130 -168 238 -224 48 -25 108 -50 135 -57 42 -10 52
-19 81 -63 60 -92 114 -132 166 -119 58 14 63 43 19 122 -17 30 -28 57 -25 59
9 10 34 -32 60 -105 21 -57 37 -82 80 -122 47 -44 59 -51 94 -51 39 0 81 25
81 48 0 5 -23 47 -51 93 -66 109 -67 111 -24 64 20 -22 61 -82 91 -132 44 -75
64 -98 102 -120 56 -33 121 -36 152 -8 38 35 23 73 -70 180 -49 56 -94 134
-84 144 10 10 76 -67 116 -134 82 -139 137 -185 219 -185 66 1 106 43 93 97
-9 38 -16 45 -102 110 -59 44 -79 67 -98 108 -28 61 -54 87 -114 114 -36 15
-40 20 -21 20 40 1 102 -43 178 -127 78 -86 151 -132 210 -132 45 0 135 36
163 65 17 18 21 30 16 52 -13 52 -36 73 -121 114 -47 22 -85 44 -85 49 0 6
-16 28 -36 49 -35 40 -86 64 -155 76 -30 4 -48 19 -100 82 -35 42 -87 109
-116 148 -28 40 -73 93 -100 118 -64 60 -255 224 -307 263 -22 18 -49 40 -58
50 -9 11 -51 46 -93 79 -299 234 -854 768 -983 945 -34 47 -109 149 -167 226
-100 135 -118 163 -95 149 6 -4 76 -1 156 5 93 7 150 8 157 2 22 -18 239 -22
298 -6 109 30 151 33 225 17 38 -8 130 -19 204 -24 74 -5 165 -12 201 -15 79
-7 142 8 175 41 27 27 30 43 11 69 -17 23 -70 35 -212 46 -144 11 -187 19
-182 34 7 22 91 36 206 34 189 -3 313 1 364 10 34 7 72 5 130 -5 64 -11 93
-12 133 -3 55 12 126 63 118 84 -4 9 8 15 37 20 32 5 53 18 86 50 24 24 43 48
43 54 0 17 -32 26 -115 31 -76 6 -80 7 -78 29 4 32 -32 44 -142 48 -333 11
-369 14 -378 29 -5 9 -23 15 -45 15 l-37 0 40 35 c40 35 240 175 250 175 2 0
26 13 52 29 27 16 89 46 138 67 152 65 201 98 231 157 33 65 29 126 -16 217
l-31 65 17 52 c17 49 17 53 0 91 -58 129 -209 206 -616 316 -91 24 -280 75
-420 114 -140 38 -307 81 -370 96 -169 41 -307 80 -375 109 -69 28 -195 69
-378 123 -71 21 -130 42 -132 48 -1 6 -15 58 -30 116 -38 143 -129 418 -170
510 -18 41 -76 146 -128 233 -73 120 -97 169 -102 205 -11 86 -107 565 -136
682 -16 63 -47 169 -68 235 -47 143 -117 391 -161 565 -18 69 -38 140 -46 159
-21 50 -17 106 16 258 50 221 64 452 36 583 -8 36 -36 121 -62 190 -56 143
-83 176 -219 266 -125 82 -119 76 -99 116 29 57 105 139 163 175 91 57 143 94
203 145 l57 49 68 -14 c141 -28 209 18 285 195 40 93 92 173 184 286 29 35 55
75 59 89 3 13 36 52 73 86 37 34 108 102 157 152 268 269 340 638 203 1050
-62 188 -135 323 -238 437 -54 61 -209 196 -276 241 -139 94 -511 149 -759
113z m-254 -5337 c106 -214 116 -239 166 -419 105 -375 102 -354 77 -508 -9
-53 -14 -123 -11 -154 6 -63 51 -179 124 -315 25 -46 41 -83 38 -83 -13 0 -69
43 -130 99 -33 30 -87 72 -120 93 -39 25 -69 54 -85 82 -73 127 -110 197 -130
251 -13 33 -38 96 -57 139 -18 44 -33 89 -33 100 0 12 -10 53 -21 91 -28 91
-30 289 -5 347 9 21 16 46 16 57 0 11 23 56 51 100 l51 80 -4 95 c-2 53 -3 94
-1 92 1 -1 35 -67 74 -147z m-2011 -784 c51 -158 59 -193 64 -285 3 -58 17
-170 32 -250 14 -80 32 -188 40 -240 20 -133 42 -204 76 -252 26 -35 28 -44
19 -65 -15 -33 -14 -78 4 -165 29 -136 100 -289 209 -447 63 -91 100 -127 247
-241 57 -44 128 -100 158 -125 30 -24 77 -56 105 -72 49 -27 57 -28 171 -26
86 1 143 7 200 22 94 25 265 104 297 138 12 12 31 23 43 23 24 0 294 -269 505
-505 74 -82 170 -186 213 -231 42 -44 77 -83 77 -87 0 -15 -440 -112 -570
-126 -52 -6 -165 -17 -250 -26 -200 -20 -313 -34 -375 -46 -83 -16 -295 -22
-355 -11 -30 6 -98 21 -150 32 -52 12 -117 24 -145 27 -27 3 -60 12 -71 20
-28 18 -118 10 -279 -25 -66 -14 -138 -25 -160 -25 -93 0 -362 12 -521 23
-189 14 -254 6 -382 -44 -71 -28 -132 -41 -132 -27 0 32 55 234 88 322 87 233
186 489 232 598 50 121 120 321 235 671 82 251 96 302 146 549 22 108 47 228
55 266 12 52 15 101 11 190 -6 138 2 221 44 425 34 171 50 231 56 210 3 -8 31
-96 63 -195z m2796 -2186 c101 -28 230 -49 296 -49 56 0 58 -1 81 -37 29 -49
70 -134 66 -137 -26 -16 -164 -129 -197 -160 -35 -33 -44 -38 -52 -26 -22 38
-182 271 -237 346 -35 47 -63 88 -63 91 0 3 8 2 18 -2 9 -3 49 -15 88 -26z
m2569 -739 c14 -5 3 -8 -36 -8 -30 0 -62 4 -70 9 -18 11 77 11 106 -1z m-6385
-589 c0 -10 -6 -23 -12 -28 -16 -12 -78 -34 -78 -27 0 20 34 63 52 67 13 2 26
5 31 6 4 0 7 -7 7 -18z m54 -181 c-5 -5 -29 -12 -54 -15 l-45 -6 50 24 c45 21
71 19 49 -3z"/>
</g>
</svg>
