<?xml version="1.0" standalone="no"?>
<!DOCTYPE svg PUBLIC "-//W3C//DTD SVG 20010904//EN"
 "http://www.w3.org/TR/2001/REC-SVG-20010904/DTD/svg10.dtd">
<svg version="1.0" xmlns="http://www.w3.org/2000/svg"
 width="790.000000pt" height="1280.000000pt" viewBox="0 0 790.000000 1280.000000"
 preserveAspectRatio="xMidYMid meet">
<g transform="translate(0.000000,1280.000000) scale(0.100000,-0.100000)"
fill="#000000" stroke="none">
<path d="M4664 12790 c-25 -10 -82 -74 -95 -107 -6 -16 -28 -32 -64 -48 -66
-30 -69 -38 -63 -183 7 -138 31 -205 95 -262 44 -38 73 -51 73 -31 0 5 -13 38
-30 73 -30 63 -39 138 -21 167 6 10 11 4 16 -20 9 -42 46 -114 78 -152 l24
-28 6 122 c7 146 14 159 77 140 36 -10 40 -15 40 -43 0 -39 15 -65 210 -363
359 -549 502 -825 574 -1110 102 -406 168 -1123 137 -1487 -24 -286 -120 -749
-247 -1188 -57 -198 -174 -443 -174 -365 0 18 -14 19 -28 3 -5 -7 -40 -69 -77
-138 -37 -69 -99 -181 -138 -249 l-71 -125 -11 33 -11 34 -42 -64 c-23 -35
-62 -86 -87 -114 l-45 -50 20 48 c25 60 27 95 5 77 -21 -18 -20 -7 15 117 35
124 53 309 30 301 -8 -2 -34 -67 -60 -144 -52 -158 -128 -311 -197 -399 -45
-58 -47 -59 -54 -35 -4 14 -8 54 -8 90 -2 104 -12 103 -66 -2 -86 -168 -118
-193 -150 -115 -23 55 -31 230 -16 339 19 131 79 293 252 681 89 199 164 368
167 376 4 11 1 11 -17 1 -13 -6 -25 -9 -28 -7 -2 3 7 37 21 77 30 81 36 166
11 156 -13 -4 -15 9 -15 91 0 80 -2 94 -14 84 -17 -14 -26 13 -26 82 0 26 -2
47 -5 47 -4 0 -20 -7 -37 -16 -41 -21 -49 -10 -55 71 l-6 66 -36 -3 c-33 -3
-37 0 -48 32 -6 19 -12 49 -12 66 -1 24 -10 40 -36 63 -20 17 -42 31 -50 31
-21 0 -54 61 -67 124 l-11 57 -38 -37 -38 -37 -17 59 c-9 33 -18 61 -20 63 -2
3 -15 -6 -28 -18 l-25 -23 -6 38 c-17 101 -46 206 -77 280 -49 115 -149 264
-178 264 -15 0 -12 -16 16 -110 37 -129 74 -298 74 -344 0 -34 -6 -48 -30 -71
l-30 -29 0 108 c0 80 -3 107 -12 104 -7 -3 -30 -48 -51 -102 -22 -53 -41 -95
-44 -93 -2 2 -10 44 -19 93 -8 48 -22 104 -31 123 -13 32 -16 34 -23 16 -4
-11 -18 -88 -30 -170 -12 -86 -28 -161 -37 -175 -25 -38 -86 -110 -91 -106 -9
10 -54 191 -67 276 -9 52 -18 175 -22 272 -3 97 -10 182 -14 189 -13 22 -35
-7 -57 -79 -37 -118 -45 -193 -39 -376 6 -194 24 -291 87 -475 l40 -116 -10
-125 c-5 -69 -12 -152 -16 -185 -5 -56 -3 -64 28 -115 19 -30 78 -111 131
-180 110 -142 169 -248 187 -335 18 -90 15 -86 50 -68 17 8 33 13 35 11 2 -2
-34 -49 -81 -103 -47 -55 -211 -251 -363 -435 -153 -184 -285 -341 -294 -349
-24 -19 -43 -1 -81 79 -46 95 -47 96 -61 77 -10 -14 -17 -4 -45 69 -34 88 -81
164 -101 164 -7 0 -9 -10 -5 -27 10 -49 28 -194 24 -199 -3 -2 -25 26 -51 64
-50 73 -113 139 -123 129 -3 -3 0 -35 8 -71 8 -37 12 -66 8 -66 -13 0 -94 154
-126 239 -30 79 -76 227 -120 384 -24 89 -38 69 -44 -64 l-5 -114 -22 46 c-82
176 -172 529 -204 804 -18 148 -18 695 -1 835 64 517 206 978 459 1481 219
436 468 817 787 1204 60 72 121 154 138 182 35 62 44 69 63 53 26 -21 18 -103
-16 -186 -17 -41 -29 -78 -26 -81 10 -9 63 34 126 104 49 53 61 62 61 44 0
-29 -35 -133 -66 -193 -13 -26 -20 -48 -16 -48 19 0 93 62 131 110 51 64 61
100 68 225 4 86 2 108 -16 156 -27 71 -81 134 -127 149 -48 16 -129 8 -155
-16 -12 -10 -38 -48 -59 -84 -58 -98 -78 -114 -138 -105 -85 11 -158 -11 -363
-111 -260 -128 -745 -432 -1100 -691 -210 -153 -299 -223 -299 -235 0 -7 13
-8 36 -5 l35 6 -53 -57 c-29 -31 -103 -109 -164 -172 -238 -247 -568 -648
-776 -940 -82 -116 -268 -418 -268 -436 0 -4 15 -3 34 0 42 8 50 44 -79 -364
-233 -730 -350 -1209 -400 -1635 -36 -296 -29 -879 15 -1250 11 -93 20 -174
20 -178 0 -5 9 -6 19 -2 17 5 22 -1 32 -37 28 -105 183 -632 211 -718 190
-585 566 -1198 1139 -1855 91 -104 109 -119 109 -90 0 23 19 10 160 -110 210
-178 319 -267 465 -380 l140 -108 13 -80 c18 -114 84 -305 147 -425 107 -202
226 -355 422 -542 l120 -115 12 -105 c30 -263 144 -456 366 -623 44 -33 82
-62 84 -64 2 -1 -10 -60 -27 -130 -54 -219 -64 -300 -69 -558 -4 -212 -3 -251
15 -336 23 -109 40 -151 83 -200 l30 -34 -6 50 c-3 28 -8 131 -11 230 -10 291
15 484 97 761 23 77 43 140 44 142 1 1 27 -9 57 -22 97 -43 188 -57 408 -63
321 -9 516 28 803 151 l38 17 41 -87 c117 -250 187 -571 189 -864 0 -128 9
-181 22 -146 4 10 14 72 23 139 34 259 -16 719 -107 985 l-18 52 107 89 c133
110 269 252 352 366 l63 87 151 72 c279 134 471 272 707 506 180 179 252 267
391 475 172 258 306 567 370 855 20 93 23 131 23 335 0 248 -9 309 -71 474
-13 35 -24 72 -24 82 0 11 34 73 75 138 101 163 207 373 290 574 66 164 85
198 85 159 0 -11 7 -25 15 -32 17 -15 22 -4 61 133 80 285 134 661 176 1222
16 223 16 874 0 1025 -48 444 -189 952 -448 1616 -40 106 -74 199 -74 208 0
10 9 16 25 16 l25 0 -21 52 c-38 96 -210 452 -299 619 -181 339 -393 674 -517
819 -36 41 -83 107 -105 145 -70 120 -158 223 -364 425 -302 297 -651 589
-823 689 -40 24 -147 76 -238 117 -143 64 -173 81 -229 134 -67 62 -96 72
-150 50z m-554 -4020 l31 -39 -12 -63 c-7 -35 -16 -67 -19 -71 -4 -4 -12 32
-19 80 -7 48 -15 98 -18 111 -7 31 1 28 37 -18z m-990 -3347 c25 -46 64 -107
87 -137 163 -208 632 -391 1058 -412 171 -9 279 11 410 75 97 48 103 49 236
61 74 6 164 17 200 24 35 8 66 12 68 10 8 -7 -16 -158 -45 -287 -15 -65 -23
-121 -20 -125 4 -3 29 17 55 46 26 29 53 52 59 52 26 0 45 -62 38 -125 -6 -64
-42 -205 -55 -218 -4 -4 -72 24 -152 61 -321 153 -553 214 -890 233 -437 25
-762 -27 -1064 -170 -148 -70 -236 -132 -368 -260 -64 -63 -119 -112 -121
-110 -2 2 -29 78 -60 167 -76 223 -111 401 -90 457 6 14 8 13 21 -5 8 -11 17
-20 21 -20 4 0 14 33 21 73 28 159 111 361 194 475 42 57 290 224 327 220 19
-2 34 -20 70 -85z m1055 -1004 c230 -19 471 -83 660 -173 99 -48 255 -159 255
-182 0 -8 -36 -85 -80 -171 -44 -86 -80 -160 -80 -165 0 -6 7 -8 15 -4 20 7
19 4 -9 -52 -29 -57 -112 -175 -210 -297 -98 -122 -114 -152 -74 -139 21 6 22
6 8 -12 -8 -10 -65 -73 -125 -139 -198 -216 -235 -267 -235 -326 0 -24 -50
-120 -84 -163 l-24 -29 -154 115 c-84 63 -192 142 -240 177 -49 34 -88 66 -88
71 0 12 47 56 93 87 36 25 38 25 51 8 26 -36 51 10 85 158 30 127 53 177 82
177 26 0 52 -26 79 -81 17 -33 35 -57 40 -54 5 3 18 32 27 63 15 47 18 94 18
262 -1 227 -15 312 -75 435 -34 70 -42 81 -92 119 -28 21 -39 25 -43 15 -48
-139 -93 -212 -248 -407 -126 -159 -178 -234 -221 -319 -20 -40 -36 -75 -36
-77 0 -3 34 11 76 30 102 46 114 45 114 -8 0 -66 10 -74 55 -44 69 47 76 22
14 -51 -32 -36 -106 -141 -156 -222 -1 -2 -41 25 -90 60 -345 246 -510 407
-653 637 l-49 80 61 93 c257 389 737 580 1333 528z m2331 -566 c-2 -10 -16
-62 -31 -116 -119 -448 -259 -749 -448 -963 l-54 -62 -6 217 c-5 173 -11 241
-32 341 -14 69 -25 135 -25 148 0 17 18 33 73 68 66 43 411 298 482 358 36 30
48 32 41 9z m-957 -705 c42 -245 40 -488 -5 -685 l-17 -71 -81 -35 c-103 -45
-280 -100 -421 -132 -121 -27 -395 -68 -424 -63 -19 3 -181 182 -181 199 0 18
172 210 281 313 110 104 295 234 499 349 63 36 162 92 220 125 58 33 108 61
111 61 4 1 12 -27 18 -61z m-2291 -419 c34 -15 62 -30 62 -33 0 -15 -153 -236
-163 -236 -27 0 -237 197 -321 300 -44 55 -136 205 -136 223 0 3 111 -47 248
-110 136 -63 275 -128 310 -144z m295 -156 c165 -93 308 -182 441 -275 13 -9
-20 -81 -49 -108 -23 -21 -24 -21 -116 -5 -163 28 -331 77 -462 135 -56 25
-56 19 8 155 39 81 79 145 91 145 3 0 42 -21 87 -47z m-201 -697 c62 -24 168
-62 235 -83 68 -21 123 -43 123 -50 0 -13 -128 -302 -142 -320 -26 -33 -230
147 -285 253 -49 92 -82 244 -54 244 5 0 60 -20 123 -44z m1748 -192 c-30 -30
-67 -64 -81 -75 l-27 -19 -31 48 c-17 27 -31 53 -31 59 0 5 42 16 93 25 141
24 138 25 77 -38z m-970 6 c58 -5 207 -9 331 -10 l227 0 54 -72 c78 -104 85
-118 63 -134 -58 -43 -288 -110 -485 -143 -210 -34 -335 -37 -472 -11 -65 12
-118 27 -118 33 0 24 155 290 199 340 12 15 24 17 56 13 22 -4 87 -11 145 -16z"/>
</g>
</svg>
