<?xml version="1.0" standalone="no"?>
<!DOCTYPE svg PUBLIC "-//W3C//DTD SVG 20010904//EN"
 "http://www.w3.org/TR/2001/REC-SVG-20010904/DTD/svg10.dtd">
<svg version="1.0" xmlns="http://www.w3.org/2000/svg"
 width="1280.000000pt" height="1056.000000pt" viewBox="0 0 1280.000000 1056.000000"
 preserveAspectRatio="xMidYMid meet">
<g transform="translate(0.000000,1056.000000) scale(0.100000,-0.100000)"
fill="#000000" stroke="none">
<path d="M2786 10509 c-3 -17 -6 -49 -6 -70 0 -22 -4 -39 -9 -39 -18 0 -20
-33 -4 -61 16 -27 16 -29 -5 -52 -25 -27 -28 -53 -8 -76 11 -14 3 -49 -56
-246 -87 -289 -90 -297 -242 -672 -69 -172 -126 -320 -126 -328 0 -10 10 -15
32 -15 l31 0 -6 -112 c-4 -62 -7 -133 -8 -158 -1 -35 -3 -40 -8 -20 -5 19 -16
27 -49 34 -23 5 -44 7 -46 5 -2 -2 -6 -101 -7 -219 l-3 -215 33 -90 c19 -49
37 -115 42 -145 11 -63 12 -347 2 -529 l-6 -124 -108 7 -109 7 0 -57 0 -57
-122 7 c-68 3 -265 11 -438 16 -425 15 -393 9 -413 74 -23 71 -21 176 3 281
23 97 23 103 11 90 -15 -17 -41 -139 -51 -246 -7 -74 -7 -132 1 -199 l12 -95
-173 -460 c-94 -253 -175 -466 -180 -474 -5 -9 -30 55 -71 177 l-63 190 -87
-301 c-52 -181 -83 -306 -78 -312 12 -12 11 -234 -2 -360 -5 -55 -12 -126 -15
-157 -3 -31 -2 -63 3 -72 4 -8 5 -75 1 -148 -8 -163 -36 -759 -43 -923 -3 -66
-10 -235 -15 -375 -22 -526 -50 -980 -81 -1308 -9 -89 -16 -122 -26 -122 -9 0
-13 -17 -14 -57 l-1 -58 -12 40 -13 40 -7 -44 c-3 -23 -4 -59 -1 -79 l5 -37
-13 29 c-12 23 -15 25 -20 11 -4 -9 -7 -29 -7 -44 0 -38 -11 -46 -27 -19 -10
20 -12 5 -14 -102 -1 -118 -2 -122 -13 -80 -15 53 -21 41 -32 -63 -3 -37 -10
-69 -14 -72 -4 -2 -15 4 -25 15 -18 20 -45 27 -45 12 0 -5 8 -34 19 -64 12
-35 16 -60 10 -70 -11 -21 4 -101 36 -190 29 -82 29 -79 10 -72 -12 5 -15 -2
-15 -30 0 -24 -5 -36 -14 -36 -17 0 -46 70 -46 111 0 36 -21 35 -31 -2 -6 -22
-12 -1248 -6 -1250 1 0 240 -44 532 -98 l530 -97 0 -58 0 -58 60 6 c33 3 134
11 225 17 l166 13 32 -24 c18 -13 32 -30 32 -37 0 -7 11 -18 25 -25 13 -6 22
-14 20 -18 -2 -4 8 -13 23 -21 15 -7 38 -22 51 -34 21 -17 23 -18 18 -2 -13
35 9 61 65 80 54 19 55 19 195 -7 77 -14 146 -26 152 -26 6 0 11 19 11 48 0
28 4 42 8 34 7 -10 16 -9 45 3 22 9 37 11 37 5 0 -16 41 -12 100 11 46 17 67
20 129 14 40 -4 71 -3 68 2 -3 4 20 8 51 8 32 0 66 4 77 9 11 5 45 8 75 8 52
0 53 0 15 7 l-40 7 60 8 c33 4 72 9 87 12 14 3 29 0 33 -5 3 -6 18 -10 33 -10
17 1 21 3 9 6 -32 8 -6 23 41 23 34 0 43 -3 32 -10 -30 -19 13 -11 53 10 22
12 56 20 85 20 26 0 61 4 79 9 23 7 33 6 36 -2 3 -9 15 -7 41 6 27 13 62 17
139 17 90 0 148 8 197 27 27 10 53 13 150 14 52 1 101 6 108 12 17 14 52 17
52 4 0 -6 15 -7 38 -2 47 9 80 13 114 14 15 1 33 7 40 15 15 14 64 23 183 31
69 5 170 21 203 31 14 5 15 4 2 -5 -8 -5 -12 -12 -9 -16 8 -8 69 6 64 15 -3 4
5 10 18 14 12 3 24 1 25 -4 6 -16 69 -12 86 5 8 9 33 15 58 15 25 0 56 8 76
20 38 23 84 26 115 6 23 -15 87 -11 87 5 0 14 20 11 36 -5 15 -15 93 -16 128
-1 14 6 17 5 12 -3 -9 -16 -3 -15 41 3 44 18 43 18 43 0 0 -19 41 -19 95 0 51
19 125 18 149 0 24 -18 60 -20 50 -3 -5 8 -2 9 9 5 9 -3 39 -9 65 -13 38 -5
52 -3 65 11 15 15 18 15 33 1 9 -10 31 -16 57 -15 l42 1 -45 13 -45 13 86 1
c66 1 90 -3 99 -14 7 -8 22 -15 34 -14 18 1 17 2 -8 13 -24 11 -1 13 155 13
111 -1 187 -5 191 -11 4 -6 21 -5 47 4 32 10 54 11 110 2 85 -14 208 -16 216
-3 7 13 154 5 205 -10 33 -10 43 -10 57 3 18 15 53 14 53 -2 0 -13 173 -10
189 3 10 8 76 12 207 12 107 0 189 -2 184 -3 -18 -6 -10 -22 10 -22 15 0 20
-7 20 -26 0 -35 17 -64 38 -64 9 0 23 -9 30 -20 7 -11 20 -20 30 -20 14 0 15
-2 2 -10 -23 -15 6 -13 31 3 18 10 23 9 26 -1 4 -9 8 -10 18 -2 9 8 15 8 20 0
4 -7 12 -7 25 0 13 7 20 6 24 -3 5 -9 7 -9 12 1 6 13 44 17 44 5 0 -5 18 -8
40 -9 21 0 37 3 34 8 -3 4 2 8 10 8 9 0 16 -6 16 -12 0 -9 4 -8 10 2 9 13 11
13 20 0 5 -8 10 -10 10 -4 0 16 190 16 190 0 0 -6 5 -4 10 4 6 9 13 11 18 5
10 -14 42 -18 42 -5 0 14 83 13 98 -2 9 -9 12 -9 12 1 0 11 3 11 15 1 8 -7 15
-8 15 -2 0 5 14 12 30 16 l30 6 0 456 c0 252 2 455 4 453 2 -2 14 -171 26
-374 11 -204 23 -406 26 -450 l5 -81 177 -23 c97 -13 188 -25 202 -26 36 -3
61 -15 53 -28 -4 -7 0 -8 13 -2 28 11 74 13 80 3 3 -4 14 -3 25 2 14 8 19 7
19 -1 0 -8 4 -8 15 1 8 6 23 9 36 5 33 -11 69 -13 69 -5 0 5 59 8 130 7 72 -1
130 -4 130 -8 0 -9 27 -6 36 4 12 12 84 8 84 -4 0 -8 5 -8 15 1 10 8 15 9 15
1 0 -6 13 -3 33 8 l32 18 3 95 3 96 47 6 c104 15 167 17 152 7 -11 -8 -5 -11
25 -11 23 0 46 5 53 12 8 8 15 8 26 -1 18 -15 97 -17 124 -2 17 9 22 9 22 0 0
-11 5 -10 64 8 12 4 17 2 13 -4 -11 -17 17 -22 59 -11 22 6 58 12 82 15 l42 5
0 -56 0 -56 1122 2 1122 3 -3 52 -2 51 40 -5 c33 -4 42 -2 47 12 4 9 2 20 -4
24 -12 7 -11 29 2 50 5 8 4 16 -4 21 -14 8 -10 226 5 250 5 9 4 15 -3 18 -14
4 -16 100 -2 122 5 9 5 19 -2 27 -8 10 -8 21 1 39 14 31 14 47 1 39 -13 -8
-13 35 0 55 6 9 5 19 -2 28 -9 10 -8 16 3 23 10 6 11 11 3 17 -15 9 -16 89 -1
113 9 14 9 21 -1 31 -15 15 -16 50 0 66 7 7 8 12 2 12 -12 0 -12 35 -1 46 11
11 8 44 -3 44 -14 0 -12 53 3 69 10 11 9 14 -1 18 -10 4 -10 8 -1 19 7 8 7 14
2 14 -7 0 -11 73 -11 195 -1 145 2 195 11 195 8 0 8 3 2 8 -16 11 -20 209 -5
227 9 10 9 15 1 15 -6 0 -11 11 -11 25 0 19 -7 26 -32 34 -18 5 -27 10 -20 10
9 1 12 72 12 321 0 227 3 320 11 320 16 0 6 22 -48 105 -57 87 -49 85 -309 85
l-173 0 -21 27 c-19 24 -19 28 -5 42 12 12 35 16 100 14 95 -2 106 7 60 52
-29 30 -91 33 -212 10 -43 -8 -79 -15 -81 -15 -1 0 5 14 14 31 13 26 14 36 3
61 -12 29 -11 32 21 58 36 29 36 60 1 60 -23 0 -71 20 -71 29 1 3 19 15 42 26
50 25 70 51 48 65 -12 7 -12 14 -2 43 21 58 13 63 -31 19 -50 -49 -63 -53 -43
-14 20 38 33 138 17 128 -6 -4 -11 -15 -11 -25 0 -10 -7 -24 -15 -31 -8 -7
-15 -23 -15 -36 0 -42 -82 -75 -96 -39 -4 9 3 38 15 65 28 64 28 91 1 59 l-19
-24 -1 45 c0 51 -9 45 -34 -22 -22 -60 -50 -67 -41 -10 3 20 8 52 11 70 3 17
11 32 18 32 45 0 82 68 102 185 l6 40 -38 -54 c-58 -81 -66 -79 -62 18 2 45 2
81 1 81 -1 0 -15 -13 -31 -30 -32 -31 -50 -32 -85 -2 -16 14 -17 12 -11 -46 4
-35 3 -62 -2 -62 -5 0 -31 47 -58 103 -53 111 -70 116 -37 9 22 -72 73 -162
93 -162 6 0 22 10 35 22 24 23 29 15 16 -30 -5 -23 -9 -24 -60 -17 -50 6 -54
5 -51 -12 2 -12 22 -24 61 -36 45 -14 58 -24 63 -43 14 -57 -20 -107 -70 -102
-29 3 -31 6 -34 48 -4 51 -25 80 -59 80 -27 0 -28 -6 -7 -48 15 -30 12 -72 -5
-72 -9 0 -26 39 -35 81 -9 43 -46 81 -72 76 l-24 -4 -2 421 c-2 231 -3 453 -3
491 1 85 43 194 105 269 38 46 40 51 40 120 0 39 -5 108 -11 153 -11 75 -10
87 11 150 12 37 26 76 31 85 5 10 9 21 9 24 0 4 -70 4 -156 0 l-156 -6 7 217
c7 192 10 225 30 278 20 52 24 84 29 245 l5 185 -86 55 c-52 34 -138 105 -219
184 l-134 128 0 87 c0 87 -11 130 -24 96 -3 -9 -6 -53 -6 -98 l0 -82 -136
-120 c-157 -139 -240 -199 -306 -223 l-48 -17 0 -171 c0 -167 1 -173 30 -244
33 -81 35 -110 23 -366 l-6 -140 -131 18 c-72 9 -135 18 -140 18 -4 0 -5 -16
-2 -35 4 -22 3 -35 -4 -35 -5 0 -10 -4 -10 -10 0 -5 6 -10 14 -10 32 0 35
-159 5 -270 l-22 -78 63 -123 63 -123 -7 -341 -7 -340 -75 -112 c-41 -62 -78
-114 -82 -117 -4 -2 -50 47 -102 109 l-95 114 -591 0 -592 1 -56 66 -56 66 0
213 c0 118 4 216 8 219 5 3 6 43 4 88 -4 78 -3 85 17 94 l22 9 -26 35 c-47 63
-205 393 -206 430 0 19 -4 44 -8 55 -8 19 -8 19 -19 -2 -7 -12 -12 -33 -12
-48 0 -42 -127 -270 -228 -409 -32 -44 -34 -49 -18 -58 16 -9 17 -20 11 -104
-7 -84 -5 -96 10 -108 10 -7 14 -15 9 -18 -5 -3 -183 -9 -396 -13 l-388 -7 -2
189 c-1 103 -2 209 -3 235 0 26 3 44 7 42 4 -3 9 -20 9 -37 1 -23 5 -15 13 29
7 34 11 99 8 148 -4 82 -6 87 -26 84 -19 -3 -24 9 -54 112 -46 161 -68 277
-92 490 -12 102 -23 186 -24 187 -1 1 -15 -78 -31 -177 -16 -99 -32 -180 -36
-180 -14 0 -112 325 -179 593 -54 217 -72 312 -91 470 -13 108 -26 197 -29
197 -3 0 -29 -72 -58 -160 l-53 -160 -132 6 c-73 2 -379 11 -682 19 -1153 30
-1391 38 -1409 45 -14 5 -20 17 -21 41 0 19 -2 60 -3 92 l-2 57 -35 0 c-26 0
-35 -4 -35 -17 0 -9 -2 -14 -5 -12 -18 19 -207 1150 -194 1163 13 14 11 63 -2
72 -6 3 -19 20 -29 37 l-19 30 -12 -26 c-7 -15 -16 -27 -20 -27 -5 0 -16 -11
-25 -26 -16 -24 -16 -26 5 -55 26 -35 29 -10 -53 -384 -78 -354 -101 -451
-148 -610 -44 -151 -54 -170 -69 -142 -6 10 -22 17 -39 17 l-29 0 -3 -87 -3
-88 -114 -3 c-156 -4 -177 11 -185 137 l-4 56 -157 3 -158 3 7 49 7 50 -62 0
-62 0 7 386 c5 312 10 392 22 415 20 39 26 36 18 -8 -11 -64 5 -30 30 61 20
71 25 121 31 291 l8 205 -48 0 c-38 0 -48 -4 -52 -20 -3 -11 -9 -20 -13 -20
-5 0 -16 -3 -24 -6 -15 -6 -16 7 -14 117 l3 124 26 3 26 3 -23 65 c-13 36 -24
87 -24 114 0 37 -4 50 -15 50 -8 0 -20 19 -29 49 -34 115 -110 428 -176 724
-64 292 -69 320 -55 340 20 29 19 43 -7 69 -18 18 -23 35 -24 78 -1 78 -15
180 -24 180 -4 0 -10 -14 -14 -31z m-89 -1021 c18 -56 31 -104 29 -105 -3 -3
-76 189 -76 200 0 4 3 7 8 7 4 0 21 -46 39 -102z m8843 -5640 c4 -24 14 -70
23 -103 8 -33 18 -73 22 -90 l7 -30 12 23 12 23 13 -27 c7 -16 8 -30 3 -33 -5
-3 -13 -21 -17 -38 -9 -43 -17 -47 -53 -26 -19 11 -34 31 -41 54 -15 51 -15
317 1 301 6 -6 14 -30 18 -54z m208 -224 c3 -23 -23 -50 -53 -56 -24 -4 -32
30 -15 62 15 28 64 24 68 -6z m142 -37 c0 -5 7 -4 15 3 28 23 17 -23 -12 -53
-62 -63 -70 -73 -82 -94 -6 -13 -16 -23 -21 -23 -15 0 -12 33 4 55 7 11 17 35
21 53 4 19 17 49 28 67 20 30 23 32 35 17 6 -9 12 -20 12 -25z m-1283 -114
c-2 -16 -4 -5 -4 22 0 28 2 40 4 28 2 -13 2 -35 0 -50z m937 -63 c35 -53 34
-70 -4 -70 -30 0 -30 1 -30 55 0 30 2 55 4 55 2 0 15 -18 30 -40z m-937 -267
c-1 -54 -3 -10 -3 97 0 107 2 151 3 98 2 -54 2 -142 0 -195z m973 132 c31 -9
61 -35 54 -46 -3 -5 -20 -9 -39 -9 -26 0 -38 7 -54 29 -26 36 -26 44 -3 37 9
-2 28 -8 42 -11z m540 -20 c0 -43 -14 -46 -28 -6 -11 31 -7 41 15 41 8 0 13
-12 13 -35z m-137 -32 c-7 -2 -19 -2 -25 0 -7 3 -2 5 12 5 14 0 19 -2 13 -5z
m-1010 -840 c-24 -2 -62 -2 -85 0 -24 2 -5 4 42 4 47 0 66 -2 43 -4z m1455 0
c-16 -2 -40 -2 -55 0 -16 2 -3 4 27 4 30 0 43 -2 28 -4z m140 0 c-16 -2 -40
-2 -55 0 -16 2 -3 4 27 4 30 0 43 -2 28 -4z m120 0 c-15 -2 -42 -2 -60 0 -18
2 -6 4 27 4 33 0 48 -2 33 -4z m-4483 -103 c87 -6 74 -7 -103 -8 -133 -1 -201
1 -197 8 7 11 147 11 300 0z m-3508 -122 c-3 -8 -6 -5 -6 6 -1 11 2 17 5 13 3
-3 4 -12 1 -19z m3908 -499 c-14 -18 -35 -49 -46 -70 -11 -22 -22 -39 -24 -39
-3 0 -5 32 -5 70 l0 70 51 0 51 0 -27 -31z m305 2 l0 -30 -47 26 c-27 15 -50
28 -52 30 -2 2 19 3 47 3 51 0 52 -1 52 -29z m-8870 -115 c0 -25 -4 -48 -10
-51 -6 -4 -10 13 -10 44 0 28 5 51 10 51 6 0 10 -20 10 -44z m849 -937 c12 -5
29 -25 37 -45 9 -20 22 -43 30 -51 15 -16 19 -83 5 -83 -5 0 -19 12 -31 28
-14 17 -31 27 -48 27 -21 0 -31 8 -44 35 -21 40 -23 111 -6 143 11 21 12 21
23 -12 6 -20 21 -38 34 -42z m-105 -40 c13 -31 11 -69 -4 -69 -7 0 -20 57 -20
88 0 21 11 13 24 -19z m256 -209 c0 -11 -4 -20 -10 -20 -5 0 -10 9 -10 20 0
11 5 20 10 20 6 0 10 -9 10 -20z"/>
<path d="M430 5601 c0 -6 4 -13 10 -16 6 -3 7 1 4 9 -7 18 -14 21 -14 7z"/>
<path d="M11826 4632 c-4 -34 -11 -130 -15 -213 -5 -82 -11 -153 -15 -156 -3
-3 -10 7 -16 23 -9 23 -47 76 -91 127 -4 5 -1 -16 6 -46 21 -91 97 -148 154
-116 14 8 35 32 46 52 16 30 25 37 43 34 33 -6 37 9 7 29 -22 14 -25 23 -24
60 3 54 -4 62 -25 29 -9 -14 -20 -25 -25 -25 -4 0 -11 49 -15 110 -8 141 -20
178 -30 92z"/>
<path d="M6073 483 c9 -2 25 -2 35 0 9 3 1 5 -18 5 -19 0 -27 -2 -17 -5z"/>
<path d="M6163 483 c9 -2 23 -2 30 0 6 3 -1 5 -18 5 -16 0 -22 -2 -12 -5z"/>
<path d="M6428 483 c12 -2 30 -2 40 0 9 3 -1 5 -23 4 -22 0 -30 -2 -17 -4z"/>
<path d="M3363 283 c9 -2 23 -2 30 0 6 3 -1 5 -18 5 -16 0 -22 -2 -12 -5z"/>
<path d="M3095 250 c-16 -7 -17 -9 -3 -9 9 -1 20 4 23 9 7 11 7 11 -20 0z"/>
</g>
</svg>
