<?xml version="1.0" standalone="no"?>
<!DOCTYPE svg PUBLIC "-//W3C//DTD SVG 20010904//EN"
 "http://www.w3.org/TR/2001/REC-SVG-20010904/DTD/svg10.dtd">
<svg version="1.0" xmlns="http://www.w3.org/2000/svg"
 width="1280.000000pt" height="699.000000pt" viewBox="0 0 1280.000000 699.000000"
 preserveAspectRatio="xMidYMid meet">
<g transform="translate(0.000000,699.000000) scale(0.100000,-0.100000)"
fill="#000000" stroke="none">
<path d="M9050 6942 c-19 -14 -65 -50 -102 -80 l-68 -53 0 -62 c0 -63 18 -107
43 -107 18 0 80 19 96 29 12 8 12 14 1 40 -7 17 -15 31 -18 31 -14 0 -40 -33
-35 -46 4 -10 -3 -14 -26 -14 -17 0 -31 3 -31 8 0 14 134 140 166 156 28 13
34 14 44 1 15 -19 5 -34 -35 -51 -21 -9 -35 -23 -39 -40 -8 -31 -8 -32 34 -44
29 -8 35 -6 61 23 27 30 45 73 49 122 4 35 0 45 -16 45 -9 0 -14 7 -12 18 4
27 -20 52 -51 52 -14 -1 -42 -13 -61 -28z"/>
<path d="M5435 6940 c-3 -5 -1 -18 5 -29 16 -31 12 -33 -19 -10 -16 12 -34 18
-40 15 -7 -4 -11 -42 -11 -94 0 -92 16 -154 52 -207 23 -35 92 -87 102 -78 3
3 3 44 -1 91 -5 65 -3 83 6 78 6 -4 19 -2 28 5 14 12 15 10 8 -21 -4 -19 -11
-39 -16 -44 -14 -15 -11 -70 5 -91 12 -17 15 -16 46 26 51 71 62 96 50 119 -8
15 -6 21 6 28 31 17 11 81 -38 125 -75 66 -168 111 -183 87z"/>
<path d="M9520 6886 c-115 -43 -224 -124 -234 -174 -20 -99 -15 -122 30 -122
35 0 209 65 240 89 43 34 67 81 68 131 0 84 -27 104 -104 76z"/>
<path d="M8414 6866 c-47 -21 -100 -106 -118 -189 -15 -65 43 -157 98 -157 45
0 86 21 86 43 0 24 19 80 38 114 28 50 6 155 -39 187 -28 19 -26 19 -65 2z"/>
<path d="M3625 6829 c-32 -84 -52 -258 -35 -299 13 -32 64 -75 78 -66 5 3 8
79 8 170 -1 157 -2 167 -23 188 -18 17 -23 19 -28 7z"/>
<path d="M3698 6668 c-4 -193 -1 -220 20 -216 8 2 33 29 55 60 37 53 41 63 45
138 4 74 3 83 -22 120 -24 36 -58 60 -86 60 -5 0 -10 -73 -12 -162z"/>
<path d="M3300 6809 c-69 -12 -77 -21 -48 -50 46 -48 226 -199 237 -199 15 0
51 74 51 105 0 36 -38 112 -68 135 -27 22 -77 24 -172 9z"/>
<path d="M5830 6794 c-25 -14 -60 -39 -78 -57 -32 -31 -72 -119 -72 -158 0
-22 36 -79 50 -79 14 0 58 84 81 155 16 48 29 69 44 75 12 5 32 21 44 37 16
19 21 22 16 8 -4 -11 -11 -35 -15 -52 -4 -18 -22 -49 -39 -68 -28 -32 -91
-144 -91 -161 0 -15 84 6 106 27 28 26 60 121 69 205 7 57 6 61 -19 77 -33 22
-43 21 -96 -9z"/>
<path d="M2730 6793 c0 -5 11 -44 25 -88 68 -212 170 -301 302 -264 l45 12 -4
61 c-10 126 -84 220 -202 260 -27 9 -51 16 -53 16 -14 0 11 -43 87 -150 50
-69 90 -134 90 -144 0 -18 -2 -18 -26 5 -15 13 -53 65 -86 114 -34 50 -75 105
-92 123 -32 34 -86 69 -86 55z"/>
<path d="M2508 6783 c-10 -2 -18 -6 -18 -9 0 -2 26 -38 59 -78 71 -90 124
-180 119 -203 -2 -12 -26 16 -70 82 -76 114 -148 191 -172 182 -25 -10 -19
-39 24 -128 22 -46 40 -88 40 -95 0 -6 13 -17 28 -23 15 -6 55 -30 87 -51 39
-26 71 -40 92 -40 29 0 33 4 39 35 25 134 -36 263 -151 316 -41 19 -47 20 -77
12z"/>
<path d="M7792 6751 c-23 -41 -41 -142 -42 -232 l0 -56 58 -31 c69 -37 132
-51 132 -30 0 20 -50 134 -88 199 -17 31 -32 66 -32 78 0 30 31 27 64 -8 23
-24 27 -35 21 -59 -5 -23 3 -48 34 -109 21 -44 46 -85 55 -92 23 -19 46 34 46
109 0 53 -4 68 -31 105 -32 45 -70 78 -150 133 l-46 31 -21 -38z"/>
<path d="M8670 6774 c-67 -29 -120 -94 -150 -187 -11 -35 -10 -40 15 -73 15
-19 24 -41 21 -49 -3 -8 -28 -21 -56 -29 -28 -8 -64 -25 -80 -36 -38 -27 -70
-92 -70 -142 0 -42 41 -118 64 -118 22 0 66 -40 66 -60 0 -28 -35 -47 -114
-63 -67 -14 -100 -13 -121 4 -18 13 -82 21 -89 11 -8 -13 9 -91 22 -104 5 -5
38 -16 73 -24 50 -12 75 -13 114 -5 190 41 400 73 456 69 47 -3 67 -12 126
-52 38 -26 87 -53 109 -61 36 -13 39 -16 37 -50 -5 -78 61 -153 141 -162 59
-7 100 16 131 75 41 79 39 78 76 51 29 -20 45 -24 105 -23 95 2 123 17 157 84
38 72 33 138 -12 181 -39 37 -71 44 -126 29 -45 -13 -75 -9 -75 10 0 6 25 22
55 36 61 29 74 41 52 50 -9 3 -13 13 -9 26 4 17 1 19 -17 14 -11 -3 -30 -8
-40 -11 -11 -3 -22 -1 -26 5 -9 14 21 37 57 45 31 7 135 62 143 76 9 13 -6 11
-55 -6 -49 -17 -58 -18 -45 -6 20 19 287 132 303 128 11 -2 -4 -13 -39 -29
-31 -14 -59 -31 -63 -36 -9 -15 27 -32 83 -39 77 -9 144 19 213 88 32 31 58
62 58 67 0 6 -21 29 -46 51 -42 37 -52 41 -99 41 -64 0 -133 -29 -161 -67 -50
-67 -233 -176 -392 -233 l-63 -23 7 -41 c7 -40 8 -75 2 -81 -3 -4 -65 -8 -90
-6 -9 1 -26 17 -38 36 -22 35 -22 36 -5 99 16 60 16 67 1 114 -11 32 -30 63
-52 82 -39 33 -42 34 -79 20 -29 -11 -25 -30 7 -30 11 0 36 -16 55 -35 31 -31
35 -40 30 -72 -9 -51 -47 -87 -93 -87 -29 0 -43 7 -70 37 -19 21 -34 47 -34
61 0 35 58 141 114 210 33 41 44 61 36 66 -7 4 -9 13 -5 20 13 21 -17 29 -93
25 -84 -5 -141 -27 -196 -75 -52 -46 -97 -140 -67 -140 5 0 45 22 88 49 102
63 243 134 243 122 0 -5 -29 -25 -63 -45 -35 -19 -70 -43 -78 -52 -8 -10 -39
-28 -69 -41 -92 -41 -135 -96 -67 -88 141 17 139 18 117 -40 -15 -38 9 -85 66
-131 107 -87 154 -136 154 -162 0 -32 -45 -99 -72 -108 -43 -13 -87 6 -155 69
l-68 62 -150 -7 c-82 -4 -168 -9 -189 -10 -24 -2 -41 2 -43 9 -3 7 16 34 41
61 40 43 75 102 82 140 4 23 24 39 69 57 64 24 58 42 -17 50 -68 8 -118 35
-118 64 0 12 10 20 28 24 50 10 114 78 160 170 23 47 45 99 48 115 5 26 3 31
-27 41 -44 15 -97 13 -139 -5z"/>
<path d="M6157 6769 c-85 -20 -151 -69 -186 -137 -25 -49 -26 -82 -6 -122 24
-46 43 -52 113 -30 133 42 203 112 209 210 2 30 0 60 -4 66 -12 17 -82 24
-126 13z"/>
<path d="M3125 6726 c19 -63 32 -85 73 -128 41 -43 110 -70 185 -72 77 -2 73
19 -20 99 -106 91 -189 145 -223 145 l-28 0 13 -44z"/>
<path d="M6434 6691 c-101 -46 -170 -145 -162 -232 3 -27 7 -51 9 -54 10 -9
118 23 169 51 97 52 154 128 159 209 l2 40 -68 2 c-49 2 -80 -3 -109 -16z"/>
<path d="M7434 6652 c-31 -27 -32 -29 -30 -113 2 -140 40 -174 194 -174 86 0
95 2 113 24 26 32 26 91 -1 98 -22 6 -26 18 -10 28 21 13 8 40 -39 86 -35 34
-64 51 -104 63 -74 22 -87 20 -123 -12z"/>
<path d="M5173 6644 c-3 -11 -12 -23 -20 -27 -19 -12 -16 -39 11 -100 32 -74
90 -135 154 -164 86 -38 129 -28 95 23 l-17 26 31 -6 c30 -7 32 -6 39 28 14
78 -16 147 -87 199 -38 28 -52 32 -121 36 -69 3 -79 1 -85 -15z"/>
<path d="M7002 6608 c8 -13 37 -38 64 -55 60 -40 91 -74 198 -223 180 -249
245 -386 316 -669 78 -309 70 -467 -30 -624 -42 -67 -43 -137 -1 -166 26 -19
29 -27 33 -98 3 -43 2 -188 -3 -323 -7 -217 -11 -256 -34 -340 -29 -105 -29
-106 -44 -205 -24 -154 -58 -275 -77 -275 -3 0 -82 50 -175 110 -177 116 -199
128 -199 113 0 -19 75 -84 125 -108 57 -26 80 -48 70 -65 -12 -19 -45 -11 -54
14 -9 21 -29 36 -56 41 -5 1 -107 49 -225 107 -118 58 -288 136 -377 174
l-163 69 0 61 c0 33 -6 74 -14 90 -8 16 -22 67 -31 114 -9 47 -23 115 -31 151
-8 37 -14 75 -14 85 0 11 -9 30 -19 43 -14 18 -19 20 -24 9 -6 -17 17 -243 28
-270 4 -11 3 -18 -4 -18 -6 0 -11 2 -11 4 0 26 -53 273 -60 280 -23 23 -10
-139 20 -258 30 -117 39 -226 20 -226 -5 0 -10 1 -10 3 -2 74 -49 318 -86 455
-9 32 -24 -5 -24 -59 0 -32 -4 -59 -9 -59 -12 0 -35 96 -27 116 3 8 31 27 62
41 52 23 65 25 159 21 108 -5 149 -19 163 -58 4 -10 5 -69 2 -130 l-5 -112 27
-19 c16 -12 33 -39 43 -69 9 -27 26 -61 37 -76 22 -27 104 -84 121 -84 12 0
-1 51 -18 70 -25 29 -55 100 -55 130 0 40 13 66 58 113 59 61 127 69 277 30
33 -9 85 -17 115 -19 83 -5 190 -25 233 -42 39 -15 179 -13 220 3 34 14 41 47
45 203 4 147 3 154 -22 207 -19 42 -35 59 -66 75 l-40 20 60 91 c73 108 100
167 100 220 l0 39 -189 0 -189 0 -22 35 c-25 41 -47 45 -56 11 -7 -31 -39 -60
-54 -51 -6 4 -15 18 -20 31 -13 33 -29 30 -42 -7 l-11 -32 -61 8 c-34 4 -101
10 -151 14 -76 5 -90 9 -93 24 -6 28 17 48 96 84 39 18 72 38 72 43 0 13 -57
13 -65 0 -3 -5 -13 -10 -22 -10 -9 0 -61 -27 -115 -61 -54 -33 -104 -59 -110
-57 -18 6 79 106 140 145 28 18 52 40 52 48 0 21 -5 19 -66 -21 -71 -47 -246
-246 -249 -283 -1 -15 -19 -58 -39 -96 -32 -57 -36 -72 -27 -92 15 -33 26 -29
53 20 30 54 63 62 71 18 9 -42 21 -39 49 11 27 49 48 60 48 26 0 -13 6 -33 14
-43 13 -18 15 -16 40 23 14 23 30 42 35 42 5 0 12 -14 16 -31 5 -22 16 -35 39
-44 32 -14 56 -50 56 -85 0 -13 12 -25 34 -34 22 -9 43 -30 60 -58 44 -75 44
-75 -89 -104 -87 -19 -285 -29 -285 -14 0 6 -43 10 -114 10 -81 0 -117 4 -124
13 -8 9 -6 39 8 106 25 117 66 282 85 339 9 26 15 82 15 145 0 124 15 161 81
194 42 22 194 50 284 54 22 1 54 6 71 11 18 5 76 15 130 23 152 22 218 35 228
46 6 5 17 9 24 9 8 0 70 28 138 61 129 65 176 101 157 120 -6 6 -9 18 -6 25 9
24 -20 16 -124 -35 -179 -87 -263 -111 -458 -127 -44 -3 -88 -10 -98 -16 -10
-5 -66 -13 -125 -18 -59 -5 -134 -14 -166 -20 -75 -14 -82 -7 -66 60 23 95 -9
238 -65 290 -20 19 -31 21 -72 16 -26 -3 -106 -9 -178 -12 -174 -9 -239 -36
-270 -111 -8 -18 -20 -33 -27 -33 -23 0 -76 38 -83 60 -6 19 18 101 38 127 5
7 11 50 14 95 6 82 6 83 49 125 49 48 85 58 177 50 41 -3 85 -16 130 -37 37
-18 70 -30 73 -27 10 10 -39 65 -73 82 -17 8 -60 22 -95 29 -57 13 -59 14 -24
15 54 1 147 -26 182 -54 25 -20 29 -30 30 -77 3 -125 65 -198 170 -198 61 0
98 23 145 91 38 55 50 65 79 68 26 2 44 14 69 43 42 48 32 67 -24 44 -55 -23
-71 -20 -133 24 -97 70 -196 83 -243 34 -29 -31 -44 -30 -83 3 -17 14 -45 32
-63 40 -47 19 -158 16 -248 -8 l-79 -20 -51 56 -50 56 -60 -1 c-55 0 -121 -16
-165 -40 -11 -6 -20 -27 -24 -56 -3 -26 -11 -53 -17 -60 -8 -10 -8 -18 -1 -27
6 -6 14 -38 19 -70 4 -32 10 -58 13 -58 3 0 32 -6 65 -14 33 -8 77 -14 98 -15
30 0 37 -4 37 -19 0 -26 -18 -37 -26 -17 -12 31 -33 15 -49 -36 -43 -136 -45
-150 -33 -192 8 -27 30 -58 65 -91 39 -36 53 -57 53 -77 0 -39 17 -79 48 -111
41 -44 61 -51 149 -53 45 -1 86 -5 92 -9 6 -3 11 -33 11 -66 l0 -59 -42 1
c-24 0 -86 -9 -138 -21 -62 -14 -134 -22 -205 -23 -95 -1 -116 2 -150 20 -60
31 -77 56 -83 115 -2 29 -15 76 -29 105 -14 29 -27 79 -30 114 -5 53 -12 71
-45 113 -21 28 -38 54 -38 59 0 39 -174 117 -261 117 -23 0 -41 5 -44 13 -2 6
-9 59 -16 117 l-12 104 -48 49 c-26 27 -56 66 -66 88 -14 33 -30 47 -98 83
-167 91 -241 99 -356 37 -8 -5 -39 -21 -68 -36 -28 -15 -56 -36 -61 -46 -38
-70 45 -220 121 -219 13 1 35 7 48 14 l24 14 -24 12 c-37 19 -69 52 -69 71 0
24 28 45 45 33 7 -5 38 -27 69 -48 32 -21 76 -61 99 -88 23 -27 59 -56 80 -65
20 -8 48 -28 61 -44 32 -37 101 -249 81 -249 -3 0 -18 6 -33 13 -15 7 -51 19
-79 26 -45 11 -63 10 -125 -4 -86 -19 -170 -62 -223 -113 -44 -43 -85 -123
-85 -168 0 -43 -20 -56 -77 -52 l-47 3 -23 -47 c-28 -58 -40 -66 -53 -34 -13
36 -35 32 -54 -8 -21 -44 -36 -55 -109 -80 -34 -12 -106 -50 -160 -85 -54 -35
-115 -69 -135 -76 -44 -15 -48 -29 -9 -33 33 -4 36 -29 5 -42 -13 -6 -74 -14
-136 -18 -137 -11 -141 -14 -142 -120 0 -80 0 -80 -94 -155 -20 -16 -36 -35
-36 -43 0 -8 16 -32 36 -54 36 -40 64 -110 64 -161 0 -15 5 -40 12 -54 13 -29
30 -30 131 -5 130 32 89 -54 -80 -168 -63 -42 -113 -102 -113 -133 0 -17 27
-29 66 -29 12 0 27 -6 33 -14 10 -11 6 -22 -20 -50 -31 -35 -32 -36 -108 -36
-47 0 -82 -5 -89 -12 -18 -18 -14 -67 8 -117 28 -61 37 -121 19 -132 -24 -15
-143 -10 -249 11 -127 25 -323 27 -425 4 -50 -11 -118 -15 -237 -15 -179 1
-188 -1 -209 -56 -20 -53 -101 -53 -165 -1 -22 17 -64 42 -94 55 -47 21 -67
24 -136 21 -81 -3 -82 -3 -168 -63 -48 -33 -92 -65 -98 -72 -21 -26 3 -26 51
0 27 15 59 27 72 26 16 0 -3 -14 -61 -44 -112 -58 -120 -58 -120 3 0 26 -7 56
-15 66 -14 19 -16 19 -62 -6 -32 -17 -70 -27 -115 -31 -77 -5 -143 -38 -179
-88 -21 -30 -21 -31 -3 -64 10 -19 16 -37 13 -39 -3 -3 -37 1 -75 9 -123 28
-133 28 -195 10 -63 -17 -123 -61 -148 -109 -11 -20 -10 -29 9 -66 37 -73 50
-116 37 -129 -15 -15 -107 -13 -136 3 -23 13 -27 10 -82 -51 -33 -36 -59 -74
-59 -84 0 -11 9 -37 20 -59 31 -62 30 -62 -72 -59 l-93 4 -14 -43 c-10 -33
-11 -50 -2 -68 14 -32 52 -33 48 -1 -2 20 3 22 58 28 77 7 104 19 142 62 40
45 50 90 29 122 -9 13 -16 27 -16 30 0 3 33 5 73 5 81 0 139 22 210 81 l37 31
-45 50 c-49 54 -56 87 -29 126 21 31 64 28 131 -8 30 -17 62 -30 72 -30 10 0
44 13 77 29 76 37 101 44 108 32 7 -11 -34 -42 -83 -61 -41 -16 -123 -95 -146
-140 -19 -37 -22 -118 -5 -150 16 -30 12 -56 -19 -125 l-30 -65 25 -29 c14
-17 47 -46 74 -66 28 -20 50 -43 50 -51 0 -28 -47 -45 -156 -54 -203 -17 -344
-90 -344 -177 0 -18 4 -33 8 -33 4 0 24 16 43 36 39 41 101 73 141 74 15 0 47
-5 70 -11 28 -8 68 -9 112 -4 l69 7 93 93 c52 51 108 98 126 105 98 36 111 45
148 100 38 55 112 130 129 130 5 0 32 18 59 39 60 48 102 125 102 188 0 39 3
44 38 62 20 10 56 29 80 41 29 15 47 19 53 13 18 -18 29 -133 29 -298 0 -128
-3 -165 -15 -182 -9 -12 -53 -45 -99 -73 -134 -80 -221 -152 -376 -309 -163
-164 -210 -229 -246 -334 -13 -39 -28 -81 -34 -92 -9 -18 -21 -65 -36 -135 -3
-14 -8 -68 -11 -121 -5 -84 -3 -100 16 -137 12 -23 25 -42 30 -42 4 0 11 37
14 82 16 196 97 377 257 573 62 76 93 103 238 208 153 112 226 141 192 77 -19
-35 2 -48 45 -27 50 24 55 22 55 -24 0 -60 -24 -102 -100 -172 -75 -70 -175
-130 -313 -189 -109 -47 -154 -79 -172 -122 -7 -17 -32 -103 -54 -191 -49
-188 -100 -301 -219 -480 -75 -115 -212 -351 -212 -367 0 -5 15 -8 34 -8 41 0
52 -12 31 -34 -16 -15 -36 -20 -130 -31 -28 -3 -55 -12 -62 -21 -6 -9 -34 -18
-68 -21 -46 -5 -58 -10 -65 -28 -6 -16 -23 -25 -67 -35 -32 -8 -62 -14 -67
-14 -19 -2 -16 -25 4 -31 33 -10 18 -28 -36 -44 -64 -18 -81 -39 -51 -64 20
-16 21 -18 5 -27 -30 -18 -78 -62 -78 -71 0 -5 7 -9 15 -9 23 0 19 -9 -25 -52
-22 -22 -40 -44 -40 -49 0 -5 18 -20 40 -34 55 -34 53 -59 -10 -131 l-50 -57
0 -134 0 -133 6390 0 6390 0 2 113 c3 171 0 193 -33 244 -21 35 -29 59 -29 94
0 42 -4 50 -37 77 -37 29 -37 31 -20 50 17 19 17 21 1 37 -10 10 -37 25 -60
35 -56 25 -64 40 -20 40 26 0 36 5 41 21 9 26 1 33 -50 49 -55 17 -68 29 -54
47 9 11 8 17 -7 28 -10 8 -27 15 -37 15 -10 0 -33 7 -52 14 -29 12 -35 20 -35
44 0 32 -14 42 -60 42 -38 0 -48 18 -16 30 28 10 34 28 12 36 -8 3 -20 19 -26
35 -12 29 -12 29 -101 29 -49 0 -89 3 -89 7 0 4 12 19 27 35 23 24 24 28 10
34 -10 3 -35 -1 -57 -10 -65 -26 -103 -18 -65 14 24 20 6 32 -36 25 -39 -7
-40 -7 -33 21 7 29 12 29 -57 8 -18 -6 -20 -4 -15 14 10 30 -8 35 -38 11 -30
-24 -51 -21 -51 7 0 17 -7 19 -72 16 -54 -3 -77 0 -97 13 -16 11 -38 16 -56
13 -26 -4 -30 -1 -30 18 0 14 -8 24 -23 28 -13 3 -32 22 -43 43 l-20 38 -94
12 c-167 21 -171 22 -164 47 5 21 1 23 -93 34 l-98 12 -25 -30 c-30 -36 -78
-40 -125 -12 -39 24 -96 35 -168 33 -33 -2 -64 3 -73 9 -9 8 -32 10 -69 5 -53
-6 -55 -6 -65 21 -7 18 -8 99 -4 233 7 205 7 206 -20 291 -15 47 -32 94 -37
105 -5 11 -24 56 -42 100 l-34 80 -72 3 c-65 3 -78 0 -154 -36 -45 -21 -109
-61 -141 -89 l-60 -50 3 -61 c1 -34 0 -62 -2 -62 -3 0 -16 30 -28 67 -33 99
-32 219 3 290 l25 53 38 -30 c62 -49 70 -39 30 39 -25 51 -24 61 7 61 12 0 30
24 57 79 77 152 210 221 323 167 56 -27 155 -132 188 -200 32 -64 50 -170 50
-293 0 -34 7 -92 16 -130 18 -78 14 -139 -17 -253 -24 -88 -28 -124 -14 -127
12 -2 20 11 83 143 80 165 82 175 92 414 10 232 13 253 59 333 16 28 34 80 41
114 22 126 103 311 183 419 84 114 217 154 332 101 66 -31 146 -120 194 -216
55 -109 63 -140 70 -291 l6 -135 26 27 c32 34 59 129 59 207 0 57 -23 186 -40
226 -17 39 -42 174 -35 194 4 13 -1 31 -14 48 -24 33 -46 114 -61 226 -7 45
-16 85 -21 88 -6 3 -9 10 -8 15 2 9 -5 32 -22 69 -27 59 -92 246 -104 299 -20
83 -20 332 0 425 13 63 63 205 101 288 8 17 14 38 14 47 0 51 113 222 245 369
192 215 415 381 540 402 62 10 125 44 125 67 0 18 -66 36 -155 43 -49 4 -109
11 -131 16 -29 6 -63 4 -110 -6 -69 -15 -248 -20 -278 -9 -24 9 -20 18 29 53
41 29 59 61 36 61 -5 0 -128 -34 -273 -75 -315 -91 -462 -121 -623 -130 -143
-8 -242 6 -303 41 -50 30 -102 96 -102 131 0 64 92 178 175 218 78 37 99 85
36 85 -16 0 -45 -7 -65 -15 -63 -27 -188 -105 -208 -131 -11 -14 -64 -58 -117
-98 -175 -133 -277 -258 -492 -600 -355 -567 -372 -592 -482 -681 -120 -99
-215 -138 -246 -101 -6 8 -12 37 -13 65 -2 28 -6 51 -10 51 -16 0 -39 -50 -39
-87 0 -79 13 -103 125 -237 106 -127 128 -189 147 -403 10 -104 10 -137 0
-162 -13 -29 -86 -104 -127 -127 -14 -9 -16 -15 -7 -24 9 -9 36 -10 119 -2 59
6 112 8 117 5 5 -3 -1 -15 -13 -28 l-21 -23 94 -7 c65 -4 111 -14 153 -32 32
-14 75 -28 94 -32 19 -4 49 -15 67 -24 40 -21 260 -233 252 -242 -4 -3 -43 12
-88 34 -44 23 -115 55 -156 71 -67 27 -84 29 -148 25 -60 -5 -68 -4 -47 6 14
7 71 13 127 13 57 1 103 4 103 8 0 9 -58 56 -91 74 -35 18 -218 66 -227 60
-13 -8 -176 15 -190 26 -7 6 -11 18 -10 27 3 13 -7 16 -57 15 -33 -1 -100 -7
-150 -14 -94 -12 -140 -5 -151 24 -6 16 60 128 118 198 21 26 38 49 38 52 0
11 -95 6 -145 -8 -27 -7 -95 -41 -150 -75 -105 -64 -189 -101 -231 -101 -41 0
-26 30 30 60 71 38 73 54 5 45 -29 -4 -60 -11 -69 -16 -8 -5 -57 -25 -108 -44
-106 -41 -176 -54 -187 -35 -13 20 -19 137 -7 144 5 3 29 -1 52 -9 23 -8 58
-15 77 -15 28 0 33 3 29 18 -31 104 -32 248 -1 282 27 30 46 25 95 -26 25 -25
58 -55 74 -67 l29 -21 -6 86 c-3 48 -10 95 -16 105 -5 10 -24 65 -41 122 -21
74 -27 108 -20 115 6 6 41 11 79 10 56 0 77 -6 126 -32 32 -18 60 -30 63 -27
14 14 -14 79 -54 124 -37 41 -52 51 -78 51 -44 0 -80 29 -216 171 -63 65 -123
119 -132 119 -12 0 -20 -15 -29 -57 -10 -50 -9 -71 6 -143 10 -47 20 -95 23
-107 4 -19 0 -23 -20 -23 -21 0 -29 -10 -50 -57 -44 -100 -46 -115 -53 -267
-4 -82 -13 -170 -21 -195 -7 -25 -14 -56 -14 -69 0 -13 -11 -43 -24 -69 -23
-42 -24 -53 -21 -172 4 -154 17 -217 56 -271 53 -72 121 -87 211 -45 29 14 61
25 71 25 32 0 17 -17 -35 -41 -43 -18 -76 -23 -174 -27 -106 -4 -122 -2 -127
12 -4 9 -10 66 -13 127 -9 143 -22 154 -41 34 l-7 -50 -7 50 c-4 28 -8 79 -9
115 -1 64 -1 65 -18 40 -21 -32 -92 -100 -105 -100 -14 0 -3 23 75 159 56 97
68 125 57 132 -11 6 -6 17 24 47 20 21 37 42 37 47 0 6 -21 25 -45 44 -34 25
-51 32 -70 27 -38 -10 -99 -70 -146 -144 -48 -77 -124 -169 -150 -183 -10 -5
-30 -7 -44 -3 -21 5 -23 9 -13 21 6 8 33 25 58 38 35 18 55 38 84 85 52 84
146 183 197 205 l41 19 54 -29 c29 -16 56 -26 60 -22 4 3 11 86 16 184 11 218
15 243 33 243 8 0 15 5 15 12 0 6 15 34 33 62 32 50 32 51 32 181 0 181 -24
694 -36 785 -15 107 -15 102 -44 245 -36 177 -86 332 -121 379 -21 30 -28 12
-15 -37 7 -24 13 -102 14 -174 2 -144 -11 -183 -57 -183 -68 0 -169 106 -353
370 -215 307 -320 428 -456 524 -86 61 -194 116 -225 116 -23 0 -24 -1 -10
-22z m-1948 -689 c89 -25 134 -88 143 -201 4 -54 11 -79 26 -95 18 -20 18 -23
4 -23 -21 0 -21 9 3 -85 11 -42 18 -81 15 -85 -3 -5 -1 -10 4 -12 4 -1 31 -31
60 -65 28 -35 58 -63 65 -63 7 0 29 -11 48 -23 52 -36 172 -61 254 -53 38 3
129 9 203 12 l134 7 -6 -69 c-3 -38 -18 -127 -32 -199 -15 -71 -33 -186 -41
-255 -8 -69 -16 -130 -18 -136 -3 -7 -16 -9 -32 -6 -20 4 -25 1 -22 -9 8 -24
57 -22 114 5 30 14 58 26 63 26 5 0 12 -21 16 -47 16 -109 73 -337 85 -341 9
-3 11 12 6 69 -5 72 -5 73 8 33 8 -22 17 -63 21 -92 8 -62 -3 -71 -59 -48
l-36 15 0 65 c0 36 -7 85 -15 110 -8 25 -21 73 -28 107 -7 34 -19 65 -26 67
-11 4 -12 -4 -7 -32 9 -45 4 -45 -23 0 -42 70 -55 9 -20 -93 12 -38 19 -79 17
-110 -3 -46 -5 -48 -34 -51 -17 -2 -57 7 -89 19 l-58 21 7 63 c3 35 13 84 20
110 14 45 14 46 -10 55 -29 11 -44 46 -44 104 0 37 6 47 46 86 43 43 124 170
124 198 0 17 -20 15 -70 -9 -66 -32 -87 -10 -89 94 -1 26 -4 47 -8 47 -5 0
-33 -23 -63 -51 -110 -101 -159 -121 -201 -83 -11 10 -36 19 -57 21 -20 1 -75
7 -122 12 -105 13 -332 16 -383 6 -21 -4 -65 -20 -98 -36 -33 -16 -67 -29 -77
-29 -10 0 -31 -14 -47 -30 -24 -25 -77 -50 -107 -50 -13 0 -8 122 8 190 8 36
17 81 19 100 10 88 15 101 46 112 19 7 37 24 50 49 12 25 38 51 70 70 53 33
93 84 128 163 25 57 26 91 6 139 -8 20 -15 48 -15 61 0 15 -12 36 -27 50 l-27
26 37 38 c30 31 37 45 37 78 0 63 24 75 104 53z m881 -1829 c32 -12 32 -41 3
-232 -26 -162 -28 -238 -11 -353 31 -204 52 -789 30 -812 -5 -4 -28 14 -52 42
-24 27 -46 47 -50 43 -3 -3 5 -41 19 -84 32 -96 42 -166 28 -190 -10 -18 -11
-18 -18 1 -31 88 -51 109 -112 121 -45 9 -41 -9 14 -68 25 -27 43 -54 41 -61
-6 -17 -44 -12 -99 13 -48 21 -48 21 -48 71 0 100 64 335 125 460 32 65 42
142 26 192 -13 40 -81 105 -135 131 -26 12 -41 14 -61 6 -41 -16 -95 -12 -102
6 -10 26 30 68 83 87 44 16 55 26 106 105 71 111 85 139 99 201 10 48 9 55
-20 113 -27 52 -31 72 -31 138 0 42 3 80 8 84 9 10 122 -1 157 -14z m568 -180
c192 -63 197 -66 197 -133 0 -29 -4 -58 -9 -66 -9 -15 -31 -7 -31 11 0 20 -51
78 -91 104 -28 17 -69 29 -137 39 -53 8 -100 15 -104 15 -10 0 -11 64 -1 73
10 11 17 9 176 -43z m-100 -126 c25 -8 51 -22 57 -29 9 -11 2 -15 -37 -21 -59
-9 -110 -10 -118 -2 -6 5 -8 14 -14 48 -3 14 -21 -28 -21 -47 0 -24 -29 -33
-31 -10 -2 25 3 52 13 65 14 17 95 15 151 -4z m649 -111 c122 -63 150 -74 162
-64 12 10 26 8 73 -13 92 -43 123 -71 123 -112 0 -46 -37 -132 -60 -139 -26
-8 -59 8 -111 53 -91 81 -159 89 -324 37 -133 -41 -207 -57 -217 -47 -7 7 81
147 103 162 18 13 29 88 18 136 -6 27 -13 62 -16 77 l-5 28 53 -21 c30 -12
120 -56 201 -97z m-662 -108 c0 -20 -63 -20 -80 0 -6 8 -9 23 -5 34 l6 21 40
-20 c21 -11 39 -27 39 -35z m27 -152 c18 -20 36 -52 39 -71 6 -31 14 -38 70
-63 66 -30 124 -47 188 -55 21 -3 80 -20 130 -39 114 -41 177 -48 320 -34 63
6 121 9 131 7 13 -2 6 -24 -45 -127 -33 -68 -81 -155 -106 -194 -25 -39 -56
-94 -69 -122 -28 -59 -78 -206 -73 -211 2 -1 30 19 62 47 57 48 93 60 125 40
24 -15 2 -48 -92 -137 -50 -47 -98 -100 -105 -117 -17 -42 -51 -77 -74 -77
-21 0 -23 12 -6 40 20 32 3 34 -58 6 -70 -32 -76 -32 -68 -2 l6 25 -72 -30
c-39 -17 -75 -28 -78 -24 -9 9 45 50 101 76 52 25 63 45 18 36 -39 -8 -46 2
-20 29 25 27 7 45 -20 20 -22 -20 -37 -20 -45 -1 -5 13 -17 8 -66 -25 -34 -23
-66 -40 -72 -38 -6 2 15 33 46 67 31 35 54 66 51 69 -3 3 -32 -7 -65 -23 -33
-16 -62 -26 -66 -23 -10 11 24 62 75 113 28 27 51 53 51 57 0 17 -28 6 -79
-32 -29 -22 -59 -40 -67 -40 -22 0 -17 50 13 107 14 29 23 56 20 60 -11 11
-57 -39 -83 -89 -47 -92 -55 -70 -27 75 14 70 15 91 5 95 -8 2 -12 30 -12 85
0 60 -5 91 -20 122 -35 73 -61 195 -66 313 -2 62 -2 118 2 123 12 19 69 -2
101 -38z m1939 -949 c49 -14 130 -45 180 -70 108 -53 237 -140 231 -157 -3 -9
-37 -11 -118 -9 -212 6 -351 -27 -442 -107 -36 -33 -67 -36 -67 -8 0 8 -11 19
-25 25 -14 6 -25 17 -25 23 0 6 -14 9 -32 7 -28 -2 -32 0 -30 16 3 15 -1 18
-22 14 -20 -4 -26 -1 -26 13 0 26 -21 24 -100 -11 -77 -34 -92 -36 -84 -16 4
11 -4 16 -28 18 -25 2 -33 8 -33 22 0 18 -7 19 -69 17 -38 -1 -80 -7 -94 -12
-71 -27 -4 48 113 126 153 101 259 133 451 134 113 1 144 -3 220 -25z m-3456
-59 c0 -38 -5 -42 -34 -20 -47 36 -61 7 -19 -37 36 -38 22 -47 -21 -14 -19 14
-42 26 -50 26 -21 0 -20 -29 1 -52 23 -26 12 -31 -31 -13 -38 16 -38 16 -30
-7 4 -13 17 -39 30 -58 23 -33 32 -70 17 -70 -4 0 -27 19 -51 43 -40 39 -44
41 -56 25 -18 -24 -28 -23 -56 7 -29 31 -38 31 -50 0 -9 -23 -13 -25 -65 -21
-30 2 -61 8 -68 13 -52 38 -157 127 -157 132 0 4 93 17 208 30 114 13 248 29
297 36 140 20 135 21 135 -20z m-1253 -146 c43 -6 98 -21 123 -33 51 -25 97
-85 102 -131 2 -25 -1 -31 -20 -33 -16 -2 -39 12 -80 52 -66 63 -91 73 -67 26
28 -55 16 -54 -59 5 -32 25 -62 45 -67 45 -17 0 -9 -22 22 -62 17 -21 29 -42
25 -45 -3 -3 -23 5 -43 19 -66 44 -104 48 -67 7 32 -35 8 -38 -46 -6 -53 32
-55 35 -58 80 -5 75 7 87 88 87 38 0 104 -5 147 -11z m-792 -47 c55 -27 125
-89 125 -112 0 -16 -11 -12 -47 20 -18 17 -38 30 -43 30 -14 0 -21 -18 -10
-25 13 -8 13 -35 -1 -35 -5 0 -28 14 -50 32 -48 39 -70 29 -45 -20 37 -72 11
-81 -48 -17 -46 50 -61 55 -71 24 -6 -17 -12 -20 -37 -15 -27 5 -30 4 -25 -14
7 -28 -3 -31 -41 -13 -41 20 -65 11 -56 -21 5 -22 2 -25 -30 -31 -36 -7 -45
-22 -25 -42 20 -20 -1 -33 -51 -33 -61 0 -69 -12 -23 -34 43 -20 37 -27 -42
-54 -44 -15 -60 -25 -60 -39 0 -13 -9 -19 -30 -21 -42 -5 -52 -18 -31 -41 22
-24 16 -35 -29 -57 -53 -25 -69 -14 -60 44 9 61 40 150 63 182 39 53 320 227
469 290 86 37 123 37 198 2z m-1124 -367 c15 -15 102 -190 114 -232 5 -17 2
-23 -10 -23 -11 0 -25 19 -38 50 -23 56 -33 61 -46 26 -9 -21 -14 -23 -73 -20
-35 2 -90 12 -122 24 -33 11 -65 20 -73 20 -23 0 -14 -28 17 -50 58 -41 20
-56 -50 -20 -41 21 -90 27 -90 10 0 -5 11 -17 24 -27 l24 -18 -47 -11 -46 -11
28 -13 c32 -15 31 -33 -2 -38 -33 -5 -20 -26 22 -36 45 -11 48 -26 7 -26 -17
0 -47 -7 -68 -16 l-37 -15 30 -17 30 -17 -73 -5 c-49 -3 -76 -10 -82 -20 -6
-10 -4 -17 5 -23 21 -11 19 -24 -5 -30 -11 -3 -27 -21 -35 -41 -12 -28 -21
-36 -40 -36 -23 0 -25 4 -25 48 0 58 23 100 133 240 148 190 272 311 345 339
45 16 159 9 183 -12z"/>
<path d="M9522 6605 c-107 -50 -172 -124 -172 -198 0 -46 19 -57 100 -57 93 0
164 39 215 119 23 37 42 101 30 101 -4 0 -43 -20 -87 -45 -96 -54 -165 -85
-187 -85 -22 1 17 31 94 71 33 18 73 43 88 56 16 12 41 23 57 23 23 0 40 15
40 36 0 2 -28 4 -62 4 -46 0 -78 -7 -116 -25z"/>
<path d="M8110 6610 c0 -5 11 -17 25 -26 14 -9 25 -25 25 -36 0 -27 77 -180
102 -200 38 -33 63 -19 83 44 12 42 12 49 -10 95 -12 28 -38 61 -56 75 -59 43
-169 74 -169 48z"/>
<path d="M8076 6594 c-3 -9 -6 -59 -6 -112 0 -107 14 -151 61 -184 23 -18 102
-28 115 -15 6 5 -148 325 -157 326 -4 1 -10 -6 -13 -15z"/>
<path d="M6643 6567 c-42 -16 -41 -14 -63 -95 -25 -88 -25 -102 -2 -102 10 0
25 -9 35 -21 11 -13 25 -18 36 -14 10 3 44 6 75 7 46 1 60 -3 81 -22 21 -20
22 -25 10 -34 -12 -10 -12 -16 4 -51 40 -88 136 -145 243 -145 61 0 146 24
160 44 17 24 4 65 -40 131 -69 103 -102 117 -250 109 -127 -6 -130 -3 -63 60
33 32 40 56 16 56 -9 0 -36 19 -61 42 -39 36 -52 42 -97 44 -29 2 -66 -2 -84
-9z"/>
<path d="M4937 6538 c-19 -14 -47 -111 -47 -163 0 -38 36 -87 81 -110 43 -23
116 -18 179 11 63 29 71 39 63 74 -18 81 -100 160 -185 179 -25 6 -51 13 -59
16 -8 3 -22 0 -32 -7z"/>
<path d="M1742 6477 l-64 -22 5 -48 c5 -56 40 -106 107 -151 37 -25 51 -29
110 -28 52 1 77 7 115 29 l49 27 -35 15 c-20 9 -65 15 -112 16 -55 0 -76 3
-73 12 3 6 -11 21 -31 33 -29 17 -34 23 -22 31 17 11 79 0 96 -17 18 -17 146
-45 157 -34 13 13 -60 104 -105 129 -56 32 -122 35 -197 8z"/>
<path d="M3400 6478 c-59 -30 -90 -77 -90 -137 0 -39 9 -60 50 -126 56 -89 62
-115 27 -115 -27 0 -139 53 -156 74 -7 8 -14 37 -18 66 -3 28 -15 66 -27 83
-26 40 -98 77 -148 77 -21 0 -55 7 -76 16 -56 24 -156 23 -189 -2 -37 -28
-108 -145 -97 -160 69 -91 111 -134 144 -149 32 -14 42 -15 55 -5 18 15 58 6
96 -21 35 -25 98 -25 151 1 23 11 50 20 60 20 25 0 90 -34 109 -56 12 -15 11
-18 -9 -32 -32 -21 -29 -44 4 -36 23 6 25 4 19 -15 -8 -26 5 -27 38 -1 49 39
134 13 162 -49 39 -87 53 -106 94 -132 106 -68 251 -11 251 99 0 16 -12 51
-26 78 -15 27 -40 73 -55 103 -17 31 -27 62 -23 73 9 31 -13 20 -35 -17 -14
-25 -27 -35 -45 -35 -13 0 -48 -11 -78 -25 -103 -48 -155 -25 -110 50 10 17
22 42 25 57 4 15 21 35 38 45 37 22 86 94 95 140 8 42 -19 117 -49 138 -34 24
-134 20 -187 -7z"/>
<path d="M3848 6480 c-78 -23 -158 -116 -158 -182 0 -29 29 -98 41 -98 18 0
78 85 88 123 10 42 90 145 91 118 0 -8 -29 -70 -65 -138 -36 -68 -61 -123 -56
-123 19 0 132 92 160 131 34 46 47 111 32 152 -10 24 -15 27 -58 26 -27 0 -60
-4 -75 -9z"/>
<path d="M2405 6434 c-41 -15 -80 -46 -97 -78 -8 -14 -4 -24 17 -46 35 -37
147 -90 188 -90 34 0 101 35 93 49 -3 4 -49 25 -102 46 -54 21 -93 40 -88 42
6 2 55 -10 109 -27 112 -35 126 -31 104 27 -12 30 -26 43 -69 65 -62 30 -97
33 -155 12z"/>
<path d="M7780 6332 c0 -82 85 -186 178 -216 64 -22 94 -16 122 24 l21 29 -28
7 c-55 12 -128 37 -150 50 -44 27 -23 32 36 8 33 -13 80 -27 105 -30 43 -6 45
-6 39 16 -9 32 -63 83 -116 108 -64 30 -207 32 -207 4z"/>
<path d="M2090 6311 c0 -13 21 -27 63 -41 48 -15 57 -7 27 25 -23 25 -90 37
-90 16z"/>
<path d="M5235 6281 c-70 -23 -155 -92 -155 -126 0 -7 -3 -20 -6 -29 -4 -10 4
-19 28 -29 57 -24 152 -38 184 -28 16 5 41 12 56 15 27 6 88 51 88 66 0 4 -51
11 -112 16 -109 7 -121 20 -23 23 22 1 62 7 89 14 l49 13 -35 37 c-33 34 -39
37 -89 36 -30 -1 -63 -4 -74 -8z"/>
<path d="M9790 6264 c-30 -8 -73 -27 -95 -42 -46 -32 -54 -59 -15 -53 25 3
137 4 195 1 26 -1 27 -3 10 -10 -11 -5 -62 -9 -112 -9 -106 -1 -113 -8 -60
-59 62 -60 233 -81 294 -36 14 11 32 29 40 41 14 21 13 22 -38 30 -29 4 -54
14 -57 21 -5 15 27 16 64 2 36 -14 41 -6 21 34 -11 24 -31 41 -69 59 -71 34
-112 39 -178 21z"/>
<path d="M2184 6233 c-68 -40 -134 -111 -114 -123 7 -4 17 -18 23 -31 16 -33
117 -82 181 -87 58 -5 112 20 140 63 17 26 22 75 7 75 -5 0 -63 -9 -128 -20
-148 -25 -143 -25 -143 7 0 24 1 25 18 10 16 -15 26 -15 122 3 58 10 113 22
123 25 32 13 17 36 -40 62 -75 34 -147 40 -189 16z"/>
<path d="M3940 6228 c-63 -24 -113 -56 -136 -86 -29 -37 -25 -52 14 -52 25 -1
26 -2 8 -15 -23 -17 -13 -33 30 -51 48 -20 103 -17 191 11 120 38 142 64 70
82 -30 7 -28 8 26 13 l59 5 -24 35 c-13 19 -37 41 -53 49 -34 16 -150 22 -185
9z"/>
<path d="M2564 6184 c-50 -24 -92 -71 -108 -120 -10 -32 -17 -94 -10 -94 3 0
42 32 87 71 45 39 101 81 125 92 23 12 42 27 42 34 0 11 -60 44 -79 43 -3 -1
-29 -12 -57 -26z"/>
<path d="M6706 6158 c4 -18 12 -58 20 -89 8 -31 14 -67 14 -80 0 -37 -17 -9
-29 49 -15 72 -37 122 -54 122 -14 0 -67 -144 -67 -181 0 -30 29 -88 57 -114
23 -22 132 -85 147 -85 2 0 16 20 30 44 51 88 24 236 -59 323 -50 52 -67 55
-59 11z"/>
<path d="M2694 6130 c-24 -9 -64 -56 -64 -75 0 -8 -8 -11 -20 -8 -21 5 -56
-17 -118 -75 -36 -34 -35 -56 3 -46 27 7 39 -8 30 -36 -6 -18 -15 -20 -83 -20
-95 0 -186 -21 -215 -48 -18 -17 -23 -34 -25 -84 -2 -35 2 -77 8 -93 16 -42
57 -83 91 -90 43 -10 121 20 173 66 50 44 54 60 32 123 -16 46 -7 77 29 100
12 8 27 32 34 55 9 31 25 51 64 81 89 67 134 177 61 150z"/>
<path d="M2880 6064 c-8 -2 -32 -5 -53 -9 -51 -8 -120 -80 -142 -146 -26 -76
-18 -86 35 -50 43 28 246 200 238 202 -16 3 -66 5 -78 3z"/>
<path d="M4598 6045 c-2 -2 -57 -5 -123 -8 -135 -6 -252 -22 -271 -38 -25 -21
-156 -40 -227 -33 -63 6 -70 5 -64 -10 5 -12 -1 -19 -19 -26 l-25 -10 20 -26
c12 -15 21 -31 21 -37 0 -6 17 -33 38 -61 66 -86 75 -111 67 -177 -9 -77 7
-77 36 -1 32 82 36 177 10 220 -18 27 -59 60 -96 76 -25 11 26 25 85 25 36 -1
97 4 135 10 88 13 91 13 79 1 -6 -6 -49 -16 -97 -22 -130 -17 -111 -57 21 -45
64 6 82 10 98 19 6 4 48 17 95 29 70 18 100 21 181 15 53 -3 109 -11 124 -16
37 -15 51 0 35 38 -14 34 -55 67 -93 74 -15 3 -29 4 -30 3z"/>
<path d="M7865 6044 c-46 -12 -111 -38 -124 -50 -17 -16 -4 -37 20 -31 15 4
17 0 12 -24 -6 -34 -7 -33 43 -15 22 7 73 17 114 20 127 12 130 13 126 48 -2
17 -11 35 -20 40 -19 11 -142 19 -171 12z"/>
<path d="M2905 5969 c-38 -34 -96 -79 -127 -101 -32 -23 -58 -45 -58 -51 0 -6
27 -8 69 -5 124 9 201 74 201 169 0 27 -3 49 -7 48 -5 0 -39 -27 -78 -60z"/>
<path d="M9767 5983 c-21 -20 9 -172 45 -231 28 -45 84 -72 153 -72 32 0 55 4
55 10 0 25 -37 78 -101 146 -38 40 -69 78 -69 83 0 37 62 -21 158 -147 30 -40
60 -71 66 -69 19 6 19 69 0 132 -14 44 -31 73 -64 107 -46 48 -46 48 -114 48
-60 0 -68 -2 -73 -21 l-6 -20 -22 21 c-12 11 -25 17 -28 13z"/>
<path d="M3095 5912 c-101 -54 -121 -70 -155 -133 -40 -76 -39 -96 6 -115 32
-14 40 -13 82 3 102 38 178 93 210 153 22 42 30 100 13 100 -4 0 -61 -47 -126
-105 -66 -57 -121 -102 -124 -100 -2 3 39 50 93 105 89 90 107 119 80 127 -5
1 -40 -14 -79 -35z"/>
<path d="M3850 5800 c-27 -53 -25 -76 13 -150 31 -62 99 -131 114 -117 4 4 9
35 11 68 4 54 1 67 -33 132 -38 74 -62 107 -76 107 -5 0 -18 -18 -29 -40z"/>
<path d="M1965 5811 c-73 -23 -140 -90 -151 -148 -4 -21 -11 -43 -16 -50 -14
-17 -3 -30 45 -52 85 -39 107 -37 198 10 68 37 127 84 117 95 -2 1 -61 -1
-131 -4 -71 -4 -131 -4 -133 -1 -5 8 59 19 117 19 55 0 114 23 128 49 8 15 5
24 -14 45 -39 42 -101 57 -160 37z"/>
<path d="M3380 5751 c-84 -32 -115 -49 -149 -85 -29 -30 -35 -43 -35 -84 -1
-29 6 -58 16 -74 l17 -26 88 37 c130 53 196 94 232 142 39 54 41 79 4 79 -25
0 -41 -8 -121 -62 -51 -34 -41 -6 13 38 30 25 55 47 55 50 0 10 -79 0 -120
-15z"/>
<path d="M3609 5690 c-25 -13 -39 -30 -48 -58 -12 -37 -11 -43 14 -93 32 -66
69 -107 112 -125 18 -8 34 -14 36 -14 12 0 57 83 73 133 16 53 17 61 3 100
-16 43 -68 85 -89 72 -15 -9 -2 -97 16 -111 12 -9 12 -17 3 -40 -7 -16 -15
-45 -19 -64 l-7 -35 -17 39 c-10 21 -15 47 -13 58 3 12 -2 22 -16 29 l-20 11
22 17 c18 14 22 25 19 57 -4 46 -18 51 -69 24z"/>
<path d="M2343 5514 c-61 -40 -78 -63 -91 -122 -13 -57 1 -107 43 -149 66 -66
89 -37 87 112 0 55 2 72 8 55 4 -14 8 -73 9 -132 1 -60 5 -108 10 -108 5 0 14
14 21 30 7 17 25 48 40 68 45 63 54 104 36 159 -16 46 -80 124 -101 122 -5 0
-34 -16 -62 -35z"/>
<path d="M2070 5505 c-130 -37 -220 -102 -220 -160 0 -47 7 -60 46 -90 33 -26
37 -26 85 -15 108 26 255 215 206 265 -18 18 -55 18 -117 0z"/>
<path d="M8649 5261 c-20 -11 -72 -44 -116 -74 -75 -51 -143 -77 -203 -77 -18
0 -20 -7 -20 -62 0 -35 5 -81 11 -103 6 -22 14 -61 18 -88 l6 -47 115 -41
c173 -61 203 -70 209 -63 9 9 -34 40 -140 100 -55 31 -102 60 -105 65 -7 13
95 11 158 -2 66 -14 184 -62 263 -108 61 -35 109 -60 157 -82 36 -16 285 -17
316 0 12 6 22 15 22 19 0 4 -47 15 -104 24 -103 17 -170 41 -195 72 -16 19 -7
24 49 28 65 6 32 30 -70 52 -34 7 -167 93 -174 112 -13 35 3 37 218 32 145 -4
227 -2 261 6 l50 12 -25 15 c-14 9 -86 29 -160 44 -146 29 -205 49 -195 65 3
5 23 10 44 10 37 0 68 19 54 33 -12 12 -136 7 -216 -8 -100 -19 -191 -20 -206
-1 -14 16 -3 27 52 49 20 9 37 21 37 26 0 18 -73 12 -111 -8z"/>
</g>
</svg>
