<?xml version="1.0" encoding="UTF-8"?>
<!-- Created with Inkscape (http://www.inkscape.org/) -->
<svg width="500" height="500" version="1.1" viewBox="0 0 132.29 132.29" xmlns="http://www.w3.org/2000/svg">
 <defs>
  <marker id="t13nee" overflow="visible" orient="auto">
   <path transform="scale(.8) rotate(180) translate(12.5)" d="m0 0 5-5-17.5 5 17.5 5-5-5z" fill="context-stroke" fill-rule="evenodd" stroke="context-stroke" stroke-width="1pt"/>
  </marker>
  <marker id="t13neb" overflow="visible" orient="auto">
   <path transform="matrix(-.8 0 0 -.8 -10 0)" d="m0 0 5-5-17.5 5 17.5 5z" fill="context-stroke" fill-rule="evenodd" stroke="context-stroke" stroke-width="1pt"/>
  </marker>
  <marker id="t13nec" overflow="visible" orient="auto">
   <path transform="matrix(-.8 0 0 -.8 -10 0)" d="m0 0 5-5-17.5 5 17.5 5z" fill="context-stroke" fill-rule="evenodd" stroke="context-stroke" stroke-width="1pt"/>
  </marker>
  <marker id="t13ned" overflow="visible" orient="auto">
   <path transform="matrix(-.8 0 0 -.8 -10 0)" d="m0 0 5-5-17.5 5 17.5 5z" fill="context-stroke" fill-rule="evenodd" stroke="context-stroke" stroke-width="1pt"/>
  </marker>
  <marker id="t13nea" overflow="visible" orient="auto">
   <path transform="matrix(-.8 0 0 -.8 -10 0)" d="m0 0 5-5-17.5 5 17.5 5z" fill="context-stroke" fill-rule="evenodd" stroke="context-stroke" stroke-width="1pt"/>
  </marker>
 </defs>
 <g opacity=".66868">
  <circle transform="rotate(140)" cx="-8.7576" cy="-92.858" r="57" fill-opacity="0" marker-end="" stroke="#007400" stroke-dasharray="2.33, 1.165" stroke-miterlimit="3.8" stroke-width="1.165"/>
  <g fill="none" stroke="#007800" stroke-width=".865">
   <path d="m57.227 121.4c-2.0385-0.42096-2.522 0.10429-2.522 0.10429" marker-start="url(#t13ned)" opacity=".66868"/>
   <path d="m10.048 73.909c-0.35222-2.0515-1.0178-2.3099-1.0178-2.3099" marker-start="url(#t13nea)" opacity=".66868"/>
   <path d="m37.751 16.656c1.7849-1.0709 1.7849-1.7849 1.7849-1.7849" marker-start="url(#t13nee)"/>
   <path d="m105.98 24.417c1.4307 1.5119 2.1278 1.3579 2.1278 1.3579" marker-start="url(#t13neb)" opacity=".66868"/>
   <path d="m115.57 94.62c-1.0356 1.8056-0.68729 2.4288-0.68729 2.4288" marker-start="url(#t13nec)" opacity=".66868"/>
  </g>
 </g>
 <g opacity=".61044">
  <path transform="scale(.26458)" d="m376.42 420.94-124.89-91.823-123.49 93.69 48.737-147.15-127.27-88.495 155.01 0.87982 44.837-148.38 47.063 147.69 154.98-3.2109-125.92 90.399z" fill-opacity="0" stroke="#970000" stroke-dasharray="8.8063, 4.40315" stroke-miterlimit="3.8" stroke-width="4.4032"/>
  <path d="m54.113 49.755-7.3399 23.182 19.779 14.144 19.564-14.44-7.6877-23.069-24.315 0.18285" fill="none" stroke="#820000" stroke-dasharray="2.13, 1.065" stroke-width="1.065"/>
 </g>
 <ellipse cx="66.722" cy="12.922" rx="10.741" ry="10.995" fill="#f04000" stroke="#ff3c3b" stroke-dashoffset="10.65" stroke-opacity=".95862" stroke-width="1.065"/>
 <text transform="translate(1.7849 4.985)" x="58.186298" y="11.066106" font-family="sans-serif" font-size="7.0556px" stroke-width=".26458" style="inline-size:0;line-height:1.25;white-space:pre" xml:space="preserve"><tspan x="58.186298" y="11.066106" font-size="7.0556px" stroke-width=".26458">Fire</tspan></text>
 <ellipse cx="118.87" cy="49.04" rx="10.741" ry="10.995" fill="#f0f0a0" stroke="#f0f002" stroke-dashoffset="10.65" stroke-width="1.065"/>
 <text transform="translate(51.818 40.573)" x="58.186298" y="11.066106" font-family="sans-serif" font-size="7.0556px" stroke-width=".26458" style="inline-size:0;line-height:1.25;white-space:pre" xml:space="preserve"><tspan x="58.186298" y="11.066106" font-size="7.0556px" stroke-width=".26458">Earth</tspan></text>
 <ellipse cx="99.952" cy="111.73" rx="10.741" ry="10.995" fill="#e1e0e2" stroke="#d7d7d7" stroke-dashoffset="10.65" stroke-width="1.065"/>
 <text transform="translate(32.369 102.74)" x="58.186298" y="11.066106" font-family="sans-serif" font-size="7.0556px" stroke-width=".26458" style="inline-size:0;line-height:1.25;white-space:pre" xml:space="preserve"><tspan x="58.186298" y="11.066106" font-size="7.0556px" stroke-width=".26458">Metal</tspan></text>
 <ellipse cx="33.555" cy="111.02" rx="10.741" ry="10.995" fill="#00003c" stroke="#003" stroke-dashoffset="10.65" stroke-width="1.065"/>
 <text transform="translate(-35.086 102.55)" x="58.186298" y="11.066106" fill="#ffffff" font-family="sans-serif" font-size="7.0556px" stroke-width=".26458" style="inline-size:0;line-height:1.25;white-space:pre" xml:space="preserve"><tspan x="58.186298" y="11.066106" fill="#ffffff" font-size="7.0556px" stroke-width=".26458">Water</tspan></text>
 <ellipse cx="11.066" cy="49.237" rx="10.741" ry="10.995" fill="#36eeb6" stroke="#00eed7" stroke-dashoffset="10.65" stroke-width="1.065"/>
 <text transform="translate(-57.575 40.77)" x="58.186298" y="11.066106" font-family="sans-serif" font-size="7.0556px" stroke-width=".26458" style="inline-size:0;line-height:1.25;white-space:pre" xml:space="preserve"><tspan x="58.186298" y="11.066106" font-size="7.0556px" stroke-width=".26458">Wood</tspan></text>
</svg>
