<?xml version="1.0" standalone="no"?>
<!DOCTYPE svg PUBLIC "-//W3C//DTD SVG 20010904//EN"
 "http://www.w3.org/TR/2001/REC-SVG-20010904/DTD/svg10.dtd">
<svg version="1.0" xmlns="http://www.w3.org/2000/svg"
 width="1088.000000pt" height="1280.000000pt" viewBox="0 0 1088.000000 1280.000000"
 preserveAspectRatio="xMidYMid meet">
<g transform="translate(0.000000,1280.000000) scale(0.100000,-0.100000)"
fill="#000000" stroke="none">
<path d="M4800 12359 c-109 -14 -239 -68 -336 -140 -29 -21 -89 -80 -133 -130
-130 -147 -226 -361 -319 -711 -7 -27 -7 -38 1 -41 9 -3 6 -31 -8 -101 -20
-96 -34 -120 -46 -74 -5 21 -6 20 -17 -12 -26 -80 -25 -106 3 -169 24 -52 27
-69 22 -118 -4 -32 -3 -86 1 -120 5 -34 5 -68 1 -76 -12 -21 13 -89 45 -122
62 -65 90 -172 72 -281 -11 -68 -13 -73 -76 -135 -36 -36 -84 -92 -108 -125
-23 -32 -60 -80 -82 -106 -56 -69 -81 -143 -88 -268 l-7 -105 -55 2 c-30 1
-161 13 -290 27 -129 13 -266 27 -305 30 l-70 5 75 -15 c41 -9 200 -35 353
-59 154 -23 284 -48 289 -53 14 -14 -7 -100 -31 -127 -21 -22 -31 -59 -35
-125 -4 -52 -21 -100 -36 -100 -6 0 -31 -19 -55 -41 -43 -40 -57 -69 -34 -69
7 0 9 -17 4 -52 -8 -61 -18 -76 -38 -59 -19 15 -33 -2 -45 -57 -6 -24 -27 -62
-49 -89 -22 -27 -48 -60 -57 -75 -10 -15 -33 -36 -51 -47 -18 -10 -46 -41 -61
-67 -24 -42 -28 -59 -30 -138 -2 -116 -24 -184 -80 -252 -62 -77 -84 -125 -91
-200 -5 -56 -14 -79 -66 -167 l-60 -102 -3 -180 c-3 -175 -2 -181 22 -222 13
-23 24 -48 24 -56 0 -19 -61 -68 -115 -93 -36 -17 -41 -24 -55 -82 -12 -47
-25 -72 -51 -97 -52 -50 -101 -106 -128 -145 -34 -50 -210 -239 -481 -515
-129 -132 -323 -341 -430 -465 -107 -124 -253 -293 -325 -375 -71 -83 -137
-160 -145 -170 -17 -24 586 563 711 692 48 48 142 151 209 228 215 246 500
544 538 564 43 22 69 47 121 117 28 36 49 53 78 62 22 6 48 21 58 32 10 11 22
20 27 20 19 0 144 54 167 72 13 10 35 18 48 18 17 0 41 17 76 54 29 29 73 70
99 90 25 21 58 59 72 86 14 26 49 85 79 131 76 120 75 117 51 100 -10 -8 -33
-28 -51 -44 -39 -36 -58 -31 -66 19 -6 37 -4 41 80 129 240 249 289 297 319
311 57 27 66 126 13 154 -43 23 -122 -9 -133 -55 -10 -39 -81 -126 -220 -270
l-126 -129 -27 20 c-21 16 -29 31 -31 61 -3 33 3 47 39 91 25 31 55 56 75 62
55 18 84 47 84 84 0 42 29 69 100 93 l55 18 3 46 c3 49 36 94 70 94 11 0 29
24 50 65 17 36 42 83 55 105 12 22 33 66 47 97 19 44 39 69 85 106 39 31 74
71 100 115 22 37 45 67 52 67 45 0 90 -111 78 -193 -6 -36 -2 -53 16 -88 20
-36 23 -58 22 -123 -1 -61 4 -93 23 -146 13 -37 24 -85 24 -106 1 -65 33 -122
82 -144 84 -37 129 -43 193 -26 32 8 62 13 67 10 23 -14 62 -118 79 -208 10
-56 26 -123 35 -151 25 -79 29 -241 10 -375 -10 -63 -22 -120 -28 -127 -6 -7
-21 -10 -39 -6 -38 7 -37 -2 2 -22 27 -15 30 -20 24 -48 -12 -54 -22 -60 -90
-53 -51 5 -66 3 -100 -17 -35 -20 -40 -27 -38 -57 1 -35 4 -38 84 -99 52 -40
53 -57 24 -251 -14 -96 -30 -189 -36 -206 -6 -19 -6 -41 -1 -55 5 -13 12 -77
16 -142 8 -128 29 -190 86 -252 17 -19 33 -55 44 -98 51 -209 235 -447 584
-757 l73 -65 -12 -35 c-6 -19 -55 -127 -109 -240 -161 -337 -207 -475 -236
-700 -16 -132 -18 -412 -4 -585 26 -308 92 -656 200 -1065 172 -646 231 -984
266 -1508 5 -84 10 -104 25 -112 30 -16 102 -11 144 10 43 22 84 20 143 -7 24
-10 50 -13 90 -8 32 3 107 5 169 5 109 -2 112 -1 128 24 30 45 20 267 -21 501
-47 265 -117 516 -258 928 -177 517 -247 774 -295 1079 -66 419 -47 668 67
893 16 33 65 114 109 180 43 66 87 139 97 163 10 23 25 42 33 42 8 0 45 -26
82 -58 94 -82 260 -193 417 -282 155 -87 369 -233 391 -266 12 -19 13 -30 4
-56 -9 -26 -8 -43 10 -96 18 -54 20 -77 15 -139 -4 -43 -15 -90 -27 -111 -21
-40 -24 -68 -9 -77 6 -3 10 3 10 14 0 36 20 33 36 -6 8 -21 21 -50 29 -65 19
-33 19 -47 0 -84 -16 -32 -7 -89 20 -127 15 -22 4 -74 -27 -124 -14 -23 -18
-42 -13 -62 4 -18 0 -49 -10 -78 -9 -26 -21 -85 -28 -130 -9 -71 -8 -85 5
-100 32 -37 38 -64 49 -224 9 -128 9 -201 -1 -335 -12 -160 -12 -174 6 -220
52 -138 119 -193 197 -160 19 8 38 24 42 35 8 25 18 27 35 6 18 -21 48 -19 55
5 3 11 13 20 20 20 23 0 125 102 125 126 0 11 -9 47 -20 80 -33 94 -51 191
-55 299 -2 55 -8 129 -14 165 -6 36 -11 88 -11 117 0 28 -4 63 -10 78 -8 20
-7 27 6 32 23 8 60 -31 216 -231 122 -157 139 -183 134 -208 -4 -20 2 -39 24
-71 43 -65 135 -147 163 -147 19 0 51 -33 153 -157 173 -211 159 -188 144
-234 -11 -34 -11 -42 1 -54 12 -12 20 -13 46 -3 37 14 52 4 99 -63 24 -35 25
-42 14 -68 -16 -40 -2 -63 53 -89 43 -20 45 -24 61 -89 10 -37 23 -79 31 -93
11 -21 11 -29 -5 -60 -15 -30 -17 -47 -10 -105 14 -117 41 -239 57 -257 8 -9
27 -61 43 -115 36 -123 90 -244 130 -289 16 -19 30 -41 30 -48 0 -7 9 -25 21
-40 22 -28 57 -34 89 -14 16 10 23 9 43 -10 26 -25 39 -27 66 -10 16 10 24 7
51 -15 31 -27 40 -27 71 0 14 12 18 10 33 -12 25 -38 63 -34 82 10 16 40 33
44 59 15 27 -30 104 -28 133 3 28 30 29 84 2 136 -10 21 -28 61 -38 89 -11 28
-53 97 -94 154 -42 56 -83 118 -92 135 -36 70 -77 199 -90 282 -8 47 -19 99
-25 114 -17 44 -13 81 9 95 46 28 5 117 -74 160 -45 25 -179 168 -182 194 -1
13 -3 29 -3 35 -1 7 -19 24 -41 38 -27 17 -53 49 -84 102 l-45 78 21 22 c18
19 20 27 10 48 -7 14 -20 25 -31 25 -48 0 -68 23 -150 170 -45 81 -85 157 -88
168 -2 11 3 31 12 45 9 14 15 36 13 49 -2 19 -10 24 -40 26 -20 2 -41 9 -48
17 -32 39 -158 455 -175 578 -3 27 -12 50 -20 53 -7 3 -24 31 -36 62 -13 31
-47 108 -76 171 -35 74 -55 133 -60 170 -5 45 -14 67 -50 113 -24 31 -69 76
-100 100 l-57 44 -12 104 c-7 58 -17 134 -24 170 -6 36 -16 141 -20 235 -5
110 -19 231 -39 343 -36 207 -57 287 -112 424 -23 56 -74 196 -114 309 -41
114 -117 314 -170 445 -65 163 -93 244 -88 256 4 9 23 27 42 40 19 13 51 46
70 74 20 28 55 68 79 89 24 21 55 59 69 84 15 25 37 61 51 80 l25 34 -59 -9
c-32 -5 -126 -9 -209 -8 -122 0 -160 4 -205 20 -51 18 -55 21 -54 49 7 138 7
139 -38 265 -42 119 -73 176 -187 339 -17 23 -50 58 -74 77 -24 18 -53 52 -66
74 l-22 40 35 45 c60 79 57 135 -6 135 -33 0 -112 -50 -128 -80 -14 -26 -35
-25 -86 5 -53 31 -62 56 -35 92 12 14 20 28 18 30 -7 6 -37 -9 -37 -18 0 -5
-9 -9 -21 -9 -15 0 -26 13 -40 48 -11 26 -34 74 -50 107 -39 80 -44 135 -25
290 8 72 20 207 26 300 16 274 27 335 97 535 15 44 34 186 37 285 2 46 4 50
29 53 21 3 28 -2 32 -21 4 -14 16 -29 28 -36 12 -6 34 -20 48 -32 22 -17 43
-21 143 -25 134 -4 167 -15 176 -59 10 -49 32 -74 79 -92 35 -14 47 -14 63 -4
17 11 24 9 43 -9 34 -32 95 -25 113 13 16 32 32 34 58 6 27 -30 84 -51 120
-46 23 4 36 0 48 -14 14 -17 24 -19 61 -13 39 5 47 3 64 -17 16 -20 22 -21 52
-13 27 8 36 18 54 62 12 28 25 56 31 62 13 13 229 15 294 2 30 -6 73 -11 95
-10 53 3 267 -29 328 -49 27 -8 57 -13 68 -10 12 3 39 -8 70 -29 54 -36 86
-43 95 -20 3 8 17 17 31 21 69 17 104 76 83 140 -7 20 -24 43 -38 52 -15 9
-37 28 -48 42 -20 24 -23 24 -65 12 -24 -7 -52 -19 -62 -26 -14 -10 -27 -11
-48 -3 -16 6 -39 8 -52 5 -25 -7 -327 26 -345 37 -20 12 -13 25 26 45 46 24
207 180 249 243 46 68 47 80 19 166 -14 42 -28 88 -31 102 -8 40 -95 147 -165
202 l-65 50 -115 -7 c-105 -5 -113 -5 -96 9 11 9 28 16 38 16 10 0 18 4 18 10
0 16 -45 22 -86 11 -34 -9 -43 -8 -74 13 -90 60 -119 69 -196 62 -65 -6 -76
-4 -120 19 -27 14 -73 33 -104 42 -30 8 -68 26 -83 39 -27 23 -54 28 -122 24
-36 -1 -57 19 -74 72 -8 23 -37 62 -73 98 l-60 60 -72 0 c-62 0 -85 6 -162 39
-86 37 -143 53 -230 66 -26 4 -61 21 -93 45 -71 54 -105 59 -177 26 -31 -14
-60 -26 -64 -26 -4 0 -33 34 -64 76 -59 79 -105 175 -124 259 -15 65 -52 333
-52 376 0 19 -9 106 -20 194 -11 88 -25 196 -30 241 -29 238 -128 438 -289
584 -45 41 -97 83 -115 92 -45 23 -182 57 -206 51 -11 -3 -51 4 -89 16 -73 22
-97 23 -201 10z m963 -1757 c9 -10 22 -33 28 -50 6 -18 15 -32 20 -32 14 0 40
-58 29 -65 -5 -3 -23 1 -40 10 -24 13 -35 14 -46 5 -16 -14 -44 -7 -44 11 0 7
9 9 25 5 20 -5 23 -3 18 11 -4 10 -13 28 -21 40 -9 14 -11 33 -7 53 8 35 15
37 38 12z m-93 -178 c0 -8 -4 -12 -10 -9 -5 3 -10 10 -10 16 0 5 5 9 10 9 6 0
10 -7 10 -16z m-1424 -129 c16 -40 18 -55 4 -55 -11 0 -40 53 -40 75 0 27 21
16 36 -20z m-89 -29 c9 -19 24 -37 34 -39 37 -10 18 -23 -33 -22 -50 0 -53 2
-56 27 -4 29 13 68 29 68 5 0 17 -15 26 -34z m2606 -8 c32 -19 57 -40 57 -50
0 -17 -21 -7 -58 27 -38 36 -38 44 1 23z m737 -355 c56 -29 76 -53 43 -53 -38
1 -148 47 -151 63 -5 26 46 21 108 -10z m-977 -302 c33 -14 46 -26 51 -48 10
-40 54 -82 98 -93 31 -9 44 -7 79 10 31 16 51 20 79 15 52 -9 66 -21 89 -85
l21 -54 -22 -26 c-12 -14 -38 -41 -58 -61 -19 -20 -43 -46 -53 -58 -16 -20
-24 -22 -65 -16 -74 11 -143 36 -194 71 l-47 32 -77 -22 c-43 -13 -80 -30 -86
-39 -5 -9 -18 -17 -30 -17 -19 0 -20 4 -16 68 5 61 9 73 47 122 23 30 60 92
82 138 23 45 44 82 49 82 5 0 28 -9 53 -19z m172 -92 c-8 -11 -16 -11 -34 0
-22 14 -4 33 20 21 11 -6 17 -15 14 -21z m453 -114 c12 -4 20 -11 17 -16 -7
-11 -95 -12 -95 -1 0 15 24 32 40 28 8 -3 25 -7 38 -11z m-668 -1997 c0 -19
-44 -78 -57 -78 -21 0 -15 42 9 67 23 25 48 31 48 11z m-3226 -87 c19 -20 14
-41 -8 -41 -18 0 -49 37 -41 49 10 17 30 13 49 -8z m3189 -102 c35 -16 51 -53
30 -70 -31 -26 -85 25 -69 67 6 17 8 17 39 3z m-3372 -90 c-28 -23 -61 -25
-61 -5 0 25 40 47 63 34 21 -11 21 -11 -2 -29z m3600 -151 c22 -34 42 -74 46
-88 3 -14 11 -32 19 -40 20 -24 56 -128 66 -194 5 -34 11 -74 14 -91 6 -40 -9
-64 -33 -49 -26 15 -105 135 -165 251 l-53 101 23 46 c12 26 22 64 22 86 0 22
5 40 10 40 6 0 28 -28 51 -62z m-2016 -29 c9 -13 -23 -79 -38 -79 -7 0 -27 9
-44 20 -36 21 -44 56 -15 63 33 9 91 7 97 -4z m71 -33 c7 -19 -26 -76 -44 -76
-11 0 -13 9 -7 37 4 21 9 41 11 45 8 13 34 9 40 -6z m3 -169 c12 -15 5 -27
-16 -27 -7 0 -13 9 -13 20 0 23 13 26 29 7z m8 -231 c-4 -9 -11 -16 -17 -16
-11 0 -14 33 -3 43 11 11 26 -10 20 -27z m-80 -72 c10 -15 31 -41 47 -57 28
-30 28 -33 22 -107 -6 -70 -29 -212 -42 -252 -8 -25 -33 -22 -38 5 -3 12 -7
33 -10 47 -2 14 -9 43 -15 66 -10 41 -14 273 -4 307 6 24 19 21 40 -9z m2233
-3136 c0 -16 -3 -19 -11 -11 -6 6 -8 16 -5 22 11 17 16 13 16 -11z"/>
</g>
</svg>
