<?xml version="1.0" encoding="UTF-8"?>
<!-- Created with Inkscape (http://www.inkscape.org/) -->
<svg width="800" height="170" enable-background="new" version="1.1" viewBox="0 0 211.67 44.979" xmlns="http://www.w3.org/2000/svg" xmlns:xlink="http://www.w3.org/1999/xlink">
	<defs>
		<filter id="t13nee" x="-.25" y="-.25" width="1.5" height="1.5" color-interpolation-filters="sRGB">
			<feGaussianBlur in="SourceAlpha" result="result91" stdDeviation="0.01"/>
			<feComposite in="SourceGraphic" in2="result91" operator="in" result="fbSourceGraphic"/>
			<feGaussianBlur in="fbSourceGraphic" result="result1" stdDeviation="0.01"/>
			<feTurbulence baseFrequency="0.04" numOctaves="4" result="result0" seed="20" type="fractalNoise"/>
			<feDisplacementMap in="result1" in2="result0" result="result2" scale="30" xChannelSelector="R" yChannelSelector="G"/>
			<feColorMatrix result="result3" type="saturate" values="1"/>
			<feGaussianBlur in="fbSourceGraphic" result="result4" stdDeviation="0.01"/>
			<feComposite in="result4" in2="result3" operator="atop" result="fbSourceGraphic"/>
			<feGaussianBlur in="fbSourceGraphic" result="result0" stdDeviation="1.5"/>
			<feTurbulence baseFrequency="0.02" numOctaves="8" result="result1" seed="20" type="fractalNoise"/>
			<feComposite in="result0" in2="result1" operator="out" result="result2"/>
			<feSpecularLighting lighting-color="rgb(223,188,16)" in="result2" result="result4" specularConstant="2" specularExponent="30" surfaceScale="2.5">
				<feDistantLight azimuth="225" elevation="62"/>
			</feSpecularLighting>
			<feComposite in="result4" in2="result2" operator="atop" result="result92"/>
			<feBlend in2="result92" mode="multiply"/>
		</filter>
		<filter id="t13ned" x="-.2" y="-.2" width="1.4" height="1.4" color-interpolation-filters="sRGB">
			<feGaussianBlur in="SourceGraphic" result="result9" stdDeviation="2"/>
			<feTurbulence baseFrequency="0.06" numOctaves="10" result="result7" type="fractalNoise"/>
			<feColorMatrix result="result5" values="1 0 0 0 0 0 1 0 0 0 0 0 1 0 0 0 0 0 1.5 -0.3 "/>
			<feComposite in="result9" in2="result5" operator="out" result="result6"/>
			<feGaussianBlur result="result10" stdDeviation="0.5"/>
			<feDisplacementMap in="result5" in2="result10" result="result4" scale="120" yChannelSelector="G"/>
			<feComposite in="result9" in2="result4" operator="in" result="result2"/>
			<feComposite in="result2" in2="SourceGraphic" operator="in" result="fbSourceGraphic"/>
			<feBlend in2="result2" mode="multiply"/>
		</filter>
		<filter id="t13nec" color-interpolation-filters="sRGB">
			<feGaussianBlur result="blur" stdDeviation="0.41 0.44"/>
		</filter>
		<filter id="t13neb" x="-.25" y="-.25" width="1.5" height="1.5" color-interpolation-filters="sRGB">
			<feGaussianBlur result="result10" stdDeviation="3"/>
			<feBlend in="result10" in2="SourceGraphic" mode="multiply" result="result5"/>
			<feComposite in="result5" in2="SourceGraphic" result="fbSourceGraphic"/>
			<feGaussianBlur result="result9" stdDeviation="5"/>
			<feSpecularLighting lighting-color="rgb(255,255,255)" in="result9" result="result1" specularConstant="2.2" specularExponent="45">
				<fePointLight x="-5000" y="-10000" z="20000"/>
			</feSpecularLighting>
			<feComposite in="result1" in2="fbSourceGraphic" operator="in" result="result2"/>
			<feComposite in="result2" in2="fbSourceGraphic" k2="2" k3="0.8" operator="arithmetic" result="result4"/>
			<feBlend in="result4" in2="result4" mode="multiply" result="fbSourceGraphic"/>
			<feColorMatrix in="fbSourceGraphic" result="fbSourceGraphicAlpha" values="0 0 0 -1 0 0 0 0 -1 0 0 0 0 -1 0 0 0 0 1 0"/>
			<feGaussianBlur in="fbSourceGraphic" result="result8" stdDeviation="4"/>
			<feTurbulence baseFrequency="0.025 0.2" numOctaves="3" result="result7" seed="22" type="fractalNoise"/>
			<feComposite in="fbSourceGraphic" in2="result8" operator="in" result="result6"/>
			<feDisplacementMap in="result7" in2="result6" result="result4" scale="50"/>
			<feFlood flood-color="rgb(230,211,138)" result="result11"/>
			<feComposite in2="result4" operator="atop" result="result2"/>
			<feComposite in="result2" in2="fbSourceGraphic" operator="atop" result="result9"/>
			<feGaussianBlur in="result9" result="result0" stdDeviation="8"/>
			<feSpecularLighting lighting-color="rgb(255,255,255)" in="result0" result="result1" specularConstant="0.7" specularExponent="15" surfaceScale="5">
				<feDistantLight azimuth="235" elevation="50"/>
			</feSpecularLighting>
			<feComposite in="result1" in2="result9" operator="in" result="result2"/>
			<feComposite in="result9" in2="result2" k2="0.5" k3="0.5" operator="arithmetic" result="result4"/>
			<feConvolveMatrix kernelMatrix="2 0 0 0 2 0 0 0 -2 " order="3 3" result="result10" targetX="2" targetY="2"/>
			<feBlend in="result10" in2="result10" mode="multiply"/>
		</filter>
	</defs>
	<rect transform="matrix(.93755 0 0 2.5185 11.722 -95.106)" x="-18.901" y="-9.5149" width="240.81" height="63.822" fill="#205" filter="url(#t13ned)" stroke-width=".26458"/>
	<g transform="translate(0 -252.02)">
		<path transform="matrix(1.2028 0 0 2.584 -6.3424 -429.35)" d="m9.1281 266.4h1.9182v8.4402h-1.9182zm-3.0692-0.76729h8.0566v1.5346h-0.38365l-4.68e-4 -0.22913c0.02001-0.29591-0.09909-0.50888-0.39205-0.52513h-6.4512c-0.35774-7e-3 -0.43021 0.18358-0.44507 0.52513l-4.68e-4 0.22913h-0.38365zm2.6855 9.6c0.22093-4e-3 0.38747-0.18846 0.38365-0.39249h1.9182c0.0065 0.21501 0.17666 0.37859 0.38365 0.38365v0.38364h-2.6855zm6.3423-8.8327h1.9182v8.4402h-1.9182zm-0.38365-0.38364v-0.38365h2.6855v0.38365c-0.21205 4e-3 -0.38155 0.17074-0.38365 0.38364h-1.9182c-0.0065-0.21944-0.18257-0.38007-0.38365-0.38364zm0 9.2163c0.22093-4e-3 0.38747-0.18846 0.38365-0.39249h1.9182c0.0065 0.21501 0.17666 0.37859 0.38365 0.38365v0.38364h-2.6855zm6.5128-4.9962c1.0093-0.0108 1.5036-1.0399 1.5227-1.9182 0.01918-0.87835-0.54995-1.9182-1.5227-1.9182v-0.76729c1.5334 4e-3 3.4391 0.91863 3.4386 2.6962s-1.899 2.6741-3.4386 2.6749v-0.76729zm0 4.6038c1.0093-0.0108 1.5036-1.0399 1.5227-1.9182 0.01918-0.87834-0.54995-1.9182-1.5227-1.9182v-0.76729c1.5334 4e-3 3.4391 0.91863 3.4386 2.6962s-1.899 2.6741-3.4386 2.6749v-0.76729zm0 0v0.76729c-0.74867-3e-3 -1.4534-0.23398-2.1101-0.58418-0.11136-0.0679-0.23827-0.12848-0.282-0.13469-0.16465-0.0234-0.29346 0.0829-0.29346 0.24219v0.093h-0.38365v-2.3019h0.37776c0.11199 1.3127 1.5199 1.9182 2.6914 1.9182zm0-8.4402c-1.0945-1e-3 -1.7585 0.36421-2.4671 1.163-0.13023 0.22256-0.13118 0.23342-0.02881 0.33179 0.13792 0.13253 0.18234 0.23568 0.18234 0.42343 0.0012 0.3342-0.24424 0.54673-0.56382 0.56383-0.49372-0.0136-0.60703-0.40571-0.55561-0.8284 0.47029-1.7439 1.7117-2.4185 3.433-2.421zm-0.22912 4.6042c-0.28627 0.0155-0.49464 0.0778-0.54701 0.38318h-0.3748v-1.5346h0.37803c0.03856 0.28748 0.20364 0.40226 0.4973 0.38001l0.2756 7e-3v0.7639zm15.046 3.9673c0.10048 0.16575 0.19876 0.25238 0.3909 0.25238h0.12336v0.38401l-2.3103-0.011-2.7153-4.5634 1.1507-1.6057zm0.13062-0.13127c-0.0063 0.20821 0.16288 0.38444 0.38364 0.38365h-2.3019v-4.6038h1.9182zm0-8.4402v4.2201h-1.9182v-4.6038h2.3019c-0.22077-7.9e-4 -0.38996 0.17544-0.38364 0.38364zm0.38364-0.39248c-0.22093 4e-3 -0.38747 0.18845-0.38364 0.39248h-1.9182c-0.0065-0.215-0.17666-0.37859-0.38365-0.38364v-0.38365h2.6855zm-7.9259 0.26121c-0.10048-0.16575-0.19876-0.25237-0.3909-0.25237h-0.12337v-0.38401l2.3103 0.011 2.7153 4.5634-1.1507 1.6058zm-0.13062 0.13127c0.0063-0.2082-0.16288-0.38443-0.38365-0.38364h2.3019v4.6038h-1.9182zm0 8.4402v-4.2201h1.9182v4.6038h-2.3019c0.22077 7.9e-4 0.38996-0.17544 0.38365-0.38365zm-0.38365 0.39249c0.22093-4e-3 0.38747-0.18846 0.38365-0.39249h1.9182c0.0065 0.21501 0.17666 0.37859 0.38365 0.38365v0.38364h-2.6855zm14.182-3.8133v2.6536h-1.5346v-2.8015c0-0.58825-0.4331-1.4276-1.1509-1.4186v-0.38365c1.348 7e-3 2.6784 0.3993 2.6855 1.9502zm0 3.395c6.27e-4 0.24001 0.16854 0.35591 0.38365 0.41829v0.3748h-1.9182v-0.25366c-0.3537 0.204-0.75229 0.24021-1.1509 0.25994v-0.38228c0.65121-0.0731 1.0628-0.52709 1.1586-1.1586h1.5269zm-1.5346-1.8924h-0.64559c-0.8559 0-1.5925 0.22218-1.655 1.1585 5e-3 0.4926 0.32917 0.96969 0.88239 1.1109 0.0874 0.0258 0.17694 0.0324 0.26727 0.0324v0.38364c-0.14657 3e-3 -0.29273-9e-3 -0.43856-0.0227-0.82172-0.11588-2.2101-0.45786-2.2363-1.5103 0.03848-1.0703 1.4039-1.3704 2.2363-1.5134 0.12805-0.0125 0.53808-0.0227 0.91116-0.0227h0.67834zm-2.6641-1.937c-0.12889 0.0488-0.36154-0.024-0.46122-0.13373-0.17278-0.19014-0.17166-0.51257 0.01675-0.67136 0.54788-0.46177 1.243-0.69708 1.9576-0.71706v0.38994c-0.45251 5.6e-4 -0.89113 0.12539-1.2961 0.32378 0.21089 0.31077 0.16343 0.66424-0.21705 0.80843zm4.9662 0.0187h1.5346v3.0692h-1.5346zm0-0.74149c-6.27e-4 -0.24-0.16854-0.3559-0.38365-0.41828v-0.37481h1.9182v0.25366c0.3537-0.20399 0.75229-0.2402 1.1509-0.25993v0.38227c-0.65121 0.0731-1.0628 0.52709-1.1586 1.1586h-1.5269zm4.1987 0.72277c-0.38048-0.14419-0.42795-0.49766-0.21705-0.80843-0.40495-0.19839-0.84357-0.32322-1.2961-0.32378v-0.38994c0.71464 0.02 1.4097 0.25529 1.9576 0.71706 0.1884 0.15879 0.18953 0.48122 0.01675 0.67136-0.09968 0.1097-0.33233 0.18257-0.46122 0.13373zm-2.3041 3.2611c1.0112 0.48821 1.5896 1.3818 1.6009 2.5123 0.01132 1.1305-0.66604 2.1425-1.7292 2.5613-0.32133 0.12657-0.65865 0.12822-1.0134 0.1242v-0.38364c0.95-2e-3 1.0943-1.4077 1.0903-2.3019-4e-3 -0.8942-0.18116-2.2152-1.3926-2.2591-0.18898-7e-3 -0.2331-7e-3 -0.30581-0.0478-0.16027-0.0926-0.14468-0.21134-0.14468-0.37855h1.5346c0.06221 0.11195 0.24947 0.11985 0.35996 0.17319zm-1.1272 4.8201v0.38405c-0.52178-0.041-1.0291-0.17138-1.4392-0.51677-0.2648-0.22116-0.26247-0.21966-0.3196-0.20532-0.12524 0.063-0.14778 0.20491-0.16425 0.33216h-0.3788v-1.9182h0.37705c0.13494 1.1256 0.75154 1.8406 1.9248 1.9241zm4.7857-8.0624h1.5346v3.0692h-1.5346zm0-0.74149c-6.27e-4 -0.24-0.16854-0.3559-0.38365-0.41828v-0.37481h1.9182v0.25366c0.3537-0.20399 0.75229-0.2402 1.1509-0.25993v0.38227c-0.65121 0.0731-1.0628 0.52709-1.1586 1.1586h-1.5269zm4.1987 0.72277c-0.38048-0.14419-0.42795-0.49766-0.21705-0.80843-0.40495-0.19839-0.84357-0.32322-1.2961-0.32378v-0.38994c0.71464 0.02 1.4097 0.25529 1.9576 0.71706 0.1884 0.15879 0.18953 0.48122 0.01675 0.67136-0.09968 0.1097-0.33233 0.18257-0.46122 0.13373zm-2.3041 3.2611c1.0112 0.48821 1.5896 1.3818 1.6009 2.5123 0.01132 1.1305-0.66604 2.1425-1.7292 2.5613-0.32133 0.12657-0.65865 0.12822-1.0134 0.1242v-0.38364c0.95-2e-3 1.0943-1.4077 1.0903-2.3019-4e-3 -0.8942-0.18116-2.2152-1.3926-2.2591-0.18898-7e-3 -0.2331-7e-3 -0.30581-0.0478-0.16027-0.0926-0.14468-0.21134-0.14468-0.37855h1.5346c0.06221 0.11195 0.24947 0.11985 0.35996 0.17319zm-1.1272 4.8201v0.38405c-0.52178-0.041-1.0291-0.17138-1.4392-0.51677-0.2648-0.22116-0.26247-0.21966-0.3196-0.20532-0.12524 0.063-0.14778 0.20491-0.16425 0.33216h-0.37881v-1.9182h0.37705c0.13494 1.1256 0.75154 1.8406 1.9248 1.9241zm9.5665-4.9933h-1.5346v-3.0692h1.5346zm0 0.74149c6.27e-4 0.24001 0.16854 0.35591 0.38365 0.41829v0.3748h-1.9182v-0.25366c-0.3537 0.204-0.75229 0.24021-1.1509 0.25994v-0.38228c0.65121-0.0731 1.0628-0.52709 1.1586-1.1586h1.5269zm-5.3624-2.2547c0.0168-1.4996 1.0463-3.0769 2.6769-3.0906v0.37356c-0.79221-7e-3 -1.1382 1.8295-1.1403 2.6956-0.0021 0.86607 0.33593 2.6865 1.1403 2.6956v0.37355c-1.5771 0-2.6937-1.5481-2.6769-3.0478zm5.3624-2.2975v0.74149h-1.5269c-0.09578-0.63149-0.50737-1.0854-1.1586-1.1586v-0.38227c0.39865 0.0197 0.79724 0.0559 1.1509 0.25993v-0.25366h1.9182v0.37481c-0.21511 0.0624-0.38302 0.17828-0.38365 0.41828zm1.5346 0.74149h1.5346v3.0692h-1.5346zm0-1.1509h-0.38365v-0.38365h2.6855v0.38365h-0.76729v1.151h-1.5346zm0-1.9182h1.5346v1.5346h-1.5346zm1.5346 0h-1.5346c6.4e-5 -0.26848-0.2139-0.7556-0.60281-0.76307-0.23266 9e-3 -0.2993 0.22038-0.43636 0.35811l-0.32491-0.27254c0.19856-0.53091 0.78911-0.83869 1.3143-0.85791 0.95946-0.0351 1.5815 0.73749 1.5843 1.5354zm-1.5346 9.2075v-3.0692h1.5346v3.0692zm0 0h1.5346c-6.4e-5 0.26848 0.2139 0.7556 0.60281 0.76306 0.23266-9e-3 0.2993-0.22038 0.43636-0.3581l0.32491 0.27254c-0.19856 0.53091-0.78911 0.83868-1.3143 0.85791-0.95946 0.0351-1.5815-0.7375-1.5843-1.5354zm5.1927-3.0692h-1.5346v-3.0692h1.5346zm-1.5346 1.1509v-1.1509h1.5346v1.1509h0.76729v0.38364h-2.6855v-0.38364zm0 1.9182v-1.5346h1.5346v1.5346zm-0.38365 1.1598c0.15005-0.029 0.27094-0.0925 0.34323-0.23096 0.03815-0.0731 0.03955-0.14426 0.03995-0.50788l4.68e-4 -0.42094h1.5346l4.68e-4 0.42094c4.04e-4 0.36362 0.0071 0.43225 0.03995 0.50788 0.06405 0.1473 0.20182 0.19314 0.34323 0.23096v0.3748h-2.3019zm1.9095-10.379c2.75e-4 0.40502-0.31627 0.77167-0.75857 0.76954-0.44016-2e-3 -0.76134-0.3389-0.76072-0.75784 6.17e-4 -0.41682 0.33051-0.75722 0.75623-0.75617 0.4236 1e-3 0.76278 0.33944 0.76306 0.74447zm-1.911 2.3096 1.9197-0.76183v1.5336h-1.5346c8.91e-4 -0.19675-0.17632-0.38168-0.38512-0.39288zm3.7579 1.5391 0.0024-1.524 1.9158 3.8045 2.3029-4.5845 0.38266 0.77097v1.533l-1.9183 3.8364h-0.7672zm-0.80888-1.5926c-0.1052-0.20707-0.22847-0.30445-0.46315-0.32572h-0.07073v-0.38365h1.7264v0.38365h-0.16149c-0.15007 0-0.16522 5e-3 -0.22379 0.0623-0.11117 0.10859-0.04693 0.23612 5e-3 0.33576l-0.0023 1.5217zm5.029-0.0487h-0.29839c0.02478-0.29695-0.24643-0.27707-0.4689-0.27707v-0.38365h2.4937v0.37773c-0.19215 8e-3 -0.36192 0.0396-0.46932 0.20941l-0.87432 1.7147h-0.38277zm3.5237 5.4532c-0.52906-0.0553-1.072-0.2387-1.4744-0.49823-0.4246-0.26776-0.75257-0.69189-0.75257-1.2037-0.01545-0.51566 0.3444-0.93995 0.75974-1.2086 0.16604-0.10741 0.49168-0.26578 0.62952-0.30616 0.03188-9e-3 0.06039-0.0277 0.09058-0.0416-0.11635-0.0666-0.24235-0.12347-0.35933-0.19332-0.404-0.25285-0.73619-0.63694-0.73619-1.1276-0.02376-0.80491 0.85923-1.2459 1.5324-1.4463 0.20223-0.0466 0.51392-0.0878 0.66605-0.0881l0.09058-1.8e-4v0.38365h-0.07012c-0.60353 0.0303-1.0808 0.55567-1.0808 1.1509-0.0081 0.59843 0.48339 1.1163 1.0808 1.1509h0.07012v0.37421l-0.15128 0.0238c-0.46268 0.064-0.78867 0.44458-0.92973 0.86969-0.08803 0.28713-0.09514 0.63066 0 0.91738 0.0725 0.28746 0.2495 0.51431 0.4706 0.69371 0.17116 0.13889 0.39213 0.16773 0.61042 0.19979v0.37421l-0.13321-3e-3c-0.07327-2e-3 -0.21422-0.0113-0.31322-0.0216zm0.44644-5.7361v-0.38406c0.52178 0.041 1.0291 0.17139 1.4392 0.51677 0.2648 0.22116 0.26247 0.21966 0.3196 0.20532 0.12524-0.063 0.14778-0.2049 0.16425-0.33215h0.37881v1.9182h-0.37705c-0.13494-1.1256-0.75154-1.8406-1.9248-1.9241zm1.5131 4.2447c0.12889-0.0489 0.36154 0.024 0.46122 0.13372 0.17278 0.19014 0.17166 0.51257-0.01675 0.67136-0.54788 0.46178-1.243 0.69708-1.9576 0.71707v-0.38994c0.45251-5.6e-4 0.89113-0.1254 1.2961-0.32379-0.21089-0.31076-0.16343-0.66424 0.21705-0.80842zm11.531-7.1488c-0.0035-0.27717-0.25384-0.54381-0.57547-0.54282h-2.4937v-0.76729h3.4528v1.5346h-0.38365zm-3.0692 7.8974h2.4937c0.31107-1e-3 0.57024-0.28556 0.57547-0.57547v-0.19182h0.38365v1.5346h-3.4528zm0.22912-3.836-0.22912-4.7e-4v-0.7639l0.2756-7e-3c0.29366 0.0223 0.45874-0.0925 0.4973-0.38001h0.37803v1.5346h-0.3748c-0.05237-0.30539-0.26074-0.36772-0.54701-0.38318zm-4.0656-4.6042h1.9182v8.4402h-1.9182zm-0.38365-0.39248v-0.37481h4.2201v0.76729h-3.8365c-8.46e-4 -0.25799-0.12046-0.38958-0.38365-0.39248zm0 9.2214c0.20952-2e-3 0.36684-0.1881 0.38365-0.38871h3.8365v0.76729h-4.2201zm3.991-4.2247c-0.28627 0.0155-0.49464 0.0778-0.54701 0.38318h-0.3748v-1.5346h0.37803c0.03856 0.28748 0.20364 0.40226 0.4973 0.38001l0.2756 7e-3v0.7639zm6.1487-4.7e-4h1.5346v3.0692h-1.5346zm0-0.74149c-6.27e-4 -0.24-0.16854-0.3559-0.38365-0.41828v-0.37481h1.9182v0.25366c0.3537-0.20399 0.75229-0.2402 1.1509-0.25993v0.38227c-0.65121 0.0731-1.0628 0.52709-1.1586 1.1586h-1.5269zm3.8199 1.5043c-0.0013-0.73065-0.29444-1.9162-1.1344-1.9195v-0.38351c1.4553 2e-3 2.6739 0.54018 2.6739 1.9559l0.01344 2.6536h-1.5335zm0.01658 2.3064h1.5346c-6.4e-5 0.26848 0.2139 0.7556 0.60281 0.76306 0.23266-9e-3 0.2993-0.22037 0.43636-0.3581l0.32491 0.27254c-0.19856 0.53091-0.78911 0.83869-1.3143 0.85791-0.95946 0.0351-1.5815-0.73749-1.5843-1.5354zm-4.1964 0.17319c0.11049-0.0533 0.29775-0.0612 0.35996-0.17319h1.5346c0 0.16721 0.01559 0.286-0.14468 0.37855-0.07271 0.0409-0.11683 0.041-0.30581 0.0478-1.2115 0.044-1.3886 1.3649-1.3926 2.2591-4e-3 0.89421 0.14031 2.3002 1.0903 2.3019v0.38364c-0.35479 4e-3 -0.6921 2e-3 -1.0134-0.1242-1.0632-0.41878-1.7405-1.4308-1.7292-2.5613 0.01132-1.1305 0.58973-2.0241 1.6009-2.5123zm2.6404 3.682c0.12889-0.0489 0.36154 0.024 0.46122 0.13372 0.17278 0.19014 0.17166 0.51257-0.01675 0.67136-0.54788 0.46177-1.243 0.69708-1.9576 0.71707v-0.38994c0.45251-5.6e-4 0.89113-0.1254 1.2961-0.32379-0.21089-0.31077-0.16343-0.66424 0.21705-0.80842zm9.9431-3.8552h-1.5346v-3.0691h1.5346zm0 1.5346h-1.5346v-0.25366c-0.3537 0.204-0.75229 0.24021-1.1509 0.25994v-0.38228c0.65102-0.073 1.0628-0.52729 1.1586-1.1586h1.5269zm-3.132-6.1139c0.099-0.0103 0.23996-0.0201 0.31322-0.0216l0.13322-3e-3v0.37421c-0.21829 0.0321-0.43926 0.0609-0.61042 0.19979-0.22109 0.17941-0.3981 0.40626-0.4706 0.69371-0.09513 0.28672-0.08803 0.63026 0 0.91739 0.14106 0.42511 0.46705 0.80564 0.92973 0.86968l0.15129 0.0238v0.37421h-0.0701c-0.59743 0.0347-1.0889 0.55252-1.0808 1.1509 0 0.59527 0.4773 1.1206 1.0808 1.1509h0.0701v0.38364l-0.0906-1.7e-4c-0.15213-2.9e-4 -0.46382-0.0415-0.66605-0.0881-0.67322-0.20047-1.5562-0.64142-1.5324-1.4463 0-0.49071 0.33218-0.87479 0.73619-1.1276 0.11697-0.0698 0.24298-0.12669 0.35933-0.19332-0.03019-0.0139-0.0587-0.0322-0.09058-0.0416-0.13784-0.0404-0.46347-0.19874-0.62952-0.30616-0.41534-0.26868-0.77519-0.69298-0.75974-1.2086 0-0.51182 0.32798-0.93595 0.75257-1.2037 0.40244-0.25952 0.94533-0.44298 1.4744-0.49823zm3.132 7.6485h-1.5346v-1.5346h1.5346zm-2.6855 2.3019v-0.38364c0.87242 1e-3 1.1501-1.1598 1.1509-1.9182h1.5346c-5e-3 1.3614-1.3731 2.2982-2.6855 2.3019zm0-0.37776v0.38405c-0.52179-0.041-1.0292-0.17138-1.4392-0.51677-0.2648-0.22116-0.26247-0.21966-0.3196-0.20532-0.12524 0.063-0.14778 0.20491-0.16425 0.33216h-0.3788v-1.9182h0.37705c0.13494 1.1256 0.75154 1.8406 1.9248 1.9241zm2.6855-8.8039v0.74149h-1.5269c-0.0958-0.63149-0.50738-1.0854-1.1586-1.1586v-0.38227c0.39864 0.0197 0.79723 0.0559 1.1509 0.25993v-0.25366h1.9182v0.37481c-0.21511 0.0624-0.38302 0.17828-0.38364 0.41828zm2.5833 3.8107h-1.5346v-3.0691h1.5346zm0 3.0692h-1.5346v-3.0692h1.5346zm0.38512 0.77175-1.9197 0.76183v-1.5336h1.5346c-8.9e-4 0.19675 0.17632 0.38169 0.38512 0.39288zm-1.911-9.9914c2.8e-4 -0.40503 0.33946-0.74343 0.76306-0.74447 0.42573-1e-3 0.75561 0.33935 0.75623 0.75617 6.2e-4 0.41894-0.32056 0.75572-0.76072 0.75784-0.44229 2e-3 -0.75884-0.36452-0.75857-0.76954zm-0.39385 2.3096 1.9197-0.76183v1.5336h-1.5346c8.9e-4 -0.19675-0.17632-0.38168-0.38513-0.39288zm3.0706 0.77174h1.5346v3.0692h-1.5346zm0-0.74149c-6.3e-4 -0.24-0.16854-0.3559-0.38365-0.41828v-0.37481h1.9182v0.25366c0.3537-0.20399 0.75229-0.2402 1.1509-0.25993v0.38227c-0.65121 0.0731-1.0628 0.52709-1.1586 1.1586h-1.5269zm3.8199 1.5043c-1e-3 -0.73065-0.29444-1.9162-1.1344-1.9195v-0.38351c1.4553 2e-3 2.6739 0.54018 2.6739 1.9559l0.0134 2.6536h-1.5335zm-0.36854 3.0781v-0.37887c0.20881-0.0112 0.38602-0.19613 0.38513-0.39288h1.5346v1.5336zm-1.9168 0.37919h0.38365v0.38364h-2.6855v-0.38364h0.76729v-1.1509h1.5346zm0 1.1508-1.5346 0.76752v-1.5347h1.5346zm4.5977-3.8578c-0.0168-1.4996 1.0998-3.0478 2.6769-3.0478v0.37356c-0.80435 9e-3 -1.1423 1.8295-1.1403 2.6956 2e-3 0.86607 0.34807 2.7027 1.1403 2.6956v0.37355c-1.6306-0.0137-2.6601-1.5909-2.6769-3.0906zm1.526-0.36224h2.2933c-0.0806-0.7864-0.23183-2.096-1.1424-2.312v-0.37356c1.7115 0.0236 2.5851 1.5174 2.6916 3.0692h-3.8426zm1.1509 3.075c1.1733-0.0835 1.7899-0.79847 1.9248-1.9241h0.37705v1.9182h-0.3788c-0.0165-0.12725-0.039-0.26914-0.16425-0.33216-0.0571-0.0143-0.0548-0.0158-0.31961 0.20532-0.41007 0.34539-0.91743 0.47581-1.4392 0.51677z" fill="#916f6f" filter="url(#t13neb)"/>
	</g>
	<g>
		<g filter="url(#t13nee)">
			<rect x="19.041" y="8.9429" width="188.63" height="31.405" fill="#caf" stroke-width=".23436"/>
			<ellipse id="t13nea" cx="9.2842" cy="2.7251" rx="1.0093" ry=".94847" fill="#40a" stroke-width=".23436"/>
			<use transform="translate(30.358 23.453)" width="100%" height="100%" xlink:href="#t13nea"/>
			<use transform="translate(30.13 29.525)" width="100%" height="100%" xlink:href="#t13nea"/>
			<use transform="translate(28.231 27.316)" width="100%" height="100%" xlink:href="#t13nea"/>
			<use transform="translate(30.206 17.4)" width="100%" height="100%" xlink:href="#t13nea"/>
			<use transform="translate(34.995 20.087)" width="100%" height="100%" xlink:href="#t13nea"/>
			<use transform="translate(34.229 21.951)" width="100%" height="100%" xlink:href="#t13nea"/>
			<use transform="translate(34.549 22.02)" width="100%" height="100%" xlink:href="#t13nea"/>
			<use transform="translate(46.886 20.422)" width="100%" height="100%" xlink:href="#t13nea"/>
			<use transform="translate(48.094 18.172)" width="100%" height="100%" xlink:href="#t13nea"/>
			<use transform="translate(39.423 16.451)" width="100%" height="100%" xlink:href="#t13nea"/>
			<use transform="translate(48.035 18.227)" width="100%" height="100%" xlink:href="#t13nea"/>
			<use transform="translate(54.639 16.14)" width="100%" height="100%" xlink:href="#t13nea"/>
			<use transform="translate(50.227 20.748)" width="100%" height="100%" xlink:href="#t13nea"/>
			<use transform="translate(52.283 22.134)" width="100%" height="100%" xlink:href="#t13nea"/>
			<use transform="translate(63.678 23.709)" width="100%" height="100%" xlink:href="#t13nea"/>
			<use transform="translate(70.836 25.195)" width="100%" height="100%" xlink:href="#t13nea"/>
			<use transform="translate(62.433 25.076)" width="100%" height="100%" xlink:href="#t13nea"/>
			<use transform="translate(68.896 20.646)" width="100%" height="100%" xlink:href="#t13nea"/>
			<use transform="translate(66.39 24.968)" width="100%" height="100%" xlink:href="#t13nea"/>
			<use transform="translate(65.719 22.992)" width="100%" height="100%" xlink:href="#t13nea"/>
			<use transform="translate(65.866 26.993)" width="100%" height="100%" xlink:href="#t13nea"/>
			<use transform="translate(67.467 19.664)" width="100%" height="100%" xlink:href="#t13nea"/>
			<use transform="translate(77.368 23.699)" width="100%" height="100%" xlink:href="#t13nea"/>
			<use transform="translate(78.661 27.995)" width="100%" height="100%" xlink:href="#t13nea"/>
			<use transform="translate(81.262 19.509)" width="100%" height="100%" xlink:href="#t13nea"/>
			<use transform="translate(76.378 27.231)" width="100%" height="100%" xlink:href="#t13nea"/>
			<use transform="translate(75.362 19.125)" width="100%" height="100%" xlink:href="#t13nea"/>
			<use transform="translate(85.021 28.087)" width="100%" height="100%" xlink:href="#t13nea"/>
			<use transform="translate(92.828 15.18)" width="100%" height="100%" xlink:href="#t13nea"/>
			<use transform="translate(95.428 21.496)" width="100%" height="100%" xlink:href="#t13nea"/>
			<use transform="translate(86.55 17.491)" width="100%" height="100%" xlink:href="#t13nea"/>
			<use transform="translate(96.715 20.414)" width="100%" height="100%" xlink:href="#t13nea"/>
			<use transform="translate(102.18 19.924)" width="100%" height="100%" xlink:href="#t13nea"/>
			<use transform="translate(99.05 27.213)" width="100%" height="100%" xlink:href="#t13nea"/>
			<use transform="translate(121.79 26.902)" width="100%" height="100%" xlink:href="#t13nea"/>
			<use transform="translate(123.96 28.511)" width="100%" height="100%" xlink:href="#t13nea"/>
			<use transform="translate(116.91 32.803)" width="100%" height="100%" xlink:href="#t13nea"/>
			<use transform="translate(121.26 30.788)" width="100%" height="100%" xlink:href="#t13nea"/>
			<use transform="translate(117.23 26.197)" width="100%" height="100%" xlink:href="#t13nea"/>
			<use transform="translate(127.05 23.105)" width="100%" height="100%" xlink:href="#t13nea"/>
			<use transform="translate(133.73 16.35)" width="100%" height="100%" xlink:href="#t13nea"/>
			<use transform="translate(127.88 26.687)" width="100%" height="100%" xlink:href="#t13nea"/>
			<use transform="translate(130.25 26.049)" width="100%" height="100%" xlink:href="#t13nea"/>
			<use transform="translate(131.15 15.12)" width="100%" height="100%" xlink:href="#t13nea"/>
			<use transform="translate(133.12 17.354)" width="100%" height="100%" xlink:href="#t13nea"/>
			<use transform="translate(131.22 20.06)" width="100%" height="100%" xlink:href="#t13nea"/>
			<use transform="translate(133.49 22.615)" width="100%" height="100%" xlink:href="#t13nea"/>
			<use transform="translate(142.17 24.576)" width="100%" height="100%" xlink:href="#t13nea"/>
			<use transform="translate(148.34 27.85)" width="100%" height="100%" xlink:href="#t13nea"/>
			<use transform="translate(150.84 21.693)" width="100%" height="100%" xlink:href="#t13nea"/>
			<use transform="translate(147.95 23.555)" width="100%" height="100%" xlink:href="#t13nea"/>
			<use transform="translate(148.33 28.709)" width="100%" height="100%" xlink:href="#t13nea"/>
			<use transform="translate(151.8 23.888)" width="100%" height="100%" xlink:href="#t13nea"/>
			<use transform="translate(160.31 25.74)" width="100%" height="100%" xlink:href="#t13nea"/>
			<use transform="translate(172.63 21.514)" width="100%" height="100%" xlink:href="#t13nea"/>
			<use transform="translate(176.57 20.156)" width="100%" height="100%" xlink:href="#t13nea"/>
			<use transform="translate(175.14 24.59)" width="100%" height="100%" xlink:href="#t13nea"/>
			<use transform="translate(185.22 21.514)" width="100%" height="100%" xlink:href="#t13nea"/>
			<use transform="translate(181.9 22.264)" width="100%" height="100%" xlink:href="#t13nea"/>
			<use transform="translate(183.52 19.441)" width="100%" height="100%" xlink:href="#t13nea"/>
			<use transform="translate(186.76 31.629)" width="100%" height="100%" xlink:href="#t13nea"/>
			<use transform="translate(188.64 22.886)" width="100%" height="100%" xlink:href="#t13nea"/>
			<use transform="translate(-6.6792 19.577)" width="100%" height="100%" xlink:href="#t13nea"/>
			<use transform="translate(4.0209 18.624)" width="100%" height="100%" xlink:href="#t13nea"/>
			<use transform="translate(-2.9775 28.281)" width="100%" height="100%" xlink:href="#t13nea"/>
			<use transform="translate(-3.9751 13.136)" width="100%" height="100%" xlink:href="#t13nea"/>
			<use transform="translate(-8.3917 9.7242)" width="100%" height="100%" xlink:href="#t13nea"/>
			<use transform="translate(-6.2721 11.359)" width="100%" height="100%" xlink:href="#t13nea"/>
			<use transform="translate(-8.5496 12.562)" width="100%" height="100%" xlink:href="#t13nea"/>
			<use transform="translate(1.0722 15.905)" width="100%" height="100%" xlink:href="#t13nea"/>
			<use transform="translate(-2.3865 7.917)" width="100%" height="100%" xlink:href="#t13nea"/>
			<use transform="translate(4.5426 6.3061)" width="100%" height="100%" xlink:href="#t13nea"/>
			<use transform="translate(-2.8652 8.5335)" width="100%" height="100%" xlink:href="#t13nea"/>
			<use transform="translate(-2.5928 9.0441)" width="100%" height="100%" xlink:href="#t13nea"/>
			<use transform="translate(-.50328 5.8869)" width="100%" height="100%" xlink:href="#t13nea"/>
			<use transform="translate(3.3549 4.0375)" width="100%" height="100%" xlink:href="#t13nea"/>
			<use transform="translate(1.5807 10.325)" width="100%" height="100%" xlink:href="#t13nea"/>
			<use transform="translate(4.8257 12.342)" width="100%" height="100%" xlink:href="#t13nea"/>
			<use transform="translate(-1.5798 7.7704)" width="100%" height="100%" xlink:href="#t13nea"/>
			<use transform="translate(-1.6053 11.661)" width="100%" height="100%" xlink:href="#t13nea"/>
			<use transform="translate(5.6853 14.889)" width="100%" height="100%" xlink:href="#t13nea"/>
			<use transform="translate(11.928 14.298)" width="100%" height="100%" xlink:href="#t13nea"/>
			<use transform="translate(1.955 13.238)" width="100%" height="100%" xlink:href="#t13nea"/>
			<use transform="translate(2.6104 9.3946)" width="100%" height="100%" xlink:href="#t13nea"/>
			<use transform="translate(13.605 19.74)" width="100%" height="100%" xlink:href="#t13nea"/>
			<use transform="translate(8.4666 16.707)" width="100%" height="100%" xlink:href="#t13nea"/>
			<use transform="translate(2.5768 14.934)" width="100%" height="100%" xlink:href="#t13nea"/>
			<use transform="translate(6.7209 21.533)" width="100%" height="100%" xlink:href="#t13nea"/>
			<use transform="translate(10.931 16.369)" width="100%" height="100%" xlink:href="#t13nea"/>
			<use transform="translate(15.145 18.395)" width="100%" height="100%" xlink:href="#t13nea"/>
			<use transform="translate(9.5365 21.638)" width="100%" height="100%" xlink:href="#t13nea"/>
			<use transform="translate(13.976 27.386)" width="100%" height="100%" xlink:href="#t13nea"/>
			<use transform="translate(17.687 16.495)" width="100%" height="100%" xlink:href="#t13nea"/>
			<use transform="translate(9.5122 14.424)" width="100%" height="100%" xlink:href="#t13nea"/>
			<use transform="translate(18.449 21.985)" width="100%" height="100%" xlink:href="#t13nea"/>
			<use transform="translate(16.836 15.589)" width="100%" height="100%" xlink:href="#t13nea"/>
			<use transform="translate(23.867 19.253)" width="100%" height="100%" xlink:href="#t13nea"/>
			<use transform="translate(14.589 14.646)" width="100%" height="100%" xlink:href="#t13nea"/>
			<use transform="translate(21.347 26.913)" width="100%" height="100%" xlink:href="#t13nea"/>
			<use transform="translate(25.936 23.75)" width="100%" height="100%" xlink:href="#t13nea"/>
			<use transform="translate(18.435 25.514)" width="100%" height="100%" xlink:href="#t13nea"/>
			<use transform="translate(24.311 15.298)" width="100%" height="100%" xlink:href="#t13nea"/>
			<use transform="translate(18.322 14.083)" width="100%" height="100%" xlink:href="#t13nea"/>
			<use transform="translate(26.603 22.137)" width="100%" height="100%" xlink:href="#t13nea"/>
			<use transform="translate(21.423 20.406)" width="100%" height="100%" xlink:href="#t13nea"/>
			<use transform="translate(25.814 24.998)" width="100%" height="100%" xlink:href="#t13nea"/>
			<use transform="translate(25.461 22.042)" width="100%" height="100%" xlink:href="#t13nea"/>
			<use transform="translate(32.841 23.806)" width="100%" height="100%" xlink:href="#t13nea"/>
			<use transform="translate(39.264 10.909)" width="100%" height="100%" xlink:href="#t13nea"/>
			<use transform="translate(36.538 11.461)" width="100%" height="100%" xlink:href="#t13nea"/>
			<use transform="translate(38.092 14.37)" width="100%" height="100%" xlink:href="#t13nea"/>
			<use transform="translate(47.284 15.669)" width="100%" height="100%" xlink:href="#t13nea"/>
			<use transform="translate(45.806 15.559)" width="100%" height="100%" xlink:href="#t13nea"/>
			<use transform="translate(42.019 16.24)" width="100%" height="100%" xlink:href="#t13nea"/>
			<use transform="translate(46.465 13.962)" width="100%" height="100%" xlink:href="#t13nea"/>
			<use transform="translate(39.316 11.709)" width="100%" height="100%" xlink:href="#t13nea"/>
			<use transform="translate(47.491 16.999)" width="100%" height="100%" xlink:href="#t13nea"/>
			<use transform="translate(45.553 26.725)" width="100%" height="100%" xlink:href="#t13nea"/>
			<use transform="translate(53.212 27.981)" width="100%" height="100%" xlink:href="#t13nea"/>
			<use transform="translate(51.816 28.676)" width="100%" height="100%" xlink:href="#t13nea"/>
			<use transform="translate(52.04 25.812)" width="100%" height="100%" xlink:href="#t13nea"/>
			<use transform="translate(53.054 28.003)" width="100%" height="100%" xlink:href="#t13nea"/>
			<use transform="translate(54.434 30.776)" width="100%" height="100%" xlink:href="#t13nea"/>
			<use transform="translate(46.166 28.943)" width="100%" height="100%" xlink:href="#t13nea"/>
			<use transform="translate(51.261 28.889)" width="100%" height="100%" xlink:href="#t13nea"/>
			<use transform="translate(52.236 23.172)" width="100%" height="100%" xlink:href="#t13nea"/>
			<use transform="translate(54.777 23.872)" width="100%" height="100%" xlink:href="#t13nea"/>
			<use transform="translate(57.434 24.101)" width="100%" height="100%" xlink:href="#t13nea"/>
			<use transform="translate(59.061 24.886)" width="100%" height="100%" xlink:href="#t13nea"/>
			<use transform="translate(59.081 27.528)" width="100%" height="100%" xlink:href="#t13nea"/>
			<use transform="translate(67.031 32.996)" width="100%" height="100%" xlink:href="#t13nea"/>
			<use transform="translate(59.4 29.84)" width="100%" height="100%" xlink:href="#t13nea"/>
			<use transform="translate(70.36 31.31)" width="100%" height="100%" xlink:href="#t13nea"/>
			<use transform="translate(75.546 26.617)" width="100%" height="100%" xlink:href="#t13nea"/>
			<use transform="translate(72.54 30.615)" width="100%" height="100%" xlink:href="#t13nea"/>
			<use transform="translate(64.505 26.625)" width="100%" height="100%" xlink:href="#t13nea"/>
			<use transform="translate(67.193 27.936)" width="100%" height="100%" xlink:href="#t13nea"/>
			<use transform="translate(73.011 28.195)" width="100%" height="100%" xlink:href="#t13nea"/>
			<use transform="translate(67.732 23.941)" width="100%" height="100%" xlink:href="#t13nea"/>
			<use transform="translate(78.016 28.746)" width="100%" height="100%" xlink:href="#t13nea"/>
			<use transform="translate(79.228 29.836)" width="100%" height="100%" xlink:href="#t13nea"/>
			<use transform="translate(77.525 28.924)" width="100%" height="100%" xlink:href="#t13nea"/>
			<use transform="translate(81.061 24.738)" width="100%" height="100%" xlink:href="#t13nea"/>
			<use transform="translate(76.539 18.644)" width="100%" height="100%" xlink:href="#t13nea"/>
			<use transform="translate(72.34 24.846)" width="100%" height="100%" xlink:href="#t13nea"/>
			<use transform="translate(83.91 21.559)" width="100%" height="100%" xlink:href="#t13nea"/>
			<use transform="translate(20.47 6.9449)" width="100%" height="100%" xlink:href="#t13nea"/>
			<use transform="translate(26.911 15.209)" width="100%" height="100%" xlink:href="#t13nea"/>
			<use transform="translate(23.031 6.1123)" width="100%" height="100%" xlink:href="#t13nea"/>
			<use transform="translate(24.691 11.593)" width="100%" height="100%" xlink:href="#t13nea"/>
			<use transform="translate(28.093 19.005)" width="100%" height="100%" xlink:href="#t13nea"/>
			<use transform="translate(24.788 18.378)" width="100%" height="100%" xlink:href="#t13nea"/>
			<use transform="translate(25.221 13.884)" width="100%" height="100%" xlink:href="#t13nea"/>
			<use transform="translate(32.984 11.484)" width="100%" height="100%" xlink:href="#t13nea"/>
			<use transform="translate(25.724 9.9819)" width="100%" height="100%" xlink:href="#t13nea"/>
			<use transform="translate(32.508 9.3947)" width="100%" height="100%" xlink:href="#t13nea"/>
			<use transform="translate(33.46 21.807)" width="100%" height="100%" xlink:href="#t13nea"/>
			<use transform="translate(46.348 13.749)" width="100%" height="100%" xlink:href="#t13nea"/>
			<use transform="translate(47.027 20.24)" width="100%" height="100%" xlink:href="#t13nea"/>
			<use transform="translate(41.689 18.082)" width="100%" height="100%" xlink:href="#t13nea"/>
			<use transform="translate(49.444 12.59)" width="100%" height="100%" xlink:href="#t13nea"/>
			<use transform="translate(55.129 16.588)" width="100%" height="100%" xlink:href="#t13nea"/>
			<use transform="translate(41.243 15.791)" width="100%" height="100%" xlink:href="#t13nea"/>
			<use transform="translate(49.956 15.421)" width="100%" height="100%" xlink:href="#t13nea"/>
			<use transform="translate(54.142 10.884)" width="100%" height="100%" xlink:href="#t13nea"/>
			<use transform="translate(54.774 21.925)" width="100%" height="100%" xlink:href="#t13nea"/>
			<use transform="translate(61.471 14.149)" width="100%" height="100%" xlink:href="#t13nea"/>
			<use transform="translate(52.7 11.789)" width="100%" height="100%" xlink:href="#t13nea"/>
			<use transform="translate(63.966 21.017)" width="100%" height="100%" xlink:href="#t13nea"/>
			<use transform="translate(56.904 10.173)" width="100%" height="100%" xlink:href="#t13nea"/>
			<use transform="translate(61.892 10.231)" width="100%" height="100%" xlink:href="#t13nea"/>
			<use transform="translate(60.576 20.518)" width="100%" height="100%" xlink:href="#t13nea"/>
			<use transform="translate(67.897 12.969)" width="100%" height="100%" xlink:href="#t13nea"/>
			<use transform="translate(73.089 17.783)" width="100%" height="100%" xlink:href="#t13nea"/>
			<use transform="translate(67.478 22.374)" width="100%" height="100%" xlink:href="#t13nea"/>
			<use transform="translate(15.327 21.484)" width="100%" height="100%" xlink:href="#t13nea"/>
			<use transform="translate(11.925 27.828)" width="100%" height="100%" xlink:href="#t13nea"/>
			<use transform="translate(17.678 29.297)" width="100%" height="100%" xlink:href="#t13nea"/>
			<use transform="translate(24.587 33.705)" width="100%" height="100%" xlink:href="#t13nea"/>
			<use transform="translate(22.58 31.546)" width="100%" height="100%" xlink:href="#t13nea"/>
			<use transform="translate(36.138 29.072)" width="100%" height="100%" xlink:href="#t13nea"/>
			<use transform="translate(28.031 27.108)" width="100%" height="100%" xlink:href="#t13nea"/>
			<use transform="translate(35.421 31.735)" width="100%" height="100%" xlink:href="#t13nea"/>
			<use transform="translate(41.738 26.91)" width="100%" height="100%" xlink:href="#t13nea"/>
			<use transform="translate(40.576 21.326)" width="100%" height="100%" xlink:href="#t13nea"/>
			<use transform="translate(40.231 27.99)" width="100%" height="100%" xlink:href="#t13nea"/>
			<use transform="translate(47.279 27.059)" width="100%" height="100%" xlink:href="#t13nea"/>
			<use transform="translate(41.34 32.138)" width="100%" height="100%" xlink:href="#t13nea"/>
			<use transform="translate(38.625 25.787)" width="100%" height="100%" xlink:href="#t13nea"/>
			<use transform="translate(50.349 30.769)" width="100%" height="100%" xlink:href="#t13nea"/>
			<use transform="translate(46.36 29.638)" width="100%" height="100%" xlink:href="#t13nea"/>
			<use transform="translate(41.273 30.872)" width="100%" height="100%" xlink:href="#t13nea"/>
			<use transform="translate(46.142 25.998)" width="100%" height="100%" xlink:href="#t13nea"/>
			<use transform="translate(53.119 22.289)" width="100%" height="100%" xlink:href="#t13nea"/>
			<use transform="translate(54.527 21.088)" width="100%" height="100%" xlink:href="#t13nea"/>
			<use transform="translate(54.648 20.554)" width="100%" height="100%" xlink:href="#t13nea"/>
			<use transform="translate(59.203 27.803)" width="100%" height="100%" xlink:href="#t13nea"/>
			<use transform="translate(51.998 31.191)" width="100%" height="100%" xlink:href="#t13nea"/>
			<use transform="translate(66.879 19.684)" width="100%" height="100%" xlink:href="#t13nea"/>
			<use transform="translate(68.343 26.982)" width="100%" height="100%" xlink:href="#t13nea"/>
			<use transform="translate(65.433 17.672)" width="100%" height="100%" xlink:href="#t13nea"/>
			<use transform="translate(67.286 21.044)" width="100%" height="100%" xlink:href="#t13nea"/>
			<use transform="translate(62.447 26.019)" width="100%" height="100%" xlink:href="#t13nea"/>
			<use transform="translate(63.85 22.042)" width="100%" height="100%" xlink:href="#t13nea"/>
			<use transform="translate(69.376 16.627)" width="100%" height="100%" xlink:href="#t13nea"/>
			<use transform="translate(75.503 21.87)" width="100%" height="100%" xlink:href="#t13nea"/>
			<use transform="translate(77.167 15.962)" width="100%" height="100%" xlink:href="#t13nea"/>
			<use transform="translate(70.593 21.19)" width="100%" height="100%" xlink:href="#t13nea"/>
			<use transform="translate(70.244 19.648)" width="100%" height="100%" xlink:href="#t13nea"/>
			<use transform="translate(79.863 21.784)" width="100%" height="100%" xlink:href="#t13nea"/>
			<use transform="translate(73.447 21.959)" width="100%" height="100%" xlink:href="#t13nea"/>
			<use transform="translate(80.701 22.897)" width="100%" height="100%" xlink:href="#t13nea"/>
			<use transform="translate(82.294 18.217)" width="100%" height="100%" xlink:href="#t13nea"/>
			<use transform="translate(88.758 18.626)" width="100%" height="100%" xlink:href="#t13nea"/>
			<use transform="translate(80.526 19.94)" width="100%" height="100%" xlink:href="#t13nea"/>
			<use transform="translate(86.63 12.056)" width="100%" height="100%" xlink:href="#t13nea"/>
			<use transform="translate(95.056 14.491)" width="100%" height="100%" xlink:href="#t13nea"/>
			<use transform="translate(96.027 13.741)" width="100%" height="100%" xlink:href="#t13nea"/>
			<use transform="translate(107.69 23.037)" width="100%" height="100%" xlink:href="#t13nea"/>
			<use transform="translate(100.7 22.013)" width="100%" height="100%" xlink:href="#t13nea"/>
			<use transform="translate(109.87 25.794)" width="100%" height="100%" xlink:href="#t13nea"/>
			<use transform="translate(105.52 26.405)" width="100%" height="100%" xlink:href="#t13nea"/>
			<use transform="translate(108.9 20.081)" width="100%" height="100%" xlink:href="#t13nea"/>
			<use transform="translate(103.66 25.027)" width="100%" height="100%" xlink:href="#t13nea"/>
			<use transform="translate(112.09 20.015)" width="100%" height="100%" xlink:href="#t13nea"/>
			<use transform="translate(112.34 16.104)" width="100%" height="100%" xlink:href="#t13nea"/>
			<use transform="translate(108.63 20.327)" width="100%" height="100%" xlink:href="#t13nea"/>
			<use transform="translate(116.76 23.544)" width="100%" height="100%" xlink:href="#t13nea"/>
			<use transform="translate(113.57 16.671)" width="100%" height="100%" xlink:href="#t13nea"/>
			<use transform="translate(115.51 16.306)" width="100%" height="100%" xlink:href="#t13nea"/>
			<use transform="translate(111.23 20.545)" width="100%" height="100%" xlink:href="#t13nea"/>
			<use transform="translate(121.63 26.964)" width="100%" height="100%" xlink:href="#t13nea"/>
			<use transform="translate(118.38 28.808)" width="100%" height="100%" xlink:href="#t13nea"/>
			<use transform="translate(124.83 17.271)" width="100%" height="100%" xlink:href="#t13nea"/>
			<use transform="translate(124.88 22.622)" width="100%" height="100%" xlink:href="#t13nea"/>
			<use transform="translate(128.03 25.196)" width="100%" height="100%" xlink:href="#t13nea"/>
			<use transform="translate(137.54 25.049)" width="100%" height="100%" xlink:href="#t13nea"/>
			<use transform="translate(136.9 20.562)" width="100%" height="100%" xlink:href="#t13nea"/>
			<use transform="translate(134.36 19.396)" width="100%" height="100%" xlink:href="#t13nea"/>
			<use transform="translate(141.57 27.353)" width="100%" height="100%" xlink:href="#t13nea"/>
			<use transform="translate(131.91 22.996)" width="100%" height="100%" xlink:href="#t13nea"/>
			<use transform="translate(142.23 17.079)" width="100%" height="100%" xlink:href="#t13nea"/>
			<use transform="translate(141.14 24.718)" width="100%" height="100%" xlink:href="#t13nea"/>
			<use transform="translate(143.46 27.418)" width="100%" height="100%" xlink:href="#t13nea"/>
			<use transform="translate(137.13 23.597)" width="100%" height="100%" xlink:href="#t13nea"/>
			<use transform="translate(145.35 20.191)" width="100%" height="100%" xlink:href="#t13nea"/>
			<use transform="translate(146.19 16.475)" width="100%" height="100%" xlink:href="#t13nea"/>
			<use transform="translate(149.62 16.511)" width="100%" height="100%" xlink:href="#t13nea"/>
			<use transform="translate(144.59 25.358)" width="100%" height="100%" xlink:href="#t13nea"/>
			<use transform="translate(156.02 27.73)" width="100%" height="100%" xlink:href="#t13nea"/>
			<use transform="translate(168.04 18.155)" width="100%" height="100%" xlink:href="#t13nea"/>
			<use transform="translate(171.22 18.069)" width="100%" height="100%" xlink:href="#t13nea"/>
			<use transform="translate(174.27 23.256)" width="100%" height="100%" xlink:href="#t13nea"/>
			<use transform="translate(171.21 23.511)" width="100%" height="100%" xlink:href="#t13nea"/>
			<use transform="translate(177.14 23.855)" width="100%" height="100%" xlink:href="#t13nea"/>
			<use transform="translate(165.93 24.13)" width="100%" height="100%" xlink:href="#t13nea"/>
			<use transform="translate(163.09 22.592)" width="100%" height="100%" xlink:href="#t13nea"/>
			<use transform="translate(170.01 21.384)" width="100%" height="100%" xlink:href="#t13nea"/>
			<use transform="translate(158.05 20.56)" width="100%" height="100%" xlink:href="#t13nea"/>
			<use transform="translate(156.79 25.229)" width="100%" height="100%" xlink:href="#t13nea"/>
			<use transform="translate(154.03 21.003)" width="100%" height="100%" xlink:href="#t13nea"/>
			<use transform="translate(157.86 18.908)" width="100%" height="100%" xlink:href="#t13nea"/>
			<use transform="translate(150.7 21.832)" width="100%" height="100%" xlink:href="#t13nea"/>
			<use transform="translate(156.86 23.68)" width="100%" height="100%" xlink:href="#t13nea"/>
			<use transform="translate(145.15 25.606)" width="100%" height="100%" xlink:href="#t13nea"/>
			<use transform="translate(122.94 29.762)" width="100%" height="100%" xlink:href="#t13nea"/>
			<use transform="translate(110.76 36.872)" width="100%" height="100%" xlink:href="#t13nea"/>
			<use transform="translate(103.38 30.925)" width="100%" height="100%" xlink:href="#t13nea"/>
			<use transform="translate(98.804 31.753)" width="100%" height="100%" xlink:href="#t13nea"/>
			<use transform="translate(102.16 24.523)" width="100%" height="100%" xlink:href="#t13nea"/>
			<use transform="translate(104.49 36.677)" width="100%" height="100%" xlink:href="#t13nea"/>
			<use transform="translate(104.16 23.88)" width="100%" height="100%" xlink:href="#t13nea"/>
			<use transform="translate(93.776 31.271)" width="100%" height="100%" xlink:href="#t13nea"/>
			<use transform="translate(80.095 26.525)" width="100%" height="100%" xlink:href="#t13nea"/>
			<use transform="translate(82.039 32.037)" width="100%" height="100%" xlink:href="#t13nea"/>
			<use transform="translate(81.884 29.577)" width="100%" height="100%" xlink:href="#t13nea"/>
			<use transform="translate(80.364 25.072)" width="100%" height="100%" xlink:href="#t13nea"/>
			<use transform="translate(80.089 23.418)" width="100%" height="100%" xlink:href="#t13nea"/>
			<use transform="translate(75.796 27.102)" width="100%" height="100%" xlink:href="#t13nea"/>
			<use transform="translate(69.967 28.276)" width="100%" height="100%" xlink:href="#t13nea"/>
			<use transform="translate(71.751 28.329)" width="100%" height="100%" xlink:href="#t13nea"/>
			<use transform="translate(83.021 27.889)" width="100%" height="100%" xlink:href="#t13nea"/>
			<use transform="translate(83.619 24.522)" width="100%" height="100%" xlink:href="#t13nea"/>
			<use transform="translate(85.952 30.311)" width="100%" height="100%" xlink:href="#t13nea"/>
			<use transform="translate(107.85 23.141)" width="100%" height="100%" xlink:href="#t13nea"/>
			<use transform="translate(109.31 28.845)" width="100%" height="100%" xlink:href="#t13nea"/>
			<use transform="translate(113.7 27.132)" width="100%" height="100%" xlink:href="#t13nea"/>
			<use transform="translate(117.4 26.417)" width="100%" height="100%" xlink:href="#t13nea"/>
			<use transform="translate(123.86 31.337)" width="100%" height="100%" xlink:href="#t13nea"/>
			<use transform="translate(112.39 25.106)" width="100%" height="100%" xlink:href="#t13nea"/>
			<use transform="translate(120.89 24.679)" width="100%" height="100%" xlink:href="#t13nea"/>
			<use transform="translate(120.47 23.698)" width="100%" height="100%" xlink:href="#t13nea"/>
			<use transform="translate(122.47 18.868)" width="100%" height="100%" xlink:href="#t13nea"/>
			<use transform="translate(118.4 16.818)" width="100%" height="100%" xlink:href="#t13nea"/>
			<use transform="translate(116.91 18.757)" width="100%" height="100%" xlink:href="#t13nea"/>
			<use transform="translate(128.27 19.302)" width="100%" height="100%" xlink:href="#t13nea"/>
			<use transform="translate(135.13 20.018)" width="100%" height="100%" xlink:href="#t13nea"/>
			<use transform="translate(139.66 22.795)" width="100%" height="100%" xlink:href="#t13nea"/>
			<use transform="translate(143.97 9.6784)" width="100%" height="100%" xlink:href="#t13nea"/>
			<use transform="translate(150.76 22.335)" width="100%" height="100%" xlink:href="#t13nea"/>
			<use transform="translate(140.4 17.379)" width="100%" height="100%" xlink:href="#t13nea"/>
			<use transform="translate(146.96 22.857)" width="100%" height="100%" xlink:href="#t13nea"/>
			<use transform="translate(151.87 22.652)" width="100%" height="100%" xlink:href="#t13nea"/>
			<use transform="translate(158.5 16.963)" width="100%" height="100%" xlink:href="#t13nea"/>
			<use transform="translate(159.23 13.441)" width="100%" height="100%" xlink:href="#t13nea"/>
			<use transform="translate(161.72 22.734)" width="100%" height="100%" xlink:href="#t13nea"/>
			<use transform="translate(155.02 19.741)" width="100%" height="100%" xlink:href="#t13nea"/>
			<use transform="translate(167.9 18.071)" width="100%" height="100%" xlink:href="#t13nea"/>
			<use transform="translate(162.45 13.909)" width="100%" height="100%" xlink:href="#t13nea"/>
			<use transform="translate(165.32 24.642)" width="100%" height="100%" xlink:href="#t13nea"/>
			<use transform="translate(163.07 22.109)" width="100%" height="100%" xlink:href="#t13nea"/>
			<use transform="translate(174.83 14.268)" width="100%" height="100%" xlink:href="#t13nea"/>
			<use transform="translate(169.33 19.053)" width="100%" height="100%" xlink:href="#t13nea"/>
			<use transform="translate(177.4 13.904)" width="100%" height="100%" xlink:href="#t13nea"/>
			<use transform="translate(179.89 24.299)" width="100%" height="100%" xlink:href="#t13nea"/>
			<use transform="translate(169 18.56)" width="100%" height="100%" xlink:href="#t13nea"/>
			<use transform="translate(180.13 19.686)" width="100%" height="100%" xlink:href="#t13nea"/>
			<use transform="translate(176.64 23.758)" width="100%" height="100%" xlink:href="#t13nea"/>
			<use transform="translate(181.83 17.362)" width="100%" height="100%" xlink:href="#t13nea"/>
			<g fill="#40a" stroke-width=".26458">
				<path d="m14.974 29.269-5.3808-1.556-4.3323 3.5505-0.18292-5.5983-4.7154-3.0231 5.2678-1.9039 1.418-5.4188 3.4386 4.4216 5.5918-0.32595-3.1426 4.6366z"/>
				<path d="m73.15 31.724-5.716-0.93554-4.0112 4.1784-0.8766-5.7254-5.2134-2.5237 5.1743-2.6029 0.78913-5.7381 4.0745 4.1167 5.7011-1.0226-2.6561 5.1472z"/>
				<path d="m139.92 24.851-4.6587-1.3364-3.742 3.0801-0.16864-4.8436-4.0857-2.607 4.5544-1.6571 1.2169-4.6913 2.9834 3.8195 4.8377-0.29238-2.7106 4.0177z"/>
			</g>
			<g fill="#caf" stroke-width=".26458">
				<path d="m169.62 32.706-3.8594-0.82193-2.8651 2.7134-0.41093-3.9245-3.4659-1.8864 3.6055-1.6036 0.72302-3.8792 2.6392 2.9335 3.9128-0.5111-1.9743 3.4166z"/>
				<path d="m19.041 40.348-7.5914-1.9127-5.8793 5.1693-0.5268-7.8109-6.7331-3.9942 7.2658-2.9147 1.718-7.6378 5.0173 6.0095 7.7949-0.72627-4.165 6.6288z"/>
				<path d="m65.662 15.897-4.9779-3.2736-5.5187 2.2448 1.5751-5.7458-3.8403-4.5549 5.9513-0.27755 3.1453-5.0599 2.103 5.5743 5.7842 1.4277-4.6516 3.7227z"/>
				<path d="m120.28 37.124-4.8086-0.53526-3.167 3.6578-0.97689-4.7387-4.4574-1.8817 4.2049-2.3934 0.41217-4.8207 3.5756 3.2595 4.7122-1.0977-1.995 4.4079z"/>
			</g>
			<g fill="#330080" stroke-width=".26458">
				<path d="m159.02 28.786-5.7972-1.8711-4.8279 3.7149-0.012-6.0917-5.025-3.4436 5.7899-1.8938 1.7223-5.8432 3.5903 4.9213 6.0894-0.16765-3.5709 4.9353z"/>
				<path d="m34.366 32.46-2.6957-0.30559-1.78 2.0474-0.54239-2.6582-2.4973-1.0602 2.3605-1.3373 0.23659-2.7026 2.0013 1.8317 2.6435-0.61015-1.1237 2.4693z"/>
				<path d="m130.59 35.651-1.8927-0.52012-1.5015 1.2643-0.0902-1.9608-1.6664-1.0373 1.837-0.69171 0.47158-1.9054 1.2255 1.5333 1.9578-0.1403-1.0796 1.6393z"/>
				<path d="m111.33 35.508-3.2074 0.18947-1.6622 2.7496-1.1713-2.9918-3.1287-0.73121 2.4835-2.0385-0.27139-3.2015 2.7062 1.732 2.9609-1.2474-0.81094 3.1089z"/>
			</g>
			<path d="m98.83 27.035-3.2838 0.78221-1.2173 3.1486-1.7587-2.8814-3.3706-0.18473 2.1969-2.563-0.86589-3.2627 3.1164 1.2973 2.8355-1.8318-0.27082 3.3648z" fill="#5500d4" stroke-width=".26458"/>
			<g fill="#e5d5ff" stroke-width=".26458">
				<path d="m39.766 34.179-3.7208 0.56389-1.6449 3.3848-1.6861-3.3645-3.7274-0.51841 2.6788-2.6432-0.65881-3.7052 3.3417 1.7309 3.3203-1.7715-0.61351 3.713z"/>
				<path d="m56.258 23.588-3.8282 0.87658-1.4482 3.6506-2.0167-3.37-3.9194-0.24922 2.5819-2.9593-0.97414-3.8046 3.6124 1.541 3.3173-2.1021-0.34932 3.9117z"/>
				<path d="m85.674 22.815-2.1511-2.6317-3.3874 0.2801 1.8382-2.8591-1.3132-3.1351 3.2872 0.86468 2.5759-2.2177 0.19343 3.3935 2.9051 1.7645-3.1676 1.2326z"/>
				<path d="m113.68 20.491-4.7759 0.10008-2.6251 3.991-1.571-4.5112-4.6069-1.2633 3.805-2.8882-0.22212-4.7718 3.9226 2.7262 4.4696-1.6858-1.3807 4.5731z"/>
				<path d="m131.82 17.487-2.2251 2.3253 0.65411 3.1513-2.8991-1.3976-2.7949 1.5959 0.43335-3.1891-2.3814-2.165 3.167-0.57335 1.3231-2.9339 1.5239 2.8348z"/>
				<path d="m148.39 30.63-4.5053 2.8517-0.20496 5.328-4.1043-3.4036-5.1306 1.4515 1.9687-4.9552-2.9659-4.4309 5.321 0.34107 3.2975-4.19 1.3199 5.166z"/>
				<path d="m175.02 26.078-2.0959-3.5101-4.0797-0.26338 2.6906-3.078-1.0102-3.9614 3.7588 1.6078 3.4554-2.1849-0.36757 4.0716 3.1458 2.6111-3.986 0.90863z"/>
				<path d="m180.91 33.688-2.2591-0.15752-1.4105 1.7717-0.54828-2.1972-2.1208-0.79396 1.9202-1.2004 0.0997-2.2624 1.735 1.4553 2.1825-0.60426-0.84791 2.0998z"/>
			</g>
		</g>
	</g>
	<g transform="translate(0 -252.02)">
		<path d="m9.1281 266.4h1.9182v8.4402h-1.9182zm-3.0692-0.76729h8.0566v1.5346h-0.38365l-4.68e-4 -0.22913c0.02001-0.29591-0.09909-0.50888-0.39205-0.52513h-6.4512c-0.35774-7e-3 -0.43021 0.18358-0.44507 0.52513l-4.68e-4 0.22913h-0.38365zm2.6855 9.6c0.22093-4e-3 0.38747-0.18846 0.38365-0.39249h1.9182c0.0065 0.21501 0.17666 0.37859 0.38365 0.38365v0.38364h-2.6855zm6.3423-8.8327h1.9182v8.4402h-1.9182zm-0.38365-0.38364v-0.38365h2.6855v0.38365c-0.21205 4e-3 -0.38155 0.17074-0.38365 0.38364h-1.9182c-0.0065-0.21944-0.18257-0.38007-0.38365-0.38364zm0 9.2163c0.22093-4e-3 0.38747-0.18846 0.38365-0.39249h1.9182c0.0065 0.21501 0.17666 0.37859 0.38365 0.38365v0.38364h-2.6855zm6.5128-4.9962c1.0093-0.0108 1.5036-1.0399 1.5227-1.9182 0.01918-0.87835-0.54995-1.9182-1.5227-1.9182v-0.76729c1.5334 4e-3 3.4391 0.91863 3.4386 2.6962s-1.899 2.6741-3.4386 2.6749v-0.76729zm0 4.6038c1.0093-0.0108 1.5036-1.0399 1.5227-1.9182 0.01918-0.87834-0.54995-1.9182-1.5227-1.9182v-0.76729c1.5334 4e-3 3.4391 0.91863 3.4386 2.6962s-1.899 2.6741-3.4386 2.6749v-0.76729zm0 0v0.76729c-0.74867-3e-3 -1.4534-0.23398-2.1101-0.58418-0.11136-0.0679-0.23827-0.12848-0.282-0.13469-0.16465-0.0234-0.29346 0.0829-0.29346 0.24219v0.093h-0.38365v-2.3019h0.37776c0.11199 1.3127 1.5199 1.9182 2.6914 1.9182zm0-8.4402c-1.0945-1e-3 -1.7585 0.36421-2.4671 1.163-0.13023 0.22256-0.13118 0.23342-0.02881 0.33179 0.13792 0.13253 0.18234 0.23568 0.18234 0.42343 0.0012 0.3342-0.24424 0.54673-0.56382 0.56383-0.49372-0.0136-0.60703-0.40571-0.55561-0.8284 0.47029-1.7439 1.7117-2.4185 3.433-2.421zm-0.22912 4.6042c-0.28627 0.0155-0.49464 0.0778-0.54701 0.38318h-0.3748v-1.5346h0.37803c0.03856 0.28748 0.20364 0.40226 0.4973 0.38001l0.2756 7e-3v0.7639zm15.046 3.9673c0.10048 0.16575 0.19876 0.25238 0.3909 0.25238h0.12336v0.38401l-2.3103-0.011-2.7153-4.5634 1.1507-1.6057zm0.13062-0.13127c-0.0063 0.20821 0.16288 0.38444 0.38364 0.38365h-2.3019v-4.6038h1.9182zm0-8.4402v4.2201h-1.9182v-4.6038h2.3019c-0.22077-7.9e-4 -0.38996 0.17544-0.38364 0.38364zm0.38364-0.39248c-0.22093 4e-3 -0.38747 0.18845-0.38364 0.39248h-1.9182c-0.0065-0.215-0.17666-0.37859-0.38365-0.38364v-0.38365h2.6855zm-7.9259 0.26121c-0.10048-0.16575-0.19876-0.25237-0.3909-0.25237h-0.12337v-0.38401l2.3103 0.011 2.7153 4.5634-1.1507 1.6058zm-0.13062 0.13127c0.0063-0.2082-0.16288-0.38443-0.38365-0.38364h2.3019v4.6038h-1.9182zm0 8.4402v-4.2201h1.9182v4.6038h-2.3019c0.22077 7.9e-4 0.38996-0.17544 0.38365-0.38365zm-0.38365 0.39249c0.22093-4e-3 0.38747-0.18846 0.38365-0.39249h1.9182c0.0065 0.21501 0.17666 0.37859 0.38365 0.38365v0.38364h-2.6855zm14.182-3.8133v2.6536h-1.5346v-2.8015c0-0.58825-0.4331-1.4276-1.1509-1.4186v-0.38365c1.348 7e-3 2.6784 0.3993 2.6855 1.9502zm0 3.395c6.27e-4 0.24001 0.16854 0.35591 0.38365 0.41829v0.3748h-1.9182v-0.25366c-0.3537 0.204-0.75229 0.24021-1.1509 0.25994v-0.38228c0.65121-0.0731 1.0628-0.52709 1.1586-1.1586h1.5269zm-1.5346-1.8924h-0.64559c-0.8559 0-1.5925 0.22218-1.655 1.1585 5e-3 0.4926 0.32917 0.96969 0.88239 1.1109 0.0874 0.0258 0.17694 0.0324 0.26727 0.0324v0.38364c-0.14657 3e-3 -0.29273-9e-3 -0.43856-0.0227-0.82172-0.11588-2.2101-0.45786-2.2363-1.5103 0.03848-1.0703 1.4039-1.3704 2.2363-1.5134 0.12805-0.0125 0.53808-0.0227 0.91116-0.0227h0.67834zm-2.6641-1.937c-0.12889 0.0488-0.36154-0.024-0.46122-0.13373-0.17278-0.19014-0.17166-0.51257 0.01675-0.67136 0.54788-0.46177 1.243-0.69708 1.9576-0.71706v0.38994c-0.45251 5.6e-4 -0.89113 0.12539-1.2961 0.32378 0.21089 0.31077 0.16343 0.66424-0.21705 0.80843zm4.9662 0.0187h1.5346v3.0692h-1.5346zm0-0.74149c-6.27e-4 -0.24-0.16854-0.3559-0.38365-0.41828v-0.37481h1.9182v0.25366c0.3537-0.20399 0.75229-0.2402 1.1509-0.25993v0.38227c-0.65121 0.0731-1.0628 0.52709-1.1586 1.1586h-1.5269zm4.1987 0.72277c-0.38048-0.14419-0.42795-0.49766-0.21705-0.80843-0.40495-0.19839-0.84357-0.32322-1.2961-0.32378v-0.38994c0.71464 0.02 1.4097 0.25529 1.9576 0.71706 0.1884 0.15879 0.18953 0.48122 0.01675 0.67136-0.09968 0.1097-0.33233 0.18257-0.46122 0.13373zm-2.3041 3.2611c1.0112 0.48821 1.5896 1.3818 1.6009 2.5123 0.01132 1.1305-0.66604 2.1425-1.7292 2.5613-0.32133 0.12657-0.65865 0.12822-1.0134 0.1242v-0.38364c0.95-2e-3 1.0943-1.4077 1.0903-2.3019-4e-3 -0.8942-0.18116-2.2152-1.3926-2.2591-0.18898-7e-3 -0.2331-7e-3 -0.30581-0.0478-0.16027-0.0926-0.14468-0.21134-0.14468-0.37855h1.5346c0.06221 0.11195 0.24947 0.11985 0.35996 0.17319zm-1.1272 4.8201v0.38405c-0.52178-0.041-1.0291-0.17138-1.4392-0.51677-0.2648-0.22116-0.26247-0.21966-0.3196-0.20532-0.12524 0.063-0.14778 0.20491-0.16425 0.33216h-0.3788v-1.9182h0.37705c0.13494 1.1256 0.75154 1.8406 1.9248 1.9241zm4.7857-8.0624h1.5346v3.0692h-1.5346zm0-0.74149c-6.27e-4 -0.24-0.16854-0.3559-0.38365-0.41828v-0.37481h1.9182v0.25366c0.3537-0.20399 0.75229-0.2402 1.1509-0.25993v0.38227c-0.65121 0.0731-1.0628 0.52709-1.1586 1.1586h-1.5269zm4.1987 0.72277c-0.38048-0.14419-0.42795-0.49766-0.21705-0.80843-0.40495-0.19839-0.84357-0.32322-1.2961-0.32378v-0.38994c0.71464 0.02 1.4097 0.25529 1.9576 0.71706 0.1884 0.15879 0.18953 0.48122 0.01675 0.67136-0.09968 0.1097-0.33233 0.18257-0.46122 0.13373zm-2.3041 3.2611c1.0112 0.48821 1.5896 1.3818 1.6009 2.5123 0.01132 1.1305-0.66604 2.1425-1.7292 2.5613-0.32133 0.12657-0.65865 0.12822-1.0134 0.1242v-0.38364c0.95-2e-3 1.0943-1.4077 1.0903-2.3019-4e-3 -0.8942-0.18116-2.2152-1.3926-2.2591-0.18898-7e-3 -0.2331-7e-3 -0.30581-0.0478-0.16027-0.0926-0.14468-0.21134-0.14468-0.37855h1.5346c0.06221 0.11195 0.24947 0.11985 0.35996 0.17319zm-1.1272 4.8201v0.38405c-0.52178-0.041-1.0291-0.17138-1.4392-0.51677-0.2648-0.22116-0.26247-0.21966-0.3196-0.20532-0.12524 0.063-0.14778 0.20491-0.16425 0.33216h-0.37881v-1.9182h0.37705c0.13494 1.1256 0.75154 1.8406 1.9248 1.9241zm9.5665-4.9933h-1.5346v-3.0692h1.5346zm0 0.74149c6.27e-4 0.24001 0.16854 0.35591 0.38365 0.41829v0.3748h-1.9182v-0.25366c-0.3537 0.204-0.75229 0.24021-1.1509 0.25994v-0.38228c0.65121-0.0731 1.0628-0.52709 1.1586-1.1586h1.5269zm-5.3624-2.2547c0.0168-1.4996 1.0463-3.0769 2.6769-3.0906v0.37356c-0.79221-7e-3 -1.1382 1.8295-1.1403 2.6956-0.0021 0.86607 0.33593 2.6865 1.1403 2.6956v0.37355c-1.5771 0-2.6937-1.5481-2.6769-3.0478zm5.3624-2.2975v0.74149h-1.5269c-0.09578-0.63149-0.50737-1.0854-1.1586-1.1586v-0.38227c0.39865 0.0197 0.79724 0.0559 1.1509 0.25993v-0.25366h1.9182v0.37481c-0.21511 0.0624-0.38302 0.17828-0.38365 0.41828zm1.5346 0.74149h1.5346v3.0692h-1.5346zm0-1.1509h-0.38365v-0.38365h2.6855v0.38365h-0.76729v1.151h-1.5346zm0-1.9182h1.5346v1.5346h-1.5346zm1.5346 0h-1.5346c6.4e-5 -0.26848-0.2139-0.7556-0.60281-0.76307-0.23266 9e-3 -0.2993 0.22038-0.43636 0.35811l-0.32491-0.27254c0.19856-0.53091 0.78911-0.83869 1.3143-0.85791 0.95946-0.0351 1.5815 0.73749 1.5843 1.5354zm-1.5346 9.2075v-3.0692h1.5346v3.0692zm0 0h1.5346c-6.4e-5 0.26848 0.2139 0.7556 0.60281 0.76306 0.23266-9e-3 0.2993-0.22038 0.43636-0.3581l0.32491 0.27254c-0.19856 0.53091-0.78911 0.83868-1.3143 0.85791-0.95946 0.0351-1.5815-0.7375-1.5843-1.5354zm5.1927-3.0692h-1.5346v-3.0692h1.5346zm-1.5346 1.1509v-1.1509h1.5346v1.1509h0.76729v0.38364h-2.6855v-0.38364zm0 1.9182v-1.5346h1.5346v1.5346zm-0.38365 1.1598c0.15005-0.029 0.27094-0.0925 0.34323-0.23096 0.03815-0.0731 0.03955-0.14426 0.03995-0.50788l4.68e-4 -0.42094h1.5346l4.68e-4 0.42094c4.04e-4 0.36362 0.0071 0.43225 0.03995 0.50788 0.06405 0.1473 0.20182 0.19314 0.34323 0.23096v0.3748h-2.3019zm1.9095-10.379c2.75e-4 0.40502-0.31627 0.77167-0.75857 0.76954-0.44016-2e-3 -0.76134-0.3389-0.76072-0.75784 6.17e-4 -0.41682 0.33051-0.75722 0.75623-0.75617 0.4236 1e-3 0.76278 0.33944 0.76306 0.74447zm-1.911 2.3096 1.9197-0.76183v1.5336h-1.5346c8.91e-4 -0.19675-0.17632-0.38168-0.38512-0.39288zm3.7579 1.5391 0.0024-1.524 1.9158 3.8045 2.3029-4.5845 0.38266 0.77097v1.533l-1.9183 3.8364h-0.7672zm-0.80888-1.5926c-0.1052-0.20707-0.22847-0.30445-0.46315-0.32572h-0.07073v-0.38365h1.7264v0.38365h-0.16149c-0.15007 0-0.16522 5e-3 -0.22379 0.0623-0.11117 0.10859-0.04693 0.23612 5e-3 0.33576l-0.0023 1.5217zm5.029-0.0487h-0.29839c0.02478-0.29695-0.24643-0.27707-0.4689-0.27707v-0.38365h2.4937v0.37773c-0.19215 8e-3 -0.36192 0.0396-0.46932 0.20941l-0.87432 1.7147h-0.38277zm3.5237 5.4532c-0.52906-0.0553-1.072-0.2387-1.4744-0.49823-0.4246-0.26776-0.75257-0.69189-0.75257-1.2037-0.01545-0.51566 0.3444-0.93995 0.75974-1.2086 0.16604-0.10741 0.49168-0.26578 0.62952-0.30616 0.03188-9e-3 0.06039-0.0277 0.09058-0.0416-0.11635-0.0666-0.24235-0.12347-0.35933-0.19332-0.404-0.25285-0.73619-0.63694-0.73619-1.1276-0.02376-0.80491 0.85923-1.2459 1.5324-1.4463 0.20223-0.0466 0.51392-0.0878 0.66605-0.0881l0.09058-1.8e-4v0.38365h-0.07012c-0.60353 0.0303-1.0808 0.55567-1.0808 1.1509-0.0081 0.59843 0.48339 1.1163 1.0808 1.1509h0.07012v0.37421l-0.15128 0.0238c-0.46268 0.064-0.78867 0.44458-0.92973 0.86969-0.08803 0.28713-0.09514 0.63066 0 0.91738 0.0725 0.28746 0.2495 0.51431 0.4706 0.69371 0.17116 0.13889 0.39213 0.16773 0.61042 0.19979v0.37421l-0.13321-3e-3c-0.07327-2e-3 -0.21422-0.0113-0.31322-0.0216zm0.44644-5.7361v-0.38406c0.52178 0.041 1.0291 0.17139 1.4392 0.51677 0.2648 0.22116 0.26247 0.21966 0.3196 0.20532 0.12524-0.063 0.14778-0.2049 0.16425-0.33215h0.37881v1.9182h-0.37705c-0.13494-1.1256-0.75154-1.8406-1.9248-1.9241zm1.5131 4.2447c0.12889-0.0489 0.36154 0.024 0.46122 0.13372 0.17278 0.19014 0.17166 0.51257-0.01675 0.67136-0.54788 0.46178-1.243 0.69708-1.9576 0.71707v-0.38994c0.45251-5.6e-4 0.89113-0.1254 1.2961-0.32379-0.21089-0.31076-0.16343-0.66424 0.21705-0.80842zm11.531-7.1488c-0.0035-0.27717-0.25384-0.54381-0.57547-0.54282h-2.4937v-0.76729h3.4528v1.5346h-0.38365zm-3.0692 7.8974h2.4937c0.31107-1e-3 0.57024-0.28556 0.57547-0.57547v-0.19182h0.38365v1.5346h-3.4528zm0.22912-3.836-0.22912-4.7e-4v-0.7639l0.2756-7e-3c0.29366 0.0223 0.45874-0.0925 0.4973-0.38001h0.37803v1.5346h-0.3748c-0.05237-0.30539-0.26074-0.36772-0.54701-0.38318zm-4.0656-4.6042h1.9182v8.4402h-1.9182zm-0.38365-0.39248v-0.37481h4.2201v0.76729h-3.8365c-8.46e-4 -0.25799-0.12046-0.38958-0.38365-0.39248zm0 9.2214c0.20952-2e-3 0.36684-0.1881 0.38365-0.38871h3.8365v0.76729h-4.2201zm3.991-4.2247c-0.28627 0.0155-0.49464 0.0778-0.54701 0.38318h-0.3748v-1.5346h0.37803c0.03856 0.28748 0.20364 0.40226 0.4973 0.38001l0.2756 7e-3v0.7639zm6.1487-4.7e-4h1.5346v3.0692h-1.5346zm0-0.74149c-6.27e-4 -0.24-0.16854-0.3559-0.38365-0.41828v-0.37481h1.9182v0.25366c0.3537-0.20399 0.75229-0.2402 1.1509-0.25993v0.38227c-0.65121 0.0731-1.0628 0.52709-1.1586 1.1586h-1.5269zm3.8199 1.5043c-0.0013-0.73065-0.29444-1.9162-1.1344-1.9195v-0.38351c1.4553 2e-3 2.6739 0.54018 2.6739 1.9559l0.01344 2.6536h-1.5335zm0.01658 2.3064h1.5346c-6.4e-5 0.26848 0.2139 0.7556 0.60281 0.76306 0.23266-9e-3 0.2993-0.22037 0.43636-0.3581l0.32491 0.27254c-0.19856 0.53091-0.78911 0.83869-1.3143 0.85791-0.95946 0.0351-1.5815-0.73749-1.5843-1.5354zm-4.1964 0.17319c0.11049-0.0533 0.29775-0.0612 0.35996-0.17319h1.5346c0 0.16721 0.01559 0.286-0.14468 0.37855-0.07271 0.0409-0.11683 0.041-0.30581 0.0478-1.2115 0.044-1.3886 1.3649-1.3926 2.2591-4e-3 0.89421 0.14031 2.3002 1.0903 2.3019v0.38364c-0.35479 4e-3 -0.6921 2e-3 -1.0134-0.1242-1.0632-0.41878-1.7405-1.4308-1.7292-2.5613 0.01132-1.1305 0.58973-2.0241 1.6009-2.5123zm2.6404 3.682c0.12889-0.0489 0.36154 0.024 0.46122 0.13372 0.17278 0.19014 0.17166 0.51257-0.01675 0.67136-0.54788 0.46177-1.243 0.69708-1.9576 0.71707v-0.38994c0.45251-5.6e-4 0.89113-0.1254 1.2961-0.32379-0.21089-0.31077-0.16343-0.66424 0.21705-0.80842zm9.9431-3.8552h-1.5346v-3.0691h1.5346zm0 1.5346h-1.5346v-0.25366c-0.3537 0.204-0.75229 0.24021-1.1509 0.25994v-0.38228c0.65102-0.073 1.0628-0.52729 1.1586-1.1586h1.5269zm-3.132-6.1139c0.099-0.0103 0.23996-0.0201 0.31322-0.0216l0.13322-3e-3v0.37421c-0.21829 0.0321-0.43926 0.0609-0.61042 0.19979-0.22109 0.17941-0.3981 0.40626-0.4706 0.69371-0.09513 0.28672-0.08803 0.63026 0 0.91739 0.14106 0.42511 0.46705 0.80564 0.92973 0.86968l0.15129 0.0238v0.37421h-0.0701c-0.59743 0.0347-1.0889 0.55252-1.0808 1.1509 0 0.59527 0.4773 1.1206 1.0808 1.1509h0.0701v0.38364l-0.0906-1.7e-4c-0.15213-2.9e-4 -0.46382-0.0415-0.66605-0.0881-0.67322-0.20047-1.5562-0.64142-1.5324-1.4463 0-0.49071 0.33218-0.87479 0.73619-1.1276 0.11697-0.0698 0.24298-0.12669 0.35933-0.19332-0.03019-0.0139-0.0587-0.0322-0.09058-0.0416-0.13784-0.0404-0.46347-0.19874-0.62952-0.30616-0.41534-0.26868-0.77519-0.69298-0.75974-1.2086 0-0.51182 0.32798-0.93595 0.75257-1.2037 0.40244-0.25952 0.94533-0.44298 1.4744-0.49823zm3.132 7.6485h-1.5346v-1.5346h1.5346zm-2.6855 2.3019v-0.38364c0.87242 1e-3 1.1501-1.1598 1.1509-1.9182h1.5346c-5e-3 1.3614-1.3731 2.2982-2.6855 2.3019zm0-0.37776v0.38405c-0.52179-0.041-1.0292-0.17138-1.4392-0.51677-0.2648-0.22116-0.26247-0.21966-0.3196-0.20532-0.12524 0.063-0.14778 0.20491-0.16425 0.33216h-0.3788v-1.9182h0.37705c0.13494 1.1256 0.75154 1.8406 1.9248 1.9241zm2.6855-8.8039v0.74149h-1.5269c-0.0958-0.63149-0.50738-1.0854-1.1586-1.1586v-0.38227c0.39864 0.0197 0.79723 0.0559 1.1509 0.25993v-0.25366h1.9182v0.37481c-0.21511 0.0624-0.38302 0.17828-0.38364 0.41828zm2.5833 3.8107h-1.5346v-3.0691h1.5346zm0 3.0692h-1.5346v-3.0692h1.5346zm0.38512 0.77175-1.9197 0.76183v-1.5336h1.5346c-8.9e-4 0.19675 0.17632 0.38169 0.38512 0.39288zm-1.911-9.9914c2.8e-4 -0.40503 0.33946-0.74343 0.76306-0.74447 0.42573-1e-3 0.75561 0.33935 0.75623 0.75617 6.2e-4 0.41894-0.32056 0.75572-0.76072 0.75784-0.44229 2e-3 -0.75884-0.36452-0.75857-0.76954zm-0.39385 2.3096 1.9197-0.76183v1.5336h-1.5346c8.9e-4 -0.19675-0.17632-0.38168-0.38513-0.39288zm3.0706 0.77174h1.5346v3.0692h-1.5346zm0-0.74149c-6.3e-4 -0.24-0.16854-0.3559-0.38365-0.41828v-0.37481h1.9182v0.25366c0.3537-0.20399 0.75229-0.2402 1.1509-0.25993v0.38227c-0.65121 0.0731-1.0628 0.52709-1.1586 1.1586h-1.5269zm3.8199 1.5043c-1e-3 -0.73065-0.29444-1.9162-1.1344-1.9195v-0.38351c1.4553 2e-3 2.6739 0.54018 2.6739 1.9559l0.0134 2.6536h-1.5335zm-0.36854 3.0781v-0.37887c0.20881-0.0112 0.38602-0.19613 0.38513-0.39288h1.5346v1.5336zm-1.9168 0.37919h0.38365v0.38364h-2.6855v-0.38364h0.76729v-1.1509h1.5346zm0 1.1508-1.5346 0.76752v-1.5347h1.5346zm4.5977-3.8578c-0.0168-1.4996 1.0998-3.0478 2.6769-3.0478v0.37356c-0.80435 9e-3 -1.1423 1.8295-1.1403 2.6956 2e-3 0.86607 0.34807 2.7027 1.1403 2.6956v0.37355c-1.6306-0.0137-2.6601-1.5909-2.6769-3.0906zm1.526-0.36224h2.2933c-0.0806-0.7864-0.23183-2.096-1.1424-2.312v-0.37356c1.7115 0.0236 2.5851 1.5174 2.6916 3.0692h-3.8426zm1.1509 3.075c1.1733-0.0835 1.7899-0.79847 1.9248-1.9241h0.37705v1.9182h-0.3788c-0.0165-0.12725-0.039-0.26914-0.16425-0.33216-0.0571-0.0143-0.0548-0.0158-0.31961 0.20532-0.41007 0.34539-0.91743 0.47581-1.4392 0.51677z" fill="#ff7f2a" filter="url(#t13nec)"/>
	</g>
	<g transform="translate(0 -252.02)">
		<path d="m9.1281 266.4h1.9182v8.4402h-1.9182zm-3.0692-0.76729h8.0566v1.5346h-0.38365l-4.68e-4 -0.22913c0.02001-0.29591-0.09909-0.50888-0.39205-0.52513h-6.4512c-0.35774-7e-3 -0.43021 0.18358-0.44507 0.52513l-4.68e-4 0.22913h-0.38365zm2.6855 9.6c0.22093-4e-3 0.38747-0.18846 0.38365-0.39249h1.9182c0.0065 0.21501 0.17666 0.37859 0.38365 0.38365v0.38364h-2.6855zm6.3423-8.8327h1.9182v8.4402h-1.9182zm-0.38365-0.38364v-0.38365h2.6855v0.38365c-0.21205 4e-3 -0.38155 0.17074-0.38365 0.38364h-1.9182c-0.0065-0.21944-0.18257-0.38007-0.38365-0.38364zm0 9.2163c0.22093-4e-3 0.38747-0.18846 0.38365-0.39249h1.9182c0.0065 0.21501 0.17666 0.37859 0.38365 0.38365v0.38364h-2.6855zm6.5128-4.9962c1.0093-0.0108 1.5036-1.0399 1.5227-1.9182 0.01918-0.87835-0.54995-1.9182-1.5227-1.9182v-0.76729c1.5334 4e-3 3.4391 0.91863 3.4386 2.6962s-1.899 2.6741-3.4386 2.6749v-0.76729zm0 4.6038c1.0093-0.0108 1.5036-1.0399 1.5227-1.9182 0.01918-0.87834-0.54995-1.9182-1.5227-1.9182v-0.76729c1.5334 4e-3 3.4391 0.91863 3.4386 2.6962s-1.899 2.6741-3.4386 2.6749v-0.76729zm0 0v0.76729c-0.74867-3e-3 -1.4534-0.23398-2.1101-0.58418-0.11136-0.0679-0.23827-0.12848-0.282-0.13469-0.16465-0.0234-0.29346 0.0829-0.29346 0.24219v0.093h-0.38365v-2.3019h0.37776c0.11199 1.3127 1.5199 1.9182 2.6914 1.9182zm0-8.4402c-1.0945-1e-3 -1.7585 0.36421-2.4671 1.163-0.13023 0.22256-0.13118 0.23342-0.02881 0.33179 0.13792 0.13253 0.18234 0.23568 0.18234 0.42343 0.0012 0.3342-0.24424 0.54673-0.56382 0.56383-0.49372-0.0136-0.60703-0.40571-0.55561-0.8284 0.47029-1.7439 1.7117-2.4185 3.433-2.421zm-0.22912 4.6042c-0.28627 0.0155-0.49464 0.0778-0.54701 0.38318h-0.3748v-1.5346h0.37803c0.03856 0.28748 0.20364 0.40226 0.4973 0.38001l0.2756 7e-3v0.7639zm15.046 3.9673c0.10048 0.16575 0.19876 0.25238 0.3909 0.25238h0.12336v0.38401l-2.3103-0.011-2.7153-4.5634 1.1507-1.6057zm0.13062-0.13127c-0.0063 0.20821 0.16288 0.38444 0.38364 0.38365h-2.3019v-4.6038h1.9182zm0-8.4402v4.2201h-1.9182v-4.6038h2.3019c-0.22077-7.9e-4 -0.38996 0.17544-0.38364 0.38364zm0.38364-0.39248c-0.22093 4e-3 -0.38747 0.18845-0.38364 0.39248h-1.9182c-0.0065-0.215-0.17666-0.37859-0.38365-0.38364v-0.38365h2.6855zm-7.9259 0.26121c-0.10048-0.16575-0.19876-0.25237-0.3909-0.25237h-0.12337v-0.38401l2.3103 0.011 2.7153 4.5634-1.1507 1.6058zm-0.13062 0.13127c0.0063-0.2082-0.16288-0.38443-0.38365-0.38364h2.3019v4.6038h-1.9182zm0 8.4402v-4.2201h1.9182v4.6038h-2.3019c0.22077 7.9e-4 0.38996-0.17544 0.38365-0.38365zm-0.38365 0.39249c0.22093-4e-3 0.38747-0.18846 0.38365-0.39249h1.9182c0.0065 0.21501 0.17666 0.37859 0.38365 0.38365v0.38364h-2.6855zm14.182-3.8133v2.6536h-1.5346v-2.8015c0-0.58825-0.4331-1.4276-1.1509-1.4186v-0.38365c1.348 7e-3 2.6784 0.3993 2.6855 1.9502zm0 3.395c6.27e-4 0.24001 0.16854 0.35591 0.38365 0.41829v0.3748h-1.9182v-0.25366c-0.3537 0.204-0.75229 0.24021-1.1509 0.25994v-0.38228c0.65121-0.0731 1.0628-0.52709 1.1586-1.1586h1.5269zm-1.5346-1.8924h-0.64559c-0.8559 0-1.5925 0.22218-1.655 1.1585 5e-3 0.4926 0.32917 0.96969 0.88239 1.1109 0.0874 0.0258 0.17694 0.0324 0.26727 0.0324v0.38364c-0.14657 3e-3 -0.29273-9e-3 -0.43856-0.0227-0.82172-0.11588-2.2101-0.45786-2.2363-1.5103 0.03848-1.0703 1.4039-1.3704 2.2363-1.5134 0.12805-0.0125 0.53808-0.0227 0.91116-0.0227h0.67834zm-2.6641-1.937c-0.12889 0.0488-0.36154-0.024-0.46122-0.13373-0.17278-0.19014-0.17166-0.51257 0.01675-0.67136 0.54788-0.46177 1.243-0.69708 1.9576-0.71706v0.38994c-0.45251 5.6e-4 -0.89113 0.12539-1.2961 0.32378 0.21089 0.31077 0.16343 0.66424-0.21705 0.80843zm4.9662 0.0187h1.5346v3.0692h-1.5346zm0-0.74149c-6.27e-4 -0.24-0.16854-0.3559-0.38365-0.41828v-0.37481h1.9182v0.25366c0.3537-0.20399 0.75229-0.2402 1.1509-0.25993v0.38227c-0.65121 0.0731-1.0628 0.52709-1.1586 1.1586h-1.5269zm4.1987 0.72277c-0.38048-0.14419-0.42795-0.49766-0.21705-0.80843-0.40495-0.19839-0.84357-0.32322-1.2961-0.32378v-0.38994c0.71464 0.02 1.4097 0.25529 1.9576 0.71706 0.1884 0.15879 0.18953 0.48122 0.01675 0.67136-0.09968 0.1097-0.33233 0.18257-0.46122 0.13373zm-2.3041 3.2611c1.0112 0.48821 1.5896 1.3818 1.6009 2.5123 0.01132 1.1305-0.66604 2.1425-1.7292 2.5613-0.32133 0.12657-0.65865 0.12822-1.0134 0.1242v-0.38364c0.95-2e-3 1.0943-1.4077 1.0903-2.3019-4e-3 -0.8942-0.18116-2.2152-1.3926-2.2591-0.18898-7e-3 -0.2331-7e-3 -0.30581-0.0478-0.16027-0.0926-0.14468-0.21134-0.14468-0.37855h1.5346c0.06221 0.11195 0.24947 0.11985 0.35996 0.17319zm-1.1272 4.8201v0.38405c-0.52178-0.041-1.0291-0.17138-1.4392-0.51677-0.2648-0.22116-0.26247-0.21966-0.3196-0.20532-0.12524 0.063-0.14778 0.20491-0.16425 0.33216h-0.3788v-1.9182h0.37705c0.13494 1.1256 0.75154 1.8406 1.9248 1.9241zm4.7857-8.0624h1.5346v3.0692h-1.5346zm0-0.74149c-6.27e-4 -0.24-0.16854-0.3559-0.38365-0.41828v-0.37481h1.9182v0.25366c0.3537-0.20399 0.75229-0.2402 1.1509-0.25993v0.38227c-0.65121 0.0731-1.0628 0.52709-1.1586 1.1586h-1.5269zm4.1987 0.72277c-0.38048-0.14419-0.42795-0.49766-0.21705-0.80843-0.40495-0.19839-0.84357-0.32322-1.2961-0.32378v-0.38994c0.71464 0.02 1.4097 0.25529 1.9576 0.71706 0.1884 0.15879 0.18953 0.48122 0.01675 0.67136-0.09968 0.1097-0.33233 0.18257-0.46122 0.13373zm-2.3041 3.2611c1.0112 0.48821 1.5896 1.3818 1.6009 2.5123 0.01132 1.1305-0.66604 2.1425-1.7292 2.5613-0.32133 0.12657-0.65865 0.12822-1.0134 0.1242v-0.38364c0.95-2e-3 1.0943-1.4077 1.0903-2.3019-4e-3 -0.8942-0.18116-2.2152-1.3926-2.2591-0.18898-7e-3 -0.2331-7e-3 -0.30581-0.0478-0.16027-0.0926-0.14468-0.21134-0.14468-0.37855h1.5346c0.06221 0.11195 0.24947 0.11985 0.35996 0.17319zm-1.1272 4.8201v0.38405c-0.52178-0.041-1.0291-0.17138-1.4392-0.51677-0.2648-0.22116-0.26247-0.21966-0.3196-0.20532-0.12524 0.063-0.14778 0.20491-0.16425 0.33216h-0.37881v-1.9182h0.37705c0.13494 1.1256 0.75154 1.8406 1.9248 1.9241zm9.5665-4.9933h-1.5346v-3.0692h1.5346zm0 0.74149c6.27e-4 0.24001 0.16854 0.35591 0.38365 0.41829v0.3748h-1.9182v-0.25366c-0.3537 0.204-0.75229 0.24021-1.1509 0.25994v-0.38228c0.65121-0.0731 1.0628-0.52709 1.1586-1.1586h1.5269zm-5.3624-2.2547c0.0168-1.4996 1.0463-3.0769 2.6769-3.0906v0.37356c-0.79221-7e-3 -1.1382 1.8295-1.1403 2.6956-0.0021 0.86607 0.33593 2.6865 1.1403 2.6956v0.37355c-1.5771 0-2.6937-1.5481-2.6769-3.0478zm5.3624-2.2975v0.74149h-1.5269c-0.09578-0.63149-0.50737-1.0854-1.1586-1.1586v-0.38227c0.39865 0.0197 0.79724 0.0559 1.1509 0.25993v-0.25366h1.9182v0.37481c-0.21511 0.0624-0.38302 0.17828-0.38365 0.41828zm1.5346 0.74149h1.5346v3.0692h-1.5346zm0-1.1509h-0.38365v-0.38365h2.6855v0.38365h-0.76729v1.151h-1.5346zm0-1.9182h1.5346v1.5346h-1.5346zm1.5346 0h-1.5346c6.4e-5 -0.26848-0.2139-0.7556-0.60281-0.76307-0.23266 9e-3 -0.2993 0.22038-0.43636 0.35811l-0.32491-0.27254c0.19856-0.53091 0.78911-0.83869 1.3143-0.85791 0.95946-0.0351 1.5815 0.73749 1.5843 1.5354zm-1.5346 9.2075v-3.0692h1.5346v3.0692zm0 0h1.5346c-6.4e-5 0.26848 0.2139 0.7556 0.60281 0.76306 0.23266-9e-3 0.2993-0.22038 0.43636-0.3581l0.32491 0.27254c-0.19856 0.53091-0.78911 0.83868-1.3143 0.85791-0.95946 0.0351-1.5815-0.7375-1.5843-1.5354zm5.1927-3.0692h-1.5346v-3.0692h1.5346zm-1.5346 1.1509v-1.1509h1.5346v1.1509h0.76729v0.38364h-2.6855v-0.38364zm0 1.9182v-1.5346h1.5346v1.5346zm-0.38365 1.1598c0.15005-0.029 0.27094-0.0925 0.34323-0.23096 0.03815-0.0731 0.03955-0.14426 0.03995-0.50788l4.68e-4 -0.42094h1.5346l4.68e-4 0.42094c4.04e-4 0.36362 0.0071 0.43225 0.03995 0.50788 0.06405 0.1473 0.20182 0.19314 0.34323 0.23096v0.3748h-2.3019zm1.9095-10.379c2.75e-4 0.40502-0.31627 0.77167-0.75857 0.76954-0.44016-2e-3 -0.76134-0.3389-0.76072-0.75784 6.17e-4 -0.41682 0.33051-0.75722 0.75623-0.75617 0.4236 1e-3 0.76278 0.33944 0.76306 0.74447zm-1.911 2.3096 1.9197-0.76183v1.5336h-1.5346c8.91e-4 -0.19675-0.17632-0.38168-0.38512-0.39288zm3.7579 1.5391 0.0024-1.524 1.9158 3.8045 2.3029-4.5845 0.38266 0.77097v1.533l-1.9183 3.8364h-0.7672zm-0.80888-1.5926c-0.1052-0.20707-0.22847-0.30445-0.46315-0.32572h-0.07073v-0.38365h1.7264v0.38365h-0.16149c-0.15007 0-0.16522 5e-3 -0.22379 0.0623-0.11117 0.10859-0.04693 0.23612 5e-3 0.33576l-0.0023 1.5217zm5.029-0.0487h-0.29839c0.02478-0.29695-0.24643-0.27707-0.4689-0.27707v-0.38365h2.4937v0.37773c-0.19215 8e-3 -0.36192 0.0396-0.46932 0.20941l-0.87432 1.7147h-0.38277zm3.5237 5.4532c-0.52906-0.0553-1.072-0.2387-1.4744-0.49823-0.4246-0.26776-0.75257-0.69189-0.75257-1.2037-0.01545-0.51566 0.3444-0.93995 0.75974-1.2086 0.16604-0.10741 0.49168-0.26578 0.62952-0.30616 0.03188-9e-3 0.06039-0.0277 0.09058-0.0416-0.11635-0.0666-0.24235-0.12347-0.35933-0.19332-0.404-0.25285-0.73619-0.63694-0.73619-1.1276-0.02376-0.80491 0.85923-1.2459 1.5324-1.4463 0.20223-0.0466 0.51392-0.0878 0.66605-0.0881l0.09058-1.8e-4v0.38365h-0.07012c-0.60353 0.0303-1.0808 0.55567-1.0808 1.1509-0.0081 0.59843 0.48339 1.1163 1.0808 1.1509h0.07012v0.37421l-0.15128 0.0238c-0.46268 0.064-0.78867 0.44458-0.92973 0.86969-0.08803 0.28713-0.09514 0.63066 0 0.91738 0.0725 0.28746 0.2495 0.51431 0.4706 0.69371 0.17116 0.13889 0.39213 0.16773 0.61042 0.19979v0.37421l-0.13321-3e-3c-0.07327-2e-3 -0.21422-0.0113-0.31322-0.0216zm0.44644-5.7361v-0.38406c0.52178 0.041 1.0291 0.17139 1.4392 0.51677 0.2648 0.22116 0.26247 0.21966 0.3196 0.20532 0.12524-0.063 0.14778-0.2049 0.16425-0.33215h0.37881v1.9182h-0.37705c-0.13494-1.1256-0.75154-1.8406-1.9248-1.9241zm1.5131 4.2447c0.12889-0.0489 0.36154 0.024 0.46122 0.13372 0.17278 0.19014 0.17166 0.51257-0.01675 0.67136-0.54788 0.46178-1.243 0.69708-1.9576 0.71707v-0.38994c0.45251-5.6e-4 0.89113-0.1254 1.2961-0.32379-0.21089-0.31076-0.16343-0.66424 0.21705-0.80842zm11.531-7.1488c-0.0035-0.27717-0.25384-0.54381-0.57547-0.54282h-2.4937v-0.76729h3.4528v1.5346h-0.38365zm-3.0692 7.8974h2.4937c0.31107-1e-3 0.57024-0.28556 0.57547-0.57547v-0.19182h0.38365v1.5346h-3.4528zm0.22912-3.836-0.22912-4.7e-4v-0.7639l0.2756-7e-3c0.29366 0.0223 0.45874-0.0925 0.4973-0.38001h0.37803v1.5346h-0.3748c-0.05237-0.30539-0.26074-0.36772-0.54701-0.38318zm-4.0656-4.6042h1.9182v8.4402h-1.9182zm-0.38365-0.39248v-0.37481h4.2201v0.76729h-3.8365c-8.46e-4 -0.25799-0.12046-0.38958-0.38365-0.39248zm0 9.2214c0.20952-2e-3 0.36684-0.1881 0.38365-0.38871h3.8365v0.76729h-4.2201zm3.991-4.2247c-0.28627 0.0155-0.49464 0.0778-0.54701 0.38318h-0.3748v-1.5346h0.37803c0.03856 0.28748 0.20364 0.40226 0.4973 0.38001l0.2756 7e-3v0.7639zm6.1487-4.7e-4h1.5346v3.0692h-1.5346zm0-0.74149c-6.27e-4 -0.24-0.16854-0.3559-0.38365-0.41828v-0.37481h1.9182v0.25366c0.3537-0.20399 0.75229-0.2402 1.1509-0.25993v0.38227c-0.65121 0.0731-1.0628 0.52709-1.1586 1.1586h-1.5269zm3.8199 1.5043c-0.0013-0.73065-0.29444-1.9162-1.1344-1.9195v-0.38351c1.4553 2e-3 2.6739 0.54018 2.6739 1.9559l0.01344 2.6536h-1.5335zm0.01658 2.3064h1.5346c-6.4e-5 0.26848 0.2139 0.7556 0.60281 0.76306 0.23266-9e-3 0.2993-0.22037 0.43636-0.3581l0.32491 0.27254c-0.19856 0.53091-0.78911 0.83869-1.3143 0.85791-0.95946 0.0351-1.5815-0.73749-1.5843-1.5354zm-4.1964 0.17319c0.11049-0.0533 0.29775-0.0612 0.35996-0.17319h1.5346c0 0.16721 0.01559 0.286-0.14468 0.37855-0.07271 0.0409-0.11683 0.041-0.30581 0.0478-1.2115 0.044-1.3886 1.3649-1.3926 2.2591-4e-3 0.89421 0.14031 2.3002 1.0903 2.3019v0.38364c-0.35479 4e-3 -0.6921 2e-3 -1.0134-0.1242-1.0632-0.41878-1.7405-1.4308-1.7292-2.5613 0.01132-1.1305 0.58973-2.0241 1.6009-2.5123zm2.6404 3.682c0.12889-0.0489 0.36154 0.024 0.46122 0.13372 0.17278 0.19014 0.17166 0.51257-0.01675 0.67136-0.54788 0.46177-1.243 0.69708-1.9576 0.71707v-0.38994c0.45251-5.6e-4 0.89113-0.1254 1.2961-0.32379-0.21089-0.31077-0.16343-0.66424 0.21705-0.80842zm9.9431-3.8552h-1.5346v-3.0691h1.5346zm0 1.5346h-1.5346v-0.25366c-0.3537 0.204-0.75229 0.24021-1.1509 0.25994v-0.38228c0.65102-0.073 1.0628-0.52729 1.1586-1.1586h1.5269zm-3.132-6.1139c0.099-0.0103 0.23996-0.0201 0.31322-0.0216l0.13322-3e-3v0.37421c-0.21829 0.0321-0.43926 0.0609-0.61042 0.19979-0.22109 0.17941-0.3981 0.40626-0.4706 0.69371-0.09513 0.28672-0.08803 0.63026 0 0.91739 0.14106 0.42511 0.46705 0.80564 0.92973 0.86968l0.15129 0.0238v0.37421h-0.0701c-0.59743 0.0347-1.0889 0.55252-1.0808 1.1509 0 0.59527 0.4773 1.1206 1.0808 1.1509h0.0701v0.38364l-0.0906-1.7e-4c-0.15213-2.9e-4 -0.46382-0.0415-0.66605-0.0881-0.67322-0.20047-1.5562-0.64142-1.5324-1.4463 0-0.49071 0.33218-0.87479 0.73619-1.1276 0.11697-0.0698 0.24298-0.12669 0.35933-0.19332-0.03019-0.0139-0.0587-0.0322-0.09058-0.0416-0.13784-0.0404-0.46347-0.19874-0.62952-0.30616-0.41534-0.26868-0.77519-0.69298-0.75974-1.2086 0-0.51182 0.32798-0.93595 0.75257-1.2037 0.40244-0.25952 0.94533-0.44298 1.4744-0.49823zm3.132 7.6485h-1.5346v-1.5346h1.5346zm-2.6855 2.3019v-0.38364c0.87242 1e-3 1.1501-1.1598 1.1509-1.9182h1.5346c-5e-3 1.3614-1.3731 2.2982-2.6855 2.3019zm0-0.37776v0.38405c-0.52179-0.041-1.0292-0.17138-1.4392-0.51677-0.2648-0.22116-0.26247-0.21966-0.3196-0.20532-0.12524 0.063-0.14778 0.20491-0.16425 0.33216h-0.3788v-1.9182h0.37705c0.13494 1.1256 0.75154 1.8406 1.9248 1.9241zm2.6855-8.8039v0.74149h-1.5269c-0.0958-0.63149-0.50738-1.0854-1.1586-1.1586v-0.38227c0.39864 0.0197 0.79723 0.0559 1.1509 0.25993v-0.25366h1.9182v0.37481c-0.21511 0.0624-0.38302 0.17828-0.38364 0.41828zm2.5833 3.8107h-1.5346v-3.0691h1.5346zm0 3.0692h-1.5346v-3.0692h1.5346zm0.38512 0.77175-1.9197 0.76183v-1.5336h1.5346c-8.9e-4 0.19675 0.17632 0.38169 0.38512 0.39288zm-1.911-9.9914c2.8e-4 -0.40503 0.33946-0.74343 0.76306-0.74447 0.42573-1e-3 0.75561 0.33935 0.75623 0.75617 6.2e-4 0.41894-0.32056 0.75572-0.76072 0.75784-0.44229 2e-3 -0.75884-0.36452-0.75857-0.76954zm-0.39385 2.3096 1.9197-0.76183v1.5336h-1.5346c8.9e-4 -0.19675-0.17632-0.38168-0.38513-0.39288zm3.0706 0.77174h1.5346v3.0692h-1.5346zm0-0.74149c-6.3e-4 -0.24-0.16854-0.3559-0.38365-0.41828v-0.37481h1.9182v0.25366c0.3537-0.20399 0.75229-0.2402 1.1509-0.25993v0.38227c-0.65121 0.0731-1.0628 0.52709-1.1586 1.1586h-1.5269zm3.8199 1.5043c-1e-3 -0.73065-0.29444-1.9162-1.1344-1.9195v-0.38351c1.4553 2e-3 2.6739 0.54018 2.6739 1.9559l0.0134 2.6536h-1.5335zm-0.36854 3.0781v-0.37887c0.20881-0.0112 0.38602-0.19613 0.38513-0.39288h1.5346v1.5336zm-1.9168 0.37919h0.38365v0.38364h-2.6855v-0.38364h0.76729v-1.1509h1.5346zm0 1.1508-1.5346 0.76752v-1.5347h1.5346zm4.5977-3.8578c-0.0168-1.4996 1.0998-3.0478 2.6769-3.0478v0.37356c-0.80435 9e-3 -1.1423 1.8295-1.1403 2.6956 2e-3 0.86607 0.34807 2.7027 1.1403 2.6956v0.37355c-1.6306-0.0137-2.6601-1.5909-2.6769-3.0906zm1.526-0.36224h2.2933c-0.0806-0.7864-0.23183-2.096-1.1424-2.312v-0.37356c1.7115 0.0236 2.5851 1.5174 2.6916 3.0692h-3.8426zm1.1509 3.075c1.1733-0.0835 1.7899-0.79847 1.9248-1.9241h0.37705v1.9182h-0.3788c-0.0165-0.12725-0.039-0.26914-0.16425-0.33216-0.0571-0.0143-0.0548-0.0158-0.31961 0.20532-0.41007 0.34539-0.91743 0.47581-1.4392 0.51677z"/>
	</g>
</svg>
