<?xml version="1.0" standalone="no"?>
<!DOCTYPE svg PUBLIC "-//W3C//DTD SVG 20010904//EN"
 "http://www.w3.org/TR/2001/REC-SVG-20010904/DTD/svg10.dtd">
<svg version="1.0" xmlns="http://www.w3.org/2000/svg"
 width="640.000000pt" height="1280.000000pt" viewBox="0 0 640.000000 1280.000000"
 preserveAspectRatio="xMidYMid meet">
<g transform="translate(0.000000,1280.000000) scale(0.100000,-0.100000)"
fill="#000000" stroke="none">
<path d="M2800 12781 c-67 -21 -112 -44 -130 -65 -7 -9 -43 -37 -80 -61 -38
-25 -102 -81 -143 -124 -66 -71 -81 -95 -142 -228 -37 -81 -74 -163 -82 -182
-13 -31 -15 -32 -33 -16 -17 16 -19 15 -37 -11 -15 -24 -18 -50 -18 -179 0
-82 3 -162 8 -177 9 -34 32 -36 49 -5 11 19 14 5 24 -106 14 -149 25 -183 109
-332 60 -106 94 -181 84 -188 -2 -2 -49 -29 -104 -62 -240 -140 -328 -238
-311 -345 l6 -38 -98 -42 c-149 -66 -231 -108 -298 -156 -81 -57 -201 -187
-230 -249 -61 -130 -145 -342 -168 -422 -24 -83 -29 -91 -90 -150 -71 -67 -96
-107 -96 -150 0 -20 -10 -36 -33 -54 -47 -38 -106 -128 -109 -167 -2 -26 -9
-37 -31 -48 -15 -8 -35 -32 -44 -52 -9 -20 -25 -57 -36 -80 -17 -38 -18 -49
-8 -84 7 -22 23 -51 36 -64 29 -29 95 -47 140 -38 40 7 108 50 130 81 l14 21
105 -32 c58 -18 108 -35 111 -38 8 -7 -11 -216 -26 -304 -12 -69 5 -484 21
-514 7 -13 -3 -29 -46 -71 -81 -79 -81 -81 -36 -131 21 -24 46 -55 55 -70 10
-16 26 -28 38 -28 23 0 209 -157 209 -176 0 -21 51 -74 71 -74 22 0 265 -221
274 -249 3 -10 -6 -55 -20 -99 -14 -44 -36 -127 -49 -184 -14 -57 -36 -141
-50 -188 -13 -47 -32 -123 -42 -170 -9 -47 -21 -91 -27 -99 -6 -7 -15 -41 -19
-75 -10 -82 -42 -226 -56 -252 -6 -11 -16 -61 -22 -110 -7 -49 -20 -123 -30
-164 -35 -140 -60 -264 -60 -297 0 -70 99 -139 245 -170 l74 -16 6 -51 c138
-1261 140 -1293 95 -1446 -30 -104 -38 -277 -16 -391 31 -165 15 -529 -29
-651 -15 -40 -34 -93 -42 -118 -14 -39 -16 -135 -17 -740 -1 -782 8 -665 -90
-1160 l-44 -225 -52 -47 c-52 -46 -89 -104 -181 -282 -31 -60 -39 -85 -33
-105 10 -38 5 -80 -17 -131 -19 -43 -19 -110 0 -110 4 0 81 -8 172 -17 231
-23 508 -24 575 0 66 23 92 49 100 99 l7 41 60 -6 c50 -4 76 0 146 23 47 16
91 37 98 46 9 12 13 56 13 136 0 114 1 121 32 181 l33 62 6 445 c7 503 17 609
74 790 21 66 35 132 35 162 0 36 5 54 17 63 11 8 17 29 18 66 1 30 12 92 24
139 59 226 80 580 46 774 l-15 87 24 32 c40 53 104 190 126 268 33 123 41 241
30 416 -10 154 2 446 20 466 4 4 17 -72 29 -170 189 -1524 322 -2512 427
-3173 113 -710 131 -808 158 -855 33 -55 73 -87 105 -83 33 4 67 54 75 111 10
64 -13 345 -99 1212 -108 1093 -193 2127 -291 3543 -6 79 -4 95 10 111 10 11
20 37 23 59 4 33 11 42 39 56 19 9 39 16 43 16 19 0 198 -530 256 -757 40
-159 43 -177 34 -240 -26 -204 4 -332 131 -561 5 -9 23 -125 40 -258 27 -219
30 -262 28 -495 -3 -293 -6 -273 107 -763 40 -177 78 -346 84 -376 18 -90 50
-365 61 -515 14 -199 13 -632 -1 -641 -14 -8 -6 -185 10 -227 14 -36 55 -53
166 -68 84 -11 149 -9 221 6 30 7 33 4 60 -46 43 -81 66 -86 324 -71 203 12
397 32 518 53 75 13 86 34 53 102 -12 24 -21 57 -21 74 0 18 -12 47 -30 71
-19 26 -30 54 -30 74 0 39 -46 140 -84 185 -14 17 -66 61 -115 97 -101 75
-121 107 -121 189 0 64 -18 121 -58 180 -20 30 -36 77 -55 167 -53 247 -65
427 -48 760 24 452 25 577 7 680 -9 52 -46 184 -82 293 -64 195 -73 236 -59
288 5 20 2 31 -15 47 -20 18 -22 28 -17 74 3 29 14 78 23 108 12 39 18 100 21
210 1 85 6 193 9 240 6 80 4 90 -24 160 -25 61 -31 93 -34 170 -3 75 -10 107
-31 155 l-26 60 -3 505 c-1 278 2 522 6 542 7 33 16 42 68 70 86 45 84 41 54
208 -2 14 -18 75 -34 135 -17 61 -34 133 -38 160 -4 28 -11 61 -16 75 -34 87
-96 312 -91 329 3 11 -4 44 -16 73 -42 108 -95 294 -93 328 2 22 -19 98 -58
209 -40 116 -60 189 -60 220 0 26 -6 55 -13 66 -33 48 -31 52 66 124 51 38
109 76 129 84 19 8 50 33 68 56 42 52 153 143 247 204 43 27 83 62 99 86 25
38 25 42 11 65 -9 13 -42 45 -75 72 l-59 49 1 265 c1 146 -3 302 -8 348 l-8
82 39 0 c24 0 64 12 100 30 33 16 84 34 113 40 30 6 75 20 100 32 51 25 160
126 160 149 0 8 -34 56 -75 106 -50 62 -75 100 -75 118 0 17 -7 28 -22 34 -13
5 -56 43 -96 83 -62 63 -72 79 -67 99 5 22 -8 39 -93 126 -88 90 -98 104 -94
131 3 25 -2 34 -31 56 -33 25 -36 33 -42 94 -9 92 -30 154 -64 186 -17 16 -34
47 -41 74 -9 38 -25 60 -81 114 -123 118 -244 183 -511 277 -81 28 -154 54
-163 57 -19 8 -19 38 0 110 17 66 5 107 -32 112 -16 2 -25 13 -31 35 -6 26
-18 37 -62 59 -30 15 -77 34 -105 44 -27 9 -63 28 -79 41 -16 13 -55 37 -87
54 l-58 29 36 82 c64 149 66 161 72 450 1 45 2 47 28 45 24 -2 30 4 42 39 14
39 13 46 -12 115 -15 41 -27 86 -27 101 0 17 -12 39 -30 58 -16 17 -30 36 -30
42 0 6 -35 74 -77 152 -70 128 -88 151 -183 246 -86 87 -120 114 -190 149 -47
24 -99 54 -115 66 -21 16 -56 26 -114 34 -112 15 -156 13 -221 -8z"/>
</g>
</svg>
