<?xml version="1.0" standalone="no"?>
<!DOCTYPE svg PUBLIC "-//W3C//DTD SVG 20010904//EN"
 "http://www.w3.org/TR/2001/REC-SVG-20010904/DTD/svg10.dtd">
<svg version="1.0" xmlns="http://www.w3.org/2000/svg"
 width="1280.000000pt" height="1278.000000pt" viewBox="0 0 1280.000000 1278.000000"
 preserveAspectRatio="xMidYMid meet">
<g transform="translate(0.000000,1278.000000) scale(0.100000,-0.100000)"
fill="#000000" stroke="none">
<path d="M5970 12769 c-175 -21 -303 -60 -317 -96 -12 -32 195 -604 315 -868
146 -323 146 -348 -7 -574 -92 -137 -131 -212 -131 -252 0 -31 30 -60 92 -87
25 -11 52 -31 59 -44 9 -16 12 -77 11 -218 -1 -107 2 -233 6 -280 l7 -84 123
-19 c144 -21 226 -49 249 -83 32 -49 -11 -89 -137 -129 -30 -9 -96 -39 -146
-66 -60 -32 -113 -52 -155 -59 -82 -13 -447 -27 -1104 -40 -478 -10 -1198 -31
-1490 -45 -66 -3 -273 -12 -460 -20 -733 -33 -1176 -65 -1275 -95 -133 -39
-259 -51 -765 -75 -458 -21 -759 -46 -812 -66 -49 -18 -35 -90 27 -142 44 -38
101 -42 277 -23 85 10 156 16 157 14 2 -2 -2 -45 -9 -96 -17 -130 -8 -170 46
-230 24 -26 80 -93 123 -148 44 -55 95 -111 114 -126 118 -92 470 -39 662 100
19 14 62 51 95 83 33 31 69 60 81 63 15 5 41 -8 94 -45 85 -60 240 -135 355
-172 385 -123 1450 -316 2140 -387 524 -54 679 -107 715 -243 12 -43 33 -226
70 -597 87 -880 127 -1145 224 -1488 l55 -194 -60 -156 c-80 -213 -143 -333
-280 -543 -65 -98 -142 -227 -172 -286 -53 -106 -79 -170 -233 -568 -134 -349
-203 -487 -431 -859 -75 -121 -140 -230 -145 -242 -9 -19 2 -46 67 -166 43
-78 97 -173 121 -211 56 -86 141 -173 178 -183 24 -6 33 -1 65 34 48 53 67 59
85 24 33 -65 66 -319 116 -907 25 -290 35 -534 26 -596 -4 -30 -20 -63 -46
-97 -68 -91 -139 -310 -179 -557 -29 -174 -34 -271 -26 -459 l7 -166 752 2
751 3 18 205 c22 256 19 526 -6 582 -28 62 -25 84 36 283 31 101 53 234 72
444 18 189 44 329 85 453 51 152 106 245 161 273 40 21 197 34 414 35 l181 0
32 -127 c17 -71 59 -233 92 -362 l60 -234 -76 -119 c-98 -155 -155 -273 -204
-423 -106 -329 -137 -688 -78 -920 l23 -90 1034 -3 1033 -2 -6 82 c-3 46 -11
269 -17 496 -10 353 -10 415 2 426 8 7 160 102 339 211 179 109 335 205 347
212 20 14 22 12 38 -44 17 -61 336 -1126 381 -1274 l26 -86 331 -6 c467 -10
1016 -8 1119 3 77 8 91 12 111 36 19 22 34 28 80 32 32 2 60 9 63 14 3 5 -12
39 -34 76 -22 37 -45 85 -53 107 -33 97 9 541 57 601 16 21 19 19 67 -55 41
-64 121 -100 174 -80 24 9 27 13 38 62 10 46 90 125 148 145 38 13 53 24 61
45 14 35 36 41 98 26 78 -18 81 -11 75 191 -3 91 -14 226 -26 300 -34 228 -59
529 -86 1055 -31 597 -37 693 -50 822 -21 188 -39 266 -105 449 -87 241 -110
364 -90 474 17 93 42 135 140 230 175 171 263 388 380 934 66 310 86 346 306
548 85 78 154 146 154 152 0 58 -42 903 -50 1006 -30 385 -42 408 -443 824
l-168 174 32 154 c27 132 30 167 26 253 -9 175 -74 325 -237 555 -326 459
-345 506 -281 689 44 125 61 224 61 356 0 152 -28 294 -77 388 -48 94 -178
244 -295 343 -232 194 -493 331 -776 406 -285 75 -752 33 -997 -89 -72 -36
-189 -126 -270 -208 -109 -110 -162 -215 -186 -366 -19 -121 2 -211 72 -305
41 -56 120 -104 170 -104 93 0 130 -87 97 -232 -7 -29 -42 -112 -80 -185 -124
-244 -139 -373 -42 -373 44 0 71 -78 124 -360 51 -269 48 -265 202 -286 180
-25 228 -48 228 -108 0 -36 -27 -71 -105 -137 -71 -60 -103 -106 -115 -169
-21 -101 -30 -129 -56 -160 -31 -36 -77 -62 -97 -54 -26 10 -56 80 -131 309
-86 260 -140 378 -224 491 -136 183 -276 280 -749 518 -190 95 -285 149 -319
179 l-48 44 0 154 c-1 133 -4 159 -21 194 -17 34 -26 41 -58 46 -73 12 -71 39
6 102 25 20 47 48 51 61 4 17 -8 67 -36 148 -37 108 -42 134 -43 213 0 109 20
150 87 182 174 82 193 94 337 222 165 146 341 371 341 435 0 70 -43 93 -290
155 -162 40 -254 79 -315 132 -45 40 -54 57 -65 126 -23 138 -134 261 -256
284 -60 11 -123 58 -190 141 -71 88 -108 111 -219 138 -49 12 -200 58 -335
102 -490 159 -661 199 -870 203 -80 2 -179 0 -220 -6z"/>
</g>
</svg>
