<?xml version="1.0" standalone="no"?>
<!DOCTYPE svg PUBLIC "-//W3C//DTD SVG 20010904//EN"
 "http://www.w3.org/TR/2001/REC-SVG-20010904/DTD/svg10.dtd">
<svg version="1.0" xmlns="http://www.w3.org/2000/svg"
 width="1280.000000pt" height="640.000000pt" viewBox="0 0 1280.000000 640.000000"
 preserveAspectRatio="xMidYMid meet">
<g transform="translate(0.000000,640.000000) scale(0.100000,-0.100000)"
fill="#000000" stroke="none">
<path d="M9760 5563 c-122 -9 -185 -23 -205 -47 -13 -15 -41 -27 -80 -35 -66
-15 -304 -101 -326 -119 -8 -6 -27 -22 -42 -34 -18 -15 -32 -39 -38 -65 -5
-24 -23 -65 -39 -91 -35 -58 -37 -72 -11 -103 l19 -24 30 28 c29 28 31 28 60
13 19 -10 56 -16 97 -16 251 0 435 -218 435 -515 0 -94 -22 -204 -43 -217 -29
-18 -113 -8 -177 23 -35 16 -69 34 -75 39 -8 6 -9 33 -3 82 21 194 -61 327
-234 379 -90 28 -214 23 -303 -11 -88 -34 -178 -126 -202 -208 -17 -58 -18
-60 -48 -55 -18 2 -38 -2 -50 -10 -16 -13 -18 -20 -10 -53 8 -29 22 -48 58
-74 54 -40 58 -62 33 -160 -8 -30 -12 -58 -9 -63 2 -4 20 -18 40 -30 l35 -22
2 -95 c3 -115 15 -150 51 -150 14 0 55 -7 90 -16 55 -14 65 -20 65 -38 0 -11
9 -34 20 -51 11 -16 20 -38 20 -47 0 -29 78 -37 133 -13 31 13 19 -10 -63
-124 -76 -104 -115 -170 -140 -235 -9 -24 -14 -27 -38 -22 -51 13 -127 75
-225 186 -142 161 -231 211 -349 197 -65 -8 -96 -36 -151 -136 -46 -84 -89
-137 -118 -146 -11 -4 -31 -30 -45 -58 -31 -61 -123 -160 -180 -193 -23 -13
-62 -31 -88 -40 -73 -25 -104 -84 -43 -84 40 0 148 27 162 41 5 5 14 9 20 9 5
0 -14 -22 -42 -49 -55 -50 -70 -91 -34 -91 10 0 51 17 92 37 59 29 100 63 205
165 154 150 153 150 207 36 33 -70 34 -71 150 -126 20 -10 3 68 -28 124 -37
66 -45 117 -22 148 12 17 22 6 105 -117 192 -283 278 -366 420 -402 55 -14 64
-14 98 0 52 22 66 36 146 147 59 83 91 118 111 118 7 0 16 -82 32 -290 8 -107
15 -200 15 -207 0 -6 23 -14 52 -18 62 -9 90 -20 193 -79 75 -43 130 -65 199
-81 l29 -6 -34 -23 c-19 -13 -90 -54 -159 -91 -237 -127 -373 -232 -452 -348
-24 -36 -58 -70 -86 -87 -144 -88 -153 -105 -127 -250 8 -50 15 -94 15 -100 0
-6 -282 -11 -800 -12 -440 -2 -800 0 -800 4 0 3 16 15 35 27 22 13 35 28 35
41 0 17 4 20 21 15 133 -43 209 -55 209 -35 0 18 -63 81 -104 104 -22 13 -94
43 -159 66 -65 24 -121 49 -124 56 -3 8 9 32 27 54 29 36 33 50 39 125 6 82 6
85 -14 79 -33 -10 -55 -35 -86 -95 -37 -73 -79 -109 -128 -109 -57 0 -97 -18
-126 -56 -30 -39 -51 -42 -135 -15 l-55 17 31 16 c21 12 44 42 77 104 26 48
45 90 42 92 -3 3 -18 5 -35 4 -20 0 -54 -18 -101 -53 -61 -45 -78 -53 -132
-58 -43 -5 -79 -16 -118 -39 -58 -33 -118 -42 -149 -22 -18 11 -20 94 -6 266
l9 112 40 38 c22 22 54 68 71 104 28 59 30 74 30 160 -1 97 -23 237 -48 309
-20 55 -21 196 -3 246 8 22 20 87 26 145 6 58 14 117 17 133 8 33 -14 37 -41
7 -22 -25 -40 -26 -30 -2 17 41 24 90 19 130 -7 48 -25 55 -50 17 l-16 -25
-35 30 c-79 70 -200 105 -304 89 -91 -14 -159 -74 -218 -190 -50 -98 -65 -101
-59 -13 7 127 81 241 196 302 70 37 159 62 222 62 39 0 53 6 89 36 23 20 45
34 48 31 3 -3 8 -21 12 -39 6 -28 11 -32 32 -30 39 6 64 37 63 80 -2 51 -21
85 -96 165 -60 66 -67 70 -148 93 -47 14 -125 32 -175 40 -171 30 -465 3 -465
-43 0 -20 43 -33 111 -33 32 0 59 -4 59 -10 0 -5 20 -32 45 -60 86 -96 84
-122 -5 -72 -82 45 -94 43 -88 -13 5 -39 3 -45 -13 -45 -19 0 -39 28 -39 54 0
24 -46 63 -79 68 -35 5 -47 -5 -53 -42 -2 -20 -10 -26 -38 -31 -19 -3 -57 -15
-84 -27 -67 -30 -67 -22 -1 14 52 27 68 44 45 44 -6 0 -25 -7 -41 -16 -28 -14
-32 -14 -43 1 -10 14 -18 15 -59 4 -53 -13 -67 -8 -46 17 13 16 7 17 -91 11
-127 -8 -240 -36 -471 -118 -96 -34 -193 -67 -215 -74 -56 -17 -245 -121 -368
-202 -152 -101 -289 -214 -431 -357 -121 -121 -295 -326 -295 -347 0 -18 19
-9 39 19 19 25 20 25 21 6 0 -32 -35 -70 -98 -107 -47 -27 -64 -45 -96 -102
-25 -42 -40 -82 -40 -102 0 -45 -18 -36 -31 14 -5 22 -15 47 -21 54 -7 8 -14
31 -16 53 -4 38 -4 38 26 32 17 -3 41 -8 52 -11 30 -9 96 53 141 134 45 79
130 194 211 286 223 251 680 575 940 666 31 11 160 52 286 89 125 38 240 77
255 87 18 11 44 16 81 15 72 -2 90 5 90 32 0 39 -74 51 -294 48 -145 -2 -194
-6 -210 -18 -24 -17 -62 -19 -71 -3 -5 7 -12 6 -23 -4 -32 -27 -52 -28 -61 -5
l-8 22 -12 -22 c-14 -26 -39 -29 -56 -6 -10 14 -13 13 -28 -10 -19 -29 -45
-34 -53 -11 -9 24 -37 19 -29 -5 5 -16 2 -20 -14 -20 -13 0 -18 5 -15 13 4 11
-10 10 -63 -4 -37 -10 -80 -18 -95 -18 -21 -1 -28 -6 -28 -20 0 -10 -7 -22
-16 -25 -22 -9 -24 -8 -18 9 8 19 10 20 -82 -14 -451 -163 -887 -412 -1257
-718 -143 -118 -411 -388 -484 -487 -129 -174 -204 -349 -220 -512 l-6 -62 26
5 c38 7 43 -25 13 -84 l-24 -48 -17 40 c-56 129 -9 345 126 580 121 211 390
505 619 675 492 365 1012 629 1470 745 250 63 441 87 695 86 203 0 340 -14
422 -42 61 -21 109 -24 133 -9 20 12 -27 30 -83 30 -23 1 -82 7 -132 15 -127
21 -515 31 -640 16 -222 -26 -525 -101 -762 -190 -620 -231 -1318 -700 -1600
-1076 -36 -47 -76 -89 -97 -100 -31 -17 -36 -24 -31 -43 4 -17 -7 -46 -39
-100 -121 -207 -161 -335 -153 -489 3 -54 8 -108 12 -119 6 -20 3 -22 -82 -29
-151 -12 -338 -43 -458 -75 -118 -32 -226 -40 -275 -22 -32 12 -66 0 -106 -39
-29 -28 -31 -29 -61 -14 -17 8 -86 23 -154 31 -68 9 -142 23 -164 31 -22 8
-48 17 -57 20 -31 9 -121 -93 -167 -190 l-42 -87 -55 0 c-30 0 -71 7 -91 15
-19 8 -37 15 -39 15 -8 0 -3 -42 7 -62 11 -20 106 -68 137 -68 15 -1 15 -2 -2
-12 -12 -7 -73 -9 -175 -7 -153 4 -156 4 -159 -17 l-3 -22 393 -6 c216 -3 773
-8 1238 -11 715 -5 848 -4 864 8 27 20 14 47 -22 47 -16 0 -35 6 -41 14 -6 7
-32 16 -57 19 -30 3 -64 17 -100 42 -42 29 -58 35 -66 27 -18 -18 -28 -15 -38
13 -9 24 -30 35 -30 15 0 -5 -4 -10 -10 -10 -5 0 -10 7 -10 15 0 8 -7 15 -15
15 -9 0 -15 -9 -15 -25 0 -21 9 -29 45 -45 103 -44 17 -42 -195 6 -275 61
-388 68 -575 33 -142 -26 -162 -19 -194 66 -35 92 -45 84 177 139 327 82 398
96 542 102 133 6 137 6 271 -30 74 -20 145 -36 156 -36 11 0 23 -7 27 -15 3
-10 19 -15 46 -15 51 0 51 -14 1 -40 -54 -27 -60 -40 -18 -40 25 0 58 16 125
60 98 65 206 116 270 126 30 5 55 0 103 -19 35 -14 123 -40 194 -58 72 -17
134 -36 140 -40 5 -6 -3 -14 -22 -21 -17 -6 -38 -25 -47 -42 -68 -130 -66
-128 -152 -151 -43 -12 -144 -40 -224 -63 -80 -22 -163 -44 -184 -47 -36 -6
-38 -8 -22 -23 14 -14 47 -18 184 -24 368 -14 854 -5 787 14 -16 5 -90 12
-162 15 -73 3 -133 10 -133 14 0 5 -9 9 -20 9 -11 0 -17 5 -15 13 3 6 -9 19
-26 27 -29 14 -32 20 -33 65 -3 116 133 230 325 271 144 32 402 15 577 -36 34
-10 62 -14 62 -9 0 20 -54 41 -160 63 -119 25 -141 36 -121 60 17 21 8 32 -50
61 -27 14 -49 28 -49 31 0 12 49 -11 160 -72 71 -39 136 -68 169 -74 30 -6 62
-16 70 -24 29 -25 61 -37 153 -57 51 -11 108 -29 128 -39 19 -10 58 -26 86
-35 47 -14 103 -55 76 -55 -6 0 -14 5 -17 10 -10 16 -45 11 -52 -7 -3 -10 -13
-26 -20 -35 -13 -15 -12 -18 16 -33 17 -8 31 -18 31 -20 0 -3 -31 -20 -68 -39
-38 -19 -83 -47 -101 -61 l-31 -27 -341 -8 c-187 -4 -342 -10 -345 -13 -13
-12 295 -19 584 -12 294 7 314 8 279 22 -37 15 -49 39 -23 49 14 5 30 -2 111
-51 22 -14 50 -25 63 -25 35 0 18 16 -33 30 -57 16 -95 45 -95 72 0 15 5 19
20 15 23 -6 26 3 8 22 -11 11 -8 12 15 7 59 -14 99 18 65 52 -10 10 -10 15 2
22 22 14 30 12 38 -9 6 -18 10 -18 41 -5 29 12 32 17 27 41 -6 26 -5 26 8 10
12 -15 12 -26 1 -69 -9 -34 -11 -58 -4 -75 12 -33 -7 -21 -32 21 -15 25 -19
27 -19 11 0 -76 149 -142 264 -116 65 14 100 40 114 81 10 27 9 30 -8 30 -13
0 -25 -12 -34 -34 -11 -27 -22 -35 -59 -45 -58 -14 -115 -14 -158 0 -51 17
-52 24 -6 27 47 3 69 24 65 61 -5 38 -27 37 -43 -3 -17 -41 -35 -47 -35 -13 0
13 13 36 30 52 28 27 31 28 117 22 48 -3 106 -12 128 -20 39 -14 40 -16 37
-56 -2 -31 1 -41 13 -41 22 0 18 -38 -5 -52 -27 -17 -25 -25 7 -33 53 -13 77
50 52 138 -7 26 -16 37 -28 37 -11 0 -21 7 -25 15 -3 8 -14 15 -25 15 -11 0
-46 10 -77 21 -48 18 -62 20 -94 10 -21 -6 -50 -11 -65 -11 -24 0 -26 2 -14
17 8 9 29 22 48 30 24 10 32 19 28 32 -4 17 0 18 35 13 37 -5 42 -2 103 62 36
36 67 66 70 66 15 0 39 -87 61 -216 30 -181 35 -191 91 -200 24 -3 47 -3 51 1
9 9 -27 35 -48 35 -13 0 -22 27 -44 123 -34 153 -72 286 -101 357 -22 53 -30
132 -49 475 -2 34 -11 76 -20 94 -10 18 -15 38 -13 44 2 7 11 -5 20 -25 15
-37 30 -47 41 -29 7 11 -45 110 -57 108 -16 -3 -25 41 -26 128 -1 92 19 186
54 259 l25 51 -29 -33 c-26 -31 -57 -115 -63 -172 -2 -14 -12 -29 -25 -35 -19
-8 -22 -20 -29 -94 -7 -87 -1 -232 11 -263 4 -11 2 -18 -5 -18 -11 0 -25 14
-69 70 -19 24 -20 24 -21 4 0 -30 39 -83 87 -119 l41 -30 4 -155 c2 -85 8
-162 12 -171 5 -13 0 -19 -22 -27 -35 -12 -75 -4 -152 30 -30 13 -121 46 -202
72 -152 49 -381 155 -437 202 -17 14 -39 40 -48 58 -9 17 -18 25 -20 19 -7
-20 -23 -15 -23 7 0 26 -17 26 -25 0 -9 -28 -25 -25 -25 5 0 14 -3 25 -7 26
-123 8 -129 11 -125 59 2 22 9 43 15 47 6 4 8 -3 4 -19 -9 -34 -2 -38 41 -22
26 9 97 13 235 14 176 0 226 6 185 23 -7 3 -3 6 9 6 12 1 29 -9 37 -21 l16
-22 27 20 c16 12 49 56 74 99 60 101 90 131 234 231 66 46 162 122 213 168
125 112 196 150 282 150 36 0 76 -6 89 -13 20 -11 29 -10 74 15 40 21 69 29
128 32 111 6 145 -2 152 -36 3 -15 4 -29 2 -30 -2 -2 -21 8 -42 22 -36 25 -83
35 -83 17 0 -4 11 -23 25 -42 14 -19 34 -47 45 -64 22 -34 27 -87 8 -81 -7 3
-28 7 -46 10 -32 5 -34 3 -53 -38 -11 -25 -24 -79 -29 -122 -9 -71 -8 -80 10
-99 35 -37 51 -94 59 -215 5 -65 11 -122 15 -128 13 -21 -115 -92 -165 -92
-21 0 -49 56 -49 96 0 13 -4 24 -9 24 -19 0 -21 -37 -5 -81 10 -30 19 -106 25
-234 10 -204 23 -336 40 -384 9 -26 14 -29 43 -24 18 3 68 -2 112 -10 82 -17
161 -27 399 -52 77 -8 158 -18 180 -21 36 -5 48 -1 123 50 46 30 99 58 118 62
19 3 44 14 57 24 12 9 43 20 68 24 26 4 78 22 118 41 39 19 71 32 71 29 0 -19
-42 -61 -96 -96 -50 -31 -62 -44 -53 -54 16 -20 121 -51 254 -75 148 -27 236
-57 210 -71 -21 -12 -77 -4 -164 22 -73 23 -161 27 -161 7 0 -7 7 -22 15 -34
14 -20 14 -23 -2 -31 -10 -5 -30 -12 -45 -16 -38 -9 -105 -73 -91 -87 20 -20
100 -22 194 -4 82 15 112 15 268 5 97 -7 210 -10 251 -8 41 3 416 0 832 -6
417 -5 760 -7 763 -4 3 3 -8 27 -24 54 -44 72 -53 132 -14 93 6 -6 2 15 -8 47
-10 31 -19 65 -19 74 0 25 32 54 104 94 51 29 75 50 106 96 71 105 251 242
453 345 70 36 133 65 140 65 18 0 42 -66 77 -213 17 -72 40 -158 50 -190 l19
-57 -37 -24 c-53 -33 -116 -64 -293 -145 -85 -38 -181 -84 -214 -102 l-59 -33
29 -8 c55 -15 125 1 164 38 48 46 244 144 286 144 18 0 43 8 56 18 13 11 40
24 59 31 35 12 35 11 78 -39 43 -49 44 -51 45 -126 2 -86 5 -82 -85 -115 -122
-43 -52 -60 252 -58 96 1 200 4 230 8 53 7 54 7 22 15 -18 4 -56 29 -85 55
-138 127 -196 131 -259 20 -23 -41 -72 -79 -102 -79 -13 0 -7 12 22 48 22 26
55 74 73 107 18 33 45 79 61 102 20 30 28 54 28 86 0 25 16 120 35 211 42 199
46 309 15 447 -24 106 -27 172 -16 334 8 112 7 124 -13 169 -11 27 -21 59 -21
71 0 12 -21 53 -47 91 -58 87 -116 210 -182 387 -52 139 -64 190 -37 155 15
-20 26 -14 26 16 0 19 -7 21 -62 23 l-61 3 7 -127 c5 -91 12 -137 25 -167 25
-52 27 -22 6 61 -16 63 -20 153 -6 153 14 0 47 -93 85 -240 27 -101 51 -164
96 -253 34 -66 63 -137 67 -162 l6 -45 -149 0 -149 0 -109 107 c-93 92 -107
109 -97 125 6 10 11 23 11 28 0 14 -62 40 -94 40 -37 0 -71 56 -107 175 -17
55 -39 123 -50 150 l-19 50 5 -65 c10 -101 70 -418 115 -600 65 -264 56 -240
95 -240 30 0 37 -5 49 -35 17 -39 35 -44 59 -17 30 33 22 101 -22 188 -29 58
-37 82 -29 91 31 38 42 13 102 -217 51 -201 47 -194 104 -187 37 4 52 12 73
37 31 37 43 29 24 -16 -15 -35 -33 -41 -156 -51 l-77 -6 5 26 c7 37 -46 90
-137 136 l-75 38 -13 79 c-21 133 -50 276 -123 605 -38 175 -69 324 -69 333 0
27 15 18 33 -19 20 -41 28 -43 68 -13 26 20 30 27 24 56 -6 33 -6 34 24 27 27
-6 31 -4 31 14 0 32 -38 51 -105 51 -90 0 -94 7 -50 79 30 48 38 71 37 106 0
47 -7 65 -24 65 -7 0 -8 -17 -4 -50 7 -49 5 -52 -35 -101 -24 -27 -58 -59 -78
-71 -19 -12 -29 -24 -22 -26 6 -2 18 2 27 8 8 7 18 9 22 5 4 -4 0 -10 -8 -13
-8 -3 -35 -25 -61 -49 -49 -46 -94 -65 -129 -56 -17 5 -19 11 -13 46 5 32 2
43 -12 53 -19 14 -12 19 69 48 15 5 17 9 8 18 -9 9 -25 8 -65 -6 -73 -25 -111
-19 -115 17 -4 31 -12 33 -53 11 -17 -8 -37 -13 -44 -10 -24 9 -36 80 -29 165
l7 80 41 -21 c23 -11 58 -39 78 -61 37 -40 39 -40 77 -29 21 7 48 12 60 12 16
0 21 6 21 28 0 55 -36 71 -188 81 l-97 6 0 43 c0 37 -2 40 -13 25 -7 -10 -12
-30 -9 -45 4 -29 -7 -35 -32 -19 -9 6 -12 17 -8 32 4 13 4 65 0 115 l-6 92
-39 6 c-33 5 -42 12 -54 41 -17 42 -18 49 -1 42 6 -3 29 -12 49 -21 l37 -16
12 43 c18 70 70 156 121 202 54 49 138 85 196 85 38 0 212 -54 267 -83 39 -20
81 -65 94 -100 13 -32 13 -156 2 -237 -8 -53 -7 -56 25 -86 39 -37 100 -54
186 -53 108 2 120 8 142 64 17 41 20 74 21 185 0 142 -15 211 -66 313 -27 52
-18 57 20 10 41 -50 67 -121 86 -237 13 -86 13 -102 0 -161 -9 -37 -13 -76
-10 -87 5 -13 1 -24 -12 -33 -10 -7 -15 -16 -12 -19 3 -3 43 -13 90 -21 89
-17 127 -27 197 -52 36 -14 42 -20 42 -45 0 -16 11 -50 24 -76 39 -78 59 -160
65 -277 l6 -110 25 2 c22 3 28 -4 49 -60 13 -34 38 -93 57 -132 18 -38 54
-144 80 -235 26 -91 58 -190 72 -220 24 -54 25 -59 22 -280 -1 -129 -6 -230
-12 -237 -6 -8 -6 -19 2 -33 13 -24 6 -40 -18 -41 -13 0 -12 -3 6 -11 12 -6
22 -15 22 -19 0 -9 -21 -24 -35 -24 -5 0 -11 -11 -13 -25 -3 -29 -60 -343 -69
-380 -4 -20 -3 -22 7 -13 7 6 16 26 20 45 6 23 8 -1 8 -75 l-1 -109 42 -42
c24 -24 60 -56 81 -72 29 -22 38 -34 34 -50 -4 -17 9 -30 73 -71 85 -56 126
-93 102 -93 -19 0 -69 31 -162 102 -43 33 -81 58 -84 55 -33 -33 232 -217 312
-217 28 0 15 22 -63 103 -86 90 -117 131 -108 145 3 5 24 12 46 16 23 3 43 13
47 22 4 11 13 13 35 9 28 -6 29 -5 23 15 -5 17 -4 21 6 14 7 -4 49 -8 94 -8
77 -1 84 -3 215 -66 116 -56 144 -65 201 -68 58 -4 70 -1 89 18 19 19 26 20
48 11 15 -6 36 -25 47 -41 24 -35 31 -37 40 -9 9 29 -30 69 -67 69 -35 0 -35
10 -3 40 53 49 121 21 168 -70 43 -85 38 -135 -23 -242 -43 -73 -55 -105 -75
-203 -13 -65 -31 -128 -40 -141 -22 -33 -83 -76 -149 -105 -31 -13 -56 -29
-56 -35 0 -10 -69 -28 -76 -21 -2 2 1 57 6 122 5 66 10 138 10 160 l1 40 24
-46 c40 -77 77 -109 124 -109 54 0 52 14 -4 36 -25 9 -50 25 -56 36 -12 22 -1
23 23 1 24 -21 34 -10 20 22 -6 14 -8 25 -4 25 4 0 15 12 25 26 17 23 18 27 3
43 -21 23 -20 31 3 31 31 0 70 47 108 130 37 82 59 105 29 30 -19 -48 -19 -50
-6 -50 20 0 50 84 49 140 0 52 -1 54 -15 35 -9 -11 -33 -58 -55 -104 -38 -82
-83 -151 -97 -151 -4 0 -40 27 -81 59 -69 55 -142 89 -171 79 -8 -2 -11 -57
-11 -193 1 -190 1 -190 26 -212 28 -25 28 -26 -7 -146 -13 -44 -18 -80 -14
-102 7 -35 7 -35 61 -35 l55 0 0 33 c0 36 15 57 41 57 10 0 33 16 51 35 18 19
62 54 98 77 81 54 105 89 125 186 9 42 21 98 27 124 5 26 30 79 55 118 53 83
67 138 53 212 -17 86 -78 155 -161 178 -30 9 -40 6 -91 -26 -32 -19 -73 -38
-92 -41 -23 -4 -36 -12 -40 -26 -4 -17 -10 -19 -48 -13 -24 4 -115 35 -203 70
-88 35 -168 66 -178 70 -15 5 -16 9 -6 28 21 40 61 88 90 109 l29 20 9 -24
c13 -34 58 -67 90 -66 66 2 172 68 195 122 7 19 28 44 45 56 24 17 36 39 56
104 30 93 55 206 55 244 0 14 -22 64 -50 112 -27 47 -60 118 -74 157 -29 88
-48 123 -76 149 -38 34 -59 89 -85 220 -14 70 -25 129 -25 131 0 2 -23 4 -51
4 -45 0 -61 6 -126 50 -41 28 -80 50 -86 50 -7 0 -34 36 -61 80 -27 44 -65 97
-85 119 -24 26 -44 63 -59 108 -12 38 -35 90 -52 116 -16 26 -30 53 -30 59 0
6 11 26 25 44 14 18 25 40 25 48 0 9 5 16 10 16 6 0 10 -8 10 -19 0 -17 5 -18
47 -10 39 8 50 6 67 -10 12 -10 38 -24 59 -31 28 -9 47 -25 76 -68 45 -68 53
-94 39 -133 -9 -25 -15 -29 -49 -29 -32 0 -39 -4 -39 -19 0 -36 38 -51 126
-51 82 0 82 0 134 43 120 97 173 116 221 78 40 -31 53 -93 45 -219 -8 -109
-14 -123 -51 -121 -46 3 -50 0 -32 -18 27 -27 91 -21 177 17 89 40 160 48 212
26 20 -9 67 -47 104 -85 36 -38 79 -75 95 -82 20 -8 29 -18 27 -30 -2 -10 6
-24 16 -32 13 -9 17 -20 13 -32 -6 -14 -15 -16 -52 -11 -41 7 -45 5 -45 -13 0
-11 12 -29 28 -41 23 -19 35 -22 92 -17 36 3 80 9 97 13 32 6 33 6 64 -59 60
-129 86 -354 58 -513 -9 -49 -17 -68 -45 -95 -19 -18 -34 -39 -34 -46 0 -18
-35 -16 -50 2 -7 8 -18 15 -25 15 -15 0 -38 -52 -33 -77 4 -24 87 -52 154 -53
86 0 156 66 225 214 54 116 61 179 54 481 -7 296 -11 316 -74 474 -23 57 -41
111 -39 120 4 19 81 -170 103 -254 9 -33 19 -91 22 -128 4 -43 12 -75 22 -85
15 -14 16 -11 19 39 4 59 -9 141 -39 263 -10 44 -17 81 -15 83 2 3 14 -22 26
-54 24 -64 54 -211 65 -316 7 -69 23 -106 76 -170 34 -42 54 -174 54 -362 0
-176 -14 -235 -66 -286 -31 -30 -39 -46 -39 -74 0 -34 -1 -35 -39 -35 -53 0
-59 -15 -19 -40 27 -17 44 -20 94 -17 97 7 114 20 144 107 14 41 36 90 49 108
14 21 26 56 31 95 5 34 18 118 30 187 26 144 24 258 -9 470 -10 69 -22 156
-26 195 -18 173 -215 630 -422 977 -243 407 -592 732 -1048 975 -395 211 -840
342 -1260 373 -137 10 -164 10 -255 3z m490 -74 c322 -46 611 -143 972 -325
317 -161 430 -238 615 -417 353 -342 645 -797 793 -1237 35 -105 82 -282 75
-288 -4 -4 -15 32 -36 117 -6 24 -21 53 -34 65 -14 13 -44 77 -74 158 -232
621 -573 1079 -1031 1381 -87 57 -109 68 -133 63 -24 -5 -27 -4 -18 8 9 11
-11 27 -106 84 -223 132 -419 220 -595 265 -31 8 -58 12 -60 8 -2 -4 -79 10
-173 31 -276 62 -433 81 -617 76 -87 -3 -160 -6 -162 -9 -2 -2 -7 -16 -11 -31
-6 -23 -3 -28 19 -34 20 -5 25 -11 21 -24 -4 -12 3 -24 22 -38 23 -16 52 -20
163 -25 206 -10 404 -57 640 -154 91 -38 126 -59 75 -47 -31 7 -94 28 -255 87
-190 70 -483 117 -538 88 -25 -13 -30 -41 -8 -41 8 0 24 -14 36 -30 13 -19 52
-45 103 -69 84 -40 170 -111 117 -96 -14 4 -37 15 -53 26 -81 58 -102 69 -133
69 -18 0 -36 5 -39 10 -3 6 -17 10 -30 10 -13 0 -30 7 -39 15 -10 10 -24 13
-41 9 -23 -6 -25 -3 -26 27 -1 24 -3 27 -6 12 -8 -41 -33 -19 -33 29 0 12 -5
17 -12 14 -7 -3 -21 -9 -30 -12 -13 -5 -18 -17 -18 -48 0 -43 -13 -66 -38 -66
-12 0 -13 10 -8 46 5 39 -2 72 -20 93 -2 2 -13 -9 -26 -23 -25 -29 -98 -53
-98 -32 0 16 33 51 69 72 35 21 56 56 47 79 -5 15 -9 14 -27 -9 -19 -24 -100
-86 -113 -86 -3 0 -6 6 -6 14 0 7 -12 21 -26 30 -23 16 -29 16 -74 1 -58 -19
-74 -36 -66 -70 5 -21 3 -25 -17 -25 -35 0 -46 -17 -36 -53 11 -40 11 -47 0
-47 -5 0 -14 15 -21 33 l-12 32 -16 -24 c-61 -89 -76 -80 -26 17 19 39 33 76
29 82 -3 5 6 15 20 20 15 6 34 19 44 29 18 20 220 104 291 120 25 6 59 11 75
11 17 0 49 10 70 22 75 41 385 45 645 7z m-230 -57 c17 -6 -26 -11 -140 -14
-91 -3 -167 -4 -169 -2 -2 2 11 11 30 19 27 12 58 15 144 11 61 -3 122 -9 135
-14z m-650 -196 c0 -15 -18 -31 -26 -23 -7 7 7 37 17 37 5 0 9 -6 9 -14z m258
-20 c3 -20 0 -27 -10 -24 -7 3 -14 17 -16 32 -3 20 0 27 10 24 7 -3 14 -17 16
-32z m-163 -46 c8 -13 -5 -13 -25 0 -13 8 -13 10 2 10 9 0 20 -4 23 -10z m289
-102 c101 -60 196 -159 239 -249 20 -41 39 -91 42 -112 4 -20 16 -48 26 -61
13 -16 19 -40 19 -73 0 -27 4 -53 9 -58 11 -13 -4 -207 -19 -234 -13 -26 -22
-26 -49 -3 -21 17 -21 19 -6 87 55 258 -62 538 -285 681 -33 22 -60 45 -60 52
0 18 8 16 84 -30z m-90 -19 c27 -16 46 -32 43 -35 -9 -9 -88 29 -98 47 -14 27
0 24 55 -12z m1171 -37 c80 -43 165 -108 361 -274 239 -203 377 -370 535 -648
121 -211 212 -460 243 -665 l6 -40 -19 22 c-12 14 -22 47 -26 85 -20 170 -158
495 -303 713 -196 295 -497 583 -849 812 -46 30 -83 56 -83 58 0 5 63 -24 135
-63z m-419 -185 c146 -133 351 -437 424 -628 27 -73 17 -73 -19 0 -17 33 -39
65 -49 70 -10 5 -51 74 -90 153 -79 160 -183 306 -246 347 -22 14 -67 54 -101
87 -35 37 -75 66 -96 73 -19 6 -53 30 -75 52 -37 39 -34 37 79 -32 65 -39 143
-94 173 -122z m-436 -253 c0 -14 -4 -23 -10 -19 -5 3 -10 15 -10 26 0 10 5 19
10 19 6 0 10 -12 10 -26z m925 -242 c15 -29 24 -58 22 -65 -4 -11 -67 111 -67
130 0 14 19 -13 45 -65z m-1037 22 c-10 -10 -28 6 -28 24 0 15 1 15 17 -1 9
-9 14 -19 11 -23z m-930 -186 c18 -15 15 -36 -9 -49 -17 -9 -23 -7 -36 11 -10
14 -21 19 -34 15 -14 -5 -19 -2 -19 13 0 11 6 23 13 25 16 7 69 -3 85 -15z
m1490 -292 c53 -57 76 -95 146 -240 64 -133 96 -187 140 -236 95 -106 91 -124
-46 -242 -59 -52 -66 -62 -73 -105 -4 -26 -13 -60 -21 -74 -15 -30 -60 -69
-78 -69 -7 0 -19 38 -28 88 -22 114 -152 500 -212 627 -72 152 -95 218 -117
342 -21 118 -41 186 -62 212 -30 38 295 -243 351 -303z m-4475 279 c21 -9 78
-23 125 -32 108 -20 136 -33 167 -84 14 -22 36 -44 48 -48 30 -12 73 -91 63
-117 -8 -21 -5 -23 -69 55 -11 14 -24 20 -34 17 -12 -5 -14 -1 -9 19 4 14 3
25 -2 25 -16 0 -32 -25 -32 -50 0 -14 -7 -35 -16 -46 -14 -17 -15 -12 -9 68 7
87 7 88 -19 99 -20 10 -29 9 -43 -2 -15 -12 -16 -12 -10 4 5 15 3 17 -12 12
-12 -4 -21 0 -25 11 -5 12 -14 15 -36 10 -22 -4 -30 -2 -30 9 0 18 -16 20 -26
3 -5 -8 -11 -6 -20 7 -11 15 -16 16 -29 5 -12 -10 -15 -10 -15 0 0 9 -16 11
-60 8 -37 -3 -61 0 -63 6 -2 7 -10 6 -21 -3 -15 -13 -19 -13 -27 0 -6 10 -11
11 -16 3 -6 -8 -31 -9 -78 -5 l-70 7 75 16 c41 10 89 19 105 22 51 7 148 -2
188 -19z m4891 -90 c5 -24 2 -21 -14 14 -11 24 -22 55 -25 70 -4 19 0 15 14
-14 11 -22 22 -53 25 -70z m136 96 c0 -5 3 -18 6 -28 5 -16 4 -16 -10 1 -18
23 -20 36 -6 36 6 0 10 -4 10 -9z m36 -108 c16 -38 84 -278 84 -296 0 -6 -2
-8 -4 -6 -6 6 -104 339 -100 339 2 0 11 -17 20 -37z m-4989 -9 c50 -14 80 -34
50 -34 -18 0 -179 48 -186 56 -8 9 74 -4 136 -22z m4847 -94 c4 -20 3 -30 -2
-25 -5 6 -12 26 -16 45 -4 20 -3 30 2 25 5 -6 12 -26 16 -45z m-4999 -21 c0
-7 -8 -15 -17 -17 -18 -3 -25 18 -11 32 10 10 28 1 28 -15z m5064 -44 c7 -27
14 -58 17 -67 3 -10 1 -18 -5 -18 -11 0 -25 47 -35 114 -7 53 8 33 23 -29z
m-5209 36 c0 -11 -49 -21 -55 -11 -2 4 -2 10 2 14 10 9 53 7 53 -3z m-242 -21
l33 -20 -56 -63 c-64 -71 -128 -190 -145 -272 -6 -30 -10 -91 -8 -134 l3 -80
-29 -5 c-45 -9 -53 -7 -59 14 -8 30 -27 24 -27 -8 0 -23 -9 -32 -59 -60 -64
-35 -80 -40 -62 -18 7 8 23 69 36 136 14 66 29 129 35 138 12 18 12 17 -11
-103 -8 -43 -8 -68 0 -87 13 -34 41 -37 42 -5 3 95 26 193 64 267 13 25 66
101 118 170 85 111 94 126 79 138 -27 21 8 15 46 -8z m5826 -8 c18 -35 48
-148 36 -136 -9 10 -60 164 -54 164 2 0 10 -13 18 -28z m-106 -25 c18 -59 24
-93 14 -82 -9 10 -42 101 -42 117 0 19 19 -4 28 -35z m-314 -16 c-7 -9 -24 13
-24 32 0 21 1 21 13 -3 8 -14 12 -27 11 -29z m382 -6 c16 -38 19 -75 5 -59 -9
10 -31 94 -24 94 2 0 11 -16 19 -35z m114 -8 c25 -56 73 -234 59 -220 -10 10
-90 263 -82 263 2 0 13 -20 23 -43z m-6220 29 c0 -3 -54 -37 -121 -77 -174
-104 -225 -144 -313 -250 -135 -160 -215 -276 -280 -406 -30 -60 -32 -75 -10
-66 14 5 13 1 -2 -33 -9 -22 -21 -56 -27 -76 -6 -20 -18 -39 -26 -42 -9 -3
-22 -9 -28 -12 -9 -4 -13 3 -13 21 0 20 4 26 15 21 17 -6 45 30 45 59 -1 20
-1 20 -15 1 -21 -28 -19 -20 20 73 136 322 381 596 670 748 86 46 85 45 85 39z
m196 -44 c-16 -15 -25 -20 -21 -12 13 25 38 50 44 45 3 -3 -8 -18 -23 -33z
m741 12 c-3 -3 -24 -10 -48 -15 -23 -5 -75 -25 -116 -44 -142 -65 -244 -196
-273 -349 -11 -60 -14 -66 -37 -66 -22 0 -24 3 -18 33 25 115 117 262 212 337
28 22 53 48 55 57 2 11 25 22 73 34 68 17 164 25 152 13z m5377 -71 c29 -90
50 -192 44 -219 -2 -10 -19 44 -37 121 -19 77 -36 148 -39 158 -2 9 -2 17 1
17 3 0 17 -35 31 -77z m80 -48 c28 -93 46 -176 45 -208 l0 -22 -9 22 c-5 12
-23 80 -40 150 -17 70 -33 137 -36 148 -14 54 18 -18 40 -90z m125 -23 c27
-94 58 -289 42 -262 -7 12 -33 121 -87 370 -10 45 24 -36 45 -108z m-44 -78
c22 -87 32 -154 21 -143 -3 2 -22 72 -44 154 -22 83 -43 159 -46 170 -4 11 5
-3 19 -32 14 -29 37 -96 50 -149z m-671 141 c8 -32 22 -32 39 1 l13 25 11 -46
c9 -39 8 -45 -4 -41 -8 3 -25 -6 -38 -20 -34 -37 -47 -23 -43 47 3 62 12 75
22 34z m-2622 -21 c63 -21 113 -67 206 -187 94 -122 165 -188 220 -206 31 -10
51 -28 86 -76 26 -35 56 -85 68 -112 24 -56 52 -86 76 -81 21 4 29 38 9 38 -8
0 -17 12 -20 28 -3 15 -24 51 -46 81 -23 29 -41 59 -41 67 0 8 -6 14 -12 14
-52 1 -35 90 42 218 30 48 55 89 56 90 1 2 19 -1 38 -8 76 -25 109 -100 128
-291 l12 -115 -35 -45 c-19 -25 -68 -86 -109 -136 -85 -104 -91 -106 -191 -73
-159 54 -240 135 -418 422 -79 126 -91 153 -91 190 0 24 -7 53 -15 64 -13 17
-15 9 -17 -86 -5 -188 -1 -239 25 -292 15 -31 20 -48 12 -48 -23 0 -65 49 -89
103 -26 60 -60 97 -89 97 -11 0 -64 -47 -129 -115 -106 -110 -185 -174 -238
-190 -23 -7 -24 -6 -10 10 8 9 40 37 72 62 53 41 88 85 88 113 0 19 -41 0
-112 -52 -60 -44 -111 -68 -145 -68 -27 0 -11 16 43 44 68 36 154 112 196 175
17 25 52 65 78 88 26 23 62 66 80 95 78 125 97 151 135 174 47 28 75 30 137 8z
m3417 -106 c19 -59 51 -221 51 -257 -1 -42 -23 28 -45 142 -13 67 -26 134 -30
150 -13 51 3 27 24 -35z m-6557 3 c-9 -16 -19 -28 -21 -25 -6 6 21 54 30 54 5
0 0 -13 -9 -29z m6673 -186 c8 -56 15 -121 15 -143 0 -70 -17 -55 -24 21 -3
39 -15 123 -26 186 -11 62 -20 121 -19 130 1 38 40 -99 54 -194z m-486 144
c25 -73 6 -126 -30 -82 -12 15 -12 16 5 10 16 -6 18 -3 14 30 -3 21 -8 46 -12
56 -5 10 -4 17 2 17 6 0 15 -14 21 -31z m-5223 6 c53 -16 129 -73 139 -105 8
-25 22 -25 48 -2 19 16 19 16 12 -7 -12 -39 -9 -109 10 -217 l18 -101 -23 -47
c-16 -34 -26 -44 -33 -37 -18 18 -27 13 -27 -15 0 -14 -4 -23 -10 -19 -5 3
-10 19 -10 35 0 53 -17 40 -22 -16 -3 -31 -11 -59 -18 -64 -7 -4 -47 -13 -88
-19 -41 -6 -86 -14 -99 -17 -23 -6 -24 -5 -12 14 11 17 7 31 -29 103 -45 92
-59 148 -44 174 8 15 13 13 37 -19 30 -39 59 -50 47 -17 -4 11 -22 41 -41 67
l-33 48 -19 -23 c-11 -13 -19 -37 -20 -55 -1 -17 -4 -42 -8 -56 -7 -23 -8 -23
-40 22 -19 26 -40 49 -47 52 -8 3 -14 14 -14 24 0 11 -7 26 -16 33 -22 18 -15
102 12 155 22 42 95 98 148 113 48 14 127 12 182 -4z m6069 -192 c30 -86 47
-154 50 -199 5 -65 3 -59 -38 91 -23 88 -50 179 -60 203 -20 49 -21 60 -7 46
6 -6 31 -69 55 -141z m-8965 122 c-7 -9 -63 -53 -124 -99 -159 -120 -375 -308
-570 -497 -93 -90 -164 -155 -159 -144 18 33 361 364 471 455 102 83 383 300
391 300 2 0 -2 -7 -9 -15z m8798 -87 c39 -118 52 -185 51 -251 -1 -50 -1 -51
-10 -17 -4 19 -22 100 -39 180 -17 80 -33 153 -36 163 -3 9 -3 17 0 17 2 0 18
-42 34 -92z m96 -40 c35 -105 71 -267 55 -251 -6 6 -87 287 -106 368 -11 49
19 -19 51 -117z m-9079 69 c-282 -228 -508 -431 -621 -558 -48 -54 -89 -99
-91 -99 -2 0 4 15 13 33 39 77 385 397 629 582 100 75 145 102 70 42z m2457
-69 c-15 -15 -26 -4 -18 18 5 13 9 15 18 6 9 -9 9 -15 0 -24z m6433 -75 c30
-70 20 -186 -17 -220 -20 -18 -20 -18 -14 14 7 28 5 31 -13 26 -25 -6 -26 -1
-6 38 9 16 19 59 22 94 6 65 15 80 28 48z m-8695 3 c0 -3 -87 -83 -193 -179
-180 -163 -265 -250 -346 -354 -50 -66 -58 -51 -10 18 44 61 317 329 463 452
77 65 86 72 86 63z m8885 -87 c15 -66 20 -117 9 -106 -6 6 -43 171 -43 192 -1
24 20 -28 34 -86z m-7175 52 c0 -12 -20 -25 -27 -18 -7 7 6 27 18 27 5 0 9 -4
9 -9z m-2015 -63 c-76 -64 -183 -165 -372 -352 -136 -134 -172 -175 -167 -190
5 -14 3 -18 -9 -13 -9 3 -27 -3 -41 -14 -14 -11 -26 -16 -26 -11 0 15 482 485
570 555 93 74 123 91 45 25z m7906 12 c34 -16 82 -32 105 -36 37 -5 44 -10 49
-35 4 -16 1 -53 -6 -83 -10 -47 -10 -57 5 -77 23 -33 20 -52 -9 -66 -30 -14
-40 -2 -23 28 11 18 10 23 -6 33 -10 6 -34 21 -53 34 -39 26 -45 24 -45 -12 0
-35 28 -76 52 -76 16 0 20 -7 20 -37 0 -21 3 -55 6 -75 4 -24 3 -38 -4 -38 -6
0 -14 23 -19 52 -11 68 -31 75 -35 11 l-4 -48 -8 43 c-11 53 -26 38 -26 -26 0
-26 -4 -41 -10 -37 -16 10 -13 295 3 295 6 0 21 3 33 6 15 4 23 -1 32 -21 9
-19 18 -25 35 -23 44 6 12 94 -44 124 -52 26 -86 18 -136 -31 -32 -32 -53 -45
-73 -45 -37 0 -60 -24 -60 -61 0 -37 14 -37 49 1 28 32 48 31 29 0 -10 -15 -6
-25 20 -54 18 -20 32 -38 32 -40 0 -7 -77 -54 -100 -61 -20 -6 -18 -2 10 17
29 19 35 30 35 58 l0 35 -52 3 c-59 3 -61 7 -41 71 10 31 20 42 53 55 26 11
31 14 13 11 -16 -3 -28 -2 -28 2 0 5 129 130 137 133 0 0 29 -13 64 -30z
m-5074 -72 c22 -24 43 -54 46 -67 5 -20 4 -22 -7 -10 -7 8 -34 38 -61 67 -57
62 -38 71 22 10z m-2787 -1 c0 -1 -92 -94 -205 -207 -113 -113 -205 -202 -205
-198 0 14 177 199 287 301 108 99 123 112 123 104z m1927 -34 c-18 -20 -77
-57 -77 -49 0 6 80 66 88 66 3 0 -2 -8 -11 -17z m-1788 -100 c-164 -167 -240
-255 -235 -270 4 -9 -3 -13 -19 -13 -14 0 -25 5 -25 10 0 6 4 10 9 10 4 0 25
21 45 48 46 60 307 322 320 322 6 0 -37 -48 -95 -107z m504 -2 c-53 -61 -99
-108 -101 -106 -2 2 2 14 8 27 13 25 170 186 183 187 4 1 -36 -48 -90 -108z
m9087 -106 c11 -118 13 -222 5 -213 -3 3 -12 80 -20 171 -8 91 -17 185 -20
209 l-5 43 15 -50 c8 -27 19 -99 25 -160z m-9610 180 c0 -3 -72 -78 -160 -167
-88 -88 -160 -155 -160 -147 0 11 304 319 316 319 2 0 4 -2 4 -5z m468 -55
c-29 -34 -66 -77 -81 -98 -36 -48 -54 -54 -31 -11 19 37 141 169 157 169 5 0
-15 -27 -45 -60z m162 30 c-12 -16 -27 -33 -33 -37 -7 -5 -28 -27 -46 -51 -36
-47 -55 -50 -26 -5 19 31 105 119 118 121 5 1 -1 -11 -13 -28z m353 0 c-10
-17 -19 -26 -21 -20 -4 10 25 50 35 50 2 0 -4 -14 -14 -30z m-309 -17 c-36
-58 -112 -126 -85 -75 14 26 93 113 98 108 3 -2 -3 -17 -13 -33z m114 -25
c-35 -45 -80 -89 -86 -84 -2 3 19 33 48 66 54 63 82 76 38 18z m-66 -5 c-29
-40 -92 -99 -92 -86 0 12 102 122 109 117 2 -1 -6 -15 -17 -31z m121 7 c-21
-36 -80 -96 -88 -89 -5 5 92 119 101 119 3 0 -3 -14 -13 -30z m495 -2 c-13
-38 -48 -91 -55 -84 -5 5 55 116 62 116 2 0 -1 -15 -7 -32z m61 -35 c-22 -60
-47 -99 -34 -53 11 38 43 110 49 110 3 0 -4 -26 -15 -57z m7364 50 c-7 -2 -19
-2 -25 0 -7 3 -2 5 12 5 14 0 19 -2 13 -5z m-7312 -69 c-12 -26 -21 -54 -21
-62 0 -12 -3 -13 -12 -4 -9 9 -5 26 17 73 34 69 47 64 16 -7z m-1901 -71 c-68
-71 -130 -135 -137 -143 -11 -12 -13 -12 -13 0 0 13 255 270 267 270 4 0 -49
-57 -117 -127z m1341 108 c-17 -31 -100 -117 -101 -103 0 12 96 122 107 122 2
0 -1 -8 -6 -19z m1619 -1 c0 -23 -4 -24 -31 -10 -27 15 -24 30 6 30 18 0 25
-5 25 -20z m-2430 6 c0 -3 -43 -51 -96 -108 -53 -57 -104 -114 -112 -127 -15
-22 -14 -24 3 -37 10 -8 16 -16 13 -20 -9 -8 -78 7 -78 17 0 8 258 279 266
279 2 0 4 -2 4 -4z m804 -75 c-38 -49 -54 -61 -54 -41 0 13 81 102 88 96 2 -3
-13 -27 -34 -55z m693 2 c-23 -23 -29 -12 -15 27 11 33 12 33 21 12 8 -18 7
-27 -6 -39z m1659 42 c3 -8 3 -19 -1 -25 -10 -16 -35 7 -28 26 7 18 22 18 29
-1z m3674 -25 c0 -5 -7 -10 -16 -10 -12 0 -14 -5 -8 -17 5 -10 9 -58 10 -108
0 -113 2 -121 14 -109 5 5 11 43 13 84 3 64 3 59 5 -32 l2 -107 -22 8 c-35 12
-55 66 -67 180 -9 83 -9 106 1 113 18 11 68 10 68 -2z m-3733 -30 c13 -25 18
-146 7 -174 -5 -13 -12 -12 -50 7 -49 24 -56 37 -19 37 32 0 32 18 0 26 -26 6
-64 -15 -127 -71 -39 -34 -37 -65 2 -65 34 0 39 -14 11 -30 -36 -19 -56 -10
-93 45 -21 29 -38 56 -38 59 0 3 11 6 25 6 37 0 31 18 -21 67 -46 42 -47 44
-29 63 18 20 18 20 44 -4 59 -56 134 -53 168 6 18 30 65 58 93 55 8 -1 20 -13
27 -27z m-152 -10 c0 -9 -14 -17 -40 -21 -48 -9 -69 6 -40 27 25 19 80 15 80
-6z m3761 -5 c8 -33 -2 -43 -26 -27 -17 10 -21 8 -33 -15 -9 -15 -17 -22 -21
-15 -6 10 50 79 66 81 4 1 10 -10 14 -24z m630 -21 c-22 -19 -43 -34 -48 -34
-14 0 24 46 52 63 40 25 38 8 -4 -29z m-7122 -33 c-9 -10 -26 18 -18 30 5 9 9
8 14 -7 4 -10 6 -21 4 -23z m2506 -17 c0 -8 -3 -14 -7 -14 -12 0 -43 33 -43
47 0 11 5 10 25 -3 14 -9 25 -23 25 -30z m-1805 -4 c-6 -28 -5 -30 32 -36 48
-7 75 -40 49 -59 -33 -25 -16 -56 39 -70 23 -6 26 -9 11 -13 -29 -6 -107 19
-113 37 -2 9 -15 40 -29 69 -23 49 -23 54 -8 77 22 33 27 31 19 -5z m5770 -65
c9 -20 14 -41 12 -48 -4 -13 -47 50 -47 71 0 24 18 12 35 -23z m596 19 c11
-14 10 -18 -5 -30 -24 -17 -36 -10 -36 22 0 28 21 32 41 8z m319 2 c0 -7 -9
-16 -20 -19 -25 -6 -26 1 -2 19 22 17 22 17 22 0z m-8509 -72 c-19 -21 -31
-46 -31 -63 0 -20 -7 -31 -26 -40 -15 -6 -28 -10 -30 -9 -1 2 23 41 54 87 31
46 58 78 60 72 2 -6 -10 -27 -27 -47z m1639 41 c0 -8 -9 -15 -20 -15 -29 0
-76 -26 -94 -52 -14 -20 -18 -21 -42 -7 l-26 14 28 6 c16 3 54 20 84 37 63 36
70 38 70 17z m586 -27 c-11 -15 -16 -18 -16 -7 0 16 21 42 28 34 2 -2 -3 -14
-12 -27z m-876 12 c20 -6 21 -8 5 -8 -11 0 -33 4 -50 8 -27 7 -27 8 -5 8 14 0
36 -4 50 -8z m2540 1 c0 -10 -30 -24 -37 -17 -3 3 -2 9 2 15 8 13 35 15 35 2z
m4666 -56 c-5 -27 -11 -43 -18 -39 -9 6 -3 68 9 87 11 18 15 -4 9 -48z m-8496
5 c-12 -17 -24 -29 -27 -26 -3 2 5 18 18 35 29 40 38 32 9 -9z m170 20 c0 -11
-7 -20 -15 -20 -13 0 -14 4 -5 20 6 11 13 20 15 20 3 0 5 -9 5 -20z m3348 -13
c-7 -14 -13 -17 -16 -9 -6 19 6 44 18 37 7 -4 6 -14 -2 -28z m-2215 -4 c42 -9
77 -20 77 -24 0 -12 -135 -105 -198 -136 l-54 -26 -82 41 c-64 33 -92 42 -131
42 -48 0 -52 -2 -98 -55 -27 -31 -64 -81 -82 -111 -20 -34 -51 -67 -77 -84
-48 -31 -83 -66 -158 -160 -48 -61 -117 -127 -124 -119 -9 9 57 178 94 243 44
77 155 214 195 240 23 15 28 15 64 -3 34 -18 40 -18 59 -5 17 11 20 21 15 45
-8 43 14 80 46 77 14 -1 48 9 75 21 85 40 225 45 379 14z m7438 -300 c2 -73
-2 -99 -18 -129 -23 -44 -50 -61 -38 -23 4 13 10 128 13 254 l5 230 19 -120
c10 -66 18 -161 19 -212z m-8293 254 c-13 -35 -54 -108 -98 -172 -15 -22 -53
-99 -84 -172 -53 -121 -57 -134 -47 -170 32 -122 32 -123 -2 -144 -57 -34 -96
-42 -196 -37 -76 4 -120 13 -208 43 -62 20 -113 40 -113 44 0 4 8 18 18 31 14
20 17 46 17 135 0 99 3 116 27 168 76 162 308 282 589 305 52 5 97 7 101 5 4
-2 2 -18 -4 -36z m6994 28 c0 -5 -5 -11 -11 -13 -6 -2 -11 4 -11 13 0 9 5 15
11 13 6 -2 11 -8 11 -13z m236 -88 c21 -29 44 -63 52 -76 l12 -24 -28 21 c-54
38 -144 148 -144 174 0 17 69 -43 108 -95z m-3808 6 c-6 -24 -17 -60 -24 -78
-12 -27 -12 -36 -2 -44 7 -6 15 -8 18 -5 3 3 12 -10 19 -28 10 -25 13 -104 14
-316 l0 -283 -43 -11 c-24 -6 -51 -21 -62 -35 -18 -23 -24 -24 -68 -18 l-50 7
-20 71 c-38 127 -45 203 -43 407 4 256 3 268 -4 315 -5 32 -3 44 12 58 19 16
21 15 48 -13 19 -20 39 -30 57 -30 39 0 104 35 125 66 17 26 17 26 25 4 4 -11
3 -42 -2 -67z m-2459 15 c-10 -29 -51 -45 -51 -20 0 10 5 23 12 30 7 7 20 12
30 12 14 0 16 -5 9 -22z m7069 -65 c0 -26 -5 -84 -12 -130 -9 -65 -15 -83 -28
-83 -32 0 -70 -70 -70 -126 0 -21 5 -24 35 -24 30 0 35 -3 35 -24 0 -14 -5
-37 -10 -52 -9 -22 -7 -31 8 -48 29 -33 34 -54 13 -61 -28 -9 -71 -55 -71 -76
0 -12 -13 -24 -37 -34 -20 -8 -59 -35 -87 -59 -28 -23 -61 -48 -74 -55 -28
-15 -41 -8 -125 69 -54 50 -57 54 -57 100 0 123 60 473 86 501 22 25 127 77
170 85 19 3 55 3 80 -1 l46 -7 -5 -36 c-2 -20 -10 -70 -18 -109 -10 -57 -10
-76 -1 -85 9 -9 12 -7 12 13 0 15 8 28 22 34 26 12 41 55 59 168 14 95 29 115
29 40z m-8620 13 c0 -8 -47 -56 -53 -56 -8 0 3 30 16 48 9 11 37 17 37 8z
m1691 -31 c44 -19 89 -35 100 -35 12 0 68 -31 125 -70 146 -98 306 -174 452
-216 72 -20 160 -54 210 -80 81 -43 89 -45 143 -39 63 7 89 -8 44 -25 -82 -31
-160 -8 -500 148 -449 205 -665 313 -665 334 0 10 3 18 6 18 3 0 42 -16 85
-35z m-531 -12 c48 -32 56 -42 56 -68 l0 -31 -41 43 c-29 30 -50 43 -68 43
-28 0 -32 -6 -21 -35 7 -17 74 -55 98 -55 7 0 17 -11 20 -24 3 -13 29 -41 57
-62 35 -26 70 -65 107 -123 30 -47 66 -99 81 -115 l26 -29 -33 22 c-18 13 -72
69 -120 125 -48 56 -126 135 -173 176 -86 73 -98 92 -99 158 0 24 54 12 110
-25z m380 10 c0 -18 13 -40 37 -65 20 -21 34 -40 31 -43 -11 -11 -100 38 -110
61 -15 32 -2 74 22 74 15 0 20 -7 20 -27z m2024 18 c7 -11 -166 -128 -244
-165 -70 -34 -41 -11 80 65 52 32 109 70 125 83 35 30 32 28 39 17z m621 -128
c-9 -32 -29 -68 -45 -84 -37 -37 -62 -38 -27 -1 35 36 66 110 75 175 l7 52 3
-43 c2 -23 -4 -68 -13 -99z m4845 2 c0 -61 -8 -119 -36 -276 -5 -32 -13 -39
-81 -73 -81 -42 -147 -52 -163 -26 -5 8 -10 29 -10 47 0 27 -5 33 -35 43 -45
15 -47 44 -4 59 41 14 41 14 34 -9 -5 -15 5 -32 38 -66 40 -43 47 -46 78 -40
56 10 99 43 120 90 17 40 38 207 39 316 0 26 3 31 10 20 5 -8 10 -46 10 -85z
m903 -21 c-5 -59 -7 -61 -40 -73 -30 -11 -34 -16 -29 -37 5 -19 2 -25 -18 -30
-34 -8 -79 -1 -84 14 -3 10 4 12 29 7 30 -5 36 -2 52 22 9 15 33 50 52 77 19
26 35 58 35 69 0 11 2 18 4 16 3 -2 2 -32 -1 -65z m-2156 -60 c43 -76 19 -67
-27 10 -16 26 -19 37 -9 34 8 -2 24 -22 36 -44z m-6212 -54 c174 -86 274 -95
149 -13 -17 11 -16 11 6 4 14 -5 80 -34 148 -64 119 -53 162 -79 162 -100 0
-6 -13 1 -28 16 -34 33 -44 34 -40 5 2 -12 19 -32 38 -45 19 -12 46 -31 60
-41 49 -37 394 -108 578 -119 100 -5 114 -4 132 12 28 26 35 12 13 -25 -18
-32 -19 -32 -78 -25 -226 25 -548 96 -753 166 -185 64 -461 202 -529 265 l-28
26 35 -6 c19 -3 80 -28 135 -56z m-185 4 c46 -30 51 -44 16 -44 -16 0 -32 11
-45 29 -35 49 -28 53 29 15z m300 6 c8 -5 11 -10 5 -10 -5 0 -17 5 -25 10 -8
5 -10 10 -5 10 6 0 17 -5 25 -10z m-785 -20 c10 -11 14 -20 8 -20 -5 0 -18 9
-28 20 -10 11 -14 20 -8 20 5 0 18 -9 28 -20z m2587 -47 c-17 -61 -23 -265 -9
-279 18 -19 27 25 21 107 -6 72 -3 98 15 158 12 39 23 71 24 71 1 0 2 -51 2
-113 0 -87 4 -120 18 -146 23 -45 22 -51 -10 -78 -27 -22 -27 -23 -9 -38 40
-31 77 16 81 103 2 53 4 56 39 74 21 11 39 18 40 16 2 -2 15 -61 29 -133 25
-120 33 -185 23 -185 -2 0 -72 14 -154 30 -87 17 -182 30 -226 30 -62 0 -75 3
-80 18 -13 46 -26 142 -26 197 0 53 4 65 26 86 26 24 193 137 206 138 3 1 -1
-25 -10 -56z m-2516 -24 c19 -22 19 -22 -3 -10 -13 6 -23 16 -23 21 0 15 5 12
26 -11z m9374 -47 c0 -22 -39 -47 -52 -34 -7 7 -6 20 3 40 11 25 17 29 31 21
10 -5 18 -17 18 -27z m-1483 -39 c-3 -3 -11 -2 -17 2 -9 6 -9 10 1 16 14 8 27
-7 16 -18z m33 -98 c0 -11 -61 -35 -87 -34 l-28 1 30 8 c17 4 41 12 55 18 31
13 30 13 30 7z m-3944 -146 c-25 -37 -89 -79 -120 -79 -22 0 -29 -19 -14 -37
11 -14 10 -15 -7 -10 -11 3 -39 9 -62 12 -46 7 -46 8 -37 43 5 17 14 22 38 22
80 0 130 33 189 125 l32 50 3 -44 c3 -33 -3 -52 -22 -82z m2899 -7 c-4 -20
-21 -66 -40 -102 -32 -62 -33 -64 -40 -37 -9 34 -1 66 37 147 25 54 32 61 40
47 5 -10 7 -35 3 -55z m-9409 42 c18 -5 22 -18 32 -103 12 -101 5 -161 -23
-190 -28 -29 -337 -6 -393 29 -15 10 -14 11 8 7 14 -2 32 -8 41 -11 23 -10 68
38 129 139 75 125 119 152 206 129z m249 -44 c55 -10 116 -21 136 -24 30 -5
38 -12 42 -35 3 -15 21 -55 40 -87 47 -81 54 -104 29 -104 -10 0 -22 3 -26 8
-4 4 -38 7 -74 7 -37 1 -79 5 -94 9 -24 7 -29 5 -37 -17 -15 -38 -102 -46
-184 -15 -21 8 -26 15 -20 27 10 21 9 118 -1 197 l-9 62 49 -5 c27 -2 94 -13
149 -23z m3783 -56 c-10 -10 -28 6 -28 24 0 15 1 15 17 -1 9 -9 14 -19 11 -23z
m1632 6 c0 -5 -17 -13 -37 -19 -44 -11 -123 -21 -123 -15 0 11 52 29 100 35
30 3 56 7 58 8 1 0 2 -3 2 -9z m932 -66 c164 -57 288 -123 203 -109 -126 22
-315 103 -315 136 0 12 -5 13 112 -27z m-69 -49 c23 -13 58 -40 77 -60 l34
-35 -32 0 c-18 0 -32 5 -32 12 0 6 -24 33 -52 59 -59 54 -57 61 5 24z m-5453
-40 c41 -8 123 -25 182 -39 58 -14 132 -29 165 -33 l58 -8 -60 -6 c-83 -9
-377 -10 -648 -2 -244 7 -252 9 -168 53 110 56 283 69 471 35z m5116 -45 c9
-22 26 -46 38 -52 21 -12 21 -12 -4 -19 -38 -11 -178 -10 -185 1 -3 5 20 22
52 37 33 16 62 38 68 51 5 12 11 22 12 22 2 0 10 -18 19 -40z m106 -18 c16
-29 27 -52 23 -52 -17 0 -86 43 -95 59 -18 34 -12 50 16 47 20 -2 34 -16 56
-54z m80 18 c25 0 76 -55 64 -68 -4 -3 -22 -6 -42 -6 -40 0 -69 25 -80 68 -6
26 -5 27 14 17 11 -6 31 -11 44 -11z m-4760 -15 c27 -14 56 -25 64 -25 8 0 14
-4 14 -10 0 -19 -35 -10 -95 25 -69 40 -57 47 17 10z m4921 -3 c32 -28 22 -45
-24 -39 -43 6 -59 19 -59 50 0 16 5 17 33 12 17 -4 40 -14 50 -23z m-6063 -13
c0 -5 -11 -9 -25 -9 -24 0 -32 10 -19 22 8 8 44 -3 44 -13z m9077 -1 c37 -35
29 -43 -37 -40 -55 3 -60 6 -60 26 0 13 3 26 7 29 14 15 68 6 90 -15z m-7288
-17 c19 -12 -40 -24 -94 -19 -39 4 -39 4 -15 15 30 14 90 16 109 4z m8232
-127 c26 -13 30 -19 24 -42 -6 -27 -52 -82 -67 -82 -4 0 -8 32 -8 70 0 76 3
79 51 54z"/>
<path d="M9590 5418 c0 -34 16 -56 30 -42 17 17 8 58 -12 62 -13 3 -18 -3 -18
-20z"/>
<path d="M9550 5390 c0 -19 3 -21 12 -12 9 9 9 15 0 24 -9 9 -12 7 -12 -12z"/>
<path d="M9722 5288 c-15 -15 -16 -45 -2 -53 16 -10 40 15 40 41 0 26 -19 31
-38 12z"/>
<path d="M10752 4309 c2 -7 10 -15 17 -17 8 -3 12 1 9 9 -2 7 -10 15 -17 17
-8 3 -12 -1 -9 -9z"/>
<path d="M7971 3377 c-11 -13 -21 -32 -21 -42 0 -17 1 -17 21 1 27 24 41 51
30 58 -4 3 -18 -5 -30 -17z"/>
<path d="M890 1847 c0 -38 6 -48 26 -40 17 6 18 45 2 61 -20 20 -28 14 -28
-21z"/>
<path d="M940 1779 c-18 -39 -35 -92 -37 -118 l-4 -46 20 24 c19 21 71 168 71
199 0 30 -20 6 -50 -59z"/>
<path d="M1014 1755 c-7 -18 2 -74 15 -94 8 -12 12 -12 25 -2 19 16 19 24 5
74 -10 38 -35 50 -45 22z"/>
<path d="M9188 4625 c-15 -9 -48 -44 -73 -80 -44 -61 -65 -79 -65 -55 0 6 -5
10 -11 10 -6 0 -9 -16 -7 -37 3 -32 7 -38 28 -41 23 -3 28 3 44 47 18 50 51
101 65 101 4 0 -5 -26 -20 -57 -43 -90 -43 -96 -6 -113 25 -12 33 -22 35 -47
3 -35 8 -38 31 -24 29 18 -9 131 -44 131 -8 0 -2 26 18 75 16 41 34 75 39 75
6 0 8 -6 5 -13 -3 -7 1 -51 9 -98 25 -155 18 -199 -36 -217 -24 -9 -30 -17
-30 -41 0 -36 18 -78 35 -85 7 -2 29 -1 49 4 32 7 39 5 56 -17 11 -14 20 -32
20 -39 0 -7 11 -29 24 -48 15 -23 27 -62 35 -113 12 -81 28 -115 61 -133 24
-13 25 -8 6 28 -7 15 -23 69 -36 121 -16 67 -31 103 -51 125 -15 18 -33 54
-40 80 -6 26 -18 50 -25 53 -8 3 -14 20 -14 39 0 21 -5 34 -12 34 -13 0 -14
18 -21 270 -2 82 -15 94 -69 65z"/>
<path d="M8776 4594 c-10 -27 -6 -110 6 -122 15 -15 31 -16 22 -1 -13 21 -21
77 -14 89 6 9 11 6 20 -10 19 -35 81 -100 96 -100 22 0 17 48 -6 55 -10 3 -38
28 -60 56 -45 53 -54 58 -64 33z"/>
<path d="M8990 4493 c0 -20 17 -50 24 -43 2 3 2 17 -1 33 -6 30 -23 37 -23 10z"/>
<path d="M9678 4107 c-43 -44 -105 -157 -85 -157 19 0 51 37 77 90 13 25 31
57 42 73 27 38 6 34 -34 -6z"/>
<path d="M8790 4055 c-11 -13 -9 -15 10 -15 13 0 38 -12 57 -26 30 -23 44 -26
124 -27 49 -1 89 1 89 4 0 19 -37 31 -102 33 -64 1 -104 12 -159 43 -3 2 -12
-3 -19 -12z"/>
<path d="M5194 4039 c-3 -5 4 -9 15 -9 10 0 21 -5 23 -11 3 -9 10 -9 26 0 12
6 22 15 22 19 0 11 -79 11 -86 1z"/>
<path d="M5280 4015 c-11 -13 -9 -15 13 -15 13 0 30 7 37 15 11 13 9 15 -13
15 -13 0 -30 -7 -37 -15z"/>
<path d="M5344 4010 c-30 -12 -39 -30 -16 -30 11 0 30 9 43 20 26 21 12 26
-27 10z"/>
<path d="M9405 3655 c5 -57 16 -85 117 -302 17 -36 44 -61 55 -50 2 2 -31 71
-72 153 -41 82 -82 174 -90 204 l-15 55 5 -60z"/>
<path d="M9760 3334 c0 -10 -6 -14 -15 -10 -8 3 -15 1 -15 -5 0 -5 7 -12 16
-16 19 -7 49 20 40 36 -11 16 -26 13 -26 -5z"/>
<path d="M9613 3296 c6 -18 43 -24 72 -11 30 12 30 12 -23 16 -28 2 -51 0 -49
-5z"/>
<path d="M5136 3174 c-23 -50 -15 -53 13 -4 12 22 18 40 13 40 -4 0 -16 -16
-26 -36z"/>
<path d="M10221 3038 c-18 -36 -31 -76 -30 -97 0 -35 1 -35 11 -11 6 14 20 45
30 70 33 74 38 89 28 95 -4 3 -22 -23 -39 -57z"/>
<path d="M7710 2945 c0 -8 9 -32 20 -52 42 -79 12 -244 -60 -325 l-37 -42 0
48 c-1 30 -8 54 -18 66 -22 24 -31 19 -39 -22 -10 -53 -42 -98 -68 -95 -19 2
-25 -8 -50 -93 -37 -126 -44 -193 -25 -248 8 -24 12 -42 9 -40 -75 38 -79 37
-52 -18 11 -24 25 -91 35 -173 25 -212 58 -250 223 -258 l87 -4 75 61 c108 87
111 95 108 270 -1 126 1 153 20 209 12 35 20 67 16 70 -3 3 -22 -4 -43 -16
l-38 -22 -24 25 c-33 35 -31 105 4 168 15 27 27 50 27 52 0 10 -44 2 -71 -12
-17 -8 -33 -14 -35 -11 -2 2 5 24 15 48 60 135 47 322 -26 396 -36 36 -53 42
-53 18z m96 -272 c-6 -70 -34 -144 -83 -218 -37 -56 -46 -119 -16 -113 9 2 22
21 30 43 15 44 46 81 74 88 23 6 23 8 4 -36 -17 -41 -20 -123 -5 -161 11 -31
45 -66 64 -66 8 0 17 11 20 25 4 14 11 25 17 25 7 0 8 -7 4 -17 -5 -10 -11
-97 -16 -193 -4 -96 -8 -176 -8 -176 -18 -27 -125 -127 -148 -138 -50 -25
-116 -21 -151 9 -17 14 -42 25 -57 25 -35 0 -59 54 -79 176 -8 49 -18 102 -22
118 l-7 28 26 -17 c53 -34 63 18 22 115 -33 78 -32 114 8 220 25 70 37 90 55
95 12 3 22 9 22 13 0 4 10 18 21 32 l21 25 -5 -25 c-2 -14 -8 -33 -12 -42 -6
-15 -2 -18 23 -18 67 0 128 97 160 252 l17 80 13 -43 c8 -27 11 -68 8 -106z"/>
<path d="M7480 2026 c0 -9 7 -16 16 -16 9 0 14 5 12 12 -6 18 -28 21 -28 4z"/>
<path d="M5432 2779 c-29 -73 -35 -104 -28 -134 9 -36 22 -31 51 18 28 49 34
121 12 151 -12 17 -16 14 -35 -35z"/>
<path d="M4828 2690 c-7 -21 9 -75 28 -90 13 -12 14 -10 8 16 -13 54 -30 89
-36 74z"/>
<path d="M4698 2618 c2 -29 9 -57 14 -63 7 -7 9 8 6 43 -3 29 -10 58 -15 63
-7 7 -9 -8 -5 -43z"/>
<path d="M4730 2641 c0 -35 19 -81 33 -81 5 0 7 9 4 20 -3 11 -1 20 4 20 5 0
9 -9 9 -20 0 -11 7 -20 15 -20 19 0 19 13 0 50 -10 19 -20 27 -30 24 -9 -4
-15 0 -15 9 0 9 -4 19 -10 22 -6 4 -10 -6 -10 -24z"/>
<path d="M5413 2585 c-3 -9 -3 -18 0 -21 9 -9 27 6 27 22 0 19 -19 18 -27 -1z"/>
<path d="M5150 2431 c0 -11 5 -23 10 -26 6 -3 10 3 10 14 0 11 -4 23 -10 26
-5 3 -10 -3 -10 -14z"/>
<path d="M4223 1893 c-17 -6 -16 -30 1 -36 19 -7 51 17 42 31 -7 12 -22 14
-43 5z"/>
<path d="M2275 1830 c-9 -28 2 -38 21 -19 13 14 13 17 0 28 -12 10 -16 8 -21
-9z"/>
<path d="M10345 1626 c37 -56 139 -106 217 -106 l52 0 -60 37 c-99 61 -165 93
-196 93 -28 0 -28 -1 -13 -24z"/>
<path d="M8950 1614 c0 -17 26 -47 37 -43 5 2 -1 15 -13 29 -13 13 -24 20 -24
14z"/>
<path d="M6310 1574 c0 -12 35 -33 55 -34 16 0 13 4 -13 20 -35 21 -42 24 -42
14z"/>
<path d="M5780 1545 c0 -13 30 -15 213 -14 116 1 223 4 237 8 31 9 -156 21
-327 21 -103 0 -123 -2 -123 -15z"/>
</g>
</svg>
