<?xml version="1.0" standalone="no"?>
<!DOCTYPE svg PUBLIC "-//W3C//DTD SVG 20010904//EN"
 "http://www.w3.org/TR/2001/REC-SVG-20010904/DTD/svg10.dtd">
<svg version="1.0" xmlns="http://www.w3.org/2000/svg"
 width="1280.000000pt" height="699.000000pt" viewBox="0 0 1280.000000 699.000000"
 preserveAspectRatio="xMidYMid meet">
<g transform="translate(0.000000,699.000000) scale(0.100000,-0.100000)"
fill="#000000" stroke="none">
<path d="M5846 6541 c-13 -14 -16 -28 -12 -46 8 -32 25 -33 19 -1 -4 18 0 26
17 31 58 18 151 -51 203 -149 26 -51 28 -177 3 -227 -9 -18 -16 -39 -16 -48 0
-24 -39 -83 -50 -76 -6 3 -10 -5 -10 -19 0 -28 -54 -96 -76 -96 -8 0 -14 -7
-14 -15 0 -8 -19 -29 -42 -45 -36 -26 -43 -29 -48 -15 -5 13 -9 11 -20 -10
-16 -30 -58 -55 -91 -55 -18 0 -19 2 -9 15 7 9 11 18 8 21 -3 2 -13 -8 -24
-23 -18 -29 -51 -59 -88 -80 -31 -18 -39 -16 -33 10 6 21 6 21 -13 -3 -10 -13
-18 -27 -17 -30 1 -3 -12 -23 -28 -44 l-30 -39 -25 268 c-17 187 -29 270 -37
273 -16 5 -16 -42 1 -302 7 -109 10 -213 6 -230 -4 -17 -7 -33 -7 -36 0 -8
-43 -90 -47 -90 -6 0 -45 172 -48 210 -3 31 -6 35 -30 35 -17 1 -35 11 -47 27
l-21 26 25 6 c39 10 35 63 -8 104 -40 39 -75 41 -116 7 l-30 -26 -40 28 c-22
15 -40 34 -41 41 0 6 -9 12 -20 12 -67 0 -165 93 -230 217 -25 48 -50 89 -57
91 -6 2 -20 -5 -31 -16 -18 -18 -19 -18 -28 2 -10 24 -30 24 -95 1 -42 -15
-56 -15 -175 -1 -173 21 -166 20 -175 43 -4 11 -21 31 -38 46 -90 76 -238 42
-314 -71 -37 -54 -31 -70 13 -37 103 77 162 72 246 -18 34 -36 47 -44 68 -40
14 3 26 10 26 15 0 5 5 6 12 2 7 -4 77 -8 158 -9 96 -2 160 -7 191 -17 28 -9
53 -12 67 -7 18 7 22 5 22 -14 0 -30 7 -38 70 -75 42 -25 71 -56 124 -128 38
-52 75 -94 82 -94 8 0 14 -7 14 -15 0 -19 -5 -19 -35 1 -20 13 -30 14 -53 5
-61 -25 -659 -137 -1161 -217 -419 -66 -590 -98 -795 -148 -169 -41 -274 -61
-298 -59 -30 4 -37 1 -43 -16 -5 -17 -9 -19 -25 -9 -15 10 -25 7 -57 -14 -21
-13 -120 -57 -220 -96 -189 -74 -547 -224 -742 -311 -62 -28 -127 -51 -143
-51 -22 0 -43 -13 -86 -56 -31 -31 -81 -71 -109 -90 -70 -45 -188 -104 -208
-104 -9 0 -18 -7 -21 -15 -5 -11 -10 -13 -19 -5 -9 8 -27 -6 -71 -53 -55 -59
-122 -163 -111 -173 2 -3 32 22 65 55 34 33 84 70 112 83 40 18 50 27 46 42
-3 13 -2 16 6 8 8 -8 35 6 97 47 153 103 290 182 415 237 316 143 948 384
1005 384 40 0 61 9 61 26 0 12 4 12 20 2 16 -10 26 -9 57 9 21 12 155 51 298
87 241 61 296 71 760 136 275 39 628 95 784 126 156 30 285 53 287 52 8 -9
-896 -415 -1516 -681 -377 -163 -836 -368 -1020 -457 -193 -93 -352 -163 -376
-167 -63 -8 -70 -15 -56 -58 l11 -37 -23 21 c-33 31 -47 26 -81 -24 -22 -32
-87 -86 -240 -197 -311 -226 -435 -330 -580 -484 -71 -77 -137 -144 -145 -150
-61 -46 -66 -53 -47 -68 17 -13 16 -14 -3 -19 -11 -3 -20 -13 -20 -24 0 -32
-73 -195 -148 -328 -40 -71 -101 -193 -135 -270 -33 -77 -70 -156 -82 -175
-21 -34 -45 -187 -45 -282 0 -64 24 -45 44 34 10 40 27 98 38 128 11 30 22 72
24 94 11 87 184 433 391 781 76 129 267 334 408 439 178 133 545 382 608 412
58 28 58 29 52 64 -7 34 -6 34 12 17 28 -25 40 -22 93 23 99 83 655 341 1400
650 753 312 876 366 1255 550 150 73 277 128 318 138 37 9 67 19 67 24 0 4 5
8 10 8 22 0 8 -21 -27 -39 -21 -10 -49 -34 -63 -53 -13 -18 -115 -136 -225
-263 -177 -202 -954 -1130 -1106 -1320 -31 -39 -122 -165 -203 -280 -82 -116
-168 -230 -192 -255 -24 -25 -44 -49 -44 -52 0 -4 7 -14 16 -22 14 -15 13 -16
-9 -16 -27 0 -37 -21 -37 -75 0 -17 -31 -136 -69 -265 -79 -267 -152 -621
-176 -855 -10 -95 -23 -165 -35 -191 -10 -23 -15 -45 -11 -50 15 -17 62 -139
81 -209 41 -156 85 -260 137 -331 59 -80 90 -110 100 -100 4 4 -1 22 -11 39
-10 18 -36 66 -58 107 -22 41 -44 80 -48 85 -20 25 -73 178 -91 260 -36 173
-18 391 66 769 60 273 170 632 215 703 35 55 36 61 13 80 -17 13 -17 14 3 8
25 -7 37 7 54 60 14 45 256 403 365 540 162 204 1376 1608 1383 1600 10 -10
-228 -526 -464 -1005 -150 -306 -288 -602 -339 -730 -48 -118 -99 -230 -113
-249 l-25 -34 22 -19 23 -18 -26 0 c-24 0 -26 -3 -26 -48 0 -27 -16 -127 -35
-223 -50 -248 -92 -523 -104 -676 -5 -72 -14 -140 -20 -151 -8 -15 -3 -33 25
-85 19 -36 44 -94 55 -129 12 -34 31 -83 44 -108 12 -25 25 -58 29 -74 8 -33
112 -186 127 -186 15 0 11 14 -38 106 -164 311 -189 402 -173 625 14 198 123
751 170 861 25 59 25 65 -2 74 -22 7 -21 8 7 13 26 5 30 11 33 40 2 19 44 137
92 263 67 171 130 307 253 545 241 466 352 691 467 944 107 237 141 291 175
278 32 -12 42 -10 72 15 l29 24 27 -71 c30 -80 29 -106 -6 -177 -26 -52 -47
-64 -47 -26 0 14 -4 26 -9 26 -4 0 -5 -19 -1 -42 9 -47 -12 -144 -35 -167 -13
-13 -16 -11 -21 17 -4 18 -10 32 -15 32 -11 0 -12 4 6 -54 16 -54 20 -153 6
-175 -7 -11 -13 -8 -26 13 -10 15 -19 25 -22 23 -4 -4 27 -68 38 -77 21 -18
40 -150 22 -150 -4 0 -17 10 -30 22 -44 41 -31 12 18 -40 27 -29 49 -59 49
-67 0 -21 -22 -65 -32 -65 -6 0 -8 -6 -5 -12 2 -7 -3 -31 -11 -53 -25 -66 -13
-175 19 -175 18 0 41 64 39 109 -4 78 -2 83 21 76 32 -10 79 -56 79 -76 0 -13
-9 -19 -37 -21 -35 -3 -38 -6 -45 -43 -4 -22 -10 -53 -14 -70 -3 -19 0 -37 9
-49 14 -19 17 -19 113 22 l99 41 23 -21 c34 -33 28 -48 -18 -48 -67 0 -45 -15
24 -16 78 -2 126 -17 157 -50 20 -21 21 -27 9 -34 -8 -5 -27 -10 -42 -10 -19
0 -28 -5 -28 -16 0 -8 5 -12 10 -9 6 4 38 10 72 15 69 10 131 -7 149 -42 9
-17 5 -21 -30 -35 -23 -9 -41 -20 -41 -26 0 -10 11 -8 75 17 59 22 99 20 132
-8 23 -20 25 -26 15 -39 -7 -8 -24 -18 -37 -21 -14 -4 -25 -13 -25 -22 0 -13
6 -12 38 5 65 34 95 40 130 26 31 -14 31 -14 16 -44 -19 -38 -30 -39 -38 -6
-8 30 -27 32 -51 5 -20 -22 -55 -26 -87 -9 -31 17 -68 2 -82 -33 -18 -41 -6
-73 45 -132 42 -48 46 -56 26 -56 -7 0 -19 -16 -26 -35 -10 -29 -10 -40 5 -70
27 -58 97 -112 162 -127 83 -18 122 -57 126 -126 4 -49 2 -54 -20 -62 -20 -8
-24 -17 -24 -48 0 -77 -137 -340 -190 -365 -23 -11 -26 -19 -32 -97 -7 -86 6
-229 23 -262 6 -10 7 -23 4 -28 -4 -6 7 -24 23 -40 32 -32 62 -105 62 -154 1
-17 11 -44 24 -60 21 -26 28 -28 63 -23 22 4 53 3 69 -2 16 -4 39 -4 52 0 12
5 22 5 22 0 0 -12 118 -29 165 -24 31 4 46 12 60 34 22 31 34 36 53 17 9 -9
12 -8 12 8 0 24 -27 64 -43 64 -14 0 -57 49 -57 65 0 7 7 18 15 25 8 7 13 16
10 20 -3 5 -1 11 5 15 5 3 9 32 7 64 -2 44 1 57 10 54 17 -7 73 -98 124 -201
43 -87 107 -162 137 -162 10 0 22 -4 28 -9 5 -5 32 -12 59 -15 28 -3 70 -8 95
-11 25 -4 64 -2 88 3 38 9 44 8 57 -11 15 -21 15 -21 15 6 0 32 13 35 34 6
l15 -22 6 26 c16 61 -37 99 -132 97 -37 -1 -81 2 -98 6 -80 20 -270 247 -339
406 -9 20 -20 38 -24 40 -4 2 -20 29 -37 60 -30 57 -30 58 -10 77 35 35 152
54 317 53 130 -1 149 1 160 17 7 9 38 25 69 35 68 21 102 54 102 98 0 25 -9
40 -45 72 -58 52 -242 300 -308 416 -32 57 -50 99 -50 121 0 20 -8 42 -22 56
-20 21 -20 23 -3 23 15 0 14 4 -9 25 -14 13 -26 26 -26 28 0 1 16 1 35 -1 25
-3 42 1 55 13 15 13 39 18 105 19 48 0 87 -3 89 -9 3 -5 5 -3 5 5 1 9 18 22
39 30 20 8 40 16 45 18 4 2 8 -25 8 -60 l2 -63 11 73 c9 64 16 78 44 103 18
16 37 29 42 29 11 0 50 -121 50 -154 0 -12 -7 -32 -16 -44 -9 -13 -14 -26 -11
-29 3 -2 13 7 22 21 26 39 30 105 10 171 l-16 58 35 36 c23 23 39 32 45 26 23
-23 73 -169 69 -201 -2 -19 -2 -34 0 -34 2 0 35 26 73 57 71 59 86 84 75 128
-8 32 1 50 18 36 9 -8 18 -6 31 9 17 19 18 19 46 -20 18 -25 34 -37 43 -34 17
6 66 68 66 82 0 5 6 15 14 21 20 17 54 135 61 215 5 44 10 64 15 55 13 -20 24
14 16 49 -18 71 -19 85 -5 80 8 -3 15 -14 17 -26 2 -12 9 -19 16 -16 8 3 17
-27 29 -103 34 -219 40 -287 28 -291 -8 -3 -7 -8 4 -16 14 -10 15 -18 4 -59
-9 -38 -15 -47 -28 -41 -9 3 -25 8 -36 11 -17 4 -16 1 7 -20 22 -20 24 -27 14
-36 -10 -8 -18 -6 -31 9 -28 31 -39 23 -18 -13 11 -18 23 -46 27 -62 4 -17 9
-38 12 -48 5 -16 3 -17 -16 -7 -12 6 -28 9 -35 6 -7 -2 -16 2 -19 10 -3 8 -12
14 -20 14 -8 0 -26 15 -40 33 l-26 32 0 -26 c0 -36 77 -139 104 -139 12 0 34
-7 50 -15 26 -14 30 -13 60 7 17 12 34 26 37 31 4 5 9 4 13 -2 11 -17 30 -13
54 9 13 13 19 26 15 37 -5 13 -3 15 13 9 33 -13 37 -12 53 16 15 26 14 28 -3
41 -19 14 -19 15 1 25 12 7 26 26 32 44 10 29 9 35 -8 49 -20 17 -20 17 8 30
23 12 27 18 20 36 -7 19 -12 21 -38 13 -17 -5 -35 -11 -40 -14 -6 -4 -24 -1
-42 7 l-33 13 -34 204 c-28 161 -35 235 -36 345 -1 127 -3 144 -24 179 -22 37
-22 41 -8 82 8 24 61 109 118 189 l103 146 20 -27 c11 -15 34 -46 50 -68 57
-76 125 -104 169 -71 11 8 16 15 10 15 -5 0 2 9 16 20 l25 20 -30 0 c-16 0
-37 5 -45 10 -12 8 -11 13 8 33 29 31 28 34 -14 29 -26 -3 -35 -1 -30 7 4 6
20 11 36 11 16 0 41 5 55 12 38 17 44 0 10 -29 l-30 -25 46 5 46 4 -20 -20
-21 -21 33 -11 c32 -10 35 -17 101 -202 38 -105 156 -407 263 -670 194 -476
301 -787 316 -918 5 -42 10 -51 29 -53 24 -4 31 -22 8 -22 -25 0 -28 -18 -13
-68 17 -53 42 -305 57 -582 11 -208 1 -401 -25 -490 -27 -89 -88 -207 -175
-338 -45 -68 -78 -127 -75 -130 4 -4 33 21 65 55 42 47 78 102 135 215 43 84
90 171 105 193 22 32 26 45 18 65 -5 14 -6 45 -3 70 12 79 6 498 -10 709 -9
112 -15 226 -13 254 3 47 1 51 -22 58 -14 4 -20 7 -14 8 5 1 18 7 29 14 17 13
17 15 -4 43 -12 17 -55 136 -95 265 -44 141 -144 415 -251 689 -229 586 -323
854 -317 903 2 20 8 37 12 37 14 0 986 -1211 1196 -1491 111 -147 325 -486
350 -554 16 -46 27 -61 44 -63 20 -3 20 -5 6 -21 -15 -17 -14 -22 10 -64 42
-76 130 -441 176 -727 36 -231 40 -274 42 -455 1 -184 -1 -207 -23 -285 -13
-47 -37 -113 -52 -146 -23 -52 -130 -237 -171 -296 -14 -20 -7 -31 15 -23 22
9 147 161 147 180 0 8 14 46 31 83 17 37 44 108 61 157 16 50 38 105 49 123
10 18 19 39 19 47 0 7 6 15 12 17 10 4 9 14 -4 44 -12 27 -19 83 -23 179 -10
224 -68 620 -125 864 -29 126 -50 238 -50 272 0 60 -11 75 -47 62 -14 -5 -14
-1 4 17 l22 24 -41 45 c-22 25 -113 156 -202 291 -172 263 -763 1043 -1172
1547 -317 391 -314 395 56 73 264 -229 430 -362 1000 -805 585 -455 1037 -837
1114 -945 20 -27 39 -50 44 -50 4 0 18 7 30 16 26 18 28 12 5 -22 -16 -25 -16
-26 36 -71 51 -44 341 -369 472 -528 65 -78 241 -377 251 -426 3 -13 35 -134
71 -269 90 -332 108 -449 110 -679 2 -133 5 -185 14 -188 22 -8 67 244 51 286
-5 13 -19 92 -32 175 -13 83 -40 212 -59 286 -39 145 -63 288 -54 320 3 11 1
23 -4 26 -6 4 -6 11 1 19 8 10 3 24 -23 58 -18 24 -69 109 -112 188 -92 167
-178 286 -412 568 -121 144 -175 217 -187 252 -20 53 -32 59 -74 32 l-27 -18
24 38 c13 21 22 40 20 41 -2 2 -26 15 -54 29 -27 14 -165 126 -305 248 -140
122 -523 437 -852 700 -328 263 -721 583 -875 711 -153 129 -304 255 -336 281
-32 26 -56 47 -55 47 2 0 125 -41 273 -90 149 -50 518 -163 820 -251 460 -135
589 -177 790 -257 132 -52 259 -109 283 -125 42 -28 44 -28 64 -10 16 14 20
15 18 3 -5 -31 1 -38 46 -49 82 -21 712 -380 954 -545 112 -76 260 -195 351
-283 55 -53 55 -54 74 -33 10 11 23 20 28 20 6 0 0 -12 -14 -26 -23 -26 -24
-27 -4 -38 38 -22 133 -118 145 -147 12 -28 30 -40 30 -19 0 5 -9 33 -20 63
-29 78 -90 155 -146 183 -65 33 -186 126 -237 181 -23 26 -52 57 -64 70 -13
13 -23 28 -23 32 0 10 -24 21 -45 21 -8 0 -65 33 -127 74 -171 111 -442 277
-643 394 -99 58 -197 120 -218 138 -44 40 -51 41 -71 13 -14 -21 -15 -21 -18
12 -3 32 -6 34 -42 37 -21 2 -149 46 -285 98 -157 61 -432 153 -761 254 -530
164 -1138 364 -1154 381 -13 12 -50 11 -63 -2 -12 -12 -33 -4 -33 11 0 5 8 10
18 12 10 2 47 37 82 78 50 58 80 82 130 107 40 20 69 41 75 55 10 24 11 24
175 23 93 -1 180 -7 199 -13 24 -8 38 -8 47 -1 7 5 14 6 16 1 1 -5 13 -12 24
-16 16 -5 35 5 79 40 46 38 64 46 95 46 44 -1 93 -23 132 -60 36 -34 44 -23
20 25 -43 83 -120 132 -208 133 -56 0 -112 -29 -128 -66 -9 -20 -18 -22 -162
-23 -136 -2 -157 0 -193 18 -51 27 -67 26 -82 -1 l-12 -22 -8 22 c-16 42 -44
26 -100 -59 -73 -112 -161 -179 -234 -179 -16 0 -25 -6 -25 -15 0 -8 -4 -15
-9 -15 -5 0 -15 -2 -23 -5 -10 -4 -13 8 -15 44 -2 75 -39 166 -82 203 -20 18
-35 36 -33 41 1 5 -5 11 -15 13 -10 3 -36 35 -57 72 -22 37 -49 83 -60 102
-52 89 -168 180 -231 180 -11 0 -49 14 -84 31 -72 35 -183 58 -283 59 -69 0
-166 -16 -182 -30 -9 -9 0 -12 81 -30 29 -6 61 -20 73 -30 12 -10 40 -22 63
-25 64 -11 110 -39 163 -99 53 -59 120 -163 111 -172 -8 -8 -138 83 -237 165
-47 39 -86 67 -88 61 -2 -5 13 -37 32 -70 20 -34 36 -63 36 -66 0 -15 -97 65
-155 128 l-67 73 5 -47 c3 -36 1 -48 -11 -53 -12 -5 -10 -11 11 -33 28 -29 33
-48 18 -70 -7 -12 -12 -12 -29 -1 -16 10 -24 11 -33 2 -24 -24 -39 -2 -39 56
0 84 -31 120 -75 87 -18 -13 -17 -14 13 -30 27 -14 32 -22 32 -52 0 -29 -3
-35 -16 -30 -10 4 -22 -1 -30 -11 -12 -16 -15 -17 -40 -3 -16 9 -33 31 -41 55
-7 22 -22 48 -32 58 -17 17 -18 17 -42 -2 -26 -21 -24 -29 11 -36 29 -6 36
-13 44 -46 13 -56 -73 -74 -118 -26 -30 32 -42 34 -56 8 -18 -34 -12 -44 20
-37 29 5 30 4 30 -29 0 -19 -3 -35 -7 -35 -5 0 -17 -7 -27 -15 -17 -13 -17
-17 -5 -31 13 -16 12 -16 -10 -5 -19 11 -25 11 -32 0 -13 -20 -11 -49 4 -54 8
-4 12 -26 11 -68 -1 -34 3 -67 8 -74 5 -7 7 -16 4 -21 -3 -4 1 -27 9 -49 19
-54 28 -223 15 -258 -7 -17 -7 -39 -1 -60 7 -26 6 -35 -5 -39 -15 -6 -19 -57
-6 -70 12 -12 9 -56 -4 -56 -6 0 -32 -18 -57 -40 -25 -22 -49 -40 -55 -40 -5
0 -17 11 -26 25 -17 26 -92 85 -108 85 -5 0 -15 -14 -22 -31 -8 -19 -16 -27
-20 -20 -12 18 -70 13 -127 -12 -30 -13 -116 -41 -193 -63 -130 -36 -140 -41
-170 -77 -17 -22 -118 -120 -223 -219 -156 -145 -210 -189 -285 -232 -51 -29
-112 -57 -136 -63 -42 -11 -42 -11 -42 16 0 26 -16 51 -31 51 -4 0 -11 -21
-15 -47 -6 -40 -9 -44 -19 -30 -7 9 -17 17 -22 17 -27 0 -32 27 -16 78 14 42
14 54 3 66 -19 23 -28 20 -35 -15 -4 -17 -9 -28 -12 -25 -3 3 7 60 23 128 34
150 35 230 5 366 -19 85 -21 111 -13 145 6 23 14 59 17 80 4 26 11 37 23 37
38 0 53 37 27 63 -13 13 -12 17 9 30 13 9 38 17 57 19 30 3 34 6 35 33 1 17
-2 38 -7 47 -6 10 -5 19 1 23 5 3 10 -2 10 -11 0 -13 3 -15 11 -7 6 6 26 9 43
6 22 -3 36 0 45 11 11 13 11 16 0 16 -8 0 -5 6 7 15 10 8 14 15 7 15 -6 0 -10
7 -9 15 3 22 16 31 16 11 0 -9 4 -15 9 -11 5 3 21 0 35 -6 20 -9 29 -9 41 1 8
7 12 16 9 21 -3 5 2 12 11 15 10 4 13 13 10 24 -7 23 14 38 26 19 6 -11 11
-11 21 -1 6 6 21 12 32 12 34 0 46 14 50 54 5 44 14 56 26 36 8 -12 10 -12 15
2 4 10 22 26 40 37 31 18 33 23 28 57 -5 32 -4 36 10 31 10 -4 17 -3 17 2 0 4
11 25 25 46 18 25 24 44 19 58 -8 25 -6 33 6 30 13 -4 33 96 23 110 -14 19
-33 90 -33 127 0 34 -26 73 -95 142 -55 56 -72 65 -130 73 -43 5 -53 3 -69
-14z m1384 -626 c14 -16 10 -18 -14 -9 -9 3 -16 10 -16 15 0 14 16 11 30 -6z
m72 -25 c2 -22 0 -40 -4 -40 -5 0 -9 7 -9 15 -2 23 -4 29 -11 41 -8 11 -1 24
13 24 4 0 9 -18 11 -40z m113 10 c-3 -5 -10 -10 -16 -10 -5 0 -9 5 -9 10 0 6
7 10 16 10 8 0 12 -4 9 -10z m-85 -10 c0 -5 -2 -10 -4 -10 -3 0 -8 5 -11 10
-3 6 -1 10 4 10 6 0 11 -4 11 -10z m125 -50 c15 -13 15 -14 -6 -26 -12 -6 -24
-19 -25 -28 -2 -15 2 -15 32 3 20 12 41 21 49 21 8 0 12 6 9 14 -9 24 14 28
37 5 l22 -22 -29 -24 -29 -25 35 18 c19 10 38 18 42 19 4 0 13 6 20 13 29 29
57 0 29 -32 -15 -18 -15 -18 9 -5 14 7 28 12 33 11 4 -1 7 5 7 13 0 14 4 14
31 0 29 -16 30 -17 12 -31 -17 -14 -17 -14 4 -5 40 20 52 13 59 -29 4 -23 14
-46 23 -53 18 -13 39 -82 33 -109 -2 -10 -10 -18 -18 -18 -8 0 -14 -4 -14 -8
0 -15 45 -68 113 -133 l68 -64 -39 -80 c-21 -44 -56 -132 -77 -195 -36 -110
-70 -180 -89 -180 -4 0 -6 6 -3 14 3 7 -19 40 -51 75 -49 53 -66 64 -122 81
-36 11 -75 20 -87 20 -14 0 -24 9 -31 29 -18 51 -92 120 -189 178 -51 30 -93
58 -93 63 0 5 9 17 19 27 11 10 21 29 23 41 3 23 6 22 69 -26 77 -59 130 -117
158 -176 11 -22 20 -35 21 -28 1 43 -79 146 -167 213 -32 24 -63 51 -70 59
-10 13 -12 13 -18 -2 -9 -24 -25 -23 -25 2 0 10 11 29 24 42 14 13 26 33 28
46 3 21 10 17 77 -45 41 -37 92 -95 113 -127 21 -33 38 -55 38 -49 0 27 -85
136 -156 200 -66 60 -81 70 -90 58 -12 -16 -33 -20 -35 -7 -3 27 -4 62 -2 62
1 0 13 -4 27 -9 22 -9 25 -7 31 19 6 29 7 29 31 14 16 -11 24 -26 25 -48 1
-23 3 -25 6 -9 4 22 5 22 29 6 14 -9 46 -41 70 -71 24 -29 44 -49 44 -43 0 6
-31 44 -70 85 -47 49 -70 81 -70 97 0 13 -4 39 -9 57 l-10 32 27 -21 c15 -11
39 -39 55 -61 15 -23 27 -37 27 -31 0 5 -13 28 -29 50 -16 23 -27 44 -23 48 4
4 2 5 -3 3 -6 -1 -24 7 -40 20 -32 26 -26 37 28 49 22 4 27 10 24 24 -7 26 25
44 34 20 4 -9 14 -23 24 -31z m-171 -9 c-9 -10 -36 28 -29 39 6 9 12 6 21 -11
7 -13 10 -26 8 -28z m-84 12 c0 -13 3 -13 15 -3 18 15 30 7 22 -15 -9 -21 -57
1 -57 27 0 11 5 16 10 13 6 -3 10 -13 10 -22z m320 23 c0 -3 -4 -8 -10 -11 -5
-3 -10 -1 -10 4 0 6 5 11 10 11 6 0 10 -2 10 -4z m-171 -32 c-13 -7 -26 -10
-29 -7 -8 8 32 33 43 26 5 -3 -1 -12 -14 -19z m271 -4 c0 -5 -7 -10 -15 -10
-8 0 -15 5 -15 10 0 6 7 10 15 10 8 0 15 -4 15 -10z m-560 -35 c0 -5 -5 -3
-10 5 -5 8 -10 20 -10 25 0 6 5 3 10 -5 5 -8 10 -19 10 -25z m395 5 c-3 -5
-12 -10 -18 -10 -7 0 -6 4 3 10 19 12 23 12 15 0z m-2335 -15 c0 -12 -19 -12
-23 0 -4 9 -1 12 9 8 7 -3 14 -7 14 -8z m2176 -51 c-4 -14 -11 -22 -16 -19 -6
4 -13 -1 -16 -9 -5 -14 -34 -23 -34 -11 0 3 15 28 33 57 28 46 32 50 35 29 2
-12 1 -34 -2 -47z m-48 20 c2 -1 -4 -14 -13 -28 -18 -27 -39 -27 -28 -1 3 9
-1 22 -8 31 -11 13 -9 14 17 8 16 -4 30 -8 32 -10z m87 -48 c7 -37 7 -38 -14
-27 -23 13 -24 15 -15 61 8 38 18 26 29 -34z m-2235 34 c0 -5 -2 -10 -4 -10
-3 0 -8 5 -11 10 -3 6 -1 10 4 10 6 0 11 -4 11 -10z m-130 -48 c0 -15 -2 -15
-10 -2 -13 20 -13 33 0 25 6 -3 10 -14 10 -23z m153 -12 c4 -17 3 -19 -9 -9
-8 6 -14 18 -14 26 0 20 16 8 23 -17z m107 -10 c0 -5 -5 -10 -11 -10 -5 0 -7
5 -4 10 3 6 8 10 11 10 2 0 4 -4 4 -10z m-200 -71 c0 -41 -15 -36 -17 6 -1 20
3 33 8 30 5 -4 9 -19 9 -36z m460 -99 c0 -5 -5 -10 -11 -10 -5 0 -7 5 -4 10 3
6 8 10 11 10 2 0 4 -4 4 -10z m3095 -40 c3 -5 -1 -10 -10 -10 -9 0 -13 5 -10
10 3 6 8 10 10 10 2 0 7 -4 10 -10z m-43 -32 c-7 -7 -12 -8 -12 -2 0 14 12 26
19 19 2 -3 -1 -11 -7 -17z m-1432 -79 c0 -6 -4 -7 -10 -4 -5 3 -10 11 -10 16
0 6 5 7 10 4 6 -3 10 -11 10 -16z m1100 -14 c-7 -8 -17 -15 -23 -15 -5 0 -2 9
8 20 21 23 35 19 15 -5z m60 -30 c0 -15 -38 -41 -47 -32 -2 3 0 15 7 26 12 24
40 28 40 6z m-837 -127 c38 -38 57 -64 57 -81 l0 -24 -102 36 c-71 25 -113 47
-134 68 -33 34 -37 51 -23 100 l10 31 67 -36 c37 -21 93 -63 125 -94z m616
108 c10 -12 1 -31 -45 -100 -31 -48 -59 -84 -61 -82 -6 6 79 196 88 196 3 0
12 -6 18 -14z m-950 -58 c1 -5 -3 -8 -9 -8 -5 0 -10 12 -9 28 0 24 1 25 9 7 5
-11 9 -23 9 -27z m1231 32 c0 -14 -48 -32 -74 -28 -19 3 -18 5 9 20 34 19 65
23 65 8z m-2960 -41 c0 -11 -7 -22 -15 -26 -23 -8 -26 0 -13 29 14 29 28 27
28 -3z m1640 -59 c0 -5 -10 -10 -22 -10 -19 0 -20 2 -8 10 19 13 30 13 30 0z
m249 -19 l23 -18 -31 5 c-18 2 -31 10 -31 18 0 19 10 17 39 -5z m-1914 -43
c-9 -42 -11 -45 -35 -51 -21 -5 -28 7 -10 18 6 4 8 16 4 27 -6 21 9 38 34 38
10 0 12 -9 7 -32z m72 -168 c-5 -105 -13 -134 -33 -126 -8 3 -14 2 -14 -2 0
-4 -10 -20 -23 -35 l-23 -29 2 56 c1 36 8 63 18 75 9 10 16 31 16 47 0 16 8
67 17 114 l17 85 14 -45 c9 -30 12 -76 9 -140z m1573 162 c0 -5 -16 -16 -35
-25 -28 -13 -35 -22 -35 -45 0 -15 5 -33 11 -39 7 -7 1 -17 -22 -33 -31 -23
-32 -23 -45 -5 -17 23 -17 25 2 90 9 33 22 55 32 58 30 8 92 7 92 -1z m385
-33 l60 -17 -92 -1 c-51 -1 -93 3 -93 8 0 5 -3 17 -6 26 -6 14 -1 15 32 9 22
-4 66 -15 99 -25z m-706 2 c12 -8 9 -11 -13 -17 -26 -6 -28 -10 -22 -43 3 -20
12 -41 21 -47 33 -25 19 -73 -62 -205 -57 -92 -62 -112 -37 -140 15 -17 19
-17 45 -4 15 8 49 48 75 88 35 53 49 67 52 53 6 -29 -19 -108 -45 -139 -13
-16 -23 -35 -23 -42 0 -8 -13 -29 -29 -47 -15 -18 -36 -49 -46 -68 -21 -41
-85 -129 -107 -147 -8 -7 -23 -31 -33 -53 -11 -24 -25 -40 -35 -40 -9 0 -20
-3 -24 -7 -12 -13 -90 -9 -105 5 -14 14 -37 11 -34 -4 0 -5 5 -31 9 -59 6 -44
5 -49 -8 -37 -9 7 -19 34 -23 60 -9 57 -21 82 -41 82 -12 0 -13 -8 -9 -34 6
-31 4 -34 -22 -39 -15 -3 -31 -2 -36 2 -4 4 -12 36 -18 72 -7 35 -16 70 -21
77 -22 26 -29 11 -22 -44 5 -43 3 -58 -7 -65 -22 -14 -33 -10 -19 6 10 12 9
16 -4 21 -9 3 -23 3 -31 0 -18 -7 -23 4 -39 82 -8 41 -16 58 -29 60 -16 3 -18
-2 -12 -55 l7 -59 -36 4 c-28 3 -34 7 -26 17 12 14 3 25 -21 25 -18 0 -29 27
-29 72 0 26 -22 58 -41 58 -5 0 -7 -22 -3 -53 l6 -53 -37 4 c-33 4 -36 7 -31
28 5 17 2 24 -9 24 -9 0 -15 9 -15 23 0 17 22 36 93 82 50 33 196 146 323 252
201 168 243 198 330 239 140 66 211 85 243 65z m335 -17 c24 -9 1 -44 -29 -44
-14 0 -25 2 -25 4 0 2 -3 11 -6 19 -5 14 5 20 38 26 3 0 13 -2 22 -5z m678
-41 c10 -9 18 -26 18 -38 0 -13 7 -28 15 -35 8 -7 13 -16 10 -20 -7 -12 -81
-23 -103 -16 -16 6 -17 11 -8 51 7 29 16 45 26 45 12 1 11 4 -4 15 -19 15 -19
15 4 15 13 0 32 -7 42 -17z m-223 -3 c20 0 31 -9 48 -41 12 -22 19 -39 15 -37
-139 62 -192 99 -121 84 17 -3 43 -6 58 -6z m-2140 -22 c0 -7 -4 -22 -9 -33
-7 -18 -8 -19 -15 -2 -4 9 -5 24 -1 32 7 18 26 20 25 3z m1659 -58 c-13 -21
-43 -26 -67 -11 -18 12 13 30 52 31 25 0 26 -2 15 -20z m217 -18 c-8 -8 -25
10 -19 20 4 6 9 5 15 -3 4 -7 6 -15 4 -17z m43 -38 c12 -3 18 -44 6 -44 -13 0
-74 42 -74 51 0 8 29 5 68 -7z m417 -34 c8 -13 -5 -13 -25 0 -13 8 -13 10 2
10 9 0 20 -4 23 -10z m-751 -16 c23 -9 20 -23 -4 -17 -11 3 -20 9 -20 14 0 11
3 11 24 3z m-34 -28 c0 -3 -4 -8 -10 -11 -5 -3 -10 -1 -10 4 0 6 5 11 10 11 6
0 10 -2 10 -4z m15 -76 c-3 -5 -12 -10 -20 -10 -8 0 -17 5 -20 10 -4 6 5 10
20 10 15 0 24 -4 20 -10z m-1512 -20 c-3 -12 -8 -19 -11 -16 -5 6 5 36 12 36
2 0 2 -9 -1 -20z m1433 -7 c-10 -10 -19 5 -10 18 6 11 8 11 12 0 2 -7 1 -15
-2 -18z m289 -110 c51 -24 43 -34 -15 -15 -27 8 -47 19 -44 24 7 12 19 10 59
-9z m-385 -1 c0 -4 -10 -13 -22 -21 -23 -14 -23 -14 -4 8 20 22 26 25 26 13z
m958 -13 c-2 -6 -7 -10 -11 -10 -4 1 -14 1 -22 1 -8 0 -15 5 -15 10 0 6 12 10
26 10 14 0 24 -5 22 -11z m62 -20 c0 -11 -4 -17 -10 -14 -5 3 -10 15 -10 26 0
11 5 17 10 14 6 -3 10 -15 10 -26z m-1041 -60 c-9 -5 -15 -4 -18 2 -2 6 3 15
10 20 9 5 15 4 18 -2 2 -6 -3 -15 -10 -20z m436 -51 c36 -23 65 -46 65 -50 0
-5 -11 -13 -25 -20 -21 -9 -29 -7 -59 20 -19 17 -56 43 -81 57 -42 25 -54 43
-39 58 10 9 67 -17 139 -65z m-499 26 c-11 -7 -22 -12 -25 -9 -2 3 4 12 15 19
10 8 21 12 24 9 3 -2 -4 -11 -14 -19z m1088 -10 c-14 -90 -27 -149 -40 -176
l-15 -33 5 30 c3 17 10 67 17 113 8 51 16 81 23 79 6 -3 10 -8 10 -13z m-462
-14 c10 0 18 -4 18 -10 0 -5 -6 -10 -12 -10 -16 1 -48 24 -48 36 0 4 5 3 12
-4 7 -7 20 -12 30 -12z m379 -76 l-15 -86 -11 39 c-7 22 -20 53 -30 70 -25 43
-15 63 33 63 l38 0 -15 -86z m-1996 66 c3 -5 1 -10 -4 -10 -6 0 -11 5 -11 10
0 6 2 10 4 10 3 0 8 -4 11 -10z m1010 -19 c-6 -4 -23 -11 -40 -15 l-30 -6 25
15 c27 16 60 21 45 6z m376 -37 c33 -19 59 -37 59 -39 0 -6 -134 55 -144 66
-24 23 32 6 85 -27z m564 -72 c7 -29 3 -35 -18 -26 -17 6 -49 88 -39 99 9 9
49 -43 57 -73z m-175 24 c0 -15 -56 -30 -73 -19 -6 4 4 12 24 19 45 16 49 16
49 0z m-850 -13 c0 -10 -11 -23 -25 -30 -29 -13 -28 -13 -15 21 11 29 40 35
40 9z m383 -8 c20 -14 37 -28 37 -30 0 -2 -9 -9 -20 -15 -16 -9 -26 -7 -49 10
-16 11 -34 20 -40 20 -14 0 -14 13 1 28 17 17 29 15 71 -13z m-453 -27 c0 -19
-18 -43 -25 -36 -4 3 -2 16 5 27 12 24 20 27 20 9z m627 -25 c-9 -9 -20 -13
-24 -9 -4 4 -1 11 7 16 25 16 35 11 17 -7z m289 2 c-23 -17 -36 -19 -36 -6 0
11 18 19 40 20 11 0 10 -3 -4 -14z m-535 -10 c16 -9 27 -20 24 -25 -7 -12 -65
16 -65 30 0 13 6 13 41 -5z m384 -5 c3 -5 1 -10 -4 -10 -6 0 -11 5 -11 10 0 6
2 10 4 10 3 0 8 -4 11 -10z m-725 -21 c0 -5 -4 -9 -10 -9 -5 0 -10 7 -10 16 0
8 5 12 10 9 6 -3 10 -10 10 -16z m807 5 c3 -10 -57 -47 -65 -39 -3 3 5 16 18
30 23 25 41 28 47 9z m-297 -19 c-14 -16 -40 -20 -40 -6 0 10 17 19 39 20 11
1 11 -2 1 -14z m168 -6 c11 -18 11 -24 -4 -40 -22 -24 -50 -24 -64 0 -8 16 -5
23 18 40 34 25 34 25 50 0z m-390 -46 l-23 -25 -11 29 c-16 37 -10 44 27 31
l30 -10 -23 -25z m651 16 c6 -17 8 -42 5 -56 -6 -24 -7 -23 -29 13 -18 30 -21
41 -11 56 15 25 22 23 35 -13z m-95 5 c3 -8 1 -24 -4 -34 -15 -29 -12 -35 9
-16 19 17 20 16 46 -28 34 -58 28 -102 -20 -154 l-33 -37 -7 30 c-4 17 -19 64
-35 105 -16 41 -32 82 -35 91 -4 11 4 23 27 37 40 26 44 26 52 6z m-169 -84
c-10 -11 -22 -20 -27 -20 -4 0 -8 9 -8 20 0 15 7 20 27 20 25 0 26 0 8 -20z
m-75 -16 c15 -38 13 -43 -22 -52 -35 -9 -38 -7 -52 51 -6 26 -5 27 29 27 29 0
37 -5 45 -26z m-100 -10 c19 -48 14 -57 -27 -49 -56 10 -63 22 -30 51 36 30
45 30 57 -2z m-103 -72 c7 -4 14 -23 15 -42 l3 -35 -70 -3 -70 -3 32 20 c18
11 39 32 49 46 18 27 22 29 41 17z m113 -21 c0 -9 -61 -51 -74 -51 -3 0 -6 14
-6 30 0 28 2 30 40 30 22 0 40 -4 40 -9z m-401 -95 c16 -9 20 -16 12 -20 -6
-4 -26 2 -44 13 -26 17 -28 21 -12 20 11 0 31 -6 44 -13z m-289 -31 c19 -14
43 -39 53 -56 11 -16 37 -39 58 -50 l39 -19 -21 -52 c-11 -29 -22 -55 -25 -59
-6 -10 -74 29 -74 42 0 4 -27 37 -60 72 l-60 64 17 42 c9 22 21 41 28 41 6 0
26 -11 45 -25z m-350 -10 c0 -8 -2 -15 -4 -15 -2 0 -6 7 -10 15 -3 8 -1 15 4
15 6 0 10 -7 10 -15z m584 -155 c-1 -19 -4 -50 -9 -67 -7 -32 -6 -33 23 -33
56 0 204 -184 310 -385 32 -60 32 -60 10 -63 -13 -2 -33 -15 -45 -28 -13 -14
-33 -24 -49 -24 -14 0 -53 -7 -85 -15 -33 -9 -110 -20 -172 -25 -61 -5 -121
-12 -132 -15 -31 -9 -87 33 -110 83 -15 32 -25 42 -40 40 -33 -5 -32 -60 4
-133 17 -34 31 -68 31 -74 0 -7 9 -24 20 -39 18 -24 35 -98 44 -192 2 -19 7
-60 11 -90 11 -70 9 -108 -6 -126 -7 -8 -9 -30 -6 -52 5 -44 -14 -76 -50 -85
-17 -4 -24 1 -32 25 -9 25 -15 30 -36 26 -23 -5 -30 3 -81 98 -31 57 -60 104
-65 104 -5 0 -9 6 -9 14 0 7 -9 25 -20 39 -21 27 -53 117 -45 126 3 2 11 -3
18 -13 12 -16 14 -16 29 1 10 12 17 44 20 99 4 68 11 95 42 160 59 124 149
271 173 283 37 17 52 59 42 119 -4 30 -13 60 -19 67 -10 12 -5 13 23 8 20 -3
58 0 86 7 44 10 51 16 61 46 6 18 9 37 6 42 -4 7 0 30 20 100 2 8 12 12 21 10
13 -3 18 -13 17 -38z m-378 -72 c52 -38 80 -64 70 -66 -21 -4 -160 89 -164
111 -2 9 -1 17 2 17 4 0 45 -28 92 -62z m-76 -405 c-16 -51 -111 -245 -117
-240 -2 3 13 40 35 83 22 44 50 107 62 142 24 67 40 79 20 15z m310 -548 c7
-9 8 -15 2 -15 -5 0 -12 7 -16 15 -3 8 -4 15 -2 15 2 0 9 -7 16 -15z m-376
-240 c9 -27 14 -51 11 -53 -6 -6 -32 51 -40 88 -11 52 11 26 29 -35z m580 24
c15 -22 25 -43 23 -46 -6 -5 -57 67 -57 79 0 15 8 8 34 -33z"/>
<path d="M7236 5211 c11 -12 84 -43 84 -36 0 5 -76 45 -87 45 -4 0 -3 -4 3 -9z"/>
<path d="M7076 2989 c-25 -27 -46 -52 -46 -54 0 -3 15 -5 34 -5 39 0 76 37 76
76 0 39 -16 35 -64 -17z"/>
</g>
</svg>
