<?xml version="1.0" encoding="UTF-8"?>
<!-- Created with Inkscape (http://www.inkscape.org/) -->
<svg width="297mm" height="210mm" version="1.1" viewBox="0 0 297 210" xmlns="http://www.w3.org/2000/svg" xmlns:cc="http://creativecommons.org/ns#" xmlns:dc="http://purl.org/dc/elements/1.1/" xmlns:rdf="http://www.w3.org/1999/02/22-rdf-syntax-ns#">
 <defs>
  <marker id="Arrow1Lend" overflow="visible" orient="auto">
   <path transform="scale(.8) rotate(180) translate(12.5)" d="m0 0 5-5-17.5 5 17.5 5-5-5z" fill-rule="evenodd" stroke="#00bc00" stroke-width="1pt"/>
  </marker>
  <marker id="marker7270" overflow="visible" orient="auto">
   <path transform="scale(.4) translate(7.4 1)" d="m-2.5-1c0 2.76-2.24 5-5 5s-5-2.24-5-5 2.24-5 5-5 5 2.24 5 5z" fill-rule="evenodd" stroke="#000" stroke-width="1pt"/>
  </marker>
  <marker id="DotM" overflow="visible" orient="auto">
   <path transform="scale(.4) translate(7.4 1)" d="m-2.5-1c0 2.76-2.24 5-5 5s-5-2.24-5-5 2.24-5 5-5 5 2.24 5 5z" fill-rule="evenodd" stroke="#000" stroke-width="1pt"/>
  </marker>
  <marker id="DotM-98" overflow="visible" orient="auto">
   <path transform="matrix(.4 0 0 .4 2.96 .4)" d="m-2.5-1c0 2.76-2.24 5-5 5s-5-2.24-5-5 2.24-5 5-5 5 2.24 5 5z" fill-rule="evenodd" stroke="#000" stroke-width="1pt"/>
  </marker>
  <marker id="marker7270-1" overflow="visible" orient="auto">
   <path transform="matrix(.4 0 0 .4 2.96 .4)" d="m-2.5-1c0 2.76-2.24 5-5 5s-5-2.24-5-5 2.24-5 5-5 5 2.24 5 5z" fill-rule="evenodd" stroke="#000" stroke-width="1pt"/>
  </marker>
  <marker id="DotM-4" overflow="visible" orient="auto">
   <path transform="matrix(.4 0 0 .4 2.96 .4)" d="m-2.5-1c0 2.76-2.24 5-5 5s-5-2.24-5-5 2.24-5 5-5 5 2.24 5 5z" fill-rule="evenodd" stroke="#000" stroke-width="1pt"/>
  </marker>
  <marker id="marker7270-02" overflow="visible" orient="auto">
   <path transform="matrix(.4 0 0 .4 2.96 .4)" d="m-2.5-1c0 2.76-2.24 5-5 5s-5-2.24-5-5 2.24-5 5-5 5 2.24 5 5z" fill-rule="evenodd" stroke="#000" stroke-width="1pt"/>
  </marker>
  <marker id="DotM-2" overflow="visible" orient="auto">
   <path transform="matrix(.4 0 0 .4 2.96 .4)" d="m-2.5-1c0 2.76-2.24 5-5 5s-5-2.24-5-5 2.24-5 5-5 5 2.24 5 5z" fill-rule="evenodd" stroke="#000" stroke-width="1pt"/>
  </marker>
  <marker id="marker7270-7" overflow="visible" orient="auto">
   <path transform="matrix(.4 0 0 .4 2.96 .4)" d="m-2.5-1c0 2.76-2.24 5-5 5s-5-2.24-5-5 2.24-5 5-5 5 2.24 5 5z" fill-rule="evenodd" stroke="#000" stroke-width="1pt"/>
  </marker>
  <marker id="DotM-50" overflow="visible" orient="auto">
   <path transform="matrix(.4 0 0 .4 2.96 .4)" d="m-2.5-1c0 2.76-2.24 5-5 5s-5-2.24-5-5 2.24-5 5-5 5 2.24 5 5z" fill-rule="evenodd" stroke="#000" stroke-width="1pt"/>
  </marker>
  <marker id="marker7270-8" overflow="visible" orient="auto">
   <path transform="matrix(.4 0 0 .4 2.96 .4)" d="m-2.5-1c0 2.76-2.24 5-5 5s-5-2.24-5-5 2.24-5 5-5 5 2.24 5 5z" fill-rule="evenodd" stroke="#000" stroke-width="1pt"/>
  </marker>
  <marker id="DotM-0" overflow="visible" orient="auto">
   <path transform="matrix(.4 0 0 .4 2.96 .4)" d="m-2.5-1c0 2.76-2.24 5-5 5s-5-2.24-5-5 2.24-5 5-5 5 2.24 5 5z" fill-rule="evenodd" stroke="#000" stroke-width="1pt"/>
  </marker>
  <marker id="marker7270-80" overflow="visible" orient="auto">
   <path transform="matrix(.4 0 0 .4 2.96 .4)" d="m-2.5-1c0 2.76-2.24 5-5 5s-5-2.24-5-5 2.24-5 5-5 5 2.24 5 5z" fill-rule="evenodd" stroke="#000" stroke-width="1pt"/>
  </marker>
  <marker id="DotM-8" overflow="visible" orient="auto">
   <path transform="matrix(.4 0 0 .4 2.96 .4)" d="m-2.5-1c0 2.76-2.24 5-5 5s-5-2.24-5-5 2.24-5 5-5 5 2.24 5 5z" fill-rule="evenodd" stroke="#000" stroke-width="1pt"/>
  </marker>
  <marker id="marker7270-67" overflow="visible" orient="auto">
   <path transform="matrix(.4 0 0 .4 2.96 .4)" d="m-2.5-1c0 2.76-2.24 5-5 5s-5-2.24-5-5 2.24-5 5-5 5 2.24 5 5z" fill-rule="evenodd" stroke="#000" stroke-width="1pt"/>
  </marker>
  <marker id="DotM-38" overflow="visible" orient="auto">
   <path transform="matrix(.4 0 0 .4 2.96 .4)" d="m-2.5-1c0 2.76-2.24 5-5 5s-5-2.24-5-5 2.24-5 5-5 5 2.24 5 5z" fill-rule="evenodd" stroke="#000" stroke-width="1pt"/>
  </marker>
  <marker id="marker7270-62" overflow="visible" orient="auto">
   <path transform="matrix(.4 0 0 .4 2.96 .4)" d="m-2.5-1c0 2.76-2.24 5-5 5s-5-2.24-5-5 2.24-5 5-5 5 2.24 5 5z" fill-rule="evenodd" stroke="#000" stroke-width="1pt"/>
  </marker>
  <marker id="DotM-49" overflow="visible" orient="auto">
   <path transform="matrix(.4 0 0 .4 2.96 .4)" d="m-2.5-1c0 2.76-2.24 5-5 5s-5-2.24-5-5 2.24-5 5-5 5 2.24 5 5z" fill-rule="evenodd" stroke="#000" stroke-width="1pt"/>
  </marker>
  <marker id="marker7270-2" overflow="visible" orient="auto">
   <path transform="matrix(.4 0 0 .4 2.96 .4)" d="m-2.5-1c0 2.76-2.24 5-5 5s-5-2.24-5-5 2.24-5 5-5 5 2.24 5 5z" fill-rule="evenodd" stroke="#000" stroke-width="1pt"/>
  </marker>
  <marker id="DotM-88" overflow="visible" orient="auto">
   <path transform="matrix(.4 0 0 .4 2.96 .4)" d="m-2.5-1c0 2.76-2.24 5-5 5s-5-2.24-5-5 2.24-5 5-5 5 2.24 5 5z" fill-rule="evenodd" stroke="#000" stroke-width="1pt"/>
  </marker>
  <marker id="marker7270-00" overflow="visible" orient="auto">
   <path transform="matrix(.4 0 0 .4 2.96 .4)" d="m-2.5-1c0 2.76-2.24 5-5 5s-5-2.24-5-5 2.24-5 5-5 5 2.24 5 5z" fill-rule="evenodd" stroke="#000" stroke-width="1pt"/>
  </marker>
 </defs>
 <metadata>
  <rdf:RDF>
   <cc:Work rdf:about="">
    <dc:format>image/svg+xml</dc:format>
    <dc:type rdf:resource="http://purl.org/dc/dcmitype/StillImage"/>
    <dc:title/>
   </cc:Work>
  </rdf:RDF>
 </metadata>
 <g transform="translate(0,-87)">
  <g stroke="#000">
   <g stroke-width="2.7793">
    <g transform="matrix(.17991 0 0 .18509 28.814 125.24)">
     <path d="m166.84 235.55c0 3.7774-3.0869 6.8691-6.8711 6.8691h-152.85c-3.7749 0-6.8608-3.0918-6.8608-6.8691v-228.43c0-3.7773 3.0859-6.8701 6.8608-6.8701h152.85c3.7842 0 6.8711 3.0928 6.8711 6.8701z" fill="#fff" stroke-width="2.7793"/>
    </g>
    <g transform="matrix(.17991 0 0 .18509 71.336 124.49)">
     <path d="m166.84 235.55c0 3.7774-3.0869 6.8691-6.8711 6.8691h-152.85c-3.7749 0-6.8608-3.0918-6.8608-6.8691v-228.43c0-3.7773 3.0859-6.8701 6.8608-6.8701h152.85c3.7842 0 6.8711 3.0928 6.8711 6.8701z" fill="#fff" stroke-width="2.7793"/>
    </g>
    <g transform="matrix(.17991 0 0 .18509 113.1 160.77)">
     <path d="m166.84 235.55c0 3.7774-3.0869 6.8691-6.8711 6.8691h-152.85c-3.7749 0-6.8608-3.0918-6.8608-6.8691v-228.43c0-3.7773 3.0859-6.8701 6.8608-6.8701h152.85c3.7842 0 6.8711 3.0928 6.8711 6.8701z" fill="#fff" stroke-width="2.7793"/>
    </g>
    <g transform="matrix(.17991 0 0 .18509 114.05 104.87)">
     <path d="m166.84 235.55c0 3.7774-3.0869 6.8691-6.8711 6.8691h-152.85c-3.7749 0-6.8608-3.0918-6.8608-6.8691v-228.43c0-3.7773 3.0859-6.8701 6.8608-6.8701h152.85c3.7842 0 6.8711 3.0928 6.8711 6.8701z" fill="#fff" stroke-width="2.7793"/>
    </g>
    <g transform="matrix(.17991 0 0 .18509 151.94 104.87)">
     <path d="m166.84 235.55c0 3.7774-3.0869 6.8691-6.8711 6.8691h-152.85c-3.7749 0-6.8608-3.0918-6.8608-6.8691v-228.43c0-3.7773 3.0859-6.8701 6.8608-6.8701h152.85c3.7842 0 6.8711 3.0928 6.8711 6.8701z" fill="#fff" stroke-width="2.7793"/>
    </g>
   </g>
   <path d="m45.357 148.46 42.333 0.75595" marker-end="url(#marker7270)" marker-start="url(#DotM)" stroke-dasharray="5.29199974, 2.64599987, 1.32299993, 2.64599987" stroke-width="2.646"/>
  </g>
  <path d="m73.327 270.54c136.83-0.75595 185.21 0 185.21 0" marker-end="url(#Arrow1Lend)" marker-start="url(#Arrow1Lend)" stroke="#00bc00" stroke-width="2.646"/>
  <g stroke="#000">
   <g stroke-width="2.7793">
    <g transform="matrix(.17991 0 0 .18509 189.83 104.87)">
     <path d="m166.84 235.55c0 3.7774-3.0869 6.8691-6.8711 6.8691h-152.85c-3.7749 0-6.8608-3.0918-6.8608-6.8691v-228.43c0-3.7773 3.0859-6.8701 6.8608-6.8701h152.85c3.7842 0 6.8711 3.0928 6.8711 6.8701z" fill="#fff" stroke-width="2.7793"/>
    </g>
    <g transform="matrix(.17991 0 0 .18509 251.82 164.93)">
     <path d="m166.84 235.55c0 3.7774-3.0869 6.8691-6.8711 6.8691h-152.85c-3.7749 0-6.8608-3.0918-6.8608-6.8691v-228.43c0-3.7773 3.0859-6.8701 6.8608-6.8701h152.85c3.7842 0 6.8711 3.0928 6.8711 6.8701z" fill="#fff" stroke-width="2.7793"/>
    </g>
    <g transform="matrix(.17991 0 0 .18509 175.62 160.39)">
     <path d="m166.84 235.55c0 3.7774-3.0869 6.8691-6.8711 6.8691h-152.85c-3.7749 0-6.8608-3.0918-6.8608-6.8691v-228.43c0-3.7773 3.0859-6.8701 6.8608-6.8701h152.85c3.7842 0 6.8711 3.0928 6.8711 6.8701z" fill="#fff" stroke-width="2.7793"/>
    </g>
    <g transform="matrix(.17991 0 0 .18509 150.52 213.31)">
     <path d="m-22.241 264.14c0 3.7774-3.0869 6.8691-6.8711 6.8691h-152.85c-3.7749 0-6.8608-3.0918-6.8608-6.8691v-228.43c0-3.7773 3.0859-6.8701 6.8608-6.8701h152.85c3.7842 0 6.8711 3.0928 6.8711 6.8701z" fill="#fff" stroke-width="2.7793"/>
    </g>
    <g transform="matrix(.17991 0 0 .18509 189.08 158.88)"></g>
   </g>
   <g stroke-dasharray="5.2919998, 2.6459999, 1.32299994, 2.6459999" stroke-width="2.646">
    <path d="m87.69 149.21 42.439-20.409" marker-end="url(#marker7270-1)" marker-start="url(#DotM-98)"/>
    <path d="m87.69 149.21 40.927 34.02" marker-end="url(#marker7270-02)" marker-start="url(#DotM-4)"/>
    <path d="m130.13 128.8c4.9028 2.2983 13.997 0.97731 37.042-0.75596" marker-end="url(#marker7270-7)" marker-start="url(#DotM-2)"/>
    <path d="m167.17 128.05 38.554 1.5119" marker-end="url(#marker7270-8)" marker-start="url(#DotM-50)"/>
    <path d="m205.72 129.56 61.988 58.208" marker-end="url(#marker7270-80)" marker-start="url(#DotM-0)"/>
    <path d="m128.62 183.23 63.5-0.75595" marker-end="url(#marker7270-67)" marker-start="url(#DotM-8)"/>
    <path d="m192.12 182.48 75.595 5.2917" marker-end="url(#marker7270-62)" marker-start="url(#DotM-38)"/>
    <path d="m87.69 149.21 42.439 89.96" marker-end="url(#marker7270-2)" marker-start="url(#DotM-49)"/>
    <path d="m130.13 239.17 137.58-51.405" marker-end="url(#marker7270-00)" marker-start="url(#DotM-88)"/>
   </g>
  </g>
 </g>
</svg>
