<?xml version="1.0" standalone="no"?>
<!DOCTYPE svg PUBLIC "-//W3C//DTD SVG 20010904//EN"
 "http://www.w3.org/TR/2001/REC-SVG-20010904/DTD/svg10.dtd">
<svg version="1.0" xmlns="http://www.w3.org/2000/svg"
 width="850.000000pt" height="1280.000000pt" viewBox="0 0 850.000000 1280.000000"
 preserveAspectRatio="xMidYMid meet">
<g transform="translate(0.000000,1280.000000) scale(0.100000,-0.100000)"
fill="#000000" stroke="none">
<path d="M3758 12795 c-7 -7 -6 -51 7 -395 16 -459 18 -498 30 -715 3 -49 7
-137 10 -195 3 -58 8 -122 12 -142 5 -36 4 -38 -22 -38 -15 0 -44 -8 -64 -19
-20 -10 -62 -30 -94 -45 -71 -32 -147 -102 -198 -179 -51 -79 -64 -158 -55
-349 7 -141 6 -148 -18 -208 -14 -33 -45 -89 -69 -123 -60 -84 -106 -120 -301
-238 -38 -23 -86 -57 -107 -76 -39 -36 -52 -73 -24 -73 18 0 19 -14 2 -28 -14
-12 -76 -142 -105 -222 -28 -78 -46 -164 -40 -194 3 -15 2 -57 -2 -94 -5 -44
-3 -72 4 -81 6 -7 11 -41 12 -75 1 -33 6 -77 11 -97 6 -20 9 -48 6 -61 -3 -14
2 -42 11 -62 9 -21 13 -42 10 -48 -6 -9 6 -47 29 -95 6 -14 8 -61 4 -124 -6
-97 -8 -104 -37 -134 -48 -50 -56 -132 -18 -193 19 -31 20 -38 8 -85 -19 -84
-18 -282 2 -346 10 -30 18 -65 18 -79 0 -27 4 -27 90 1 202 67 218 64 198 -28
-7 -31 -16 -49 -28 -52 -12 -3 -16 -11 -13 -24 3 -12 -15 -54 -50 -112 -68
-115 -88 -181 -83 -279 3 -76 32 -151 62 -162 21 -8 17 -29 -14 -88 -16 -29
-37 -75 -47 -103 -10 -27 -24 -56 -31 -64 -17 -19 -108 -15 -184 9 -184 58
-327 103 -345 111 -11 4 -36 10 -55 13 -84 14 -157 33 -164 44 -12 19 -558 -7
-599 -30 -10 -5 -21 -7 -24 -5 -2 3 -20 -1 -39 -9 -19 -8 -35 -13 -37 -12 -4
4 -74 -26 -165 -68 -40 -19 -77 -34 -82 -34 -6 0 -18 -8 -29 -19 -10 -10 -63
-45 -117 -77 -55 -32 -130 -82 -168 -111 -38 -29 -75 -53 -83 -53 -7 0 -13 -6
-13 -12 -1 -16 -50 -71 -84 -93 -14 -10 -26 -22 -26 -29 0 -6 -26 -39 -58 -72
-87 -94 -167 -215 -237 -359 -74 -153 -71 -145 -101 -260 -13 -49 -26 -97 -28
-105 -32 -115 -87 -503 -78 -543 1 -4 -4 -58 -12 -120 -8 -62 -18 -164 -21
-227 -4 -63 -9 -122 -11 -130 -3 -8 -10 -60 -15 -115 -5 -55 -12 -124 -15
-152 l-7 -53 45 0 c79 0 83 -9 48 -130 -16 -58 -30 -114 -30 -126 0 -11 -9
-47 -20 -79 -32 -93 -42 -196 -43 -430 -1 -181 2 -235 17 -305 32 -142 24
-242 -38 -485 -14 -55 -28 -125 -33 -155 -19 -136 5 -449 38 -486 11 -11 19
-27 19 -35 0 -8 7 -22 14 -32 10 -13 12 -27 5 -50 -16 -57 -11 -154 11 -197
11 -22 27 -40 34 -40 18 0 26 -22 26 -69 0 -46 32 -91 64 -91 39 0 58 33 73
130 15 91 54 200 73 200 13 0 13 -4 -4 -45 -20 -48 -22 -100 -6 -172 13 -59
30 -78 45 -53 3 6 17 10 30 10 30 0 45 26 45 78 0 51 33 85 76 76 26 -5 38 3
115 78 168 165 209 265 238 595 6 64 17 119 30 149 12 26 24 65 27 86 7 39 23
62 25 34 2 -25 4 -28 26 -71 11 -22 28 -67 37 -100 10 -33 22 -70 27 -83 5
-13 7 -28 4 -32 -8 -13 30 -83 52 -96 10 -6 41 -17 70 -24 50 -13 52 -15 72
-70 16 -43 22 -91 26 -201 4 -79 8 -150 10 -156 2 -7 0 -50 -5 -95 -5 -46 -11
-114 -15 -153 -3 -38 -10 -95 -15 -125 -5 -30 -12 -75 -15 -100 -3 -25 -10
-62 -16 -83 -5 -21 -7 -46 -4 -56 3 -10 -1 -24 -9 -30 -8 -7 -12 -19 -9 -27 3
-8 2 -22 -3 -31 -4 -10 -9 -31 -11 -47 -3 -17 -10 -38 -18 -49 -9 -13 -10 -28
-5 -50 5 -18 14 -52 20 -75 16 -63 82 -132 126 -132 43 0 63 -29 73 -104 9
-62 -1 -87 -58 -153 -101 -117 -111 -143 -76 -193 14 -20 25 -44 25 -53 0 -25
-27 -32 -48 -14 -9 8 -39 18 -67 22 -75 11 -91 26 -25 24 72 -2 74 -1 62 14
-7 9 -44 13 -113 15 -56 1 -104 4 -107 7 -10 9 4 15 54 20 100 12 115 16 107
28 -4 7 -8 19 -8 27 0 10 -10 15 -30 14 -17 0 -36 7 -45 18 -15 19 -76 28 -97
15 -6 -4 -13 0 -17 8 -9 24 -156 11 -341 -30 -38 -9 -82 -19 -98 -22 -15 -3
-27 -12 -27 -19 0 -18 12 -18 58 2 33 13 241 54 278 54 8 0 14 -4 14 -8 0 -5
-48 -17 -108 -26 -59 -10 -111 -22 -116 -26 -17 -16 22 -22 60 -10 21 7 74 19
118 26 45 7 108 18 141 24 61 11 110 6 100 -9 -3 -5 -26 -9 -50 -9 -25 0 -67
-5 -93 -11 -26 -5 -69 -14 -95 -18 -77 -13 -51 -28 46 -28 53 1 81 -2 72 -8
-8 -4 -15 -14 -15 -22 0 -15 9 -16 77 -15 31 0 45 -4 52 -18 17 -32 85 -72
122 -72 54 0 98 -16 159 -59 30 -21 80 -47 110 -56 30 -9 66 -21 80 -27 14 -6
86 -13 161 -16 114 -4 152 -1 240 17 170 36 205 48 233 82 33 39 33 63 -1 97
-29 28 -93 117 -93 128 0 3 -9 19 -21 35 -33 47 -73 127 -103 207 -23 59 -32
73 -54 79 -38 9 -116 91 -136 143 -16 39 -16 54 -6 120 15 95 2 177 -41 268
l-31 67 5 294 c4 192 10 298 17 305 12 12 156 -133 261 -263 58 -72 59 -75 59
-136 0 -96 22 -148 87 -200 30 -25 61 -45 69 -45 14 0 45 -41 52 -69 2 -9 6
-34 9 -57 4 -38 3 -42 -26 -53 -32 -14 -141 -122 -141 -141 0 -7 14 -24 30
-38 25 -22 30 -34 30 -73 0 -26 5 -70 12 -98 11 -48 10 -53 -10 -72 -35 -32
-13 -95 65 -192 71 -87 201 -147 355 -164 74 -8 186 57 224 129 9 18 14 60 14
125 0 107 -25 344 -39 371 -5 9 -6 32 -4 49 5 29 -1 39 -46 85 -145 150 -151
164 -155 340 -2 122 -5 138 -31 193 -17 37 -52 83 -89 120 -34 33 -73 76 -87
95 -15 19 -116 128 -225 242 -213 221 -304 319 -304 328 0 3 16 44 36 90 20
47 42 112 49 145 61 279 66 292 167 424 34 46 83 111 108 146 25 34 55 76 68
92 12 17 22 37 22 45 1 7 14 29 30 48 17 19 30 39 30 44 0 5 18 33 40 62 22
29 40 59 40 66 0 7 9 24 20 38 25 32 25 36 -2 44 l-23 6 25 20 c14 11 30 18
36 16 5 -2 20 17 33 43 13 25 26 52 30 60 17 34 39 36 70 7 17 -16 31 -23 35
-17 4 5 -13 23 -37 40 -49 34 -75 61 -58 61 6 0 31 -16 57 -35 25 -19 53 -35
62 -35 10 0 -3 14 -30 33 -57 39 -64 54 -39 81 21 22 60 103 61 124 0 7 11 30
25 52 14 22 25 46 25 54 0 33 24 35 135 9 61 -14 115 -31 122 -37 12 -11 20
-69 29 -227 6 -98 5 -99 -71 -119 -119 -30 -125 -30 -136 -1 -5 14 -14 35 -19
46 -5 11 -12 80 -14 154 -3 73 -8 136 -11 139 -21 21 -31 -78 -26 -251 2 -49
-1 -59 -16 -64 -10 -2 -27 -19 -38 -36 -11 -17 -30 -37 -43 -43 -28 -14 -43
-29 -20 -21 11 4 24 -3 37 -19 20 -25 20 -27 3 -56 -25 -45 -33 -56 -81 -126
-31 -47 -40 -67 -32 -75 8 -8 19 -3 40 17 34 33 87 126 71 126 -6 0 0 18 12
40 13 22 28 40 34 40 28 0 34 -30 32 -161 -3 -128 -2 -134 17 -134 18 0 20 7
21 90 1 154 3 165 21 172 11 5 30 -9 62 -46 26 -29 59 -55 75 -59 44 -12 53
-33 37 -89 -23 -82 -23 -88 -3 -113 20 -24 25 -25 143 -25 117 0 122 -1 132
-22 6 -15 22 -25 46 -29 20 -4 43 -10 53 -15 11 -6 40 2 93 26 42 19 88 35
103 35 48 0 367 -94 377 -111 3 -5 43 -26 88 -47 80 -37 215 -128 289 -194 20
-18 48 -58 63 -88 15 -30 31 -57 34 -60 16 -11 38 -94 56 -201 8 -50 30 -68
53 -45 23 23 30 175 9 231 -45 126 -121 300 -149 342 -84 127 -198 240 -278
275 -25 11 -54 28 -66 39 -12 11 -54 36 -95 57 -72 36 -74 39 -86 85 -14 58
-24 73 -96 150 -51 55 -56 65 -71 140 -9 45 -19 91 -21 102 -7 32 9 49 33 36
11 -6 49 -18 84 -25 35 -8 81 -19 103 -25 22 -6 63 -11 92 -11 29 0 74 -7 100
-16 26 -9 75 -17 108 -17 164 0 417 13 470 23 65 14 115 16 139 7 19 -8 49
-64 41 -78 -8 -12 -63 -3 -123 18 -30 11 -46 13 -54 5 -16 -16 21 -31 92 -39
33 -3 68 -12 78 -19 16 -12 14 -16 -23 -50 -22 -20 -53 -44 -70 -54 -19 -11
-31 -26 -33 -43 -2 -15 0 -27 5 -27 4 0 35 28 69 61 68 67 90 71 68 12 -16
-45 -18 -103 -4 -103 5 0 12 10 15 22 21 97 31 132 40 134 6 2 24 -18 40 -44
17 -26 35 -46 40 -45 21 4 14 30 -20 70 -19 23 -35 49 -35 58 0 16 8 17 70 11
49 -5 70 -4 70 4 0 7 16 10 43 8 l42 -3 2 -230 c2 -126 5 -279 8 -340 9 -238
10 -304 2 -405 -19 -228 -9 -457 22 -550 12 -34 16 -317 7 -425 -3 -27 -7 -86
-11 -130 -8 -110 -25 -277 -30 -295 -2 -8 -7 -42 -10 -75 -3 -33 -10 -82 -15
-110 -5 -27 -12 -97 -15 -155 -4 -58 -11 -150 -16 -205 -13 -147 -11 -195 12
-233 10 -18 19 -42 19 -53 0 -26 50 -76 85 -85 19 -5 35 -1 56 15 43 32 64 20
103 -57 51 -102 53 -130 17 -217 -38 -89 -40 -136 -8 -162 23 -19 47 -64 47
-88 0 -23 -24 -18 -50 9 -12 14 -35 28 -50 31 -18 4 -27 12 -26 23 1 12 -13
21 -46 32 -33 10 -48 21 -48 32 0 14 -11 18 -62 20 -57 3 -63 5 -68 28 -6 24
-9 25 -77 24 -63 0 -72 2 -77 19 -4 18 -12 19 -103 13 -54 -3 -132 -15 -173
-27 -41 -11 -82 -22 -90 -23 -9 -1 -20 -4 -25 -8 -6 -3 -52 -11 -102 -19 -97
-13 -132 -34 -40 -23 94 11 302 47 429 75 32 7 53 7 65 0 15 -8 16 -11 3 -15
-25 -9 -160 -36 -182 -36 -11 0 -26 -7 -32 -15 -6 -8 -53 -24 -105 -34 -93
-20 -140 -40 -84 -37 15 1 33 4 38 8 6 3 54 16 108 28 69 16 101 20 109 12 17
-17 2 -28 -56 -42 -31 -7 -53 -16 -51 -20 5 -8 147 17 155 28 3 4 27 8 55 10
55 3 66 9 45 22 -11 7 -7 10 14 16 21 5 31 3 38 -10 7 -12 24 -16 68 -16 55 0
79 -12 48 -23 -23 -8 -2 -17 61 -28 33 -6 61 -15 61 -19 0 -4 -49 -11 -110
-15 -60 -3 -113 -11 -116 -17 -5 -7 11 -9 47 -4 71 8 177 9 209 2 14 -3 39 -8
55 -12 17 -3 39 -12 50 -18 11 -7 39 -15 62 -18 23 -4 54 -15 68 -27 92 -72
497 -136 642 -101 27 6 65 12 86 14 54 5 169 65 187 98 12 23 13 31 2 45 -6
10 -16 28 -22 40 -5 12 -24 30 -42 39 -45 22 -78 54 -78 74 0 11 18 22 58 35
31 10 61 18 65 17 4 -1 17 3 28 9 11 6 64 16 117 23 70 10 91 16 77 21 -11 5
-24 14 -30 21 -11 14 -23 12 -243 -33 -91 -18 -126 -22 -136 -14 -7 6 -34 45
-60 87 -36 58 -46 83 -41 101 5 20 -2 31 -32 59 -24 22 -43 32 -55 28 -10 -3
-28 2 -40 10 -12 9 -39 16 -59 16 -29 0 -45 8 -69 32 -99 99 -154 214 -146
304 5 58 0 79 -49 199 -27 66 -34 99 -40 190 -8 125 -8 106 0 285 5 118 21
257 56 500 5 36 12 83 15 105 3 22 17 55 32 73 25 31 44 62 62 102 4 8 13 56
19 105 7 50 17 110 23 135 5 25 12 89 14 144 2 54 6 107 9 117 3 9 -2 55 -11
100 -33 165 -5 271 215 789 l40 95 53 0 c60 -1 97 -7 115 -18 7 -4 21 -3 31 2
14 7 24 6 38 -4 20 -14 63 -14 147 0 51 8 53 7 207 -63 30 -14 68 -36 83 -49
16 -12 35 -23 43 -23 26 0 14 33 -32 86 -36 43 -42 54 -27 55 10 0 92 2 183 4
91 2 219 7 285 11 66 5 181 8 256 8 113 0 141 -3 164 -18 14 -10 36 -19 47
-21 29 -6 54 -31 98 -95 75 -112 89 -147 104 -275 41 -332 50 -671 21 -742 -8
-20 -16 -70 -17 -112 -2 -65 2 -85 26 -138 32 -70 30 -117 -5 -149 -17 -15
-23 -16 -40 -6 -11 7 -39 15 -63 18 -39 6 -47 3 -68 -20 -69 -78 -111 -113
-132 -109 -16 3 -32 -6 -58 -35 -40 -44 -50 -93 -48 -224 0 -40 1 -102 0 -138
0 -80 17 -177 36 -204 8 -11 14 -28 14 -36 0 -30 50 -121 91 -164 69 -75 115
-70 161 18 35 67 163 202 213 224 90 41 100 49 107 91 4 22 17 54 29 70 17 24
21 38 15 70 -3 22 -2 50 3 63 5 13 14 52 21 88 6 36 15 70 20 75 4 6 10 24 13
40 8 47 44 136 65 159 63 69 108 196 100 279 -6 53 -64 276 -79 301 -6 11 -15
42 -20 70 -4 28 -13 76 -19 106 -12 63 -30 493 -24 590 2 36 16 106 30 155 43
148 26 235 -77 391 -51 77 -129 153 -191 185 -54 27 -61 28 -185 26 -124 -2
-130 -1 -187 28 -33 17 -62 36 -64 42 -2 8 17 22 44 34 59 25 68 37 49 66 -28
42 -14 93 25 93 9 0 24 6 33 13 17 11 15 20 -22 118 -57 152 -98 223 -182 319
-31 36 -83 108 -114 160 -32 52 -67 108 -79 123 -53 70 -183 215 -215 239
-131 99 -125 83 -125 348 l-1 215 50 -2 c28 -2 144 -4 258 -7 l209 -4 38 34
c32 29 45 34 86 34 63 0 101 27 141 99 17 31 41 67 52 80 12 13 21 32 21 43 0
12 7 18 21 18 18 0 21 4 16 28 -4 21 1 39 19 66 28 41 26 65 -6 67 -43 3 -45
4 -42 34 2 20 19 45 52 77 77 73 89 105 80 213 -12 146 -38 252 -83 333 l-39
73 51 53 c38 41 52 65 57 95 6 37 33 71 56 71 4 0 17 -23 29 -51 18 -41 26
-50 42 -45 14 3 32 -5 54 -24 19 -17 43 -30 54 -30 22 0 99 46 99 59 0 4 25
34 55 67 35 37 60 74 67 100 11 41 12 41 57 40 25 0 72 3 104 8 l57 7 0 134 0
134 -57 40 c-35 26 -68 41 -87 42 -78 2 -129 39 -161 117 -25 60 -25 63 -20
298 4 188 2 247 -9 288 -8 28 -22 80 -32 116 -26 102 -45 161 -70 214 -14 31
-20 55 -15 65 7 13 8 109 2 145 0 4 -17 23 -37 42 -39 35 -41 62 -4 71 11 3
20 9 20 14 0 17 -21 19 -44 4 -30 -20 -46 -13 -46 20 0 15 7 26 20 30 22 7 42
67 34 101 -8 30 -142 131 -200 151 -24 8 -44 19 -44 25 0 6 -11 7 -26 4 -24
-6 -36 3 -112 81 -47 48 -95 105 -108 125 -35 56 -80 95 -179 154 -59 36 -99
54 -121 54 -29 0 -34 4 -45 37 -8 24 -10 66 -6 122 4 47 2 92 -2 100 -14 22
-38 6 -46 -31 -4 -18 -12 -41 -17 -51 -9 -17 -13 -14 -46 24 -47 55 -64 84
-92 154 -20 52 -70 20 -108 -70 -28 -69 -41 -294 -18 -327 23 -33 4 -48 -63
-49 -31 0 -78 -5 -106 -10 -27 -6 -65 -13 -83 -16 -19 -3 -39 -15 -48 -28 -10
-15 -28 -25 -52 -28 -115 -14 -282 -81 -282 -113 0 -8 -19 -27 -43 -42 -23
-15 -78 -54 -122 -86 -44 -33 -88 -61 -97 -61 -23 -2 -110 -61 -198 -134 -40
-34 -76 -61 -81 -61 -4 0 -11 -17 -15 -37 -5 -28 -19 -49 -56 -82 -47 -41
-120 -132 -144 -176 -5 -11 -20 -20 -31 -19 -22 0 -86 -56 -168 -147 -22 -24
-47 -51 -57 -59 -73 -66 -75 -70 -68 -112 7 -36 3 -47 -39 -117 -25 -42 -52
-89 -60 -104 -8 -15 -31 -46 -50 -69 -20 -23 -59 -79 -86 -126 -28 -47 -55
-84 -60 -83 -18 2 -14 75 6 110 11 18 19 34 17 35 -46 21 -84 49 -97 71 -15
25 -15 27 12 46 28 22 35 52 15 66 -7 4 -29 13 -48 18 -32 10 -36 16 -53 75
-10 36 -24 119 -32 185 -8 66 -20 152 -26 190 -15 102 -14 203 4 255 15 40 15
46 1 61 -11 12 -26 16 -52 12 -35 -5 -39 -2 -59 34 -38 65 -105 127 -135 122
-7 -1 -35 7 -61 19 -27 12 -53 22 -59 22 -17 0 -114 48 -125 62 -6 7 -14 79
-18 159 l-6 146 35 54 c20 30 43 63 51 74 8 12 17 38 20 59 2 22 10 55 16 73
14 44 14 156 1 253 -6 41 -15 105 -20 142 -12 84 -51 156 -107 198 -24 18 -47
40 -51 49 -3 9 -10 70 -15 136 -5 66 -13 179 -18 250 -33 426 -33 433 -46 735
-4 80 -8 155 -10 167 -2 12 3 27 11 34 19 16 18 52 -4 80 -10 13 -21 32 -25
42 -3 9 -14 17 -24 17 -9 0 -27 10 -39 21 -23 21 -102 38 -116 24z m642 -4055
c0 -28 7 -64 15 -80 8 -16 14 -37 13 -47 -1 -10 3 -38 10 -63 28 -102 31 -117
36 -167 3 -29 2 -53 -2 -53 -4 0 -20 24 -36 53 -16 28 -48 81 -72 117 l-43 65
19 65 c10 36 23 79 28 97 6 17 8 34 5 37 -7 7 6 26 18 26 5 0 9 -23 9 -50z
m2744 -333 c16 -28 51 -74 78 -101 52 -52 51 -48 32 -122 -7 -27 33 -117 60
-135 13 -8 50 -14 96 -14 54 -1 74 -5 72 -13 -1 -7 2 -21 8 -31 7 -14 5 -23
-9 -35 -9 -9 -21 -16 -26 -16 -4 0 -62 -27 -129 -59 -334 -163 -549 -256 -572
-247 -30 11 -12 69 35 117 26 26 66 80 66 89 0 3 10 19 21 35 24 35 37 94 38
180 1 55 4 63 39 100 21 22 48 60 58 85 11 25 29 63 39 85 10 22 26 61 35 88
9 26 20 47 23 47 4 0 20 -24 36 -53z m290 -267 c59 -36 59 -76 -2 -67 -39 7
-72 32 -72 57 0 36 24 39 74 10z m106 -395 c0 -54 29 -129 73 -190 44 -62 69
-134 69 -199 0 -43 -3 -52 -28 -70 -81 -57 -108 -121 -64 -148 30 -19 25 -35
-19 -63 -22 -13 -54 -45 -71 -70 -25 -36 -35 -44 -53 -40 -12 3 -94 7 -182 9
-292 7 -439 17 -456 32 -12 11 -18 42 -23 127 -7 122 -9 140 -24 267 -6 47 -7
88 -3 92 4 5 63 28 131 52 112 39 294 118 375 162 17 9 62 32 100 52 39 19 86
43 105 53 35 18 35 18 52 -4 10 -12 18 -40 18 -62z m180 -600 c0 -3 -9 -23
-20 -45 -11 -22 -20 -53 -20 -69 0 -39 -9 -61 -26 -61 -8 0 -13 3 -12 8 1 4
-1 28 -6 55 -7 45 -6 49 26 81 30 30 58 45 58 31z m-4290 -2765 c19 0 20 -6
20 -134 0 -134 0 -135 -26 -155 -33 -26 -45 -18 -78 48 -19 37 -24 64 -25 145
-2 117 5 131 54 110 19 -8 44 -14 55 -14z m1625 -83 c17 -2 19 -8 17 -37 -2
-19 -7 -38 -10 -42 -10 -9 -182 -14 -182 -5 -1 5 25 28 57 53 41 32 64 43 78
39 11 -3 29 -7 40 -8z m-155 -12 c0 -7 -55 -55 -77 -69 -17 -9 -79 43 -66 55
12 11 143 24 143 14z m-1951 -195 c20 -17 22 -26 17 -58 -11 -58 -27 -102 -38
-102 -17 0 -148 106 -148 120 0 5 14 11 31 15 17 4 33 13 36 21 5 13 9 12 25
-3 18 -16 19 -16 25 5 7 27 21 27 52 2z m653 -57 c23 -27 48 -80 41 -87 -7 -6
-35 10 -92 52 l-34 25 29 13 c39 17 39 17 56 -3z m-1892 -255 c-1 -25 -66
-172 -78 -176 -24 -8 4 95 42 155 22 34 36 42 36 21z m-760 -171 c12 -39 30
-103 41 -142 12 -38 25 -80 30 -93 26 -66 -14 -272 -47 -239 -3 3 -9 48 -14
101 -4 52 -10 99 -13 104 -3 4 -9 31 -12 58 -6 53 -12 85 -21 124 -18 75 -15
178 6 165 4 -3 18 -38 30 -78z"/>
<path d="M2877 4305 c-37 -44 -38 -45 -14 -45 28 0 53 24 62 63 10 38 -4 33
-48 -18z"/>
<path d="M2500 4040 c-13 -9 -13 -10 0 -10 8 0 22 5 30 10 13 9 13 10 0 10 -8
0 -22 -5 -30 -10z"/>
<path d="M5852 896 c1 -10 8 -17 13 -17 15 1 12 24 -3 29 -9 3 -13 -2 -10 -12z"/>
<path d="M680 853 c-107 -20 -193 -47 -198 -62 -3 -10 2 -9 24 2 34 17 115 34
198 42 32 3 63 8 67 11 10 6 2 25 -9 23 -4 -1 -41 -8 -82 -16z"/>
<path d="M3050 803 c-132 -20 -210 -37 -210 -44 0 -12 -3 -12 130 11 63 11
130 20 148 20 17 0 32 5 32 10 0 10 -49 11 -100 3z"/>
<path d="M3045 730 c-46 -5 -28 -7 78 -8 86 -1 137 2 137 8 0 11 -116 11 -215
0z"/>
<path d="M3300 730 c0 -5 17 -10 38 -10 27 0 33 3 22 10 -20 13 -60 13 -60 0z"/>
<path d="M2935 724 c-5 -1 -27 -5 -47 -9 -24 -4 -38 -11 -38 -20 0 -8 -9 -15
-20 -15 -11 0 -20 -4 -20 -10 0 -13 16 -13 60 1 19 6 59 10 88 10 28 -1 52 4
52 9 0 6 -14 10 -31 10 -16 0 -28 4 -24 9 6 11 -5 20 -20 15z"/>
<path d="M3034 688 c-3 -4 45 -8 107 -8 62 0 109 3 105 8 -11 10 -206 11 -212
0z"/>
<path d="M3278 683 c7 -3 16 -2 19 1 4 3 -2 6 -13 5 -11 0 -14 -3 -6 -6z"/>
<path d="M3329 678 c-11 -7 -11 -8 1 -7 8 1 35 0 60 -4 70 -10 190 -13 190 -6
0 15 -232 30 -251 17z"/>
<path d="M3655 680 c-3 -5 1 -10 10 -10 9 0 13 5 10 10 -3 6 -8 10 -10 10 -2
0 -7 -4 -10 -10z"/>
<path d="M2915 640 c-8 -13 25 -13 45 0 12 8 9 10 -12 10 -15 0 -30 -4 -33
-10z"/>
<path d="M2810 621 c-8 -5 -60 -14 -115 -21 -55 -7 -104 -18 -110 -23 -6 -6
10 -7 45 -1 30 4 80 8 110 9 30 0 61 4 68 8 7 5 22 5 34 1 17 -5 20 -3 15 11
-4 9 -7 19 -7 21 0 7 -24 4 -40 -5z"/>
<path d="M2495 605 l-60 -14 55 6 c30 3 62 9 70 14 19 11 8 10 -65 -6z"/>
<path d="M2930 610 c-14 -5 38 -6 120 -3 80 3 147 7 149 9 9 8 -245 2 -269 -6z"/>
<path d="M3234 611 c3 -5 66 -10 138 -10 73 -1 181 -4 241 -7 63 -3 107 -2
107 4 0 5 -71 12 -157 15 -220 9 -335 9 -329 -2z"/>
<path d="M2390 590 c-24 -8 -23 -8 8 -9 17 -1 32 4 32 9 0 11 -5 11 -40 0z"/>
<path d="M2295 583 c-50 -5 -72 -23 -28 -23 44 0 93 11 93 21 0 5 -6 8 -12 7
-7 -1 -31 -3 -53 -5z"/>
<path d="M2520 570 c-8 -5 -12 -11 -9 -14 7 -8 49 5 49 15 0 12 -21 11 -40 -1z"/>
<path d="M6565 560 c-12 -13 -25 -18 -41 -14 -28 7 -163 -16 -171 -29 -3 -5
10 -7 33 -3 22 4 70 9 108 11 65 4 116 24 116 45 0 17 -26 11 -45 -10z"/>
<path d="M2454 554 c-5 -1 -26 -5 -46 -9 -21 -3 -38 -10 -38 -14 0 -9 97 6
120 19 12 7 10 9 -6 7 -12 0 -25 -2 -30 -3z"/>
<path d="M6295 522 c-34 -4 -60 -23 -29 -21 36 2 79 14 69 20 -5 2 -23 3 -40
1z"/>
<path d="M4910 440 c-8 -6 -34 -10 -57 -10 -23 0 -44 -4 -47 -8 -3 -5 -22 -9
-42 -10 -21 -1 -42 -7 -48 -13 -12 -12 71 -3 112 12 13 5 35 9 50 9 28 0 60
15 51 24 -2 3 -11 1 -19 -4z"/>
<path d="M4830 359 c0 -5 5 -7 10 -4 6 3 10 8 10 11 0 2 -4 4 -10 4 -5 0 -10
-5 -10 -11z"/>
</g>
</svg>
