<?xml version="1.0" encoding="UTF-8" standalone="no"?>
<svg
   xmlns:dc="http://purl.org/dc/elements/1.1/"
   xmlns:cc="http://creativecommons.org/ns#"
   xmlns:rdf="http://www.w3.org/1999/02/22-rdf-syntax-ns#"
   xmlns:svg="http://www.w3.org/2000/svg"
   xmlns="http://www.w3.org/2000/svg"
   xmlns:xlink="http://www.w3.org/1999/xlink"
   xmlns:sodipodi="http://sodipodi.sourceforge.net/DTD/sodipodi-0.dtd"
   xmlns:inkscape="http://www.inkscape.org/namespaces/inkscape"
   width="640"
   height="480"
   enable-background="new"
   inkscape:export-filename="C:\Users\Dale\Documents\Websites\www.cjmoseley.dev.cc\wp-content\plugins\t13ne\images\type\annex.png"
   inkscape:export-xdpi="96"
   inkscape:export-ydpi="96"
   inkscape:version="0.92.4 (5da689c313, 2019-01-14)"
   preserveAspectRatio="none"
   sodipodi:docname="annex.svg"
   version="1.1"
   viewBox="0 0 169.33 127"
   id="svg13768">
  <metadata
     id="metadata13770">
    <rdf:RDF>
      <cc:Work
         rdf:about="">
        <dc:format>image/svg+xml</dc:format>
        <dc:type
           rdf:resource="http://purl.org/dc/dcmitype/StillImage" />
        <dc:title></dc:title>
      </cc:Work>
    </rdf:RDF>
  </metadata>
  <defs
     id="defs13745">
    <linearGradient
       id="t13ne-c"
       inkscape:collect="always">
      <stop
         offset="0"
         id="stop13703" />
      <stop
         stop-color="#e6e6e6"
         offset="1"
         id="stop13705" />
    </linearGradient>
    <filter
       id="t13ne-a"
       x="-.25"
       y="-.25"
       width="1.5"
       height="1.5"
       color-interpolation-filters="sRGB"
       inkscape:label="Matte Bevel"
       inkscape:menu="Bevels"
       inkscape:menu-tooltip="Soft, pastel-colored, blurry bevel">
      <feGaussianBlur
         result="result6"
         stdDeviation="1"
         id="feGaussianBlur13708" />
      <feComposite
         in="result6"
         in2="result6"
         operator="in"
         result="result7"
         id="feComposite13710" />
      <feGaussianBlur
         in="result7"
         result="result3"
         stdDeviation="8"
         id="feGaussianBlur13712" />
      <feComposite
         in2="result7"
         result="result91"
         id="feComposite13714" />
      <feComposite
         in="result3"
         in2="result91"
         operator="in"
         result="result5"
         id="feComposite13716" />
      <feColorMatrix
         result="result4"
         values="0 0 0 -1 0 0 0 0 -1 0 0 0 0 -1 0 0 0 0 1 0 "
         id="feColorMatrix13718" />
      <feSpecularLighting
         in="result4"
         result="result11"
         specularConstant="2"
         specularExponent="45"
         surfaceScale="3"
         id="feSpecularLighting13722">
        <fePointLight
           x="-5000"
           y="-10000"
           z="20000"
           id="fePointLight13720" />
      </feSpecularLighting>
      <feComposite
         in2="result4"
         k1="1"
         operator="arithmetic"
         result="result10"
         id="feComposite13724" />
      <feComposite
         in="result5"
         in2="result10"
         k2="0.5"
         k3="1"
         operator="arithmetic"
         result="result8"
         id="feComposite13726" />
      <feComposite
         in2="result8"
         result="result9"
         id="feComposite13728" />
      <feBlend
         in2="result9"
         id="feBlend13730" />
    </filter>
    <radialGradient
       id="t13ne-b"
       cx="5235.9"
       cy="2507.8"
       r="6360.9"
       gradientTransform="matrix(.0096047 1.686 -1.5116 .0076748 8976.3 -7995.7)"
       gradientUnits="userSpaceOnUse"
       xlink:href="#t13ne-c"
       inkscape:collect="always" />
    <filter
       id="t13ne-d"
       color-interpolation-filters="sRGB"
       inkscape:label="Metal Casting"
       inkscape:menu="Bevels"
       inkscape:menu-tooltip="Smooth drop-like bevel with metallic finish">
      <feColorMatrix
         in="SourceGraphic"
         result="result1"
         type="saturate"
         values="0.37"
         id="feColorMatrix13734" />
      <feGaussianBlur
         in="SourceAlpha"
         stdDeviation="7"
         id="feGaussianBlur13736" />
      <feSpecularLighting
         specularConstant="3.88"
         specularExponent="8"
         surfaceScale="10"
         id="feSpecularLighting13740">
        <feDistantLight
           azimuth="225"
           elevation="17"
           id="feDistantLight13738" />
      </feSpecularLighting>
      <feComposite
         in2="result1"
         operator="atop"
         id="feComposite13742" />
    </filter>
  </defs>
  <sodipodi:namedview
     id="base"
     width="1048mm"
     bordercolor="#666666"
     borderopacity="1.0"
     inkscape:current-layer="g13766"
     inkscape:cx="328.62149"
     inkscape:cy="425.91857"
     inkscape:document-units="mm"
     inkscape:pagecheckerboard="true"
     inkscape:pageopacity="0.0"
     inkscape:pageshadow="2"
     inkscape:window-height="837"
     inkscape:window-maximized="1"
     inkscape:window-width="1440"
     inkscape:window-x="-8"
     inkscape:window-y="-8"
     inkscape:zoom="0.67660687"
     pagecolor="#ffffff"
     showgrid="false"
     units="px" />
  <g
     transform="translate(0,-170)"
     inkscape:groupmode="layer"
     inkscape:label="Layer 1"
     id="g13766"
     style="opacity:0.442">
    <g
       fill="url(#t13ne-b)"
       id="g13760"
       style="">
      <path
         transform="matrix(.007327 0 0 -.0077632 62.456 299.83)"
         d="m5521 11464c0-11 3-14 6-6 3 7 2 16-1 19-3 4-6-2-5-13z"
         filter="url(#t13ne-a)"
         inkscape:connector-curvature="0"
         id="path13748"
         style="" />
      <path
         transform="matrix(.007327 0 0 -.0077632 62.456 299.83)"
         d="m4925 10780c10-11 20-20 23-20s-3 9-13 20-20 20-23 20 3-9 13-20z"
         filter="url(#t13ne-a)"
         inkscape:connector-curvature="0"
         id="path13750"
         style="" />
      <path
         transform="matrix(.007327 0 0 -.0077632 62.456 299.83)"
         d="m5808 10663c6-2 18-2 25 0 6 3 1 5-13 5s-19-2-12-5z"
         filter="url(#t13ne-a)"
         inkscape:connector-curvature="0"
         id="path13752"
         style="" />
      <path
         transform="matrix(.007327 0 0 -.0077632 62.456 299.83)"
         d="m5790 10600c-8-5-10-10-5-10 6 0 17 5 25 10s11 10 5 10c-5 0-17-5-25-10z"
         filter="url(#t13ne-a)"
         inkscape:connector-curvature="0"
         id="path13754"
         style="" />
      <path
         transform="matrix(.007327 0 0 -.0077632 62.456 299.83)"
         d="m4531 974c0-11 3-14 6-6 3 7 2 16-1 19-3 4-6-2-5-13z"
         filter="url(#t13ne-a)"
         inkscape:connector-curvature="0"
         id="path13756"
         style="" />
      <path
         transform="matrix(.007327 0 0 -.0077632 62.456 299.83)"
         d="m4560 966c0-2 7-7 16-10 8-3 12-2 9 4-6 10-25 14-25 6z"
         filter="url(#t13ne-a)"
         inkscape:connector-curvature="0"
         id="path13758"
         style="" />
    </g>
    <g
       transform="matrix(-.0067633 .006307 .0063069 .0067635 112.12 180.17)"
       filter="url(#t13ne-d)"
       id="g13764"
       style="fill:#0b2822">
      <path
         d="m5539 4840-1576-5-48-30c-92-57-131-182-86-280 24-53 90-111 142-125 30-8 877-11 3188-8 2935 3 3152 2 3241-14 285-51 478-145 631-304 77-81 113-132 163-232 110-218 173-573 146-820-58-541-315-861-788-982-230-58 84-54-4267-57-2549-3-4022 0-4097 6-294 25-499 169-633 446-152 312-146 642 15 888 94 142 234 248 410 309l95 33 3090 3c2692 2 3101 0 3176-13 178-30 272-88 329-199l35-69v-166c-1-149-3-172-23-223-45-112-134-183-282-225-62-17-154-18-2110-18-1949 0-2047-1-2085-18-86-39-138-117-138-207 0-89 55-171 138-205 46-20 4097-25 4210-7 457 77 721 380 742 852 12 287-62 498-236 670-131 130-290 208-521 257-81 17-236 18-3215 18-3024 0-3133-1-3210-19-314-73-560-230-744-473-75-99-166-289-196-405-80-320-35-691 123-1004 90-179 262-379 410-477 101-67 239-131 357-164l100-28 4100-3c2929-2 4131 0 4210 8 265 26 538 109 729 221 396 232 629 600 712 1124 42 267 3 640-96 930-209 606-676 951-1375 1015-112 10-1617 10-4766 0z"
         inkscape:connector-curvature="0"
         id="path13762"
         style="fill:#0b2822" />
    </g>
  </g>
</svg>
