<svg width="1920" height="1080" enable-background="new" inkscape:version="0.92.4 (5da689c313, 2019-01-14)" preserveAspectRatio="none" sodipodi:docname="timeless.svg" version="1.1" viewBox="0 0 508 285.75" xmlns="http://www.w3.org/2000/svg" xmlns:inkscape="http://www.inkscape.org/namespaces/inkscape" xmlns:sodipodi="http://sodipodi.sourceforge.net/DTD/sodipodi-0.dtd" xmlns:xlink="http://www.w3.org/1999/xlink">
 <sodipodi:namedview bordercolor="#666666" borderopacity="1" gridtolerance="10" guidetolerance="10" inkscape:current-layer="layer3" inkscape:cx="1029.5275" inkscape:cy="617.2787" inkscape:pagecheckerboard="true" inkscape:pageopacity="0" inkscape:pageshadow="2" inkscape:window-height="837" inkscape:window-maximized="1" inkscape:window-width="1440" inkscape:window-x="-8" inkscape:window-y="-8" inkscape:zoom="0.37790086" objecttolerance="10" pagecolor="#ffffff" showgrid="false"/>
 <defs>
  <linearGradient id="linearGradient47802" inkscape:collect="always">
   <stop stop-color="#acf" offset="0"/>
   <stop stop-color="#fff" stop-opacity="0" offset="1"/>
  </linearGradient>
  <linearGradient id="linearGradient47425" inkscape:collect="always">
   <stop stop-color="#dde9af" offset="0"/>
   <stop stop-color="#052" offset="1"/>
  </linearGradient>
  <linearGradient id="t13ned" x1="239.12" x2="241.81" y1="287.24" y2="156.12" gradientTransform="translate(30.101 25.144)" gradientUnits="userSpaceOnUse">
   <stop stop-color="#fff6d5" offset="0"/>
   <stop stop-color="#250" offset="1"/>
  </linearGradient>
  <filter id="t13nej" color-interpolation-filters="sRGB">
   <feColorMatrix result="result1" values="0 0 0 0 0 0 0 0 0 0 0 0 0 0 0 0.21 0.72 0.07 0 0 "/>
   <feColorMatrix result="result9" values="1 0 0 0 0 0 1 0 0 0 0 0 1 0 0 0 0 0 2 0 "/>
   <feComposite in="SourceGraphic" in2="result9" operator="in" result="result4"/>
   <feFlood flood-color="rgb(0,0,0)" result="result2"/>
   <feComposite in2="result9" operator="in" result="result10"/>
   <feComposite in2="result4" operator="atop"/>
   <feGaussianBlur result="result8" stdDeviation="3"/>
   <feOffset dx="3" dy="3" in="result8" result="result3"/>
   <feFlood flood-color="rgb(219,173,62)" result="result5"/>
   <feMerge result="result6">
    <feMergeNode in="result5"/>
    <feMergeNode in="result3"/>
    <feMergeNode in="result4"/>
   </feMerge>
   <feComposite in2="SourceGraphic" operator="in" result="result7"/>
  </filter>
  <linearGradient id="linearGradient47427" x1="6324.4" x2="6406.7" y1="1662.9" y2="4749" gradientUnits="userSpaceOnUse" inkscape:collect="always">
   <stop stop-color="#afc" offset="0"/>
   <stop stop-color="#0a4" offset="1"/>
  </linearGradient>
  <filter id="filter47501" color-interpolation-filters="sRGB" inkscape:label="Emergence" inkscape:menu="Shadows and Glows" inkscape:menu-tooltip="Cut out, add inner shadow and colorize some parts of an image">
   <feColorMatrix result="result1" values="0 0 0 0 0 0 0 0 0 0 0 0 0 0 0 0.21 0.72 0.07 0 0 "/>
   <feColorMatrix result="result9" values="1 0 0 0 0 0 1 0 0 0 0 0 1 0 0 0 0 0 2 0 "/>
   <feComposite in="SourceGraphic" in2="result9" operator="in" result="result4"/>
   <feFlood flood-color="rgb(0,0,0)" result="result2"/>
   <feComposite in2="result9" operator="in" result="result10"/>
   <feComposite in2="result4" operator="atop"/>
   <feGaussianBlur result="result8" stdDeviation="3"/>
   <feOffset dx="3" dy="3" in="result8" result="result3"/>
   <feFlood flood-color="rgb(219,173,62)" result="result5"/>
   <feMerge result="result6">
    <feMergeNode in="result5"/>
    <feMergeNode in="result3"/>
    <feMergeNode in="result4"/>
   </feMerge>
   <feComposite in2="SourceGraphic" operator="in" result="result7"/>
  </filter>
  <linearGradient id="linearGradient47503" x1="6324.4" x2="6406.7" y1="1662.9" y2="4749" gradientUnits="userSpaceOnUse" inkscape:collect="always" xlink:href="#linearGradient47425"/>
  <filter id="filter47501-6" color-interpolation-filters="sRGB" inkscape:label="Emergence" inkscape:menu="Shadows and Glows" inkscape:menu-tooltip="Cut out, add inner shadow and colorize some parts of an image">
   <feColorMatrix result="result1" values="0 0 0 0 0 0 0 0 0 0 0 0 0 0 0 0.21 0.72 0.07 0 0 "/>
   <feColorMatrix result="result9" values="1 0 0 0 0 0 1 0 0 0 0 0 1 0 0 0 0 0 2 0 "/>
   <feComposite in="SourceGraphic" in2="result9" operator="in" result="result4"/>
   <feFlood flood-color="rgb(0,0,0)" result="result2"/>
   <feComposite in2="result9" operator="in" result="result10"/>
   <feComposite in2="result4" operator="atop"/>
   <feGaussianBlur result="result8" stdDeviation="3"/>
   <feOffset dx="3" dy="3" in="result8" result="result3"/>
   <feFlood flood-color="rgb(219,173,62)" result="result5"/>
   <feMerge result="result6">
    <feMergeNode in="result5"/>
    <feMergeNode in="result3"/>
    <feMergeNode in="result4"/>
   </feMerge>
   <feComposite in2="SourceGraphic" operator="in" result="result7"/>
  </filter>
  <linearGradient id="linearGradient47592" x1="6324.4" x2="6363" y1="1662.9" y2="5047" gradientUnits="userSpaceOnUse" inkscape:collect="always">
   <stop stop-color="#d5ffe6" offset="0"/>
   <stop stop-color="#0a4" offset="1"/>
  </linearGradient>
  <radialGradient id="radialGradient47600" cx="6758.3" cy="-1307.5" r="6399.1" gradientTransform="matrix(-1.548 -.1135 .033833 -.68895 17264 1640.8)" gradientUnits="userSpaceOnUse" inkscape:collect="always" xlink:href="#linearGradient47425"/>
  <filter id="filter47630" color-interpolation-filters="sRGB" inkscape:label="Emergence" inkscape:menu="Shadows and Glows" inkscape:menu-tooltip="Cut out, add inner shadow and colorize some parts of an image">
   <feColorMatrix result="result1" values="0 0 0 0 0 0 0 0 0 0 0 0 0 0 0 0.21 0.72 0.07 0 0 "/>
   <feColorMatrix result="result9" values="1 0 0 0 0 0 1 0 0 0 0 0 1 0 0 0 0 0 2 0 "/>
   <feComposite in="SourceGraphic" in2="result9" operator="in" result="result4"/>
   <feFlood flood-color="rgb(0,0,0)" result="result2"/>
   <feComposite in2="result9" operator="in" result="result10"/>
   <feComposite in2="result4" operator="atop"/>
   <feGaussianBlur result="result8" stdDeviation="3"/>
   <feOffset dx="3" dy="3" in="result8" result="result3"/>
   <feFlood flood-color="rgb(219,173,62)" result="result5"/>
   <feMerge result="result6">
    <feMergeNode in="result5"/>
    <feMergeNode in="result3"/>
    <feMergeNode in="result4"/>
   </feMerge>
   <feComposite in2="SourceGraphic" operator="in" result="result7"/>
  </filter>
  <linearGradient id="linearGradient47804" x1="235.25" x2="237.35" y1="229.04" y2="9.895" gradientUnits="userSpaceOnUse" inkscape:collect="always" xlink:href="#linearGradient47802"/>
  <linearGradient id="linearGradient47804-2" x1="235.25" x2="237.35" y1="229.04" y2="9.895" gradientTransform="matrix(.99982 0 0 1.1469 .046622 .3418)" gradientUnits="userSpaceOnUse" inkscape:collect="always" xlink:href="#linearGradient47802"/>
  <linearGradient id="linearGradient47804-3" x1="235.25" x2="237.35" y1="229.04" y2="9.895" gradientTransform="matrix(1.0215 0 0 1.2797 -6.1717 .65177)" gradientUnits="userSpaceOnUse" inkscape:collect="always" xlink:href="#linearGradient47802"/>
  <radialGradient id="radialGradient4344" cx="4995.6" cy="1502.6" r="5879.2" gradientTransform="matrix(-.024151 1.8022 -2.013 -.053309 8814.4 -8832.8)" gradientUnits="userSpaceOnUse" inkscape:collect="always">
   <stop stop-color="#64823d" offset="0"/>
   <stop stop-color="#112b00" offset="1"/>
  </radialGradient>
 </defs>
 <g inkscape:groupmode="layer" inkscape:label="Layer 3">
  <rect x="-1.4003" y="-2.0073" width="511.1" height="247.15" fill="url(#linearGradient47804)" opacity=".683" stroke="#fff" stroke-dasharray="0, 14.55299982000000014" stroke-width="1.323" style=""/>
  <g transform="matrix(.043101 0 0 -.035278 -132.03 355.67)" fill="url(#linearGradient47427)" filter="url(#filter47501)" style="">
   <path d="m6600 5228c0-9-13-27-29-41-17-14-27-27-24-31 3-3 0-12-6-20-7-8-10-20-6-26s-6-13-24-16c-28-6-33-13-51-71-11-36-20-71-20-79 0-26-20-14-26 16-4 16-10 27-15 25-9-6-44 54-36 62 3 2-10 30-29 60-19 31-34 60-34 65 0 4-4 8-10 8-5 0-10-6-10-14s-12-24-26-35-23-24-20-29c3-6-1-15-9-22s-13-16-10-20c3-5-9-20-27-34-24-19-28-26-15-26 19 0 22-17 7-40-12-19-11-20-50 78-30 77-45 100-56 89-2-2-12-41-22-87-15-68-20-79-30-67-10 11-10 16-1 19 8 3 7 13-5 36-9 18-14 37-11 42 3 6-5 25-18 42-14 18-32 48-42 67l-17 33-19-31c-19-32-33-39-44-21-17 28-40-9-64-104-7-27-19-62-27-79l-16-30-25 57c-14 31-29 56-33 56-9 0-30-56-30-80 0-10-6-23-14-30-12-9-19-3-40 37-14 26-25 40-26 31 0-23-20-24-20-1 0 15-2 14-15-3-11-13-15-14-13-4 1 8-16 47-40 85-23 39-42 63-42 53 0-9-13-27-28-40-16-13-27-29-25-35s0-14-6-17c-6-4-7-14-4-24 4-10-2-7-14 8l-21 25-17-40c-9-22-19-52-22-68-6-31-18-41-33-32-8 5-8 11 0 20 7 8 7 14 1 17-5 1-25 29-44 60l-34 57-23-31c-23-31-24-32-33-10-6 12-13 22-17 22-9 0-44-81-54-122-3-15-11-40-17-55l-11-28-13 25c-11 19-14 21-15 8 0-30-16-20-35 22-10 22-22 40-26 40-8 0-20-36-37-115l-9-40-12 30c-32 78-64 145-72 145-9 0-25-50-34-107-9-59-28-71-53-36-10 15-27 43-37 62l-17 33-20-33c-19-32-21-32-34-14-19 25-30 13-48-55-8-30-19-66-24-80-9-24-10-24-20 15-6 22-14 52-18 68-3 15-12 27-20 27-7 0-21 14-29 31-25 47-42 25-96-123-11-32-24-58-28-58s-16 19-27 43c-10 23-23 41-29 40-5-1-17-32-25-68-15-64-17-66-28-41-8 18-8 26-1 26s6 6-2 16-28 41-44 70l-30 53-30-37c-17-20-30-39-31-42 0-3-4-13-7-22-4-10-10-26-13-35-5-14-12-7-28 29-11 26-25 46-31 45-5-2-17-28-26-58s-18-49-18-44c-1 6-10 0-21-13l-19-23-14 26-13 26-26-56-19 38c-22 43-34 41-44-6-10-45-24-69-37-61-7 4-6 9 3 15 11 6 9 13-7 31-12 13-33 43-47 68-15 25-27 40-27 34 0-7-14-26-32-43-17-17-28-31-24-31 5 0 3-7-4-15-6-8-9-20-5-27 8-16-16 13-31 39-11 16-15 12-37-35-16-35-28-49-33-41-10 16-22-13-24-56-1-27-4-23-30 33-16 34-33 62-39 62-5 0-16-28-24-62l-14-63-18 35c-14 26-20 31-23 18-2-10-6-18-9-18s-12 8-19 18c-11 16-13 14-24-13-6-16-15-50-20-73-12-64-25-73-55-37-21 25-26 28-35 15-5-8-10-23-10-32 0-30-16-20-35 22-10 22-23 39-29 37s-21-36-33-76-24-75-27-78c-2-3-14 14-26 37s-26 40-33 37c-6-2-18-26-26-53-18-60-20-62-31-44-5 8-10 12-12 10-2-3-8-14-14-24-17-32-33-30-51 9-28 59-53 36-83-81-10-43-43-66-54-38-14 35-41-5-52-76-6-37-24-57-24-27 0 7-5 18-12 25-9 9-17 3-35-23-13-19-23-39-23-44 0-21-15-10-30 21-8 18-20 34-26 35-12 4-44-76-44-109 0-20-20-25-20-5 0 6-7 20-15 30-13 18-14 17-29-11-8-16-18-48-22-71s-8-41-10-41c-1 0-17 13-35 30-18 16-36 27-41 24-4-3-18-39-29-79-17-57-25-72-34-65-9 8-14 4-19-12-6-20-10-16-37 35-16 31-34 57-40 57-12 0-48-77-49-102 0-10-8-33-17-53l-17-35-22 27-23 28-15-37c-9-21-16-44-16-53 0-23-29-75-41-75-6 0-13 9-16 20-7 28-17 25-34-11l-15-31-18 41c-31 69-37 61-76-92-24-100-29-109-38-87-6 14-11 20-11 13-1-6-6-24-12-40l-10-28-23 45c-12 25-27 45-32 45s-16-21-24-46c-9-26-21-53-26-60-10-13-19-36-39-94-6-18-9-15-26 18-11 20-24 37-28 37-5 0-19-30-32-67-20-60-23-65-35-48-8 10-14 22-14 27 0 15-29 8-38-9-6-10-13-37-17-60-9-56-18-60-41-18-10 19-24 35-31 35-14 0-33-61-33-107 0-41-14-49-29-17-14 32-24 25-41-28-7-24-19-62-28-86-14-41-15-41-29-22-19 27-28 20-43-37-22-85-31-113-39-113-4 0-15 17-25 38-17 35-19 36-27 15-14-39-96-126-110-117-16 9-37-15-44-49-3-18-11-42-17-54-10-20-12-21-23-6-17 23-29 11-50-51-11-31-22-56-25-56-4 0-12 12-19 26-16 36-32 26-51-31l-16-48-29 56-30 56-26-57c-18-40-45-75-89-115-35-31-67-57-72-57-4 0-8-4-8-10 0-5 8-10 18-10 32 0 32-11 2-42-16-16-39-42-50-58-21-30-21-30-1-30 23 0 41-22 23-28-7-2-35-23-64-45-28-23-59-47-69-53-27-16-70-82-56-87 8-2 7-12-2-35-7-18-16-32-20-32s-15-21-26-46c-17-42-20-45-29-25-14 33-24 25-42-34-10-31-24-55-31-55-19 0-30-34-64-192-35-168-36-188-4-226 61-73 153-87 684-101 796-23 5557-32 9041-18 2474 10 2834 18 2952 69 59 25 98 69 98 109 0 34-53 291-69 332-6 15-17 27-24 27s-21 24-31 55c-18 59-30 68-42 33-6-21-9-19-26 22-11 24-24 48-31 52s-21 37-32 74-25 69-31 71-17-10-24-27c-15-37-19-34-46 38-22 61-39 75-49 43-11-35-23-23-30 29-4 28-15 60-25 72l-18 22-19-32-20-33-11 28c-6 15-16 45-22 66-11 34-40 53-40 25 0-33-15 12-34 104-11 57-25 102-31 100-5-1-15-17-21-35l-11-32-19 64c-21 72-38 85-55 47-7-14-15-26-19-26-3 0-14 25-25 56-21 62-33 74-50 51-10-14-12-14-23 4-7 10-12 29-12 42 0 28-28 70-44 64-7-3-34 39-65 99-51 99-71 123-71 89 0-19-40-99-46-92-2 2-11 31-20 63-18 72-27 82-46 55-15-21-16-20-30 21-9 24-21 62-28 86-17 53-27 60-41 28-17-35-25-25-33 38-11 96-28 111-60 51-23-42-32-38-41 18-4 23-11 50-17 60-9 17-38 24-38 9 0-5-6-17-14-27-12-17-15-12-35 48-13 37-27 67-32 67-4 0-17-17-28-37-17-33-20-36-26-18-20 58-29 81-39 94-5 7-17 34-26 60-8 25-19 46-24 46s-20-20-32-45l-23-45-10 28c-6 16-11 34-12 40 0 7-5 1-11-13-10-23-13-18-29 55-24 102-43 158-56 162-5 2-18-15-28-37l-19-41-16 31-16 32-15-23c-22-32-35-18-59 61-11 38-25 72-30 75s-17-6-26-21l-18-26-17 34c-10 18-18 42-19 53-1 38-38 106-56 103-14-2-24 19-50 100-17 57-35 106-38 109s-15-15-26-40c-12-26-24-47-28-47-5 0-18 21-31 48-21 42-25 45-33 27-5-11-20-28-33-37l-23-17-18 56c-11 31-24 58-31 60-7 3-21-25-34-66-13-39-26-68-30-64-3 5-14 32-24 62l-18 55-18-22c-17-22-18-22-24-2-3 11-11 20-16 20s-9 9-9 20c0 12-5 17-14 14-9-4-21 19-40 80-15 48-31 86-36 86s-14-15-21-33c-13-37-70-69-79-45-2 7-16 49-30 93l-26 80-21-39c-22-44-23-43-48 34-10 30-21 59-25 63-4 5-22-18-40-50l-33-58-30 98c-17 53-34 97-38 97s-15-21-24-47c-34-95-30-94-60-30-14 31-31 57-36 57s-15-11-21-26c-11-23-13-19-34 63-13 48-23 92-23 97-1 5-19-16-42-47-22-32-44-57-49-57s-16 23-25 50c-9 28-20 50-25 50-4 0-17-23-29-51-32-73-51-64-76 34-11 42-22 77-26 77s-12-21-19-47c-11-48-12-48-25-23l-13 25-13-28c-7-15-15-27-18-27-4 0-13 19-21 42s-20 43-26 45-20-17-31-43c-11-25-23-42-26-38-2 5-13 37-22 72-10 36-23 62-31 62-7 0-21-25-30-55-10-30-21-52-24-48-4 5-19 52-35 106-15 53-32 97-37 97-4 0-15-17-24-37-9-21-27-62-41-91-25-51-26-52-45-35-11 10-31 40-45 67-24 48-26 49-37 28-7-12-22-29-33-37-21-15-23-14-38 16-9 17-14 37-11 45 3 7 1 16-5 20-5 3-24 30-40 60l-31 54-20-26c-15-18-23-22-28-14-13 21-27 3-44-60-10-34-24-64-32-67s-14-13-15-22c0-9-6-1-13 18-17 47-32 49-47 7-16-46-25-45-36 1s-27 52-47 16c-8-15-16-26-16-23-4 29-47 132-55 132-5 1-17-20-25-46-8-25-18-46-21-46s-14 19-25 41c-17 38-19 40-28 20-5-11-13-21-17-21-13 0-40 45-29 48 5 2 1 20-10 43-11 21-19 42-18 47 4 11-64 131-74 132-4 0-10-9-13-20s-15-25-25-30c-11-6-17-17-14-25 4-9-1-18-11-21-9-4-14-12-11-20 3-7-6-19-18-28-13-8-40-50-60-92l-37-78-19 29c-11 17-25 43-31 58l-12 29-12-28-11-27-12 41c-7 23-17 42-21 42-10 0-41-73-41-97 0-31-16 0-40 75-13 41-28 71-34 69s-24-41-40-87l-30-84-15 46c-9 26-19 50-23 53-8 8-38-47-38-70 0-22-18-18-25 6-4 11-9 18-13 15-6-7-42 23-42 35 0 5 8 5 17 2 13-5 11 3-10 40-15 26-23 47-17 47s3 12-8 28c-11 15-30 47-42 72-20 40-24 42-31 24-4-12-19-30-33-41s-23-23-19-26c3-4 0-13-7-22s-10-18-7-21c3-4-8-18-24-32-17-14-26-28-22-31 5-3 4-24-3-46-7-24-14-34-17-25-3 8-16 48-29 88-12 41-27 74-33 75-5 1-21-32-35-73s-26-77-27-79-11 7-22 20c-15 18-16 25-6 27 11 3 9 11-6 37-12 19-18 39-14 45 3 5-5 25-18 42-14 18-32 48-42 67l-17 33-19-31c-10-17-25-31-32-31s-29 28-50 63c-20 34-37 55-37 45zm225-377c3-5 1-12-5-16-5-3-10 1-10 9 0 18 6 21 15 7zm1745-115c0-11-19-15-25-6-3 5 1 10 9 10 9 0 16-2 16-4z" fill="url(#linearGradient47503)" inkscape:connector-curvature="0"/>
  </g>
  <g transform="matrix(.043101 0 0 -.035278 -23.134 300.04)" fill="url(#linearGradient47592)" filter="url(#filter47501-6)" style="">
   <path transform="matrix(.86038 0 0 1.1212 4421.3 -2556.3)" d="m6600 5228c0-9-13-27-29-41-17-14-27-27-24-31 3-3 0-12-6-20-7-8-10-20-6-26s-6-13-24-16c-28-6-33-13-51-71-11-36-20-71-20-79 0-26-20-14-26 16-4 16-10 27-15 25-9-6-44 54-36 62 3 2-10 30-29 60-19 31-34 60-34 65 0 4-4 8-10 8-5 0-10-6-10-14s-12-24-26-35-23-24-20-29c3-6-1-15-9-22s-13-16-10-20c3-5-9-20-27-34-24-19-28-26-15-26 19 0 22-17 7-40-12-19-11-20-50 78-30 77-45 100-56 89-2-2-12-41-22-87-15-68-20-79-30-67-10 11-10 16-1 19 8 3 7 13-5 36-9 18-14 37-11 42 3 6-5 25-18 42-14 18-32 48-42 67l-17 33-19-31c-19-32-33-39-44-21-17 28-40-9-64-104-7-27-19-62-27-79l-16-30-25 57c-14 31-29 56-33 56-9 0-30-56-30-80 0-10-6-23-14-30-12-9-19-3-40 37-14 26-25 40-26 31 0-23-20-24-20-1 0 15-2 14-15-3-11-13-15-14-13-4 1 8-16 47-40 85-23 39-42 63-42 53 0-9-13-27-28-40-16-13-27-29-25-35s0-14-6-17c-6-4-7-14-4-24 4-10-2-7-14 8l-21 25-17-40c-9-22-19-52-22-68-6-31-18-41-33-32-8 5-8 11 0 20 7 8 7 14 1 17-5 1-25 29-44 60l-34 57-23-31c-23-31-24-32-33-10-6 12-13 22-17 22-9 0-44-81-54-122-3-15-11-40-17-55l-11-28-13 25c-11 19-14 21-15 8 0-30-16-20-35 22-10 22-22 40-26 40-8 0-20-36-37-115l-9-40-12 30c-32 78-64 145-72 145-9 0-25-50-34-107-9-59-28-71-53-36-10 15-27 43-37 62l-17 33-20-33c-19-32-21-32-34-14-19 25-30 13-48-55-8-30-19-66-24-80-9-24-10-24-20 15-6 22-14 52-18 68-3 15-12 27-20 27-7 0-21 14-29 31-25 47-42 25-96-123-11-32-24-58-28-58s-16 19-27 43c-10 23-23 41-29 40-5-1-17-32-25-68-15-64-17-66-28-41-8 18-8 26-1 26s6 6-2 16-28 41-44 70l-30 53-30-37c-17-20-30-39-31-42 0-3-4-13-7-22-4-10-10-26-13-35-5-14-12-7-28 29-11 26-25 46-31 45-5-2-17-28-26-58s-18-49-18-44c-1 6-10 0-21-13l-19-23-14 26-13 26-26-56-19 38c-22 43-34 41-44-6-10-45-24-69-37-61-7 4-6 9 3 15 11 6 9 13-7 31-12 13-33 43-47 68-15 25-27 40-27 34 0-7-14-26-32-43-17-17-28-31-24-31 5 0 3-7-4-15-6-8-9-20-5-27 8-16-16 13-31 39-11 16-15 12-37-35-16-35-28-49-33-41-10 16-22-13-24-56-1-27-4-23-30 33-16 34-33 62-39 62-5 0-16-28-24-62l-14-63-18 35c-14 26-20 31-23 18-2-10-6-18-9-18s-12 8-19 18c-11 16-13 14-24-13-6-16-15-50-20-73-12-64-25-73-55-37-21 25-26 28-35 15-5-8-10-23-10-32 0-30-16-20-35 22-10 22-23 39-29 37s-21-36-33-76-24-75-27-78c-2-3-14 14-26 37s-26 40-33 37c-6-2-18-26-26-53-18-60-20-62-31-44-5 8-10 12-12 10-2-3-8-14-14-24-17-32-33-30-51 9-28 59-53 36-83-81-10-43-43-66-54-38-14 35-41-5-52-76-6-37-24-57-24-27 0 7-5 18-12 25-9 9-17 3-35-23-13-19-23-39-23-44 0-21-15-10-30 21-8 18-20 34-26 35-12 4-44-76-44-109 0-20-20-25-20-5 0 6-7 20-15 30-13 18-14 17-29-11-8-16-18-48-22-71s-8-41-10-41c-1 0-17 13-35 30-18 16-36 27-41 24-4-3-18-39-29-79-17-57-25-72-34-65-9 8-14 4-19-12-6-20-10-16-37 35-16 31-34 57-40 57-12 0-48-77-49-102 0-10-8-33-17-53l-17-35-22 27-23 28-15-37c-9-21-16-44-16-53 0-23-29-75-41-75-6 0-13 9-16 20-7 28-17 25-34-11l-15-31-18 41c-31 69-37 61-76-92-24-100-29-109-38-87-6 14-11 20-11 13-1-6-6-24-12-40l-10-28-23 45c-12 25-27 45-32 45s-16-21-24-46c-9-26-21-53-26-60-10-13-19-36-39-94-6-18-9-15-26 18-11 20-24 37-28 37-5 0-19-30-32-67-20-60-23-65-35-48-8 10-14 22-14 27 0 15-29 8-38-9-6-10-13-37-17-60-9-56-18-60-41-18-10 19-24 35-31 35-14 0-33-61-33-107 0-41-14-49-29-17-14 32-24 25-41-28-7-24-19-62-28-86-14-41-15-41-29-22-19 27-28 20-43-37-22-85-31-113-39-113-4 0-15 17-25 38-17 35-19 36-27 15-14-39-96-126-110-117-16 9-37-15-44-49-3-18-11-42-17-54-10-20-12-21-23-6-17 23-29 11-50-51-11-31-22-56-25-56-4 0-12 12-19 26-16 36-32 26-51-31l-16-48-29 56-30 56-26-57c-18-40-45-75-89-115-35-31-67-57-72-57-4 0-8-4-8-10 0-5 8-10 18-10 32 0 32-11 2-42-16-16-39-42-50-58-21-30-21-30-1-30 23 0 41-22 23-28-7-2-35-23-64-45-28-23-59-47-69-53-27-16-70-82-56-87 8-2 7-12-2-35-7-18-16-32-20-32s-15-21-26-46c-17-42-20-45-29-25-14 33-24 25-42-34-10-31-24-55-31-55-19 0-30-34-64-192-35-168-36-188-4-226 61-73 153-87 684-101 796-23 5557-32 9041-18 2474 10 2834 18 2952 69 59 25 98 69 98 109 0 34-53 291-69 332-6 15-17 27-24 27s-21 24-31 55c-18 59-30 68-42 33-6-21-9-19-26 22-11 24-24 48-31 52s-21 37-32 74-25 69-31 71-17-10-24-27c-15-37-19-34-46 38-22 61-39 75-49 43-11-35-23-23-30 29-4 28-15 60-25 72l-18 22-19-32-20-33-11 28c-6 15-16 45-22 66-11 34-40 53-40 25 0-33-15 12-34 104-11 57-25 102-31 100-5-1-15-17-21-35l-11-32-19 64c-21 72-38 85-55 47-7-14-15-26-19-26-3 0-14 25-25 56-21 62-33 74-50 51-10-14-12-14-23 4-7 10-12 29-12 42 0 28-28 70-44 64-7-3-34 39-65 99-51 99-71 123-71 89 0-19-40-99-46-92-2 2-11 31-20 63-18 72-27 82-46 55-15-21-16-20-30 21-9 24-21 62-28 86-17 53-27 60-41 28-17-35-25-25-33 38-11 96-28 111-60 51-23-42-32-38-41 18-4 23-11 50-17 60-9 17-38 24-38 9 0-5-6-17-14-27-12-17-15-12-35 48-13 37-27 67-32 67-4 0-17-17-28-37-17-33-20-36-26-18-20 58-29 81-39 94-5 7-17 34-26 60-8 25-19 46-24 46s-20-20-32-45l-23-45-10 28c-6 16-11 34-12 40 0 7-5 1-11-13-10-23-13-18-29 55-24 102-43 158-56 162-5 2-18-15-28-37l-19-41-16 31-16 32-15-23c-22-32-35-18-59 61-11 38-25 72-30 75s-17-6-26-21l-18-26-17 34c-10 18-18 42-19 53-1 38-38 106-56 103-14-2-24 19-50 100-17 57-35 106-38 109s-15-15-26-40c-12-26-24-47-28-47-5 0-18 21-31 48-21 42-25 45-33 27-5-11-20-28-33-37l-23-17-18 56c-11 31-24 58-31 60-7 3-21-25-34-66-13-39-26-68-30-64-3 5-14 32-24 62l-18 55-18-22c-17-22-18-22-24-2-3 11-11 20-16 20s-9 9-9 20c0 12-5 17-14 14-9-4-21 19-40 80-15 48-31 86-36 86s-14-15-21-33c-13-37-70-69-79-45-2 7-16 49-30 93l-26 80-21-39c-22-44-23-43-48 34-10 30-21 59-25 63-4 5-22-18-40-50l-33-58-30 98c-17 53-34 97-38 97s-15-21-24-47c-34-95-30-94-60-30-14 31-31 57-36 57s-15-11-21-26c-11-23-13-19-34 63-13 48-23 92-23 97-1 5-19-16-42-47-22-32-44-57-49-57s-16 23-25 50c-9 28-20 50-25 50-4 0-17-23-29-51-32-73-51-64-76 34-11 42-22 77-26 77s-12-21-19-47c-11-48-12-48-25-23l-13 25-13-28c-7-15-15-27-18-27-4 0-13 19-21 42s-20 43-26 45-20-17-31-43c-11-25-23-42-26-38-2 5-13 37-22 72-10 36-23 62-31 62-7 0-21-25-30-55-10-30-21-52-24-48-4 5-19 52-35 106-15 53-32 97-37 97-4 0-15-17-24-37-9-21-27-62-41-91-25-51-26-52-45-35-11 10-31 40-45 67-24 48-26 49-37 28-7-12-22-29-33-37-21-15-23-14-38 16-9 17-14 37-11 45 3 7 1 16-5 20-5 3-24 30-40 60l-31 54-20-26c-15-18-23-22-28-14-13 21-27 3-44-60-10-34-24-64-32-67s-14-13-15-22c0-9-6-1-13 18-17 47-32 49-47 7-16-46-25-45-36 1s-27 52-47 16c-8-15-16-26-16-23-4 29-47 132-55 132-5 1-17-20-25-46-8-25-18-46-21-46s-14 19-25 41c-17 38-19 40-28 20-5-11-13-21-17-21-13 0-40 45-29 48 5 2 1 20-10 43-11 21-19 42-18 47 4 11-64 131-74 132-4 0-10-9-13-20s-15-25-25-30c-11-6-17-17-14-25 4-9-1-18-11-21-9-4-14-12-11-20 3-7-6-19-18-28-13-8-40-50-60-92l-37-78-19 29c-11 17-25 43-31 58l-12 29-12-28-11-27-12 41c-7 23-17 42-21 42-10 0-41-73-41-97 0-31-16 0-40 75-13 41-28 71-34 69s-24-41-40-87l-30-84-15 46c-9 26-19 50-23 53-8 8-38-47-38-70 0-22-18-18-25 6-4 11-9 18-13 15-6-7-42 23-42 35 0 5 8 5 17 2 13-5 11 3-10 40-15 26-23 47-17 47s3 12-8 28c-11 15-30 47-42 72-20 40-24 42-31 24-4-12-19-30-33-41s-23-23-19-26c3-4 0-13-7-22s-10-18-7-21c3-4-8-18-24-32-17-14-26-28-22-31 5-3 4-24-3-46-7-24-14-34-17-25-3 8-16 48-29 88-12 41-27 74-33 75-5 1-21-32-35-73s-26-77-27-79-11 7-22 20c-15 18-16 25-6 27 11 3 9 11-6 37-12 19-18 39-14 45 3 5-5 25-18 42-14 18-32 48-42 67l-17 33-19-31c-10-17-25-31-32-31s-29 28-50 63c-20 34-37 55-37 45zm225-377c3-5 1-12-5-16-5-3-10 1-10 9 0 18 6 21 15 7zm1745-115c0-11-19-15-25-6-3 5 1 10 9 10 9 0 16-2 16-4z" fill="url(#radialGradient47600)" filter="url(#filter47630)" inkscape:connector-curvature="0"/>
  </g>
  <rect x="-1.3534" y="-1.9604" width="511.01" height="283.46" fill="url(#linearGradient47804-2)" opacity=".683" stroke="#fff" stroke-dasharray="0, 15.58407335999999965" stroke-width="1.4167"/>
 </g>
 <g inkscape:groupmode="layer" inkscape:label="Layer 1">
  <path transform="matrix(.015598 0 0 -.011093 353.54 228.28)" d="m6006 11554c-15-9-62-40-103-69-41-30-95-62-121-71-57-21-82-47-82-86 0-79-51-91-123-28-53 47-64 49-73 15-13-53 27-107 109-145 59-28 72-49 50-80-12-17-23-21-47-17-46 7-54 1-86-62-31-62-64-91-104-91-64 0-96-38-96-115 0-67 33-142 99-225 33-41 58-76 56-79-2-2-24 1-49 8-57 14-73 8-80-35-10-52-41-67-128-62-93 5-132 23-136 63-2 16-13 42-24 57-24 35-106 84-118 72-24-24 94-288 150-339 36-32 52-72 44-110-5-31-2-39 26-65 18-17 67-48 109-70 93-50 114-66 135-111 9-19 36-58 61-86s45-56 45-61c0-15-33-18-130-11-94 7-160 24-160 42-1 30-271 197-317 197-59 0 14-145 76-152 36-4 71-60 71-113 0-61 17-80 68-71 53 8 53 3 6-100-21-47-38-103-42-139l-7-59-45-8c-49-8-201 7-232 23-10 5-18 15-18 22 0 26-103 107-136 107-15 0-16-8-11-67 8-84-6-142-48-190-42-49-102-79-208-102-166-36-139-50 98-52 99 0 205-5 235-10 136-23 132-23 176 9 48 35 57 33 42-9-22-62-120-119-438-254-144-61-184-84-201-117-8-15-7-24 7-39 23-26 41-24 94 11 25 16 48 30 53 30 4 0 12-12 18-26 9-26 12-26 67-21 103 9 192 61 192 112 0 42 52 67 127 62 72-5 118-29 150-77 33-48 30-75-9-86-18-6-34-18-36-27-5-24 47-70 97-87 22-7 49-22 60-34 32-34 56-176 30-176-42 0-202 37-239 55-115 57-266 95-378 95-108 0-112-4-112-105 0-108 3-115 45-108 26 4 47-2 92-27 106-59 135-71 192-82 80-15 98-23 113-55 13-27 17-28 103-34 50-3 107-12 128-19 34-13 38-18 35-45-2-24-7-29-23-27-59 11-79 7-91-17-18-35-32-41-99-41-59 0-200 14-258 26-26 6-28 9-23 39 6 28 2 36-24 59-17 14-70 46-118 71-111 57-228 142-380 274-149 129-155 133-125 73 20-39 23-56 18-98-6-51-6-52 26-63l31-11-7-108c-6-91-5-110 9-121 21-17 64-7 148 35 87 44 92 43 82-3-13-61-6-113 21-159 30-50 31-66 7-87-35-32-99-38-215-20-127 20-131 18-122-65 9-89 41-132 98-132 40 0 74-36 112-118 20-42 44-93 53-112 26-53 47-49 131 25 41 36 76 63 78 61s-14-41-35-88c-43-93-57-138-43-138 5 0 35 30 67 66 61 70 72 70 73 2 1-43 21-76 52-87 34-12 37-33 9-61-16-16-31-19-98-17-75 2-81 0-173-46-51-26-104-47-116-47s-52 16-90 36c-179 96-198 104-245 104-37 0-50-5-62-22-35-49-5-98 60-98 42 0 58-19 44-54-13-34 3-42 57-27 49 14 96 14 110 0 17-17-5-57-39-75-38-20-35-43 13-100 77-93 80-115 24-188-35-46-32-56 15-56 44 0 88 19 133 56 60 51 75 14 31-75-47-93-73-90-296 43-142 84-231 126-268 126-26 0-40-30-40-88 0-110 62-209 138-219 23-3 42-9 42-14 0-4-21-22-46-40-25-17-42-35-37-40 4-4 46-9 93-11 83-3 85-4 88-29 2-14-4-31-12-38-11-10-18-6-35 18-41 57-88 47-111-25l-12-34h-86c-119 0-212-22-306-71-65-34-86-40-118-36-34 5-39 3-44-19-4-14-4-38-1-54 6-28 5-29-18-20-90 34-139 77-112 98 6 5 37 12 67 16 79 10 132 39 185 102 27 31 55 54 66 54 24 0 104 37 120 56 9 12 5 14-24 14-45 0-67 28-67 85 0 49 26 107 80 183 37 51 39 58 24 69-17 12-16 56 1 96 14 34-14 16-139-90-293-249-366-301-451-324-45-13-87 3-93 34-3 16 2 17 45 11 45-5 51-4 65 18 9 13 35 30 58 38 48 16 90 61 90 96 0 61 88 127 171 128 50 1 62 13 34 36-30 25-17 59 50 130 63 67 83 105 71 136-4 11 3 19 24 27 35 13 36 18 10 42s-56 15-127-41c-171-134-325-210-463-231-71-11-90-7-90 20 1 52 147 198 212 213 55 11 262 251 228 262-5 2-59-17-118-42-109-46-268-89-373-101-70-9-83 3-68 61 17 64 28 69 82 38 35-19 62-26 104-26 66-1 87 18 79 67-12 71-16 151-8 163 5 7 42 16 83 21 42 5 85 13 96 20 58 30 69 77 28 109-21 17-22 21-9 26 9 3 24 6 35 6 10 0 19 5 19 11 0 18-50 4-166-47-58-25-112-43-120-40-22 8-17 62 10 92 13 16 38 33 56 39 24 8 36 20 44 46s23 40 64 63c56 29 82 68 82 119 0 48-16 43-115-33-86-67-126-89-192-106-32-8-94-30-139-49-128-55-177-41-94 26 47 38 84 109 100 194 19 93 63 167 90 150 12-7 50 22 50 38 0 24 57 81 103 102 57 27 70 42 56 67-15 28-37 22-113-29-95-64-310-173-341-173-23 0-25 4-25 45 0 44 5 53 54 92 10 9 13 23 9 48-5 32-4 35 19 35 56 0 178 111 178 162 0 32-41 20-129-37-47-31-96-58-110-62-36-8-61-32-61-59 0-62-36-71-95-24-21 17-42 30-46 30-5 0-9-15-9-33 0-38 23-64 87-96 24-12 43-28 43-35 0-19-25-38-47-36-36 4-43-1-63-40-23-46-50-65-102-74-44-8-58-29-58-83 1-50 30-114 80-170 22-25 40-49 40-53 0-5-15-3-34 2-42 13-66 5-66-21 0-36-27-51-93-51-77 0-108 15-119 58-8 30-75 92-100 92-32 0 35-167 97-239 36-42 45-60 45-90 0-46 15-61 118-116 45-24 82-51 89-66 7-13 31-46 54-72 23-27 39-51 35-54-8-8-134-4-176 6-19 4-51 23-71 42-43 41-214 133-234 125-11-4-12-12-5-37 12-42 36-66 72-74 32-7 58-52 58-98 0-34 18-46 56-40 34 6 34 5 25-20-6-15-20-45-32-68-11-23-24-63-28-88l-6-46-104 1h-104l-30 38c-29 36-99 81-110 70-3-3-3-31 0-63 12-125-40-169-250-215-15-4-27-11-27-16 0-6 54-10 138-10 75 0 166-5 202-11 91-15 108-14 142 11 38 28 46 20 21-22-22-39-114-88-314-169-149-59-195-90-179-120 14-25 34-24 78 6l37 25 16-21c14-18 24-21 60-17 25 3 66 14 92 26 38 17 48 27 54 52 7 36 33 50 94 50 76 0 139-44 139-97 0-16-6-23-20-23-26 0-36-25-19-47 8-9 38-27 67-40 58-25 72-48 72-114 0-26-5-39-13-39-40 0-141 25-207 50-139 55-317 79-348 48-13-13-16-116-4-134 4-6 21-11 39-12 18 0 61-17 97-37s90-40 125-46c50-9 65-17 82-40 19-27 25-29 89-29 84 0 120-14 120-47 0-25-11-29-40-13-24 13-47 4-53-20-8-30-52-34-177-19-107 13-115 16-115 36-1 32-31 59-103 94-86 40-162 92-303 205-65 52-120 94-123 94s4-16 15-35c16-26 19-44 15-70-6-32-4-36 20-45 27-11 27-11 20-86-10-114 6-124 112-74 35 17 68 30 72 30 5 0 6-24 3-54-5-44-2-61 16-89 27-44 27-53-4-73-29-19-113-21-184-5-64 14-74 7-69-50 7-65 30-99 69-99 41 0 73-35 114-125 24-53 40-75 52-75 10 0 43 20 73 45s57 45 61 45c3 0-10-30-28-67-49-101-43-120 15-55 49 55 62 57 62 13 0-32 25-71 46-71 17 0 19-31 2-48-7-7-40-12-78-12-54 0-78-6-139-35-40-19-79-35-86-35s-58 23-114 51c-120 60-168 70-194 41-33-36-19-59 48-79 25-7 30-14 27-36-3-30 4-32 61-16 43 12 77 4 77-16 0-14-10-25-44-49-22-15-16-30 39-95 19-24 35-46 35-51 0-4-11-24-25-44-30-45-32-66-5-66 30 0 91 27 117 52 32 30 45 13 28-35-20-58-44-80-80-73-16 4-86 37-155 75-148 81-216 107-236 90-18-15-18-90 0-134 22-51 60-85 96-85 40 0 38-13-5-40-19-12-33-26-29-31 3-5 36-9 75-9 59 0 69-2 69-17-1-48-42-63-175-63-124 0-190-13-267-51-32-16-73-29-93-29-33 0-35-2-35-35 0-25 8-44 25-61 14-14 25-26 25-28s-22-6-49-10c-57-7-84-32-79-73l3-28 76 2c74 1 76 1 72-21-5-22 0-28 127-181 57-67 83-131 60-145-17-10-38 0-193 97-180 113-252 142-264 106-3-7 19-37 48-68 34-36 46-55 36-55-21 0-37-30-37-69s10-44 46-20c16 10 39 19 52 19 29 0 30-41 1-81-24-35-18-49 22-49 28 0 69-29 69-50 0-5 19-14 43-21 93-25 91-63-6-84-16-3-36-19-50-40-48-74-156-87-208-25-35 42-63 38-67-10-4-43 13-103 34-121 9-7 35-12 61-10 25 1 51-4 60-11s30-45 48-83c48-107 98-137 152-95 15 11 28 19 30 17s-4-23-12-47c-8-23-15-45-15-48 0-2 19-2 42 1 51 7 97-11 149-58 65-59 113-85 182-99 76-16 87-22 87-42 0-37-196-82-306-71-31 3-73 16-97 30-85 50-406 122-431 97-12-12 15-42 117-128 52-44 73-68 65-73-7-3-55-16-106-29-51-12-92-24-90-25 2-2 38-17 80-35 93-38 128-64 128-94 0-28-35-46-89-46-23 0-48-8-62-19-20-16-21-21-10-35 20-24 60-20 146 15 75 30 103 31 124 5 17-21-4-32-114-61-155-40-172-66-119-174 15-29 32-71 39-94l12-42 63 4c53 3 64 0 76-17 8-12 28-22 47-24 28-3 32-7 35-36 3-27 10-36 38-48 19-8 34-20 34-28 0-25-39-63-87-86-95-45-219-4-356 116-80 70-143 114-164 114-6 0-19-8-29-17-13-13-15-28-11-73 8-77 40-146 90-198l42-43-30-27c-17-15-46-39-65-54-47-36-33-44 91-53 117-8 145-23 195-101 26-41 47-60 77-73 23-10 51-28 61-40 21-23 50-27 91-11 36 14 40 34 16 69-12 16-21 32-21 35 0 12 88 6 99-7 14-18-9-99-42-147-28-42-49-48-151-37-91 10-147-2-127-27 21-25 132-49 226-50 81 0 92-2 108-22 19-24 32-23 109 10 41 18 146 21 218 6 25-5 110-12 190-15 171-8 227-19 209-41-6-8-37-21-68-30-103-28-146-46-198-85-60-45-92-59-133-59-15 0-38-8-51-19-21-17-22-21-9-36 12-15 26-17 88-11 69 5 74 4 96-19 25-27 50-32 63-12 4 6 10 43 13 81l5 69 39-57c47-69 92-99 143-94 31 2 38-1 41-17 3-12-6-27-23-41l-27-21 58 1 59 1-2-37c-3-43-3-44 39-22 81 42 122 37 136-18 16-64 77-63 119 2 49 77 42 73 149 80 64 4 108 12 124 22s60 18 123 22c53 3 125 13 159 21 78 21 84 15 103-92 34-193 40-459 18-796l-6-97h122c67 0 131 5 142 10 25 14 24 28-10 232-66 383-90 717-55 766 18 26 56 28 163 10 82-14 96-7 111 56 28 111 30 117 52 114 15-2 36-30 73-97 28-52 60-98 70-102 51-18 134-39 156-39 28 0 103 33 113 48 4 7-11 16-36 23-99 27-138 41-163 60-30 24-26 35 15 44 32 7 36 15 19 47-27 51 21 33 122-47 104-82 135-93 197-69 39 14 43 18 27 25-11 4-36 8-56 8-19 1-44 7-55 15-50 38 53 51 251 34 84-7 80-4-41 31-78 23-137 58-142 84-3 15 6 17 70 17 42 0 107 9 149 20 43 11 101 18 134 17l60-2 3 31c6 64 22 69 238 73 218 4 225 1 157-59l-37-33 70 7c86 8 99-1 82-57-6-20-9-39-6-42s34 8 69 25c68 32 120 38 138 17 6-8 14-31 19-53 5-27 16-43 35-54 25-14 30-13 65 5 27 15 44 35 65 77 15 32 38 63 50 70 13 8 73 15 140 18 102 4 121 8 133 24 12 17 33 21 132 29 64 4 158 18 209 29 50 11 99 18 108 14 26-10 42-63 60-201 32-248 36-730 10-1057l-6-78h153c180 0 201 7 206 62 2 20-8 101-22 180-72 404-124 954-102 1072 15 79 58 91 216 58 47-10 93-16 103-14 25 5 44 48 58 128 12 72 33 124 49 124 19 0 53-48 94-135 50-105 89-155 120-155 12 0 49-9 81-21 72-25 136-21 196 13 52 29 47 50-14 65-27 6-53 13-58 15s43 2 107 2c105-2 117-4 130-23 19-26 35-26 100-2 73 28 139 35 214 21 36-7 154-17 263-24 127-8 202-17 210-25 17-17 2-24-111-55-101-29-144-48-207-96-27-20-60-33-99-40-60-10-86-23-86-46 0-19 30-25 115-22 71 3 79 1 92-20 17-24 57-30 69-10 5 7 11 43 14 80l5 68 43-55c54-71 94-96 149-93 24 1 45-1 49-4 11-12-6-43-33-61l-28-17 65 2 65 3-2-37c-1-21 1-38 6-38s29 9 55 21c26 11 61 19 78 17 31-3 36-9 57-61 8-22 17-27 44-27 42 0 72 22 97 70 11 21 25 42 32 47 7 4 62 10 121 13 77 4 111 10 117 20s43 16 127 21c66 4 147 15 182 24 71 18 84 13 100-38 43-139 56-558 29-927l-3-35 130 2c71 1 140 5 152 8 30 7 30 30-1 192-52 273-86 550-86 701 0 91 2 104 21 123 23 23 43 23 216 3 49-6 52-5 66 22 8 16 17 49 21 74 9 60 31 94 53 81 9-5 41-50 72-101 31-52 63-97 71-100 24-12 146-40 172-40 52 0 141 40 125 56-3 4-40 15-82 25-139 33-199 80-120 95 37 7 39 11 20 57-15 37 34 16 134-57 56-41 115-77 131-81 19-4 50 0 83 11 47 16 50 18 27 25-14 4-41 7-61 8s-47 10-60 20c-23 19-24 20-4 28 24 10 170 10 285 1l85-7-102 28c-56 16-118 37-139 48-41 21-63 47-51 60 5 4 59 11 120 14 62 4 129 12 150 18 21 7 68 11 104 9l67-3 11 37c5 20 16 43 23 50 9 9 73 15 232 19 121 3 222 8 226 12 4 3-5 20-20 37-28 34-32 59-15 91 9 17 17 19 49 14 47-8 74 5 157 79 35 30 73 58 85 62 29 9 38 22 38 58 0 79 115 163 203 150 55-9 141 62 237 193 13 18 22 35 19 37-3 3-54-6-114-19-220-49-359-72-388-64-15 4-41 19-58 33-47 40-70 41-167 11-108-34-184-41-236-22-71 25-56 37 46 37 108 0 153 16 225 80 53 46 63 48 127 19 73-32 166-7 151 40-8 25 37 63 132 110 54 27 81 45 77 54-2 7 18 39 46 71 74 85 94 128 91 200l-1 28-60-55c-68-63-136-93-232-103-76-7-184 14-255 49-62 32-77 50-69 82 8 33 40 33 103-1 43-23 55-25 115-20 81 7 148 32 148 54 0 9-12 29-27 44-26 27-27 30-15 76 17 62 69 148 109 179 20 15 38 42 47 71 18 53 48 237 44 260-2 11-32-10-98-68-122-108-222-181-313-230-81-44-177-80-213-80-25 0-54 34-54 62 0 16 6 17 54 12 50-6 55-5 71 19 19 29 9 59-26 78-35 18-14 21 65 9 92-15 101-10 110 62 4 28 12 60 17 70 13 24 64 24 124-2 68-29 72-25 26 25-56 61-52 80 17 80 39 0 57 5 66 18 9 11 27 17 54 17 48 0 99 38 126 94 22 46 22 46-24 104-92 115-92 241-1 326 35 34 41 72 12 81-55 17-225-91-426-270-156-139-237-195-282-195-26 0-34 5-39 24-11 44-1 60 40 67 74 12 77 62 6 113-27 20-50 42-50 50 0 25 26 37 68 30 45-7 107 16 159 60 48 41 51 63 12 95-22 19-30 33-26 44 8 22 42 21 96-3 60-28 63-26 56 24-6 38-4 47 14 62 27 24 27 34-2 34-40 0-69 28-65 63 3 30 6 32 52 38 54 6 72 23 82 77 5 24 2 38-9 50-23 22-72 5-182-64-49-31-115-68-145-81-30-14-98-49-150-78-95-53-203-95-246-95-16 0-24 7-26 22-2 19-13 25-53 33l-50 11 56 41c60 45 109 97 109 117 0 25 37 46 114 65 81 20 116 42 116 72 0 24 45 57 89 65 53 9 80 29 74 53-4 16 1 23 22 31 23 9 27 15 22 39-5 26-2 31 23 39 41 15 63 55 64 114 1 42-3 53-26 73-16 13-28 26-28 28 0 3 29 8 64 12 76 8 108 31 81 59-37 36-117 14-223-63-119-86-543-296-664-329-35-9-40-8-58 15-40 51-15 99 73 144 64 33 119 90 148 155 33 73 46 84 101 91 66 9 79 18 67 50-21 56 40 143 101 143 47 0 44 17-12 61-29 22-54 44-56 48-1 3 22 5 51 3 47-3 58 0 87 24 36 31 95 143 81 157-13 13-165-66-250-128-86-64-150-95-280-135-128-39-230-60-298-60-53 0-55 1-49 24 6 26-9 43-61 70-28 14-31 20-27 48 4 25-1 41-20 67-14 19-23 37-21 41s27 10 54 13c94 11 155 63 133 112-14 31-47 52-125 81l-62 23h76c86 1 413 54 477 77 81 30 51 37-133 29-162-7-175-6-181 10-9 22 19 45 54 45 36 0 96 37 117 72 17 29 17 31-4 59-24 32-23 34 23 92 23 29 30 48 31 85 1 61 7 69 64 94l46 20-39 32-39 33 47 7c31 5 46 12 46 22 0 21-56 101-80 114-41 22-60 12-84-42-28-64-48-83-101-97-43-11-90-41-173-108-54-44-77-52-84-31-4 10-17 10-64-1-103-25-173-25-236-1-63 23-108 55-108 75 0 16 59 35 108 35 50 0 125 43 172 99 29 36 49 51 66 51 14 0 53 14 87 32l62 32-40 8c-47 10-75 39-75 79 0 44 37 132 74 175 50 59 60 81 40 92-17 9-16 55 1 95 4 10 3 17-3 17-13 0-118-79-232-175-270-228-430-307-490-243-27 30-25 41 6 34 74-19 80-18 97 7 9 14 38 33 64 43 64 23 81 39 95 88 6 23 20 53 30 67 25 38 103 71 166 73 28 0 52 2 52 4s-9 15-20 29-20 33-20 41c0 9 31 48 70 87 73 76 92 109 83 144-3 14 0 22 11 26 53 17 50 14 31 35-36 39-72 27-198-68-137-102-340-190-464-199-60-5-74-3-78 10-10 23 18 66 77 123 74 71 105 92 150 104 28 8 61 33 116 88 80 80 150 174 133 180-5 2-60-17-123-42-147-58-307-97-405-99l-78-2 1 42c0 26 8 51 18 62 17 19 18 19 66-6 59-31 156-41 184-20 19 14 19 20 7 113-14 120-12 124 91 134 85 8 123 24 152 63l21 29-32 28c-35 31-33 40 8 40 15 0 31 5 34 10 14 22-53 8-159-35-150-60-166-61-166-14 0 36 56 99 87 99 23 0 43 18 43 40 0 21 34 52 87 79 24 12 49 34 58 52 19 36 16 83-5 86-8 2-53-24-100-58-105-75-145-96-212-110-29-6-96-29-150-50-97-39-148-49-148-27 0 6 26 36 59 67 61 59 73 82 106 214 18 72 58 132 81 123s44 5 61 38c25 50 62 83 119 106 61 25 73 45 45 74-20 20-20 20-73-14-151-95-375-203-411-198-45 6-30 110 19 128 25 10 26 13 20 56-5 41-4 45 13 39 43-13 162 70 198 138 33 64-18 59-133-14-43-27-99-56-126-65-38-12-49-21-54-42-10-48-23-72-39-72-21 0-68 25-84 44-21 25-51 20-51-8 0-33 43-82 84-96 19-6 41-19 51-30 25-28 4-50-45-50-35 0-41-4-62-42-25-45-49-62-115-78-33-8-43-16-52-41-20-58 4-123 81-212l50-58-51 7c-51 7-51 6-62-25-7-19-22-36-36-42-67-25-193 4-193 45 0 23-38 65-77 85-55 28-56 6-5-103 21-45 60-106 86-135 40-45 47-58 42-83-8-38 11-55 124-113 50-27 94-55 97-64s28-41 54-72c27-31 45-59 42-63-10-9-90-7-162 4-49 8-70 18-93 40-35 35-251 146-266 136-30-19 35-116 78-116 22 0 46-32 55-75 15-69 14-68 56-62 21 3 39 1 39-3 0-5-16-41-35-81-19-41-35-88-35-106 0-41-21-48-134-40-94 6-113 12-121 37-6 18-95 80-115 80-6 0-9-28-8-69 2-84-21-127-85-161l-44-23-69 58c-38 32-71 62-73 67s23 7 55 3c72-7 109 12 150 77 32 50 70 155 60 165-6 6-22 2-77-21-12-5-18-1-22 16-10 39-66 98-92 98-13 0-26-4-30-10-8-12 20-76 49-115l24-31-46-30c-26-16-76-55-111-87-97-88-270-166-486-220-195-49-256-46-247 12 4 31-3 40-68 84-32 21-35 26-32 66 3 33-2 51-23 83-14 22-24 45-22 52 3 7 27 16 53 20 94 12 174 72 174 128 0 44-86 111-177 138-24 7-43 17-43 22 0 4 46 8 103 8 75 0 149 9 282 35 219 43 276 59 299 84 16 18 16 19-10 25-15 4-99-1-188-10-173-18-216-13-216 25 0 26 20 40 73 50 57 10 109 48 131 96 17 36 17 37-9 75-31 44-33 37 39 138 23 34 28 51 27 98 0 73 9 88 69 119 28 14 50 31 50 39 0 7-18 26-40 41-46 32-50 45-16 45 52 0 86 12 86 31 0 43-98 169-132 169-25 0-53-34-68-83-17-58-44-92-82-106-82-31-119-54-206-130-91-79-114-92-127-71-10 16-51 12-129-11-54-16-85-20-130-15-71 7-180 59-210 99-19 25-19 28-3 44 10 11 43 20 87 24 98 11 158 46 229 134 33 40 65 70 77 71 10 1 30 5 44 9 31 9 130 67 130 76 0 4-19 9-41 12-66 9-84 35-83 115 1 79 25 139 97 245 26 38 47 72 47 78 0 5-9 18-19 28-20 20-19 26 4 114 4 15 3 27-2 27-14 0-124-93-297-254-240-222-375-316-475-332-36-6-43-3-71 24-16 17-30 35-30 41 0 14 31 14 66 0 34-12 74-4 74 16 0 16 41 46 90 65 65 25 110 83 110 142 0 71 125 158 227 158 29 0 53 4 53 9 0 4-9 20-20 34-36 46-27 76 51 163 85 95 111 141 107 192-3 34 0 38 30 47 36 10 40 24 14 48-43 39-94 18-223-93-127-109-311-210-463-254-99-29-153-33-181-12-18 13-17 15 5 62 34 72 192 228 248 245 55 16 111 66 192 169 61 76 119 166 120 183 0 16-39 5-139-42-173-80-344-130-501-146-87-9-98 2-81 79 6 29 18 62 26 72 13 18 15 18 42 2 60-37 100-51 164-56 59-4 69-2 89 18 19 19 21 29 16 64-3 22-9 82-12 131-8 111-5 115 110 125 93 9 131 25 170 70 34 41 33 55-9 97-19 19-35 37-35 39s13 4 29 4c37 0 61 9 61 22 0 22-82-2-199-56-145-67-163-72-180-52-29 35 25 150 77 162 44 10 72 33 72 58 0 33 36 75 81 93 69 27 116 107 102 174-9 46-19 42-155-67-102-83-156-113-240-136-39-10-114-38-167-62-116-53-153-62-170-42-10 12-1 26 51 78 72 72 102 127 118 219 29 163 76 258 122 243 24-7 52 16 69 59 23 60 60 98 127 130 91 44 105 76 49 111-20 12-23 10-141-74-90-64-299-182-371-209-62-24-75-15-75 51 0 60 22 105 52 110 21 3 23 8 21 65l-1 62 33-1c42-1 89 28 153 96 98 103 97 183-2 130zm-528-2170c26-18 30-65 6-85-14-11-30-9-106 10-98 25-163 49-155 57 7 8 154 32 197 33 20 1 46-6 58-15zm650-770c37-11-11-64-60-64-28 0-62 35-52 52 15 23 60 28 112 12zm729-492c-25-27-183-108-249-127-31-9-79-15-105-13l-48 3 45 13c84 23 110 39 110 67 0 20 8 29 37 41 48 21 106 32 172 33 52 1 53 0 38-17zm-2366-351c37-37 36-53 0-84-32-26-121-53-146-43-21 8-19 39 5 86 38 74 92 90 141 41zm189-111c22-22 26-60 8-78-17-17-84-15-101 3-20 19-11 50 21 75 31 25 47 25 72 0zm310-66c0-41-62-90-97-77-21 8-15 42 13 68 31 29 84 34 84 9zm1924-200c20-19 21-58 2-73-11-10-20-6-40 16-34 37-35 73-2 73 14 0 32-7 40-16zm1846-258c16-21 9-60-13-64-24-5-207 39-207 49s91 26 156 28c34 1 56-4 64-13zm-3840-56c26-36 23-64-7-68-37-5-68 59-41 86 18 18 24 15 48-18zm-242-12c34-32 30-91-7-129-49-48-109-32-131 35-9 27-8 42 4 70 24 59 85 69 134 24zm3613-160c-18-47-93-87-356-185-149-56-187-78-183-107 4-30 40-32 88-5l40 23 16-22c19-27 44-28 128-2 60 19 102 52 91 70-9 14 34 42 72 47 21 3 59 0 83-7l45-12-51-19c-28-11-82-45-120-77-102-84-178-131-226-138-49-8-68-19-68-43 0-13-89-72-152-99-4-2-52 31-108 73l-100 76 20 37c10 20 30 62 44 94 28 66 54 86 126 97 62 10 76 21 61 49-16 31-13 72 9 121l20 44 179-6c99-3 197-11 220-18 36-11 43-10 83 14 24 14 44 24 46 23 1-2-2-15-7-28zm-6e3 2c12-7 19-21 19-40 0-26-4-30-27-30-36 0-183 40-183 50 0 5 28 13 63 18 87 13 106 13 128 2zm6074-300c-3-5-15-10-25-10-53 0-17-58 50-80 57-19 82-50 88-110 5-58 12-56-108-35-47 8-86 15-86 15-1 0 1 20 3 44 7 56-11 110-43 131-38 25-35 26 119 54 5 0 5-3 2-9zm923-46c29-8 28-32-2-45-33-16-76-4-76 20 0 28 31 37 78 25zm-1790-173c-3-41-1-46 22-51 21-5 25-12 28-46l3-41-102-47c-136-63-147-63-179-4-24 45-24 47-7 82 11 24 38 50 84 80 38 24 81 58 98 75 28 30 30 31 43 14 8-11 12-37 10-62zm-3340-53c-3-7-22-25-44-40-74-52-134-53-134-3 0 35 42 54 118 55 47 0 63-3 60-12zm-1343-8c11-19-16-40-51-40s-49 12-40 35c6 17 81 21 91 5zm4343-42c21-21 15-67-12-79-34-16-66 3-66 39 0 33 16 52 45 52 12 0 26-5 33-12zm1072-102c0-20 23-26 92-26 77 0 141-18 133-38-3-7-5-18-5-23s-20-6-45-2c-29 4-45 2-45-5 0-42-72-52-231-31-96 13-117 23-64 33 48 9 74 36 68 70-4 19 0 27 13 32 11 3 26 9 34 14 18 9 50-6 50-24zm1695 4c-21-33-231-111-297-109l-43 1 55 17c40 12 58 24 68 43 17 35 76 55 170 57 34 1 51-3 47-9zm-6435-125c-36-27-50-31-50-16s42 41 64 41c16 0 13-5-14-25zm-240-105c-8-5-22-10-30-10-13 0-13 1 0 10 8 5 22 10 30 10 13 0 13-1 0-10zm613-42c9-5 17-18 17-28 0-24 13-27 61-15 19 5 34 0 56-19 56-47 152-26 222 48 41 43 51 45 51 10 0-38-14-58-70-98-50-36-61-61-38-84 18-18 46-15 79 9 37 26 89 27 131 2s47-43 11-43c-41 0-103-12-103-19 0-3 16-17 35-31 59-43 47-54-46-46-142 12-488 90-540 122-7 4-4 14 9 28 30 33 33 53 10 81l-20 26 27 40c24 37 29 40 58 33 18-3 40-10 50-16zm4070-17c9-35-52-71-118-71-42 0-50 12-32 46 9 18 30 32 63 43 53 19 78 13 87-18zm-4843-31c0-5-5-10-11-10-5 0-7 5-4 10 3 6 8 10 11 10 2 0 4-4 4-10zm4988-32c22-22 14-57-13-64-38-9-75 3-75 25 0 41 60 67 88 39zm-393-138c25-49 41-70 54-70 10 0 47 22 82 49s65 48 67 46-14-33-35-70c-36-63-42-68-108-97-38-16-88-30-110-31-36-2-40 0-40 23 0 28-34 50-77 50-47 0-40 17 32 76 39 31 75 65 81 75 5 11 12 19 14 19 3 0 21-31 40-70zm-6165 10c11-11 20-27 20-35 0-33-120-79-143-56-13 13 18 87 42 101 26 15 60 11 81-10zm8458-89c6-41-16-50-44-18-28 33-23 49 14 45 20-2 28-10 30-27zm-8302-6c23-35 4-57-45-53-42 4-53 29-25 59 24 26 50 24 70-6zm234-44c0-35-69-67-85-41-3 5 5 21 19 35 31 30 66 33 66 6zm1561-42c10-19 9-20-13-14-12 4-36 13-53 20l-30 13 42 1c33 1 45-4 54-20zm-43-101c15-15 16-38 2-38-18 0-60 32-54 41 8 13 38 11 52-3zm4863-71c-15-15-21-5-14 22 5 21 7 21 16 6 6-11 5-21-2-28zm-4764-4c-9-9-20-14-24-10-3 4 2 14 13 21 25 19 33 10 11-11zm-1862-168c14-13 25-33 25-45 0-29-44-70-74-70-28 0-66 42-66 72 0 25 44 68 70 68 12 0 32-11 45-25zm199 3c13-19 14-25 3-36-17-16-44-6-52 19-13 41 24 54 49 17zm2240-177c3-5-3-11-14-14-13-3-20 0-20 9 0 15 26 19 34 5zm6070-204c36-26-4-84-41-61-25 16-28 45-7 61 10 7 21 13 24 13s14-6 24-13zm-6326-119c23-23 14-68-19-99-38-35-104-56-125-38-32 26-7 64 81 123 45 30 47 30 63 14zm-2588-47c0-10-97-61-117-61-7 0-17 9-23 19-8 16-6 23 12 35 24 17 128 23 128 7zm2351-31c10-6 19-19 19-30 0-17-3-18-32-8-43 14-43 15-28 33s16 18 41 5zm-2778-151c30-16 37-28 37-67s25-52 100-52c42 0 52-4 66-25 13-19 21-23 44-18 21 4 37-1 56-16 15-11 32-21 38-21 35 0 92 26 126 56 21 19 41 31 44 25 12-19-14-61-54-86-42-27-49-45-26-64 11-10 25-8 62 9 42 20 50 20 82 8 48-18 53-38 10-39-18 0-41-4-51-7-16-7-14-10 14-31 39-29 24-43-36-35-117 16-318 56-375 75-141 46-279 142-295 206-9 37 18 71 62 78 21 4 43 8 48 10 18 6 26 5 48-6zm3077-349c8-5 12-12 8-15-10-10-49 5-43 16 8 11 16 11 35-1zm7535-286c44-28 68-57 79-92 6-19 2-25-29-38-39-16-173-21-237-9-20 4-44 15-52 24-15 16-15 19 1 33 10 9 43 28 75 43 31 15 64 35 74 46 23 25 42 24 89-7zm-10237-163c10-6 7-10-12-15-31-8-78 2-70 15 7 11 65 11 82 0zm-428-189c63-31 84-36 135-35 75 2 94-3 104-30 11-29-3-53-42-77-41-25-78-25-158 1-106 34-276 109-294 129-16 17-15 19 7 31 67 37 145 31 248-19zm149-308c23-29 20-44-8-44-26 0-44 25-36 50 8 27 19 25 44-6zm4651-484c0-25-50-60-85-60-47 0-46 24 3 49 40 22 82 27 82 11zm5590-23c0-41-235-96-289-68-24 13-27 33-7 50 32 27 296 42 296 18zm-10420-17c0-19-45-51-68-48-33 4-30 21 9 40s59 22 59 8zm4100-45c17-20 5-33-38-40-20-4-45-9-54-12-25-6-23 16 4 44 24 26 69 30 88 8zm-4124-197 36-32 58 32c55 31 110 42 110 23 0-27-155-101-210-101-17 0-49 9-72 21l-40 21-54-38-55-37-39 18c-76 34-73 51 15 79 54 18 169 44 197 45 10 1 34-13 54-31zm464-106c0-23-19-42-42-42-27 0-34 28-12 45 27 20 54 19 54-3zm9429-16c25-26 21-46-8-46-24 0-41 20-41 47 0 30 21 29 49-1zm-9615 1c15-11 17-17 7-35-6-12-17-22-23-22-21 0-99 51-93 61 9 14 89 11 109-4zm9591-103c20-21 15-36-16-51-32-16-83-3-88 22-7 40 71 61 104 29zm-1762-81c13-12-36-53-64-53-45 0-44 19 3 40 48 22 52 23 61 13zm-8018-35c36-16 31-28-12-28s-84 18-91 39c-4 11 4 13 36 7 23-3 53-11 67-18zm7396-28c25-14 24-35-3-54-28-20-62-20-78-1-9 11-8 18 7 33 15 16 32 26 51 31 2 1 12-4 23-9zm-7131-60c36-6 93-24 126-40 34-17 68-30 77-30 8 0 31 19 51 43l35 42-5-50c-6-49-5-50 25-62 43-16 40-39-6-47-85-14-306-18-426-7-143 12-190 29-185 64 2 18 13 24 52 31 34 6 50 14 53 27 10 36 86 47 203 29zm1291-59c-6-10-18-21-27-25-24-9-64-7-64 4 0 13 50 39 78 40 19 0 21-3 13-19zm-561-72c0-23-43-43-77-34-27 6-30 26-5 47 37 33 82 26 82-13zm5410-43c0-20-69-106-86-106-47 0 2 105 53 113 15 2 29 5 31 6 1 0 2-5 2-13zm-494-127c22-15 63-48 90-73l49-45-110 6c-95 5-113 3-127-11-16-15-18-15-33 8-21 31-14 42 30 50 44 9 49 18 30 56-29 56-4 60 71 9zm-1816 20c0-7-5-29-11-50-14-45 1-95 32-104 10-4 19-10 19-15 0-14-43-20-210-26-172-7-264 2-341 33-50 19-51 38-3 30 44-7 66 3 120 55 38 36 43 38 70 28 39-16 113-5 204 30 81 31 120 37 120 19zm-4030-37c0-38-90-146-107-129-13 13 12 72 46 108 41 43 61 49 61 21zm7386-324c-3-13-9-33-12-45-4-16 2-30 21-49 14-14 24-29 20-32-3-3-94-6-203-6-175-1-203 1-251 19-30 12-56 25-58 30-1 6 18 17 45 25 33 11 51 23 60 43 16 32 21 33 69 7 50-27 120-25 208 5 93 31 109 31 101 3zm-6424-154c-7-59-4-78 17-96 22-17 22-18 5-25-11-4-95-7-189-8-146 0-177 3-219 20-27 11-51 25-53 30-2 6 16 17 39 25 29 10 47 24 56 43 16 32 18 33 57 7 41-27 115-26 201 4 77 27 90 27 86 0z" fill="url(#radialGradient4344)" inkscape:connector-curvature="0"/>
  <path d="m-14.595 251.3c27.326-3.8454 48.946-23.45 74.721-32.046 19.132-18.664 47.656-15.251 71.189-22.542 27.996-4.6125 55.399 6.0974 83.265 7.7985 26.508 2.87 51.311 13.786 78.169 14.355 26.848 9.2122 60.746-15.836 81.005 3.2848 17.865 0.9292 40.278 2.8938 59.038 3.2642-8.4998 2.3228 0 0 38.126 0.73246 45.853 1.4586 104.26-16.679 111.62-9.8002 28.223-7.0218-33.149-3.4492-11.339-22.866 12.097-7.0797-14.63 8.6542 1.8854 12.525 9.4068 14.858 27.74 58.159-2.9052 56.467 12.55-2.6103 61.633-2.2054 47.025 16.292-22.79-4.63-33.223 12.329-27.292 18.143-13.441-12.543-27.579-14.156-35.118 2.0919-29.101 5.66-63.113-1.6848-84.586 17.013-65.633 13.68-132.91 16.364-199.82 15.356-72.796 0.80733-145.54-5.5227-217.65-14.957-27.31-2.3918-73.703 14.185-73.322-28.867-3.218-12.934 7.3505-24.562 5.9878-36.245z" fill="url(#t13ned)" filter="url(#t13nej)" stroke="#000" stroke-dasharray="0, 2.91041649" stroke-width=".26458" inkscape:connector-curvature="0" sodipodi:nodetypes="cccccccccccccccccccc"/>
 </g>
 <g inkscape:groupmode="layer" inkscape:label="Layer 2">
  <rect x="-7.6021" y="-1.9171" width="522.11" height="316.28" fill="url(#linearGradient47804-3)" opacity=".683" stroke="#fff" stroke-dasharray="0, 16.63947358" stroke-width="1.5127"/>
 </g>
</svg>
