<?xml version="1.0" standalone="no"?>
<!DOCTYPE svg PUBLIC "-//W3C//DTD SVG 20010904//EN"
 "http://www.w3.org/TR/2001/REC-SVG-20010904/DTD/svg10.dtd">
<svg version="1.0" xmlns="http://www.w3.org/2000/svg"
 width="1280.000000pt" height="524.000000pt" viewBox="0 0 1280.000000 524.000000"
 preserveAspectRatio="xMidYMid meet">
<g transform="translate(0.000000,524.000000) scale(0.100000,-0.100000)"
fill="#000000" stroke="none">
<path d="M7630 5120 l0 -120 -135 0 -135 0 0 -65 0 -65 -75 0 c-73 0 -75 -1
-75 -25 0 -22 4 -25 40 -25 l40 0 0 -60 0 -60 -127 0 c-327 -1 -2473 21 -2590
26 l-133 6 0 38 c0 20 -3 65 -6 99 l-7 61 -93 0 c-77 0 -94 -3 -94 -15 0 -13
-54 -15 -425 -15 -371 0 -425 2 -425 15 0 12 -17 15 -89 15 l-89 0 -7 -95 -7
-95 -87 0 c-62 -1 -299 -36 -858 -128 -602 -100 -770 -125 -760 -113 6 9 45
55 85 103 62 74 72 90 63 106 -10 20 -32 32 -55 32 -6 0 -59 -56 -116 -125
-57 -69 -108 -125 -113 -125 -11 0 -4 11 75 113 37 49 68 92 68 97 0 17 -31
32 -52 26 -13 -4 -65 -56 -116 -115 -60 -72 -101 -111 -119 -116 -30 -7 -46 8
-205 184 -63 69 -69 74 -92 63 -53 -24 -45 -45 68 -166 58 -63 106 -117 106
-120 0 -3 -43 -6 -94 -6 l-95 0 -3 -52 -3 -53 -447 -3 -448 -2 0 -685 0 -685
415 0 415 0 0 -43 c0 -24 -3 -85 -6 -135 l-7 -92 -152 0 -152 0 -156 -259
c-87 -142 -157 -261 -157 -265 0 -3 95 -6 212 -6 165 0 209 -3 200 -12 -7 -7
-12 -32 -12 -56 0 -40 -3 -44 -34 -57 -19 -8 -37 -23 -39 -32 -3 -10 -19 -77
-37 -150 l-32 -132 26 -33 25 -33 -25 -26 -24 -26 45 -148 c25 -82 51 -153 58
-157 6 -5 22 -11 35 -14 17 -5 21 -11 16 -23 -15 -35 -5 -54 88 -168 88 -109
99 -120 130 -120 18 0 40 6 48 13 13 11 23 8 65 -16 58 -34 56 -38 -6 -11 -55
25 -79 15 -79 -34 0 -43 7 -47 169 -115 101 -43 128 -50 143 -41 24 15 26 14
30 -11 2 -18 28 -33 138 -80 98 -42 143 -56 165 -53 24 4 32 1 40 -16 15 -33
259 -132 302 -124 25 4 32 3 27 -8 -7 -20 6 -27 159 -91 113 -48 140 -56 152
-46 9 7 16 11 18 9 1 -2 7 -13 13 -24 7 -12 64 -43 149 -79 113 -48 142 -57
157 -47 24 15 26 14 30 -11 2 -18 28 -33 138 -80 138 -58 164 -66 175 -48 11
17 44 11 55 -10 10 -19 21 -20 167 -20 134 0 159 2 176 17 18 17 19 17 28 0 9
-15 28 -17 165 -17 141 0 156 2 171 20 17 19 17 19 31 -2 15 -20 20 -21 171
-14 130 6 158 10 169 24 12 16 14 16 23 0 9 -16 28 -18 169 -18 140 0 160 2
169 17 9 17 10 17 28 0 17 -14 41 -17 170 -17 137 0 151 2 168 20 18 20 18 20
33 -1 15 -21 19 -22 170 -15 128 6 158 10 169 24 12 16 14 16 24 0 9 -16 28
-18 169 -18 140 0 160 2 169 17 9 17 10 17 28 0 17 -14 42 -17 171 -17 141 0
153 1 164 20 15 24 28 26 28 5 0 -23 42 -28 188 -20 102 5 141 11 154 22 16
14 18 14 24 -1 5 -14 27 -16 166 -16 141 0 162 2 174 18 13 16 15 16 25 0 9
-16 28 -18 164 -18 141 0 156 2 173 20 18 19 18 19 36 -2 18 -20 24 -21 170
-14 125 6 153 10 164 24 12 16 14 16 23 0 9 -16 28 -18 166 -18 134 0 159 2
176 17 18 17 19 17 28 0 9 -15 28 -17 165 -17 141 0 156 2 171 20 17 19 17 19
31 -2 15 -20 20 -21 171 -14 130 6 158 10 169 24 12 16 14 16 23 0 9 -16 28
-18 169 -18 140 0 160 2 169 17 9 17 10 17 28 0 17 -14 41 -17 170 -17 137 0
151 2 168 20 18 20 18 20 33 -1 15 -21 19 -22 170 -15 128 6 158 10 169 24 12
16 14 16 24 0 9 -16 28 -18 169 -18 141 0 160 2 169 17 9 17 12 16 41 -5 l31
-24 132 32 c155 36 177 44 177 65 0 18 4 19 29 3 16 -10 47 -5 166 22 127 29
149 37 158 57 9 21 12 22 27 8 16 -15 31 -13 170 21 123 29 153 40 157 55 6
22 7 23 33 7 16 -10 45 -6 161 22 136 33 162 44 171 72 3 9 10 8 23 -5 9 -10
23 -16 29 -14 6 2 73 19 150 38 122 30 139 37 147 58 9 23 10 23 23 5 15 -19
40 -15 288 47 28 7 41 18 54 44 8 19 13 39 9 44 -8 14 11 14 35 1 16 -9 36 4
127 81 121 103 153 136 153 162 0 10 8 17 20 17 13 0 38 27 79 88 32 48 69 92
82 97 22 9 24 16 24 80 0 65 2 70 22 73 22 3 26 13 47 104 4 16 10 28 15 28 5
0 17 7 25 16 15 14 15 18 0 44 -15 24 -15 35 -5 74 10 43 10 50 -9 73 -25 32
-25 39 0 60 11 10 20 27 20 38 0 12 5 26 11 32 8 8 5 17 -11 33 -15 15 -31 57
-47 119 -14 53 -31 103 -39 113 -14 14 -10 22 44 80 l60 63 25 -23 c14 -13 27
-20 30 -15 16 29 37 114 30 126 -4 7 -86 120 -182 250 -154 209 -177 237 -201
237 -23 0 -50 26 -166 158 -113 129 -134 158 -117 160 11 2 167 -8 346 -22
180 -15 333 -26 342 -26 11 0 7 13 -17 53 -18 28 -38 56 -46 60 -11 7 -11 12
2 26 14 16 16 61 14 381 -3 326 -5 364 -20 373 -12 8 -21 7 -32 -2 -14 -12
-16 -58 -16 -378 l0 -365 -36 23 c-33 20 -41 21 -86 10 -27 -6 -54 -11 -59
-11 -11 0 -10 55 1 90 7 21 8 19 9 -17 1 -36 4 -43 22 -43 32 0 52 61 53 160
1 91 -14 144 -45 161 -11 5 -19 16 -19 24 0 19 -42 19 -154 0 -143 -25 -234
-72 -282 -145 -35 -52 -26 -89 35 -150 58 -58 115 -79 241 -87 l95 -7 -130
-32 c-71 -18 -158 -40 -192 -48 l-62 -14 -61 70 c-57 66 -60 72 -45 88 15 17
4 43 -167 394 -101 207 -189 378 -196 381 -8 3 -57 -22 -110 -54 -53 -33 -104
-62 -112 -66 -11 -4 -43 26 -106 97 -49 57 -102 120 -117 140 l-28 36 95 68
c53 38 96 74 96 81 0 6 -11 24 -23 39 l-24 27 -100 -71 c-55 -40 -103 -72
-106 -72 -4 0 -11 9 -17 20 -9 18 0 32 69 113 45 50 81 100 81 109 0 17 -36
48 -55 48 -5 0 -44 -41 -84 -90 -41 -50 -78 -90 -81 -90 -3 0 -34 34 -68 75
-34 41 -68 75 -75 75 -7 1 -124 16 -262 34 l-249 33 -30 39 c-65 84 -166 175
-223 201 -148 68 -415 23 -542 -92 l-41 -38 -129 17 c-70 9 -183 16 -250 16
l-121 0 0 70 0 70 30 0 c25 0 30 4 30 25 0 21 -5 25 -30 25 l-30 0 0 65 c0 51
-3 65 -15 65 -12 0 -15 20 -15 120 l0 120 -660 0 -660 0 0 -120z m4249 -1853
c1 -4 -96 104 -216 240 -119 136 -226 259 -239 273 l-23 25 82 52 82 51 157
-317 c86 -174 157 -320 157 -324z m-11183 -1008 c3 -6 -10 -28 -30 -48 l-37
-36 22 48 c23 48 33 55 45 36z m47 -152 c-4 -7 -21 -32 -39 -57 -17 -25 -44
-70 -59 -100 -30 -59 -43 -55 -26 7 6 21 11 50 11 66 0 15 6 27 13 27 7 0 30
18 52 40 21 21 42 37 47 34 4 -3 5 -11 1 -17z m11761 -199 c5 -22 -14 -48 -36
-48 -12 0 -10 28 4 50 16 26 24 25 32 -2z m-11924 -168 c-5 -29 -10 -69 -10
-89 l0 -36 -15 29 c-9 18 -12 33 -6 40 5 6 12 27 16 46 10 51 16 72 21 67 2
-2 0 -28 -6 -57z m11995 -89 c3 -5 1 -12 -4 -16 -6 -3 -13 -26 -17 -50 -7 -50
-16 -55 -38 -23 -21 30 -20 47 6 75 23 24 43 29 53 14z m-71 -303 c-4 -18 -8
-43 -8 -55 -2 -52 -46 -24 -46 28 0 26 27 59 47 59 11 0 13 -7 7 -32z m-10290
-112 l183 -125 -13 -63 c-33 -155 -10 -318 67 -476 41 -85 63 -116 127 -180
42 -43 93 -90 112 -104 32 -24 34 -28 19 -43 -18 -18 -33 -13 -176 51 -28 13
-57 24 -63 24 -8 0 -9 13 -4 43 14 78 12 92 -18 95 -21 3 -32 -5 -58 -42 l-31
-46 -37 16 c-20 9 -53 22 -72 29 -19 7 -56 23 -82 34 -45 21 -47 23 -41 54 4
18 7 46 8 62 0 25 -4 31 -25 33 -20 2 -32 -6 -57 -42 l-32 -45 -93 40 c-51 22
-103 45 -115 50 -25 9 -27 24 -14 82 7 29 6 41 -6 52 -24 24 -40 18 -73 -30
-17 -25 -35 -45 -39 -45 -10 0 -94 33 -173 69 -63 27 -62 26 -47 90 7 31 6 47
-2 57 -9 10 -8 15 2 18 153 43 229 79 321 151 77 60 157 159 199 245 18 38 38
70 42 70 5 0 91 -56 191 -124z m10136 -160 c0 -6 -9 -22 -19 -36 l-19 -24 -7
37 c-4 20 -4 44 -1 53 6 15 8 15 26 -1 11 -10 20 -23 20 -29z m-1216 -71 c-39
-93 -4 -115 98 -61 124 65 155 49 150 -81 -5 -136 26 -148 120 -48 74 78 106
85 138 33 11 -18 20 -41 20 -50 0 -31 32 -98 51 -109 15 -8 24 -4 44 17 l25
27 0 -46 0 -45 -117 -28 c-65 -14 -121 -28 -125 -31 -4 -2 -20 21 -35 51 -41
85 -83 73 -83 -24 l0 -56 -120 -28 c-66 -15 -124 -25 -129 -22 -5 4 -17 26
-27 51 -13 35 -22 45 -40 45 -31 0 -39 -16 -36 -76 l4 -51 -64 -17 c-82 -22
-191 -46 -194 -43 -1 1 -11 23 -22 50 -37 85 -82 73 -82 -22 l0 -57 -112 -27
c-161 -39 -165 -38 -85 34 114 103 194 234 232 380 13 49 24 170 25 267 0 1
85 2 189 2 l190 0 -15 -35z m-1854 -78 c0 -138 47 -280 133 -406 41 -59 136
-152 192 -187 46 -29 46 -29 40 -74 -4 -25 -10 -48 -13 -52 -7 -7 -97 -11
-199 -9 l-61 1 -7 49 c-8 56 -24 76 -54 66 -14 -4 -23 -21 -31 -60 l-11 -55
-57 -1 c-31 0 -89 -2 -129 -4 -79 -4 -75 -7 -89 67 -3 21 -12 42 -19 48 -23
19 -52 -5 -59 -47 -14 -78 -4 -73 -147 -73 -155 0 -162 8 -59 69 237 141 378
397 368 665 l-3 86 103 0 102 0 0 -83z m-1687 -49 c6 -130 28 -213 89 -330 72
-139 213 -267 363 -332 65 -28 66 -27 -60 -30 l-70 -1 -13 57 c-22 90 -70 88
-87 -4 l-10 -53 -130 0 -129 0 -7 30 c-4 17 -10 43 -13 58 -6 24 -11 28 -34
25 -24 -3 -29 -9 -41 -60 l-13 -58 -67 -1 c-92 -1 -185 2 -189 6 -2 2 -9 27
-16 57 -18 83 -69 78 -82 -9 -3 -24 -12 -46 -18 -48 -24 -9 -246 -13 -251 -6
-2 5 21 18 53 29 193 71 359 240 432 442 32 87 55 233 46 290 -3 20 -3 40 1
43 3 4 59 7 123 7 l117 0 6 -112z m-1736 -1 c8 -274 177 -531 425 -647 85 -40
82 -57 -10 -62 -37 -2 -95 -2 -128 0 l-62 3 -13 57 c-22 89 -71 84 -84 -9 l-7
-49 -56 -1 c-32 -1 -91 -2 -132 -3 l-75 -1 -10 53 c-18 92 -66 90 -85 -3 l-11
-55 -129 0 c-124 0 -128 1 -134 23 -10 38 -7 44 36 72 196 130 320 362 322
602 l1 103 75 0 75 0 2 -83z m6334 66 c31 -18 33 -30 7 -46 -11 -8 -26 -3 -56
19 -23 16 -42 32 -42 37 0 14 62 7 91 -10z m-7971 -84 c0 -44 7 -112 16 -152
32 -148 146 -331 254 -412 39 -29 40 -32 34 -74 -10 -74 -3 -71 -144 -71
l-128 0 -7 43 c-10 56 -22 77 -45 77 -23 0 -37 -24 -46 -78 l-6 -40 -67 -4
c-36 -2 -95 -1 -131 2 l-64 5 -9 45 c-10 54 -27 74 -55 66 -15 -5 -23 -19 -27
-50 -4 -23 -10 -48 -13 -53 -4 -7 -59 -13 -130 -16 -139 -6 -132 -10 -146 78
-6 39 -5 41 44 74 101 68 202 196 257 326 28 65 53 189 53 260 l0 55 180 0
180 0 0 -81z m-3021 31 c29 -5 87 -10 127 -10 41 0 74 -3 74 -7 0 -5 -13 -23
-28 -42 l-28 -33 -55 22 c-30 13 -77 33 -106 46 -28 13 -57 24 -62 24 -6 0
-11 5 -11 11 0 6 8 8 18 5 9 -3 41 -10 71 -16z m10699 -26 c34 -23 107 -126
107 -150 1 -18 -6 -23 -40 -28 -22 -3 -50 -8 -62 -12 -19 -5 -25 1 -44 45 -20
49 -28 55 -56 52 -16 -2 -16 2 1 43 12 29 49 66 66 66 3 0 16 -7 28 -16z m194
-56 c-9 -9 -12 -7 -12 12 0 19 3 21 12 12 9 -9 9 -15 0 -24z m-2253 -579 c41
-10 86 -19 100 -20 20 -1 16 -4 -19 -15 -29 -9 -46 -10 -48 -4 -2 5 -33 10
-68 10 -35 0 -64 3 -64 8 0 4 -3 18 -7 31 -5 21 -4 23 13 17 10 -4 52 -16 93
-27z m-6973 -28 c28 -11 81 -25 118 -32 36 -6 66 -15 66 -19 0 -5 -32 -10 -72
-12 -59 -2 -81 1 -125 22 -35 16 -53 30 -53 42 0 22 3 22 66 -1z m558 -8 c-3
-16 -7 -34 -10 -40 -2 -10 -37 -13 -128 -13 -134 0 -175 13 -73 24 34 4 91 18
127 30 88 31 92 31 84 -1z m1268 -16 l58 -24 -63 0 c-36 -1 -65 4 -69 11 -13
19 -9 49 5 43 6 -3 38 -17 69 -30z m553 -7 c-3 -5 -16 -10 -28 -9 -21 0 -21 1
-2 9 28 12 37 12 30 0z"/>
<path d="M5370 4945 c0 -12 -14 -15 -64 -15 -48 0 -65 -4 -70 -15 -5 -13 -58
-15 -396 -15 l-390 0 0 -25 0 -25 390 0 c338 0 391 -2 396 -15 5 -11 22 -15
70 -15 l64 0 0 -45 0 -45 45 0 45 0 0 115 0 115 -45 0 c-33 0 -45 -4 -45 -15z"/>
</g>
</svg>
