<?xml version="1.0" standalone="no"?>
<!DOCTYPE svg PUBLIC "-//W3C//DTD SVG 20010904//EN"
 "http://www.w3.org/TR/2001/REC-SVG-20010904/DTD/svg10.dtd">
<svg version="1.0" xmlns="http://www.w3.org/2000/svg"
 width="1280.000000pt" height="1037.000000pt" viewBox="0 0 1280.000000 1037.000000"
 preserveAspectRatio="xMidYMid meet">
<g transform="translate(0.000000,1037.000000) scale(0.100000,-0.100000)"
fill="#000000" stroke="none">
<path d="M8276 10271 c-163 -109 -212 -127 -261 -95 -23 15 -27 15 -43 2 -9
-8 -82 -57 -162 -108 -80 -51 -147 -95 -149 -96 -2 -2 6 -15 18 -30 11 -15 21
-33 21 -41 0 -7 7 -16 15 -19 34 -13 14 -45 -69 -106 -47 -35 -87 -69 -91 -77
-3 -7 6 -33 20 -56 19 -33 29 -42 45 -38 23 6 33 -15 44 -88 7 -46 6 -48 -117
-246 -518 -831 -1045 -1557 -1607 -2213 -245 -286 -380 -432 -629 -680 -390
-389 -730 -674 -1081 -907 -230 -153 -219 -148 -338 -148 -61 0 -106 -4 -110
-11 -4 -5 -35 -27 -69 -48 -49 -29 -108 -49 -280 -94 -198 -53 -218 -56 -221
-40 -3 13 -13 18 -40 18 -156 0 -550 118 -1012 301 -213 84 -228 92 -217 110
8 13 8 22 1 29 -6 6 -180 18 -445 30 -239 10 -472 21 -519 24 -81 5 -88 4
-137 -24 -52 -30 -52 -30 -38 -57 8 -16 15 -34 15 -42 0 -8 8 -23 17 -33 16
-18 16 -23 -5 -92 -39 -134 -123 -315 -422 -911 -286 -572 -296 -590 -336
-612 -39 -22 -41 -26 -59 -103 -10 -44 -16 -82 -14 -85 3 -2 191 93 418 210
227 118 415 215 417 215 2 0 4 -168 4 -374 l0 -374 83 -6 c45 -3 235 -10 422
-16 187 -6 392 -13 455 -16 l115 -6 -3 479 -4 479 114 54 c817 384 2155 710
3693 899 635 79 1811 174 1841 150 6 -5 19 -35 29 -65 17 -53 17 -90 7 -578
-6 -286 -13 -741 -15 -1011 -4 -410 -7 -502 -21 -565 -19 -85 -31 -192 -41
-361 l-6 -115 177 -22 c97 -11 182 -26 187 -31 13 -13 217 -15 217 -2 0 4 71
-14 158 -41 136 -43 186 -53 372 -76 183 -23 215 -30 218 -45 4 -21 16 -22 32
-2 6 8 42 39 78 69 l67 54 867 156 c476 86 880 159 897 162 l31 7 0 1103 c0
1071 1 1104 19 1136 21 36 51 166 51 222 0 19 4 37 9 40 31 20 708 102 1231
151 327 30 605 55 618 55 12 0 22 5 22 10 0 6 -16 10 -35 10 -19 0 -35 4 -35
9 0 5 16 12 35 15 19 4 35 11 35 16 0 6 7 10 16 10 15 0 16 9 11 76 -4 41 -10
185 -14 320 l-6 244 -97 -6 -97 -7 -33 30 -34 30 137 13 c125 12 137 15 137
32 0 19 -5 19 -95 13 l-95 -7 0 127 0 127 79 -66 c91 -76 131 -89 54 -17 -29
26 -53 55 -53 63 0 8 -18 39 -41 69 l-41 54 5 113 c3 63 8 116 11 119 3 3 37
-18 75 -46 39 -28 73 -47 76 -42 3 5 -31 35 -75 66 l-80 56 0 61 0 60 53 -38
c28 -21 63 -46 76 -56 13 -10 28 -18 32 -18 22 0 2 19 -76 75 -78 55 -84 63
-85 95 l0 35 78 -78 c73 -73 99 -87 85 -49 -4 10 -42 56 -85 104 -62 68 -79
93 -76 112 3 25 3 25 92 -30 48 -30 91 -52 95 -49 3 4 -4 14 -16 22 -13 9 -23
26 -23 38 0 15 -24 44 -75 90 l-75 67 0 64 c0 35 3 64 7 64 4 0 27 -17 52 -38
82 -66 81 -66 81 -51 0 8 -20 28 -43 46 -81 62 -94 78 -89 112 2 17 6 31 8 31
1 0 30 -16 64 -36 33 -19 66 -34 73 -31 6 2 -24 25 -68 50 -99 58 -91 62 10 6
41 -22 75 -36 75 -30 0 8 -121 82 -153 94 -5 1 -7 17 -5 35 l3 33 58 -40 c53
-37 97 -53 97 -33 0 4 -36 32 -80 62 -72 50 -79 58 -80 88 l0 34 65 -46 c72
-50 85 -55 85 -28 0 10 -29 35 -75 65 -93 59 -103 90 -17 51 67 -31 95 -35 99
-14 2 9 -27 33 -78 63 -44 27 -79 51 -76 53 2 2 35 -14 73 -36 38 -22 72 -40
76 -40 23 0 -1 20 -72 60 -44 25 -80 50 -80 57 0 7 31 -6 69 -28 37 -21 71
-39 75 -39 14 0 5 19 -11 24 -10 4 -29 16 -43 27 l-25 20 32 -15 c35 -18 53
-20 53 -8 0 5 -32 21 -71 38 -65 27 -90 46 -76 60 3 3 38 -13 77 -36 39 -23
75 -39 78 -35 4 4 -1 12 -10 18 -9 7 -25 18 -35 25 -10 7 -3 5 15 -4 19 -8 36
-13 40 -10 8 8 7 9 -85 55 l-83 41 0 45 c0 25 5 45 10 45 6 0 37 -13 70 -30
61 -31 80 -36 80 -22 0 5 -35 25 -79 46 l-78 37 5 137 c2 75 6 138 7 140 2 2
33 -6 70 -17 37 -12 69 -21 70 -21 2 0 3 23 3 50 l-1 50 -96 31 c-98 31 -619
199 -1395 449 -239 77 -437 140 -441 140 -3 0 2 11 11 25 9 14 22 25 29 25 13
0 26 53 16 68 -3 5 -71 29 -151 55 l-145 46 -92 -14 -93 -14 -142 54 c-108 40
-147 51 -161 43 -17 -8 -18 -6 -11 29 9 49 11 52 32 46 19 -5 60 42 44 50 -29
16 -398 128 -411 124 -9 -3 -57 -19 -107 -37 l-91 -33 -189 63 c-104 35 -194
67 -200 71 -11 9 -339 117 -381 126 -13 3 -23 9 -23 14 0 18 24 59 35 59 12 0
55 53 55 67 0 5 -93 39 -207 77 -115 38 -212 70 -218 72 -5 2 -77 -40 -159
-95z m2215 -783 c-29 -6 -51 -6 -65 0 -16 8 -7 11 44 10 l65 0 -44 -10z
m-2771 -38 c0 -5 -4 -10 -9 -10 -6 0 -13 5 -16 10 -3 6 1 10 9 10 9 0 16 -4
16 -10z m-12 -113 c-8 -7 -77 -110 -153 -230 -76 -120 -140 -216 -142 -213 -2
2 25 48 60 102 35 55 104 164 153 244 56 91 90 138 92 126 2 -9 -3 -23 -10
-29z m10 -54 c0 -21 -4 -40 -8 -43 -4 -3 -69 -106 -144 -230 -75 -123 -141
-229 -146 -234 -7 -7 -10 2 -10 25 0 28 27 79 123 235 162 261 177 284 181
284 2 0 4 -17 4 -37z m3162 -1 c3 -3 -8 -2 -25 2 -16 4 -34 12 -40 17 -5 5 6
4 25 -2 19 -7 37 -14 40 -17z m80 -22 c18 -12 2 -12 -25 0 -13 6 -15 9 -5 9 8
0 22 -4 30 -9z m-150 -16 c0 -2 -7 -4 -15 -4 -8 0 -15 4 -15 10 0 5 7 7 15 4
8 -4 15 -8 15 -10z m197 0 c-3 -3 -12 -4 -19 -1 -8 3 -5 6 6 6 11 1 17 -2 13
-5z m-152 -14 c3 -6 -1 -7 -9 -4 -18 7 -21 14 -7 14 6 0 13 -4 16 -10z m200 0
c13 -6 15 -9 5 -9 -8 0 -22 4 -30 9 -18 12 -2 12 25 0z m-240 -22 c25 -12 45
-26 45 -30 0 -12 -13 -10 -38 8 -13 9 -30 13 -38 10 -21 -8 -34 1 -27 19 7 19
4 19 58 -7z m-3100 -15 c-5 -23 -240 -446 -280 -506 -11 -16 -13 -15 -17 12
-3 23 11 55 70 153 148 247 224 368 229 368 3 0 2 -12 -2 -27z m3250 -31 c-5
-5 -95 47 -95 54 0 3 22 -7 49 -23 28 -15 48 -29 46 -31z m0 30 c-3 -3 -11 0
-18 7 -9 10 -8 11 6 5 10 -3 15 -9 12 -12z m5 -78 c0 -18 0 -18 -57 16 -62 36
-56 57 7 25 28 -14 50 -32 50 -41z m-199 13 c20 -27 20 -30 3 -16 -10 9 -27
19 -36 22 -11 4 -15 12 -12 22 8 19 17 13 45 -28z m841 -265 c-20 -6 -602 287
-602 304 0 2 137 -65 305 -148 168 -84 301 -154 297 -156z m-272 219 l275 -88
3 -51 c2 -29 -1 -52 -5 -51 -9 0 -560 278 -553 278 3 0 129 -39 280 -88z
m-552 -35 c28 -35 52 -66 52 -69 0 -3 -9 -3 -20 0 -11 3 -36 28 -56 57 -21 28
-41 53 -46 54 -4 2 -8 10 -8 18 0 23 23 5 78 -60z m407 -51 c110 -65 205 -123
210 -128 15 -14 -324 159 -377 193 -27 16 -48 37 -48 46 0 8 3 13 8 11 4 -2
97 -57 207 -122z m-3627 -310 c-124 -285 -143 -323 -146 -292 -3 30 26 104
140 366 125 288 143 325 146 292 2 -30 -25 -102 -140 -366z m3162 343 c0 -5
-4 -8 -10 -8 -5 0 -10 10 -10 23 0 18 2 19 10 7 5 -8 10 -18 10 -22z m668
-110 c201 -114 230 -133 219 -144 -4 -4 -453 258 -466 272 -16 18 51 -16 247
-128z m-447 85 c13 -16 12 -17 -3 -4 -10 7 -18 15 -18 17 0 8 8 3 21 -13z
m228 -130 c97 -69 178 -127 180 -129 6 -6 -66 24 -101 42 -15 8 -81 58 -145
110 -189 155 -183 153 66 -23z m-443 119 c13 -8 57 -92 49 -92 -3 0 -21 7 -40
14 -31 13 -35 19 -35 50 0 36 5 42 26 28z m974 -29 l60 -16 0 -69 0 -68 -65
32 -65 32 0 53 c0 29 2 53 5 53 3 0 32 -7 65 -17z m-4014 -275 c-7 -13 -72
-169 -142 -348 l-129 -325 -3 78 -3 78 142 335 c78 184 139 337 136 341 -4 3
-11 -5 -17 -18 -5 -13 -66 -157 -135 -319 -113 -269 -125 -291 -125 -248 0 38
25 104 143 373 l142 326 3 -125 c2 -95 -1 -131 -12 -148z m3151 247 c9 -24 -1
-27 -15 -5 -8 13 -8 20 -2 20 6 0 13 -7 17 -15z m-3332 -200 c-71 -149 -95
-191 -95 -168 0 21 32 91 91 203 51 94 93 169 95 167 2 -2 -39 -93 -91 -202z
m4405 83 c0 -43 -2 -78 -5 -78 -3 0 -32 14 -65 30 l-60 30 0 69 0 69 65 -21
65 -21 0 -78z m-995 52 l46 -59 -42 18 c-44 20 -61 40 -65 78 -4 37 11 27 61
-37z m-115 -14 c0 -2 7 -20 15 -41 l16 -37 -63 36 c-54 30 -63 40 -66 66 l-3
31 50 -26 c28 -14 51 -27 51 -29z m1284 -14 l149 -47 -2 -105 c-1 -57 -4 -106
-5 -108 -2 -2 -33 12 -70 30 l-66 32 0 83 c0 49 -4 83 -10 83 -6 0 -10 -32
-10 -75 0 -41 -2 -75 -5 -75 -2 0 -34 14 -70 32 l-65 32 0 83 c0 46 1 83 3 83
1 0 69 -22 151 -48z m-523 12 c28 -14 49 -28 46 -30 -3 -3 -29 8 -59 25 -65
37 -56 41 13 5z m-4192 -21 c-12 -21 -29 -45 -37 -53 -16 -15 -7 1 34 65 26
39 28 29 3 -12z m4116 -35 c92 -46 125 -67 125 -81 0 -10 -3 -16 -7 -14 -139
83 -249 150 -252 153 -14 13 23 -3 134 -58z m-647 27 c-3 -3 -9 2 -12 12 -6
14 -5 15 5 6 7 -7 10 -15 7 -18z m862 -5 c30 -16 51 -29 45 -29 -5 0 -35 13
-65 29 -30 16 -50 29 -45 29 6 0 35 -13 65 -29z m-680 -33 c0 -6 -11 0 -25 13
-14 13 -25 28 -25 33 0 6 11 0 25 -13 14 -13 25 -28 25 -33z m-227 -11 c29
-18 47 -35 47 -46 0 -17 -8 -15 -70 18 -56 30 -70 42 -70 61 0 22 1 22 23 9
12 -8 43 -27 70 -42z m607 -29 c117 -77 123 -81 95 -71 -22 8 -225 145 -225
151 0 5 4 3 130 -80z m127 -25 c46 -26 83 -53 83 -59 0 -7 -2 -13 -5 -13 -6 0
-227 150 -240 163 -5 5 10 -2 35 -17 25 -15 82 -48 127 -74z m173 68 c35 -18
60 -37 60 -46 0 -13 -5 -13 -32 4 -18 10 -48 28 -65 38 -18 10 -33 22 -33 26
0 12 6 10 70 -22z m-4337 -100 c-15 -27 -31 -50 -35 -50 -20 0 -5 73 25 121
l32 53 3 -37 c2 -26 -5 -52 -25 -87z m3572 108 c19 -8 25 -19 25 -41 0 -17 -1
-28 -3 -26 -2 2 -15 21 -30 42 -31 41 -30 43 8 25z m-46 -53 c0 -5 -9 1 -19
14 -11 13 -20 28 -20 35 0 6 9 0 20 -14 11 -14 20 -29 19 -35z m304 44 c23
-13 237 -188 237 -195 0 -9 -78 33 -110 60 -67 56 -163 146 -156 146 4 0 17
-5 29 -11z m-142 -93 c66 -84 62 -88 -26 -31 -52 33 -55 37 -55 76 0 22 4 39
9 37 5 -1 37 -39 72 -82z m677 28 c17 -10 32 -24 32 -31 0 -18 -124 52 -129
73 -3 15 0 15 30 -3 19 -11 49 -29 67 -39z m607 38 l50 -17 3 -122 c1 -68 -1
-123 -5 -123 -4 0 -35 15 -68 33 l-60 32 -3 108 c-3 122 -6 118 83 89z m-1411
-17 c9 -14 13 -25 8 -25 -5 0 -14 11 -20 25 -6 14 -10 25 -8 25 2 0 11 -11 20
-25z m-146 -23 l62 -32 0 -95 c0 -52 -3 -95 -6 -95 -4 0 -33 16 -65 36 -48 29
-59 40 -59 62 0 15 -3 58 -7 96 -3 40 -2 67 3 65 5 -2 37 -19 72 -37z m372 13
c13 -14 21 -25 18 -25 -2 0 -15 11 -28 25 -13 14 -21 25 -18 25 2 0 15 -11 28
-25z m-85 -12 l18 -28 -21 19 c-12 11 -22 23 -22 28 0 14 7 9 25 -19z m785 -3
c43 -22 60 -36 60 -50 0 -11 -3 -20 -7 -20 -21 1 -118 69 -121 83 -5 23 -1 22
68 -13z m-4582 -45 c-22 -36 -43 -63 -46 -61 -6 6 70 126 80 126 4 0 -11 -29
-34 -65z m5320 -81 c2 -49 0 -112 -3 -141 l-6 -52 -85 42 -84 41 0 127 0 127
88 -28 87 -27 3 -89z m-1723 116 c3 -5 1 -10 -4 -10 -6 0 -11 5 -11 10 0 6 2
10 4 10 3 0 8 -4 11 -10z m47 -7 c29 -35 33 -46 9 -34 -22 12 -47 51 -33 51 5
0 16 -8 24 -17z m612 -83 c128 -89 99 -89 -35 0 -68 46 -128 87 -134 92 -26
25 99 -43 169 -92z m176 67 c35 -21 56 -41 58 -55 3 -20 -1 -19 -62 16 -42 23
-66 43 -66 55 0 23 7 22 70 -16z m-4337 -109 l-28 -52 -3 41 c-2 30 4 51 25
85 l28 46 3 -34 c2 -23 -6 -51 -25 -86z m3902 94 c-3 -3 -11 0 -18 7 -9 10 -8
11 6 5 10 -3 15 -9 12 -12z m582 -14 c76 -41 75 -54 -1 -16 -36 18 -66 36 -66
41 0 10 -1 11 67 -25z m-4574 -116 c-21 -34 -41 -62 -45 -62 -22 0 -4 70 35
134 l42 71 3 -41 c2 -33 -4 -53 -35 -102z m185 36 c-24 -54 -44 -95 -47 -93
-2 3 15 48 39 100 24 52 44 94 46 92 2 -2 -15 -46 -38 -99z m3460 7 c32 -66
42 -98 40 -126 l-3 -38 -52 32 -53 32 0 98 c0 74 3 98 13 95 6 -2 31 -44 55
-93z m321 -38 c2 -5 -9 -2 -25 7 -25 15 -94 104 -94 121 0 8 114 -115 119
-128z m766 101 c60 -30 65 -35 65 -64 l0 -32 -70 40 c-56 32 -70 45 -70 64 0
13 2 24 5 24 2 0 34 -14 70 -32z m-4350 -190 c-26 -68 -87 -231 -137 -363 -49
-132 -94 -247 -99 -255 -5 -10 -9 9 -9 52 0 62 9 88 134 405 73 186 137 347
142 358 7 16 9 10 12 -27 2 -38 -7 -74 -43 -170z m3629 155 c74 -67 242 -245
208 -221 -34 23 -292 278 -281 278 4 0 37 -26 73 -57z m322 -101 c-9 -8 -95
45 -158 96 -38 31 -68 57 -68 59 0 2 52 -31 115 -74 63 -42 113 -79 111 -81z
m-616 127 c0 -6 -4 -7 -10 -4 -5 3 -10 11 -10 16 0 6 5 7 10 4 6 -3 10 -11 10
-16z m748 -41 c12 -6 22 -17 22 -24 0 -10 -8 -10 -37 3 -53 22 -93 52 -93 69
0 12 10 9 43 -11 23 -14 52 -31 65 -37z m-778 -11 c0 -47 -1 -47 -28 15 l-20
47 24 -11 c20 -9 24 -19 24 -51z m162 -4 c33 -20 64 -51 42 -42 -61 27 -136
73 -145 90 -13 24 -16 26 103 -48z m785 -30 c11 -28 -7 -24 -66 12 -40 24 -61
43 -61 55 0 17 7 15 61 -17 34 -20 63 -43 66 -50z m-397 -103 c98 -94 60 -65
-98 75 -50 44 -91 84 -91 88 -1 12 76 -55 189 -163z m90 160 c8 -5 12 -11 9
-14 -3 -3 -14 1 -25 9 -21 16 -8 20 16 5z m370 -26 c0 -2 -9 0 -20 6 -11 6
-20 13 -20 16 0 2 9 0 20 -6 11 -6 20 -13 20 -16z m-911 -128 c45 -76 79 -141
77 -143 -3 -3 -26 10 -51 27 -38 26 -54 47 -81 107 -21 46 -34 90 -34 115 0
23 2 39 4 37 2 -2 40 -67 85 -143z m74 -31 c65 -96 117 -177 117 -181 0 -3
-14 3 -31 13 -29 17 -61 65 -193 296 -16 26 -24 47 -19 47 6 0 62 -79 126
-175z m1037 145 c58 -29 60 -32 60 -70 l0 -39 -70 40 c-61 36 -70 44 -70 70 0
16 5 29 10 29 6 0 37 -14 70 -30z m-5009 -61 c-23 -35 -41 -58 -41 -50 0 18
74 134 78 122 2 -5 -15 -37 -37 -72z m4542 41 c36 -22 57 -41 57 -53 0 -15
-12 -10 -62 26 -34 25 -64 51 -66 57 -5 15 0 13 71 -30z m-240 4 c29 -15 73
-44 100 -66 37 -32 47 -46 47 -70 l0 -31 -47 44 c-133 120 -164 149 -158 149
3 0 29 -12 58 -26z m-4181 -114 c-46 -87 -52 -92 -52 -41 0 31 10 59 38 106
l37 64 6 -32 c4 -24 -2 -47 -29 -97z m3855 93 c34 -18 73 -47 86 -65 41 -55
228 -350 219 -346 -4 1 -37 20 -73 41 -61 37 -70 47 -187 224 -68 102 -120
184 -115 182 4 -2 36 -19 70 -36z m713 -9 c0 -8 -65 25 -68 35 -2 6 12 2 32
-10 20 -11 36 -23 36 -25z m-4482 -80 c-13 -30 -26 -54 -30 -54 -17 0 -6 63
20 116 27 56 27 56 30 24 2 -18 -7 -56 -20 -86z m4652 91 c28 -14 50 -30 50
-36 0 -9 -37 9 -95 48 -32 21 -8 15 45 -12z m-725 -5 c10 -11 16 -20 13 -20
-3 0 -13 9 -23 20 -10 11 -16 20 -13 20 3 0 13 -9 23 -20z m775 -80 c0 -16
-10 -13 -70 22 -46 27 -70 47 -70 59 0 15 10 12 70 -22 47 -27 70 -47 70 -59z
m-1230 -72 c0 -37 -3 -68 -6 -68 -3 0 -32 19 -65 41 l-59 42 0 73 0 74 65 -47
65 -47 0 -68z m860 120 c59 -41 86 -77 33 -43 -63 40 -103 70 -103 78 0 13 10
8 70 -35z m-439 6 c23 -14 39 -28 36 -30 -5 -6 -87 43 -87 51 0 9 10 5 51 -21z
m1064 -6 c65 -32 65 -32 65 -75 0 -24 -3 -43 -7 -43 -5 0 -35 15 -68 34 -57
31 -60 35 -63 74 -2 23 -1 42 2 42 3 0 35 -14 71 -32z m-5153 -124 c-29 -48
-41 -61 -46 -49 -13 34 -5 60 37 129 l42 71 3 -43 c3 -34 -4 -54 -36 -108z
m4688 121 c28 -14 50 -30 50 -35 0 -6 -2 -10 -5 -10 -7 0 -105 61 -105 66 0 8
11 4 60 -21z m-4167 -32 c-2 -27 -64 -216 -136 -421 l-132 -372 -3 60 c-3 55
6 84 128 407 72 191 133 354 135 361 9 25 12 10 8 -35z m4159 -10 c36 -24 58
-45 58 -56 0 -23 -2 -22 -73 28 -31 22 -57 46 -57 53 0 18 8 15 72 -25z m331
1 c26 -14 47 -31 47 -39 0 -20 0 -20 -69 21 -101 60 -86 72 22 18z m-483 -14
c54 -27 60 -34 60 -61 l0 -31 -62 52 c-93 77 -92 88 2 40z m-700 -39 c0 -11
-3 -11 -15 -1 -8 7 -15 24 -15 39 l1 26 14 -25 c8 -14 14 -31 15 -39z m307 39
c60 -36 332 -420 299 -420 -3 0 -60 71 -127 158 -68 86 -145 185 -172 220 -52
66 -52 74 0 42z m698 -12 c58 -29 65 -36 65 -61 0 -28 -1 -29 -22 -15 -13 8
-44 27 -70 44 -28 16 -48 36 -48 47 0 22 -1 22 75 -15z m575 -100 l0 -48 -85
42 -85 42 0 48 0 48 85 -42 85 -42 0 -48z m-5215 41 c-13 -30 -25 -47 -25 -39
0 22 44 121 48 106 1 -7 -9 -37 -23 -67z m4799 42 c84 -52 82 -69 -3 -27 -40
21 -71 43 -71 51 0 21 7 19 74 -24z m-5101 -53 c-24 -41 -39 -57 -41 -46 -4
19 70 136 76 119 2 -6 -14 -39 -35 -73z m4753 55 c-6 -6 -36 9 -36 18 0 5 9 4
20 -3 10 -7 18 -14 16 -15z m-905 -19 l49 -36 0 -69 c0 -77 4 -76 -67 -26
l-43 30 0 69 c0 37 3 68 6 68 4 0 28 -16 55 -36z m849 -108 l0 -39 -64 59
c-52 48 -64 65 -65 92 l-1 33 65 -53 c60 -49 65 -56 65 -92z m-4477 -21 l-38
-80 -3 51 c-3 44 3 62 35 120 l38 69 3 -40 c2 -31 -7 -61 -35 -120z m3671 126
c-2 -3 -12 3 -22 13 -16 17 -16 18 5 5 12 -7 20 -15 17 -18z m-3776 -133 l-43
-73 -3 43 c-3 37 4 55 40 115 l43 72 3 -42 c3 -35 -4 -55 -40 -115z m5153 121
c48 -26 59 -37 59 -57 0 -23 -1 -23 -22 -10 -13 8 -44 27 -70 42 -27 15 -48
34 -48 42 0 21 16 17 81 -17z m-261 -80 c0 -5 -26 4 -57 19 -79 37 -83 40 -83
63 0 16 10 13 70 -27 39 -26 70 -51 70 -55z m-4800 71 c-6 -11 -13 -20 -16
-20 -2 0 0 9 6 20 6 11 13 20 16 20 2 0 0 -9 -6 -20z m4589 -25 c47 -34 51
-40 51 -77 0 -45 -1 -45 -77 20 -42 35 -53 51 -53 74 0 36 7 34 79 -17z
m-4493 -96 l-24 -54 -1 40 c-1 22 9 63 21 92 l23 51 3 -37 c2 -24 -6 -57 -22
-92z m3645 111 c31 -25 12 -26 -21 0 -14 11 -20 20 -14 20 7 0 22 -9 35 -20z
m1219 -98 l0 -32 -70 46 c-59 40 -70 51 -70 75 l0 28 70 -42 c64 -38 70 -45
70 -75z m-5152 -45 c-18 -31 -36 -57 -40 -57 -5 0 -8 18 -8 39 0 28 11 58 38
103 l37 63 3 -46 c2 -37 -3 -57 -30 -102z m603 36 c-5 -10 -45 -129 -90 -264
-69 -209 -85 -249 -112 -275 -18 -16 -30 -22 -27 -14 3 8 55 155 117 327 61
171 112 318 113 325 1 7 3 -8 5 -34 2 -26 0 -55 -6 -65z m3100 66 c52 -37 59
-46 59 -75 0 -19 -3 -34 -7 -34 -5 1 -28 30 -53 65 -25 36 -51 65 -57 65 -7 0
-13 5 -13 10 0 16 9 12 71 -31z m313 -123 c26 -55 45 -101 43 -102 -2 -2 -40
22 -85 54 l-81 57 -1 73 0 73 39 -28 c31 -22 49 -49 85 -127z m430 41 c47 -53
86 -106 86 -117 0 -11 -2 -20 -4 -20 -4 0 -168 217 -181 240 -11 21 0 10 99
-103z m766 98 c14 -8 21 -14 15 -14 -5 0 -21 6 -35 14 -14 8 -20 14 -15 14 6
0 21 -6 35 -14z m-680 -119 c0 -13 -35 21 -83 79 l-41 50 62 -60 c34 -33 62
-64 62 -69z m60 89 c19 -19 32 -35 29 -35 -3 0 -20 16 -39 35 -19 19 -32 35
-29 35 3 0 20 -16 39 -35z m-886 -66 c51 -69 66 -99 50 -99 -3 0 -32 21 -65
46 -58 46 -59 48 -59 97 0 29 4 47 9 42 4 -6 34 -44 65 -86z m357 43 c19 -12
41 -34 48 -48 10 -22 10 -26 -1 -17 -7 5 -39 29 -70 52 -32 23 -58 47 -58 52
0 7 8 6 23 -3 12 -8 38 -24 58 -36z m864 2 c36 -25 65 -48 65 -50 0 -6 -11 0
-82 48 -52 35 -67 48 -53 48 2 0 34 -21 70 -46z m498 -2 c54 -31 77 -49 77
-62 0 -17 -3 -18 -27 -9 -16 6 -54 25 -85 42 -45 25 -58 37 -58 55 0 13 3 22
8 20 4 -1 42 -22 85 -46z m-5528 -62 c-41 -67 -55 -80 -55 -51 0 27 84 148 88
127 2 -9 -13 -43 -33 -76z m310 -35 c-23 -53 -35 -72 -35 -55 0 30 64 173 68
151 1 -9 -13 -52 -33 -96z m4573 57 c36 -31 52 -52 52 -69 l0 -24 -47 27 c-72
41 -83 53 -83 91 0 40 2 39 78 -25z m-4677 -34 c-22 -40 -41 -67 -41 -60 0 15
72 143 78 138 2 -3 -15 -37 -37 -78z m4827 37 l62 -40 0 -58 0 -58 -70 58
c-66 55 -70 60 -70 101 0 24 4 42 8 40 5 -1 36 -21 70 -43z m113 28 c13 -15
12 -15 -8 -4 -24 12 -29 21 -14 21 5 0 15 -7 22 -17z m269 -18 c0 -10 -16 -4
-40 16 l-25 20 33 -16 c17 -8 32 -18 32 -20z m-47 -29 c39 -23 47 -33 47 -57
l0 -29 -42 21 c-78 39 -98 58 -98 91 0 29 1 30 23 16 12 -8 43 -27 70 -42z
m-1387 -41 c3 -7 4 -42 2 -80 l-3 -67 -52 72 c-45 61 -53 80 -53 116 l0 44 51
-37 c28 -20 53 -42 55 -48z m-3560 28 c-2 -27 -13 -67 -24 -91 l-19 -44 -7 35
c-5 26 0 50 18 91 14 31 27 56 31 56 3 0 3 -21 1 -47z m3776 -10 c47 -36 71
-66 123 -155 36 -61 64 -112 63 -113 -2 -2 -42 25 -90 59 -85 60 -88 63 -128
151 -56 120 -56 120 -39 110 8 -5 40 -28 71 -52z m528 -8 c35 -36 62 -65 59
-65 -2 0 -34 29 -69 65 -35 36 -62 65 -59 65 2 0 34 -29 69 -65z m530 -23 c0
-22 -4 -20 -70 25 -38 26 -70 51 -70 55 0 3 31 -8 70 -25 57 -26 70 -36 70
-55z m-5147 -83 l-38 -64 -3 51 c-3 44 2 60 35 115 l38 64 3 -51 c3 -44 -2
-60 -35 -115z m108 -19 c-34 -72 -40 -80 -40 -54 -1 17 -3 44 -6 60 -4 22 5
47 37 104 l43 75 3 -50 c2 -41 -4 -65 -37 -135z m4270 98 c84 -107 87 -113 60
-99 -21 12 -142 181 -128 181 2 0 33 -37 68 -82z m1038 40 c41 -24 77 -49 79
-57 3 -8 -19 -1 -54 20 -33 18 -71 40 -86 49 -26 14 -37 30 -20 30 4 0 41 -19
81 -42z m-3641 -83 c27 -133 41 -335 23 -335 -8 0 -9 -5 -2 -19 10 -17 -5
-1586 -15 -1618 -2 -9 -29 -13 -89 -13 l-85 0 0 983 c0 847 2 991 15 1041 9
32 18 63 21 68 3 5 29 8 57 6 l52 -3 23 -110z m2457 24 c25 -38 25 -40 4 -29
-28 16 -109 97 -109 110 0 19 78 -41 105 -81z m-4017 -60 c-18 -43 -36 -79
-40 -79 -16 0 -7 60 18 116 14 33 31 70 37 84 11 25 11 25 15 -8 2 -22 -8 -61
-30 -113z m367 9 c-29 -34 -28 -54 3 -51 18 2 21 -2 19 -27 -1 -17 -5 -30 -9
-30 -3 0 -16 -30 -29 -67 -14 -44 -35 -81 -62 -110 -22 -24 -43 -43 -46 -43
-4 0 27 104 68 230 73 220 76 228 79 180 3 -43 -1 -56 -23 -82z m4085 97 c25
-30 3 -25 -26 6 -22 24 -24 29 -8 21 11 -6 27 -18 34 -27z m413 -23 c68 -49
58 -50 -13 -2 -33 22 -60 43 -60 46 0 7 13 -1 73 -44z m-5181 -111 c-21 -34
-42 -58 -45 -54 -19 19 -5 77 36 141 l42 67 3 -46 c3 -40 -3 -56 -36 -108z
m3792 97 c28 -23 53 -43 54 -44 6 -4 8 -74 2 -74 -3 0 -23 28 -45 62 -22 35
-48 71 -57 80 -32 32 -7 19 46 -24z m986 -101 c0 -25 -5 -22 -65 47 -36 41
-65 80 -65 86 0 6 29 -15 65 -47 50 -45 65 -64 65 -86z m-4802 94 c-12 -22
-24 -38 -26 -36 -5 4 37 75 44 75 3 0 -6 -18 -18 -39z m5272 -119 l0 -62 -27
17 c-16 9 -47 33 -70 51 -42 33 -43 36 -43 93 l0 58 70 -47 69 -47 1 -63z
m335 91 c11 -7 16 -13 11 -13 -11 0 -126 70 -126 77 0 5 76 -37 115 -64z
m-1481 -20 l78 -58 60 -133 c33 -74 58 -135 56 -137 -2 -1 -72 54 -155 122
l-153 125 0 79 c0 92 -10 92 114 2z m986 -41 c0 -2 -31 14 -70 35 -55 30 -70
43 -70 61 0 21 7 18 70 -34 39 -32 70 -60 70 -62z m251 77 c62 -42 73 -56 67
-84 -5 -26 -138 72 -138 102 0 13 2 23 6 23 3 0 32 -18 65 -41z m176 -8 c110
-68 111 -94 1 -41 -67 33 -84 45 -86 65 -2 14 -1 25 2 25 2 0 40 -22 83 -49z
m-5587 9 c0 -11 -33 -72 -72 -135 -69 -108 -87 -123 -88 -71 0 19 139 225 153
226 4 0 7 -9 7 -20z m3868 -60 c42 -64 52 -88 52 -121 l0 -42 -52 45 -53 45
-5 77 c-3 42 -3 76 0 76 3 0 29 -36 58 -80z m632 35 c50 -32 80 -60 104 -97
19 -29 33 -54 31 -56 -9 -10 -150 108 -180 149 -19 27 -33 49 -30 49 3 0 36
-20 75 -45z m441 -7 c35 -31 59 -61 59 -72 0 -16 -15 -6 -65 44 -59 59 -75 80
-59 80 3 0 32 -24 65 -52z m10 25 c13 -16 12 -17 -3 -4 -17 13 -22 21 -14 21
2 0 10 -8 17 -17z m-980 -26 c12 -22 12 -22 -10 -3 -11 11 -21 23 -21 28 0 14
19 -1 31 -25z m-3502 -183 c-20 -43 -23 -46 -27 -24 -8 48 5 155 24 195 l19
40 3 -81 c2 -66 -1 -90 -19 -130z m4076 13 c44 -66 82 -124 84 -129 2 -5 -27
12 -64 39 -57 41 -75 62 -122 143 -31 52 -63 106 -72 120 -14 21 -8 19 39 -14
44 -30 73 -65 135 -159z m-4361 113 c-21 -38 -40 -67 -43 -64 -7 7 62 134 72
134 5 0 -9 -31 -29 -70z m210 -90 c-36 -86 -44 -93 -44 -40 0 27 12 73 33 120
l32 77 3 -46 c2 -32 -5 -64 -24 -111z m4394 88 c46 -52 62 -77 62 -99 0 -27
-2 -28 -21 -17 -32 20 -101 117 -109 154 -4 19 -5 34 -1 33 3 0 34 -32 69 -71z
m-4458 50 c0 -7 -16 -52 -37 -101 -27 -64 -39 -83 -46 -72 -5 10 4 43 30 100
35 79 53 102 53 73z m4605 -48 c33 -33 57 -60 54 -60 -2 0 -31 27 -64 60 -33
33 -57 60 -54 60 2 0 31 -27 64 -60z m225 -48 l0 -34 -70 63 c-38 34 -70 66
-70 71 0 4 31 -9 70 -29 65 -35 70 -40 70 -71z m-5041 28 c0 -22 -14 -61 -38
-103 -34 -60 -39 -65 -45 -45 -12 47 -5 81 31 143 40 66 53 68 52 5z m3889 10
l42 -33 0 -85 0 -86 -58 91 c-50 77 -58 96 -54 127 3 25 8 34 16 28 6 -5 30
-24 54 -42z m-4019 18 c-7 -12 -26 -45 -44 -73 -18 -27 -44 -70 -59 -93 -15
-24 -30 -42 -32 -39 -5 4 135 227 143 227 2 0 -2 -10 -8 -22z m204 -178 l-38
-84 -8 69 c-8 68 -7 72 30 142 l38 72 8 -57 c7 -53 4 -64 -30 -142z m5287 58
l0 -48 -70 35 -70 35 0 60 0 60 70 -46 70 -47 0 -49z m190 0 c0 -16 -3 -28 -6
-28 -3 0 -42 25 -85 56 -67 47 -79 60 -79 84 l0 28 85 -56 c71 -48 84 -61 85
-84z m-50 117 c28 -14 50 -30 50 -35 0 -6 -2 -10 -4 -10 -7 0 -106 62 -106 66
0 8 12 3 60 -21z m150 -35 c36 -22 62 -40 58 -40 -15 0 -138 64 -138 72 0 14
13 8 80 -32z m-5828 -175 c-59 -98 -70 -112 -76 -93 -13 49 -4 74 67 186 l72
117 3 -48 c3 -43 -3 -57 -66 -162z m4998 150 c42 -42 54 -62 56 -90 2 -19 1
-35 -1 -35 -12 0 -125 145 -125 161 0 29 11 24 70 -36z m-262 9 c6 -4 21 -78
17 -82 -4 -4 -75 103 -75 113 0 4 24 -8 58 -31z m-4378 -116 c-37 -87 -50
-103 -50 -62 0 16 17 70 37 119 36 86 38 88 41 53 2 -24 -7 -61 -28 -110z
m4445 104 c-6 -7 -35 18 -35 31 0 5 9 2 20 -8 11 -10 18 -20 15 -23z m364 -35
c41 -39 51 -54 51 -80 l-1 -32 -69 75 c-38 41 -70 83 -70 93 0 16 2 16 19 5
11 -8 42 -35 70 -61z m-522 -257 c58 -99 104 -183 102 -185 -2 -2 -65 46 -139
107 l-135 110 -62 137 c-34 75 -62 139 -63 143 0 5 43 -23 96 -61 l96 -69 105
-182z m700 256 c30 -19 33 -25 33 -74 0 -30 -4 -52 -9 -50 -5 2 -37 29 -70 61
-52 50 -61 64 -61 94 l0 35 38 -23 c20 -12 52 -31 69 -43z m-677 -4 l75 -58 5
-67 c3 -37 3 -67 0 -67 -3 0 -42 57 -88 125 -45 69 -79 125 -75 124 5 0 42
-26 83 -57z m-4207 -197 c-15 -41 -31 -75 -34 -75 -3 0 -7 36 -8 79 -2 70 2
89 31 158 l33 78 3 -83 c2 -71 -1 -94 -25 -157z m3480 166 l37 -35 0 -86 -1
-85 -54 100 c-35 64 -55 112 -55 134 0 38 3 37 73 -28z m122 -51 c41 -64 43
-72 19 -50 -87 75 -94 84 -94 119 0 44 8 37 75 -69z m165 -32 c52 -71 150
-204 218 -295 67 -91 122 -167 122 -170 0 -15 -397 368 -421 406 -25 40 -29
56 -29 119 0 39 3 72 8 71 4 0 50 -59 102 -131z m648 57 c44 -62 54 -106 12
-52 -10 12 -37 47 -61 77 -44 54 -44 54 -12 35 18 -10 45 -37 61 -60z m852
-72 c0 -19 -3 -33 -7 -31 -5 2 -43 21 -85 43 l-78 39 0 48 0 48 85 -56 c79
-53 85 -59 85 -91z m-5548 120 c-25 -61 -76 -146 -79 -132 -4 16 67 149 79
149 4 0 4 -8 0 -17z m651 -15 c-3 -18 -10 -37 -15 -43 -10 -10 -2 50 9 68 9
16 12 5 6 -25z m3493 -100 l131 -107 53 -118 c30 -65 69 -152 87 -193 19 -41
28 -68 20 -60 -29 30 -447 601 -435 594 7 -5 72 -57 144 -116z m526 29 c20
-28 19 -27 -31 8 -40 29 -51 43 -51 63 l1 27 30 -35 c17 -19 40 -48 51 -63z
m141 29 c13 -18 15 -26 6 -21 -47 28 -69 49 -69 67 0 21 0 21 21 2 12 -10 31
-32 42 -48z m-5124 -66 c-13 -22 -26 -40 -31 -40 -4 0 -8 18 -8 41 0 29 8 51
28 77 l27 36 3 -37 c2 -25 -4 -51 -19 -77z m149 -108 c-35 -61 -66 -112 -69
-112 -4 0 -9 23 -11 52 -5 50 -3 55 66 167 l71 116 3 -55 c3 -52 -1 -63 -60
-168z m352 50 c-41 -99 -50 -108 -50 -50 0 42 12 80 58 178 l16 35 4 -43 c2
-32 -5 -64 -28 -120z m163 -25 l-18 -52 -3 73 c-2 53 2 87 15 120 l18 47 3
-68 c2 -47 -3 -85 -15 -120z m-371 -47 c-34 -80 -37 -83 -43 -55 -18 81 -10
136 29 207 l37 70 7 -69 c7 -65 6 -72 -30 -153z m95 86 c-33 -76 -35 -77 -39
-45 -4 26 4 52 31 107 32 67 36 71 39 45 2 -18 -11 -62 -31 -107z m4895 67
c45 -45 68 -75 68 -91 0 -23 0 -23 -31 -5 -17 10 -49 34 -72 53 -31 28 -40 44
-42 73 -2 20 0 37 3 37 4 0 37 -30 74 -67z m346 -10 c43 -37 43 -39 40 -95
l-3 -57 -67 60 -68 61 0 55 0 54 28 -20 c15 -11 46 -37 70 -58z m-155 -32 c31
-29 37 -42 37 -75 l0 -40 -70 69 c-60 59 -70 74 -70 104 l0 35 33 -29 c17 -17
49 -45 70 -64z m197 38 c0 -13 -31 4 -55 31 l-20 22 38 -22 c20 -12 37 -26 37
-31z m-545 6 l55 -36 0 -56 0 -56 -60 83 c-81 113 -81 119 5 65z m-922 -44
l37 -35 0 -146 0 -145 -60 110 -60 110 0 89 0 89 23 -19 c12 -10 39 -34 60
-53z m-3271 7 c-6 -24 -21 -88 -33 -143 -19 -88 -43 -144 -57 -131 -3 4 17 81
69 259 22 74 39 86 21 15z m3127 -42 c33 -60 51 -107 51 -128 l0 -33 -55 57
-55 56 0 71 c0 39 2 71 4 71 2 0 27 -42 55 -94z m922 54 c30 -23 57 -49 61
-58 9 -23 10 -92 1 -92 -5 0 -25 28 -45 63 -21 34 -47 77 -59 95 -12 17 -19
32 -17 32 3 0 29 -18 59 -40z m-111 -85 c6 -8 10 -44 8 -89 l-3 -75 -77 134
c-43 73 -78 136 -78 139 0 7 135 -91 150 -109z m77 43 c22 -35 48 -76 59 -93
18 -28 16 -28 -43 14 -63 44 -63 44 -63 92 0 27 2 49 4 49 2 0 21 -28 43 -62z
m-4997 11 c0 -28 -10 -58 -32 -95 l-33 -54 -10 47 c-11 47 -10 49 24 95 20 26
39 47 44 48 4 0 7 -18 7 -41z m54 -15 c-15 -26 -30 -42 -32 -36 -4 12 48 95
55 88 3 -2 -8 -26 -23 -52z m5779 7 c67 -39 77 -48 77 -73 0 -15 -4 -28 -9
-28 -15 0 -156 121 -159 137 -5 19 -3 18 91 -36z m-5386 -104 c-31 -70 -35
-76 -41 -53 -5 19 4 51 31 114 36 82 38 85 41 52 2 -23 -9 -62 -31 -113z m432
-39 c-46 -133 -67 -181 -92 -206 -17 -18 -33 -28 -35 -22 -2 5 20 81 49 167
47 143 56 161 93 195 23 20 42 37 43 38 1 0 -25 -78 -58 -172z m4262 150 c27
-33 23 -45 -6 -18 -24 22 -32 40 -19 40 3 0 14 -10 25 -22z m-4931 -130 c-68
-125 -80 -141 -80 -113 0 26 134 261 138 241 2 -9 -24 -67 -58 -128z m-147 -8
l-28 -50 -6 47 c-6 42 -3 54 25 98 l31 50 3 -48 c2 -37 -3 -58 -25 -97z m527
58 c0 -68 -5 -96 -32 -167 l-33 -86 -7 45 c-13 86 -8 124 25 207 17 46 35 83
40 83 4 0 7 -37 7 -82z m4719 29 c77 -81 93 -105 89 -132 -3 -25 -4 -25 -75
27 l-73 51 0 54 c0 29 2 53 4 53 3 0 27 -24 55 -53z m589 -152 c2 -37 -1 -65
-6 -63 -5 1 -41 33 -81 69 l-71 67 0 62 0 62 78 -65 77 -65 3 -67z m-5219 106
c1 -49 -18 -107 -45 -132 l-24 -22 0 48 c0 62 51 197 62 162 3 -12 6 -37 7
-56z m330 7 c0 -57 -3 -65 -30 -86 -16 -13 -29 -21 -29 -18 0 7 30 139 35 154
2 6 9 12 15 12 6 0 10 -26 9 -62z m3320 35 c10 -10 150 -217 310 -461 191
-289 291 -450 289 -464 -2 -15 -74 55 -313 310 l-310 331 -3 150 c-2 83 -1
151 3 151 3 0 14 -8 24 -17z m1181 -70 c0 -1 -20 10 -45 25 -29 17 -45 34 -45
47 0 15 9 11 45 -25 25 -24 45 -45 45 -47z m210 -87 l0 -50 -70 69 c-65 65
-70 72 -70 113 l0 43 70 -62 c69 -62 70 -64 70 -113z m-542 94 c38 -51 52 -77
50 -96 l-3 -25 -50 35 c-49 35 -50 37 -55 96 -3 33 -3 60 0 60 3 -1 29 -32 58
-70z m-4897 -23 c7 -71 6 -74 -38 -167 -25 -52 -52 -110 -60 -129 -8 -18 -16
-31 -18 -29 -2 2 -9 41 -15 88 l-11 85 63 117 c35 64 65 114 68 112 2 -3 7
-37 11 -77z m5119 53 c0 -15 -5 -12 -26 11 -19 22 -19 22 4 10 12 -6 22 -16
22 -21z m-5513 -131 c-23 -38 -25 -39 -31 -17 -14 52 -6 99 22 135 l27 37 3
-57 c2 -46 -2 -65 -21 -98z m100 99 c-35 -59 -56 -86 -57 -70 0 15 71 124 78
118 2 -3 -7 -24 -21 -48z m365 -86 c-36 -84 -37 -85 -44 -51 -6 28 0 49 30
113 34 73 37 77 44 51 5 -22 -2 -48 -30 -113z m107 -33 c-17 -44 -35 -79 -40
-79 -20 0 -8 89 19 151 16 35 33 73 38 84 7 16 9 9 12 -29 2 -37 -4 -67 -29
-127z m257 83 c-25 -26 -29 -6 -10 45 l19 48 3 -39 c2 -25 -2 -44 -12 -54z
m80 -19 c-18 -54 -35 -105 -39 -113 -3 -8 -6 18 -6 57 -1 70 0 74 35 113 20
22 38 40 40 40 1 0 -12 -44 -30 -97z m4295 1 c5 -7 9 -34 7 -60 l-3 -47 -68
103 -69 103 61 -43 c34 -24 66 -49 72 -56z m118 72 c13 -14 22 -29 20 -33 -2
-5 -17 6 -32 24 -33 38 -22 45 12 9z m303 -52 c47 -28 48 -30 48 -79 l-1 -50
-69 75 c-38 41 -69 83 -70 94 0 17 2 17 23 4 12 -8 43 -27 69 -44z m-688 -64
l105 -85 0 -140 1 -140 -35 35 c-24 25 -61 94 -125 235 -49 109 -90 201 -90
203 0 7 30 -16 144 -108z m-4841 -53 l-38 -62 -3 53 c-3 44 2 60 30 107 l33
56 8 -46 c7 -43 5 -51 -30 -108z m126 81 c1 -35 -44 -137 -61 -138 -3 0 -8 25
-10 56 -2 47 2 64 26 107 25 43 31 47 37 31 4 -10 8 -36 8 -56z m4009 22 c41
-45 43 -51 40 -100 l-3 -52 -39 91 c-21 50 -42 91 -47 91 -5 0 -9 5 -9 10 0
18 15 8 58 -40z m915 -57 c53 -84 67 -114 67 -145 0 -21 -3 -38 -6 -38 -14 0
-89 67 -115 103 -26 35 -29 48 -29 114 0 40 3 73 8 73 4 -1 37 -49 75 -107z
m-920 -46 c42 -97 47 -115 47 -184 0 -42 -4 -73 -8 -67 -5 5 -27 56 -50 114
-33 84 -42 120 -44 182 -2 43 -1 74 3 70 3 -4 27 -55 52 -115z m96 66 c17 -31
29 -58 28 -60 -8 -7 -67 78 -67 96 0 12 2 21 4 21 3 0 18 -26 35 -57z m438
-146 c100 -93 191 -180 201 -195 10 -15 33 -60 50 -100 29 -65 32 -82 32 -173
l0 -101 -82 124 c-323 488 -427 650 -407 633 13 -11 106 -96 206 -188z m680
98 c69 -93 81 -111 65 -101 -19 11 -142 174 -142 187 0 16 2 13 77 -86z m18
55 c48 -36 55 -45 55 -75 0 -19 -2 -35 -4 -35 -2 0 -29 34 -60 75 -31 41 -54
75 -51 75 3 0 30 -18 60 -40z m-5505 -32 c0 -54 -5 -71 -35 -116 l-34 -54 -6
49 c-3 26 -8 56 -10 67 -3 17 61 114 78 115 4 1 7 -27 7 -61z m516 -91 c-30
-70 -34 -75 -39 -50 -4 19 5 55 31 117 36 87 37 88 40 50 2 -27 -8 -63 -32
-117z m360 92 l-15 -34 -1 36 c0 19 6 41 13 48 19 19 21 -8 3 -50z m159 -14
c-9 -31 -19 -54 -22 -52 -2 3 3 30 13 61 23 73 30 65 9 -9z m4615 -7 c69 -76
67 -78 -17 -15 -38 28 -53 46 -53 63 0 13 1 24 3 24 2 0 32 -32 67 -72z m358
-26 c39 -35 53 -55 50 -70 -3 -20 -8 -18 -80 26 -77 47 -77 47 -78 90 l0 43
28 -20 c15 -12 51 -43 80 -69z m-5269 -8 c-12 -13 -24 -22 -26 -21 -1 2 7 27
20 57 22 53 22 53 25 21 2 -24 -3 -40 -19 -57z m352 -189 c-56 -275 -56 -276
-90 -302 -29 -23 -33 -24 -28 -7 4 10 34 138 67 284 55 239 75 300 100 300 4
0 -18 -124 -49 -275z m76 53 l-7 -223 -47 -42 c-27 -22 -50 -39 -52 -37 -5 4
101 524 107 524 3 0 2 -100 -1 -222z m4713 40 c0 -32 -4 -58 -9 -58 -5 0 -37
28 -70 62 -61 62 -61 63 -61 121 l0 58 70 -62 70 -63 0 -58z m-5829 105 c-18
-28 -31 -41 -31 -30 0 21 53 104 58 89 2 -6 -11 -32 -27 -59z m580 -105 c-41
-44 -51 -47 -51 -14 0 22 16 65 58 156 l16 35 6 -70 c6 -70 6 -70 -29 -107z
m4707 86 c48 -78 53 -90 50 -136 l-3 -51 -50 74 c-42 63 -50 83 -55 137 -3 34
-3 62 0 62 3 -1 29 -39 58 -86z m-4518 -87 l-25 -79 -8 39 c-11 51 -4 97 24
158 l23 50 6 -45 c4 -33 -2 -66 -20 -123z m4538 135 c27 -22 33 -34 30 -58 -3
-30 -3 -30 -40 28 -21 32 -34 58 -30 58 4 0 22 -13 40 -28z m113 -46 c8 -14 2
-11 -25 9 -22 16 -36 36 -36 49 0 19 2 18 25 -9 14 -16 30 -38 36 -49z m-1019
-194 c2 -72 1 -132 -2 -132 -3 0 -31 60 -62 133 -51 117 -58 140 -58 197 l0
65 59 -65 59 -65 4 -133z m-4263 161 c1 -29 -8 -57 -31 -97 -36 -63 -48 -59
-48 17 0 37 8 62 32 103 36 60 46 55 47 -23z m59 -28 c-27 -48 -34 -56 -36
-38 -2 13 12 50 30 84 27 49 34 56 36 37 2 -13 -12 -50 -30 -83z m637 -32 c-3
-18 -10 -33 -15 -33 -14 0 -12 85 3 134 l12 41 3 -55 c2 -30 1 -70 -3 -87z
m-482 -71 c-37 -86 -59 -128 -65 -120 -18 29 -5 79 49 197 56 120 58 123 65
90 6 -28 -2 -56 -49 -167z m384 176 c-3 -8 -6 -5 -6 6 -1 11 2 17 5 13 3 -3 4
-12 1 -19z m228 -257 c-48 -208 -68 -279 -84 -294 l-21 -21 0 62 c0 81 110
475 142 509 12 13 22 22 24 20 1 -1 -26 -125 -61 -276z m4647 225 l57 -41 1
-63 0 -63 -45 32 c-63 45 -95 95 -95 148 0 48 -4 48 82 -13z m-5572 -14 c0
-19 -12 -54 -27 -80 l-28 -47 -6 50 c-5 42 -2 57 19 93 27 48 42 43 42 -16z
m449 -104 c-32 -76 -45 -88 -53 -47 -5 26 2 53 31 122 l38 89 3 -55 c2 -40 -3
-71 -19 -109z m-628 54 c2 -37 -3 -58 -22 -88 l-24 -39 -8 78 c-7 71 -6 81 14
109 21 30 23 30 30 10 4 -12 9 -43 10 -70z m818 -58 c-17 -46 -33 -83 -35 -81
-2 1 -4 37 -5 80 -3 76 -2 78 32 113 l34 35 3 -31 c2 -17 -11 -67 -29 -116z
m4750 102 c84 -65 82 -61 79 -171 l-3 -98 -72 115 c-60 95 -73 123 -73 157 0
22 3 41 6 41 3 0 31 -20 63 -44z m-5501 -61 c-31 -52 -48 -68 -48 -45 0 17 74
123 78 111 2 -6 -11 -35 -30 -66z m321 -18 l12 -93 -38 -79 -38 -80 -9 110 -8
110 33 62 c19 35 35 63 35 63 1 0 7 -42 13 -93z m663 -78 c-41 -141 -47 -158
-50 -123 -2 28 8 74 32 140 47 135 56 158 61 152 3 -2 -17 -78 -43 -169z
m5098 74 c0 -13 -1 -23 -3 -23 -1 0 -29 27 -62 61 l-60 61 62 -39 c47 -28 63
-44 63 -60z m-860 -38 l60 -103 0 -92 0 -91 -75 68 -75 68 0 139 c0 164 0 164
90 11z m966 36 c56 -50 52 -50 -29 -1 -36 22 -57 41 -57 53 0 22 10 16 86 -52z
m-5225 -16 l-26 -76 -3 47 c-3 40 1 51 24 75 15 16 28 29 29 29 1 0 -10 -34
-24 -75z m5047 2 c59 -60 72 -78 72 -105 0 -17 -3 -32 -7 -32 -3 0 -39 25 -80
55 l-73 55 0 50 c0 28 3 50 8 50 4 0 40 -33 80 -73z m-6170 -146 l-35 -51 -7
90 -7 91 33 42 33 41 9 -80 8 -81 -34 -52z m1013 116 c-30 -30 -31 -19 -7 43
l21 55 3 -39 c3 -29 -2 -44 -17 -59z m3486 -147 c8 -44 -7 -36 -54 27 -42 56
-43 58 -43 137 l1 81 45 -108 c24 -59 47 -121 51 -137z m1017 170 c25 -38 46
-72 46 -75 0 -4 -22 13 -50 36 -42 35 -50 48 -50 76 0 18 2 33 4 33 1 0 24
-31 50 -70z m511 -26 c30 -37 36 -50 33 -84 l-3 -41 -67 47 -68 48 0 63 0 64
34 -26 c19 -15 51 -46 71 -71z m-5858 -64 c-29 -51 -32 -53 -38 -30 -14 48 -9
75 24 128 l32 53 7 -47 c6 -43 3 -55 -25 -104z m446 17 c-32 -74 -76 -138 -87
-126 -2 2 22 62 52 133 49 112 57 125 63 102 5 -19 -2 -49 -28 -109z m202 53
c-18 -45 -35 -84 -39 -87 -3 -4 -6 18 -6 47 0 47 4 58 32 87 18 18 35 33 39
33 3 0 -8 -36 -26 -80z m101 -89 c-46 -46 -46 -29 -3 81 l32 83 3 -64 c3 -62
2 -66 -32 -100z m4520 92 c3 -12 4 -30 2 -40 -2 -13 -13 -1 -36 39 -17 32 -32
60 -32 64 0 14 60 -43 66 -63z m-5156 -7 c0 -51 -5 -73 -27 -112 l-28 -49 -6
70 c-5 63 -3 73 20 112 14 24 29 43 33 43 5 0 8 -29 8 -64z m69 -38 c-18 -37
-36 -68 -41 -68 -19 0 -5 54 29 112 49 84 58 52 12 -44z m4593 -426 c270 -495
286 -527 265 -534 -64 -18 -64 -18 -226 191 -154 198 -156 201 -240 388 l-84
188 -6 148 c-3 81 -4 147 -1 147 3 0 134 -238 292 -528z m-4192 499 c0 -10 -7
-21 -15 -24 -12 -5 -12 -2 -3 18 13 30 18 31 18 6z m3883 -319 c1 -39 0 -72
-3 -72 -12 0 -51 72 -84 154 -32 79 -36 100 -36 175 l0 86 61 -135 c54 -121
60 -142 62 -208z m-3776 200 c-3 -45 -9 -59 -40 -90 l-37 -37 0 42 c0 24 15
81 32 128 l33 86 8 -38 c5 -21 7 -62 4 -91z m4201 -262 l212 -225 0 -197 c0
-125 4 -198 10 -198 6 0 10 69 10 187 l0 188 75 -80 74 -80 1 -112 0 -112 -42
-5 c-24 -3 -66 -8 -94 -11 l-50 -5 -280 512 c-153 282 -281 517 -283 523 -4
10 25 -20 367 -385z m617 267 c37 -59 65 -110 62 -114 -8 -7 -111 81 -131 112
-16 25 -23 137 -8 120 5 -6 39 -59 77 -118z m194 17 c18 -24 30 -44 28 -44 -6
0 -100 119 -111 140 -11 22 46 -44 83 -96z m-4808 -82 c-13 -21 -15 97 -3 149
5 27 8 16 10 -49 2 -45 -2 -90 -7 -100z m4778 74 l61 -79 0 -88 c0 -49 -3 -89
-6 -89 -15 0 -81 67 -106 107 -26 40 -28 52 -28 145 0 63 4 98 9 93 5 -6 37
-45 70 -89z m-5763 7 c-33 -48 -35 -18 -3 37 17 32 23 36 25 20 2 -10 -8 -36
-22 -57z m683 -29 c0 -22 -10 -67 -23 -100 -12 -32 -26 -68 -30 -78 -11 -31
-17 -13 -26 75 -8 89 1 128 45 177 l20 24 6 -29 c4 -15 7 -46 8 -69z m-841
-147 c-17 -26 -32 -46 -33 -45 -1 2 -5 48 -8 104 l-6 101 32 39 32 38 6 -94
c7 -93 6 -96 -23 -143z m1089 138 l-24 -70 -8 57 c-7 54 -6 58 21 82 38 32 40
17 11 -69z m4526 42 l38 -33 -3 -89 -3 -90 -52 91 c-41 70 -53 101 -53 133 0
48 6 47 73 -12z m-5139 -65 c7 -105 7 -110 -21 -167 -15 -32 -33 -60 -39 -62
-7 -3 -14 31 -18 100 -7 104 -7 105 26 171 18 36 35 66 39 66 3 0 10 -49 13
-108z m239 43 c-25 -19 -26 -13 -6 30 18 38 18 38 21 11 2 -18 -3 -32 -15 -41z
m5267 30 c0 -21 -5 -19 -25 11 -16 25 -16 25 4 14 12 -6 21 -17 21 -25z m270
-37 c59 -44 70 -57 70 -81 0 -25 -2 -28 -15 -17 -25 21 -138 150 -131 150 4 0
38 -24 76 -52z m-6075 -100 c-11 -21 -23 -38 -27 -38 -3 0 -8 23 -10 50 -2 40
2 59 22 93 l25 42 5 -55 c5 -43 2 -62 -15 -92z m87 -47 l-30 -55 -6 35 c-14
83 -11 104 19 157 l30 53 8 -68 c8 -64 7 -71 -21 -122z m5876 14 l3 -68 -71
95 c-38 53 -70 105 -70 117 0 19 7 16 68 -27 l67 -48 3 -69z m136 31 c27 -31
47 -59 44 -61 -2 -3 -39 20 -81 51 -75 54 -77 56 -77 97 l1 42 32 -36 c18 -21
54 -62 81 -93z m-5696 0 c-13 -26 -59 -76 -70 -76 -17 0 -7 41 29 116 l38 79
7 -49 c4 -30 3 -58 -4 -70z m-237 -9 l-31 -52 0 36 c0 22 11 56 28 85 l27 49
3 -33 c2 -22 -6 -49 -27 -85z m346 -32 c-44 -102 -55 -122 -60 -103 -12 41 -7
78 14 131 21 50 90 128 97 108 2 -5 -21 -67 -51 -136z m310 75 c-23 -61 -37
-64 -37 -7 0 19 49 82 57 73 2 -1 -7 -31 -20 -66z m100 -115 l-24 -70 -6 56
c-5 43 -2 70 13 115 31 91 34 94 38 29 2 -43 -4 -80 -21 -130z m-1179 -93
l-33 -47 -6 65 c-14 145 -12 168 24 210 l32 39 8 -110 7 -110 -32 -47z m202
257 c0 -6 -17 -39 -37 -73 -25 -41 -39 -55 -41 -44 -2 10 12 42 30 73 32 52
48 67 48 44z m896 -206 l-33 -98 -7 67 c-7 60 -4 75 26 159 l33 92 7 -61 c6
-54 3 -74 -26 -159z m3545 108 c11 -21 13 -83 9 -330 l-5 -304 -34 54 c-39 61
-38 49 -44 463 l-3 219 32 -38 c17 -21 38 -50 45 -64z m1193 -15 l67 -105 -2
-110 c-1 -61 -4 -111 -8 -111 -4 0 -37 52 -74 116 l-67 115 0 105 c0 58 4 103
9 100 5 -3 39 -53 75 -110z m-141 -37 c25 -44 37 -79 37 -104 l0 -38 -54 49
-54 49 -1 85 -1 85 18 -30 c10 -16 35 -60 55 -96z m-5484 32 c1 -22 -12 -57
-36 -98 l-38 -65 -3 61 c-3 54 1 68 30 116 35 59 46 56 47 -14z m620 -27 l1
-60 -56 -48 c-30 -27 -57 -47 -59 -45 -2 2 20 59 48 126 56 131 65 135 66 27z
m201 30 c0 -50 -8 -89 -32 -157 l-33 -90 -7 69 c-7 63 -5 77 24 157 18 48 36
87 40 87 5 0 8 -30 8 -66z m204 -33 l-8 -46 -6 45 c-4 26 -3 56 3 70 l11 25 4
-24 c2 -13 0 -45 -4 -70z m-796 -151 l-33 -28 -6 74 c-6 71 -5 78 25 132 l31
57 8 -104 9 -103 -34 -28z m478 172 c-23 -23 -25 -12 -8 28 15 33 16 33 20 11
2 -13 -3 -31 -12 -39z m3777 13 c9 -18 9 -19 -6 -6 -10 7 -17 23 -16 35 0 14
2 16 6 6 3 -8 10 -24 16 -35z m841 -24 c60 -61 67 -72 64 -102 -3 -34 -3 -34
-75 64 -40 53 -73 99 -73 102 0 15 23 -2 84 -64z m364 0 c5 -34 -11 -24 -41
26 l-29 47 34 -26 c18 -14 34 -35 36 -47z m323 -164 c2 -31 3 -57 1 -57 -2 0
-34 26 -72 58 l-70 57 0 89 0 89 69 -90 c64 -83 69 -93 72 -146z m106 177 l76
-56 -7 -67 c-3 -36 -6 -88 -6 -115 l0 -49 -75 104 -75 103 0 68 c0 37 2 68 6
68 3 0 39 -25 81 -56z m-6038 -40 c1 -37 -6 -64 -23 -93 l-23 -42 -7 47 c-10
76 -7 101 16 140 19 32 23 35 29 18 4 -10 8 -42 8 -70z m412 59 c-8 -15 -10
-15 -11 -2 0 17 10 32 18 25 2 -3 -1 -13 -7 -23z m266 -28 c-11 -36 -12 -37
-18 -14 -4 15 0 31 9 42 21 24 23 17 9 -28z m-1023 -98 c6 -90 5 -102 -15
-133 -12 -19 -23 -33 -25 -31 -2 2 -8 56 -14 121 -10 113 -9 119 12 148 19 28
22 29 28 12 4 -10 10 -63 14 -117z m1534 -78 c-12 -10 -25 -16 -27 -14 -2 3 7
55 20 116 l24 112 3 -98 c3 -93 1 -100 -20 -116z m-1127 90 l-29 -51 -7 30
c-5 23 0 40 19 71 14 22 26 46 27 53 0 7 5 -2 10 -19 8 -28 5 -40 -20 -84z
m329 87 c0 -13 -17 -63 -39 -111 -34 -76 -39 -84 -45 -61 -5 19 4 51 30 111
37 86 54 105 54 61z m-597 -70 c-15 -25 -31 -46 -35 -46 -16 0 -7 31 25 81 25
41 33 48 35 32 2 -11 -10 -41 -25 -67z m1366 -36 c-22 -102 -27 -113 -57 -137
-18 -14 -36 -23 -39 -20 -2 3 5 51 16 108 19 94 24 104 59 134 20 18 39 31 41
29 2 -2 -7 -53 -20 -114z m4085 13 l67 -92 -3 -75 -3 -75 -73 162 c-66 148
-87 207 -63 182 4 -6 38 -51 75 -102z m-768 -68 l32 -81 2 -287 c0 -169 -3
-287 -9 -287 -5 0 -36 44 -70 97 l-61 97 0 177 c0 97 3 237 7 312 l6 136 30
-42 c17 -23 45 -78 63 -122z m-3834 109 c1 -37 -50 -194 -63 -194 -13 0 -15
145 -3 176 11 26 53 67 62 60 1 -2 3 -20 4 -42z m5082 -69 c40 -63 47 -81 44
-116 l-3 -42 -67 101 c-53 80 -68 110 -68 139 l0 36 23 -22 c13 -12 45 -55 71
-96z m-5402 65 c-13 -31 -18 -35 -20 -19 -3 16 22 59 34 59 1 0 -5 -18 -14
-40z m-44 -4 c0 -19 2 -42 6 -52 3 -11 -12 -58 -33 -108 l-38 -89 -7 66 c-6
55 -4 71 14 107 11 22 28 44 36 47 9 3 12 12 9 24 -6 17 0 39 10 39 1 0 3 -15
3 -34z m624 -108 c-15 -54 -27 -61 -37 -21 -4 18 1 51 17 96 l23 69 6 -48 c3
-29 0 -68 -9 -96z m3686 -5 c28 -62 49 -113 47 -113 -2 0 -29 32 -59 72 -54
69 -56 73 -55 132 0 43 3 55 9 41 4 -11 31 -71 58 -132z m-3765 -35 c-13 -43
-29 -80 -34 -83 -19 -12 -8 92 19 174 l27 84 7 -49 c5 -38 1 -66 -19 -126z
m-1239 55 c4 -60 9 -115 11 -123 3 -8 -10 -37 -27 -65 -37 -57 -35 -62 -46
105 l-9 125 26 32 c14 17 29 32 32 32 4 1 10 -47 13 -106z m220 -61 c-16 -29
-32 -56 -36 -58 -5 -3 -8 22 -8 55 0 48 6 72 28 111 l27 49 9 -51 c9 -47 7
-56 -20 -106z m129 91 c5 -66 4 -71 -36 -142 l-42 -73 -5 78 c-6 77 -5 81 30
141 19 35 38 63 41 63 4 0 9 -30 12 -67z m462 -63 c-17 -33 -73 -85 -82 -77
-6 7 15 64 61 167 l20 45 7 -55 c5 -38 3 -62 -6 -80z m-316 -46 c-12 -13 -26
-24 -29 -24 -4 0 -10 19 -13 41 -4 33 0 52 21 90 l27 48 9 -65 c8 -60 7 -67
-15 -90z m660 -43 c-12 -36 -30 -75 -40 -86 -19 -19 -19 -19 -19 40 0 42 10
88 32 153 l33 92 8 -67 c6 -55 4 -78 -14 -132z m320 94 c-17 -85 -25 -104 -51
-128 -16 -16 -32 -26 -35 -23 -3 3 5 51 18 106 19 85 27 105 52 126 16 14 31
24 32 22 2 -2 -6 -48 -16 -103z m4185 -62 c51 -117 66 -162 64 -190 l-3 -37
-72 110 -73 110 0 89 c0 49 4 85 8 80 5 -6 39 -79 76 -162z m-4742 27 c-27
-68 -51 -119 -54 -114 -3 5 -9 38 -13 74 l-7 65 59 52 c32 28 59 50 61 48 1
-1 -19 -58 -46 -125z m448 90 c0 -22 -4 -40 -10 -40 -11 0 -13 39 -4 64 10 26
14 19 14 -24z m4489 -124 c1 -39 -3 -66 -7 -60 -5 5 -30 37 -55 71 -41 53 -47
68 -47 109 l0 47 54 -49 54 -49 1 -69z m331 115 c0 -12 -6 -9 -20 9 -26 33
-26 48 0 25 11 -10 20 -25 20 -34z m-6059 -68 c-28 -44 -31 -46 -31 -21 0 15
12 48 28 73 24 42 27 44 30 21 2 -14 -9 -44 -27 -73z m279 -15 l-28 -52 -4 35
c-3 22 5 50 21 83 l26 49 6 -32 c5 -25 0 -44 -21 -83z m5713 -2 l68 -103 -3
-67 -3 -66 -70 64 -70 63 0 107 c0 58 2 106 5 106 3 0 36 -47 73 -104z m-5074
-136 l-34 -95 -8 73 c-7 68 -6 79 25 162 l33 90 9 -67 c8 -63 6 -75 -25 -163z
m4876 165 l28 -50 -37 34 c-23 22 -36 44 -36 60 0 30 7 23 45 -44z m-5996 -87
l11 -137 -38 -61 -39 -61 -7 88 c-4 48 -9 120 -13 159 l-6 71 38 42 c21 23 39
40 40 39 2 -2 8 -65 14 -140z m6429 -52 c2 -42 0 -76 -5 -76 -15 1 -143 220
-143 246 0 24 4 22 73 -35 l72 -60 3 -75z m-5379 79 c1 -47 -8 -82 -40 -170
-23 -60 -43 -111 -44 -113 -1 -2 -7 32 -12 75 l-10 78 46 117 c50 128 58 130
60 13z m419 44 l-13 -54 -3 43 c-2 24 2 50 9 58 19 23 20 11 7 -47z m4996 37
c6 -8 37 -49 69 -90 33 -42 57 -81 55 -87 -3 -10 -125 80 -140 104 -9 15 -10
87 -2 87 4 0 12 -6 18 -14z m-5823 -77 l-30 -64 0 52 c-1 45 2 54 27 71 15 12
28 17 30 13 1 -4 -11 -37 -27 -72z m125 -33 c-21 -47 -51 -84 -61 -75 -2 2 13
44 33 91 33 77 38 84 44 62 5 -18 -1 -43 -16 -78z m4489 -296 c47 -107 85
-199 85 -203 0 -4 -23 -7 -51 -5 l-51 3 -113 280 c-63 154 -114 291 -115 304
0 18 19 -2 80 -80 69 -90 90 -129 165 -299z m-5016 310 c0 -22 -10 -53 -28
-83 l-28 -48 -6 57 c-5 51 -3 64 21 106 24 44 28 46 34 26 3 -13 6 -39 7 -58z
m1201 -7 c0 -47 -2 -84 -4 -82 -9 10 -15 169 -6 169 6 0 10 -37 10 -87z m249
-93 c-6 -4 -29 -74 -50 -156 -32 -123 -44 -153 -68 -178 -17 -17 -32 -28 -34
-25 -2 2 20 114 49 249 48 225 55 247 81 269 l28 24 3 -88 c2 -59 -1 -91 -9
-95z m-353 123 c-10 -26 -18 -8 -9 23 5 21 8 24 11 11 2 -10 1 -25 -2 -34z
m-1037 -176 l-34 -59 -5 84 c-6 79 -5 85 25 136 l30 53 9 -78 c8 -77 8 -79
-25 -136z m193 120 c-40 -42 -49 -18 -16 42 l29 51 7 -32 c5 -27 2 -38 -20
-61z m396 -177 c-23 -58 -44 -109 -48 -113 -4 -5 -10 40 -14 100 -7 106 -7
109 24 183 49 115 53 116 67 19 l11 -84 -40 -105z m505 85 c-16 -12 -19 -10
-24 23 -6 33 9 108 29 152 4 8 8 -25 10 -74 2 -75 0 -90 -15 -101z m4679 65
c14 -19 18 -46 18 -119 l0 -94 -70 93 -70 93 0 75 0 75 53 -49 c28 -26 60 -60
69 -74z m-5404 -57 c-31 -63 -45 -65 -50 -7 -3 38 3 62 27 113 l30 65 8 -62
c6 -54 4 -68 -15 -109z m5216 87 l46 -64 0 -130 c0 -72 -4 -126 -8 -120 -5 5
-30 57 -55 115 -44 100 -47 111 -47 195 0 50 4 84 9 79 4 -6 29 -39 55 -75z
m-5470 -44 c-14 -28 -35 -60 -45 -71 -19 -19 -19 -19 -19 17 0 23 13 59 38
102 l37 65 8 -31 c7 -25 3 -41 -19 -82z m-277 33 c-23 -37 -26 -39 -32 -20 -4
14 1 34 16 57 18 30 23 34 31 20 6 -11 2 -28 -15 -57z m440 -75 l-25 -49 -7
60 c-3 33 -8 65 -10 70 -1 6 9 23 24 38 l26 29 9 -49 c7 -43 5 -56 -17 -99z
m790 124 c-3 -8 -6 -5 -6 6 -1 11 2 17 5 13 3 -3 4 -12 1 -19z m4992 -91 c49
-79 71 -123 71 -145 0 -18 -3 -32 -7 -31 -5 0 -38 47 -75 105 -55 84 -68 112
-68 144 0 22 2 40 4 40 2 0 36 -51 75 -113z m-6452 -54 l10 -157 -28 -44 -28
-44 -5 34 c-5 29 -26 274 -26 297 0 12 49 71 59 71 5 0 12 -71 18 -157z m1708
135 c-3 -13 -28 -126 -55 -252 -42 -197 -52 -233 -74 -255 l-26 -26 0 57 c0
32 18 144 40 250 38 185 41 194 72 220 40 34 50 35 43 6z m-783 -40 c-19 -41
-20 -42 -21 -14 -1 16 6 38 16 48 25 28 27 15 5 -34z m517 10 c-1 -44 -41
-161 -56 -166 -9 -3 -13 12 -13 51 0 62 15 116 38 135 25 19 32 14 31 -20z
m-110 -22 c-9 -8 -10 -7 -5 7 3 10 7 24 7 30 1 7 3 4 6 -7 3 -10 -1 -23 -8
-30z m3883 -225 c54 -134 97 -245 96 -246 -2 -1 -49 -6 -105 -11 l-103 -9 1
270 c0 148 3 263 6 255 3 -8 50 -125 105 -259z m1399 213 l69 -56 0 -139 0
-139 -40 0 c-35 0 -43 4 -67 41 -24 36 -49 129 -34 129 3 0 26 -34 51 -75 42
-70 60 -89 60 -65 0 6 -24 47 -53 93 -52 80 -54 85 -61 175 -4 51 -4 92 -1 92
3 0 37 -25 76 -56z m-5991 -54 c9 -78 8 -85 -16 -132 -14 -27 -27 -48 -30 -46
-2 3 -9 51 -14 108 l-11 103 27 28 c15 16 29 27 31 25 2 -2 8 -40 13 -86z
m5175 16 c14 -28 12 -26 -19 9 -20 22 -36 47 -36 55 0 17 28 -15 55 -64z
m-5559 -88 l-23 -39 -7 32 c-11 55 -7 87 16 126 l23 38 7 -59 c7 -51 5 -63
-16 -98z m654 101 c0 -17 -17 -70 -37 -117 l-38 -87 -7 58 c-6 46 -3 66 13
105 36 83 69 102 69 41z m690 -105 l-29 -139 0 122 c-1 121 -1 121 26 141 16
11 29 19 30 18 1 -1 -11 -65 -27 -142z m-1656 -109 l7 -110 -33 -50 -33 -50
-8 198 -9 199 29 30 28 29 6 -68 c4 -37 10 -117 13 -178z m229 148 c-27 -46
-28 -47 -31 -20 -2 17 7 44 25 73 26 41 28 42 31 20 2 -15 -9 -46 -25 -73z
m1097 63 c0 -25 -6 -38 -24 -49 l-24 -16 16 49 c18 58 32 65 32 16z m-930
-176 c-12 -16 -25 -30 -30 -30 -4 0 -10 30 -12 68 -3 57 0 74 21 115 l26 47 8
-85 c8 -78 7 -87 -13 -115z m202 178 c-7 -7 -12 -8 -12 -2 0 14 12 26 19 19 2
-3 -1 -11 -7 -17z m634 -104 c-2 -6 -23 -26 -45 -43 l-42 -33 22 53 c12 30 29
76 38 103 l16 50 8 -60 c4 -32 5 -64 3 -70z m194 114 c0 -19 -51 -171 -61
-182 -4 -5 -11 4 -15 19 -12 48 37 175 68 175 4 0 8 -6 8 -12z m5098 -121
c100 -157 98 -171 -8 -76 l-68 62 -4 63 c-2 35 -1 64 2 64 3 0 38 -51 78 -113z
m-5942 -160 l-51 -48 -8 92 c-8 86 -7 96 14 133 12 23 34 51 48 63 l26 21 11
-106 12 -107 -52 -48z m5802 179 c38 -36 42 -45 42 -88 0 -26 -3 -48 -8 -48
-4 0 -22 26 -39 58 -18 31 -47 82 -64 112 l-32 55 29 -25 c16 -13 48 -42 72
-64z m422 52 c0 -6 -7 -5 -15 2 -8 7 -15 17 -15 22 0 6 7 5 15 -2 8 -7 15 -17
15 -22z m-6051 -74 c-33 -35 -41 -11 -15 46 l21 48 9 -35 c7 -29 5 -38 -15
-59z m601 70 c0 -8 -5 -12 -10 -9 -6 4 -8 11 -5 16 9 14 15 11 15 -7z m149
-28 c-9 -8 -10 -7 -5 7 3 10 7 24 7 30 1 7 3 4 6 -7 3 -10 -1 -23 -8 -30z
m355 -28 c-3 -40 -12 -145 -20 -233 -9 -88 -15 -230 -14 -315 l1 -156 -63 -20
c-45 -14 -64 -26 -66 -40 -6 -29 -11 -31 -103 -39 l-86 -7 21 106 c11 58 24
106 28 106 4 0 8 -35 9 -77 0 -43 4 -87 9 -98 7 -18 8 -17 15 10 17 75 23 82
24 28 1 -29 4 -53 9 -53 4 0 40 127 81 283 65 251 77 286 104 315 32 33 28 45
-4 16 -19 -17 -21 -27 42 209 5 20 12 37 14 37 2 0 2 -33 -1 -72z m4396 -173
c0 -30 5 -55 10 -55 6 0 10 16 10 35 0 19 3 35 8 35 6 0 49 -59 60 -81 1 -3
-34 -9 -79 -12 l-82 -7 -33 38 -33 37 -1 129 0 129 70 -97 c67 -91 70 -99 70
-151z m-4670 223 c0 -7 -9 -49 -19 -93 l-18 -80 -8 73 c-6 63 -5 76 10 93 21
22 35 25 35 7z m-1666 -235 l7 -162 -38 -58 -38 -58 -2 35 c-2 19 -7 116 -12
215 l-10 179 37 41 37 40 6 -35 c4 -19 9 -108 13 -197z m347 172 c2 -52 -2
-67 -28 -109 l-30 -48 -7 60 c-6 56 -5 64 25 112 17 28 33 50 35 48 1 -2 4
-30 5 -63z m229 41 c0 -16 -11 -32 -29 -46 l-30 -21 25 46 c14 25 28 45 30 45
2 0 4 -11 4 -24z m339 -73 c-32 -74 -34 -76 -37 -44 -2 19 4 53 14 75 24 56
35 69 47 57 7 -7 -1 -36 -24 -88z m5520 -23 c34 -58 61 -112 61 -121 0 -9 7
-19 15 -23 28 -11 15 -26 -23 -26 -35 0 -42 5 -85 64 l-47 64 0 83 c0 51 4 79
9 74 5 -6 37 -57 70 -115z m-5027 74 c0 -32 -28 -121 -45 -142 -17 -21 -27 5
-27 70 0 51 3 59 31 83 36 29 40 28 41 -11z m275 -31 c-2 -16 -4 -5 -4 22 0
28 2 40 4 28 2 -13 2 -35 0 -50z m-621 -157 c-3 -28 -13 -46 -38 -66 -41 -34
-48 -26 -48 56 0 45 7 77 26 120 14 33 31 70 37 84 9 21 12 12 19 -65 5 -49 7
-107 4 -129z m128 138 l7 -61 -56 -47 c-30 -26 -55 -44 -55 -39 0 22 84 223
90 216 4 -4 11 -35 14 -69z m326 46 c0 -20 -7 -33 -22 -41 -18 -10 -20 -9 -14
6 3 9 9 28 12 41 9 34 24 30 24 -6z m-1292 -105 c-31 -52 -33 -54 -41 -31 -6
19 0 36 30 83 36 56 38 58 41 31 2 -18 -8 -47 -30 -83z m1385 18 c6 -85 3
-113 -20 -212 -15 -63 -28 -111 -29 -105 -2 5 -8 71 -14 148 -9 122 -9 145 6
190 35 106 49 101 57 -21z m4503 -10 c-9 -10 -46 58 -45 84 0 24 3 21 25 -26
13 -30 22 -56 20 -58z m-5708 -50 l-25 -25 -7 46 c-6 38 -3 53 16 87 l23 42 9
-62 c9 -59 8 -64 -16 -88z m482 143 c0 -3 -4 -8 -10 -11 -5 -3 -10 -1 -10 4 0
6 5 11 10 11 6 0 10 -2 10 -4z m4718 -161 c117 -150 118 -153 42 -154 l-35 -1
-65 147 c-36 80 -67 151 -69 157 -7 20 15 -6 127 -149z m-5057 73 l-31 -53 0
40 c0 31 6 44 28 61 38 31 39 15 3 -48z m293 -7 l-18 -46 -9 38 c-8 34 -6 41
14 64 20 21 25 22 27 8 2 -10 -4 -38 -14 -64z m85 -118 l-34 -78 -3 68 c-2 56
2 81 25 137 l28 69 9 -59 c8 -56 7 -65 -25 -137z m621 182 c0 -8 -4 -15 -10
-15 -5 0 -7 7 -4 15 4 8 8 15 10 15 2 0 4 -7 4 -15z m-263 -95 c-18 -52 -38
-95 -44 -97 -6 -2 -13 19 -18 54 l-7 58 48 42 c27 23 50 40 52 39 1 -2 -12
-45 -31 -96z m-1377 -147 l11 -211 -28 -43 -28 -43 -12 213 c-6 117 -14 218
-16 225 -3 7 9 30 26 51 17 21 32 34 33 29 2 -5 8 -104 14 -221z m1584 47
c-15 -52 -30 -99 -34 -103 -4 -4 -10 35 -13 88 -6 106 5 151 45 180 23 15 23
15 26 -27 2 -26 -7 -80 -24 -138z m182 -67 c-5 -82 -19 -121 -29 -82 -12 47
-9 198 4 266 l14 68 8 -90 c5 -49 6 -122 3 -162z m4930 175 c41 -39 74 -77 74
-84 0 -13 -44 -24 -95 -24 -42 0 -56 28 -58 113 -1 37 0 67 2 67 2 0 37 -32
77 -72z m-6040 -145 c-16 -18 -34 -33 -38 -33 -4 0 -8 27 -8 61 0 49 6 71 33
119 l32 59 6 -87 c6 -87 6 -87 -25 -119z m850 171 c-4 -9 -9 -15 -11 -12 -3 3
-3 13 1 22 4 9 9 15 11 12 3 -3 3 -13 -1 -22z m-1176 -162 l-37 -63 -7 47 c-9
72 -9 76 32 139 l37 60 6 -60 c7 -57 5 -63 -31 -123z m540 12 c-27 -64 -27
-65 -34 -33 -3 17 -6 55 -6 84 0 44 5 60 28 86 l27 33 6 -52 c6 -44 2 -63 -21
-118z m529 63 c-12 -9 -24 -16 -26 -14 -2 2 7 31 19 63 l23 59 3 -45 c3 -36
-1 -48 -19 -63z m3791 -94 c0 -85 -2 -93 -19 -93 -11 0 -26 -3 -35 -6 -14 -5
-16 11 -16 147 l0 153 35 -54 c33 -52 34 -59 35 -147z m-4616 65 c-9 -21 -21
-38 -26 -38 -17 0 -7 82 15 123 l22 42 3 -44 c2 -27 -3 -60 -14 -83z m5702
-54 c-1 -1 -27 -4 -58 -8 l-58 -6 0 97 0 98 58 -90 c33 -50 58 -90 58 -91z
m-5855 44 c-28 -26 -30 -27 -36 -9 -4 13 6 41 27 78 l33 58 3 -49 c3 -44 0
-53 -27 -78z m523 25 c-18 -45 -18 -46 -25 -19 -5 19 -1 41 14 74 21 44 22 45
25 19 2 -15 -5 -49 -14 -74z m542 -37 l-31 -91 -3 45 c-4 51 13 117 36 143 31
34 30 -5 -2 -97z m-1556 -142 l11 -221 -43 -68 -43 -67 -8 262 -9 262 39 40
c21 22 39 33 40 26 1 -7 7 -112 13 -234z m303 135 l-28 -43 -3 31 c-2 22 6 45
25 74 l28 43 3 -31 c2 -22 -6 -45 -25 -74z m1013 5 c-19 -48 -39 -90 -44 -92
-6 -2 -12 22 -14 54 -3 56 -3 57 41 95 24 22 46 38 48 36 2 -2 -12 -44 -31
-93z m-748 30 c-21 -36 -23 -37 -26 -16 -2 15 5 34 19 49 32 33 35 15 7 -33z
m264 -53 l-49 -101 -7 56 -7 57 53 47 c29 27 54 47 56 45 1 -1 -20 -48 -46
-104z m516 -12 c-18 -15 -34 -26 -35 -25 -1 1 10 35 25 75 l27 72 8 -48 c8
-46 7 -48 -25 -74z m5537 82 l20 -24 -22 12 c-13 6 -23 19 -23 28 0 9 1 14 3
12 1 -2 11 -15 22 -28z m-5368 -3 c-3 -8 -6 -5 -6 6 -1 11 2 17 5 13 3 -3 4
-12 1 -19z m184 -141 l12 -158 -34 -35 c-18 -19 -36 -34 -39 -34 -4 0 -10 35
-14 78 -6 69 -3 90 26 194 18 64 34 116 35 115 1 -2 7 -74 14 -160z m-571 89
c0 -49 -3 -57 -32 -81 -20 -17 -34 -23 -36 -16 -5 15 50 151 61 151 4 0 7 -24
7 -54z m370 28 c0 -29 -72 -254 -76 -239 -2 6 -7 43 -13 83 -11 84 1 126 45
161 35 27 44 26 44 -5z m-922 -120 l-23 -39 -3 53 c-2 41 2 61 20 90 l23 37 3
-51 c2 -39 -2 -60 -20 -90z m313 63 c7 -59 5 -67 -44 -185 l-52 -124 -9 87 -9
86 49 104 c27 56 51 101 54 98 2 -2 8 -32 11 -66z m708 -76 c1 -58 -32 -214
-49 -234 -4 -5 -11 41 -14 102 -7 104 -6 115 21 197 l28 87 7 -44 c3 -24 7
-73 7 -108z m-1101 21 l-33 -57 -3 57 c-3 54 -1 59 30 87 l33 30 3 -30 c2 -19
-8 -49 -30 -87z m541 36 c1 -47 -15 -98 -31 -98 -13 0 -10 126 4 155 11 24 13
25 19 8 4 -10 8 -39 8 -65z m4302 -69 c-71 -18 -71 -17 -71 74 l0 82 49 -75
48 -75 -26 -6z m-5020 -11 c-13 -16 -28 -28 -33 -28 -20 0 -7 93 20 138 l27
47 6 -65 c5 -60 3 -67 -20 -92z m325 33 l-26 -26 0 39 c0 23 9 54 23 75 l22
36 3 -49 c3 -42 -1 -53 -22 -75z m334 78 c0 -9 -13 -45 -28 -79 -25 -55 -30
-60 -35 -39 -8 29 44 164 55 146 4 -7 8 -19 8 -28z m5415 3 c-6 -7 -35 18 -35
31 0 5 9 2 20 -8 11 -10 18 -20 15 -23z m-6494 -284 c3 -141 0 -218 -6 -218
-6 0 -21 103 -35 240 l-25 240 25 25 25 26 6 -48 c3 -26 8 -146 10 -265z m514
253 l-28 -26 24 44 c17 31 25 38 27 26 2 -10 -8 -29 -23 -44z m829 -1 l7 -56
-47 -34 c-26 -18 -45 -29 -43 -24 42 103 72 174 74 172 1 -2 6 -28 9 -58z
m-1018 -77 l-36 -57 0 38 c0 27 10 55 33 90 l32 51 3 -33 c2 -23 -6 -48 -32
-89z m1714 -112 c-32 -122 -61 -225 -64 -228 -16 -16 -3 113 25 244 27 130 35
152 62 180 17 18 32 31 33 30 2 -1 -23 -103 -56 -226z m-1207 12 c-33 -77 -41
-66 -42 57 -1 82 0 85 32 118 l32 33 3 -72 c2 -61 -1 -82 -25 -136z m451 156
c-23 -60 -34 -70 -34 -29 0 21 8 42 22 57 29 31 32 24 12 -28z m5760 25 c15
-14 27 -27 25 -28 -2 -2 -105 -11 -228 -20 l-225 -16 -23 22 c-13 12 -20 24
-17 27 6 7 317 38 389 39 40 1 56 -4 79 -24z m-5601 -138 c-25 -72 -49 -135
-53 -139 -4 -4 -10 31 -13 78 -5 65 -2 96 9 123 16 41 85 97 96 79 3 -6 -14
-69 -39 -141z m446 59 c0 -55 -3 -62 -32 -85 -19 -15 -29 -19 -26 -10 3 8 14
54 25 103 20 96 32 93 33 -8z m-1340 -3 c1 -31 -8 -60 -31 -103 -18 -32 -36
-59 -39 -59 -4 0 -9 37 -12 83 l-5 82 36 38 c32 33 37 35 44 20 3 -10 7 -37 7
-61z m-599 -201 l22 -214 -36 -35 c-19 -20 -37 -34 -40 -31 -2 2 -10 99 -16
214 -12 200 -27 328 -29 230 0 -22 6 -134 14 -250 l13 -210 -26 -27 c-14 -16
-29 -28 -32 -28 -4 0 -10 107 -15 238 -4 130 -9 239 -11 241 -12 12 -12 -26
-3 -254 l10 -250 -28 -22 c-19 -15 -29 -19 -30 -10 -2 6 -9 116 -18 243 l-14
232 102 100 c121 120 106 139 137 -167z m1660 237 c0 -40 -61 -229 -72 -222
-15 9 -8 48 24 152 33 105 48 126 48 70z m4949 8 l23 -24 -54 -6 c-29 -3 -122
-11 -207 -17 -126 -9 -155 -8 -162 3 -8 13 -12 27 -6 29 3 2 336 36 363 38 11
0 31 -10 43 -23z m-5919 -36 c0 -37 -7 -61 -25 -90 -32 -51 -45 -51 -45 0 0
38 45 140 63 140 4 0 7 -23 7 -50z m450 -22 c0 -30 -6 -41 -31 -58 -16 -12
-32 -20 -35 -18 -2 3 8 34 23 71 29 69 43 70 43 5z m150 8 c0 -49 -3 -56 -34
-79 l-34 -26 -6 31 c-11 55 -7 71 27 99 17 16 35 28 40 29 4 0 7 -24 7 -54z
m-550 -18 c-33 -26 -36 -15 -9 29 23 36 24 37 27 13 3 -16 -4 -30 -18 -42z
m1301 -39 l-19 -84 -1 74 c-1 57 3 79 16 93 25 28 26 12 4 -83z m-1658 -24
c-32 -28 -38 -30 -41 -15 -2 10 14 44 35 76 l38 59 3 -43 c3 -40 0 -47 -35
-77z m446 -44 c1 -70 -14 -141 -30 -141 -3 0 -10 59 -14 131 -6 119 -5 132 12
151 18 20 18 20 25 -23 3 -24 7 -77 7 -118z m5351 155 c0 -2 3 -11 6 -19 9
-25 -52 -33 -77 -11 -15 13 -16 19 -7 26 13 8 78 11 78 4z m-4626 -93 c7 -75
5 -84 -42 -223 -54 -159 -53 -158 -67 -16 -5 53 -1 73 42 192 26 73 50 131 54
128 4 -2 10 -39 13 -81z m4523 68 c14 -22 7 -22 -294 -42 -169 -11 -226 -9
-209 9 6 6 377 46 466 51 15 0 30 -7 37 -18z m-4707 -120 c-41 -112 -49 -125
-50 -81 0 19 -3 58 -6 86 l-6 51 43 32 c39 28 44 30 47 13 2 -10 -11 -56 -28
-101z m-1077 -13 l-38 -63 -3 38 c-2 28 5 50 30 91 l33 54 8 -28 c6 -23 0 -41
-30 -92z m216 -28 c1 -34 -6 -55 -26 -85 l-28 -40 -7 93 c-7 89 -6 94 20 138
l27 45 7 -53 c3 -29 6 -73 7 -98z m533 57 c-18 -39 -48 -75 -56 -66 -2 2 10
37 27 78 26 63 32 70 39 51 5 -15 2 -36 -10 -63z m154 -23 c-10 -25 -23 -15
-29 23 -5 27 -2 45 11 63 l17 25 3 -49 c2 -27 1 -55 -2 -62z m-421 -76 c7
-122 6 -125 -17 -152 l-24 -28 -12 157 -12 157 23 18 c22 18 22 18 28 -4 4
-13 10 -79 14 -148z m1225 60 c0 -120 -8 -188 -21 -188 -11 0 -15 166 -6 238
14 98 27 72 27 -50z m3553 98 c5 -11 -18 -15 -114 -21 -109 -7 -141 -4 -127
10 4 5 146 21 204 24 19 0 34 -5 37 -13z m-5100 -11 c-3 -9 -8 -14 -10 -11 -3
3 -2 9 2 15 9 16 15 13 8 -4z m4400 8 c-13 -2 -33 -2 -45 0 -13 2 -3 4 22 4
25 0 35 -2 23 -4z m-3203 -278 c-19 -19 -35 -33 -37 -31 -2 2 -8 28 -13 57 -7
47 -5 65 21 139 16 47 33 92 36 100 4 8 11 -40 16 -108 l10 -123 -33 -34z
m-527 203 c-35 -84 -43 -91 -43 -37 0 38 5 48 32 71 18 15 34 28 35 28 1 0 -9
-28 -24 -62z m-549 -49 c-21 -21 -40 -37 -42 -34 -2 2 13 35 34 72 l39 68 3
-34 c3 -28 -3 -40 -34 -72z m316 -77 l-35 -34 -3 39 c-3 27 6 57 30 107 l33
69 5 -74 6 -74 -36 -33z m529 41 c1 -36 -10 -83 -36 -155 l-38 -103 -9 93 c-8
94 -8 94 30 198 l39 104 7 -43 c3 -23 7 -65 7 -94z m510 -30 c-13 -68 -27
-123 -30 -123 -3 0 -9 53 -13 118 l-7 117 33 28 33 28 4 -23 c1 -13 -8 -78
-20 -145z m-1541 80 l-33 -58 -3 40 c-3 35 1 43 30 68 18 15 34 23 36 17 2 -5
-11 -36 -30 -67z m1347 -82 l-35 -36 20 70 c12 39 24 84 28 100 5 26 7 20 15
-34 l8 -65 -36 -35z m-1035 125 c0 -14 5 -82 11 -152 l11 -126 -34 -28 c-33
-28 -33 -28 -39 -6 -3 12 -9 72 -13 133 -6 94 -5 116 9 144 33 64 55 78 55 35z
m554 -27 c-24 -62 -34 -69 -34 -25 0 27 6 43 23 56 12 10 23 17 25 15 2 -1 -5
-22 -14 -46z m25 -222 l-34 -92 -9 100 c-9 104 -4 128 43 235 l15 35 9 -93 c9
-91 8 -95 -24 -185z m-965 212 c-24 -27 -29 -16 -8 16 10 16 20 23 22 16 2 -7
-4 -21 -14 -32z m838 16 c4 -18 -1 -29 -17 -39 l-23 -15 15 39 c9 22 17 40 18
40 2 0 5 -11 7 -25z m-748 -196 c-21 -22 -42 -39 -46 -39 -4 0 -8 27 -8 59 0
51 5 69 38 123 l37 63 8 -84 8 -84 -37 -38z m665 141 c0 -30 -6 -39 -40 -63
-23 -16 -42 -27 -44 -25 -1 2 13 37 32 78 36 79 53 83 52 10z m136 -69 c-9
-46 -21 -28 -28 41 -5 48 -3 60 11 67 15 8 17 4 20 -32 2 -23 0 -57 -3 -76z
m-1455 72 c0 -21 7 -130 14 -243 l14 -205 -31 -33 c-18 -19 -41 -38 -51 -44
-19 -10 -19 -5 -13 241 4 164 3 250 -3 246 -6 -3 -10 -56 -10 -118 0 -62 -3
-176 -7 -253 l-6 -142 -45 -6 c-25 -3 -47 -4 -50 -2 -2 3 -12 93 -21 201 l-17
197 50 47 c28 26 76 70 106 99 30 28 58 52 63 52 4 0 7 -17 7 -37z m456 -62
l-26 -26 0 23 c0 13 10 41 23 62 l22 40 3 -37 c3 -28 -2 -42 -22 -62z m92 -59
l-33 -57 -7 40 c-14 80 -10 96 30 130 l37 33 3 -44 c2 -36 -4 -56 -30 -102z
m288 81 c-13 -26 -31 -57 -40 -68 -15 -19 -15 -18 -16 20 0 32 7 46 37 77 46
47 53 36 19 -29z m1243 -28 c-28 -125 -33 -131 -39 -45 -5 72 -4 76 24 107 16
18 31 32 32 30 1 -1 -7 -43 -17 -92z m56 -182 c-4 -6 -268 -32 -275 -28 -4 2
-22 0 -40 -5 -42 -12 -56 -3 -34 21 17 18 18 18 38 2 21 -18 21 -18 4 3 -14
16 -15 23 -6 32 19 19 28 14 28 -13 0 -14 5 -25 11 -25 7 0 9 12 5 33 -5 28
-2 38 23 61 l30 29 -15 -49 c-22 -75 -10 -88 13 -14 19 60 21 62 23 30 1 -19
6 -46 11 -60 6 -17 7 -1 5 51 -4 74 -3 78 25 105 16 15 31 25 34 23 2 -3 7
-39 10 -80 8 -101 14 -128 25 -109 6 11 53 206 61 257 1 4 7 -53 14 -127 7
-74 11 -136 10 -137z m-903 192 c-15 -36 -31 -65 -36 -65 -17 0 3 82 25 106
37 39 39 28 11 -41z m182 19 c11 -82 7 -121 -21 -196 l-28 -73 -6 54 c-4 30
-10 89 -14 131 -7 76 -6 78 21 104 16 14 32 26 35 26 3 0 9 -21 13 -46z m385
-93 c-43 -121 -49 -143 -43 -152 3 -5 -5 -9 -18 -9 -24 0 -24 0 27 150 41 124
51 145 57 123 5 -18 -2 -53 -23 -112z m-924 -23 l7 -123 -38 -32 -39 -32 -9
89 c-8 90 -8 90 25 155 19 36 37 65 40 65 4 0 10 -55 14 -122z m393 -31 c-29
-70 -56 -127 -60 -127 -13 0 -9 155 5 173 13 17 100 86 105 83 1 -2 -22 -60
-50 -129z m-801 -68 l-25 -41 -4 74 c-4 65 -1 78 21 116 l26 42 3 -75 c2 -65
0 -81 -21 -116z m280 50 c-23 -38 -25 -39 -31 -17 -13 52 -6 96 22 129 l27 33
3 -52 c2 -41 -2 -61 -21 -93z m343 116 c0 -15 -8 -29 -22 -36 -19 -10 -20 -9
-13 7 4 11 10 27 12 37 8 25 23 21 23 -8z m76 -2 c-7 -16 -21 -46 -30 -68 -13
-31 -19 -36 -26 -25 -19 30 -11 64 22 92 42 35 52 35 34 1z m-752 8 c3 -4 -6
-19 -20 -32 l-26 -24 19 32 c20 37 20 36 27 24z m2256 0 c-8 -5 -30 -12 -47
-16 -28 -5 -32 -4 -27 9 4 11 19 16 48 16 28 -1 36 -3 26 -9z m-2111 -147
c-18 -19 -37 -34 -41 -34 -20 0 -5 58 30 114 l37 61 3 -54 c3 -49 0 -57 -29
-87z m785 -36 c8 -80 1 -84 -58 -35 l-38 33 38 89 39 90 6 -55 c4 -30 10 -85
13 -122z m-173 119 c-13 -13 -15 1 -4 30 7 17 8 17 11 -1 2 -10 -1 -23 -7 -29z
m304 -69 c4 -49 10 -88 15 -88 4 0 22 39 41 88 l33 87 9 -84 c5 -46 5 -87 0
-92 -8 -8 -192 -34 -198 -27 -2 1 9 34 24 72 28 68 28 68 34 36 4 -18 7 -45 7
-61 0 -16 5 -29 10 -29 12 0 12 7 0 92 -7 48 -7 75 2 95 13 33 15 28 23 -89z
m216 -29 l4 -54 -42 -3 c-24 -2 -43 0 -43 5 0 4 14 50 32 101 l33 94 6 -45 c4
-24 9 -69 10 -98z m149 98 c0 -31 -6 -49 -20 -62 -11 -10 -23 -16 -26 -12 -8
7 28 117 38 117 4 0 8 -20 8 -43z m-1420 14 c0 -5 -20 -42 -45 -82 l-45 -73 0
44 c0 37 6 50 37 82 37 38 53 46 53 29z m239 -58 c-43 -77 -49 -83 -49 -45 0
24 9 40 38 67 20 19 38 35 40 35 2 0 -11 -26 -29 -57z m419 -24 c-7 -5 -16 -3
-20 4 -14 21 -9 56 10 66 15 8 17 5 20 -26 2 -22 -2 -39 -10 -44z m-414 -143
c-20 -39 -38 -73 -40 -75 -2 -2 -15 4 -28 13 -35 22 -46 20 -16 -4 l25 -20
-37 0 -36 0 31 58 32 57 3 -42 c2 -24 7 -43 13 -43 5 0 7 22 3 53 -6 48 -3 57
37 127 l44 75 3 -64 c3 -57 -1 -71 -34 -135z m484 109 c-28 -68 -33 -74 -36
-50 -5 40 17 103 42 120 11 8 21 13 23 11 2 -1 -12 -38 -29 -81z m-1373 -101
c8 -93 15 -180 15 -194 0 -24 -5 -26 -99 -43 -54 -10 -108 -21 -120 -24 -21
-5 -21 -3 -21 116 0 78 -4 121 -11 121 -6 0 -9 -42 -8 -122 1 -109 -1 -123
-16 -126 -29 -6 -36 12 -41 103 -3 49 -6 92 -7 96 -1 5 30 34 68 65 l70 56 3
-131 c4 -182 22 -171 22 13 0 140 1 144 24 159 l23 16 7 -106 c3 -58 6 -132 6
-165 0 -36 4 -58 11 -58 8 0 10 20 6 68 -4 37 -7 116 -9 175 l-2 108 30 24
c16 13 30 22 31 21 2 -1 9 -79 18 -172z m1246 93 c-27 -28 -37 -16 -21 25 23
57 35 66 38 28 3 -23 -3 -39 -17 -53z m-610 -91 c-11 -17 -33 -44 -50 -60
l-31 -30 0 62 c0 54 4 68 43 129 l42 67 8 -68 c6 -59 4 -73 -12 -100z m349
-32 l-25 -22 -8 56 c-7 52 -6 62 20 107 l28 50 5 -85 c6 -81 5 -85 -20 -106z
m430 96 l0 -70 -35 0 c-19 0 -35 2 -35 4 0 9 61 136 65 136 3 0 5 -31 5 -70z
m-616 -56 c-33 -57 -52 -57 -56 -1 -3 36 2 47 32 80 l35 38 7 -36 c7 -30 3
-45 -18 -81z m504 50 l-12 -29 -4 33 c-4 38 21 81 26 45 2 -10 -3 -33 -10 -49z
m-769 9 c0 -42 -1 -45 -10 -23 -9 23 -5 70 6 70 3 0 5 -21 4 -47z m647 -6 c-8
-20 -24 -40 -35 -47 -19 -10 -21 -8 -21 19 0 21 9 37 32 56 37 31 45 22 24
-28z m-482 -18 c-38 -40 -41 -30 -7 22 21 32 29 38 31 25 2 -10 -9 -31 -24
-47z m-237 -9 c-27 -40 -36 -48 -39 -33 -4 17 60 98 70 89 2 -3 -12 -28 -31
-56z m812 13 c9 -32 8 -40 -6 -50 -13 -10 -14 -13 -2 -14 8 0 4 -4 -7 -9 -26
-10 -164 -25 -164 -17 0 2 12 13 27 22 23 16 25 16 20 1 -13 -33 13 -15 27 19
17 41 36 46 36 10 0 -14 5 -25 11 -25 8 0 10 12 6 34 -4 28 -1 38 16 50 12 8
23 15 24 15 1 1 7 -16 12 -36z m-788 -96 c-14 -26 -34 -57 -43 -70 -17 -22
-18 -22 -18 22 0 33 9 58 37 105 l38 61 6 -35 c4 -26 -1 -47 -20 -83z m1016
91 c29 -27 29 -35 -2 -40 -17 -4 -29 0 -35 11 -8 14 -9 14 -10 -1 0 -10 -4
-18 -10 -18 -9 0 20 69 29 70 3 0 15 -10 28 -22z m-177 -18 c0 -20 -5 -30 -15
-30 -18 0 -18 2 -3 35 15 32 18 32 18 -5z m-604 -87 c-2 -3 -14 -2 -25 2 -28
9 -27 52 2 83 l22 24 3 -52 c2 -29 1 -54 -2 -57z m394 79 c0 -17 -8 -32 -20
-40 -12 -7 -18 -17 -15 -22 4 -6 -6 -10 -22 -10 -15 0 -39 -3 -52 -7 -15 -4
-22 -2 -20 4 5 13 111 102 122 103 4 0 7 -12 7 -28z m-182 -87 c-2 -1 -18 -5
-36 -8 l-33 -7 33 60 33 59 3 -51 c2 -27 2 -51 0 -53z m-528 45 c0 -17 -12
-49 -27 -72 l-28 -42 -3 48 c-3 39 1 53 19 72 30 32 39 30 39 -6z m139 -27
l-1 -58 -9 45 c-5 25 -7 51 -4 58 10 26 15 10 14 -45z m774 30 c-7 -2 -19 -2
-25 0 -7 3 -2 5 12 5 14 0 19 -2 13 -5z m-657 -89 c-7 -7 -76 -13 -76 -6 0 5
15 29 32 53 l33 44 6 -45 c4 -25 6 -46 5 -46z m-137 -19 c-2 -2 -21 -6 -42
-10 l-37 -7 32 55 33 56 9 -45 c4 -25 7 -47 5 -49z m235 70 c-4 -8 -8 -15 -10
-15 -2 0 -4 7 -4 15 0 8 4 15 10 15 5 0 7 -7 4 -15z m-446 -106 c-24 -16 -35
-9 -42 23 -5 27 -2 35 21 54 l28 22 3 -45 c2 -30 -1 -49 -10 -54z m397 88 c18
-14 15 -18 -17 -30 -14 -5 -18 -1 -18 18 0 28 8 31 35 12z m7013 1 c-5 -15
-68 -24 -68 -9 0 12 18 19 48 20 15 1 22 -4 20 -11z m-8038 -85 l0 -86 -25 23
c-14 13 -25 19 -25 14 0 -5 16 -20 35 -34 19 -14 35 -28 35 -31 0 -4 -15 -7
-34 -7 l-35 0 -6 67 c-4 36 -8 73 -11 81 -3 12 48 60 63 60 2 0 3 -39 3 -87z
m7913 72 c2 -11 -141 -30 -151 -21 -12 12 12 21 71 27 73 7 78 6 80 -6z
m-7185 -27 c-2 -25 -9 -33 -30 -39 -34 -9 -34 -8 -5 36 28 43 39 44 35 3z
m162 12 c0 -5 -5 -10 -11 -10 -5 0 -7 5 -4 10 3 6 8 10 11 10 2 0 4 -4 4 -10z
m6850 1 c0 -12 -34 -18 -135 -26 -44 -3 -93 -8 -110 -12 -17 -3 -26 -2 -22 3
5 5 56 16 115 25 131 20 152 22 152 10z m-7174 -67 c-3 -8 -18 -14 -33 -14
l-27 0 30 31 c23 24 30 27 32 14 2 -9 1 -23 -2 -31z m-650 -119 c-2 -6 -37
-17 -78 -24 -40 -7 -109 -22 -153 -32 -44 -10 -84 -19 -90 -19 -5 0 43 35 105
78 63 42 138 94 165 115 l50 39 3 -73 c2 -40 1 -77 -2 -84z m7509 144 c-22 -4
-51 -8 -65 -7 -35 1 34 15 75 16 25 0 23 -2 -10 -9z m-10145 -119 c0 -16 -4
-30 -10 -30 -5 0 -10 14 -10 30 0 17 5 30 10 30 6 0 10 -13 10 -30z m75 18
c14 -6 25 -17 25 -25 0 -16 -29 -4 -50 21 -15 19 -10 20 25 4z m-35 -44 c0
-15 -6 -24 -15 -24 -11 0 -15 11 -15 36 0 31 2 35 15 24 8 -7 15 -23 15 -36z
m132 5 c26 -8 36 -17 35 -30 -1 -11 -5 -19 -10 -19 -13 0 -71 32 -79 44 -12
17 -9 28 5 22 6 -2 29 -10 49 -17z m-87 -5 c14 -9 25 -25 25 -35 0 -22 0 -22
-34 -9 -19 7 -26 17 -26 35 0 29 3 30 35 9z m235 -79 l0 -23 -50 21 c-39 16
-50 26 -50 43 l0 23 50 -21 c39 -16 50 -26 50 -43z m-286 34 c20 -19 -1 -17
-29 2 -28 19 -28 20 -5 14 14 -4 29 -11 34 -16z m136 1 c22 -11 40 -27 40 -35
0 -19 -1 -19 -50 1 -27 11 -40 22 -40 35 0 24 2 24 50 -1z m-1237 -52 c-6 -42
-120 -284 -129 -275 -3 3 10 36 28 73 19 38 49 108 67 157 19 48 36 87 38 87
2 0 0 -19 -4 -42z m1179 19 c15 -24 7 -26 -27 -10 -19 9 -35 21 -35 26 0 12
53 -1 62 -16z m272 -2 c24 -10 36 -22 36 -35 0 -24 -9 -25 -55 -6 -24 10 -35
22 -35 35 0 25 6 26 54 6z m-110 -15 c25 -12 46 -26 46 -32 0 -5 -6 -8 -12 -5
-7 2 -30 10 -50 18 -21 7 -38 19 -38 26 0 17 -1 17 54 -7z m-274 -21 c0 -10
-4 -19 -10 -19 -5 0 -10 12 -10 26 0 14 4 23 10 19 6 -3 10 -15 10 -26z m177
19 c21 -8 33 -19 33 -30 0 -17 -2 -17 -36 -3 -20 8 -38 15 -40 15 -2 0 -4 7
-4 15 0 18 4 18 47 3z m-127 -36 c0 -11 -8 -18 -20 -19 -11 -1 -20 3 -20 8 0
6 5 7 10 4 6 -3 10 -2 10 4 0 5 -4 13 -10 16 -20 12 -10 26 10 15 11 -6 20
-19 20 -28z m460 -18 c0 -22 -1 -23 -37 -10 -29 10 -39 19 -41 39 l-3 26 40
-16 c31 -12 41 -21 41 -39z m-235 17 c37 -14 51 -25 53 -41 3 -16 0 -21 -10
-18 -88 36 -98 42 -98 59 0 23 -5 23 55 0z m1755 9 l25 -7 -30 -7 c-16 -4 -34
-9 -40 -10 -5 -2 -28 5 -50 15 l-40 18 55 -1 c30 0 66 -3 80 -8z m-2702 -36
l4 -29 -26 24 c-19 18 -23 27 -14 33 21 13 33 3 36 -28z m766 25 c20 -10 42
-46 32 -56 -1 -1 -17 3 -34 9 -23 9 -32 19 -32 35 0 26 1 27 34 12z m324 -27
c2 -7 -12 -5 -37 5 -23 9 -41 20 -41 24 0 12 73 -16 78 -29z m171 7 c32 -10
41 -17 41 -35 l0 -23 -52 18 c-41 14 -54 23 -56 41 -3 17 0 21 11 17 8 -3 33
-11 56 -18z m1360 5 c7 -6 -2 -11 -36 -17 -29 -6 -33 -4 -33 14 0 18 4 20 33
14 17 -4 34 -9 36 -11z m-79 -9 c0 -8 -16 -19 -37 -24 -58 -16 -62 -13 -18 13
48 29 55 30 55 11z m-2562 -26 c13 -16 22 -33 20 -38 -2 -6 -16 8 -31 30 -33
45 -23 52 11 8z m447 -21 c13 -29 22 -54 20 -56 -2 -2 -31 6 -64 18 -53 20
-59 25 -51 41 11 19 49 49 63 49 4 0 19 -23 32 -52z m663 -1 l3 -26 -40 16
c-31 12 -41 21 -41 39 0 22 1 23 38 10 28 -10 38 -19 40 -39z m-1489 -9 c-3
-29 -13 -70 -23 -90 -22 -50 -20 -61 4 -18 l19 35 1 -27 c0 -16 -4 -28 -8 -28
-5 0 -15 -14 -23 -32 -15 -31 -15 -31 -17 42 -2 59 2 84 20 122 13 26 25 48
29 48 3 0 2 -24 -2 -52z m442 30 c11 -11 19 -32 19 -46 l0 -25 -25 23 c-14 13
-25 34 -25 47 0 29 7 29 31 1z m814 8 c31 -13 50 -46 26 -46 -29 0 -71 24 -71
41 0 23 1 23 45 5z m300 -1 l30 -15 -35 6 c-19 3 -39 10 -44 15 -15 14 15 10
49 -6z m-1156 -100 l0 -30 -26 43 c-14 24 -28 41 -30 38 -3 -3 9 -28 26 -56
29 -47 31 -56 30 -143 l0 -92 -35 89 c-31 80 -34 98 -33 174 l2 85 34 -39 c21
-26 33 -49 32 -69z m1378 84 c19 -7 21 -12 14 -33 -6 -13 -7 -27 -4 -30 4 -3
-7 -2 -23 3 -55 18 -59 21 -19 16 l40 -4 -35 13 c-24 8 -36 20 -38 35 -4 24 1
24 65 0z m-707 -64 c0 -43 -4 -75 -10 -75 -6 0 -10 32 -10 75 0 43 4 75 10 75
6 0 10 -32 10 -75z m36 57 c13 -8 29 -82 18 -82 -18 0 -44 36 -44 62 0 28 6
33 26 20z m453 -3 c23 -8 31 -17 31 -36 0 -21 -3 -23 -22 -17 -57 17 -68 25
-68 44 0 23 13 25 59 9z m115 -14 l31 -14 -30 6 c-16 3 -43 12 -60 19 l-30 14
29 -5 c16 -4 43 -12 60 -20z m-310 -5 c40 -18 61 -40 38 -40 -27 0 -102 34
-102 46 0 19 9 18 64 -6z m516 -22 c0 -15 -5 -18 -20 -14 -11 3 -29 8 -39 11
-13 4 -17 12 -14 24 4 16 9 17 39 8 23 -7 34 -16 34 -29z m-1369 -22 c27 -60
23 -75 -11 -36 -17 20 -29 47 -30 63 0 37 17 26 41 -27z m665 35 c27 -17 32
-26 37 -73 3 -29 1 -57 -3 -62 -4 -4 -22 -5 -39 -1 -22 5 -31 12 -31 26 0 16
3 18 19 9 11 -5 23 -15 26 -20 3 -6 11 -10 17 -10 6 0 -5 15 -24 33 -28 24
-37 42 -41 75 -3 23 -2 42 1 42 4 0 21 -9 38 -19z m-866 -12 c0 -11 -4 -18
-10 -14 -5 3 -7 12 -3 20 7 21 13 19 13 -6z m1346 10 c37 -10 44 -15 44 -35 0
-27 -7 -29 -61 -12 -31 9 -39 16 -39 35 0 27 -2 26 56 12z m-1212 -24 c17 -26
21 -45 8 -45 -8 0 -42 52 -42 64 0 14 19 4 34 -19z m1509 9 c28 -10 47 -22 47
-31 0 -11 -7 -14 -26 -9 -15 4 -39 10 -55 13 -20 4 -29 12 -29 24 0 23 4 23
63 3z m-453 -36 c0 -5 -10 -6 -22 -3 -13 4 -31 9 -40 11 -10 3 -18 11 -18 19
0 11 7 10 40 -2 22 -9 40 -20 40 -25z m-224 16 c20 -16 20 -16 -33 2 -10 3 -4
-3 12 -15 23 -15 32 -31 36 -63 4 -24 5 -45 3 -47 -1 -1 -15 1 -31 6 -23 8
-29 17 -36 58 -12 73 5 95 49 59z m507 -1 c4 -2 7 -15 7 -29 0 -21 -4 -24 -20
-20 -11 3 -29 9 -40 12 -13 3 -20 14 -20 30 0 24 3 25 33 19 17 -4 35 -9 40
-12z m67 2 c19 -7 28 -14 20 -14 -8 0 -28 6 -45 14 -39 17 -21 18 25 0z m-720
-62 c0 -24 -7 -27 -34 -17 -11 4 -16 19 -16 47 l0 40 25 -23 c14 -13 25 -34
25 -47z m1125 15 c90 -11 96 -13 60 -20 -67 -12 -112 -9 -211 14 -74 17 -94
25 -94 39 0 16 4 16 73 -2 39 -10 117 -24 172 -31z m-1955 -25 c0 -50 -3 -64
-11 -56 -18 18 -12 123 7 123 2 0 4 -30 4 -67z m17 45 c-3 -8 -6 -5 -6 6 -1
11 2 17 5 13 3 -3 4 -12 1 -19z m1093 -30 c0 -19 -18 -15 -80 17 -48 25 -35
34 25 16 39 -11 55 -21 55 -33z m470 5 c0 -23 -3 -24 -32 -18 -45 10 -48 13
-48 40 0 22 2 22 40 13 33 -9 40 -15 40 -35z m-1436 5 c10 -18 16 -46 14 -63
l-3 -30 -22 38 c-23 38 -31 87 -15 87 5 0 17 -15 26 -32z m266 1 c0 -10 -5
-19 -12 -19 -9 0 -9 -3 0 -12 7 -7 12 -25 12 -40 0 -15 -5 -28 -12 -28 -9 0
-9 -3 0 -12 7 -7 12 -30 12 -51 0 -34 -2 -38 -15 -27 -11 9 -15 34 -13 104 0
50 3 97 6 103 6 18 22 5 22 -18z m850 15 l35 -14 -35 5 c-19 3 -39 10 -44 15
-14 14 2 12 44 -6z m363 9 c-7 -2 -19 -2 -25 0 -7 3 -2 5 12 5 14 0 19 -2 13
-5z m-1387 -94 l3 -34 -34 40 c-19 22 -35 51 -35 65 l0 25 31 -32 c20 -19 33
-43 35 -64z m249 71 c3 0 3 4 0 10 -7 11 65 -17 80 -31 14 -14 -6 -10 -35 6
-30 17 -44 19 -34 4 3 -6 -8 -3 -25 5 -17 9 -31 19 -31 22 0 2 9 0 19 -6 11
-5 22 -10 26 -10z m-845 -32 c-1 -27 -12 -63 -30 -98 l-29 -55 -1 45 c0 43 37
149 53 150 4 0 7 -19 7 -42z m860 -30 l0 -28 -40 28 c-26 18 -39 35 -40 50 l0
23 40 -22 c32 -18 40 -28 40 -51z m1181 56 c11 -3 15 -12 12 -24 -4 -15 -12
-18 -41 -13 -56 7 -62 11 -62 34 0 19 4 21 38 15 20 -4 44 -9 53 -12z m-617
-19 c47 -21 56 -29 56 -51 0 -25 -1 -26 -52 -19 -29 4 -54 8 -54 9 -3 3 -12
86 -9 86 1 0 28 -11 59 -25z m136 -17 c0 -21 2 -21 -39 -7 -19 7 -31 18 -31
29 0 16 4 17 35 7 23 -7 35 -16 35 -29z m670 -5 c3 -2 -4 -11 -14 -19 -14 -10
-22 -11 -27 -3 -3 6 -33 13 -66 16 -51 5 -60 8 -56 23 4 16 10 16 81 3 42 -8
79 -17 82 -20z m-1852 -250 l0 -278 -15 95 c-9 61 -12 127 -8 185 6 84 8 127
13 233 1 23 4 42 6 42 3 0 4 -125 4 -277z m527 265 c14 -6 25 -15 25 -20 0 -5
-13 -2 -30 7 -45 23 -41 34 5 13z m747 -14 c5 -3 8 -12 8 -21 0 -12 -7 -14
-37 -8 -47 9 -53 12 -53 32 0 12 7 14 37 8 21 -4 41 -9 45 -11z m-1616 -65
c-14 -30 -25 -46 -25 -37 -1 21 42 113 47 100 1 -4 -9 -33 -22 -63z m552 -51
l-3 -43 -27 46 c-18 29 -28 60 -28 84 l0 39 31 -42 c25 -34 30 -49 27 -84z
m250 74 c18 -14 23 -26 20 -55 l-3 -38 -37 31 c-31 25 -38 38 -38 66 0 38 6
37 58 -4z m72 23 c23 -12 30 -22 30 -45 0 -36 -4 -36 -38 -9 -16 12 -27 31
-27 45 -1 28 -2 28 35 9z m647 -5 c2 0 3 -11 3 -24 0 -21 -3 -23 -32 -17 -26
5 -34 12 -36 33 -3 26 -2 27 30 17 18 -5 34 -9 35 -9z m175 6 c43 -10 25 -32
-22 -28 -32 3 -40 8 -40 24 0 14 5 18 18 15 9 -3 29 -8 44 -11z m-1229 -29
c14 -26 17 -52 15 -137 l-3 -105 -18 39 c-12 28 -18 69 -20 138 -1 54 0 98 3
98 3 0 13 -15 23 -33z m-575 -47 c2 -62 -1 -76 -30 -132 l-33 -63 -3 42 c-2
31 5 57 28 103 17 34 29 64 26 67 -3 3 -18 -23 -34 -58 -17 -35 -115 -237
-219 -449 l-189 -385 3 -72 c2 -57 -1 -72 -14 -77 -11 -5 -14 -2 -8 11 16 41
17 49 3 31 -7 -9 -21 -31 -31 -49 -34 -61 -28 -21 7 50 20 39 36 76 35 83 0 7
-21 -27 -46 -77 -42 -83 -61 -110 -71 -100 -3 2 7 23 21 47 33 58 452 889 506
1006 24 50 44 92 45 92 0 0 2 -31 4 -70z m1912 44 c0 -15 -12 -17 -47 -8 -38
10 -28 31 12 26 21 -3 35 -10 35 -18z m-1411 -64 c28 -67 32 -89 37 -205 3
-71 3 -127 0 -124 -3 3 -21 57 -41 120 -29 94 -35 130 -35 203 0 49 2 87 4 85
2 -2 18 -38 35 -79z m701 70 c0 -5 -4 -10 -10 -10 -5 0 -10 5 -10 10 0 6 5 10
10 10 6 0 10 -4 10 -10z m40 -16 c0 -8 -7 -14 -15 -14 -8 0 -15 9 -15 20 0 13
5 18 15 14 8 -4 15 -12 15 -20z m476 16 c8 0 14 -9 14 -20 0 -19 -4 -20 -37
-14 -48 8 -53 12 -53 31 0 12 7 14 31 9 17 -3 38 -6 45 -6z m-1297 -75 c0 -22
-4 -58 -8 -80 -7 -32 -9 -19 -9 60 0 64 2 93 8 80 5 -11 9 -38 9 -60z m851 49
c0 -8 -4 -14 -10 -14 -5 0 -10 9 -10 21 0 11 5 17 10 14 6 -3 10 -13 10 -21z
m709 20 c17 -4 29 -9 27 -13 -6 -10 -86 0 -86 10 0 11 16 11 59 3z m-1873
-171 l-25 -48 -1 62 c0 45 6 75 23 109 l22 46 3 -60 c2 -49 -2 -70 -22 -109z
m1205 157 c23 -13 26 -45 3 -36 -9 3 -20 6 -25 6 -5 0 -9 9 -9 20 0 23 4 24
31 10z m487 4 c12 -4 22 -13 22 -21 0 -10 -6 -13 -16 -9 -9 3 -27 6 -40 6 -15
0 -24 6 -24 15 0 16 20 19 58 9z m242 -4 c0 -5 -4 -10 -10 -10 -5 0 -10 5 -10
10 0 6 5 10 10 10 6 0 10 -4 10 -10z m-1975 -47 c-2 -51 -43 -158 -44 -115 -1
12 8 41 20 63 11 23 18 43 15 47 -3 3 -13 -12 -21 -33 -9 -20 -18 -35 -21 -32
-4 4 46 117 51 117 1 0 1 -21 0 -47z m1295 16 c0 -10 -4 -19 -10 -19 -5 0 -10
12 -10 26 0 14 4 23 10 19 6 -3 10 -15 10 -26z m550 10 c0 -5 -16 -9 -35 -9
-22 0 -35 5 -35 13 0 9 11 12 35 9 19 -2 35 -8 35 -13z m201 12 c-12 -8 -51
-4 -51 5 0 2 15 4 33 4 22 0 28 -3 18 -9z m-1122 -30 c24 -22 31 -38 31 -65 0
-20 -2 -36 -6 -36 -3 0 -21 12 -40 28 -28 22 -34 34 -34 65 0 45 8 46 49 8z
m208 9 c-1 -11 -5 -20 -9 -20 -4 0 -8 9 -8 20 0 11 4 20 9 20 6 0 9 -9 8 -20z
m219 10 c8 0 14 -10 14 -24 0 -22 -3 -23 -27 -17 -19 5 -29 15 -31 31 -3 18 0
21 13 16 9 -3 23 -6 31 -6z m580 0 c8 0 14 -5 14 -11 0 -16 -83 -7 -88 10 -4
11 3 13 28 8 18 -4 39 -7 46 -7z m-756 -30 c0 -22 -4 -28 -15 -24 -8 4 -15 17
-15 30 0 15 6 24 15 24 10 0 15 -10 15 -30z m800 26 c0 -3 -4 -8 -10 -11 -5
-3 -10 -1 -10 4 0 6 5 11 10 11 6 0 10 -2 10 -4z m-1386 -220 l-7 -121 -23 50
c-20 43 -23 67 -23 169 l-1 120 31 -49 31 -49 -8 -120z m244 184 c26 -24 32
-37 32 -71 l0 -41 -39 33 c-32 28 -39 41 -40 72 -1 20 2 37 7 37 4 0 22 -14
40 -30z m372 0 c0 -16 -4 -30 -10 -30 -5 0 -10 14 -10 30 0 17 5 30 10 30 6 0
10 -13 10 -30z m219 21 c22 -14 22 -41 1 -41 -32 0 -50 11 -50 31 0 20 25 25
49 10z m-168 -11 c5 0 9 -16 9 -35 0 -31 -2 -34 -22 -26 -16 6 -24 18 -26 41
-3 27 -1 32 13 26 9 -3 21 -6 26 -6z m225 1 c-18 -7 -18 -8 -3 -14 25 -9 22
-36 -3 -30 -33 9 -25 54 9 52 12 0 11 -2 -3 -8z m92 -20 c4 -11 -2 -12 -24 -7
-45 11 -55 28 -15 24 19 -2 37 -9 39 -17z m-273 -39 c0 -23 3 -42 8 -42 4 0 7
-18 7 -39 0 -22 5 -43 10 -46 7 -4 8 8 4 34 -5 31 -3 41 7 41 27 0 41 -17 37
-45 -2 -22 -11 -31 -40 -41 l-37 -12 -6 36 c-3 20 -5 51 -5 67 0 17 -2 45 -6
64 -5 26 -4 33 7 29 9 -3 14 -20 14 -46z m361 38 c8 0 14 -7 14 -15 0 -16 -12
-18 -59 -9 -18 4 -31 13 -31 22 0 11 7 13 31 8 17 -3 38 -6 45 -6z m-531 -40
c0 -22 -3 -40 -7 -40 -5 0 -8 18 -8 40 0 22 3 40 8 40 4 0 7 -18 7 -40z m222
32 c11 -7 30 -82 20 -82 -3 0 -17 4 -31 10 -21 8 -26 16 -26 45 0 35 12 43 37
27z m353 -13 c0 -11 -4 -17 -10 -14 -5 3 -10 13 -10 21 0 8 5 14 10 14 6 0 10
-9 10 -21z m-930 -66 c0 -48 -2 -54 -15 -43 -10 8 -15 31 -15 67 0 48 2 54 15
43 10 -8 15 -31 15 -67z m402 16 c1 -27 1 -49 -2 -49 -17 0 -30 29 -30 67 0
62 27 48 32 -18z m396 46 c11 -11 -6 -15 -36 -9 -18 4 -32 11 -32 17 0 9 58 3
68 -8z m180 3 c-3 -7 -11 -13 -18 -13 -7 0 -15 6 -17 13 -3 7 4 12 17 12 13 0
20 -5 18 -12z m39 6 c-3 -3 -12 -4 -19 -1 -8 3 -5 6 6 6 11 1 17 -2 13 -5z
m-363 -10 c10 -4 16 -18 16 -41 0 -32 -2 -34 -27 -31 -23 3 -29 9 -34 41 -6
39 5 46 45 31z m-474 -75 c12 -21 13 -69 2 -69 -4 0 -24 14 -45 31 -31 26 -37
36 -37 70 l0 40 35 -27 c20 -15 40 -35 45 -45z m258 13 c2 -32 -1 -52 -7 -52
-6 0 -11 18 -11 39 0 22 -3 47 -7 57 -4 12 -2 15 8 12 9 -3 15 -23 17 -56z
m276 42 c17 -17 22 -74 7 -74 -5 0 -15 -2 -23 -5 -9 -4 -14 8 -16 45 -3 52 5
61 32 34z m161 6 l30 -8 -30 0 c-16 0 -39 3 -50 8 l-20 9 20 -1 c11 0 34 -4
50 -8z m-75 -31 c0 -12 -10 -23 -26 -29 -35 -14 -34 -14 -34 23 0 32 2 33 30
29 21 -3 30 -10 30 -23z m-1592 -131 l-23 -43 -3 48 c-2 34 4 63 20 99 l23 52
3 -57 c2 -43 -2 -66 -20 -99z m882 23 l-1 -66 -39 42 c-37 39 -40 47 -40 98
l0 56 40 -32 c39 -32 40 -33 40 -98z m392 117 c11 -9 18 -32 20 -70 l3 -56
-27 16 c-25 15 -28 22 -28 69 0 55 5 62 32 41z m395 -3 c2 -1 -13 -6 -32 -12
-31 -10 -35 -9 -35 8 0 16 5 18 33 12 17 -3 33 -7 34 -8z m-1746 -82 c-16 -32
-30 -51 -31 -43 0 19 54 123 58 111 2 -5 -10 -36 -27 -68z m159 -75 c-2 -124
-5 -149 -23 -188 -14 -29 -23 -39 -25 -28 -2 9 6 35 18 58 12 23 19 44 16 47
-3 3 -11 -7 -18 -23 l-13 -29 -3 47 c-2 33 3 59 17 87 25 48 27 68 3 26 l-17
-30 -3 44 c-2 31 3 56 20 87 13 24 24 44 26 44 2 0 2 -64 2 -142z m1064 72 c1
-22 -2 -40 -6 -40 -5 0 -8 21 -8 47 0 56 12 50 14 -7z m-1300 -92 l-28 -53 -7
34 c-6 29 -1 46 24 95 l32 61 3 -42 c2 -30 -4 -56 -24 -95z m85 36 c-25 -52
-34 -64 -36 -47 -5 25 59 156 64 132 2 -8 -11 -47 -28 -85z m1509 79 c-5 -26
-38 -29 -38 -4 0 15 6 21 21 21 14 0 19 -5 17 -17z m-899 -193 l0 -125 -19 35
c-16 30 -19 55 -19 165 l1 130 19 -40 c15 -33 18 -63 18 -165z m649 188 c13
-13 16 -66 6 -92 -7 -17 -34 -22 -34 -6 0 6 8 10 18 10 16 1 16 1 0 11 -12 7
-18 22 -18 49 0 41 7 49 28 28z m-410 -20 c10 -21 22 -128 14 -128 -2 0 -12
10 -23 23 -14 16 -18 36 -17 75 2 57 8 64 26 30z m170 -16 c30 -23 32 -28 32
-86 l0 -62 -37 -14 c-21 -8 -41 -16 -45 -18 -5 -2 -8 13 -8 34 0 34 1 36 18
22 36 -32 46 -29 15 3 -30 32 -33 41 -33 98 0 68 -1 67 58 23z m-494 -88 c30
-91 36 -126 36 -195 l0 -85 -65 -32 c-36 -18 -68 -32 -70 -32 -8 0 -6 251 2
306 7 47 8 44 24 -71 10 -66 18 -137 18 -157 1 -21 4 -38 9 -38 4 0 6 95 4
212 -2 117 -1 210 2 208 2 -3 20 -55 40 -116z m780 64 c5 -21 3 -28 -9 -28
-11 0 -15 11 -15 37 0 41 13 35 24 -9z m-1301 -133 l-28 -50 -3 34 c-2 22 7
59 25 100 l28 66 3 -50 c2 -41 -3 -61 -25 -100z m1339 130 c0 -5 -5 -11 -11
-13 -6 -2 -11 4 -11 13 0 9 5 15 11 13 6 -2 11 -8 11 -13z m-1254 -148 c0
-114 -4 -159 -15 -178 -14 -24 -14 -24 -10 11 2 19 6 42 9 50 3 8 3 12 1 8
-14 -25 -22 2 -22 75 1 45 -1 87 -3 92 -3 10 31 95 38 95 2 0 3 -69 2 -153z
m830 113 c26 -31 32 -47 32 -84 0 -25 -4 -46 -8 -46 -5 0 -20 12 -34 28 -21
21 -27 39 -30 85 -1 31 -1 57 2 57 3 0 20 -18 38 -40z m294 -5 c-6 -34 -12
-32 -12 6 0 16 4 28 9 25 4 -3 6 -17 3 -31z m-1265 3 c-3 -12 -2 -29 4 -39 13
-25 -50 -169 -63 -144 -7 11 0 34 21 77 38 74 41 103 4 33 -14 -27 -28 -45
-30 -38 -2 6 10 39 27 72 31 62 47 79 37 39z m717 -173 c-5 -68 -10 -84 -24
-88 -17 -4 -18 6 -19 132 l-1 136 26 -48 c23 -44 24 -55 18 -132z m-826 18
c-29 -60 -33 -64 -40 -42 -6 21 -7 20 -5 -7 2 -38 -41 -134 -60 -134 -8 0 -12
-4 -8 -9 3 -5 -2 -26 -12 -46 -14 -30 -18 -33 -24 -18 -6 13 -8 9 -8 -15 -1
-18 -11 -52 -23 -75 -21 -39 -23 -40 -26 -17 -3 17 33 100 114 263 107 214
119 235 122 203 2 -25 -7 -56 -30 -103z m1032 37 c0 -29 -5 -42 -19 -50 -11
-5 -22 -10 -25 -10 -3 0 -6 35 -6 78 l1 77 24 -28 c18 -20 25 -40 25 -67z
m-857 -75 l-28 -50 -3 40 c-2 30 5 54 25 90 l28 50 3 -40 c2 -30 -5 -54 -25
-90z m-83 -44 c-37 -72 -39 -74 -40 -41 0 19 15 68 32 109 33 73 33 73 39 40
6 -27 0 -47 -31 -108z m974 120 c17 -19 17 -20 -3 -31 -19 -10 -21 -8 -21 20
0 35 1 36 24 11z m-1063 -98 c-16 -32 -30 -50 -31 -41 0 25 54 133 58 115 2
-9 -10 -42 -27 -74z m294 -105 c-19 -28 -19 -50 0 -24 14 18 15 14 15 -47 0
-56 -3 -68 -20 -77 -18 -10 -19 -6 -20 87 0 54 -1 106 -2 115 -1 10 7 37 18
60 l19 43 3 -68 c2 -48 -1 -73 -13 -89z m475 56 c0 -7 -9 -18 -20 -24 -19 -10
-20 -8 -20 57 l0 68 20 -44 c11 -24 20 -49 20 -57z m-583 -31 c-12 -24 -25
-43 -29 -43 -17 0 -7 77 14 118 l23 42 6 -37 c5 -27 1 -49 -14 -80z m-149 85
c1 -13 -10 -49 -25 -81 -23 -49 -28 -55 -35 -38 -5 14 2 40 20 80 15 33 29 60
32 61 3 0 7 -10 8 -22z m59 -126 c-42 -77 -42 -77 -45 -42 -3 25 7 57 35 113
l38 79 7 -37 c7 -31 2 -46 -35 -113z m-164 -18 c-22 -46 -28 -54 -31 -37 -4
24 51 132 56 110 1 -7 -10 -40 -25 -73z m80 -29 c-39 -69 -43 -30 -6 50 26 57
28 58 31 30 2 -20 -7 -49 -25 -80z m92 -63 l-43 -84 -5 39 c-4 31 3 54 37 121
l41 83 6 -38 c6 -32 0 -51 -36 -121z m83 66 c-22 -42 -23 -42 -26 -16 -2 16 7
46 20 69 22 40 23 40 26 16 2 -14 -7 -45 -20 -69z m70 49 c2 -43 -14 -97 -29
-97 -13 0 -11 82 4 113 17 37 22 34 25 -16z m-313 -101 c-14 -32 -24 -61 -21
-63 3 -3 13 14 22 37 13 33 19 39 26 26 6 -10 -1 -33 -21 -73 -17 -32 -31 -56
-31 -53 -1 3 -4 33 -6 67 -4 54 -1 70 23 115 24 47 28 50 31 28 1 -14 -9 -52
-23 -84z m73 -52 l-23 -39 -3 34 c-2 21 5 50 20 78 l23 44 3 -39 c2 -27 -4
-51 -20 -78z m184 -1 c-9 -18 -19 -33 -24 -33 -14 0 -8 68 10 106 l17 37 6
-39 c4 -26 1 -49 -9 -71z m-328 9 c-26 -52 -32 -14 -7 42 15 35 18 38 21 18 2
-13 -4 -40 -14 -60z m256 -26 c-26 -56 -54 -85 -68 -71 -4 4 13 45 38 92 38
73 46 82 50 62 4 -15 -4 -46 -20 -83z m116 16 c-15 -15 -16 -14 -16 7 0 12 6
32 12 44 13 22 13 21 16 -7 2 -17 -3 -35 -12 -44z m-365 -79 l-20 -38 -1 38
c0 21 8 52 17 70 l18 32 3 -32 c2 -18 -6 -48 -17 -70z m154 -14 c-9 -16 -20
-29 -25 -29 -16 0 -11 56 7 96 l18 36 7 -37 c6 -25 3 -45 -7 -66z m113 40
c-25 -16 -28 -9 -10 28 l17 36 3 -28 c2 -15 -2 -32 -10 -36z m-326 -45 c-16
-32 -20 -34 -24 -17 -3 11 4 42 16 69 l21 49 3 -32 c2 -17 -5 -48 -16 -69z
m137 -14 c-13 -22 -26 -40 -31 -40 -17 0 -7 53 20 103 l27 52 3 -38 c2 -25 -4
-50 -19 -77z m261 100 c0 -5 -5 -10 -11 -10 -5 0 -7 5 -4 10 3 6 8 10 11 10 2
0 4 -4 4 -10z m-456 -102 c-24 -46 -29 -18 -7 39 16 43 18 45 21 21 2 -15 -5
-42 -14 -60z m122 -25 c-14 -26 -25 -40 -26 -30 0 24 42 105 47 90 2 -6 -7
-33 -21 -60z m-58 -45 l-23 -43 -3 32 c-2 19 6 49 20 75 l23 43 3 -32 c2 -19
-6 -49 -20 -75z m151 51 c-20 -12 -22 -4 -8 23 12 21 13 21 17 4 2 -10 -2 -22
-9 -27z m-191 -39 c0 -33 -5 -63 -10 -66 -5 -3 -6 7 -3 23 l6 28 -16 -27 c-21
-37 -24 -35 -20 11 3 33 29 91 41 91 1 0 2 -27 2 -60z m118 5 c-3 -8 -10 -15
-15 -15 -7 0 -6 10 1 26 12 26 25 16 14 -11z"/>
<path d="M4999 5956 c-5 -5 40 -418 47 -425 12 -13 10 24 -12 209 -26 220 -27
224 -35 216z"/>
<path d="M756 4614 c-4 -9 -4 -19 -1 -22 2 -3 7 3 11 12 4 9 4 19 1 22 -2 3
-7 -3 -11 -12z"/>
</g>
</svg>
