<?xml version="1.0" encoding="UTF-8"?>
<!-- Created with Inkscape (http://www.inkscape.org/) -->
<svg width="663" height="793.7" version="1.1" viewBox="0 0 175.42 210" xmlns="http://www.w3.org/2000/svg" xmlns:cc="http://creativecommons.org/ns#" xmlns:dc="http://purl.org/dc/elements/1.1/" xmlns:rdf="http://www.w3.org/1999/02/22-rdf-syntax-ns#">
 <defs>
  <marker id="marker5618" overflow="visible" orient="auto">
   <path transform="matrix(.4 0 0 .4 2.96 .4)" d="m-2.5-1c0 2.76-2.24 5-5 5s-5-2.24-5-5 2.24-5 5-5 5 2.24 5 5z" fill-rule="evenodd" stroke="#000" stroke-width="1pt"/>
  </marker>
  <marker id="marker45230" overflow="visible" orient="auto">
   <path transform="matrix(.4 0 0 .4 2.96 .4)" d="m-2.5-1c0 2.76-2.24 5-5 5s-5-2.24-5-5 2.24-5 5-5 5 2.24 5 5z" fill-rule="evenodd" stroke="#000" stroke-width="1pt"/>
  </marker>
  <marker id="DotM" overflow="visible" orient="auto">
   <path transform="matrix(.4 0 0 .4 2.96 .4)" d="m-2.5-1c0 2.76-2.24 5-5 5s-5-2.24-5-5 2.24-5 5-5 5 2.24 5 5z" fill-rule="evenodd" stroke="#000" stroke-width="1pt"/>
  </marker>
  <marker id="DotM-4" overflow="visible" orient="auto">
   <path transform="matrix(.4 0 0 .4 2.96 .4)" d="m-2.5-1c0 2.76-2.24 5-5 5s-5-2.24-5-5 2.24-5 5-5 5 2.24 5 5z" fill-rule="evenodd" stroke="#000" stroke-width="1pt"/>
  </marker>
  <marker id="marker45230-3" overflow="visible" orient="auto">
   <path transform="matrix(.4 0 0 .4 2.96 .4)" d="m-2.5-1c0 2.76-2.24 5-5 5s-5-2.24-5-5 2.24-5 5-5 5 2.24 5 5z" fill-rule="evenodd" stroke="#000" stroke-width="1pt"/>
  </marker>
  <marker id="DotM-0" overflow="visible" orient="auto">
   <path transform="matrix(.4 0 0 .4 2.96 .4)" d="m-2.5-1c0 2.76-2.24 5-5 5s-5-2.24-5-5 2.24-5 5-5 5 2.24 5 5z" fill-rule="evenodd" stroke="#000" stroke-width="1pt"/>
  </marker>
  <marker id="marker45230-2" overflow="visible" orient="auto">
   <path transform="matrix(.4 0 0 .4 2.96 .4)" d="m-2.5-1c0 2.76-2.24 5-5 5s-5-2.24-5-5 2.24-5 5-5 5 2.24 5 5z" fill-rule="evenodd" stroke="#000" stroke-width="1pt"/>
  </marker>
  <marker id="DotM-3" overflow="visible" orient="auto">
   <path transform="matrix(.4 0 0 .4 2.96 .4)" d="m-2.5-1c0 2.76-2.24 5-5 5s-5-2.24-5-5 2.24-5 5-5 5 2.24 5 5z" fill-rule="evenodd" stroke="#000" stroke-width="1pt"/>
  </marker>
  <marker id="marker45230-4" overflow="visible" orient="auto">
   <path transform="matrix(.4 0 0 .4 2.96 .4)" d="m-2.5-1c0 2.76-2.24 5-5 5s-5-2.24-5-5 2.24-5 5-5 5 2.24 5 5z" fill-rule="evenodd" stroke="#000" stroke-width="1pt"/>
  </marker>
  <marker id="DotM-6" overflow="visible" orient="auto">
   <path transform="matrix(.4 0 0 .4 2.96 .4)" d="m-2.5-1c0 2.76-2.24 5-5 5s-5-2.24-5-5 2.24-5 5-5 5 2.24 5 5z" fill-rule="evenodd" stroke="#000" stroke-width="1pt"/>
  </marker>
  <marker id="marker45230-8" overflow="visible" orient="auto">
   <path transform="matrix(.4 0 0 .4 2.96 .4)" d="m-2.5-1c0 2.76-2.24 5-5 5s-5-2.24-5-5 2.24-5 5-5 5 2.24 5 5z" fill-rule="evenodd" stroke="#000" stroke-width="1pt"/>
  </marker>
  <marker id="DotM-09" overflow="visible" orient="auto">
   <path transform="matrix(.4 0 0 .4 2.96 .4)" d="m-2.5-1c0 2.76-2.24 5-5 5s-5-2.24-5-5 2.24-5 5-5 5 2.24 5 5z" fill-rule="evenodd" stroke="#000" stroke-width="1pt"/>
  </marker>
  <marker id="marker45230-1" overflow="visible" orient="auto">
   <path transform="matrix(.4 0 0 .4 2.96 .4)" d="m-2.5-1c0 2.76-2.24 5-5 5s-5-2.24-5-5 2.24-5 5-5 5 2.24 5 5z" fill-rule="evenodd" stroke="#000" stroke-width="1pt"/>
  </marker>
  <marker id="DotM-9" overflow="visible" orient="auto">
   <path transform="matrix(.4 0 0 .4 2.96 .4)" d="m-2.5-1c0 2.76-2.24 5-5 5s-5-2.24-5-5 2.24-5 5-5 5 2.24 5 5z" fill-rule="evenodd" stroke="#000" stroke-width="1pt"/>
  </marker>
  <marker id="marker45230-49" overflow="visible" orient="auto">
   <path transform="matrix(.4 0 0 .4 2.96 .4)" d="m-2.5-1c0 2.76-2.24 5-5 5s-5-2.24-5-5 2.24-5 5-5 5 2.24 5 5z" fill-rule="evenodd" stroke="#000" stroke-width="1pt"/>
  </marker>
  <marker id="DotM-4-8" overflow="visible" orient="auto">
   <path transform="matrix(.4 0 0 .4 2.96 .4)" d="m-2.5-1c0 2.76-2.24 5-5 5s-5-2.24-5-5 2.24-5 5-5 5 2.24 5 5z" fill-rule="evenodd" stroke="#000" stroke-width="1pt"/>
  </marker>
  <marker id="marker45230-3-7" overflow="visible" orient="auto">
   <path transform="matrix(.4 0 0 .4 2.96 .4)" d="m-2.5-1c0 2.76-2.24 5-5 5s-5-2.24-5-5 2.24-5 5-5 5 2.24 5 5z" fill-rule="evenodd" stroke="#000" stroke-width="1pt"/>
  </marker>
  <marker id="DotM-0-5" overflow="visible" orient="auto">
   <path transform="matrix(.4 0 0 .4 2.96 .4)" d="m-2.5-1c0 2.76-2.24 5-5 5s-5-2.24-5-5 2.24-5 5-5 5 2.24 5 5z" fill-rule="evenodd" stroke="#000" stroke-width="1pt"/>
  </marker>
  <marker id="marker45230-2-5" overflow="visible" orient="auto">
   <path transform="matrix(.4 0 0 .4 2.96 .4)" d="m-2.5-1c0 2.76-2.24 5-5 5s-5-2.24-5-5 2.24-5 5-5 5 2.24 5 5z" fill-rule="evenodd" stroke="#000" stroke-width="1pt"/>
  </marker>
  <marker id="DotM-3-3" overflow="visible" orient="auto">
   <path transform="matrix(.4 0 0 .4 2.96 .4)" d="m-2.5-1c0 2.76-2.24 5-5 5s-5-2.24-5-5 2.24-5 5-5 5 2.24 5 5z" fill-rule="evenodd" stroke="#000" stroke-width="1pt"/>
  </marker>
  <marker id="marker45230-4-3" overflow="visible" orient="auto">
   <path transform="matrix(.4 0 0 .4 2.96 .4)" d="m-2.5-1c0 2.76-2.24 5-5 5s-5-2.24-5-5 2.24-5 5-5 5 2.24 5 5z" fill-rule="evenodd" stroke="#000" stroke-width="1pt"/>
  </marker>
  <marker id="DotM-6-9" overflow="visible" orient="auto">
   <path transform="matrix(.4 0 0 .4 2.96 .4)" d="m-2.5-1c0 2.76-2.24 5-5 5s-5-2.24-5-5 2.24-5 5-5 5 2.24 5 5z" fill-rule="evenodd" stroke="#000" stroke-width="1pt"/>
  </marker>
  <marker id="marker45230-8-2" overflow="visible" orient="auto">
   <path transform="matrix(.4 0 0 .4 2.96 .4)" d="m-2.5-1c0 2.76-2.24 5-5 5s-5-2.24-5-5 2.24-5 5-5 5 2.24 5 5z" fill-rule="evenodd" stroke="#000" stroke-width="1pt"/>
  </marker>
  <marker id="DotM-09-4" overflow="visible" orient="auto">
   <path transform="matrix(.4 0 0 .4 2.96 .4)" d="m-2.5-1c0 2.76-2.24 5-5 5s-5-2.24-5-5 2.24-5 5-5 5 2.24 5 5z" fill-rule="evenodd" stroke="#000" stroke-width="1pt"/>
  </marker>
  <marker id="marker45230-1-8" overflow="visible" orient="auto">
   <path transform="matrix(.4 0 0 .4 2.96 .4)" d="m-2.5-1c0 2.76-2.24 5-5 5s-5-2.24-5-5 2.24-5 5-5 5 2.24 5 5z" fill-rule="evenodd" stroke="#000" stroke-width="1pt"/>
  </marker>
  <marker id="DotM-48" overflow="visible" orient="auto">
   <path transform="matrix(.4 0 0 .4 2.96 .4)" d="m-2.5-1c0 2.76-2.24 5-5 5s-5-2.24-5-5 2.24-5 5-5 5 2.24 5 5z" fill-rule="evenodd" stroke="#000" stroke-width="1pt"/>
  </marker>
  <marker id="marker45230-20" overflow="visible" orient="auto">
   <path transform="matrix(.4 0 0 .4 2.96 .4)" d="m-2.5-1c0 2.76-2.24 5-5 5s-5-2.24-5-5 2.24-5 5-5 5 2.24 5 5z" fill-rule="evenodd" stroke="#000" stroke-width="1pt"/>
  </marker>
  <marker id="DotM-4-2" overflow="visible" orient="auto">
   <path transform="matrix(.4 0 0 .4 2.96 .4)" d="m-2.5-1c0 2.76-2.24 5-5 5s-5-2.24-5-5 2.24-5 5-5 5 2.24 5 5z" fill-rule="evenodd" stroke="#000" stroke-width="1pt"/>
  </marker>
  <marker id="marker45230-3-77" overflow="visible" orient="auto">
   <path transform="matrix(.4 0 0 .4 2.96 .4)" d="m-2.5-1c0 2.76-2.24 5-5 5s-5-2.24-5-5 2.24-5 5-5 5 2.24 5 5z" fill-rule="evenodd" stroke="#000" stroke-width="1pt"/>
  </marker>
  <marker id="DotM-0-6" overflow="visible" orient="auto">
   <path transform="matrix(.4 0 0 .4 2.96 .4)" d="m-2.5-1c0 2.76-2.24 5-5 5s-5-2.24-5-5 2.24-5 5-5 5 2.24 5 5z" fill-rule="evenodd" stroke="#000" stroke-width="1pt"/>
  </marker>
  <marker id="marker45230-2-2" overflow="visible" orient="auto">
   <path transform="matrix(.4 0 0 .4 2.96 .4)" d="m-2.5-1c0 2.76-2.24 5-5 5s-5-2.24-5-5 2.24-5 5-5 5 2.24 5 5z" fill-rule="evenodd" stroke="#000" stroke-width="1pt"/>
  </marker>
  <marker id="DotM-3-5" overflow="visible" orient="auto">
   <path transform="matrix(.4 0 0 .4 2.96 .4)" d="m-2.5-1c0 2.76-2.24 5-5 5s-5-2.24-5-5 2.24-5 5-5 5 2.24 5 5z" fill-rule="evenodd" stroke="#000" stroke-width="1pt"/>
  </marker>
  <marker id="marker45230-4-7" overflow="visible" orient="auto">
   <path transform="matrix(.4 0 0 .4 2.96 .4)" d="m-2.5-1c0 2.76-2.24 5-5 5s-5-2.24-5-5 2.24-5 5-5 5 2.24 5 5z" fill-rule="evenodd" stroke="#000" stroke-width="1pt"/>
  </marker>
  <marker id="DotM-6-0" overflow="visible" orient="auto">
   <path transform="matrix(.4 0 0 .4 2.96 .4)" d="m-2.5-1c0 2.76-2.24 5-5 5s-5-2.24-5-5 2.24-5 5-5 5 2.24 5 5z" fill-rule="evenodd" stroke="#000" stroke-width="1pt"/>
  </marker>
  <marker id="marker45230-8-5" overflow="visible" orient="auto">
   <path transform="matrix(.4 0 0 .4 2.96 .4)" d="m-2.5-1c0 2.76-2.24 5-5 5s-5-2.24-5-5 2.24-5 5-5 5 2.24 5 5z" fill-rule="evenodd" stroke="#000" stroke-width="1pt"/>
  </marker>
  <marker id="DotM-09-8" overflow="visible" orient="auto">
   <path transform="matrix(.4 0 0 .4 2.96 .4)" d="m-2.5-1c0 2.76-2.24 5-5 5s-5-2.24-5-5 2.24-5 5-5 5 2.24 5 5z" fill-rule="evenodd" stroke="#000" stroke-width="1pt"/>
  </marker>
  <marker id="marker45230-1-3" overflow="visible" orient="auto">
   <path transform="matrix(.4 0 0 .4 2.96 .4)" d="m-2.5-1c0 2.76-2.24 5-5 5s-5-2.24-5-5 2.24-5 5-5 5 2.24 5 5z" fill-rule="evenodd" stroke="#000" stroke-width="1pt"/>
  </marker>
  <marker id="DotM-7" overflow="visible" orient="auto">
   <path transform="matrix(.4 0 0 .4 2.96 .4)" d="m-2.5-1c0 2.76-2.24 5-5 5s-5-2.24-5-5 2.24-5 5-5 5 2.24 5 5z" fill-rule="evenodd" stroke="#000" stroke-width="1pt"/>
  </marker>
  <marker id="marker45230-5" overflow="visible" orient="auto">
   <path transform="matrix(.4 0 0 .4 2.96 .4)" d="m-2.5-1c0 2.76-2.24 5-5 5s-5-2.24-5-5 2.24-5 5-5 5 2.24 5 5z" fill-rule="evenodd" stroke="#000" stroke-width="1pt"/>
  </marker>
  <marker id="DotM-4-1" overflow="visible" orient="auto">
   <path transform="matrix(.4 0 0 .4 2.96 .4)" d="m-2.5-1c0 2.76-2.24 5-5 5s-5-2.24-5-5 2.24-5 5-5 5 2.24 5 5z" fill-rule="evenodd" stroke="#000" stroke-width="1pt"/>
  </marker>
  <marker id="marker45230-3-78" overflow="visible" orient="auto">
   <path transform="matrix(.4 0 0 .4 2.96 .4)" d="m-2.5-1c0 2.76-2.24 5-5 5s-5-2.24-5-5 2.24-5 5-5 5 2.24 5 5z" fill-rule="evenodd" stroke="#000" stroke-width="1pt"/>
  </marker>
  <marker id="DotM-0-4" overflow="visible" orient="auto">
   <path transform="matrix(.4 0 0 .4 2.96 .4)" d="m-2.5-1c0 2.76-2.24 5-5 5s-5-2.24-5-5 2.24-5 5-5 5 2.24 5 5z" fill-rule="evenodd" stroke="#000" stroke-width="1pt"/>
  </marker>
  <marker id="marker45230-2-4" overflow="visible" orient="auto">
   <path transform="matrix(.4 0 0 .4 2.96 .4)" d="m-2.5-1c0 2.76-2.24 5-5 5s-5-2.24-5-5 2.24-5 5-5 5 2.24 5 5z" fill-rule="evenodd" stroke="#000" stroke-width="1pt"/>
  </marker>
  <marker id="DotM-3-51" overflow="visible" orient="auto">
   <path transform="matrix(.4 0 0 .4 2.96 .4)" d="m-2.5-1c0 2.76-2.24 5-5 5s-5-2.24-5-5 2.24-5 5-5 5 2.24 5 5z" fill-rule="evenodd" stroke="#000" stroke-width="1pt"/>
  </marker>
  <marker id="marker45230-4-39" overflow="visible" orient="auto">
   <path transform="matrix(.4 0 0 .4 2.96 .4)" d="m-2.5-1c0 2.76-2.24 5-5 5s-5-2.24-5-5 2.24-5 5-5 5 2.24 5 5z" fill-rule="evenodd" stroke="#000" stroke-width="1pt"/>
  </marker>
  <marker id="DotM-6-3" overflow="visible" orient="auto">
   <path transform="matrix(.4 0 0 .4 2.96 .4)" d="m-2.5-1c0 2.76-2.24 5-5 5s-5-2.24-5-5 2.24-5 5-5 5 2.24 5 5z" fill-rule="evenodd" stroke="#000" stroke-width="1pt"/>
  </marker>
  <marker id="marker45230-8-20" overflow="visible" orient="auto">
   <path transform="matrix(.4 0 0 .4 2.96 .4)" d="m-2.5-1c0 2.76-2.24 5-5 5s-5-2.24-5-5 2.24-5 5-5 5 2.24 5 5z" fill-rule="evenodd" stroke="#000" stroke-width="1pt"/>
  </marker>
  <marker id="DotM-09-82" overflow="visible" orient="auto">
   <path transform="matrix(.4 0 0 .4 2.96 .4)" d="m-2.5-1c0 2.76-2.24 5-5 5s-5-2.24-5-5 2.24-5 5-5 5 2.24 5 5z" fill-rule="evenodd" stroke="#000" stroke-width="1pt"/>
  </marker>
  <marker id="marker45230-1-5" overflow="visible" orient="auto">
   <path transform="matrix(.4 0 0 .4 2.96 .4)" d="m-2.5-1c0 2.76-2.24 5-5 5s-5-2.24-5-5 2.24-5 5-5 5 2.24 5 5z" fill-rule="evenodd" stroke="#000" stroke-width="1pt"/>
  </marker>
  <marker id="DotM-35" overflow="visible" orient="auto">
   <path transform="matrix(.4 0 0 .4 2.96 .4)" d="m-2.5-1c0 2.76-2.24 5-5 5s-5-2.24-5-5 2.24-5 5-5 5 2.24 5 5z" fill-rule="evenodd" stroke="#000" stroke-width="1pt"/>
  </marker>
  <marker id="marker45230-9" overflow="visible" orient="auto">
   <path transform="matrix(.4 0 0 .4 2.96 .4)" d="m-2.5-1c0 2.76-2.24 5-5 5s-5-2.24-5-5 2.24-5 5-5 5 2.24 5 5z" fill-rule="evenodd" stroke="#000" stroke-width="1pt"/>
  </marker>
  <marker id="DotM-4-26" overflow="visible" orient="auto">
   <path transform="matrix(.4 0 0 .4 2.96 .4)" d="m-2.5-1c0 2.76-2.24 5-5 5s-5-2.24-5-5 2.24-5 5-5 5 2.24 5 5z" fill-rule="evenodd" stroke="#000" stroke-width="1pt"/>
  </marker>
  <marker id="marker45230-3-9" overflow="visible" orient="auto">
   <path transform="matrix(.4 0 0 .4 2.96 .4)" d="m-2.5-1c0 2.76-2.24 5-5 5s-5-2.24-5-5 2.24-5 5-5 5 2.24 5 5z" fill-rule="evenodd" stroke="#000" stroke-width="1pt"/>
  </marker>
  <marker id="DotM-0-1" overflow="visible" orient="auto">
   <path transform="matrix(.4 0 0 .4 2.96 .4)" d="m-2.5-1c0 2.76-2.24 5-5 5s-5-2.24-5-5 2.24-5 5-5 5 2.24 5 5z" fill-rule="evenodd" stroke="#000" stroke-width="1pt"/>
  </marker>
  <marker id="marker45230-2-1" overflow="visible" orient="auto">
   <path transform="matrix(.4 0 0 .4 2.96 .4)" d="m-2.5-1c0 2.76-2.24 5-5 5s-5-2.24-5-5 2.24-5 5-5 5 2.24 5 5z" fill-rule="evenodd" stroke="#000" stroke-width="1pt"/>
  </marker>
  <marker id="DotM-3-8" overflow="visible" orient="auto">
   <path transform="matrix(.4 0 0 .4 2.96 .4)" d="m-2.5-1c0 2.76-2.24 5-5 5s-5-2.24-5-5 2.24-5 5-5 5 2.24 5 5z" fill-rule="evenodd" stroke="#000" stroke-width="1pt"/>
  </marker>
  <marker id="marker45230-4-5" overflow="visible" orient="auto">
   <path transform="matrix(.4 0 0 .4 2.96 .4)" d="m-2.5-1c0 2.76-2.24 5-5 5s-5-2.24-5-5 2.24-5 5-5 5 2.24 5 5z" fill-rule="evenodd" stroke="#000" stroke-width="1pt"/>
  </marker>
  <marker id="DotM-6-2" overflow="visible" orient="auto">
   <path transform="matrix(.4 0 0 .4 2.96 .4)" d="m-2.5-1c0 2.76-2.24 5-5 5s-5-2.24-5-5 2.24-5 5-5 5 2.24 5 5z" fill-rule="evenodd" stroke="#000" stroke-width="1pt"/>
  </marker>
  <marker id="marker45230-8-55" overflow="visible" orient="auto">
   <path transform="matrix(.4 0 0 .4 2.96 .4)" d="m-2.5-1c0 2.76-2.24 5-5 5s-5-2.24-5-5 2.24-5 5-5 5 2.24 5 5z" fill-rule="evenodd" stroke="#000" stroke-width="1pt"/>
  </marker>
  <marker id="DotM-09-7" overflow="visible" orient="auto">
   <path transform="matrix(.4 0 0 .4 2.96 .4)" d="m-2.5-1c0 2.76-2.24 5-5 5s-5-2.24-5-5 2.24-5 5-5 5 2.24 5 5z" fill-rule="evenodd" stroke="#000" stroke-width="1pt"/>
  </marker>
  <marker id="marker45230-1-39" overflow="visible" orient="auto">
   <path transform="matrix(.4 0 0 .4 2.96 .4)" d="m-2.5-1c0 2.76-2.24 5-5 5s-5-2.24-5-5 2.24-5 5-5 5 2.24 5 5z" fill-rule="evenodd" stroke="#000" stroke-width="1pt"/>
  </marker>
  <marker id="DotM-1" overflow="visible" orient="auto">
   <path transform="matrix(.4 0 0 .4 2.96 .4)" d="m-2.5-1c0 2.76-2.24 5-5 5s-5-2.24-5-5 2.24-5 5-5 5 2.24 5 5z" fill-rule="evenodd" stroke="#000" stroke-width="1pt"/>
  </marker>
  <marker id="marker45230-0" overflow="visible" orient="auto">
   <path transform="matrix(.4 0 0 .4 2.96 .4)" d="m-2.5-1c0 2.76-2.24 5-5 5s-5-2.24-5-5 2.24-5 5-5 5 2.24 5 5z" fill-rule="evenodd" stroke="#000" stroke-width="1pt"/>
  </marker>
  <marker id="DotM-4-0" overflow="visible" orient="auto">
   <path transform="matrix(.4 0 0 .4 2.96 .4)" d="m-2.5-1c0 2.76-2.24 5-5 5s-5-2.24-5-5 2.24-5 5-5 5 2.24 5 5z" fill-rule="evenodd" stroke="#000" stroke-width="1pt"/>
  </marker>
  <marker id="marker45230-3-6" overflow="visible" orient="auto">
   <path transform="matrix(.4 0 0 .4 2.96 .4)" d="m-2.5-1c0 2.76-2.24 5-5 5s-5-2.24-5-5 2.24-5 5-5 5 2.24 5 5z" fill-rule="evenodd" stroke="#000" stroke-width="1pt"/>
  </marker>
  <marker id="DotM-0-58" overflow="visible" orient="auto">
   <path transform="matrix(.4 0 0 .4 2.96 .4)" d="m-2.5-1c0 2.76-2.24 5-5 5s-5-2.24-5-5 2.24-5 5-5 5 2.24 5 5z" fill-rule="evenodd" stroke="#000" stroke-width="1pt"/>
  </marker>
  <marker id="marker45230-2-16" overflow="visible" orient="auto">
   <path transform="matrix(.4 0 0 .4 2.96 .4)" d="m-2.5-1c0 2.76-2.24 5-5 5s-5-2.24-5-5 2.24-5 5-5 5 2.24 5 5z" fill-rule="evenodd" stroke="#000" stroke-width="1pt"/>
  </marker>
  <marker id="DotM-3-52" overflow="visible" orient="auto">
   <path transform="matrix(.4 0 0 .4 2.96 .4)" d="m-2.5-1c0 2.76-2.24 5-5 5s-5-2.24-5-5 2.24-5 5-5 5 2.24 5 5z" fill-rule="evenodd" stroke="#000" stroke-width="1pt"/>
  </marker>
  <marker id="marker45230-4-4" overflow="visible" orient="auto">
   <path transform="matrix(.4 0 0 .4 2.96 .4)" d="m-2.5-1c0 2.76-2.24 5-5 5s-5-2.24-5-5 2.24-5 5-5 5 2.24 5 5z" fill-rule="evenodd" stroke="#000" stroke-width="1pt"/>
  </marker>
  <marker id="DotM-6-7" overflow="visible" orient="auto">
   <path transform="matrix(.4 0 0 .4 2.96 .4)" d="m-2.5-1c0 2.76-2.24 5-5 5s-5-2.24-5-5 2.24-5 5-5 5 2.24 5 5z" fill-rule="evenodd" stroke="#000" stroke-width="1pt"/>
  </marker>
  <marker id="marker45230-8-6" overflow="visible" orient="auto">
   <path transform="matrix(.4 0 0 .4 2.96 .4)" d="m-2.5-1c0 2.76-2.24 5-5 5s-5-2.24-5-5 2.24-5 5-5 5 2.24 5 5z" fill-rule="evenodd" stroke="#000" stroke-width="1pt"/>
  </marker>
  <marker id="DotM-09-5" overflow="visible" orient="auto">
   <path transform="matrix(.4 0 0 .4 2.96 .4)" d="m-2.5-1c0 2.76-2.24 5-5 5s-5-2.24-5-5 2.24-5 5-5 5 2.24 5 5z" fill-rule="evenodd" stroke="#000" stroke-width="1pt"/>
  </marker>
  <marker id="marker45230-1-9" overflow="visible" orient="auto">
   <path transform="matrix(.4 0 0 .4 2.96 .4)" d="m-2.5-1c0 2.76-2.24 5-5 5s-5-2.24-5-5 2.24-5 5-5 5 2.24 5 5z" fill-rule="evenodd" stroke="#000" stroke-width="1pt"/>
  </marker>
 </defs>
 <metadata>
  <rdf:RDF>
   <cc:Work rdf:about="">
    <dc:format>image/svg+xml</dc:format>
    <dc:type rdf:resource="http://purl.org/dc/dcmitype/StillImage"/>
    <dc:title/>
   </cc:Work>
  </rdf:RDF>
 </metadata>
 <g transform="translate(0 -87.001)">
  <g transform="translate(-9.8274 -8.4667)" fill="#fff">
   <g transform="matrix(.68494 0 0 .68494 59.303 5.1338)">
    <path d="m-27.035 188.44c0 0.49816-0.4071 0.90588-0.90615 0.90588h-20.158c-0.49783 0-0.90479-0.40773-0.90479-0.90588v-30.125c0-0.49814 0.40696-0.90602 0.90479-0.90602h20.158c0.49906 0 0.90615 0.40788 0.90615 0.90602z" stroke="#000" stroke-width=".36653"/>
    <path d="m-48.326 187.99c-0.24905-0.24756-0.27637-1.743-0.27452-15.026 2e-3 -12.89 0.0349-14.772 0.26203-14.917 0.15579-0.0991 4.2043-0.1783 10.102-0.19758 8.7183-0.0285 9.8735-7.7e-4 10.116 0.2399 0.24448 0.24301 0.27837 1.8296 0.31744 14.858 0.0291 9.7222-0.0159 14.698-0.13503 14.922-0.17354 0.32661-0.46938 0.3373-10.145 0.36631-8.8728 0.0266-9.9967-3.2e-4 -10.243-0.24504z" stroke-width="0"/>
   </g>
   <g transform="matrix(.68494 0 0 .68494 80.344 5.1338)">
    <path d="m-27.035 188.44c0 0.49816-0.4071 0.90588-0.90615 0.90588h-20.158c-0.49783 0-0.90479-0.40773-0.90479-0.90588v-30.125c0-0.49814 0.40696-0.90602 0.90479-0.90602h20.158c0.49906 0 0.90615 0.40788 0.90615 0.90602z" stroke="#000" stroke-width=".36653"/>
    <path d="m-48.326 187.99c-0.24905-0.24756-0.27637-1.743-0.27452-15.026 2e-3 -12.89 0.0349-14.772 0.26203-14.917 0.15579-0.0991 4.2043-0.1783 10.102-0.19758 8.7183-0.0285 9.8735-7.7e-4 10.116 0.2399 0.24448 0.24301 0.27837 1.8296 0.31744 14.858 0.0291 9.7222-0.0159 14.698-0.13503 14.922-0.17354 0.32661-0.46938 0.3373-10.145 0.36631-8.8728 0.0266-9.9967-3.2e-4 -10.243-0.24504z" stroke-width="0"/>
   </g>
   <g transform="matrix(.68494 0 0 .68494 101.38 5.1338)">
    <path d="m-27.035 188.44c0 0.49816-0.4071 0.90588-0.90615 0.90588h-20.158c-0.49783 0-0.90479-0.40773-0.90479-0.90588v-30.125c0-0.49814 0.40696-0.90602 0.90479-0.90602h20.158c0.49906 0 0.90615 0.40788 0.90615 0.90602z" stroke="#000" stroke-width=".36653"/>
    <path d="m-48.326 187.99c-0.24905-0.24756-0.27637-1.743-0.27452-15.026 2e-3 -12.89 0.0349-14.772 0.26203-14.917 0.15579-0.0991 4.2043-0.1783 10.102-0.19758 8.7183-0.0285 9.8735-7.7e-4 10.116 0.2399 0.24448 0.24301 0.27837 1.8296 0.31744 14.858 0.0291 9.7222-0.0159 14.698-0.13503 14.922-0.17354 0.32661-0.46938 0.3373-10.145 0.36631-8.8728 0.0266-9.9967-3.2e-4 -10.243-0.24504z" stroke-width="0"/>
   </g>
   <g transform="matrix(.68494 0 0 .68494 122.42 5.1338)">
    <path d="m-27.035 188.44c0 0.49816-0.4071 0.90588-0.90615 0.90588h-20.158c-0.49783 0-0.90479-0.40773-0.90479-0.90588v-30.125c0-0.49814 0.40696-0.90602 0.90479-0.90602h20.158c0.49906 0 0.90615 0.40788 0.90615 0.90602z" stroke="#000" stroke-width=".36653"/>
    <path d="m-48.326 187.99c-0.24905-0.24756-0.27637-1.743-0.27452-15.026 2e-3 -12.89 0.0349-14.772 0.26203-14.917 0.15579-0.0991 4.2043-0.1783 10.102-0.19758 8.7183-0.0285 9.8735-7.7e-4 10.116 0.2399 0.24448 0.24301 0.27837 1.8296 0.31744 14.858 0.0291 9.7222-0.0159 14.698-0.13503 14.922-0.17354 0.32661-0.46938 0.3373-10.145 0.36631-8.8728 0.0266-9.9967-3.2e-4 -10.243-0.24504z" stroke-width="0"/>
   </g>
   <g transform="matrix(.68494 0 0 .68494 143.47 5.1338)">
    <path d="m-27.035 188.44c0 0.49816-0.4071 0.90588-0.90615 0.90588h-20.158c-0.49783 0-0.90479-0.40773-0.90479-0.90588v-30.125c0-0.49814 0.40696-0.90602 0.90479-0.90602h20.158c0.49906 0 0.90615 0.40788 0.90615 0.90602z" stroke="#000" stroke-width=".36653"/>
    <path d="m-48.326 187.99c-0.24905-0.24756-0.27637-1.743-0.27452-15.026 2e-3 -12.89 0.0349-14.772 0.26203-14.917 0.15579-0.0991 4.2043-0.1783 10.102-0.19758 8.7183-0.0285 9.8735-7.7e-4 10.116 0.2399 0.24448 0.24301 0.27837 1.8296 0.31744 14.858 0.0291 9.7222-0.0159 14.698-0.13503 14.922-0.17354 0.32661-0.46938 0.3373-10.145 0.36631-8.8728 0.0266-9.9967-3.2e-4 -10.243-0.24504z" stroke-width="0"/>
   </g>
   <g transform="matrix(.68494 0 0 .68494 164.51 5.1338)">
    <path d="m-27.035 188.44c0 0.49816-0.4071 0.90588-0.90615 0.90588h-20.158c-0.49783 0-0.90479-0.40773-0.90479-0.90588v-30.125c0-0.49814 0.40696-0.90602 0.90479-0.90602h20.158c0.49906 0 0.90615 0.40788 0.90615 0.90602z" stroke="#000" stroke-width=".36653"/>
    <path d="m-48.326 187.99c-0.24905-0.24756-0.27637-1.743-0.27452-15.026 2e-3 -12.89 0.0349-14.772 0.26203-14.917 0.15579-0.0991 4.2043-0.1783 10.102-0.19758 8.7183-0.0285 9.8735-7.7e-4 10.116 0.2399 0.24448 0.24301 0.27837 1.8296 0.31744 14.858 0.0291 9.7222-0.0159 14.698-0.13503 14.922-0.17354 0.32661-0.46938 0.3373-10.145 0.36631-8.8728 0.0266-9.9967-3.2e-4 -10.243-0.24504z" stroke-width="0"/>
   </g>
   <g transform="matrix(.68494 0 0 .68494 185.55 5.1338)">
    <path d="m-27.035 188.44c0 0.49816-0.4071 0.90588-0.90615 0.90588h-20.158c-0.49783 0-0.90479-0.40773-0.90479-0.90588v-30.125c0-0.49814 0.40696-0.90602 0.90479-0.90602h20.158c0.49906 0 0.90615 0.40788 0.90615 0.90602z" stroke="#000" stroke-width=".36653"/>
    <path d="m-48.326 187.99c-0.24905-0.24756-0.27637-1.743-0.27452-15.026 2e-3 -12.89 0.0349-14.772 0.26203-14.917 0.15579-0.0991 4.2043-0.1783 10.102-0.19758 8.7183-0.0285 9.8735-7.7e-4 10.116 0.2399 0.24448 0.24301 0.27837 1.8296 0.31744 14.858 0.0291 9.7222-0.0159 14.698-0.13503 14.922-0.17354 0.32661-0.46938 0.3373-10.145 0.36631-8.8728 0.0266-9.9967-3.2e-4 -10.243-0.24504z" stroke-width="0"/>
   </g>
  </g>
  <g transform="translate(-9.8274 21.318)" fill="#fff">
   <g transform="matrix(.68494 0 0 .68494 59.303 5.1338)">
    <path d="m-27.035 188.44c0 0.49816-0.4071 0.90588-0.90615 0.90588h-20.158c-0.49783 0-0.90479-0.40773-0.90479-0.90588v-30.125c0-0.49814 0.40696-0.90602 0.90479-0.90602h20.158c0.49906 0 0.90615 0.40788 0.90615 0.90602z" stroke="#000" stroke-width=".36653"/>
    <path d="m-48.326 187.99c-0.24905-0.24756-0.27637-1.743-0.27452-15.026 2e-3 -12.89 0.0349-14.772 0.26203-14.917 0.15579-0.0991 4.2043-0.1783 10.102-0.19758 8.7183-0.0285 9.8735-7.7e-4 10.116 0.2399 0.24448 0.24301 0.27837 1.8296 0.31744 14.858 0.0291 9.7222-0.0159 14.698-0.13503 14.922-0.17354 0.32661-0.46938 0.3373-10.145 0.36631-8.8728 0.0266-9.9967-3.2e-4 -10.243-0.24504z" stroke-width="0"/>
   </g>
   <g transform="matrix(.68494 0 0 .68494 80.344 5.1338)">
    <path d="m-27.035 188.44c0 0.49816-0.4071 0.90588-0.90615 0.90588h-20.158c-0.49783 0-0.90479-0.40773-0.90479-0.90588v-30.125c0-0.49814 0.40696-0.90602 0.90479-0.90602h20.158c0.49906 0 0.90615 0.40788 0.90615 0.90602z" stroke="#000" stroke-width=".36653"/>
    <path d="m-48.326 187.99c-0.24905-0.24756-0.27637-1.743-0.27452-15.026 2e-3 -12.89 0.0349-14.772 0.26203-14.917 0.15579-0.0991 4.2043-0.1783 10.102-0.19758 8.7183-0.0285 9.8735-7.7e-4 10.116 0.2399 0.24448 0.24301 0.27837 1.8296 0.31744 14.858 0.0291 9.7222-0.0159 14.698-0.13503 14.922-0.17354 0.32661-0.46938 0.3373-10.145 0.36631-8.8728 0.0266-9.9967-3.2e-4 -10.243-0.24504z" stroke-width="0"/>
   </g>
   <g transform="matrix(.68494 0 0 .68494 101.38 5.1338)">
    <path d="m-27.035 188.44c0 0.49816-0.4071 0.90588-0.90615 0.90588h-20.158c-0.49783 0-0.90479-0.40773-0.90479-0.90588v-30.125c0-0.49814 0.40696-0.90602 0.90479-0.90602h20.158c0.49906 0 0.90615 0.40788 0.90615 0.90602z" stroke="#000" stroke-width=".36653"/>
    <path d="m-48.326 187.99c-0.24905-0.24756-0.27637-1.743-0.27452-15.026 2e-3 -12.89 0.0349-14.772 0.26203-14.917 0.15579-0.0991 4.2043-0.1783 10.102-0.19758 8.7183-0.0285 9.8735-7.7e-4 10.116 0.2399 0.24448 0.24301 0.27837 1.8296 0.31744 14.858 0.0291 9.7222-0.0159 14.698-0.13503 14.922-0.17354 0.32661-0.46938 0.3373-10.145 0.36631-8.8728 0.0266-9.9967-3.2e-4 -10.243-0.24504z" stroke-width="0"/>
   </g>
   <g transform="matrix(.68494 0 0 .68494 122.42 5.1338)">
    <path d="m-27.035 188.44c0 0.49816-0.4071 0.90588-0.90615 0.90588h-20.158c-0.49783 0-0.90479-0.40773-0.90479-0.90588v-30.125c0-0.49814 0.40696-0.90602 0.90479-0.90602h20.158c0.49906 0 0.90615 0.40788 0.90615 0.90602z" stroke="#000" stroke-width=".36653"/>
    <path d="m-48.326 187.99c-0.24905-0.24756-0.27637-1.743-0.27452-15.026 2e-3 -12.89 0.0349-14.772 0.26203-14.917 0.15579-0.0991 4.2043-0.1783 10.102-0.19758 8.7183-0.0285 9.8735-7.7e-4 10.116 0.2399 0.24448 0.24301 0.27837 1.8296 0.31744 14.858 0.0291 9.7222-0.0159 14.698-0.13503 14.922-0.17354 0.32661-0.46938 0.3373-10.145 0.36631-8.8728 0.0266-9.9967-3.2e-4 -10.243-0.24504z" stroke-width="0"/>
   </g>
   <g transform="matrix(.68494 0 0 .68494 143.47 5.1338)">
    <path d="m-27.035 188.44c0 0.49816-0.4071 0.90588-0.90615 0.90588h-20.158c-0.49783 0-0.90479-0.40773-0.90479-0.90588v-30.125c0-0.49814 0.40696-0.90602 0.90479-0.90602h20.158c0.49906 0 0.90615 0.40788 0.90615 0.90602z" stroke="#000" stroke-width=".36653"/>
    <path d="m-48.326 187.99c-0.24905-0.24756-0.27637-1.743-0.27452-15.026 2e-3 -12.89 0.0349-14.772 0.26203-14.917 0.15579-0.0991 4.2043-0.1783 10.102-0.19758 8.7183-0.0285 9.8735-7.7e-4 10.116 0.2399 0.24448 0.24301 0.27837 1.8296 0.31744 14.858 0.0291 9.7222-0.0159 14.698-0.13503 14.922-0.17354 0.32661-0.46938 0.3373-10.145 0.36631-8.8728 0.0266-9.9967-3.2e-4 -10.243-0.24504z" stroke-width="0"/>
   </g>
   <g transform="matrix(.68494 0 0 .68494 164.51 5.1338)">
    <path d="m-27.035 188.44c0 0.49816-0.4071 0.90588-0.90615 0.90588h-20.158c-0.49783 0-0.90479-0.40773-0.90479-0.90588v-30.125c0-0.49814 0.40696-0.90602 0.90479-0.90602h20.158c0.49906 0 0.90615 0.40788 0.90615 0.90602z" stroke="#000" stroke-width=".36653"/>
    <path d="m-48.326 187.99c-0.24905-0.24756-0.27637-1.743-0.27452-15.026 2e-3 -12.89 0.0349-14.772 0.26203-14.917 0.15579-0.0991 4.2043-0.1783 10.102-0.19758 8.7183-0.0285 9.8735-7.7e-4 10.116 0.2399 0.24448 0.24301 0.27837 1.8296 0.31744 14.858 0.0291 9.7222-0.0159 14.698-0.13503 14.922-0.17354 0.32661-0.46938 0.3373-10.145 0.36631-8.8728 0.0266-9.9967-3.2e-4 -10.243-0.24504z" stroke-width="0"/>
   </g>
   <g transform="matrix(.68494 0 0 .68494 185.55 5.1338)">
    <path d="m-27.035 188.44c0 0.49816-0.4071 0.90588-0.90615 0.90588h-20.158c-0.49783 0-0.90479-0.40773-0.90479-0.90588v-30.125c0-0.49814 0.40696-0.90602 0.90479-0.90602h20.158c0.49906 0 0.90615 0.40788 0.90615 0.90602z" stroke="#000" stroke-width=".36653"/>
    <path d="m-48.326 187.99c-0.24905-0.24756-0.27637-1.743-0.27452-15.026 2e-3 -12.89 0.0349-14.772 0.26203-14.917 0.15579-0.0991 4.2043-0.1783 10.102-0.19758 8.7183-0.0285 9.8735-7.7e-4 10.116 0.2399 0.24448 0.24301 0.27837 1.8296 0.31744 14.858 0.0291 9.7222-0.0159 14.698-0.13503 14.922-0.17354 0.32661-0.46938 0.3373-10.145 0.36631-8.8728 0.0266-9.9967-3.2e-4 -10.243-0.24504z" stroke-width="0"/>
   </g>
  </g>
  <g transform="translate(-9.8274 51.102)" fill="#fff">
   <g transform="matrix(.68494 0 0 .68494 59.303 5.1338)">
    <path d="m-27.035 188.44c0 0.49816-0.4071 0.90588-0.90615 0.90588h-20.158c-0.49783 0-0.90479-0.40773-0.90479-0.90588v-30.125c0-0.49814 0.40696-0.90602 0.90479-0.90602h20.158c0.49906 0 0.90615 0.40788 0.90615 0.90602z" stroke="#000" stroke-width=".36653"/>
    <path d="m-48.326 187.99c-0.24905-0.24756-0.27637-1.743-0.27452-15.026 2e-3 -12.89 0.0349-14.772 0.26203-14.917 0.15579-0.0991 4.2043-0.1783 10.102-0.19758 8.7183-0.0285 9.8735-7.7e-4 10.116 0.2399 0.24448 0.24301 0.27837 1.8296 0.31744 14.858 0.0291 9.7222-0.0159 14.698-0.13503 14.922-0.17354 0.32661-0.46938 0.3373-10.145 0.36631-8.8728 0.0266-9.9967-3.2e-4 -10.243-0.24504z" stroke-width="0"/>
   </g>
   <g transform="matrix(.68494 0 0 .68494 80.344 5.1338)">
    <path d="m-27.035 188.44c0 0.49816-0.4071 0.90588-0.90615 0.90588h-20.158c-0.49783 0-0.90479-0.40773-0.90479-0.90588v-30.125c0-0.49814 0.40696-0.90602 0.90479-0.90602h20.158c0.49906 0 0.90615 0.40788 0.90615 0.90602z" stroke="#000" stroke-width=".36653"/>
    <path d="m-48.326 187.99c-0.24905-0.24756-0.27637-1.743-0.27452-15.026 2e-3 -12.89 0.0349-14.772 0.26203-14.917 0.15579-0.0991 4.2043-0.1783 10.102-0.19758 8.7183-0.0285 9.8735-7.7e-4 10.116 0.2399 0.24448 0.24301 0.27837 1.8296 0.31744 14.858 0.0291 9.7222-0.0159 14.698-0.13503 14.922-0.17354 0.32661-0.46938 0.3373-10.145 0.36631-8.8728 0.0266-9.9967-3.2e-4 -10.243-0.24504z" stroke-width="0"/>
   </g>
   <g transform="matrix(.68494 0 0 .68494 101.38 5.1338)">
    <path d="m-27.035 188.44c0 0.49816-0.4071 0.90588-0.90615 0.90588h-20.158c-0.49783 0-0.90479-0.40773-0.90479-0.90588v-30.125c0-0.49814 0.40696-0.90602 0.90479-0.90602h20.158c0.49906 0 0.90615 0.40788 0.90615 0.90602z" stroke="#000" stroke-width=".36653"/>
    <path d="m-48.326 187.99c-0.24905-0.24756-0.27637-1.743-0.27452-15.026 2e-3 -12.89 0.0349-14.772 0.26203-14.917 0.15579-0.0991 4.2043-0.1783 10.102-0.19758 8.7183-0.0285 9.8735-7.7e-4 10.116 0.2399 0.24448 0.24301 0.27837 1.8296 0.31744 14.858 0.0291 9.7222-0.0159 14.698-0.13503 14.922-0.17354 0.32661-0.46938 0.3373-10.145 0.36631-8.8728 0.0266-9.9967-3.2e-4 -10.243-0.24504z" stroke-width="0"/>
   </g>
   <g transform="matrix(.68494 0 0 .68494 122.42 5.1338)">
    <path d="m-27.035 188.44c0 0.49816-0.4071 0.90588-0.90615 0.90588h-20.158c-0.49783 0-0.90479-0.40773-0.90479-0.90588v-30.125c0-0.49814 0.40696-0.90602 0.90479-0.90602h20.158c0.49906 0 0.90615 0.40788 0.90615 0.90602z" stroke="#000" stroke-width=".36653"/>
    <path d="m-48.326 187.99c-0.24905-0.24756-0.27637-1.743-0.27452-15.026 2e-3 -12.89 0.0349-14.772 0.26203-14.917 0.15579-0.0991 4.2043-0.1783 10.102-0.19758 8.7183-0.0285 9.8735-7.7e-4 10.116 0.2399 0.24448 0.24301 0.27837 1.8296 0.31744 14.858 0.0291 9.7222-0.0159 14.698-0.13503 14.922-0.17354 0.32661-0.46938 0.3373-10.145 0.36631-8.8728 0.0266-9.9967-3.2e-4 -10.243-0.24504z" stroke-width="0"/>
   </g>
   <g transform="matrix(.68494 0 0 .68494 143.47 5.1338)">
    <path d="m-27.035 188.44c0 0.49816-0.4071 0.90588-0.90615 0.90588h-20.158c-0.49783 0-0.90479-0.40773-0.90479-0.90588v-30.125c0-0.49814 0.40696-0.90602 0.90479-0.90602h20.158c0.49906 0 0.90615 0.40788 0.90615 0.90602z" stroke="#000" stroke-width=".36653"/>
    <path d="m-48.326 187.99c-0.24905-0.24756-0.27637-1.743-0.27452-15.026 2e-3 -12.89 0.0349-14.772 0.26203-14.917 0.15579-0.0991 4.2043-0.1783 10.102-0.19758 8.7183-0.0285 9.8735-7.7e-4 10.116 0.2399 0.24448 0.24301 0.27837 1.8296 0.31744 14.858 0.0291 9.7222-0.0159 14.698-0.13503 14.922-0.17354 0.32661-0.46938 0.3373-10.145 0.36631-8.8728 0.0266-9.9967-3.2e-4 -10.243-0.24504z" stroke-width="0"/>
   </g>
   <g transform="matrix(.68494 0 0 .68494 164.51 5.1338)">
    <path d="m-27.035 188.44c0 0.49816-0.4071 0.90588-0.90615 0.90588h-20.158c-0.49783 0-0.90479-0.40773-0.90479-0.90588v-30.125c0-0.49814 0.40696-0.90602 0.90479-0.90602h20.158c0.49906 0 0.90615 0.40788 0.90615 0.90602z" stroke="#000" stroke-width=".36653"/>
    <path d="m-48.326 187.99c-0.24905-0.24756-0.27637-1.743-0.27452-15.026 2e-3 -12.89 0.0349-14.772 0.26203-14.917 0.15579-0.0991 4.2043-0.1783 10.102-0.19758 8.7183-0.0285 9.8735-7.7e-4 10.116 0.2399 0.24448 0.24301 0.27837 1.8296 0.31744 14.858 0.0291 9.7222-0.0159 14.698-0.13503 14.922-0.17354 0.32661-0.46938 0.3373-10.145 0.36631-8.8728 0.0266-9.9967-3.2e-4 -10.243-0.24504z" stroke-width="0"/>
   </g>
   <g transform="matrix(.68494 0 0 .68494 185.55 5.1338)">
    <path d="m-27.035 188.44c0 0.49816-0.4071 0.90588-0.90615 0.90588h-20.158c-0.49783 0-0.90479-0.40773-0.90479-0.90588v-30.125c0-0.49814 0.40696-0.90602 0.90479-0.90602h20.158c0.49906 0 0.90615 0.40788 0.90615 0.90602z" stroke="#000" stroke-width=".36653"/>
    <path d="m-48.326 187.99c-0.24905-0.24756-0.27637-1.743-0.27452-15.026 2e-3 -12.89 0.0349-14.772 0.26203-14.917 0.15579-0.0991 4.2043-0.1783 10.102-0.19758 8.7183-0.0285 9.8735-7.7e-4 10.116 0.2399 0.24448 0.24301 0.27837 1.8296 0.31744 14.858 0.0291 9.7222-0.0159 14.698-0.13503 14.922-0.17354 0.32661-0.46938 0.3373-10.145 0.36631-8.8728 0.0266-9.9967-3.2e-4 -10.243-0.24504z" stroke-width="0"/>
   </g>
  </g>
  <g transform="translate(-9.8274 80.887)" fill="#fff">
   <g transform="matrix(.68494 0 0 .68494 59.303 5.1338)">
    <path d="m-27.035 188.44c0 0.49816-0.4071 0.90588-0.90615 0.90588h-20.158c-0.49783 0-0.90479-0.40773-0.90479-0.90588v-30.125c0-0.49814 0.40696-0.90602 0.90479-0.90602h20.158c0.49906 0 0.90615 0.40788 0.90615 0.90602z" stroke="#000" stroke-width=".36653"/>
    <path d="m-48.326 187.99c-0.24905-0.24756-0.27637-1.743-0.27452-15.026 2e-3 -12.89 0.0349-14.772 0.26203-14.917 0.15579-0.0991 4.2043-0.1783 10.102-0.19758 8.7183-0.0285 9.8735-7.7e-4 10.116 0.2399 0.24448 0.24301 0.27837 1.8296 0.31744 14.858 0.0291 9.7222-0.0159 14.698-0.13503 14.922-0.17354 0.32661-0.46938 0.3373-10.145 0.36631-8.8728 0.0266-9.9967-3.2e-4 -10.243-0.24504z" stroke-width="0"/>
   </g>
   <g transform="matrix(.68494 0 0 .68494 80.344 5.1338)">
    <path d="m-27.035 188.44c0 0.49816-0.4071 0.90588-0.90615 0.90588h-20.158c-0.49783 0-0.90479-0.40773-0.90479-0.90588v-30.125c0-0.49814 0.40696-0.90602 0.90479-0.90602h20.158c0.49906 0 0.90615 0.40788 0.90615 0.90602z" stroke="#000" stroke-width=".36653"/>
    <path d="m-48.326 187.99c-0.24905-0.24756-0.27637-1.743-0.27452-15.026 2e-3 -12.89 0.0349-14.772 0.26203-14.917 0.15579-0.0991 4.2043-0.1783 10.102-0.19758 8.7183-0.0285 9.8735-7.7e-4 10.116 0.2399 0.24448 0.24301 0.27837 1.8296 0.31744 14.858 0.0291 9.7222-0.0159 14.698-0.13503 14.922-0.17354 0.32661-0.46938 0.3373-10.145 0.36631-8.8728 0.0266-9.9967-3.2e-4 -10.243-0.24504z" stroke-width="0"/>
   </g>
   <g transform="matrix(.68494 0 0 .68494 101.38 5.1338)">
    <path d="m-27.035 188.44c0 0.49816-0.4071 0.90588-0.90615 0.90588h-20.158c-0.49783 0-0.90479-0.40773-0.90479-0.90588v-30.125c0-0.49814 0.40696-0.90602 0.90479-0.90602h20.158c0.49906 0 0.90615 0.40788 0.90615 0.90602z" stroke="#000" stroke-width=".36653"/>
    <path d="m-48.326 187.99c-0.24905-0.24756-0.27637-1.743-0.27452-15.026 2e-3 -12.89 0.0349-14.772 0.26203-14.917 0.15579-0.0991 4.2043-0.1783 10.102-0.19758 8.7183-0.0285 9.8735-7.7e-4 10.116 0.2399 0.24448 0.24301 0.27837 1.8296 0.31744 14.858 0.0291 9.7222-0.0159 14.698-0.13503 14.922-0.17354 0.32661-0.46938 0.3373-10.145 0.36631-8.8728 0.0266-9.9967-3.2e-4 -10.243-0.24504z" stroke-width="0"/>
   </g>
   <g transform="matrix(.68494 0 0 .68494 122.42 5.1338)">
    <path d="m-27.035 188.44c0 0.49816-0.4071 0.90588-0.90615 0.90588h-20.158c-0.49783 0-0.90479-0.40773-0.90479-0.90588v-30.125c0-0.49814 0.40696-0.90602 0.90479-0.90602h20.158c0.49906 0 0.90615 0.40788 0.90615 0.90602z" stroke="#000" stroke-width=".36653"/>
    <path d="m-48.326 187.99c-0.24905-0.24756-0.27637-1.743-0.27452-15.026 2e-3 -12.89 0.0349-14.772 0.26203-14.917 0.15579-0.0991 4.2043-0.1783 10.102-0.19758 8.7183-0.0285 9.8735-7.7e-4 10.116 0.2399 0.24448 0.24301 0.27837 1.8296 0.31744 14.858 0.0291 9.7222-0.0159 14.698-0.13503 14.922-0.17354 0.32661-0.46938 0.3373-10.145 0.36631-8.8728 0.0266-9.9967-3.2e-4 -10.243-0.24504z" stroke-width="0"/>
   </g>
   <g transform="matrix(.68494 0 0 .68494 143.47 5.1338)">
    <path d="m-27.035 188.44c0 0.49816-0.4071 0.90588-0.90615 0.90588h-20.158c-0.49783 0-0.90479-0.40773-0.90479-0.90588v-30.125c0-0.49814 0.40696-0.90602 0.90479-0.90602h20.158c0.49906 0 0.90615 0.40788 0.90615 0.90602z" stroke="#000" stroke-width=".36653"/>
    <path d="m-48.326 187.99c-0.24905-0.24756-0.27637-1.743-0.27452-15.026 2e-3 -12.89 0.0349-14.772 0.26203-14.917 0.15579-0.0991 4.2043-0.1783 10.102-0.19758 8.7183-0.0285 9.8735-7.7e-4 10.116 0.2399 0.24448 0.24301 0.27837 1.8296 0.31744 14.858 0.0291 9.7222-0.0159 14.698-0.13503 14.922-0.17354 0.32661-0.46938 0.3373-10.145 0.36631-8.8728 0.0266-9.9967-3.2e-4 -10.243-0.24504z" stroke-width="0"/>
   </g>
   <g transform="matrix(.68494 0 0 .68494 164.51 5.1338)">
    <path d="m-27.035 188.44c0 0.49816-0.4071 0.90588-0.90615 0.90588h-20.158c-0.49783 0-0.90479-0.40773-0.90479-0.90588v-30.125c0-0.49814 0.40696-0.90602 0.90479-0.90602h20.158c0.49906 0 0.90615 0.40788 0.90615 0.90602z" stroke="#000" stroke-width=".36653"/>
    <path d="m-48.326 187.99c-0.24905-0.24756-0.27637-1.743-0.27452-15.026 2e-3 -12.89 0.0349-14.772 0.26203-14.917 0.15579-0.0991 4.2043-0.1783 10.102-0.19758 8.7183-0.0285 9.8735-7.7e-4 10.116 0.2399 0.24448 0.24301 0.27837 1.8296 0.31744 14.858 0.0291 9.7222-0.0159 14.698-0.13503 14.922-0.17354 0.32661-0.46938 0.3373-10.145 0.36631-8.8728 0.0266-9.9967-3.2e-4 -10.243-0.24504z" stroke-width="0"/>
   </g>
   <g transform="matrix(.68494 0 0 .68494 185.55 5.1338)">
    <path d="m-27.035 188.44c0 0.49816-0.4071 0.90588-0.90615 0.90588h-20.158c-0.49783 0-0.90479-0.40773-0.90479-0.90588v-30.125c0-0.49814 0.40696-0.90602 0.90479-0.90602h20.158c0.49906 0 0.90615 0.40788 0.90615 0.90602z" stroke="#000" stroke-width=".36653"/>
    <path d="m-48.326 187.99c-0.24905-0.24756-0.27637-1.743-0.27452-15.026 2e-3 -12.89 0.0349-14.772 0.26203-14.917 0.15579-0.0991 4.2043-0.1783 10.102-0.19758 8.7183-0.0285 9.8735-7.7e-4 10.116 0.2399 0.24448 0.24301 0.27837 1.8296 0.31744 14.858 0.0291 9.7222-0.0159 14.698-0.13503 14.922-0.17354 0.32661-0.46938 0.3373-10.145 0.36631-8.8728 0.0266-9.9967-3.2e-4 -10.243-0.24504z" stroke-width="0"/>
   </g>
  </g>
  <g transform="translate(-9.8274 110.67)" fill="#fff">
   <g transform="matrix(.68494 0 0 .68494 59.303 5.1338)">
    <path d="m-27.035 188.44c0 0.49816-0.4071 0.90588-0.90615 0.90588h-20.158c-0.49783 0-0.90479-0.40773-0.90479-0.90588v-30.125c0-0.49814 0.40696-0.90602 0.90479-0.90602h20.158c0.49906 0 0.90615 0.40788 0.90615 0.90602z" stroke="#000" stroke-width=".36653"/>
    <path d="m-48.326 187.99c-0.24905-0.24756-0.27637-1.743-0.27452-15.026 2e-3 -12.89 0.0349-14.772 0.26203-14.917 0.15579-0.0991 4.2043-0.1783 10.102-0.19758 8.7183-0.0285 9.8735-7.7e-4 10.116 0.2399 0.24448 0.24301 0.27837 1.8296 0.31744 14.858 0.0291 9.7222-0.0159 14.698-0.13503 14.922-0.17354 0.32661-0.46938 0.3373-10.145 0.36631-8.8728 0.0266-9.9967-3.2e-4 -10.243-0.24504z" stroke-width="0"/>
   </g>
   <g transform="matrix(.68494 0 0 .68494 80.344 5.1338)">
    <path d="m-27.035 188.44c0 0.49816-0.4071 0.90588-0.90615 0.90588h-20.158c-0.49783 0-0.90479-0.40773-0.90479-0.90588v-30.125c0-0.49814 0.40696-0.90602 0.90479-0.90602h20.158c0.49906 0 0.90615 0.40788 0.90615 0.90602z" stroke="#000" stroke-width=".36653"/>
    <path d="m-48.326 187.99c-0.24905-0.24756-0.27637-1.743-0.27452-15.026 2e-3 -12.89 0.0349-14.772 0.26203-14.917 0.15579-0.0991 4.2043-0.1783 10.102-0.19758 8.7183-0.0285 9.8735-7.7e-4 10.116 0.2399 0.24448 0.24301 0.27837 1.8296 0.31744 14.858 0.0291 9.7222-0.0159 14.698-0.13503 14.922-0.17354 0.32661-0.46938 0.3373-10.145 0.36631-8.8728 0.0266-9.9967-3.2e-4 -10.243-0.24504z" stroke-width="0"/>
   </g>
   <g transform="matrix(.68494 0 0 .68494 101.38 5.1338)">
    <path d="m-27.035 188.44c0 0.49816-0.4071 0.90588-0.90615 0.90588h-20.158c-0.49783 0-0.90479-0.40773-0.90479-0.90588v-30.125c0-0.49814 0.40696-0.90602 0.90479-0.90602h20.158c0.49906 0 0.90615 0.40788 0.90615 0.90602z" stroke="#000" stroke-width=".36653"/>
    <path d="m-48.326 187.99c-0.24905-0.24756-0.27637-1.743-0.27452-15.026 2e-3 -12.89 0.0349-14.772 0.26203-14.917 0.15579-0.0991 4.2043-0.1783 10.102-0.19758 8.7183-0.0285 9.8735-7.7e-4 10.116 0.2399 0.24448 0.24301 0.27837 1.8296 0.31744 14.858 0.0291 9.7222-0.0159 14.698-0.13503 14.922-0.17354 0.32661-0.46938 0.3373-10.145 0.36631-8.8728 0.0266-9.9967-3.2e-4 -10.243-0.24504z" stroke-width="0"/>
   </g>
   <g transform="matrix(.68494 0 0 .68494 122.42 5.1338)">
    <path d="m-27.035 188.44c0 0.49816-0.4071 0.90588-0.90615 0.90588h-20.158c-0.49783 0-0.90479-0.40773-0.90479-0.90588v-30.125c0-0.49814 0.40696-0.90602 0.90479-0.90602h20.158c0.49906 0 0.90615 0.40788 0.90615 0.90602z" stroke="#000" stroke-width=".36653"/>
    <path d="m-48.326 187.99c-0.24905-0.24756-0.27637-1.743-0.27452-15.026 2e-3 -12.89 0.0349-14.772 0.26203-14.917 0.15579-0.0991 4.2043-0.1783 10.102-0.19758 8.7183-0.0285 9.8735-7.7e-4 10.116 0.2399 0.24448 0.24301 0.27837 1.8296 0.31744 14.858 0.0291 9.7222-0.0159 14.698-0.13503 14.922-0.17354 0.32661-0.46938 0.3373-10.145 0.36631-8.8728 0.0266-9.9967-3.2e-4 -10.243-0.24504z" stroke-width="0"/>
   </g>
   <g transform="matrix(.68494 0 0 .68494 143.47 5.1338)">
    <path d="m-27.035 188.44c0 0.49816-0.4071 0.90588-0.90615 0.90588h-20.158c-0.49783 0-0.90479-0.40773-0.90479-0.90588v-30.125c0-0.49814 0.40696-0.90602 0.90479-0.90602h20.158c0.49906 0 0.90615 0.40788 0.90615 0.90602z" stroke="#000" stroke-width=".36653"/>
    <path d="m-48.326 187.99c-0.24905-0.24756-0.27637-1.743-0.27452-15.026 2e-3 -12.89 0.0349-14.772 0.26203-14.917 0.15579-0.0991 4.2043-0.1783 10.102-0.19758 8.7183-0.0285 9.8735-7.7e-4 10.116 0.2399 0.24448 0.24301 0.27837 1.8296 0.31744 14.858 0.0291 9.7222-0.0159 14.698-0.13503 14.922-0.17354 0.32661-0.46938 0.3373-10.145 0.36631-8.8728 0.0266-9.9967-3.2e-4 -10.243-0.24504z" stroke-width="0"/>
   </g>
   <g transform="matrix(.68494 0 0 .68494 164.51 5.1338)">
    <path d="m-27.035 188.44c0 0.49816-0.4071 0.90588-0.90615 0.90588h-20.158c-0.49783 0-0.90479-0.40773-0.90479-0.90588v-30.125c0-0.49814 0.40696-0.90602 0.90479-0.90602h20.158c0.49906 0 0.90615 0.40788 0.90615 0.90602z" stroke="#000" stroke-width=".36653"/>
    <path d="m-48.326 187.99c-0.24905-0.24756-0.27637-1.743-0.27452-15.026 2e-3 -12.89 0.0349-14.772 0.26203-14.917 0.15579-0.0991 4.2043-0.1783 10.102-0.19758 8.7183-0.0285 9.8735-7.7e-4 10.116 0.2399 0.24448 0.24301 0.27837 1.8296 0.31744 14.858 0.0291 9.7222-0.0159 14.698-0.13503 14.922-0.17354 0.32661-0.46938 0.3373-10.145 0.36631-8.8728 0.0266-9.9967-3.2e-4 -10.243-0.24504z" stroke-width="0"/>
   </g>
   <g transform="matrix(.68494 0 0 .68494 185.55 5.1338)">
    <path d="m-27.035 188.44c0 0.49816-0.4071 0.90588-0.90615 0.90588h-20.158c-0.49783 0-0.90479-0.40773-0.90479-0.90588v-30.125c0-0.49814 0.40696-0.90602 0.90479-0.90602h20.158c0.49906 0 0.90615 0.40788 0.90615 0.90602z" stroke="#000" stroke-width=".36653"/>
    <path d="m-48.326 187.99c-0.24905-0.24756-0.27637-1.743-0.27452-15.026 2e-3 -12.89 0.0349-14.772 0.26203-14.917 0.15579-0.0991 4.2043-0.1783 10.102-0.19758 8.7183-0.0285 9.8735-7.7e-4 10.116 0.2399 0.24448 0.24301 0.27837 1.8296 0.31744 14.858 0.0291 9.7222-0.0159 14.698-0.13503 14.922-0.17354 0.32661-0.46938 0.3373-10.145 0.36631-8.8728 0.0266-9.9967-3.2e-4 -10.243-0.24504z" stroke-width="0"/>
   </g>
  </g>
  <g transform="translate(-9.8274 140.46)" fill="#fff">
   <g transform="matrix(.68494 0 0 .68494 59.303 5.1338)">
    <path d="m-27.035 188.44c0 0.49816-0.4071 0.90588-0.90615 0.90588h-20.158c-0.49783 0-0.90479-0.40773-0.90479-0.90588v-30.125c0-0.49814 0.40696-0.90602 0.90479-0.90602h20.158c0.49906 0 0.90615 0.40788 0.90615 0.90602z" stroke="#000" stroke-width=".36653"/>
    <path d="m-48.326 187.99c-0.24905-0.24756-0.27637-1.743-0.27452-15.026 2e-3 -12.89 0.0349-14.772 0.26203-14.917 0.15579-0.0991 4.2043-0.1783 10.102-0.19758 8.7183-0.0285 9.8735-7.7e-4 10.116 0.2399 0.24448 0.24301 0.27837 1.8296 0.31744 14.858 0.0291 9.7222-0.0159 14.698-0.13503 14.922-0.17354 0.32661-0.46938 0.3373-10.145 0.36631-8.8728 0.0266-9.9967-3.2e-4 -10.243-0.24504z" stroke-width="0"/>
   </g>
   <g transform="matrix(.68494 0 0 .68494 80.344 5.1338)">
    <path d="m-27.035 188.44c0 0.49816-0.4071 0.90588-0.90615 0.90588h-20.158c-0.49783 0-0.90479-0.40773-0.90479-0.90588v-30.125c0-0.49814 0.40696-0.90602 0.90479-0.90602h20.158c0.49906 0 0.90615 0.40788 0.90615 0.90602z" stroke="#000" stroke-width=".36653"/>
    <path d="m-48.326 187.99c-0.24905-0.24756-0.27637-1.743-0.27452-15.026 2e-3 -12.89 0.0349-14.772 0.26203-14.917 0.15579-0.0991 4.2043-0.1783 10.102-0.19758 8.7183-0.0285 9.8735-7.7e-4 10.116 0.2399 0.24448 0.24301 0.27837 1.8296 0.31744 14.858 0.0291 9.7222-0.0159 14.698-0.13503 14.922-0.17354 0.32661-0.46938 0.3373-10.145 0.36631-8.8728 0.0266-9.9967-3.2e-4 -10.243-0.24504z" stroke-width="0"/>
   </g>
   <g transform="matrix(.68494 0 0 .68494 101.38 5.1338)">
    <path d="m-27.035 188.44c0 0.49816-0.4071 0.90588-0.90615 0.90588h-20.158c-0.49783 0-0.90479-0.40773-0.90479-0.90588v-30.125c0-0.49814 0.40696-0.90602 0.90479-0.90602h20.158c0.49906 0 0.90615 0.40788 0.90615 0.90602z" stroke="#000" stroke-width=".36653"/>
    <path d="m-48.326 187.99c-0.24905-0.24756-0.27637-1.743-0.27452-15.026 2e-3 -12.89 0.0349-14.772 0.26203-14.917 0.15579-0.0991 4.2043-0.1783 10.102-0.19758 8.7183-0.0285 9.8735-7.7e-4 10.116 0.2399 0.24448 0.24301 0.27837 1.8296 0.31744 14.858 0.0291 9.7222-0.0159 14.698-0.13503 14.922-0.17354 0.32661-0.46938 0.3373-10.145 0.36631-8.8728 0.0266-9.9967-3.2e-4 -10.243-0.24504z" stroke-width="0"/>
   </g>
   <g transform="matrix(.68494 0 0 .68494 122.42 5.1338)">
    <path d="m-27.035 188.44c0 0.49816-0.4071 0.90588-0.90615 0.90588h-20.158c-0.49783 0-0.90479-0.40773-0.90479-0.90588v-30.125c0-0.49814 0.40696-0.90602 0.90479-0.90602h20.158c0.49906 0 0.90615 0.40788 0.90615 0.90602z" stroke="#000" stroke-width=".36653"/>
    <path d="m-48.326 187.99c-0.24905-0.24756-0.27637-1.743-0.27452-15.026 2e-3 -12.89 0.0349-14.772 0.26203-14.917 0.15579-0.0991 4.2043-0.1783 10.102-0.19758 8.7183-0.0285 9.8735-7.7e-4 10.116 0.2399 0.24448 0.24301 0.27837 1.8296 0.31744 14.858 0.0291 9.7222-0.0159 14.698-0.13503 14.922-0.17354 0.32661-0.46938 0.3373-10.145 0.36631-8.8728 0.0266-9.9967-3.2e-4 -10.243-0.24504z" stroke-width="0"/>
   </g>
   <g transform="matrix(.68494 0 0 .68494 143.47 5.1338)">
    <path d="m-27.035 188.44c0 0.49816-0.4071 0.90588-0.90615 0.90588h-20.158c-0.49783 0-0.90479-0.40773-0.90479-0.90588v-30.125c0-0.49814 0.40696-0.90602 0.90479-0.90602h20.158c0.49906 0 0.90615 0.40788 0.90615 0.90602z" stroke="#000" stroke-width=".36653"/>
    <path d="m-48.326 187.99c-0.24905-0.24756-0.27637-1.743-0.27452-15.026 2e-3 -12.89 0.0349-14.772 0.26203-14.917 0.15579-0.0991 4.2043-0.1783 10.102-0.19758 8.7183-0.0285 9.8735-7.7e-4 10.116 0.2399 0.24448 0.24301 0.27837 1.8296 0.31744 14.858 0.0291 9.7222-0.0159 14.698-0.13503 14.922-0.17354 0.32661-0.46938 0.3373-10.145 0.36631-8.8728 0.0266-9.9967-3.2e-4 -10.243-0.24504z" stroke-width="0"/>
   </g>
   <g transform="matrix(.68494 0 0 .68494 164.51 5.1338)">
    <path d="m-27.035 188.44c0 0.49816-0.4071 0.90588-0.90615 0.90588h-20.158c-0.49783 0-0.90479-0.40773-0.90479-0.90588v-30.125c0-0.49814 0.40696-0.90602 0.90479-0.90602h20.158c0.49906 0 0.90615 0.40788 0.90615 0.90602z" stroke="#000" stroke-width=".36653"/>
    <path d="m-48.326 187.99c-0.24905-0.24756-0.27637-1.743-0.27452-15.026 2e-3 -12.89 0.0349-14.772 0.26203-14.917 0.15579-0.0991 4.2043-0.1783 10.102-0.19758 8.7183-0.0285 9.8735-7.7e-4 10.116 0.2399 0.24448 0.24301 0.27837 1.8296 0.31744 14.858 0.0291 9.7222-0.0159 14.698-0.13503 14.922-0.17354 0.32661-0.46938 0.3373-10.145 0.36631-8.8728 0.0266-9.9967-3.2e-4 -10.243-0.24504z" stroke-width="0"/>
   </g>
   <g transform="matrix(.68494 0 0 .68494 185.55 5.1338)">
    <path d="m-27.035 188.44c0 0.49816-0.4071 0.90588-0.90615 0.90588h-20.158c-0.49783 0-0.90479-0.40773-0.90479-0.90588v-30.125c0-0.49814 0.40696-0.90602 0.90479-0.90602h20.158c0.49906 0 0.90615 0.40788 0.90615 0.90602z" stroke="#000" stroke-width=".36653"/>
    <path d="m-48.326 187.99c-0.24905-0.24756-0.27637-1.743-0.27452-15.026 2e-3 -12.89 0.0349-14.772 0.26203-14.917 0.15579-0.0991 4.2043-0.1783 10.102-0.19758 8.7183-0.0285 9.8735-7.7e-4 10.116 0.2399 0.24448 0.24301 0.27837 1.8296 0.31744 14.858 0.0291 9.7222-0.0159 14.698-0.13503 14.922-0.17354 0.32661-0.46938 0.3373-10.145 0.36631-8.8728 0.0266-9.9967-3.2e-4 -10.243-0.24504z" stroke-width="0"/>
   </g>
  </g>
  <g transform="translate(-10.583 -8.4667)" fill="none" stroke="#000" stroke-width=".865">
   <path d="m33.592 123.73h20.748" marker-end="url(#marker45230)" marker-start="url(#DotM)"/>
   <path d="m54.834 123.73h20.748" marker-end="url(#marker45230-3)" marker-start="url(#DotM-4)"/>
   <path d="m75.371 123.73h20.748" marker-end="url(#marker45230-2)" marker-start="url(#DotM-0)"/>
   <path d="m96.613 123.73h20.748" marker-end="url(#marker45230-4)" marker-start="url(#DotM-3)"/>
   <path d="m118.1 123.73h20.748" marker-end="url(#marker45230-8)" marker-start="url(#DotM-6)"/>
   <path d="m138.85 123.73h20.748" marker-end="url(#marker45230-1)" marker-start="url(#DotM-09)"/>
  </g>
  <g transform="translate(-10.813 22.038)" fill="none" stroke="#000" stroke-width=".865">
   <path d="m33.592 123.73h20.748" marker-end="url(#marker45230-49)" marker-start="url(#DotM-9)"/>
   <path d="m54.834 123.73h20.748" marker-end="url(#marker45230-3-7)" marker-start="url(#DotM-4-8)"/>
   <path d="m75.371 123.73h20.748" marker-end="url(#marker45230-2-5)" marker-start="url(#DotM-0-5)"/>
   <path d="m96.613 123.73h20.748" marker-end="url(#marker45230-4-3)" marker-start="url(#DotM-3-3)"/>
   <path d="m118.1 123.73h20.748" marker-end="url(#marker45230-8-2)" marker-start="url(#DotM-6-9)"/>
   <path d="m138.85 123.73h20.748" marker-end="url(#marker45230-1-8)" marker-start="url(#DotM-09-4)"/>
  </g>
  <g transform="translate(-10.319 51.432)" fill="none" stroke="#000" stroke-width=".865">
   <path d="m33.592 123.73h20.748" marker-end="url(#marker45230-20)" marker-start="url(#DotM-48)"/>
   <path d="m54.834 123.73h20.748" marker-end="url(#marker45230-3-77)" marker-start="url(#DotM-4-2)"/>
   <path d="m75.371 123.73h20.748" marker-end="url(#marker45230-2-2)" marker-start="url(#DotM-0-6)"/>
   <path d="m96.613 123.73h20.748" marker-end="url(#marker45230-4-7)" marker-start="url(#DotM-3-5)"/>
   <path d="m118.1 123.73h20.748" marker-end="url(#marker45230-8-5)" marker-start="url(#DotM-6-0)"/>
   <path d="m138.85 123.73h20.748" marker-end="url(#marker45230-1-3)" marker-start="url(#DotM-09-8)"/>
  </g>
  <g transform="translate(-10.566 80.825)" fill="none" stroke="#000" stroke-width=".865">
   <path d="m33.592 123.73h20.748" marker-end="url(#marker45230-5)" marker-start="url(#DotM-7)"/>
   <path d="m54.834 123.73h20.748" marker-end="url(#marker45230-3-78)" marker-start="url(#DotM-4-1)"/>
   <path d="m75.371 123.73h20.748" marker-end="url(#marker45230-2-4)" marker-start="url(#DotM-0-4)"/>
   <path d="m96.613 123.73h20.748" marker-end="url(#marker45230-4-39)" marker-start="url(#DotM-3-51)"/>
   <path d="m118.1 123.73h20.748" marker-end="url(#marker45230-8-20)" marker-start="url(#DotM-6-3)"/>
   <path d="m138.85 123.73h20.748" marker-end="url(#marker45230-1-5)" marker-start="url(#DotM-09-82)"/>
  </g>
  <g transform="translate(-10.319 110.96)" fill="none" stroke="#000" stroke-width=".865">
   <path d="m33.592 123.73h20.748" marker-end="url(#marker45230-9)" marker-start="url(#DotM-35)"/>
   <path d="m54.834 123.73h20.748" marker-end="url(#marker45230-3-9)" marker-start="url(#DotM-4-26)"/>
   <path d="m75.371 123.73h20.748" marker-end="url(#marker45230-2-1)" marker-start="url(#DotM-0-1)"/>
   <path d="m96.613 123.73h20.748" marker-end="url(#marker45230-4-5)" marker-start="url(#DotM-3-8)"/>
   <path d="m118.1 123.73h20.748" marker-end="url(#marker45230-8-55)" marker-start="url(#DotM-6-2)"/>
   <path d="m138.85 123.73h20.748" marker-end="url(#marker45230-1-39)" marker-start="url(#DotM-09-7)"/>
  </g>
  <g transform="translate(-10.813 140.85)" fill="none" stroke="#000" stroke-width=".865">
   <path d="m33.592 123.73h20.748" marker-end="url(#marker45230-0)" marker-start="url(#DotM-1)"/>
   <path d="m54.834 123.73h20.748" marker-end="url(#marker45230-3-6)" marker-start="url(#DotM-4-0)"/>
   <path d="m75.371 123.73h20.748" marker-end="url(#marker45230-2-16)" marker-start="url(#DotM-0-58)"/>
   <path d="m96.613 123.73h20.748" marker-end="url(#marker45230-4-4)" marker-start="url(#DotM-3-52)"/>
   <path d="m118.1 123.73h20.748" marker-end="url(#marker45230-8-6)" marker-start="url(#DotM-6-7)"/>
   <path d="m138.85 123.73h20.748" marker-end="url(#marker45230-1-9)" marker-start="url(#DotM-09-5)"/>
  </g>
  <g fill="none" stroke="#000" stroke-width=".665">
   <path d="m23.009 115.26-0.22971 149.31" marker-end="url(#marker5618)" marker-start="url(#marker5618)"/>
   <path d="m43.837 115.82-0.22971 149.31"/>
   <path d="m64.62 115.82-0.22971 149.31"/>
   <path d="m85.863 116.06-0.22971 149.31"/>
   <path d="m107.32 115.82-0.2297 149.31"/>
   <path d="m128.59 114.83-0.22971 149.31"/>
   <path d="m149.34 115.32-0.2297 149.31"/>
  </g>
 </g>
</svg>
