v 2.671719 0.2913222 -0.8866799
v 2.671719 0.9373693 -0.9586236
v 3.471719 0.9373693 -0.9586236
v 3.471719 0.2913222 -0.8866799
v 2.671719 -0.008936405 -1.409235
v 2.271719 0.3381803 -1.441003
v 2.271719 1.032414 -1.504539
v 2.671719 1.37953 -1.536306
v 3.471719 1.37953 -1.536306
v 3.871719 1.032414 -1.504539
v 3.871719 0.3381803 -1.441003
v 3.471719 -0.008936405 -1.409235
v 2.671719 0.03659391 -2.526291
v 2.271719 0.4318966 -2.54965
v 2.271719 1.222502 -2.596368
v 2.671719 1.617805 -2.619728
v 3.471719 1.617805 -2.619728
v 3.871719 1.222502 -2.596368
v 3.871719 0.4318966 -2.54965
v 3.471719 0.03659391 -2.526291
v 2.671719 0.4787548 -3.103973
v 2.671719 1.317546 -3.142283
v 3.471719 1.317546 -3.142283
v 3.471719 0.4787548 -3.103973
v 2.671719 -0.008936405 -1.409235
v 2.271719 0.3381803 -1.441003
v 2.271719 1.032414 -1.504539
v 2.671719 1.37953 -1.536306
v 3.471719 1.37953 -1.536306
v 3.871719 1.032414 -1.504539
v 3.871719 0.3381803 -1.441003
v 3.471719 -0.008936405 -1.409235
v 2.671719 -0.008936405 -1.409235
v 2.671719 0.03659391 -2.526291
v 2.271719 0.4318966 -2.54965
v 2.271719 1.222502 -2.596368
v 2.671719 1.617805 -2.619728
v 3.471719 1.617805 -2.619728
v 3.871719 1.222502 -2.596368
v 3.871719 0.4318966 -2.54965
v 3.471719 0.03659391 -2.526291
v 2.671719 0.03659391 -2.526291
vn -0.416782 -0.1890288 0.8891351
vn -0.3264111 0.4112265 0.8510869
vn 0.416782 0.1890286 0.889135
vn 0.3264111 -0.4112267 0.8510868
vn -0.3988665 -0.8015055 -9.554689E-08
vn -0.8668584 -0.277345 0.2838395
vn -0.898802 0.1358819 0.2875874
vn -0.4287444 0.7637585 0.3261865
vn 0.2225058 0.8409669 0.3364086
vn 0.8668584 0.277345 0.2838396
vn 0.898802 -0.1358819 0.2875874
vn 0.4287444 -0.7637586 0.3261863
vn -0.3988665 -0.8015055 -9.554689E-08
vn -0.8935315 -0.1753143 -0.2838396
vn -0.8721287 0.2379126 -0.2875874
vn -0.2807908 0.830101 -0.3261863
vn 0.3704595 0.7746246 -0.3364084
vn 0.8935315 0.1753144 -0.2838395
vn 0.8721287 -0.2379125 -0.2875874
vn 0.2807908 -0.8301008 -0.3261865
vn -0.416782 -0.1890286 -0.8891351
vn -0.3264111 0.4112267 -0.8510868
vn 0.416782 0.1890288 -0.889135
vn 0.3264111 -0.4112265 -0.8510869
vn -0.3988665 -0.8015055 -9.554689E-08
vn -0.8668584 -0.277345 0.2838395
vn -0.898802 0.1358819 0.2875874
vn -0.4287444 0.7637585 0.3261865
vn 0.2225058 0.8409669 0.3364086
vn 0.8668584 0.277345 0.2838396
vn 0.898802 -0.1358819 0.2875874
vn 0.4287444 -0.7637586 0.3261863
vn -0.3988665 -0.8015055 -9.554689E-08
vn -0.3988665 -0.8015055 -9.554689E-08
vn -0.8935315 -0.1753143 -0.2838396
vn -0.8721287 0.2379126 -0.2875874
vn -0.2807908 0.830101 -0.3261863
vn 0.3704595 0.7746246 -0.3364084
vn 0.8935315 0.1753144 -0.2838395
vn 0.8721287 -0.2379125 -0.2875874
vn 0.2807908 -0.8301008 -0.3261865
vn -0.3988665 -0.8015055 -9.554689E-08
vt 0.121875 0.121875
vt 0.121875 0.365625
vt 0.365625 0.365625
vt 0.365625 0.121875
vt 0.121875 0
vt 0 0.121875
vt 0 0.365625
vt 0.121875 0.4875
vt 0.365625 0.4875
vt 0.4875 0.365625
vt 0.4875 0.121875
vt 0.365625 0
vt 0.878125 0
vt 1 0.121875
vt 1 0.365625
vt 0.878125 0.4875
vt 0.634375 0.4875
vt 0.5125 0.365625
vt 0.5125 0.121875
vt 0.634375 0
vt 0.878125 0.121875
vt 0.878125 0.365625
vt 0.634375 0.365625
vt 0.634375 0.121875
vt 1 1
vt 0.8964466 1
vt 0.75 1
vt 0.6464466 1
vt 0.5000001 1
vt 0.3964466 1
vt 0.25 1
vt 0.1464466 1
vt 0 1
vt 1 0.50625
vt 0.8964466 0.50625
vt 0.75 0.50625
vt 0.6464466 0.50625
vt 0.5000001 0.50625
vt 0.3964466 0.50625
vt 0.25 0.50625
vt 0.1464466 0.50625
vt 0 0.50625
f 3/3/3 2/2/2 1/1/1
f 4/4/4 3/3/3 1/1/1
f 6/6/6 5/5/5 1/1/1
f 7/7/7 6/6/6 1/1/1
f 2/2/2 7/7/7 1/1/1
f 8/8/8 7/7/7 2/2/2
f 9/9/9 8/8/8 2/2/2
f 3/3/3 9/9/9 2/2/2
f 10/10/10 9/9/9 3/3/3
f 11/11/11 10/10/10 3/3/3
f 4/4/4 11/11/11 3/3/3
f 12/12/12 11/11/11 4/4/4
f 5/5/5 12/12/12 4/4/4
f 1/1/1 5/5/5 4/4/4
f 22/22/22 23/23/23 21/21/21
f 23/23/23 24/24/24 21/21/21
f 13/13/13 14/14/14 21/21/21
f 15/15/15 22/22/22 21/21/21
f 14/14/14 15/15/15 21/21/21
f 15/15/15 16/16/16 22/22/22
f 17/17/17 23/23/23 22/22/22
f 16/16/16 17/17/17 22/22/22
f 17/17/17 18/18/18 23/23/23
f 18/18/18 19/19/19 23/23/23
f 19/19/19 24/24/24 23/23/23
f 19/19/19 20/20/20 24/24/24
f 20/20/20 13/13/13 24/24/24
f 13/13/13 21/21/21 24/24/24
f 26/26/26 34/34/34 25/25/25
f 35/35/35 34/34/34 26/26/26
f 27/27/27 35/35/35 26/26/26
f 36/36/36 35/35/35 27/27/27
f 28/28/28 36/36/36 27/27/27
f 37/37/37 36/36/36 28/28/28
f 29/29/29 37/37/37 28/28/28
f 38/38/38 37/37/37 29/29/29
f 30/30/30 38/38/38 29/29/29
f 39/39/39 38/38/38 30/30/30
f 31/31/31 39/39/39 30/30/30
f 40/40/40 39/39/39 31/31/31
f 32/32/32 40/40/40 31/31/31
f 41/41/41 40/40/40 32/32/32
f 33/33/33 41/41/41 32/32/32
f 42/42/42 41/41/41 33/33/33
