<?xml version="1.0" standalone="no"?>
<!DOCTYPE svg PUBLIC "-//W3C//DTD SVG 20010904//EN"
 "http://www.w3.org/TR/2001/REC-SVG-20010904/DTD/svg10.dtd">
<svg version="1.0" xmlns="http://www.w3.org/2000/svg"
 width="1280.000000pt" height="608.000000pt" viewBox="0 0 1280.000000 608.000000"
 preserveAspectRatio="xMidYMid meet">
<g transform="translate(0.000000,608.000000) scale(0.100000,-0.100000)"
fill="#000000" stroke="none">
<path d="M7064 5941 c-91 -98 -136 -140 -152 -140 -13 -1 -20 -5 -17 -11 4 -6
-20 -35 -52 -65 -32 -30 -63 -60 -70 -67 -29 -33 -132 -137 -173 -176 -25 -23
-56 -55 -70 -70 -14 -15 -52 -50 -83 -79 -31 -28 -57 -55 -57 -60 0 -4 -33
-34 -72 -65 -40 -32 -99 -84 -130 -117 -35 -36 -69 -62 -88 -66 -39 -9 -130
-91 -130 -117 0 -27 -64 -90 -83 -82 -13 4 -703 -287 -1070 -453 -78 -34 -102
-41 -108 -31 -6 8 -9 0 -9 -24 0 -24 8 -46 25 -66 14 -17 25 -39 25 -49 0 -11
10 -25 23 -32 13 -7 32 -27 42 -44 10 -17 46 -59 81 -92 l62 -61 -48 -50 c-26
-28 -60 -58 -74 -67 -14 -10 -26 -23 -26 -31 0 -7 -28 -35 -63 -61 -34 -26
-94 -80 -133 -119 -145 -145 -287 -272 -326 -289 -23 -11 -107 -27 -201 -39
-89 -11 -191 -24 -227 -29 -36 -4 -100 -13 -142 -18 -42 -5 -95 -15 -116 -21
-22 -5 -136 -22 -253 -35 -118 -14 -310 -37 -428 -50 -143 -17 -259 -25 -351
-24 l-138 1 -91 -42 c-79 -36 -104 -43 -185 -48 -91 -7 -94 -8 -131 -45 -26
-26 -43 -36 -56 -32 -13 5 -19 1 -19 -10 0 -10 -24 -27 -67 -46 -38 -17 -86
-39 -108 -49 -22 -10 -53 -23 -70 -30 -26 -10 -28 -13 -13 -24 9 -7 20 -30 23
-51 12 -63 16 -65 130 -65 l104 0 25 -56 c29 -63 30 -68 16 -59 -10 6 -6 -29
11 -95 5 -19 9 -104 9 -189 0 -136 -2 -152 -16 -147 -23 9 -37 -3 -23 -20 9
-11 7 -15 -7 -20 -11 -3 -26 -9 -35 -14 -21 -11 -29 -3 -29 27 0 24 -19 30
-37 12 -15 -15 -34 -3 -26 16 3 10 -2 15 -16 15 -12 0 -21 -6 -21 -14 0 -23
-18 -28 -56 -16 -29 10 -41 10 -60 -1 -21 -11 -27 -10 -50 12 -22 21 -36 24
-102 25 -42 1 -81 -2 -87 -6 -5 -4 -25 -11 -43 -15 -25 -5 -33 -3 -38 9 -6 15
-8 15 -19 0 -11 -15 -16 -16 -44 -5 -24 10 -41 11 -75 2 -25 -6 -70 -11 -100
-11 -63 0 -79 -15 -45 -41 l24 -19 -42 0 c-23 0 -48 -2 -55 -5 -9 -4 -22 9
-36 34 -25 45 -45 56 -63 35 -10 -13 -14 -13 -29 1 -16 15 -50 11 -50 -5 0
-10 -180 0 -203 12 -10 5 -15 14 -11 20 4 6 1 9 -7 6 -8 -3 -19 2 -26 11 -10
14 -14 14 -35 -6 -28 -27 -41 -29 -58 -8 -7 8 -23 15 -36 15 -27 0 -32 -15 -9
-24 21 -8 21 -86 0 -86 -11 0 -13 7 -9 29 5 22 2 32 -13 40 -23 11 -45 -3 -37
-24 4 -9 -11 -12 -58 -11 -35 0 -70 -3 -80 -7 -12 -6 -18 -3 -23 12 -3 12 -20
28 -36 37 -33 17 -57 10 -39 -11 12 -14 6 -35 -9 -35 -4 0 -13 12 -20 26 -9
21 -17 25 -37 21 -18 -3 -29 1 -37 14 -7 11 -20 19 -29 19 -16 0 -18 -11 -18
-98 0 -86 2 -99 20 -110 26 -16 26 -38 0 -54 -30 -19 -24 -30 13 -26 43 4 45
-25 2 -32 -26 -4 -30 -10 -33 -43 -2 -20 0 -37 3 -37 4 0 20 14 35 30 15 17
36 30 47 30 13 -1 4 -13 -33 -48 l-51 -47 -2 -326 c-2 -256 1 -328 11 -336 19
-15 86 -27 148 -25 30 0 88 1 128 1 63 0 76 3 91 22 12 15 24 20 36 16 13 -6
15 -10 6 -21 -10 -12 -6 -15 18 -21 17 -4 34 -11 37 -17 9 -14 -16 -58 -33
-58 -16 0 -17 16 -1 26 7 5 5 11 -7 21 -23 16 -135 17 -250 1 -44 -5 -98 -11
-120 -12 -22 0 -46 -5 -52 -9 -10 -6 -13 -121 -13 -518 l0 -509 6398 2 6397 3
3 1350 2 1351 -47 -1 c-44 -1 -48 -3 -51 -28 -2 -15 -10 -27 -18 -27 -8 0 -14
-9 -14 -20 0 -29 -12 -25 -32 10 -22 38 -47 49 -63 26 -17 -22 -120 -33 -132
-13 -4 7 -27 21 -50 31 -50 22 -53 33 -18 66 33 31 32 42 -7 38 -18 -2 -33 2
-35 10 -3 7 5 12 22 12 25 0 26 2 23 43 l-3 42 -75 0 c-69 0 -74 -2 -80 -23
-7 -34 -24 -28 -30 10 -4 26 -13 37 -44 51 -21 10 -40 27 -43 37 -3 10 -15 20
-27 22 -11 2 -25 13 -31 26 -10 23 -29 29 -40 13 -3 -5 -1 -13 5 -16 8 -5 7
-12 -2 -22 -11 -14 -13 -13 -18 8 -5 20 -12 24 -43 23 -30 -1 -37 2 -37 17 0
16 8 19 45 19 25 0 45 5 45 10 0 6 -12 10 -27 10 -16 0 -37 7 -47 15 -19 15
-19 15 4 40 32 34 57 34 35 1 -20 -29 -6 -41 23 -20 16 11 20 20 14 31 -6 10
-2 22 15 39 30 30 29 40 -4 49 -16 3 -36 14 -46 23 -12 11 -22 13 -31 7 -7 -6
-33 -23 -57 -39 -24 -15 -50 -35 -56 -44 -12 -14 -13 -14 -13 0 0 23 -18 32
-35 18 -10 -8 -17 -6 -28 11 -16 22 -19 22 -67 -6 -14 -8 -39 -15 -56 -15 -35
0 -48 -12 -58 -53 -4 -16 -12 -27 -21 -25 -8 2 -21 -6 -29 -17 -13 -18 -17
-18 -37 -7 -14 9 -37 11 -69 7 -32 -4 -58 -2 -84 9 -41 17 -43 22 -20 48 16
16 15 18 0 24 -10 4 -28 2 -41 -4 -21 -10 -29 -7 -55 15 l-31 25 -60 -17 -60
-16 -32 25 c-18 15 -77 56 -132 93 -55 36 -175 119 -267 184 -91 66 -178 125
-192 133 -14 7 -38 25 -53 41 -15 15 -83 62 -150 105 -66 43 -168 114 -226
158 -155 118 -191 124 -303 52 -109 -72 -108 -72 -208 31 -86 89 -107 129 -66
129 13 0 20 -7 20 -20 0 -29 11 -25 82 24 35 24 77 51 95 59 29 15 31 19 26
57 -5 33 -3 40 11 40 9 0 16 7 16 15 0 10 -10 15 -27 15 -16 1 -39 7 -53 15
-14 8 -37 14 -51 15 -15 0 -32 7 -39 15 -7 8 -21 15 -32 15 -10 0 -40 11 -66
25 -26 14 -60 25 -77 25 -23 0 -131 46 -184 78 -2 1 -1 5 2 8 8 9 195 -57 308
-107 48 -22 99 -39 115 -39 63 0 11 23 -360 161 -88 33 -207 81 -265 107 -58
27 -140 62 -181 77 -66 25 -88 41 -193 139 -66 61 -147 136 -182 166 -35 30
-109 97 -164 148 -55 50 -109 92 -120 92 -17 0 -105 74 -170 143 -93 99 -275
274 -321 310 -30 23 -77 65 -103 94 -26 28 -68 64 -92 80 -25 15 -45 33 -45
38 0 18 -114 125 -133 125 -10 0 -20 7 -23 15 -4 8 -12 15 -18 15 -7 0 -71
-63 -142 -139z m-1676 -3017 c1836 -2 3042 -8 3042 -13 0 -5 -12 -19 -26 -30
-32 -25 -118 -28 -148 -6 -25 19 -63 19 -96 0 -33 -19 -72 -19 -137 2 -52 16
-59 16 -138 0 -95 -20 -129 -21 -156 -7 -29 16 -2583 14 -2672 -2 -58 -10 -84
-10 -170 5 -126 21 -142 21 -177 0 -26 -15 -30 -15 -63 1 -33 15 -116 16
-1009 15 -923 -2 -1588 7 -1588 21 0 3 6 12 13 19 9 9 46 11 147 6 74 -3 1504
-8 3178 -11z m5940 -470 c33 -9 27 -39 -17 -73 -44 -35 -66 -38 -93 -14 -24
21 -23 33 3 33 16 0 19 4 14 20 -3 11 -3 24 0 30 7 11 57 13 93 4z m-8187
-436 c-7 -18 -18 -28 -31 -28 -18 0 -20 6 -20 65 0 54 3 66 20 75 12 6 21 22
21 38 1 15 6 -7 11 -48 7 -51 6 -84 -1 -102z m199 -8 c0 -150 -2 -180 -14
-180 -11 0 -16 14 -18 48 -3 40 -6 47 -25 50 -18 3 -23 -2 -23 -17 0 -12 -6
-21 -14 -21 -23 0 -31 142 -11 213 8 32 15 60 15 62 0 3 4 5 9 5 15 0 34 -58
28 -87 -6 -31 1 -55 14 -47 5 3 9 36 9 73 0 66 4 81 22 81 4 0 8 -81 8 -180z
m-2980 -123 c0 -13 -13 -44 -30 -68 -36 -53 -36 -55 -7 -71 12 -7 22 -20 22
-28 0 -11 9 -14 38 -12 32 3 39 0 44 -17 5 -20 6 -20 18 -4 13 17 14 17 32 0
11 -9 30 -17 42 -17 14 0 21 -5 18 -12 -3 -8 -19 -12 -46 -10 -39 2 -41 1 -36
-21 5 -19 -1 -29 -29 -50 -42 -33 -70 -36 -61 -7 7 23 -10 60 -29 60 -7 0 -23
-11 -36 -25 -29 -30 -50 -32 -57 -4 l-6 20 -22 -21 c-20 -18 -23 -19 -29 -5
-3 9 1 26 9 39 8 12 12 26 8 29 -10 11 -48 8 -61 -5 -9 -9 -17 -6 -36 11 l-25
23 30 25 c34 29 39 58 9 50 -11 -3 -22 -2 -25 2 -6 11 56 67 83 76 25 7 29 -6
7 -25 -12 -10 -13 -16 -4 -26 16 -20 32 -17 47 7 10 16 20 20 42 16 38 -8 53
11 44 57 -6 34 -5 36 20 36 21 0 26 -5 26 -23z m7358 -135 c4 -29 20 -28 24 1
2 16 10 22 28 22 21 0 26 -5 28 -33 l3 -33 -58 3 c-60 3 -74 16 -59 54 8 22
30 12 34 -14z m6 -119 c6 -15 8 -14 20 2 16 22 46 14 46 -13 0 -31 -24 -43
-77 -40 -42 3 -48 6 -45 23 8 42 44 61 56 28z m-819 -33 c3 -5 24 -10 45 -10
31 0 43 -5 56 -26 21 -31 12 -40 -48 -49 -46 -7 -47 -7 -56 26 -5 19 -13 42
-17 52 -8 18 9 24 20 7z m-4489 -215 c-14 -11 -46 -15 -110 -15 -50 0 -118 -4
-150 -10 -33 -5 -62 -8 -64 -6 -2 3 1 14 8 25 10 20 19 21 173 21 145 -1 160
-2 143 -15z m-1710 -257 c14 -12 24 -14 37 -7 13 8 17 6 17 -5 0 -9 -12 -18
-27 -22 -45 -10 -50 -12 -21 -13 35 -1 48 -21 14 -21 -15 0 -31 -8 -38 -19 -9
-16 -16 -17 -31 -9 -20 10 -37 -2 -37 -29 0 -19 -17 -24 -55 -17 -41 7 -48 34
-10 34 14 0 25 5 25 10 0 6 -7 10 -15 10 -9 0 -12 6 -9 15 9 24 -39 64 -69 58
-14 -3 -28 0 -31 6 -5 7 9 11 41 12 26 0 57 4 67 8 35 14 123 7 142 -11z"/>
<path d="M587 1113 c-17 -17 -6 -34 20 -31 36 4 45 38 10 38 -13 0 -27 -3 -30
-7z"/>
<path d="M11695 3320 l-28 -29 27 -11 c33 -12 29 -12 61 0 l26 10 -21 30 c-12
17 -25 30 -29 30 -4 0 -20 -13 -36 -30z"/>
<path d="M18 2279 c-17 -9 -17 -12 -1 -35 13 -21 18 -23 25 -11 4 9 5 24 1 35
-6 16 -12 18 -25 11z"/>
<path d="M123 2283 c-16 -6 -17 -49 -2 -58 6 -4 16 1 23 10 12 16 13 16 19 1
4 -9 12 -16 19 -16 8 0 22 -9 31 -21 15 -17 21 -18 33 -8 14 12 14 14 0 25
-23 16 -20 33 9 44 47 18 27 30 -47 29 -40 0 -79 -3 -85 -6z"/>
<path d="M345 2265 c-16 -7 -25 -14 -20 -15 10 -2 115 -2 125 0 7 1 -60 30
-69 30 -3 -1 -19 -7 -36 -15z"/>
<path d="M1010 2199 c0 -17 8 -19 85 -19 74 0 85 2 85 18 0 15 -11 17 -85 19
-78 1 -85 0 -85 -18z"/>
</g>
</svg>
