<?xml version="1.0" encoding="UTF-8" standalone="no"?>
<svg
   xmlns:dc="http://purl.org/dc/elements/1.1/"
   xmlns:cc="http://creativecommons.org/ns#"
   xmlns:rdf="http://www.w3.org/1999/02/22-rdf-syntax-ns#"
   xmlns:svg="http://www.w3.org/2000/svg"
   xmlns="http://www.w3.org/2000/svg"
   xmlns:xlink="http://www.w3.org/1999/xlink"
   xmlns:sodipodi="http://sodipodi.sourceforge.net/DTD/sodipodi-0.dtd"
   xmlns:inkscape="http://www.inkscape.org/namespaces/inkscape"
   width="640"
   height="480"
   enable-background="new"
   inkscape:export-filename="C:\Users\Dale\Documents\Websites\www.cjmoseley.dev.cc\wp-content\plugins\t13ne\images\type\hitch.png"
   inkscape:export-xdpi="96"
   inkscape:export-ydpi="96"
   inkscape:version="0.92.4 (5da689c313, 2019-01-14)"
   preserveAspectRatio="none"
   sodipodi:docname="hitch.svg"
   version="1.1"
   viewBox="0 0 169.33 127"
   id="svg14561">
  <metadata
     id="metadata14563">
    <rdf:RDF>
      <cc:Work
         rdf:about="">
        <dc:format>image/svg+xml</dc:format>
        <dc:type
           rdf:resource="http://purl.org/dc/dcmitype/StillImage" />
      </cc:Work>
    </rdf:RDF>
  </metadata>
  <defs
     id="defs14346">
    <linearGradient
       id="t13ne-c"
       inkscape:collect="always">
      <stop
         offset="0"
         id="stop14315" />
      <stop
         stop-color="#e6e6e6"
         offset="1"
         id="stop14317" />
    </linearGradient>
    <filter
       id="t13ne-a"
       x="-.25"
       y="-.25"
       width="1.5"
       height="1.5"
       color-interpolation-filters="sRGB"
       inkscape:label="Matte Bevel"
       inkscape:menu="Bevels"
       inkscape:menu-tooltip="Soft, pastel-colored, blurry bevel">
      <feGaussianBlur
         result="result6"
         stdDeviation="1"
         id="feGaussianBlur14320" />
      <feComposite
         in="result6"
         in2="result6"
         operator="in"
         result="result7"
         id="feComposite14322" />
      <feGaussianBlur
         in="result7"
         result="result3"
         stdDeviation="8"
         id="feGaussianBlur14324" />
      <feComposite
         in2="result7"
         result="result91"
         id="feComposite14326" />
      <feComposite
         in="result3"
         in2="result91"
         operator="in"
         result="result5"
         id="feComposite14328" />
      <feColorMatrix
         result="result4"
         values="0 0 0 -1 0 0 0 0 -1 0 0 0 0 -1 0 0 0 0 1 0 "
         id="feColorMatrix14330" />
      <feSpecularLighting
         in="result4"
         result="result11"
         specularConstant="2"
         specularExponent="45"
         surfaceScale="3"
         id="feSpecularLighting14334">
        <fePointLight
           x="-5000"
           y="-10000"
           z="20000"
           id="fePointLight14332" />
      </feSpecularLighting>
      <feComposite
         in2="result4"
         k1="1"
         operator="arithmetic"
         result="result10"
         id="feComposite14336" />
      <feComposite
         in="result5"
         in2="result10"
         k2="0.5"
         k3="1"
         operator="arithmetic"
         result="result8"
         id="feComposite14338" />
      <feComposite
         in2="result8"
         result="result9"
         id="feComposite14340" />
      <feBlend
         in2="result9"
         id="feBlend14342" />
    </filter>
    <radialGradient
       id="t13ne-b"
       cx="5235.9"
       cy="2507.8"
       r="6360.9"
       gradientTransform="matrix(.0096047 1.686 -1.5116 .0076748 8976.3 -7995.7)"
       gradientUnits="userSpaceOnUse"
       xlink:href="#t13ne-c"
       inkscape:collect="always" />
  </defs>
  <sodipodi:namedview
     id="base"
     width="1048mm"
     bordercolor="#666666"
     borderopacity="1.0"
     inkscape:current-layer="g14559"
     inkscape:cx="329.75622"
     inkscape:cy="425.91857"
     inkscape:document-units="mm"
     inkscape:pagecheckerboard="true"
     inkscape:pageopacity="0.0"
     inkscape:pageshadow="2"
     inkscape:window-height="837"
     inkscape:window-maximized="1"
     inkscape:window-width="1440"
     inkscape:window-x="-8"
     inkscape:window-y="-8"
     inkscape:zoom="0.67660687"
     pagecolor="#ffffff"
     showgrid="false"
     units="px" />
  <g
     transform="translate(0,-170)"
     opacity=".303"
     stroke="#fff"
     inkscape:groupmode="layer"
     inkscape:label="Layer 1"
     id="g14559">
    <g
       fill="url(#t13ne-b)"
       stroke="none"
       id="g14361">
      <path
         transform="matrix(.007327 0 0 -.0077632 62.456 299.83)"
         d="m5521 11464c0-11 3-14 6-6 3 7 2 16-1 19-3 4-6-2-5-13z"
         filter="url(#t13ne-a)"
         inkscape:connector-curvature="0"
         id="path14349" />
      <path
         transform="matrix(.007327 0 0 -.0077632 62.456 299.83)"
         d="m4925 10780c10-11 20-20 23-20s-3 9-13 20-20 20-23 20 3-9 13-20z"
         filter="url(#t13ne-a)"
         inkscape:connector-curvature="0"
         id="path14351" />
      <path
         transform="matrix(.007327 0 0 -.0077632 62.456 299.83)"
         d="m5808 10663c6-2 18-2 25 0 6 3 1 5-13 5s-19-2-12-5z"
         filter="url(#t13ne-a)"
         inkscape:connector-curvature="0"
         id="path14353" />
      <path
         transform="matrix(.007327 0 0 -.0077632 62.456 299.83)"
         d="m5790 10600c-8-5-10-10-5-10 6 0 17 5 25 10s11 10 5 10c-5 0-17-5-25-10z"
         filter="url(#t13ne-a)"
         inkscape:connector-curvature="0"
         id="path14355" />
      <path
         transform="matrix(.007327 0 0 -.0077632 62.456 299.83)"
         d="m4531 974c0-11 3-14 6-6 3 7 2 16-1 19-3 4-6-2-5-13z"
         filter="url(#t13ne-a)"
         inkscape:connector-curvature="0"
         id="path14357" />
      <path
         transform="matrix(.007327 0 0 -.0077632 62.456 299.83)"
         d="m4560 966c0-2 7-7 16-10 8-3 12-2 9 4-6 10-25 14-25 6z"
         filter="url(#t13ne-a)"
         inkscape:connector-curvature="0"
         id="path14359" />
    </g>
    <path
       d="m 92.562471,191.62005 1.619193,21.28541 0.237084,4.73756 1.026686,3.15912 -0.434383,8.64834 0.670655,9.99009 -0.947523,14.61053 c -0.394802,8.01562 -0.987105,14.33365 -1.816493,18.95408 l -0.750021,11.4506 -0.710439,19.86287 c -0.237084,1.18444 0.789603,2.21055 3.039869,3.03996 1.935643,0.75004 4.304654,1.22422 7.187011,1.5011 2.84257,0.27586 5.52803,-0.0398 8.01538,-0.94836 2.84338,-1.0657 4.22529,-2.52701 4.18571,-4.4619 0.67167,-3.43498 1.02688,-5.9628 1.02688,-7.54225 l 0.27586,-7.46309 1.57941,-10.42449 1.02689,-9.5555 1.14482,-10.18842 0.5923,-9.55549 c 0.0794,-2.80369 -0.15772,-5.5282 -0.71044,-8.25272 l 0.27687,-5.88363 c -0.11895,-1.22423 -0.43458,-2.44845 -1.02689,-3.63309 l 0.55272,-16.11062 c -0.0794,-6.5947 -0.51314,-11.88601 -1.26397,-15.87434 l -0.71044,-14.8468 -1.85607,-15.3216 c -0.27606,-0.39502 -0.67086,-1.14506 -1.22358,-2.21075 -0.67147,-0.90878 -1.61899,-1.57946 -2.84338,-1.97447 -3.15882,-1.02672 -6.397,-1.38195 -9.71374,-1.0663 -3.751123,0.35523 -6.870561,1.53967 -9.279357,3.55372 -1.065659,1.38215 -1.737126,2.7643 -2.013182,4.10667 1.302743,3.51414 2.250266,10.30635 2.84257,20.41459"
       inkscape:connector-curvature="0"
       id="path14363"
       style="fill:#303030;fill-rule:evenodd;stroke:none;stroke-width:0.20298578" />
    <g
       id="g14371"
       style="fill:#800000;fill-rule:evenodd;stroke:none"
       transform="matrix(0,-0.20298884,-0.20298271,0,186.95958,317.38991)">
      <path
         d="m 272.74,350.27 c 7.196,-4.085 17.895,-5.64 32.485,-4.668 -6.614,6.223 -13.813,16.145 -21.399,29.958 l -19.453,36.96 c -15.754,28.985 -30.344,42.602 -43.77,40.461 20.426,-54.468 37.934,-88.703 52.137,-102.71"
         inkscape:connector-curvature="0"
         id="path14365"
         style="fill:#800000" />
      <path
         d="m 357.36,344.44 c -8.172,6.417 -19.648,21.203 -34.433,43.964 -15.758,24.317 -28.403,41.239 -38.321,50.578 -4.086,3.11 -9.535,5.446 -16.343,6.809 l -8.754,1.164 c 3.308,-4.863 12.453,-21.98 27.043,-50.965 10.89,-21.593 21.785,-36.765 32.875,-45.324 6.418,-5.254 13.808,-7.976 22.562,-8.562 6.617,-0.387 11.672,0.39 15.371,2.336"
         inkscape:connector-curvature="0"
         id="path14367"
         style="fill:#800000" />
      <path
         d="m 401.72,346.58 c -8.559,8.363 -21.203,24.121 -38.129,46.883 -14.59,20.035 -28.207,35.012 -40.461,44.547 -3.309,3.109 -7.199,4.863 -11.477,5.445 l -10.894,-1.363 c 10.504,-11.477 24.898,-32.875 43.379,-64 17.898,-24.508 37.156,-35.016 57.582,-31.512"
         inkscape:connector-curvature="0"
         id="path14369"
         style="fill:#800000" />
    </g>
    <path
       d="m 116.41294,225.06653 c -1.61899,2.05282 -4.81678,4.89629 -9.67416,8.56836 -4.34342,3.27786 -7.383493,6.39719 -9.160404,9.3588 l -0.276665,2.88224 0.276665,1.30359 c 1.263162,-1.18464 3.277154,-2.68554 6.001594,-4.54106 3.27776,-2.17178 5.40989,-3.67288 6.47555,-4.54107 4.81759,-3.8306 6.94972,-8.17436 6.35742,-13.03086"
       inkscape:connector-curvature="0"
       id="path14373"
       style="fill:#dbdada;fill-rule:evenodd;stroke:none;stroke-width:0.20298578" />
    <g
       id="g14401"
       style="fill:#800000;fill-rule:evenodd;stroke:none"
       transform="matrix(0,-0.20298884,-0.20298271,0,186.95958,317.38991)">
      <path
         d="m 433.04,390.73 c 15.367,-21.203 31.707,-35.402 48.824,-42.601 l 9.34,-1.36 c 2.528,0 5.059,0.973 7.196,3.11 -5.641,6.031 -13.032,15.562 -21.786,28.988 l -21.398,31.125 c -18.481,23.149 -39.492,33.457 -63.223,30.93 7.196,-6.227 14.59,-14.203 22.176,-24.125 L 433.04,390.73"
         inkscape:connector-curvature="0"
         id="path14375"
         style="fill:#800000" />
      <path
         d="m 530.3,347.75 c 6.422,-0.781 12.644,0.387 18.48,3.695 -17.507,24.704 -32.484,43.965 -44.933,57.774 -23.149,25.484 -46.106,36.961 -68.864,34.433 6.809,-5.835 23.344,-25.289 49.411,-58.164 19.453,-24.707 34.82,-37.156 45.906,-37.738"
         inkscape:connector-curvature="0"
         id="path14377"
         style="fill:#800000" />
      <path
         d="m 599.16,352.22 -21.012,24.707 c -11.476,13.422 -19.257,24.508 -23.73,33.07 -23.152,27.039 -44.356,38.711 -64,35.012 7.973,-6.028 16.535,-14.977 25.285,-27.039 l 21.789,-31.125 c 18.09,-24.317 38.516,-35.793 61.668,-34.625"
         inkscape:connector-curvature="0"
         id="path14379"
         style="fill:#800000" />
      <path
         d="m 621.14,387.82 -22.762,31.321 c -8.945,11.476 -17.699,19.453 -26.453,23.926 -11.09,5.835 -23.93,7.199 -38.129,4.281 l 22.758,-20.035 c 4.476,-3.309 10.312,-10.313 17.507,-21.012 9.922,-14.781 16.344,-24.121 19.454,-28.012 17.507,-21.594 35.601,-27.039 54.273,-16.34 -8.559,5.254 -17.508,14.008 -26.648,25.871"
         inkscape:connector-curvature="0"
         id="path14381"
         style="fill:#800000" />
      <path
         d="m 615.5,452.6 -19.453,1.945 -14.785,-0.391 c 6.226,-5.64 14.007,-14.199 23.148,-25.289 10.504,-12.644 18.09,-21.203 22.566,-25.675 -1.75,4.472 -2.917,13.226 -3.695,25.871 -0.586,10.308 -3.113,18.285 -7.781,23.539"
         inkscape:connector-curvature="0"
         id="path14383"
         style="fill:#800000" />
      <path
         d="m 636.32,442.28 5.254,-28.012 c 2.332,-12.253 5.641,-21.203 9.727,-27.234 l -11.867,59.723 -3.114,-4.477"
         inkscape:connector-curvature="0"
         id="path14385"
         style="fill:#800000" />
      <path
         d="m 663.75,399.68 c -0.195,8.754 -1.363,17.898 -3.113,27.429 -1.945,9.922 -4.278,18.09 -7.195,24.121 0.191,-7.976 0.972,-16.73 2.722,-25.871 1.75,-9.34 4.278,-17.898 7.586,-25.679"
         inkscape:connector-curvature="0"
         id="path14387"
         style="fill:#800000" />
      <path
         d="m 748.17,395.79 c 1.363,17.312 0.195,30.93 -3.309,41.242 -4.472,13.031 -13.613,22.953 -27.23,29.762 l -30.543,-4.668 c 15.172,-10.699 26.844,-20.039 35.211,-28.402 11.863,-11.868 20.617,-24.512 25.871,-37.934"
         inkscape:connector-curvature="0"
         id="path14389"
         style="fill:#800000" />
      <path
         d="m 670.94,446.76 c 6.809,-24.903 11.477,-40.074 13.809,-45.328 7.59,-16.922 19.066,-28.399 34.238,-34.43 12.645,2.332 18.285,7.586 17.313,15.562 -6.809,15.758 -14.59,28.789 -23.344,39.098 -10.699,12.645 -23.535,22.762 -38.516,29.961 l -3.5,-4.863"
         inkscape:connector-curvature="0"
         id="path14391"
         style="fill:#800000" />
      <path
         d="m 679.7,367.98 c 5.446,-4.086 11.864,-5.059 19.453,-2.723 l -18.675,19.453 c -2.918,-1.754 -3.891,-4.477 -2.918,-7.977 l 2.14,-8.753"
         inkscape:connector-curvature="0"
         id="path14393"
         style="fill:#800000" />
      <path
         d="m 67.707,374.01 c 4.277,-2.918 13.031,-5.645 26.262,-8.172 l 27.429,-3.5 c -9.921,11.086 -20.425,31.707 -31.32,61.859 -9.34,25.871 -16.73,39.293 -21.984,40.266 -8.946,-7.391 -13.422,-22.176 -13.227,-44.156 0.196,-21.594 4.477,-36.961 12.84,-46.297"
         inkscape:connector-curvature="0"
         id="path14395"
         style="fill:#800000" />
      <path
         d="m 132.88,372.06 c 6.223,-5.645 12.84,-9.34 20.035,-10.895 5.641,-1.363 10.313,-1.363 13.617,0.195 -4.277,5.641 -14.199,23.149 -29.566,52.524 -12.645,24.312 -22.566,38.711 -29.57,43.183 -2.141,1.946 -5.641,3.5 -10.504,4.864 l -6.809,1.363 c 4.277,-10.313 9.727,-26.262 16.34,-48.246 6.809,-18.867 15.758,-33.071 26.457,-42.988"
         inkscape:connector-curvature="0"
         id="path14397"
         style="fill:#800000" />
      <path
         d="m 161.28,392.88 c 14.2,-26.262 32.68,-41.047 55.438,-44.156 l -15.754,28.011 c -8.563,15.368 -14.203,27.817 -16.926,36.961 -13.812,29.762 -34.43,44.547 -62.055,44.547 7.586,-7.586 14.981,-18.093 22.176,-31.32 L 161.28,392.88"
         inkscape:connector-curvature="0"
         id="path14399"
         style="fill:#800000" />
    </g>
    <path
       d="m 97.103194,280.70374 c 1.816492,-1.22423 3.988406,-2.40887 6.515336,-3.51496 l 5.72554,-2.36928 c 3.90904,-1.85532 6.27825,-4.81693 7.14722,-8.96318 l -5.88345,2.7641 c -3.1984,1.53987 -5.76512,2.48743 -7.69975,2.92202 -1.97441,0.90777 -3.711535,2.09241 -5.252174,3.51415 -2.407984,2.17178 -3.671957,4.58085 -3.86946,7.14744 0.118136,0.55274 0.552722,0.51295 1.38211,-0.0794 l 1.934628,-1.42092"
       inkscape:connector-curvature="0"
       id="path14403"
       style="fill:#dbdada;fill-rule:evenodd;stroke:none;stroke-width:0.20298578" />
    <path
       d="m 54.813776,263.88205 -0.474167,-3.79081 c 0.276868,-1.61925 0.829387,-2.68494 1.579611,-3.1987 0.671467,-0.43379 1.856074,-0.55274 3.474455,-0.39502 l 10.701046,0.67169 3.790702,0.35523 13.504033,1.5011 c 5.489262,0.6311 10.937927,0.98633 16.386794,1.02591 l 8.56892,0.27688 c 3.07965,-0.0398 5.21178,-0.47419 6.39639,-1.30279 v -3.3962 l 2.60629,0.11814 c 1.93463,0.31646 3.27777,1.10608 4.02779,2.3297 0.98731,1.69841 1.34253,3.55373 1.06566,5.56778 -0.27585,2.40907 -1.46046,4.06709 -3.55362,4.97566 -1.57961,0.98714 -3.67196,1.50029 -6.31784,1.61925 l -6.3568,-0.0398 c -6.63409,0.11814 -12.596097,-0.19731 -17.926626,-0.98714 L 80.00596,268.06788 c -4.620292,-0.55334 -7.93703,-1.10608 -10.029375,-1.61903 l -7.424093,-0.0794 -5.606585,-0.71046 c -1.105241,-0.31626 -1.816493,-0.90858 -2.132131,-1.77697"
       inkscape:connector-curvature="0"
       id="path14405"
       style="fill:#303030;fill-rule:evenodd;stroke:none;stroke-width:0.20298578" />
    <g
       id="g14437"
       style="fill:#deaa87;fill-rule:evenodd;stroke:none"
       transform="matrix(0,-0.20298884,-0.20298271,0,186.95958,317.38991)">
      <path
         d="m 285.39,609.97 c -1.75,-2.532 -6.422,-7.395 -14.203,-14.981 -6.809,-6.418 -11.477,-12.449 -13.809,-17.703 -2.727,14.395 -1.945,23.539 2.137,27.234 2.531,1.946 6.808,3.309 12.453,4.086 l 13.422,1.364"
         inkscape:connector-curvature="0"
         id="path14407"
         style="fill:#deaa87" />
      <path
         d="m 285.77,621.45 c -2.918,2.141 -6.222,2.918 -9.531,2.332 -2.14,-0.191 -5.445,-1.554 -9.922,-3.89 l 9.145,1.754 10.308,-0.196"
         inkscape:connector-curvature="0"
         id="path14409"
         style="fill:#deaa87" />
      <path
         d="m 281.88,644.98 c 0.586,-2.527 2.531,-5.054 5.449,-7.39 3.109,-2.528 5.055,-4.864 5.836,-7.391 1.75,3.305 1.359,6.809 -1.363,10.891 -2.723,4.086 -6.032,5.449 -9.922,3.89"
         inkscape:connector-curvature="0"
         id="path14411"
         style="fill:#deaa87" />
      <path
         d="m 263.99,643.82 -3.504,-4.672 c -0.582,-1.359 -0.777,-3.109 -0.386,-5.25 l 3.304,-2.918 4.672,-2.917 8.946,1.363 8.171,-0.196 -6.613,11.672 c -3.695,4.082 -8.558,5.055 -14.59,2.918"
         inkscape:connector-curvature="0"
         id="path14413"
         style="fill:#deaa87" />
      <path
         d="m 291.03,614.06 c -6.418,2.918 -12.062,3.89 -17.312,3.308 -3.891,-0.582 -7.977,-1.945 -12.063,-4.281 l 10.118,2.531 19.257,-1.558"
         inkscape:connector-curvature="0"
         id="path14415"
         style="fill:#deaa87" />
      <path
         d="m 247.45,507.65 1.555,15.172 c 1.363,7.395 3.308,12.84 5.64,16.149 l 14.204,14.004 c 8.949,8.367 14.976,14.59 17.894,18.675 2.336,-4.863 2.918,-10.117 1.75,-15.757 -0.973,-4.864 -3.5,-10.7 -7.391,-17.313 -8.363,-9.144 -19.648,-19.453 -33.652,-30.93"
         inkscape:connector-curvature="0"
         id="path14417"
         style="fill:#deaa87" />
      <path
         d="m 251.34,545.19 c 0,3.696 0.582,8.172 1.945,13.422 1.75,6.227 3.695,11.09 6.223,14.399 2.531,4.277 7.59,10.308 15.176,18.09 l 15.949,17.898 c 2.336,-4.863 2.918,-10.117 1.75,-15.758 -0.973,-4.863 -3.5,-10.504 -7.196,-17.121 -8.753,-9.141 -20.035,-19.453 -33.847,-30.93"
         inkscape:connector-curvature="0"
         id="path14419"
         style="fill:#deaa87" />
      <path
         d="m 238.11,362.34 c -0.777,6.613 -0.191,12.836 1.754,18.48 1.36,3.891 3.305,7 5.641,9.532 5.25,4.086 15.758,13.812 31.902,28.984 1.363,-14.785 -3.113,-27.039 -13.422,-36.766 -5.64,-5.253 -14.394,-12.062 -25.875,-20.23"
         inkscape:connector-curvature="0"
         id="path14421"
         style="fill:#deaa87" />
      <path
         d="m 253.68,467.38 25.875,25.098 c 3.89,-9.922 0.972,-21.207 -8.949,-33.852 -4.864,-6.223 -14.786,-16.145 -29.957,-29.762 -0.973,14.981 3.304,27.817 13.031,38.516"
         inkscape:connector-curvature="0"
         id="path14423"
         style="fill:#deaa87" />
      <path
         d="m 276.83,457.85 c 2.918,-13.813 0,-26.457 -8.949,-37.543 L 239.088,394.24 c -2.137,11.672 1.754,23.344 12.062,34.821 12.84,12.254 21.399,21.785 25.68,28.789"
         inkscape:connector-curvature="0"
         id="path14425"
         style="fill:#deaa87" />
      <path
         d="m 258.73,480.8 c -5.64,-4.672 -9.531,-8.563 -11.867,-11.672 -2.527,5.64 -2.918,11.863 -1.164,18.672 1.164,5.058 2.918,9.144 5.25,12.258 8.754,11.281 20.426,23.148 34.82,35.597 0.586,-17.703 -3.89,-31.902 -13.808,-42.797 -2.531,-2.527 -6.809,-6.418 -13.231,-12.058"
         inkscape:connector-curvature="0"
         id="path14427"
         style="fill:#deaa87" />
      <path
         d="m 274.1,360.58 c -3.305,-5.055 -8.364,-9.141 -15.563,-12.254 -8.754,-3.695 -15.172,-7.39 -19.258,-10.894 l 0.586,12.449 c 0.582,3.504 1.946,6.422 4.278,8.949 l 14.785,12.063 c 7.586,5.25 13.617,10.503 18.285,15.562 l -0.973,-14.008 c -0.582,-6.222 -1.168,-10.113 -2.14,-11.867"
         inkscape:connector-curvature="0"
         id="path14429"
         style="fill:#deaa87" />
      <path
         d="m 249.98,313.12 c 3.309,-3.695 7.782,-5.836 13.422,-6.613 12.258,-2.141 19.262,6.809 20.621,26.844 -7.976,-7 -14.199,-11.477 -18.867,-13.422 -4.672,-1.946 -10.508,-2.528 -17.316,-1.75 -1.75,0.195 -1.164,-1.363 2.14,-5.059"
         inkscape:connector-curvature="0"
         id="path14431"
         style="fill:#deaa87" />
      <path
         d="m 292,336.85 -5.445,0.386 0.968,-12.449 c -0.968,-9.141 -5.25,-16.34 -12.835,-21.398 2.917,0.586 6.613,2.14 11.085,4.668 5.641,3.308 9.34,6.421 10.7,9.339 1.945,6.418 1.75,11.672 -0.387,15.368 L 292,336.85"
         inkscape:connector-curvature="0"
         id="path14433"
         style="fill:#deaa87" />
      <path
         d="m 279.55,337.82 c 0,2.141 -0.973,7.004 -2.918,14.977 -6.031,-4.863 -13.035,-9.336 -21.203,-13.031 -7.782,-3.504 -13.231,-6.614 -16.344,-9.34 1.945,-4.082 4.281,-6.809 7.004,-7.973 2.723,-1.363 6.226,-1.363 10.699,0 13.231,3.695 20.816,8.945 22.762,15.367"
         inkscape:connector-curvature="0"
         id="path14435"
         style="fill:#deaa87" />
    </g>
    <path
       d="m 87.863421,197.42554 c 1.737126,-1.10548 3.435482,-1.89511 5.053863,-2.36929 l 0.356032,10.34614 0.473356,3.23747 c 0.434586,1.22422 1.382109,2.56659 2.843382,3.98832 1.263161,0.82941 3.079653,1.81675 5.448866,2.96161 l 3.15882,1.4605 c 5.7304,3.6199 12.43188,4.93202 18.83537,6.832 l 8.33102,2.52701 9.51644,2.25114 c 3.51404,0.90777 5.92304,1.57946 7.18599,2.05283 2.48817,0.31646 6.83159,1.34236 12.95213,3.08056 5.64617,1.61843 9.39749,2.80287 11.1744,3.55311 l 0.23708,4.66002 c -0.43458,3.27705 -1.30355,5.60675 -2.60629,7.02849 -2.014,-0.31565 -4.73843,-1.14506 -8.09475,-2.44784 -3.23737,-1.22423 -5.09365,-1.89592 -5.60659,-1.9355 l -17.92682,-4.38253 c -5.13323,-1.22423 -8.29205,-1.97427 -9.47666,-2.29073 l -5.56781,-1.73738 c -1.53983,-0.4344 -2.84338,-0.67068 -3.98821,-0.78963 l -2.84257,-0.35523 c -0.7898,-0.11814 -1.5794,-0.35523 -2.40879,-0.67169 -1.22439,-0.55254 -2.44858,-0.94755 -3.75132,-1.22341 -1.69836,-0.35605 -3.04069,-0.71128 -4.10634,-1.02692 -1.34334,-0.47419 -3.27797,-1.38195 -5.84449,-2.7641 -6.515335,-3.47537 -11.253763,-6.23947 -14.215281,-8.2923 -2.092346,-1.46152 -3.632173,-3.71185 -4.540926,-6.75263 -0.828576,-2.80388 -1.025875,-5.7257 -0.552519,-8.80545 0.513749,-3.1987 2.487959,-5.92321 5.962617,-8.13457"
       inkscape:connector-curvature="0"
       id="path14439"
       style="fill:#303030;fill-rule:evenodd;stroke:none;stroke-width:0.20298578" />
    <g
       id="g14459"
       style="fill:#784421;fill-rule:evenodd;stroke:none"
       transform="matrix(0,-0.20298884,-0.20298271,0,186.95958,317.38991)">
      <path
         d="m 447.62,401.24 20.426,3.891 c 8.754,1.75 15.754,4.277 21.008,7.972 -0.973,-5.835 -3.5,-11.281 -7.2,-16.535 l -9.14,-10.504 c -7.977,-5.64 -17.703,-10.308 -29.571,-13.617 -11.281,-3.304 -19.062,-6.613 -23.343,-9.922 3.504,21.399 12.84,34.239 27.82,38.715"
         inkscape:connector-curvature="0"
         id="path14441"
         style="fill:#784421" />
      <path
         d="m 437.12,332.96 -14.781,-6.227 c -5.254,-2.722 -9.922,-5.836 -13.617,-9.14 0.386,12.644 3.304,22.371 8.558,29.179 l 10.114,-6.617 c 6.617,-4.668 9.922,-7 9.726,-7.195"
         inkscape:connector-curvature="0"
         id="path14443"
         style="fill:#784421" />
      <path
         d="m 515.32,452.79 c -4.863,-6.809 -14.785,-10.891 -29.375,-12.644 l -39.101,-4.082 c 4.672,12.644 15.371,20.035 31.906,22.175 9.336,1.168 23.535,1.555 42.406,0.973 l -3.89,-4.086 -1.946,-2.336"
         inkscape:connector-curvature="0"
         id="path14445"
         style="fill:#784421" />
      <path
         d="m 534,495.2 15.367,-23.539 c -3.113,-1.168 -6.808,-0.582 -10.894,1.555 l -12.84,7.976 c -13.227,8.172 -27.621,10.7 -43.184,7.586 2.723,5.45 6.614,9.922 11.868,13.618 5.445,3.699 11.085,5.644 16.921,5.835 9.532,-1.359 17.118,-5.64 22.762,-13.031"
         inkscape:connector-curvature="0"
         id="path14447"
         style="fill:#784421" />
      <path
         d="m 559.67,490.92 -0.777,-21.785 c -3.309,2.722 -7.586,9.14 -13.227,19.062 -5.059,9.145 -11.48,16.34 -19.262,21.789 4.477,2.137 9.145,3.11 14.008,2.723 5.254,-0.391 9.727,-1.945 13.813,-4.863 3.5,-4.668 5.25,-10.313 5.445,-16.926"
         inkscape:connector-curvature="0"
         id="path14449"
         style="fill:#784421" />
      <path
         d="m 578.35,490.34 c -0.196,-4.086 -1.75,-7.977 -4.864,-11.672 l -10.308,-11.672 2.722,16.145 c 1.168,7.004 0.778,13.812 -1.363,20.23 3.309,-0.582 6.227,-2.137 8.559,-4.472 2.531,-2.528 4.281,-5.254 5.254,-8.559"
         inkscape:connector-curvature="0"
         id="path14451"
         style="fill:#784421" />
      <path
         d="m 564.73,465.05 9.922,5.641 c 2.918,2.527 6.223,6.808 10.114,13.226 l 4.086,-8.559 c 1.75,-3.695 2.722,-7.003 2.918,-10.308 h -27.04"
         inkscape:connector-curvature="0"
         id="path14453"
         style="fill:#784421" />
      <path
         d="m 508.9,465.05 c -17.898,1.555 -33.656,0.195 -47.273,-3.891 l 7.586,12.645 c 3.308,4.472 7.199,7.781 12.062,9.531 13.036,2.918 31.512,-2.141 55.442,-15.367 -4.086,-3.309 -13.231,-4.281 -27.817,-2.918"
         inkscape:connector-curvature="0"
         id="path14455"
         style="fill:#784421" />
      <path
         d="m 460.46,430.61 43.187,5.836 -2.918,-4.668 -1.554,-2.918 c -5.836,-7.976 -15.563,-13.422 -29.18,-16.34 l -36.379,-8.363 c 1.168,14.004 10.117,22.758 26.844,26.453"
         inkscape:connector-curvature="0"
         id="path14457"
         style="fill:#784421" />
    </g>
    <path
       d="m 83.481024,242.16428 c 1.303555,1.93468 3.395901,3.71165 6.199701,5.29131 4.383209,1.6984 9.160407,1.10608 14.333215,-1.6978 2.6063,-1.42174 4.73843,-3.00119 6.43598,-4.77816 1.69835,-2.05364 3.63318,-4.69878 5.76531,-7.89748 l 6.71264,-9.9901 c 2.32943,-4.85752 3.86926,-8.4898 4.65906,-10.93846 1.57941,-4.81692 1.77691,-8.41043 0.63189,-10.77972 -1.42169,-2.92202 -3.75112,-5.13338 -6.98849,-6.5947 l -4.46258,-1.38215 -0.0786,11.53078 c 0.23708,1.14486 -0.27667,3.23828 -1.53963,6.27824 -1.26397,3.04098 -3.04088,6.35782 -5.29196,9.9901 -2.05276,3.35642 -4.89614,6.79221 -8.48873,10.30655 -3.277972,3.23828 -5.291764,4.85732 -6.120339,4.81774 -0.395004,0 -0.592304,-0.59232 -0.592304,-1.73738 -0.03978,-1.22423 0.157718,-2.13281 0.670655,-2.72513 l 0.157921,-6.12072 -7.343915,-4.14605 c -1.93544,1.14567 -3.356319,2.25095 -4.225288,3.31745 -1.421691,1.81594 -2.251078,4.34376 -2.527134,7.58123 -0.316248,3.87018 0.395004,7.10785 2.092548,9.67445"
       inkscape:connector-curvature="0"
       id="path14461"
       style="fill:#303030;fill-rule:evenodd;stroke:none;stroke-width:0.20298578" />
    <g
       id="g14487"
       style="fill:#d38d5f;fill-rule:evenodd;stroke:none"
       transform="matrix(0,-0.20298884,-0.20298271,0,186.95958,317.38991)">
      <path
         d="m 586.91,342.88 c 2.723,-2.141 4.668,-4.086 5.641,-6.227 l 4.863,-12.449 c 4.477,6.809 6.809,13.227 7.395,19.453 L 586.91,342.88"
         inkscape:connector-curvature="0"
         id="path14463"
         style="fill:#d38d5f" />
      <path
         d="m 418.25,409.6 c 2.141,-8.558 2.141,-18.871 0,-30.734 -2.141,-11.672 -2.723,-19.844 -1.363,-24.316 -15.172,8.363 -22.176,20.035 -20.813,35.015 4.473,18.09 6.809,31.903 6.809,41.239 4.277,-2.528 7.781,-6.032 10.308,-10.504 l 5.059,-10.7"
         inkscape:connector-curvature="0"
         id="path14465"
         style="fill:#d38d5f" />
      <path
         d="m 441.79,389.38 c 2.332,-8.172 3.109,-17.898 2.137,-28.984 -0.582,-10.508 -0.192,-18.094 1.168,-22.567 -14.977,7.586 -22.176,18.676 -21.594,33.266 3.309,17.117 3.699,30.344 1.559,39.683 4.472,-2.531 8.168,-6.031 11.086,-10.503 l 5.644,-10.895"
         inkscape:connector-curvature="0"
         id="path14467"
         style="fill:#d38d5f" />
      <path
         d="m 449.57,391.12 c 7.586,-3.891 13.809,-11.477 18.868,-22.762 2.531,-8.363 3.503,-17.894 3.308,-28.593 -0.195,-10.118 0.582,-17.508 1.945,-21.985 -15.175,7.199 -23.148,18.094 -23.734,32.684 2.141,17.703 1.945,31.125 -0.387,40.656"
         inkscape:connector-curvature="0"
         id="path14469"
         style="fill:#d38d5f" />
      <path
         d="m 496.06,355.72 c 2.527,-8.364 4.085,-17.895 4.667,-28.985 0.391,-10.504 1.555,-18.285 3.309,-23.343 -14.98,4.086 -23.344,13.035 -25.289,26.847 0.387,17.508 -0.781,30.93 -3.309,40.266 l 13.227,-7.004 c 3.699,-2.332 6.031,-4.863 7.395,-7.781"
         inkscape:connector-curvature="0"
         id="path14471"
         style="fill:#d38d5f" />
      <path
         d="m 401.13,466.41 c -1.75,-2.136 -9.141,-5.445 -22.563,-9.918 -13.421,-4.476 -24.121,-11.285 -31.711,-20.234 -1.75,5.644 -2.332,11.09 -1.75,16.148 0.586,5.836 2.918,10.504 7.004,14.004 5.641,3.699 13.813,4.672 24.121,3.309 l 24.899,-3.309"
         inkscape:connector-curvature="0"
         id="path14473"
         style="fill:#d38d5f" />
      <path
         d="m 395.88,458.04 c 0.582,-3.309 -0.582,-7.199 -3.695,-11.477 L 381.29,434.696 c -10.894,-11.672 -15.953,-22.758 -14.98,-33.457 -2.918,2.137 -5.641,5.836 -8.559,11.086 -3.305,6.418 -4.863,11.672 -4.277,16.145 0.777,6.808 5.25,12.062 13.422,15.953 l 28.984,13.617"
         inkscape:connector-curvature="0"
         id="path14475"
         style="fill:#d38d5f" />
      <path
         d="m 398.22,444.82 c 1.941,-8.562 0.969,-18.871 -2.727,-30.738 -4.277,-13.031 -5.64,-26.262 -4.277,-39.488 l -12.063,10.308 c -4.668,4.282 -7.195,8.368 -7.781,12.063 -0.195,7.199 3.113,15.953 9.922,26.262 3.309,4.863 8.949,12.058 16.926,21.593"
         inkscape:connector-curvature="0"
         id="path14477"
         style="fill:#d38d5f" />
      <path
         d="m 522.32,345.8 c 4.473,-7.395 6.614,-15.758 6.809,-25.098 0.191,-14.199 0.387,-23.148 0.972,-26.453 l -12.257,5.641 c -4.086,2.14 -7.196,5.445 -9.532,10.113 -0.777,2.531 -1.168,9.34 -1.168,20.426 -0.191,8.949 -2.332,17.703 -6.418,26.261 l 12.84,-5.054 c 4.864,-1.946 7.782,-3.891 8.754,-5.836"
         inkscape:connector-curvature="0"
         id="path14479"
         style="fill:#d38d5f" />
      <path
         d="m 559.28,338.6 c 3.305,-10.504 4.473,-19.649 3.305,-27.235 -0.973,-7.199 -4.277,-13.812 -9.727,-20.23 l 11.477,0.777 c 3.504,1.559 6.422,3.504 8.754,6.031 5.254,7.586 5.254,16.34 -0.387,26.067 -4.477,7.781 -8.949,12.644 -13.422,14.59"
         inkscape:connector-curvature="0"
         id="path14481"
         style="fill:#d38d5f" />
      <path
         d="m 577.18,343.07 -14.004,1.364 11.476,-12.063 c 7.196,-10.113 10.309,-19.84 9.141,-29.371 2.918,3.305 4.863,6.418 6.227,9.726 2.335,6.028 1.554,12.645 -2.141,19.84 -1.359,3.114 -3.5,5.836 -6.418,8.172 l -4.281,2.332"
         inkscape:connector-curvature="0"
         id="path14483"
         style="fill:#d38d5f" />
      <path
         d="m 550.53,337.43 c -1.754,1.363 -4.863,2.531 -8.949,3.695 l -8.367,2.336 c 2.531,-10.895 4.086,-20.426 4.281,-28.598 l -0.582,-22.562 11.086,0.777 c 2.531,1.363 5.059,5.445 7.395,12.059 2.136,6.031 2.527,12.453 1.164,18.871 -1.164,5.64 -3.11,10.117 -6.028,13.422"
         inkscape:connector-curvature="0"
         id="path14485"
         style="fill:#d38d5f" />
    </g>
    <path
       d="m 114.55768,250.93136 c -3.51505,6.83098 -6.1997,11.49019 -7.97661,13.89906 -1.8167,2.52721 -3.90905,4.26439 -6.27826,5.17317 l -3.001099,0.59232 -0.829387,-0.0794 c -0.512938,-0.19751 -0.789806,-0.51295 -0.789806,-1.02692 -3.671957,-0.43359 -7.146412,-0.75005 -10.463759,-0.94755 v 2.56679 c 0.118745,3.31684 0.948132,5.80508 2.408796,7.50267 1.066471,1.26381 3.040681,2.52701 5.844481,3.79102 4.540926,1.263 9.279354,0.31545 14.214274,-2.80388 2.48816,-1.61904 4.50215,-3.31684 6.08156,-5.13339 l 2.44777,-3.23747 2.68546,-3.98853 c 0.86816,-1.0663 2.40799,-3.79081 4.65906,-8.21292 l 3.90904,-7.50267 1.8165,-3.75144 c 1.42169,-2.88305 2.68485,-5.33089 3.7909,-7.26639 1.61838,-3.00038 2.84257,-6.67326 3.75112,-11.05579 1.02608,-5.25234 0.82858,-9.04315 -0.63188,-11.37286 -1.77691,-2.88223 -3.79091,-4.77734 -5.96262,-5.60675 l -2.05358,-0.47418 -0.71044,0.0396 -3.82967,9.08233 c 1.02587,0.59232 1.65796,1.4605 1.93463,2.60617 0.11813,1.85552 -0.78981,5.17236 -2.64588,9.95052 l -2.84257,6.63367 -5.52803,10.62281"
       inkscape:connector-curvature="0"
       id="path14489"
       style="fill:#303030;fill-rule:evenodd;stroke:none;stroke-width:0.20298578" />
    <g
       id="g14525"
       style="fill:#d38d5f;fill-rule:evenodd;stroke:none"
       transform="matrix(0,-0.20298884,-0.20298271,0,186.95958,317.38991)">
      <path
         d="m 498.98,297.94 3.305,-7.39 5.449,-14.785 c 1.75,2.14 2.918,4.668 3.5,7.39 l 1.75,10.504 -14.004,4.281"
         inkscape:connector-curvature="0"
         id="path14491"
         style="fill:#d38d5f" />
      <path
         d="m 265.74,376.14 c 2.528,-7.586 3.696,-16.536 3.5,-26.844 -0.386,-9.922 0.196,-17.117 1.946,-21.203 -15.95,7.976 -23.731,18.675 -23.344,31.902 3.308,15.367 3.699,27.234 1.168,35.988 4.281,-2.336 7.976,-5.64 10.894,-9.922 1.75,-2.14 3.696,-5.445 5.836,-9.921"
         inkscape:connector-curvature="0"
         id="path14493"
         style="fill:#d38d5f" />
      <path
         d="m 290.83,359.42 c 3.309,-7.59 5.059,-16.344 5.445,-26.457 0.586,-9.922 1.754,-16.926 3.504,-21.012 -16.535,6.809 -25.093,17.121 -25.679,30.934 2.14,16.34 1.558,28.789 -1.555,37.152 4.281,-1.945 8.172,-5.25 11.672,-9.918 l 6.613,-10.699"
         inkscape:connector-curvature="0"
         id="path14495"
         style="fill:#d38d5f" />
      <path
         d="m 317.29,347.75 c 3.891,-7.781 6.418,-17.121 7.781,-28.207 1.168,-10.699 2.918,-18.285 5.059,-22.371 -16.149,4.863 -25.098,14.59 -27.234,28.789 0,17.703 -1.946,30.734 -5.645,39.488 4.863,-1.554 8.949,-4.277 12.645,-8.363 l 7.394,-9.336"
         inkscape:connector-curvature="0"
         id="path14497"
         style="fill:#d38d5f" />
      <path
         d="m 347.64,332.77 c 4.082,-7.586 6.808,-16.926 8.558,-27.817 1.36,-10.504 3.305,-17.898 5.641,-22.176 -16.34,4.473 -25.68,13.809 -28.012,28.012 -0.586,17.699 -2.918,30.735 -6.808,39.293 4.668,-1.359 8.949,-4.086 12.839,-7.781 l 7.782,-9.531"
         inkscape:connector-curvature="0"
         id="path14499"
         style="fill:#d38d5f" />
      <path
         d="m 378.95,316.23 c 4.281,-7.781 7.395,-17.312 9.145,-28.402 1.75,-11.086 3.89,-18.48 6.418,-22.562 -16.34,3.695 -26.262,13.031 -29.762,28.207 -1.75,18.476 -4.863,32.093 -8.949,40.847 8.367,-2.332 15.953,-8.363 23.148,-18.09"
         inkscape:connector-curvature="0"
         id="path14501"
         style="fill:#d38d5f" />
      <path
         d="m 398.8,312.34 8.168,-8.949 c 4.281,-7.782 7.59,-17.313 9.726,-28.399 2.141,-10.894 4.477,-18.289 7.004,-22.371 -14.199,1.945 -23.343,10.504 -27.425,25.676 -2.727,18.871 -6.227,32.68 -10.7,41.433 4.668,-1.164 9.141,-3.695 13.227,-7.39"
         inkscape:connector-curvature="0"
         id="path14503"
         style="fill:#d38d5f" />
      <path
         d="m 180.34,469.13 c 2.918,5.25 7.004,9.14 12.254,11.863 l 22.957,-0.777 c 4.277,-2.141 10.89,-6.223 20.035,-12.449 l -1.168,-6.809 -23.539,3.113 c -12.059,0.973 -23.731,-2.918 -35.012,-11.285 0.192,6.031 1.555,11.481 4.473,16.344"
         inkscape:connector-curvature="0"
         id="path14505"
         style="fill:#d38d5f" />
      <path
         d="m 239.28,493.64 c -0.972,-6.223 -1.554,-12.836 -1.75,-19.645 -10.699,7.973 -21.203,12.836 -31.515,14.59 4.863,6.027 13.035,8.168 24.707,6.027 l 4.472,-0.386 4.086,-0.586"
         inkscape:connector-curvature="0"
         id="path14507"
         style="fill:#d38d5f" />
      <path
         d="m 180.73,448.12 c 5.644,4.477 14.007,7.586 25.097,8.949 8.364,1.168 16.727,1.364 25.481,0.582 -1.75,-4.277 -9.336,-9.531 -22.371,-15.754 -14.2,-6.808 -24.121,-14.785 -30.153,-23.539 -2.332,5.446 -3.5,10.7 -3.5,15.563 0,5.836 1.75,10.504 5.446,14.199"
         inkscape:connector-curvature="0"
         id="path14509"
         style="fill:#d38d5f" />
      <path
         d="m 224.3,444.82 c 0.972,-3.308 0,-7.199 -2.532,-11.671 l -9.335,-12.84 c -9.34,-12.645 -13.036,-24.121 -11.286,-34.625 -2.918,1.75 -6.222,5.054 -9.726,10.308 -3.891,6.032 -5.641,11.09 -5.446,15.563 0.196,6.808 3.891,12.644 11.282,17.117 10.894,5.449 19.843,10.895 27.043,16.148"
         inkscape:connector-curvature="0"
         id="path14511"
         style="fill:#d38d5f" />
      <path
         d="m 225.66,429.44 c 2.723,-3.89 2.723,-11.672 -0.195,-23.148 -3.5,-14.395 -3.891,-28.399 -1.164,-41.824 l -10.895,7.781 c -3.695,2.918 -5.836,6.031 -6.808,9.535 -0.973,7.195 0.777,15.949 5.64,25.871 l 13.422,21.785"
         inkscape:connector-curvature="0"
         id="path14513"
         style="fill:#d38d5f" />
      <path
         d="m 238.11,406.88 c 5.059,-7.199 7.2,-16.34 6.617,-27.625 l -1.945,-31.125 c -11.09,4.668 -16.344,14.008 -15.562,28.207 3.304,16.73 5.25,28.793 5.836,36.183 l 5.054,-5.64"
         inkscape:connector-curvature="0"
         id="path14515"
         style="fill:#d38d5f" />
      <path
         d="m 435.76,298.34 c 5.058,-6.809 7.781,-14.981 7.976,-24.316 0.192,-13.426 0.778,-22.18 1.946,-26.457 l -11.09,4.277 c -2.918,1.558 -6.031,4.672 -8.949,9.144 -0.582,1.75 -2.332,9.336 -5.059,22.371 -2.137,10.309 -5.836,19.454 -10.699,27.817 l 14.98,-6.031 c 6.032,-2.528 9.727,-4.668 10.895,-6.805"
         inkscape:connector-curvature="0"
         id="path14517"
         style="fill:#d38d5f" />
      <path
         d="m 467.66,296.2 c 4.473,-10.117 6.613,-19.066 6.031,-26.847 -0.195,-7.196 -2.722,-14.2 -7.586,-21.008 3.5,-0.973 7.196,-0.391 11.282,1.75 l 7.976,6.808 c 4.473,7.977 3.5,16.731 -2.918,25.875 -5.058,7.391 -9.922,11.864 -14.785,13.422"
         inkscape:connector-curvature="0"
         id="path14519"
         style="fill:#d38d5f" />
      <path
         d="m 484,301.25 -8.168,-0.973 -3.699,-1.363 11.48,-11.09 c 7.391,-9.531 10.891,-19.062 10.7,-28.594 5.64,5.25 8.558,9.922 8.558,14.004 0.195,3.7 -2.336,9.727 -7.394,18.289 -2.723,4.864 -6.614,8.168 -11.477,9.727"
         inkscape:connector-curvature="0"
         id="path14521"
         style="fill:#d38d5f" />
      <path
         d="m 467.27,281.8 c -1.75,5.445 -4.278,9.726 -7.391,12.644 -1.945,0.973 -4.473,1.946 -7.586,2.528 l -7.199,1.168 c 1.75,-8.172 2.918,-17.508 3.504,-28.012 0.386,-9.922 1.164,-17.316 2.332,-21.789 5.254,-0.195 8.949,0.39 10.894,1.75 2.336,1.75 4.473,6.031 6.227,12.84 1.359,6.418 1.164,12.644 -0.781,18.871"
         inkscape:connector-curvature="0"
         id="path14523"
         style="fill:#d38d5f" />
    </g>
    <path
       d="m 94.813549,259.77559 -5.646979,-0.47418 0.948335,-0.86819 c 0.71044,-0.59232 1.342325,-1.0665 1.894844,-1.34338 0.869172,-0.47337 1.77691,-0.75004 2.764218,-0.86818 l 0.03958,3.55393"
       inkscape:connector-curvature="0"
       id="path14527"
       style="fill:#303030;fill-rule:evenodd;stroke:none;stroke-width:0.20298578" />
    <g
       id="g14553"
       style="fill:#a05a2c;fill-rule:evenodd;stroke:none"
       transform="matrix(0,-0.20298884,-0.20298271,0,186.95958,317.38991)">
      <path
         d="m 283.83,454.35 1.945,19.257 c 3.114,-2.14 5.45,-5.058 7.004,-8.753 1.364,-3.309 2.141,-7.004 1.946,-10.7 l -10.895,0.196"
         inkscape:connector-curvature="0"
         id="path14529"
         style="fill:#a05a2c" />
      <path
         d="m 420,492.09 7.004,-29.18 c -2.918,1.75 -5.836,4.864 -9.145,9.336 l -8.949,12.258 c -8.754,10.504 -21.394,16.145 -38.125,17.117 4.086,4.477 8.949,7.781 14.785,9.922 6.223,2.336 12.254,2.918 18.09,1.555 8.363,-3.5 13.813,-10.504 16.34,-21.008"
         inkscape:connector-curvature="0"
         id="path14531"
         style="fill:#a05a2c" />
      <path
         d="m 443.73,481.78 -9.726,-23.343 c -2.336,3.89 -3.891,12.449 -4.477,25.48 -0.777,12.453 -3.89,22.371 -9.531,29.961 4.863,0.582 9.531,0 14.199,-2.141 4.672,-2.14 8.563,-5.058 11.481,-9.144 1.75,-5.445 0.972,-12.449 -1.946,-20.813"
         inkscape:connector-curvature="0"
         id="path14533"
         style="fill:#a05a2c" />
      <path
         d="m 465.52,480.61 c -0.973,-3.308 -4.668,-9.144 -11.086,-17.703 -8.754,-2.336 -14.399,-4.472 -17.317,-6.613 l 11.867,18.867 c 4.086,8.367 5.254,16.926 3.504,25.289 2.918,-1.554 5.836,-4.277 8.754,-8.363 2.723,-4.281 4.082,-8.172 4.278,-11.477"
         inkscape:connector-curvature="0"
         id="path14535"
         style="fill:#a05a2c" />
      <path
         d="m 397.24,483.33 19.645,-18.285 c -8.559,4.086 -16.34,7.004 -23.149,8.754 -12.644,3.304 -27.429,4.086 -44.351,1.945 l 9.726,11.477 c 3.891,3.695 8.364,6.031 13.422,7.004 7.391,0.386 15.563,-3.309 24.707,-10.895"
         inkscape:connector-curvature="0"
         id="path14537"
         style="fill:#a05a2c" />
      <path
         d="m 354.83,80.848 c 2.336,2.531 9.727,7.976 22.371,16.535 11.285,7.781 18.676,14.398 22.371,19.844 0,-8.364 -1.168,-16.145 -3.304,-23.344 -2.532,-8.172 -5.645,-13.035 -9.34,-14.785 -3.891,-1.75 -9.336,-2.528 -16.145,-1.946 -6.422,0.586 -11.867,1.754 -15.953,3.696"
         inkscape:connector-curvature="0"
         id="path14539"
         style="fill:#a05a2c" />
      <path
         d="m 431.67,230.25 c 1.168,-13.617 -5.254,-26.457 -19.063,-38.52 -6.031,-5.054 -19.453,-13.808 -40.464,-26.066 2.14,16.34 9.144,28.789 21.011,37.156 l 17.895,11.282 c 7.976,5.058 14.98,10.503 20.621,16.148"
         inkscape:connector-curvature="0"
         id="path14541"
         style="fill:#a05a2c" />
      <path
         d="m 421.75,191.73 c 1.168,-13.226 -5.641,-26.066 -20.426,-38.32 -8.363,-7.004 -22.176,-16.73 -41.433,-28.984 2.14,16.535 9.922,29.566 23.343,39.293 l 18.868,12.258 c 7.976,5.25 14.398,10.503 19.648,15.753"
         inkscape:connector-curvature="0"
         id="path14543"
         style="fill:#a05a2c" />
      <path
         d="m 373.31,126.18 c 19.066,11.867 31.707,21.203 37.933,28.207 1.168,-13.617 -5.641,-26.848 -20.621,-39.492 -6.418,-5.446 -20.23,-14.59 -41.824,-27.426 0.195,13.808 8.367,26.844 24.512,38.711"
         inkscape:connector-curvature="0"
         id="path14545"
         style="fill:#a05a2c" />
      <path
         d="m 392.96,259.62 10.113,-6.027 c -5.445,-3.309 -9.531,-6.809 -12.449,-10.508 -0.582,5.254 0.195,10.894 2.336,16.535"
         inkscape:connector-curvature="0"
         id="path14547"
         style="fill:#a05a2c" />
      <path
         d="m 435.76,244.84 c -5.254,-9.535 -14.008,-17.899 -26.262,-25.289 -17.312,-10.699 -26.457,-16.149 -27.234,-16.731 -1.364,7.196 -0.391,14.977 3.113,23.731 2.918,7.199 5.836,12.062 9.141,14.785 l 13.422,10.504 27.82,-7"
         inkscape:connector-curvature="0"
         id="path14549"
         style="fill:#a05a2c" />
      <path
         d="m 456.96,321.48 c -0.195,-5.254 -2.918,-11.089 -8.172,-17.898 l -16.922,5.254 -15.953,5.25 c 3.695,4.476 7.004,7.199 9.727,8.558 l 15.367,7.2 15.953,-8.364"
         inkscape:connector-curvature="0"
         id="path14551"
         style="fill:#a05a2c" />
    </g>
  </g>
</svg>
