<?xml version="1.0" encoding="UTF-8"?>
<svg width="297mm" height="210mm" version="1.1" viewBox="0 0 297 210" xmlns="http://www.w3.org/2000/svg">
 <defs>
  <marker id="Arrow2Lstart" overflow="visible" orient="auto">
   <path transform="scale(1.1) translate(1)" d="m8.7186 4.0337-10.926-4.0177 10.926-4.0177c-1.7455 2.3721-1.7354 5.6175-6e-7 8.0354z" fill="#008000" fill-rule="evenodd" stroke="#000" stroke-linejoin="round" stroke-width=".625"/>
  </marker>
  <marker id="EmptyTriangleOutL" overflow="visible" orient="auto">
   <path transform="scale(.8) translate(-6)" d="m5.77 0-8.65 5v-10l8.65 5z" fill="#008000" fill-rule="evenodd" stroke="#000" stroke-width="1pt"/>
  </marker>
  <marker id="marker20436" overflow="visible" orient="auto">
   <path transform="scale(.4) translate(7.4 1)" d="m-2.5-1c0 2.76-2.24 5-5 5s-5-2.24-5-5 2.24-5 5-5 5 2.24 5 5z" fill-rule="evenodd" stroke="#000" stroke-width="1pt"/>
  </marker>
  <marker id="marker20390" overflow="visible" orient="auto">
   <path transform="scale(.4) translate(7.4 1)" d="m-2.5-1c0 2.76-2.24 5-5 5s-5-2.24-5-5 2.24-5 5-5 5 2.24 5 5z" fill-rule="evenodd" stroke="#000" stroke-width="1pt"/>
  </marker>
  <marker id="marker20436-9" overflow="visible" orient="auto">
   <path transform="matrix(.4 0 0 .4 2.96 .4)" d="m-2.5-1c0 2.76-2.24 5-5 5s-5-2.24-5-5 2.24-5 5-5 5 2.24 5 5z" fill-rule="evenodd" stroke="#000" stroke-width="1pt"/>
  </marker>
  <marker id="marker20390-9" overflow="visible" orient="auto">
   <path transform="matrix(.4 0 0 .4 2.96 .4)" d="m-2.5-1c0 2.76-2.24 5-5 5s-5-2.24-5-5 2.24-5 5-5 5 2.24 5 5z" fill-rule="evenodd" stroke="#000" stroke-width="1pt"/>
  </marker>
  <marker id="marker20436-99" overflow="visible" orient="auto">
   <path transform="matrix(.4 0 0 .4 2.96 .4)" d="m-2.5-1c0 2.76-2.24 5-5 5s-5-2.24-5-5 2.24-5 5-5 5 2.24 5 5z" fill-rule="evenodd" stroke="#000" stroke-width="1pt"/>
  </marker>
  <marker id="marker20390-71" overflow="visible" orient="auto">
   <path transform="matrix(.4 0 0 .4 2.96 .4)" d="m-2.5-1c0 2.76-2.24 5-5 5s-5-2.24-5-5 2.24-5 5-5 5 2.24 5 5z" fill-rule="evenodd" stroke="#000" stroke-width="1pt"/>
  </marker>
  <marker id="marker20436-8" overflow="visible" orient="auto">
   <path transform="matrix(.4 0 0 .4 2.96 .4)" d="m-2.5-1c0 2.76-2.24 5-5 5s-5-2.24-5-5 2.24-5 5-5 5 2.24 5 5z" fill-rule="evenodd" stroke="#000" stroke-width="1pt"/>
  </marker>
  <marker id="marker20390-8" overflow="visible" orient="auto">
   <path transform="matrix(.4 0 0 .4 2.96 .4)" d="m-2.5-1c0 2.76-2.24 5-5 5s-5-2.24-5-5 2.24-5 5-5 5 2.24 5 5z" fill-rule="evenodd" stroke="#000" stroke-width="1pt"/>
  </marker>
  <marker id="marker20436-8-4" overflow="visible" orient="auto">
   <path transform="matrix(.4 0 0 .4 2.96 .4)" d="m-2.5-1c0 2.76-2.24 5-5 5s-5-2.24-5-5 2.24-5 5-5 5 2.24 5 5z" fill-rule="evenodd" stroke="#000" stroke-width="1pt"/>
  </marker>
  <marker id="marker20390-8-6" overflow="visible" orient="auto">
   <path transform="matrix(.4 0 0 .4 2.96 .4)" d="m-2.5-1c0 2.76-2.24 5-5 5s-5-2.24-5-5 2.24-5 5-5 5 2.24 5 5z" fill-rule="evenodd" stroke="#000" stroke-width="1pt"/>
  </marker>
  <marker id="marker20436-8-6" overflow="visible" orient="auto">
   <path transform="matrix(.4 0 0 .4 2.96 .4)" d="m-2.5-1c0 2.76-2.24 5-5 5s-5-2.24-5-5 2.24-5 5-5 5 2.24 5 5z" fill-rule="evenodd" stroke="#000" stroke-width="1pt"/>
  </marker>
  <marker id="marker20390-8-4" overflow="visible" orient="auto">
   <path transform="matrix(.4 0 0 .4 2.96 .4)" d="m-2.5-1c0 2.76-2.24 5-5 5s-5-2.24-5-5 2.24-5 5-5 5 2.24 5 5z" fill-rule="evenodd" stroke="#000" stroke-width="1pt"/>
  </marker>
  <marker id="marker20436-8-6-7" overflow="visible" orient="auto">
   <path transform="matrix(.4 0 0 .4 2.96 .4)" d="m-2.5-1c0 2.76-2.24 5-5 5s-5-2.24-5-5 2.24-5 5-5 5 2.24 5 5z" fill-rule="evenodd" stroke="#000" stroke-width="1pt"/>
  </marker>
  <marker id="marker20390-8-4-7" overflow="visible" orient="auto">
   <path transform="matrix(.4 0 0 .4 2.96 .4)" d="m-2.5-1c0 2.76-2.24 5-5 5s-5-2.24-5-5 2.24-5 5-5 5 2.24 5 5z" fill-rule="evenodd" stroke="#000" stroke-width="1pt"/>
  </marker>
  <marker id="marker20436-8-6-7-6" overflow="visible" orient="auto">
   <path transform="matrix(.4 0 0 .4 2.96 .4)" d="m-2.5-1c0 2.76-2.24 5-5 5s-5-2.24-5-5 2.24-5 5-5 5 2.24 5 5z" fill-rule="evenodd" stroke="#000" stroke-width="1pt"/>
  </marker>
  <marker id="marker20390-8-4-7-7" overflow="visible" orient="auto">
   <path transform="matrix(.4 0 0 .4 2.96 .4)" d="m-2.5-1c0 2.76-2.24 5-5 5s-5-2.24-5-5 2.24-5 5-5 5 2.24 5 5z" fill-rule="evenodd" stroke="#000" stroke-width="1pt"/>
  </marker>
  <marker id="marker20436-8-6-6" overflow="visible" orient="auto">
   <path transform="matrix(.4 0 0 .4 2.96 .4)" d="m-2.5-1c0 2.76-2.24 5-5 5s-5-2.24-5-5 2.24-5 5-5 5 2.24 5 5z" fill-rule="evenodd" stroke="#000" stroke-width="1pt"/>
  </marker>
  <marker id="marker20390-8-4-8" overflow="visible" orient="auto">
   <path transform="matrix(.4 0 0 .4 2.96 .4)" d="m-2.5-1c0 2.76-2.24 5-5 5s-5-2.24-5-5 2.24-5 5-5 5 2.24 5 5z" fill-rule="evenodd" stroke="#000" stroke-width="1pt"/>
  </marker>
  <marker id="marker20436-8-4-6" overflow="visible" orient="auto">
   <path transform="matrix(.4 0 0 .4 2.96 .4)" d="m-2.5-1c0 2.76-2.24 5-5 5s-5-2.24-5-5 2.24-5 5-5 5 2.24 5 5z" fill-rule="evenodd" stroke="#000" stroke-width="1pt"/>
  </marker>
  <marker id="marker20390-8-6-3" overflow="visible" orient="auto">
   <path transform="matrix(.4 0 0 .4 2.96 .4)" d="m-2.5-1c0 2.76-2.24 5-5 5s-5-2.24-5-5 2.24-5 5-5 5 2.24 5 5z" fill-rule="evenodd" stroke="#000" stroke-width="1pt"/>
  </marker>
  <marker id="marker20436-8-68" overflow="visible" orient="auto">
   <path transform="matrix(.4 0 0 .4 2.96 .4)" d="m-2.5-1c0 2.76-2.24 5-5 5s-5-2.24-5-5 2.24-5 5-5 5 2.24 5 5z" fill-rule="evenodd" stroke="#000" stroke-width="1pt"/>
  </marker>
  <marker id="marker20390-8-5" overflow="visible" orient="auto">
   <path transform="matrix(.4 0 0 .4 2.96 .4)" d="m-2.5-1c0 2.76-2.24 5-5 5s-5-2.24-5-5 2.24-5 5-5 5 2.24 5 5z" fill-rule="evenodd" stroke="#000" stroke-width="1pt"/>
  </marker>
  <marker id="marker20436-99-1" overflow="visible" orient="auto">
   <path transform="matrix(.4 0 0 .4 2.96 .4)" d="m-2.5-1c0 2.76-2.24 5-5 5s-5-2.24-5-5 2.24-5 5-5 5 2.24 5 5z" fill-rule="evenodd" stroke="#000" stroke-width="1pt"/>
  </marker>
  <marker id="marker20390-71-4" overflow="visible" orient="auto">
   <path transform="matrix(.4 0 0 .4 2.96 .4)" d="m-2.5-1c0 2.76-2.24 5-5 5s-5-2.24-5-5 2.24-5 5-5 5 2.24 5 5z" fill-rule="evenodd" stroke="#000" stroke-width="1pt"/>
  </marker>
  <marker id="marker20436-9-9" overflow="visible" orient="auto">
   <path transform="matrix(.4 0 0 .4 2.96 .4)" d="m-2.5-1c0 2.76-2.24 5-5 5s-5-2.24-5-5 2.24-5 5-5 5 2.24 5 5z" fill-rule="evenodd" stroke="#000" stroke-width="1pt"/>
  </marker>
  <marker id="marker20390-9-0" overflow="visible" orient="auto">
   <path transform="matrix(.4 0 0 .4 2.96 .4)" d="m-2.5-1c0 2.76-2.24 5-5 5s-5-2.24-5-5 2.24-5 5-5 5 2.24 5 5z" fill-rule="evenodd" stroke="#000" stroke-width="1pt"/>
  </marker>
  <marker id="marker20436-7" overflow="visible" orient="auto">
   <path transform="matrix(.4 0 0 .4 2.96 .4)" d="m-2.5-1c0 2.76-2.24 5-5 5s-5-2.24-5-5 2.24-5 5-5 5 2.24 5 5z" fill-rule="evenodd" stroke="#000" stroke-width="1pt"/>
  </marker>
  <marker id="marker20390-6" overflow="visible" orient="auto">
   <path transform="matrix(.4 0 0 .4 2.96 .4)" d="m-2.5-1c0 2.76-2.24 5-5 5s-5-2.24-5-5 2.24-5 5-5 5 2.24 5 5z" fill-rule="evenodd" stroke="#000" stroke-width="1pt"/>
  </marker>
  <marker id="marker20436-8-6-7-1" overflow="visible" orient="auto">
   <path transform="matrix(.4 0 0 .4 2.96 .4)" d="m-2.5-1c0 2.76-2.24 5-5 5s-5-2.24-5-5 2.24-5 5-5 5 2.24 5 5z" fill-rule="evenodd" stroke="#000" stroke-width="1pt"/>
  </marker>
  <marker id="marker20390-8-4-7-9" overflow="visible" orient="auto">
   <path transform="matrix(.4 0 0 .4 2.96 .4)" d="m-2.5-1c0 2.76-2.24 5-5 5s-5-2.24-5-5 2.24-5 5-5 5 2.24 5 5z" fill-rule="evenodd" stroke="#000" stroke-width="1pt"/>
  </marker>
  <marker id="marker20436-8-6-9" overflow="visible" orient="auto">
   <path transform="matrix(.4 0 0 .4 2.96 .4)" d="m-2.5-1c0 2.76-2.24 5-5 5s-5-2.24-5-5 2.24-5 5-5 5 2.24 5 5z" fill-rule="evenodd" stroke="#000" stroke-width="1pt"/>
  </marker>
  <marker id="marker20390-8-4-0" overflow="visible" orient="auto">
   <path transform="matrix(.4 0 0 .4 2.96 .4)" d="m-2.5-1c0 2.76-2.24 5-5 5s-5-2.24-5-5 2.24-5 5-5 5 2.24 5 5z" fill-rule="evenodd" stroke="#000" stroke-width="1pt"/>
  </marker>
  <marker id="marker20436-8-4-4" overflow="visible" orient="auto">
   <path transform="matrix(.4 0 0 .4 2.96 .4)" d="m-2.5-1c0 2.76-2.24 5-5 5s-5-2.24-5-5 2.24-5 5-5 5 2.24 5 5z" fill-rule="evenodd" stroke="#000" stroke-width="1pt"/>
  </marker>
  <marker id="marker20390-8-6-4" overflow="visible" orient="auto">
   <path transform="matrix(.4 0 0 .4 2.96 .4)" d="m-2.5-1c0 2.76-2.24 5-5 5s-5-2.24-5-5 2.24-5 5-5 5 2.24 5 5z" fill-rule="evenodd" stroke="#000" stroke-width="1pt"/>
  </marker>
  <marker id="marker20436-8-8" overflow="visible" orient="auto">
   <path transform="matrix(.4 0 0 .4 2.96 .4)" d="m-2.5-1c0 2.76-2.24 5-5 5s-5-2.24-5-5 2.24-5 5-5 5 2.24 5 5z" fill-rule="evenodd" stroke="#000" stroke-width="1pt"/>
  </marker>
  <marker id="marker20390-8-7" overflow="visible" orient="auto">
   <path transform="matrix(.4 0 0 .4 2.96 .4)" d="m-2.5-1c0 2.76-2.24 5-5 5s-5-2.24-5-5 2.24-5 5-5 5 2.24 5 5z" fill-rule="evenodd" stroke="#000" stroke-width="1pt"/>
  </marker>
  <marker id="marker20436-99-0" overflow="visible" orient="auto">
   <path transform="matrix(.4 0 0 .4 2.96 .4)" d="m-2.5-1c0 2.76-2.24 5-5 5s-5-2.24-5-5 2.24-5 5-5 5 2.24 5 5z" fill-rule="evenodd" stroke="#000" stroke-width="1pt"/>
  </marker>
  <marker id="marker20390-71-6" overflow="visible" orient="auto">
   <path transform="matrix(.4 0 0 .4 2.96 .4)" d="m-2.5-1c0 2.76-2.24 5-5 5s-5-2.24-5-5 2.24-5 5-5 5 2.24 5 5z" fill-rule="evenodd" stroke="#000" stroke-width="1pt"/>
  </marker>
  <marker id="marker20436-9-6" overflow="visible" orient="auto">
   <path transform="matrix(.4 0 0 .4 2.96 .4)" d="m-2.5-1c0 2.76-2.24 5-5 5s-5-2.24-5-5 2.24-5 5-5 5 2.24 5 5z" fill-rule="evenodd" stroke="#000" stroke-width="1pt"/>
  </marker>
  <marker id="marker20390-9-7" overflow="visible" orient="auto">
   <path transform="matrix(.4 0 0 .4 2.96 .4)" d="m-2.5-1c0 2.76-2.24 5-5 5s-5-2.24-5-5 2.24-5 5-5 5 2.24 5 5z" fill-rule="evenodd" stroke="#000" stroke-width="1pt"/>
  </marker>
  <marker id="marker20436-21" overflow="visible" orient="auto">
   <path transform="matrix(.4 0 0 .4 2.96 .4)" d="m-2.5-1c0 2.76-2.24 5-5 5s-5-2.24-5-5 2.24-5 5-5 5 2.24 5 5z" fill-rule="evenodd" stroke="#000" stroke-width="1pt"/>
  </marker>
  <marker id="marker20390-62" overflow="visible" orient="auto">
   <path transform="matrix(.4 0 0 .4 2.96 .4)" d="m-2.5-1c0 2.76-2.24 5-5 5s-5-2.24-5-5 2.24-5 5-5 5 2.24 5 5z" fill-rule="evenodd" stroke="#000" stroke-width="1pt"/>
  </marker>
 </defs>
 <g transform="translate(0,-87)" stroke="#000">
  <g fill="#fff" stroke-width=".46247">
   <path d="m96.503 141.14c0 0.62854-0.51365 1.143-1.1433 1.143h-25.434c-0.62813 0-1.1416-0.51446-1.1416-1.143v-38.01c0-0.62853 0.51348-1.1432 1.1416-1.1432h25.434c0.62968 0 1.1433 0.51463 1.1433 1.1432z"/>
   <path d="m96.503 188.25c0 0.62854-0.51365 1.143-1.1433 1.143h-25.434c-0.62813 0-1.1416-0.51446-1.1416-1.143v-38.01c0-0.62852 0.51348-1.1432 1.1416-1.1432h25.434c0.62968 0 1.1433 0.51463 1.1433 1.1432z"/>
   <path d="m96.503 235.35c0 0.62854-0.51365 1.143-1.1433 1.143h-25.434c-0.62813 0-1.1416-0.51446-1.1416-1.143v-38.01c0-0.62854 0.51348-1.1432 1.1416-1.1432h25.434c0.62968 0 1.1433 0.51463 1.1433 1.1432z"/>
   <path d="m96.503 282.45c0 0.62854-0.51365 1.143-1.1433 1.143h-25.434c-0.62813 0-1.1416-0.51446-1.1416-1.143v-38.01c0-0.62853 0.51348-1.1432 1.1416-1.1432h25.434c0.62968 0 1.1433 0.51463 1.1433 1.1432z"/>
  </g>
  <path d="m82.644 123.57v44.361" fill="none" marker-end="url(#marker20390)" marker-start="url(#marker20436)" stroke-dasharray="3.13745562,1.56872781" stroke-width="1.5687"/>
  <g fill="#fff" stroke-width=".46247">
   <path d="m134.46 141.14c0 0.62854-0.51365 1.143-1.1433 1.143h-25.434c-0.62814 0-1.1416-0.51446-1.1416-1.143v-38.01c0-0.62853 0.51348-1.1432 1.1416-1.1432h25.434c0.62968 0 1.1433 0.51463 1.1433 1.1432z"/>
   <path d="m134.46 188.25c0 0.62854-0.51365 1.143-1.1433 1.143h-25.434c-0.62813 0-1.1416-0.51446-1.1416-1.143v-38.01c0-0.62852 0.51349-1.1432 1.1416-1.1432h25.434c0.62968 0 1.1433 0.51463 1.1433 1.1432z"/>
   <path d="m134.46 235.35c0 0.62854-0.51365 1.143-1.1433 1.143h-25.434c-0.62814 0-1.1416-0.51446-1.1416-1.143v-38.01c0-0.62854 0.51348-1.1432 1.1416-1.1432h25.434c0.62968 0 1.1433 0.51463 1.1433 1.1432z"/>
   <path d="m134.46 282.45c0 0.62854-0.51365 1.143-1.1433 1.143h-25.434c-0.62814 0-1.1416-0.51446-1.1416-1.143v-38.01c0-0.62853 0.51348-1.1432 1.1416-1.1432h25.434c0.62968 0 1.1433 0.51463 1.1433 1.1432z"/>
  </g>
  <path d="m120.6 123.57v44.361" fill="none" marker-end="url(#marker20390-9)" marker-start="url(#marker20436-9)" stroke-dasharray="3.13745562,1.56872781" stroke-width="1.5687"/>
  <g fill="#fff" stroke-width=".46247">
   <path d="m172.42 141.14c0 0.62854-0.51365 1.143-1.1433 1.143h-25.434c-0.62813 0-1.1416-0.51446-1.1416-1.143v-38.01c0-0.62853 0.51349-1.1432 1.1416-1.1432h25.434c0.62967 0 1.1433 0.51463 1.1433 1.1432z"/>
   <path d="m172.42 188.25c0 0.62854-0.51365 1.143-1.1433 1.143h-25.434c-0.62813 0-1.1416-0.51446-1.1416-1.143v-38.01c0-0.62852 0.51349-1.1432 1.1416-1.1432h25.434c0.62967 0 1.1433 0.51463 1.1433 1.1432z"/>
   <path d="m172.42 235.35c0 0.62854-0.51365 1.143-1.1433 1.143h-25.434c-0.62813 0-1.1416-0.51446-1.1416-1.143v-38.01c0-0.62854 0.51349-1.1432 1.1416-1.1432h25.434c0.62967 0 1.1433 0.51463 1.1433 1.1432z"/>
   <path d="m172.42 282.45c0 0.62854-0.51365 1.143-1.1433 1.143h-25.434c-0.62813 0-1.1416-0.51446-1.1416-1.143v-38.01c0-0.62853 0.51349-1.1432 1.1416-1.1432h25.434c0.62967 0 1.1433 0.51463 1.1433 1.1432z"/>
  </g>
  <g fill="none" stroke-dasharray="3.13745562,1.56872781" stroke-width="1.5687">
   <path d="m158.56 123.57v44.361" marker-end="url(#marker20390-71)" marker-start="url(#marker20436-99)"/>
   <path d="m82.644 123.57 37.958 44.361" marker-end="url(#marker20390-8)" marker-start="url(#marker20436-8)"/>
   <path d="m120.6 123.57 37.958 44.361" marker-end="url(#marker20390-8-6)" marker-start="url(#marker20436-8-4)"/>
   <path d="m158.56 123.57-37.958 43.872" marker-end="url(#marker20390-8-4)" marker-start="url(#marker20436-8-6)"/>
   <path d="m120.6 123.57-37.958 43.872" marker-end="url(#marker20390-8-4-7)" marker-start="url(#marker20436-8-6-7)"/>
   <path d="m82.644 167.44v44.361" marker-end="url(#marker20390-6)" marker-start="url(#marker20436-7)"/>
   <path d="m120.6 167.44v44.361" marker-end="url(#marker20390-9-0)" marker-start="url(#marker20436-9-9)"/>
   <path d="m158.56 167.44v44.361" marker-end="url(#marker20390-71-4)" marker-start="url(#marker20436-99-1)"/>
   <path d="m82.644 167.44 37.958 44.361" marker-end="url(#marker20390-8-5)" marker-start="url(#marker20436-8-68)"/>
   <path d="m120.6 167.44 37.958 44.361" marker-end="url(#marker20390-8-6-3)" marker-start="url(#marker20436-8-4-6)"/>
   <path d="m158.56 167.44-37.958 43.872" marker-end="url(#marker20390-8-4-8)" marker-start="url(#marker20436-8-6-6)"/>
   <path d="m120.6 167.44-37.958 43.872" marker-end="url(#marker20390-8-4-7-7)" marker-start="url(#marker20436-8-6-7-6)"/>
   <path d="m82.644 211.8v44.361" marker-end="url(#marker20390-62)" marker-start="url(#marker20436-21)"/>
   <path d="m120.6 211.8v44.361" marker-end="url(#marker20390-9-7)" marker-start="url(#marker20436-9-6)"/>
   <path d="m158.56 211.8v44.361" marker-end="url(#marker20390-71-6)" marker-start="url(#marker20436-99-0)"/>
   <path d="m82.644 211.8 37.958 44.361" marker-end="url(#marker20390-8-7)" marker-start="url(#marker20436-8-8)"/>
   <path d="m120.6 211.8 37.958 44.361" marker-end="url(#marker20390-8-6-4)" marker-start="url(#marker20436-8-4-4)"/>
   <path d="m158.56 211.8-37.958 43.872" marker-end="url(#marker20390-8-4-0)" marker-start="url(#marker20436-8-6-9)"/>
   <path d="m120.6 211.8-37.958 43.872" marker-end="url(#marker20390-8-4-7-9)" marker-start="url(#marker20436-8-6-7-1)"/>
  </g>
  <path d="m201.16 122.37c0.9256 142.85 0.9256 142.23 0.9256 142.23" fill="#008000" marker-end="url(#Arrow2Lstart)" marker-start="url(#EmptyTriangleOutL)" stroke-width="2.54"/>
 </g>
</svg>
