<?xml version="1.0" standalone="no"?>
<!DOCTYPE svg PUBLIC "-//W3C//DTD SVG 20010904//EN"
 "http://www.w3.org/TR/2001/REC-SVG-20010904/DTD/svg10.dtd">
<svg version="1.0" xmlns="http://www.w3.org/2000/svg"
 width="1280.000000pt" height="960.000000pt" viewBox="0 0 1280.000000 960.000000"
 preserveAspectRatio="xMidYMid meet">
<g transform="translate(0.000000,960.000000) scale(0.100000,-0.100000)"
fill="#000000" stroke="none">
<path d="M1640 9309 c-6 -24 -16 -60 -22 -79 -8 -23 -11 -151 -9 -387 l2 -353
-48 0 c-27 0 -58 -6 -68 -14 -24 -17 -13 -46 18 -46 13 0 31 -8 40 -17 21 -25
58 -122 56 -147 -1 -12 5 -38 14 -60 9 -21 17 -49 17 -62 0 -12 4 -25 8 -28 4
-2 7 -29 6 -58 -1 -29 2 -60 7 -69 5 -9 4 -20 -2 -26 -8 -8 -7 -13 0 -17 20
-13 11 -26 -17 -26 -21 0 -37 -12 -72 -56 l-45 -56 -110 6 c-60 4 -216 11
-345 16 -129 5 -369 15 -533 21 -315 13 -321 12 -310 -31 4 -14 20 -18 80 -24
42 -3 102 -6 134 -6 46 0 59 -3 63 -17 7 -25 31 -374 61 -883 30 -512 69
-1086 91 -1325 8 -93 18 -200 21 -237 6 -72 20 -94 63 -100 16 -2 26 -10 27
-23 2 -11 11 -55 21 -99 13 -59 23 -82 40 -94 12 -8 22 -20 22 -28 0 -38 100
-42 120 -4 6 11 17 20 24 20 14 0 56 41 56 56 0 5 9 15 20 22 11 7 20 23 20
37 0 21 3 23 22 16 17 -6 26 -22 35 -57 7 -27 20 -54 28 -60 14 -10 14 -13 0
-24 -17 -14 -20 -56 -5 -65 6 -3 13 2 16 12 8 22 62 73 78 73 7 0 17 -5 24
-12 10 -10 16 -7 28 10 8 12 26 22 40 22 17 0 24 5 24 20 0 11 7 20 15 20 9 0
18 7 21 15 9 22 74 20 74 -2 0 -14 3 -14 23 4 12 11 35 23 50 27 17 4 35 19
45 36 20 34 21 35 57 16 35 -19 55 -11 55 23 1 24 2 25 14 8 12 -15 14 -16 20
-2 10 27 35 17 40 -17 3 -18 12 -208 20 -423 8 -214 39 -957 67 -1649 40 -975
49 -1263 40 -1278 -7 -12 -8 -25 -3 -36 10 -18 26 -235 24 -309 0 -25 5 -46
14 -53 7 -7 14 -23 14 -36 0 -34 18 -39 26 -7 3 15 8 35 11 43 8 23 6 388 -2
401 -9 13 -10 32 -79 1769 -30 751 -58 1401 -61 1446 -5 77 -4 83 21 109 16
18 23 33 18 44 -20 47 -16 68 20 103 20 19 36 42 36 52 0 17 15 22 24 8 2 -4
30 -6 61 -4 43 2 61 -1 83 -16 15 -11 36 -21 47 -24 16 -3 20 -11 20 -47 0
-29 5 -46 14 -49 10 -3 12 1 9 16 -8 27 19 52 28 28 5 -13 14 -15 34 -11 25 6
29 3 40 -30 7 -20 9 -52 6 -71 -6 -30 -5 -33 11 -27 10 4 26 17 36 29 21 27
75 56 89 48 5 -3 15 -1 23 6 10 8 22 7 51 -5 48 -20 64 -14 64 26 0 32 37 109
52 109 5 0 10 -6 12 -12 28 -101 69 -164 100 -152 7 3 16 -2 19 -10 5 -12 11
-13 35 -4 26 10 32 8 75 -34 50 -47 56 -68 36 -123 -14 -37 -1 -106 19 -113
15 -5 15 -1 -24 943 -40 967 -54 1387 -54 1624 l0 224 165 -5 c176 -5 194 -1
180 42 -4 12 -15 20 -28 20 -12 0 -105 4 -207 10 -102 5 -383 16 -625 25 -242
9 -450 18 -462 21 -13 2 -23 9 -23 15 0 6 -23 37 -52 70 l-51 59 1 73 c5 163
7 203 16 217 6 8 11 33 12 55 1 23 11 62 22 87 18 40 25 47 54 50 27 2 32 7
30 23 -5 32 -28 42 -82 37 -38 -3 -50 -1 -50 9 0 33 -40 608 -45 652 -6 47
-50 183 -66 201 -4 5 -13 -11 -19 -35z m-727 -1552 c-29 -7 -57 -7 -85 0 -40
10 -37 11 42 11 79 0 82 -1 43 -11z m584 -13 c19 -3 40 -16 56 -37 54 -69 86
-97 111 -97 14 0 26 -5 26 -11 0 -8 -24 -10 -77 -7 -79 5 -121 20 -198 72 -19
13 -67 37 -105 52 -39 15 -70 30 -70 33 0 7 208 3 257 -5z m561 -24 c63 0 44
-14 -45 -34 -43 -10 -106 -27 -141 -38 -35 -11 -66 -18 -69 -15 -2 3 15 27 38
52 l44 47 65 -6 c36 -3 84 -6 108 -6z m457 -21 c50 -2 49 -2 -15 -9 -60 -7
-110 0 -110 16 0 4 17 4 38 0 20 -3 60 -6 87 -7z m165 -173 c0 -13 3 -31 6
-39 3 -10 -2 -18 -15 -22 -17 -5 -19 -12 -14 -38 3 -18 9 -37 14 -42 11 -15
-13 -83 -32 -88 -12 -3 -23 9 -38 42 -19 42 -20 47 -5 58 13 10 14 18 6 42 -8
24 -7 31 5 35 8 3 14 16 13 28 -4 42 0 48 30 48 25 0 30 -4 30 -24z m130 -27
c0 -24 -23 -21 -28 4 -2 10 3 17 12 17 10 0 16 -9 16 -21z m-340 -215 c0 -8
-4 -14 -10 -14 -5 0 -10 9 -10 21 0 11 5 17 10 14 6 -3 10 -13 10 -21z m-40
-399 c0 -8 -9 -15 -20 -15 -20 0 -26 11 -13 23 12 13 33 7 33 -8z m116 -24
c-9 -13 -56 -15 -56 -2 0 5 7 17 16 26 15 14 19 15 32 2 8 -8 11 -20 8 -26z
m-76 -21 c0 -17 37 -48 56 -47 11 1 23 -8 29 -20 5 -13 13 -23 17 -23 5 0 8
-4 8 -10 0 -5 -11 -10 -25 -10 -15 0 -31 -9 -40 -24 -17 -25 -11 -56 10 -56
15 0 40 -55 31 -69 -7 -11 31 -81 44 -81 4 0 6 -8 3 -19 -3 -10 0 -22 6 -25 6
-4 11 -11 11 -16 0 -5 -16 0 -35 12 -20 11 -38 18 -40 16 -3 -3 0 -19 6 -36 7
-22 7 -36 0 -51 -11 -20 -13 -20 -46 -4 -21 10 -35 24 -35 35 0 11 -11 23 -26
28 -41 16 -96 -5 -64 -25 20 -12 9 -31 -22 -40 -25 -8 -34 -17 -36 -35 -2 -15
-15 -34 -32 -45 -21 -14 -30 -28 -30 -47 0 -30 -14 -37 -24 -12 -3 9 -6 40 -6
70 0 34 -4 53 -10 49 -5 -3 -11 0 -11 7 -1 7 -3 23 -4 35 -1 12 -10 29 -19 38
-17 18 -19 25 -10 48 4 11 16 13 47 10 39 -5 44 -3 55 21 6 14 23 31 37 38 14
6 26 16 26 22 1 6 3 18 4 26 1 8 3 28 4 43 1 24 4 27 22 22 15 -5 29 1 49 20
15 15 32 26 36 25 5 -1 10 3 12 8 2 6 -5 9 -14 8 -9 0 -19 5 -22 13 -3 10 0
12 12 8 20 -8 21 11 1 40 -13 18 -13 26 -3 43 14 21 28 27 28 10z m-405 -470
c8 0 25 -12 39 -27 21 -23 27 -25 41 -13 18 15 29 7 40 -28 5 -19 3 -23 -12
-20 -14 2 -19 -4 -21 -32 -2 -19 -8 -40 -13 -46 -5 -6 -7 -18 -3 -27 4 -11 -6
-23 -32 -40 -61 -38 -96 -13 -58 41 8 12 14 32 12 45 -3 25 -36 36 -49 15 -8
-10 -12 -9 -24 7 -14 18 -14 21 7 37 13 10 17 18 11 18 -21 0 -15 39 10 69 17
22 24 25 30 15 4 -8 14 -14 22 -14z m-61 -175 c-4 -8 -11 -15 -16 -15 -6 0 -5
6 2 15 7 8 14 15 16 15 2 0 1 -7 -2 -15z m176 -10 c0 -8 -4 -15 -10 -15 -5 0
-10 7 -10 15 0 8 5 15 10 15 6 0 10 -7 10 -15z m-160 -35 c0 -5 -4 -10 -10
-10 -5 0 -10 5 -10 10 0 6 5 10 10 10 6 0 10 -4 10 -10z m199 -7 c6 -12 20
-16 44 -15 20 1 38 -2 42 -8 5 -8 11 -7 21 1 8 6 15 10 17 8 28 -49 28 -51 13
-74 -18 -27 -21 -66 -6 -81 9 -9 1 -39 -34 -117 -9 -21 -14 -42 -10 -48 10
-16 -5 -59 -20 -59 -8 0 -33 18 -55 40 -36 36 -41 46 -40 83 1 23 8 49 16 59
10 11 11 18 4 23 -6 3 -11 16 -11 28 0 15 -3 18 -11 10 -6 -6 -24 -7 -42 -4
-27 6 -31 11 -29 32 2 13 10 31 18 40 8 8 14 21 14 27 0 7 9 12 20 12 25 0 36
25 20 45 -10 12 -10 15 3 15 9 0 20 -8 26 -17z m406 -31 c-8 -9 -25 20 -18 31
3 5 10 2 15 -7 6 -10 7 -20 3 -24z m59 18 c18 -6 24 -14 20 -25 -6 -14 -9 -14
-23 -2 -9 8 -22 12 -28 10 -14 -5 -18 9 -6 20 8 9 7 9 37 -3z m136 -11 c0 -5
-7 -9 -15 -9 -8 0 -15 7 -15 15 0 9 6 12 15 9 8 -4 15 -10 15 -15z m-216 -55
c4 -9 4 -19 2 -21 -8 -8 -26 8 -26 23 0 19 16 18 24 -2z m-842 -109 c0 -25 1
-51 2 -57 2 -20 -37 -9 -56 15 -29 38 -32 69 -8 89 34 28 60 8 62 -47z m138 0
c0 -16 -6 -25 -15 -25 -18 0 -18 5 -5 31 14 26 20 24 20 -6z m790 5 c0 -5 -4
-10 -10 -10 -5 0 -10 5 -10 10 0 6 5 10 10 10 6 0 10 -4 10 -10z m-840 -55 c0
-8 0 -18 1 -22 0 -4 -4 -9 -10 -11 -6 -2 -11 8 -11 22 0 14 5 26 10 26 6 0 10
-7 10 -15z m218 -57 c14 -14 16 -42 2 -33 -14 9 -32 45 -22 45 4 0 13 -5 20
-12z m-127 -52 c-13 -15 13 -56 35 -56 11 0 13 -6 9 -22 -6 -16 -4 -20 9 -15
23 9 32 -14 11 -30 -11 -7 -31 -13 -47 -13 -22 0 -29 6 -34 28 -4 15 -13 34
-21 43 -17 20 -8 65 15 78 21 12 36 3 23 -13z"/>
<path d="M2056 6315 c4 -8 12 -15 20 -15 8 0 14 7 14 15 0 8 -9 15 -20 15 -13
0 -18 -5 -14 -15z"/>
<path d="M5741 9094 c-30 -8 -69 -23 -86 -34 -67 -42 -124 -156 -134 -270 -5
-65 -11 -82 -38 -116 -55 -70 -65 -76 -111 -66 -94 22 -140 74 -161 183 -11
55 -14 59 -40 59 -26 0 -29 -4 -34 -41 -8 -60 8 -144 37 -193 33 -57 112 -129
172 -156 46 -21 53 -30 88 -100 l37 -76 -22 -58 c-12 -32 -38 -77 -58 -99
l-36 -40 -71 6 c-95 7 -114 -5 -49 -34 90 -40 231 -13 325 61 l38 30 -2 -183
-2 -182 -70 -69 -69 -69 -270 12 c-148 6 -385 16 -525 22 -455 18 -599 32
-620 58 -9 10 -32 23 -52 30 -111 37 -157 156 -108 281 24 62 24 60 2 60 -10
0 -32 -15 -49 -32 -93 -97 -98 -267 -11 -373 38 -45 142 -115 172 -115 12 0
30 6 41 14 13 8 64 16 136 21 103 6 117 5 122 -9 9 -22 24 -492 37 -1111 12
-579 25 -1017 41 -1335 12 -243 18 -267 65 -256 24 6 37 -6 41 -39 2 -11 11
-55 20 -99 14 -63 23 -82 45 -98 16 -11 28 -26 28 -33 0 -8 10 -19 21 -26 25
-13 101 4 120 27 6 8 17 14 23 14 20 0 116 106 116 129 0 24 0 24 33 12 18 -7
26 -20 31 -48 11 -61 16 -73 32 -73 19 0 18 -17 -1 -28 -19 -10 -25 -63 -8
-69 7 -3 17 7 23 22 6 15 19 29 30 32 11 3 20 12 20 19 0 16 42 19 70 4 15 -8
20 -6 25 9 4 14 17 21 43 23 29 2 36 7 34 21 -2 9 3 17 9 17 7 0 21 7 30 16
23 21 89 26 89 7 0 -18 19 -17 26 2 3 8 22 18 42 21 24 5 49 20 69 42 l32 35
35 -17 c42 -20 66 -12 66 23 1 23 2 24 11 8 8 -14 14 -15 24 -7 10 9 14 -21
19 -162 9 -275 15 -3385 7 -3394 -5 -5 -5 -88 0 -184 4 -96 6 -183 3 -192 -3
-10 2 -28 10 -40 9 -12 16 -32 16 -45 0 -35 18 -36 25 -1 4 18 12 39 17 46 6
7 10 84 10 189 -1 112 3 182 10 190 7 9 6 19 -4 35 -13 20 -16 248 -20 1754
-3 958 -1 1741 4 1754 6 17 12 20 20 12 13 -13 43 0 52 24 4 9 1 31 -5 49 -11
29 -9 36 10 64 12 17 27 31 33 31 15 0 37 32 38 54 0 16 2 17 17 5 11 -10 38
-13 85 -11 37 1 68 -2 68 -7 0 -5 8 -11 18 -15 9 -3 24 -10 32 -15 8 -5 23
-12 34 -15 14 -5 17 -12 12 -34 -12 -50 -11 -56 8 -60 14 -3 17 0 12 13 -3 10
-1 24 5 32 10 11 15 11 30 -3 13 -12 22 -13 37 -5 17 9 22 6 32 -19 7 -17 10
-50 8 -75 -5 -38 -3 -45 11 -45 10 0 30 14 46 30 16 17 34 30 41 30 6 0 17 7
24 15 7 9 19 14 27 11 7 -3 24 -1 36 3 17 7 35 4 63 -8 50 -22 64 -17 64 23 0
35 47 116 67 116 6 0 14 -8 16 -17 3 -10 10 -39 17 -65 8 -30 19 -50 31 -53
10 -3 21 -15 24 -26 5 -14 12 -18 23 -14 8 3 19 0 23 -7 6 -9 16 -9 43 -1 37
11 46 7 59 -29 4 -10 13 -18 21 -18 19 0 46 -38 46 -66 0 -11 -7 -35 -16 -53
-17 -35 -12 -102 10 -120 10 -9 14 2 19 48 4 32 7 501 7 1042 1 999 12 1848
24 1868 9 14 111 14 168 1 24 -5 70 -14 103 -20 33 -6 62 -15 63 -20 6 -18 42
-10 111 24 184 93 234 285 116 446 -26 36 -43 50 -61 50 -13 0 -24 -1 -24 -2
0 -2 11 -30 25 -63 58 -141 9 -267 -113 -290 -19 -3 -46 -14 -60 -23 -22 -15
-57 -17 -271 -15 -135 1 -343 6 -461 12 -118 6 -334 16 -480 21 -161 7 -266
15 -269 21 -1 5 -27 37 -55 70 -29 33 -53 65 -54 72 -5 42 -9 370 -5 410 7 63
28 62 86 -3 81 -90 96 -159 56 -265 -12 -31 -19 -58 -16 -61 14 -14 61 22 94
72 38 57 38 57 38 163 0 102 -1 109 -38 186 -38 78 -38 81 -32 161 6 73 10 84
34 101 44 33 89 53 119 53 30 0 89 -37 131 -84 23 -24 59 -34 74 -20 19 19
-75 134 -137 167 -36 19 -57 22 -176 22 -131 0 -137 1 -190 30 -52 28 -55 33
-68 85 -17 73 -10 160 17 204 12 19 42 47 66 63 71 44 60 53 -34 27z m-961
-1494 c19 -12 -126 -12 -155 0 -13 6 6 9 60 9 44 0 87 -4 95 -9z m683 -37 c24
-41 104 -119 125 -123 14 -3 27 -11 30 -17 5 -18 -92 -17 -152 1 -26 8 -77 32
-114 54 -37 22 -100 52 -139 67 -40 15 -76 31 -79 36 -3 6 55 7 158 3 124 -5
165 -10 171 -21z m602 -13 c82 0 40 -18 -115 -50 -30 -7 -97 -25 -148 -42 -50
-16 -98 -28 -105 -25 -7 3 -4 8 9 13 12 5 43 33 70 63 l48 54 96 -7 c52 -3
117 -6 145 -6z m555 -30 c-18 -12 -137 -12 -165 0 -13 6 15 9 80 9 68 1 95 -2
85 -9z m140 -186 c0 -18 6 -34 13 -37 6 -3 -1 -10 -17 -16 -26 -10 -28 -15
-23 -48 4 -20 12 -40 18 -44 9 -5 8 -14 -4 -33 -9 -14 -17 -32 -17 -39 0 -19
-35 -28 -49 -14 -6 6 -11 18 -11 26 0 8 -8 23 -17 33 -17 19 -16 20 5 37 20
15 22 20 12 45 -9 25 -8 32 9 48 11 10 18 25 15 33 -10 26 3 42 35 42 28 0 31
-3 31 -33z m150 -24 c0 -11 -7 -20 -15 -20 -8 0 -15 2 -15 4 0 2 -3 11 -6 20
-4 12 0 16 15 16 14 0 21 -6 21 -20z m-397 -214 c6 -15 -1 -26 -15 -26 -4 0
-8 9 -8 20 0 23 15 27 23 6z m-65 -439 c3 -12 -4 -17 -22 -17 -28 0 -33 9 -14
28 15 15 32 10 36 -11z m131 4 c21 -13 -2 -38 -34 -38 -28 0 -29 1 -15 28 12
21 27 24 49 10z m-32 -97 c11 11 43 -15 43 -34 0 -11 7 -20 16 -20 8 0 13 -4
10 -9 -3 -5 -14 -7 -24 -5 -9 3 -27 -4 -40 -16 -25 -24 -30 -70 -7 -70 22 0
45 -61 31 -79 -8 -11 -8 -15 2 -18 6 -3 12 -10 12 -17 0 -7 9 -21 21 -32 11
-10 18 -26 16 -36 -3 -9 1 -22 9 -29 30 -25 12 -28 -23 -4 -21 14 -41 25 -45
25 -12 0 -10 -48 2 -55 14 -8 13 -28 -3 -49 -11 -16 -15 -16 -49 -2 -27 12
-38 23 -43 46 -4 20 -12 30 -20 26 -7 -2 -17 0 -22 5 -7 7 -19 6 -36 -2 -28
-13 -34 -24 -17 -34 20 -12 10 -35 -16 -35 -38 0 -64 -18 -64 -45 0 -16 -11
-30 -35 -45 -24 -15 -34 -27 -31 -39 3 -9 1 -23 -4 -31 -14 -23 -41 17 -33 50
3 14 6 27 5 30 0 46 -4 60 -12 55 -9 -6 -11 1 -14 46 -1 9 -9 26 -20 37 -24
27 -15 78 12 67 49 -19 71 -14 99 21 15 20 37 40 49 44 17 7 23 20 28 64 7 53
9 56 31 50 17 -4 32 1 52 20 15 14 33 24 40 22 6 -3 14 2 17 10 4 10 0 14 -11
12 -9 -2 -18 3 -20 10 -3 6 2 12 11 12 9 0 16 6 16 13 0 21 -17 40 -29 33 -18
-11 -13 9 10 37 l20 27 30 -31 c17 -17 33 -28 36 -25z m-524 -454 c9 0 24 -12
36 -27 18 -25 22 -27 41 -15 17 10 25 10 36 1 21 -17 18 -57 -3 -55 -13 1 -21
-11 -30 -44 -6 -25 -12 -47 -13 -50 -1 -3 -2 -12 -1 -20 2 -24 -75 -61 -104
-50 -28 11 -25 30 8 67 17 19 18 27 9 48 -13 27 -52 35 -52 10 0 -18 -12 -19
-28 -3 -17 17 -16 51 2 45 8 -3 17 1 20 9 3 8 0 14 -7 14 -22 0 -17 39 9 59
13 10 24 27 24 37 1 17 3 17 19 -3 11 -13 26 -23 34 -23z m124 -12 c-3 -8 -6
-5 -6 6 -1 11 2 17 5 13 3 -3 4 -12 1 -19z m-211 -185 c-10 -10 -19 5 -10 18
6 11 8 11 12 0 2 -7 1 -15 -2 -18z m204 -4 c0 -5 -7 -9 -15 -9 -15 0 -20 12
-9 23 8 8 24 -1 24 -14z m-185 -39 c-6 -9 -9 -9 -16 1 -10 17 0 34 13 21 6 -6
7 -16 3 -22z m225 0 c18 -15 31 -19 57 -14 22 4 33 2 33 -6 0 -8 10 -9 29 -5
24 5 30 2 36 -17 10 -31 6 -51 -11 -61 -17 -9 -19 -58 -3 -74 12 -12 -5 -75
-28 -104 -7 -8 -13 -23 -13 -32 0 -9 -4 -17 -10 -17 -5 0 -8 -16 -7 -36 1 -25
-3 -40 -15 -47 -15 -10 -26 -4 -67 37 -28 27 -48 54 -44 59 3 5 5 26 5 48 -1
26 5 42 16 48 13 7 14 12 4 24 -7 8 -12 19 -11 23 3 20 -2 26 -13 16 -7 -5
-28 -7 -46 -5 -30 5 -33 8 -27 32 4 14 12 33 19 41 7 8 16 23 19 32 4 10 13
15 25 11 24 -6 36 21 22 48 -14 25 1 24 30 -1z m463 -12 c7 -25 3 -33 -12 -23
-13 8 -15 45 -2 45 5 0 11 -10 14 -22z m87 -29 c0 -23 -18 -25 -26 -4 -4 8
-15 15 -25 15 -12 0 -16 5 -13 14 8 22 64 0 64 -25z m128 13 c2 -7 -3 -12 -12
-12 -9 0 -16 7 -16 16 0 17 22 14 28 -4z m-244 -58 c4 -9 4 -19 1 -22 -7 -8
-35 19 -29 29 8 14 21 11 28 -7z m-986 -118 c3 -73 -6 -82 -39 -35 -30 41 -32
66 -9 89 33 33 45 20 48 -54z m184 -1 c-4 -23 -21 -33 -35 -19 -8 8 23 55 33
49 4 -2 5 -16 2 -30z m898 11 c0 -3 -4 -8 -10 -11 -5 -3 -10 -1 -10 4 0 6 5
11 10 11 6 0 10 -2 10 -4z m-956 -58 c8 -32 -17 -56 -38 -38 -9 7 -16 23 -16
36 0 33 45 34 54 2z m250 -71 c15 -24 -3 -35 -20 -13 -8 11 -14 24 -14 29 0
13 22 3 34 -16z m-151 -38 c-18 -18 12 -69 38 -69 18 0 19 -3 9 -15 -6 -8 -9
-19 -5 -26 6 -8 10 -7 16 2 5 9 12 10 18 4 19 -19 -6 -38 -50 -39 -35 -1 -44
3 -48 19 -3 11 -14 32 -24 47 -17 25 -17 29 -2 57 10 20 23 31 37 31 17 0 19
-3 11 -11z"/>
<path d="M6000 6061 c0 -5 6 -14 14 -20 10 -8 16 -8 25 2 6 8 8 17 4 20 -9 10
-43 8 -43 -2z"/>
<path d="M6065 5950 c3 -5 8 -10 11 -10 2 0 4 5 4 10 0 6 -5 10 -11 10 -5 0
-7 -4 -4 -10z"/>
<path d="M10205 8591 c-18 -8 -17 -9 10 -16 125 -29 156 -39 200 -61 28 -14
70 -43 95 -65 l45 -39 -25 -45 c-13 -25 -31 -45 -39 -45 -8 0 -53 7 -100 16
-97 19 -383 15 -417 -4 -15 -9 -4 -11 56 -12 104 0 255 -25 348 -55 42 -15 81
-30 85 -34 5 -5 11 -33 14 -63 l5 -55 -78 -27 c-70 -24 -228 -105 -221 -112 1
-2 41 10 87 26 110 38 226 58 242 42 7 -7 14 -40 16 -75 4 -60 2 -66 -37 -127
-48 -74 -54 -100 -10 -47 17 20 35 37 40 37 5 0 9 -25 9 -55 0 -30 5 -100 11
-156 l11 -101 -38 -40 -39 -40 -150 6 c-82 4 -247 11 -365 16 -118 5 -332 15
-475 20 -143 6 -305 13 -360 15 -55 2 -161 6 -235 7 l-135 3 -3 -32 c-4 -40
-5 -40 197 -48 85 -3 158 -8 164 -12 11 -7 5 -549 -13 -1153 -29 -979 -37
-1771 -21 -2190 l6 -165 65 -6 c36 -3 81 -12 100 -21 19 -8 69 -18 110 -22 41
-3 170 -20 285 -36 116 -17 349 -43 518 -59 170 -16 310 -31 312 -32 7 -8
-132 -3065 -140 -3079 -5 -8 -10 -103 -10 -212 -1 -109 -5 -201 -8 -205 -4 -3
-1 -16 6 -27 8 -12 17 -38 21 -59 7 -36 26 -43 26 -9 0 9 7 31 16 47 9 17 17
55 18 85 6 155 20 316 29 328 7 9 6 21 -4 38 -11 22 -3 248 55 1552 37 840 70
1529 72 1531 2 2 131 -8 287 -22 155 -15 372 -32 482 -38 110 -5 208 -12 218
-15 25 -8 457 -12 457 -5 0 3 7 74 15 156 36 372 64 786 130 1960 61 1084 83
1411 101 1499 l6 29 212 -4 211 -4 0 35 0 35 -230 11 c-126 6 -320 14 -430 18
-110 3 -238 9 -285 12 -87 5 -796 34 -838 34 -12 0 -25 8 -29 18 -3 9 -26 38
-49 63 l-43 47 29 69 c16 37 40 106 53 153 14 46 30 86 36 88 16 5 105 -42
169 -90 37 -27 50 -34 43 -20 -14 26 -93 96 -158 140 l-53 35 6 56 c4 31 8 58
11 60 10 12 236 -33 344 -68 68 -22 125 -39 126 -37 6 5 -146 81 -221 111 -39
15 -111 37 -160 50 l-91 23 -3 35 -3 36 83 25 c137 41 253 58 443 65 l180 6
-90 15 c-99 17 -419 21 -521 7 l-60 -9 -14 44 c-19 58 -20 56 25 83 129 77
194 101 329 120 78 11 40 28 -66 28 -100 1 -250 -29 -320 -64 -24 -13 -47 -17
-68 -13 -24 5 -36 2 -55 -16 l-25 -23 -23 21 c-16 15 -36 22 -61 22 -21 0 -53
9 -70 19 -85 52 -324 97 -381 72z m404 -948 c1 -34 6 -63 11 -65 6 -2 -3 -12
-20 -22 l-32 -18 6 43 c3 24 8 71 12 104 8 75 22 50 23 -42z m-919 -253 c0
-12 -153 -12 -190 0 -16 5 13 8 83 9 65 1 107 -3 107 -9z m705 -26 l70 -5 64
-75 c37 -43 71 -74 82 -74 11 0 19 -7 19 -15 0 -37 -137 -9 -268 55 -56 28
-141 64 -187 81 -47 17 -87 35 -91 40 -5 8 153 5 311 -7z m738 -31 c56 -3 93
-10 85 -14 -8 -4 -72 -19 -142 -33 -71 -14 -177 -42 -237 -61 -60 -19 -114
-35 -120 -35 -23 0 -1 29 66 88 l70 61 90 0 c50 1 134 -2 188 -6z m687 -33
c16 -5 -10 -8 -75 -8 -55 0 -109 3 -120 8 -26 11 160 11 195 0z"/>
</g>
</svg>
