<?xml version="1.0" standalone="no"?>
<!DOCTYPE svg PUBLIC "-//W3C//DTD SVG 20010904//EN"
 "http://www.w3.org/TR/2001/REC-SVG-20010904/DTD/svg10.dtd">
<svg version="1.0" xmlns="http://www.w3.org/2000/svg"
 width="1280.000000pt" height="1280.000000pt" viewBox="0 0 1280.000000 1280.000000"
 preserveAspectRatio="xMidYMid meet">
<g transform="translate(0.000000,1280.000000) scale(0.100000,-0.100000)"
fill="#000000" stroke="none">
<path d="M6120 12586 c-73 -20 -92 -34 -84 -59 61 -190 85 -286 108 -428 l6
-36 -45 15 c-44 14 -47 14 -118 -16 -122 -51 -205 -93 -218 -108 -6 -8 -24
-14 -40 -14 -26 0 -44 -12 -109 -72 -36 -33 -41 -80 -14 -159 13 -39 24 -72
24 -74 0 -9 -355 -267 -415 -302 -39 -23 -104 -65 -146 -95 -42 -30 -81 -58
-87 -61 -11 -7 -93 74 -178 176 -27 31 -56 57 -66 57 -9 0 -63 32 -118 71
l-102 71 -106 14 c-59 7 -126 14 -149 14 -47 0 -95 -18 -90 -34 2 -6 59 -31
128 -56 68 -25 147 -59 174 -75 76 -44 157 -116 150 -133 -3 -9 13 -34 41 -64
25 -27 44 -55 42 -62 -2 -8 -574 -467 -1273 -1022 -1748 -1387 -1725 -1368
-1928 -1564 -158 -154 -181 -179 -211 -243 -32 -69 -124 -382 -115 -391 2 -3
93 -1 201 4 241 10 229 5 511 198 166 112 445 334 1473 1169 698 567 1274
1032 1279 1032 6 1 11 -18 13 -41 5 -77 41 -282 57 -328 9 -25 34 -75 56 -112
26 -45 38 -75 34 -90 -3 -15 8 -48 33 -93 33 -62 40 -70 63 -67 17 2 29 -3 32
-12 4 -9 13 -16 20 -16 50 0 84 -116 97 -327 6 -92 13 -186 17 -208 4 -22 7
-121 8 -220 0 -209 -5 -189 161 -682 52 -155 104 -323 115 -374 19 -90 56
-159 104 -199 10 -8 15 -31 15 -70 0 -83 20 -105 102 -113 52 -6 67 -12 86
-34 38 -46 55 -84 43 -96 -6 -6 -8 -28 -4 -52 3 -27 -2 -71 -15 -122 -26 -102
-98 -277 -131 -315 -19 -23 -22 -34 -14 -47 15 -24 8 -125 -16 -216 -11 -44
-25 -120 -32 -170 -14 -105 -93 -384 -151 -535 -67 -176 -85 -239 -117 -416
-17 -93 -40 -203 -51 -244 -11 -41 -27 -154 -35 -250 -8 -96 -22 -222 -31
-280 -8 -58 -19 -153 -24 -211 -5 -59 -21 -160 -35 -225 -14 -66 -25 -122 -25
-126 0 -5 -13 -8 -29 -8 -33 0 -35 -5 -46 -116 -7 -68 -12 -79 -39 -79 -12 0
-23 -14 -35 -45 -10 -25 -32 -76 -50 -113 -23 -48 -30 -71 -23 -80 8 -9 0 -28
-25 -67 -19 -30 -51 -88 -70 -127 -26 -53 -40 -73 -54 -73 -24 0 -30 -17 -63
-160 -25 -113 -25 -121 7 -132 8 -3 -8 -459 -24 -658 -22 -270 -84 -639 -137
-809 l-26 -85 22 -60 c12 -34 22 -71 22 -84 0 -13 5 -33 12 -45 7 -14 11 -62
10 -132 -3 -147 5 -175 66 -234 47 -46 54 -49 143 -65 155 -29 476 -61 704
-71 71 -3 102 -1 107 8 6 9 12 7 23 -7 8 -11 15 -14 15 -8 0 7 3 11 8 11 4 -1
9 0 12 1 18 7 39 7 35 0 -3 -5 -1 -11 5 -15 5 -3 10 -1 10 6 0 7 10 9 25 7 17
-4 29 0 35 11 9 15 9 15 10 -1 0 -14 4 -14 24 -5 18 9 22 15 14 24 -7 9 -7 13
2 13 7 0 10 7 6 16 -3 9 -2 12 4 9 6 -4 9 -14 8 -23 -4 -20 22 -22 41 -4 13
12 16 12 26 -1 8 -11 16 -13 26 -6 11 7 11 9 -3 9 -24 0 -23 8 5 32 12 11 16
16 8 12 -10 -5 -13 -3 -8 8 6 17 -8 19 -32 4 -9 -6 -12 -5 -8 1 4 6 0 16 -8
23 -8 7 -12 16 -9 21 2 5 -7 11 -21 15 -14 3 -25 11 -25 18 0 6 -5 4 -10 -4
-6 -9 -10 -11 -10 -3 0 7 -6 10 -14 7 -7 -3 -16 2 -19 10 -4 9 -14 16 -22 16
-9 0 -14 4 -11 9 3 4 -5 8 -17 7 -27 -2 -86 20 -109 42 -10 8 -18 12 -18 8 0
-3 -11 1 -25 10 -13 8 -29 13 -35 9 -5 -3 -10 -2 -10 4 0 12 -35 20 -175 40
l-110 16 4 106 3 105 -31 26 c-17 15 -44 29 -61 33 -35 8 -35 7 -15 67 14 41
14 50 1 89 -21 59 -20 72 13 271 35 202 58 275 204 623 58 138 113 276 123
308 10 31 21 57 25 57 27 0 73 200 49 215 -7 4 7 87 28 160 5 17 19 35 32 42
25 12 44 48 35 64 -4 5 3 18 14 30 13 14 19 35 19 65 0 34 7 53 32 84 18 23
34 40 35 38 2 -2 8 -86 14 -188 13 -229 26 -299 94 -503 67 -200 93 -257 117
-257 14 0 20 -9 22 -31 3 -28 8 -34 48 -45 29 -9 67 -12 108 -7 60 6 64 8 103
54 23 27 45 49 51 49 5 0 21 -9 35 -20 59 -46 79 -23 187 230 94 219 115 294
160 556 60 356 85 644 86 967 0 78 4 136 9 133 14 -9 131 -369 156 -484 34
-150 42 -181 86 -320 44 -138 44 -140 25 -161 -20 -22 -34 -235 -17 -255 16
-19 -6 -234 -27 -258 -11 -13 -13 -38 -7 -123 5 -63 12 -108 19 -113 7 -4 21
-38 31 -77 26 -99 203 -589 260 -719 38 -88 48 -123 50 -175 2 -36 8 -104 14
-151 6 -47 11 -186 11 -310 0 -189 3 -229 16 -248 11 -16 14 -34 9 -60 -5 -29
-2 -44 13 -62 18 -23 19 -37 14 -148 -4 -97 -8 -122 -18 -118 -7 3 -20 -5 -29
-17 -8 -12 -15 -16 -15 -9 0 6 -4 12 -10 12 -28 0 -3 -20 61 -49 92 -42 212
-63 447 -77 48 -2 116 -7 152 -9 166 -11 442 -16 437 -7 -3 4 8 6 25 4 19 -3
33 1 39 9 6 10 9 11 9 1 0 -9 8 -10 27 -6 15 4 34 7 41 7 7 0 11 5 9 11 -3 6
7 12 22 12 54 3 79 9 75 16 -5 8 17 12 49 10 19 -2 23 14 5 20 -7 3 -6 7 5 11
11 4 17 1 17 -8 0 -8 8 -15 18 -15 14 0 15 2 2 10 -13 8 -13 12 3 27 15 15 17
15 12 2 -4 -10 0 -16 9 -16 8 0 13 4 10 8 -2 4 5 14 15 21 11 8 25 26 30 41
10 25 8 29 -18 45 -15 9 -26 23 -23 30 2 7 0 12 -5 11 -4 -1 -11 0 -15 1 -5 1
-11 3 -15 5 -5 1 -20 7 -34 13 -15 6 -52 15 -83 21 -71 13 -76 16 -76 46 0 31
-35 177 -49 202 -15 29 -62 49 -189 79 -135 31 -203 71 -207 119 -2 17 -4 35
-6 40 -1 6 1 22 5 37 6 20 3 35 -14 57 -26 38 -70 165 -99 290 -32 136 -59
354 -71 579 -10 194 -25 435 -36 582 l-6 75 32 18 c31 17 32 19 25 65 -4 26
-15 66 -25 90 -15 33 -26 44 -50 48 -22 5 -32 13 -36 33 -3 14 -19 74 -34 133
-27 102 -27 108 -10 113 16 5 18 13 13 60 -4 38 -2 55 6 55 16 0 14 27 -3 33
-38 15 -56 142 -59 417 -1 117 2 134 40 275 100 366 113 555 57 830 -13 66
-33 188 -44 270 -20 155 -26 176 -103 430 -128 423 -203 757 -193 860 4 43 2
66 -8 80 -28 40 -60 218 -91 495 -7 64 -13 76 -40 82 -19 3 -20 11 -18 123 2
66 8 199 14 297 14 210 7 389 -21 553 -22 135 -26 299 -9 440 17 140 15 367
-4 460 -25 117 -23 126 22 154 47 29 71 68 71 113 0 43 -60 168 -134 277 -31
46 -56 89 -56 96 0 13 61 100 165 235 116 151 162 271 220 576 20 104 47 234
61 289 31 125 41 248 24 299 -6 20 -13 48 -15 62 -3 34 -38 68 -110 111 -33
20 -73 48 -90 64 -66 61 -420 170 -646 200 l-95 12 -260 458 c-142 252 -261
458 -264 458 -3 0 -25 -6 -50 -13z m297 -818 c46 -47 62 -68 50 -68 -10 0 -28
5 -40 11 -12 7 -35 11 -52 11 -23 -1 -41 10 -77 45 -45 45 -47 47 -28 60 11 8
20 21 20 29 0 24 50 -10 127 -88z m-717 -58 c6 -11 7 -20 2 -20 -10 0 -32 21
-32 32 0 16 19 8 30 -12z m430 -335 c68 -2 158 -31 195 -64 11 -10 99 -60 195
-111 96 -51 195 -106 220 -121 60 -36 224 -100 272 -106 21 -3 38 -7 38 -9 0
-2 -15 -28 -34 -57 -19 -29 -46 -82 -61 -118 -39 -94 -107 -221 -114 -214 -3
3 -15 33 -27 65 -43 120 -134 239 -211 278 -62 32 -141 46 -258 46 -237 2
-366 -86 -485 -329 -67 -137 -158 -373 -190 -493 -12 -45 -26 -82 -30 -82 -4
0 -29 24 -57 53 -43 45 -52 63 -72 139 -26 96 -24 94 -99 67 -39 -15 -50 -10
-62 27 -7 19 -32 66 -57 102 -64 95 -68 143 -13 146 35 2 184 143 299 281 146
175 271 339 271 354 0 6 26 45 58 86 l57 75 50 -7 c28 -3 79 -7 115 -8z m-360
-10459 c0 -3 -4 -8 -10 -11 -5 -3 -10 -1 -10 4 0 6 5 11 10 11 6 0 10 -2 10
-4z"/>
<path d="M5780 941 c0 -5 5 -13 10 -16 6 -3 10 -2 10 4 0 5 -4 13 -10 16 -5 3
-10 2 -10 -4z"/>
<path d="M5840 920 c0 -5 5 -10 11 -10 5 0 7 5 4 10 -3 6 -8 10 -11 10 -2 0
-4 -4 -4 -10z"/>
<path d="M5870 926 c0 -2 8 -10 18 -17 15 -13 16 -12 3 4 -13 16 -21 21 -21
13z"/>
<path d="M5860 889 c0 -5 5 -7 10 -4 6 3 10 8 10 11 0 2 -4 4 -10 4 -5 0 -10
-5 -10 -11z"/>
<path d="M7250 696 c0 -2 7 -6 15 -10 8 -3 15 -1 15 4 0 6 -7 10 -15 10 -8 0
-15 -2 -15 -4z"/>
</g>
</svg>
