<?xml version="1.0" standalone="no"?>
<!DOCTYPE svg PUBLIC "-//W3C//DTD SVG 20010904//EN"
 "http://www.w3.org/TR/2001/REC-SVG-20010904/DTD/svg10.dtd">
<svg version="1.0" xmlns="http://www.w3.org/2000/svg"
 width="995.000000pt" height="1280.000000pt" viewBox="0 0 995.000000 1280.000000"
 preserveAspectRatio="xMidYMid meet">
<g transform="translate(0.000000,1280.000000) scale(0.100000,-0.100000)"
fill="#000000" stroke="none">
<path d="M3430 12767 c0 -20 -5 -104 -11 -189 -10 -143 -12 -155 -36 -180
l-25 -26 26 -17 c35 -23 33 -32 -10 -50 -30 -12 -34 -18 -29 -37 10 -31 25
-48 41 -48 8 0 14 -2 14 -4 0 -18 -184 -654 -192 -663 -17 -21 -27 -15 -39 27
-9 31 -10 43 -1 52 16 16 15 58 -2 77 -9 10 -19 80 -31 201 -24 258 -28 258
-49 -5 -9 -112 -21 -205 -30 -226 -13 -31 -13 -39 -1 -56 12 -18 5 -39 -79
-219 -78 -166 -91 -200 -79 -209 12 -9 14 -55 13 -276 l-1 -266 60 -100 c120
-203 111 -165 111 -462 l0 -261 -26 -6 c-27 -7 -142 1 -181 12 -23 6 -23 6
-23 -119 l0 -126 28 -3 c46 -7 6 -15 -173 -35 l-170 -19 -102 100 -102 99
-228 -17 c-125 -9 -252 -19 -280 -22 l-53 -6 0 43 c0 23 6 50 13 58 35 42 40
93 24 242 -9 79 -19 173 -22 209 -5 55 -10 67 -28 75 -17 8 -23 22 -28 63 -4
29 -9 56 -12 58 -3 3 -29 -1 -58 -8 -54 -13 -54 -13 -55 -53 -2 -62 -3 -63
-25 -70 -19 -6 -20 -13 -17 -126 2 -65 0 -120 -4 -121 -5 0 -13 -1 -19 -2 -7
-1 -47 133 -99 329 -86 326 -87 330 -68 354 24 32 23 56 -5 68 -21 10 -25 21
-30 80 -4 37 -7 107 -7 154 0 65 -4 90 -15 99 -9 7 -17 11 -19 9 -2 -2 -9 -67
-16 -144 -6 -77 -18 -164 -26 -193 -12 -42 -12 -60 -3 -85 9 -27 7 -48 -16
-132 -36 -134 -179 -636 -215 -755 -16 -52 -38 -127 -49 -166 -16 -55 -26 -73
-42 -77 -15 -4 -20 -11 -15 -22 3 -9 6 -64 6 -121 l0 -104 30 0 c28 0 30 -3
30 -35 0 -29 -22 -65 -137 -219 l-138 -184 -3 46 c-2 26 -10 54 -19 64 -12 13
-13 26 -6 60 11 55 6 95 -13 102 -21 8 -93 -23 -105 -46 -9 -16 -6 -27 15 -56
26 -36 26 -52 1 -52 -22 0 -36 -35 -28 -72 13 -72 -9 -14 -43 108 -38 141 -39
194 -4 194 17 0 20 7 20 40 0 38 -2 40 -30 40 -25 0 -30 4 -30 25 0 23 -4 25
-43 25 -43 0 -43 -1 -39 -30 4 -28 2 -30 -27 -30 -29 0 -31 -3 -31 -34 0 -30
3 -35 28 -38 48 -5 41 -40 -66 -305 -126 -312 -119 -290 -87 -305 l25 -11 -2
-156 -3 -156 -27 -13 -28 -13 0 -112 0 -112 55 -62 56 -62 -4 -658 -3 -658
-132 -759 c-72 -418 -131 -761 -129 -762 1 -1 141 -51 312 -112 l310 -110 3
-410 2 -410 63 -6 c34 -4 131 -10 215 -15 85 -5 156 -11 158 -14 3 -3 -8 -29
-24 -58 l-29 -54 6 -605 c5 -510 8 -610 21 -635 16 -32 116 -111 332 -261 151
-105 201 -126 402 -171 118 -26 129 -27 521 -31 l400 -3 -3 -53 -4 -53 634 -6
c348 -4 842 -13 1098 -21 451 -14 468 -15 555 -41 130 -37 197 -88 262 -195
12 -20 54 -114 92 -209 75 -184 83 -197 181 -303 l62 -68 -7 -77 c-4 -43 -9
-86 -11 -95 -4 -13 20 -34 98 -85 57 -36 110 -66 118 -65 8 0 58 20 110 42 52
23 104 42 115 42 11 0 154 -65 318 -145 225 -111 297 -150 297 -164 1 -36 28
-274 32 -278 14 -14 394 -75 469 -75 28 0 94 -11 147 -24 53 -13 117 -27 142
-31 25 -4 62 -11 83 -16 36 -9 37 -11 37 -53 l0 -43 148 -11 c220 -18 268 -17
286 9 l14 21 229 -36 c125 -20 441 -70 702 -111 322 -51 502 -75 560 -75 l86
0 190 116 c105 64 196 122 203 128 10 10 5 104 -23 481 -68 921 -95 1295 -95
1309 0 8 -41 31 -97 56 -54 23 -102 46 -106 50 -4 3 1 26 12 51 30 65 26 106
-16 190 -73 143 -236 274 -388 312 -61 16 -261 46 -370 56 l-60 6 -7 385 c-14
799 -28 1691 -29 1849 l-2 164 27 16 c26 16 26 17 26 137 0 66 -3 162 -7 213
l-6 93 -42 -4 -42 -3 -170 200 c-187 220 -210 260 -174 299 l21 22 -24 35
c-18 27 -26 55 -31 116 -12 139 -36 142 -43 5 -3 -71 -8 -90 -24 -102 -16 -13
-17 -20 -9 -44 6 -15 11 -51 11 -79 l0 -52 -152 -188 -152 -187 -41 0 c-75 0
-74 1 -76 -233 0 -191 1 -210 18 -223 10 -7 22 -14 27 -14 9 0 1 -408 -7 -417
-2 -2 -157 51 -343 118 -186 67 -357 128 -380 136 l-41 14 -6 1225 -7 1224 76
176 76 175 6 191 c4 146 8 191 18 195 10 4 14 29 14 94 l0 89 -195 0 -195 0 0
294 0 295 32 52 c29 46 33 59 30 110 -3 45 0 60 11 65 12 4 14 35 9 204 l-5
199 34 3 c32 3 22 12 -289 282 -345 299 -336 290 -310 361 9 27 8 39 -10 76
-11 24 -26 85 -33 134 -13 96 -19 93 -34 -17 -4 -29 -13 -63 -21 -76 -12 -18
-14 -42 -9 -105 l7 -82 -36 -34 -36 -35 0 26 c0 18 -7 27 -22 32 -40 10 -85 6
-98 -9 -7 -8 -21 -15 -31 -15 -13 0 -19 -7 -19 -23 0 -13 -3 -27 -7 -31 -4 -4
-6 -38 -4 -75 l3 -68 -196 -164 c-107 -90 -195 -167 -195 -171 -1 -5 10 -8 24
-8 l25 0 0 -194 c0 -160 3 -196 15 -206 10 -9 15 -31 15 -72 0 -53 4 -66 36
-109 l36 -49 -3 -301 -4 -301 -202 7 -203 7 0 -81 c0 -63 3 -83 15 -87 13 -5
15 -37 15 -200 l0 -193 81 -183 c72 -164 80 -187 74 -226 l-6 -43 -82 3 -81 3
-9 39 c-6 24 -16 40 -28 43 -15 4 -19 15 -19 45 0 33 -3 39 -16 34 -9 -3 -28
-6 -44 -6 -26 0 -29 -4 -32 -37 -3 -32 -7 -38 -28 -41 -23 -3 -25 -7 -22 -37
l4 -35 -134 0 c-74 0 -189 3 -256 7 l-122 6 -6 34 -6 34 -66 -3 -65 -3 -12
-55 c-14 -68 -107 -352 -113 -346 -2 3 -1 46 3 95 5 68 11 91 21 91 25 0 17
58 -11 76 -23 15 -25 22 -25 94 l0 78 57 8 56 9 -56 65 -57 65 0 142 0 141 43
64 c32 48 48 64 70 66 15 2 27 8 27 13 0 5 -75 116 -167 247 l-167 237 -59
190 c-57 184 -59 194 -63 325 -5 139 -20 221 -48 261 l-16 23 0 -36 c0 -19
-11 -60 -24 -89 -12 -30 -22 -58 -21 -64 2 -5 8 -28 14 -50 11 -35 8 -57 -18
-174 -17 -73 -31 -134 -31 -136 0 -1 -9 -5 -20 -8 -18 -5 -20 0 -20 49 0 38
-7 69 -25 104 -24 47 -25 57 -25 225 l0 176 59 137 c56 130 59 143 65 243 l7
106 -47 7 c-26 3 -71 6 -100 6 l-54 0 0 269 0 269 50 131 c47 122 50 137 50
222 0 49 -4 99 -10 109 -6 12 -26 20 -60 25 l-50 7 0 113 0 113 -149 564 -150
563 21 22 c20 21 20 24 4 48 -9 14 -21 25 -26 25 -17 0 -11 26 10 45 l20 18
-20 22 c-18 19 -22 43 -31 176 -11 176 -19 213 -42 217 -13 3 -17 -4 -17 -31z"/>
</g>
</svg>
