<?xml version="1.0" encoding="UTF-8"?>
<!-- Created with Inkscape (http://www.inkscape.org/) -->
<svg width="500" height="500" version="1.1" viewBox="0 0 132.29 132.29" xmlns="http://www.w3.org/2000/svg" xmlns:cc="http://creativecommons.org/ns#" xmlns:dc="http://purl.org/dc/elements/1.1/" xmlns:rdf="http://www.w3.org/1999/02/22-rdf-syntax-ns#">
 <title>Mercurial Map</title>
 <defs>
  <marker id="t13neb" style="overflow:visible" orient="auto">
   <path transform="scale(-.8)" d="m5.77 0-8.65 5v-10l8.65 5z" style="fill-rule:evenodd;fill:context-stroke;stroke-width:1pt;stroke:context-stroke"/>
  </marker>
  <marker id="t13nea" style="overflow:visible" orient="auto">
   <path transform="scale(.8)" d="m0-7.0711-7.0711 7.0711 7.0711 7.0711 7.071-7.0711-7.071-7.0711z" style="fill-rule:evenodd;fill:context-fill;stroke-width:1pt;stroke:context-stroke"/>
  </marker>
  <marker id="t13ned" style="overflow:visible" orient="auto">
   <path transform="scale(.8) translate(7.4 1)" d="m-2.5-1c0 2.76-2.24 5-5 5s-5-2.24-5-5 2.24-5 5-5 5 2.24 5 5z" style="fill-rule:evenodd;fill:context-stroke;stroke-width:1pt;stroke:context-stroke"/>
  </marker>
  <marker id="t13nec" style="overflow:visible" orient="auto">
   <path transform="matrix(.8 0 0 .8 5.92 .8)" d="m-2.5-1c0 2.76-2.24 5-5 5s-5-2.24-5-5 2.24-5 5-5 5 2.24 5 5z" style="fill-rule:evenodd;fill:context-stroke;stroke-width:1pt;stroke:context-stroke"/>
  </marker>
 </defs>
 <g>
  <g style="fill:#e9afaf;stroke-width:.4;stroke:#824600">
   <g style="fill:#e9afaf;stroke-width:.4;stroke:#824600">
    <circle transform="rotate(30)" cx="90.872" cy="24.37" r="30.991" style="fill-opacity:0;mix-blend-mode:multiply;paint-order:stroke fill markers;stroke-width:.4;stroke:#824600"/>
    <circle transform="rotate(30)" cx="63.92" cy="39.93" r="15.368" style="fill-opacity:0;mix-blend-mode:multiply;paint-order:stroke fill markers;stroke-width:.4;stroke:#824600"/>
    <circle transform="rotate(30)" cx="63.92" cy="39.93" r="30.991" style="fill-opacity:0;mix-blend-mode:multiply;paint-order:stroke fill markers;stroke-width:.4;stroke:#824600"/>
    <circle transform="rotate(30)" cx="50.631" cy="47.603" r="15.368" style="fill-opacity:0;mix-blend-mode:multiply;paint-order:stroke fill markers;stroke-width:.4;stroke:#824600"/>
    <circle transform="rotate(30)" cx="50.631" cy="47.603" r="7.5585" style="fill-opacity:0;mix-blend-mode:multiply;paint-order:stroke fill markers;stroke-width:.4;stroke:#824600"/>
    <circle transform="rotate(30)" cx="77.21" cy="32.257" r="7.5585" style="fill-opacity:0;mix-blend-mode:multiply;paint-order:stroke fill markers;stroke-width:.4;stroke:#824600"/>
    <circle transform="rotate(30)" cx="84.084" cy="28.288" r="7.5585" style="fill-opacity:0;mix-blend-mode:multiply;paint-order:stroke fill markers;stroke-width:.4;stroke:#824600"/>
    <ellipse transform="matrix(.86603 .5 -.5 .86602 0 0)" cx="40.937" cy="53.43" rx="3.859" ry="3.859" style="fill-opacity:0;mix-blend-mode:multiply;paint-order:stroke fill markers;stroke-width:.4;stroke:#824600"/>
    <circle transform="rotate(30)" cx="77.21" cy="32.257" r="15.368" style="fill-opacity:0;mix-blend-mode:multiply;paint-order:stroke fill markers;stroke-width:.4;stroke:#824600"/>
    <circle transform="rotate(30)" cx="77.21" cy="32.257" r="26.771" style="fill-opacity:0;mix-blend-mode:multiply;paint-order:stroke fill markers;stroke-width:.4;stroke:#824600"/>
    <circle transform="rotate(30)" cx="90.674" cy="24.484" r="15.368" style="fill-opacity:0;mix-blend-mode:multiply;paint-order:stroke fill markers;stroke-width:.4;stroke:#824600"/>
   </g>
   <g transform="rotate(180 66.298 66.541)" style="fill:#e9afaf;stroke-width:.4;stroke:#824600">
    <circle transform="rotate(30)" cx="90.872" cy="24.37" r="30.991" style="fill-opacity:0;mix-blend-mode:multiply;paint-order:stroke fill markers;stroke-width:.4;stroke:#824600"/>
    <circle transform="rotate(30)" cx="63.92" cy="39.93" r="15.368" style="fill-opacity:0;mix-blend-mode:multiply;paint-order:stroke fill markers;stroke-width:.4;stroke:#824600"/>
    <circle transform="rotate(30)" cx="63.92" cy="39.93" r="30.991" style="fill-opacity:0;mix-blend-mode:multiply;paint-order:stroke fill markers;stroke-width:.4;stroke:#824600"/>
    <circle transform="rotate(30)" cx="50.631" cy="47.603" r="15.368" style="fill-opacity:0;mix-blend-mode:multiply;paint-order:stroke fill markers;stroke-width:.4;stroke:#824600"/>
    <circle transform="rotate(30)" cx="50.631" cy="47.603" r="7.5585" style="fill-opacity:0;mix-blend-mode:multiply;paint-order:stroke fill markers;stroke-width:.4;stroke:#824600"/>
    <circle transform="rotate(30)" cx="77.21" cy="32.257" r="7.5585" style="fill-opacity:0;mix-blend-mode:multiply;paint-order:stroke fill markers;stroke-width:.4;stroke:#824600"/>
    <circle transform="rotate(30)" cx="84.084" cy="28.288" r="7.5585" style="fill-opacity:0;mix-blend-mode:multiply;paint-order:stroke fill markers;stroke-width:.4;stroke:#824600"/>
    <ellipse transform="matrix(.86603 .5 -.5 .86602 0 0)" cx="40.937" cy="53.43" rx="3.859" ry="3.859" style="fill-opacity:0;mix-blend-mode:multiply;paint-order:stroke fill markers;stroke-width:.4;stroke:#824600"/>
    <circle transform="rotate(30)" cx="77.21" cy="32.257" r="15.368" style="fill-opacity:0;mix-blend-mode:multiply;paint-order:stroke fill markers;stroke-width:.4;stroke:#824600"/>
    <circle transform="rotate(30)" cx="77.21" cy="32.257" r="26.771" style="fill-opacity:0;mix-blend-mode:multiply;paint-order:stroke fill markers;stroke-width:.4;stroke:#824600"/>
    <circle transform="rotate(30)" cx="90.674" cy="24.484" r="15.368" style="fill-opacity:0;mix-blend-mode:multiply;paint-order:stroke fill markers;stroke-width:.4;stroke:#824600"/>
   </g>
  </g>
  <g transform="rotate(60 66.298 66.541)" style="fill:#e9afaf;stroke-width:.4;stroke:#824600">
   <g style="fill:#e9afaf;stroke-width:.4;stroke:#824600">
    <circle transform="rotate(30)" cx="90.872" cy="24.37" r="30.991" style="fill-opacity:0;mix-blend-mode:multiply;paint-order:stroke fill markers;stroke-width:.4;stroke:#824600"/>
    <circle transform="rotate(30)" cx="63.92" cy="39.93" r="15.368" style="fill-opacity:0;mix-blend-mode:multiply;paint-order:stroke fill markers;stroke-width:.4;stroke:#824600"/>
    <circle transform="rotate(30)" cx="63.92" cy="39.93" r="30.991" style="fill-opacity:0;mix-blend-mode:multiply;paint-order:stroke fill markers;stroke-width:.4;stroke:#824600"/>
    <circle transform="rotate(30)" cx="50.631" cy="47.603" r="15.368" style="fill-opacity:0;mix-blend-mode:multiply;paint-order:stroke fill markers;stroke-width:.4;stroke:#824600"/>
    <circle transform="rotate(30)" cx="50.631" cy="47.603" r="7.5585" style="fill-opacity:0;mix-blend-mode:multiply;paint-order:stroke fill markers;stroke-width:.4;stroke:#824600"/>
    <circle transform="rotate(30)" cx="77.21" cy="32.257" r="7.5585" style="fill-opacity:0;mix-blend-mode:multiply;paint-order:stroke fill markers;stroke-width:.4;stroke:#824600"/>
    <circle transform="rotate(30)" cx="84.084" cy="28.288" r="7.5585" style="fill-opacity:0;mix-blend-mode:multiply;paint-order:stroke fill markers;stroke-width:.4;stroke:#824600"/>
    <ellipse transform="matrix(.86603 .5 -.5 .86602 0 0)" cx="40.937" cy="53.43" rx="3.859" ry="3.859" style="fill-opacity:0;mix-blend-mode:multiply;paint-order:stroke fill markers;stroke-width:.4;stroke:#824600"/>
    <circle transform="rotate(30)" cx="77.21" cy="32.257" r="15.368" style="fill-opacity:0;mix-blend-mode:multiply;paint-order:stroke fill markers;stroke-width:.4;stroke:#824600"/>
    <circle transform="rotate(30)" cx="77.21" cy="32.257" r="26.771" style="fill-opacity:0;mix-blend-mode:multiply;paint-order:stroke fill markers;stroke-width:.4;stroke:#824600"/>
    <circle transform="rotate(30)" cx="90.674" cy="24.484" r="15.368" style="fill-opacity:0;mix-blend-mode:multiply;paint-order:stroke fill markers;stroke-width:.4;stroke:#824600"/>
   </g>
   <g transform="rotate(180 66.298 66.541)" style="fill:#e9afaf;stroke-width:.4;stroke:#824600">
    <circle transform="rotate(30)" cx="90.872" cy="24.37" r="30.991" style="fill-opacity:0;mix-blend-mode:multiply;paint-order:stroke fill markers;stroke-width:.4;stroke:#824600"/>
    <circle transform="rotate(30)" cx="63.92" cy="39.93" r="15.368" style="fill-opacity:0;mix-blend-mode:multiply;paint-order:stroke fill markers;stroke-width:.4;stroke:#824600"/>
    <circle transform="rotate(30)" cx="63.92" cy="39.93" r="30.991" style="fill-opacity:0;mix-blend-mode:multiply;paint-order:stroke fill markers;stroke-width:.4;stroke:#824600"/>
    <circle transform="rotate(30)" cx="50.631" cy="47.603" r="15.368" style="fill-opacity:0;mix-blend-mode:multiply;paint-order:stroke fill markers;stroke-width:.4;stroke:#824600"/>
    <circle transform="rotate(30)" cx="50.631" cy="47.603" r="7.5585" style="fill-opacity:0;mix-blend-mode:multiply;paint-order:stroke fill markers;stroke-width:.4;stroke:#824600"/>
    <circle transform="rotate(30)" cx="77.21" cy="32.257" r="7.5585" style="fill-opacity:0;mix-blend-mode:multiply;paint-order:stroke fill markers;stroke-width:.4;stroke:#824600"/>
    <circle transform="rotate(30)" cx="84.084" cy="28.288" r="7.5585" style="fill-opacity:0;mix-blend-mode:multiply;paint-order:stroke fill markers;stroke-width:.4;stroke:#824600"/>
    <ellipse transform="matrix(.86603 .5 -.5 .86602 0 0)" cx="40.937" cy="53.43" rx="3.859" ry="3.859" style="fill-opacity:0;mix-blend-mode:multiply;paint-order:stroke fill markers;stroke-width:.4;stroke:#824600"/>
    <circle transform="rotate(30)" cx="77.21" cy="32.257" r="15.368" style="fill-opacity:0;mix-blend-mode:multiply;paint-order:stroke fill markers;stroke-width:.4;stroke:#824600"/>
    <circle transform="rotate(30)" cx="77.21" cy="32.257" r="26.771" style="fill-opacity:0;mix-blend-mode:multiply;paint-order:stroke fill markers;stroke-width:.4;stroke:#824600"/>
    <circle transform="rotate(30)" cx="90.674" cy="24.484" r="15.368" style="fill-opacity:0;mix-blend-mode:multiply;paint-order:stroke fill markers;stroke-width:.4;stroke:#824600"/>
   </g>
  </g>
  <g transform="rotate(-60 66.298 66.541)" style="fill:#e9afaf;stroke-width:.4;stroke:#824600">
   <g style="fill:#e9afaf;stroke-width:.4;stroke:#824600">
    <circle transform="rotate(30)" cx="90.872" cy="24.37" r="30.991" style="fill-opacity:0;mix-blend-mode:multiply;paint-order:stroke fill markers;stroke-width:.4;stroke:#824600"/>
    <circle transform="rotate(30)" cx="63.92" cy="39.93" r="15.368" style="fill-opacity:0;mix-blend-mode:multiply;paint-order:stroke fill markers;stroke-width:.4;stroke:#824600"/>
    <circle transform="rotate(30)" cx="63.92" cy="39.93" r="30.991" style="fill-opacity:0;mix-blend-mode:multiply;paint-order:stroke fill markers;stroke-width:.4;stroke:#824600"/>
    <circle transform="rotate(30)" cx="50.631" cy="47.603" r="15.368" style="fill-opacity:0;mix-blend-mode:multiply;paint-order:stroke fill markers;stroke-width:.4;stroke:#824600"/>
    <circle transform="rotate(30)" cx="50.631" cy="47.603" r="7.5585" style="fill-opacity:0;mix-blend-mode:multiply;paint-order:stroke fill markers;stroke-width:.4;stroke:#824600"/>
    <circle transform="rotate(30)" cx="77.21" cy="32.257" r="7.5585" style="fill-opacity:0;mix-blend-mode:multiply;paint-order:stroke fill markers;stroke-width:.4;stroke:#824600"/>
    <circle transform="rotate(30)" cx="84.084" cy="28.288" r="7.5585" style="fill-opacity:0;mix-blend-mode:multiply;paint-order:stroke fill markers;stroke-width:.4;stroke:#824600"/>
    <ellipse transform="matrix(.86603 .5 -.5 .86602 0 0)" cx="40.937" cy="53.43" rx="3.859" ry="3.859" style="fill-opacity:0;mix-blend-mode:multiply;paint-order:stroke fill markers;stroke-width:.4;stroke:#824600"/>
    <circle transform="rotate(30)" cx="77.21" cy="32.257" r="15.368" style="fill-opacity:0;mix-blend-mode:multiply;paint-order:stroke fill markers;stroke-width:.4;stroke:#824600"/>
    <circle transform="rotate(30)" cx="77.21" cy="32.257" r="26.771" style="fill-opacity:0;mix-blend-mode:multiply;paint-order:stroke fill markers;stroke-width:.4;stroke:#824600"/>
    <circle transform="rotate(30)" cx="90.674" cy="24.484" r="15.368" style="fill-opacity:0;mix-blend-mode:multiply;paint-order:stroke fill markers;stroke-width:.4;stroke:#824600"/>
   </g>
   <g transform="rotate(180 66.298 66.541)" style="fill:#e9afaf;stroke-width:.4;stroke:#824600">
    <circle transform="rotate(30)" cx="90.872" cy="24.37" r="30.991" style="fill-opacity:0;mix-blend-mode:multiply;paint-order:stroke fill markers;stroke-width:.4;stroke:#824600"/>
    <circle transform="rotate(30)" cx="63.92" cy="39.93" r="15.368" style="fill-opacity:0;mix-blend-mode:multiply;paint-order:stroke fill markers;stroke-width:.4;stroke:#824600"/>
    <circle transform="rotate(30)" cx="63.92" cy="39.93" r="30.991" style="fill-opacity:0;mix-blend-mode:multiply;paint-order:stroke fill markers;stroke-width:.4;stroke:#824600"/>
    <circle transform="rotate(30)" cx="50.631" cy="47.603" r="15.368" style="fill-opacity:0;mix-blend-mode:multiply;paint-order:stroke fill markers;stroke-width:.4;stroke:#824600"/>
    <circle transform="rotate(30)" cx="50.631" cy="47.603" r="7.5585" style="fill-opacity:0;mix-blend-mode:multiply;paint-order:stroke fill markers;stroke-width:.4;stroke:#824600"/>
    <circle transform="rotate(30)" cx="77.21" cy="32.257" r="7.5585" style="fill-opacity:0;mix-blend-mode:multiply;paint-order:stroke fill markers;stroke-width:.4;stroke:#824600"/>
    <circle transform="rotate(30)" cx="84.084" cy="28.288" r="7.5585" style="fill-opacity:0;mix-blend-mode:multiply;paint-order:stroke fill markers;stroke-width:.4;stroke:#824600"/>
    <ellipse transform="matrix(.86603 .5 -.5 .86602 0 0)" cx="40.937" cy="53.43" rx="3.859" ry="3.859" style="fill-opacity:0;mix-blend-mode:multiply;paint-order:stroke fill markers;stroke-width:.4;stroke:#824600"/>
    <circle transform="rotate(30)" cx="77.21" cy="32.257" r="15.368" style="fill-opacity:0;mix-blend-mode:multiply;paint-order:stroke fill markers;stroke-width:.4;stroke:#824600"/>
    <circle transform="rotate(30)" cx="77.21" cy="32.257" r="26.771" style="fill-opacity:0;mix-blend-mode:multiply;paint-order:stroke fill markers;stroke-width:.4;stroke:#824600"/>
    <circle transform="rotate(30)" cx="90.674" cy="24.484" r="15.368" style="fill-opacity:0;mix-blend-mode:multiply;paint-order:stroke fill markers;stroke-width:.4;stroke:#824600"/>
   </g>
  </g>
  <circle transform="rotate(30)" cx="90.872" cy="24.37" r="46.432" style="fill-opacity:0;paint-order:stroke fill markers;stroke-width:.52917;stroke:#824600"/>
  <path transform="matrix(.21551 .12413 -.12442 .215 43.76 -18.205)" d="m250 500-216.51-125-6e-6 -250 216.51-125 216.51 125 1e-5 250z" style="fill-opacity:0;paint-order:stroke fill markers;stroke-width:2.129;stroke:#206212"/>
  <circle transform="rotate(30)" cx="90.872" cy="24.37" r="62.241" style="fill-opacity:0;paint-order:stroke fill markers;stroke-width:.52917;stroke:#206212"/>
  <circle transform="rotate(30)" cx="90.923" cy="24.383" r="31.009" style="fill-opacity:0;marker-mid:url(#t13nea);marker-start:url(#t13nea);paint-order:stroke fill markers;stroke-width:.52917;stroke:#206212"/>
  <path transform="matrix(-.21428 .12371 .12371 .21428 89.106 -17.92)" d="m250 500-108.25-187.5-108.25-187.5 216.51-1e-5h216.51l-108.25 187.5z" style="fill-opacity:0;marker-mid:url(#t13nea);marker-start:url(#t13nea);paint-order:stroke fill markers;stroke-width:2.1387;stroke:#206212"/>
  <path transform="matrix(-.12371 .21428 .21428 .12371 43.73 -17.78)" d="m250 500-108.25-187.5-108.25-187.5 216.51-1e-5h216.51l-108.25 187.5z" style="fill-opacity:0;marker-mid:url(#t13nea);marker-start:url(#t13nea);paint-order:stroke fill markers;stroke-width:2.1387;stroke:#206212"/>
  <path transform="matrix(-.12371 -.21428 .21428 -.12371 43.73 150.73)" d="m250 500-108.25-187.5-108.25-187.5 216.51-1e-5h216.51l-108.25 187.5z" style="fill-opacity:0;marker-mid:url(#t13nea);marker-start:url(#t13nea);paint-order:stroke fill markers;stroke-width:2.1387;stroke:#206212"/>
  <path transform="matrix(0 .24743 .24743 0 4.4682 4.7001)" d="m250 500-108.25-187.5-108.25-187.5 216.51-1e-5h216.51l-108.25 187.5z" style="fill-opacity:0;marker-mid:url(#t13nea);marker-start:url(#t13nea);paint-order:stroke fill markers;stroke-width:2.1387;stroke:#206212"/>
  <path transform="scale(.26458)" d="m453.32 369.05-120.01-34.28 34.306 120-86.79-89.691-30.29 121.08-30.317-121.07-86.77 89.71 34.28-120.01-120 34.306 89.691-86.79-121.08-30.29 121.07-30.317-89.71-86.77 120.01 34.28-34.306-120 86.79 89.691 30.29-121.08 30.317 121.07 86.77-89.71-34.28 120.01 120-34.306-89.691 86.79 121.08 30.29-121.07 30.317z" style="fill-opacity:0;paint-order:stroke fill markers;stroke-width:2.2677;stroke:#28486d"/>
  <path transform="scale(.26458)" d="m367.62 454.77-117.08 31.385-117.09-31.36-85.72-85.701-31.385-117.08 31.36-117.09 85.701-85.72 117.08-31.385 117.09 31.36 85.72 85.701 31.385 117.08-31.36 117.09-42.851 42.86z" style="fill-opacity:0;paint-order:stroke fill markers;stroke-width:2.2677;stroke:#28486d"/>
  <path transform="matrix(.25334 0 0 .25334 2.8178 2.8332)" d="m368.13 283.5-64.891-1.0668 33.382 55.657-55.664-33.369 1.081 64.891-31.522-56.731-31.509 56.738 1.0668-64.891-55.657 33.382 33.369-55.664-64.891 1.081 56.731-31.522-56.738-31.509 64.891 1.0668-33.382-55.657 55.664 33.369-1.081-64.891 31.522 56.731 31.509-56.738-1.0668 64.891 55.657-33.382-33.369 55.664 64.891-1.081-56.731 31.522z" style="fill-opacity:0;marker-mid:url(#t13nec);marker-start:url(#t13ned);paint-order:stroke fill markers;stroke-width:2.3684;stroke:#28486d"/>
  <rect x="35.112" y="35.112" width="62.4" height="62.414" style="fill-opacity:0;marker-mid:url(#t13neb);marker-start:url(#t13neb);paint-order:markers stroke fill;stroke-miterlimit:3.6;stroke-width:.7;stroke:#28486d"/>
  <rect transform="matrix(.49867 .86679 -.86526 .50133 0 0)" x="59.912" y="-55.267" width="61.906" height="61.81" style="fill-opacity:0;marker-mid:url(#t13neb);marker-start:url(#t13neb);paint-order:markers stroke fill;stroke-miterlimit:3.6;stroke-width:.7;stroke:#28486d"/>
  <rect transform="matrix(-.49689 .86781 .86422 .50312 0 0)" x="-6.7598" y="59.75" width="61.833" height="61.59" style="fill-opacity:0;marker-mid:url(#t13neb);marker-start:url(#t13neb);paint-order:markers stroke fill;stroke-miterlimit:3.6;stroke-width:.70001;stroke:#28486d"/>
  <path transform="matrix(.31999 0 0 .31999 -13.809 -13.476)" d="m300 250-49.517 0.1294 42.818 24.871-42.948-24.646 24.646 42.948-24.871-42.818-0.12941 49.517-0.1294-49.517-24.871 42.818 24.646-42.948-42.948 24.646 42.818-24.871-49.517-0.1294 49.517-0.12941-42.818-24.871 42.948 24.646-24.646-42.948 24.871 42.818 0.1294-49.517 0.12941 49.517 24.871-42.818-24.646 42.948 42.948-24.646-42.818 24.871z" style="fill-opacity:0;marker-mid:url(#t13nec);marker-start:url(#t13ned);paint-order:stroke fill markers;stroke-width:1.8751;stroke:#28486d"/>
 </g>
 <g>
  <path d="m63.576 4.7661 2.7944-2.8653 3.0214 2.9788-2.993 3.0072-3.0072-2.9504z" style="fill:#fff;stroke-width:.26458px;stroke:#000"/>
  <text x="65.193146" y="6.0458446" style="font-family:sans-serif;font-size:3.5278px;line-height:1.25;stroke-width:.26458" xml:space="preserve"><tspan x="65.193146" y="6.0458446" style="stroke-width:.26458">1</tspan></text>
  <path d="m32.936 14.359 1.0479-3.8551 3.9715 1.0349-1.0608 3.9844z" style="fill:#fff;stroke-width:.26458px;stroke:#000"/>
  <text x="34.320427" y="14.255978" style="font-family:sans-serif;font-size:3.5278px;line-height:1.25;stroke-width:.26458" xml:space="preserve"><tspan x="34.320427" y="14.255978" style="stroke-width:.26458">2</tspan></text>
  <path d="m94.85 11.526 3.9974-1.022 1.0996 4.075-4.0362 1.0479z" style="fill:#fff;stroke-width:.26458px;stroke:#000"/>
  <text transform="scale(.90857 1.1006)" x="104.87122" y="12.964251" style="font-family:sans-serif;font-size:3.2052px;line-height:1.25;stroke-width:.26458" xml:space="preserve"><tspan x="104.87122" y="12.964251" style="stroke-width:.26458">12</tspan></text>
  <text x="49.458294" y="18.301226" style="font-family:sans-serif;font-size:3.5278px;line-height:1.25;stroke-width:.26458" xml:space="preserve"><tspan x="49.458294" y="18.301226" style="stroke-width:.26458"/></text>
  <path d="m10.233 33.764 4.047-0.98285 0.92504 3.758-3.8158 1.2719z" style="fill:#fff;stroke-width:.26458px;stroke:#000"/>
  <text x="11.620773" y="36.538948" style="font-family:sans-serif;font-size:3.5278px;line-height:1.25;stroke-width:.26458" xml:space="preserve"><tspan x="11.620773" y="36.538948" style="stroke-width:.26458">3</tspan></text>
  <path d="m63.77 35.267 2.5439-2.8329 2.7751 2.5438-2.6595 3.0642z" style="fill:#fff;stroke-width:.26458px;stroke:#000"/>
  <text x="63.74321" y="36.828022" style="font-family:sans-serif;font-size:3.5278px;line-height:1.25;stroke-width:.26458" xml:space="preserve"><tspan x="63.74321" y="36.828022" style="stroke-width:.26458">13</tspan></text>
  <path d="m117.48 33.764 3.9314-0.98285 1.0407 3.8736-3.9314 1.0985z" style="fill:#fff;stroke-width:.26458px;stroke:#000"/>
  <text transform="scale(.90927 1.0998)" x="130.09334" y="33.223656" style="font-family:sans-serif;font-size:3.2077px;line-height:1.25;stroke-width:.26458" xml:space="preserve"><tspan x="130.09334" y="33.223656" style="stroke-width:.26458">11</tspan></text>
  <path d="m48.449 41.28 1.0407-4.047 4.1048 1.0407-1.0985 3.9892z" style="fill:#fff;stroke-width:.26458px;stroke:#000"/>
  <text transform="scale(.88912 1.1247)" x="55.082542" y="36.496925" style="font-family:sans-serif;font-size:3.1366px;line-height:1.25;stroke-width:.26458" xml:space="preserve"><tspan x="55.082542" y="36.496925" style="stroke-width:.26458">14</tspan></text>
  <path d="m79.553 38.389 3.8158-1.2719 1.0985 4.1049-4.047 1.1563z" style="fill:#fff;stroke-width:.26458px;stroke:#000"/>
  <text x="79.90004" y="41.106319" style="font-family:sans-serif;font-size:3.5278px;letter-spacing:-.66146px;line-height:1.25;stroke-width:.26458;word-spacing:-.0026458px" xml:space="preserve"><tspan x="79.90004" y="41.106319" style="stroke-width:.26458">24</tspan></text>
  <path d="m37.001 49.779 4.1627-1.0985 1.1563 3.9892-4.1627 1.0985z" style="fill:#fff;stroke-width:.26458px;stroke:#000"/>
  <text transform="scale(.9119 1.0966)" x="41.535225" y="47.923901" style="font-family:sans-serif;font-size:3.217px;line-height:1.25;stroke-width:.26458" xml:space="preserve"><tspan x="41.535225" y="47.923901" style="stroke-width:.26458">15</tspan></text>
  <path d="m90.538 52.669 1.2141-3.9314 3.9314 1.0407-1.0407 3.9314z" style="fill:#fff;stroke-width:.26458px;stroke:#000"/>
  <text transform="scale(.88547 1.1293)" x="103.17182" y="46.585888" style="font-family:sans-serif;font-size:3.1237px;line-height:1.25;stroke-width:.26458" xml:space="preserve"><tspan x="103.17182" y="46.585888" style="stroke-width:.26458">23</tspan></text>
  <text transform="scale(.88772 1.1265)" x="16.93232" y="45.685463" style="font-family:sans-serif;font-size:3.1317px;line-height:1.25;stroke-width:.26458" xml:space="preserve"><tspan x="16.93232" y="45.685463" style="stroke-width:.26458"/></text>
  <text transform="scale(.91492 1.093)" x="125.38373" y="48.925049" style="font-family:sans-serif;font-size:3.2276px;line-height:1.25;stroke-width:.26458" xml:space="preserve"><tspan x="125.38373" y="48.925049" style="stroke-width:.26458"/></text>
  <path d="m1.6188 66.66 2.8907-2.8907 3.0642 2.8329-3.0642 2.8329z" style="fill:#fff;stroke-width:.26458px;stroke:#000"/>
  <text transform="scale(.86074 1.1618)" x="3.8883681" y="58.372868" style="font-family:sans-serif;font-size:3.0365px;line-height:1.25;stroke-width:.26458" xml:space="preserve"><tspan x="3.8883681" y="58.372868" style="stroke-width:.26458">4</tspan></text>
  <path d="m32.55 66.545 2.9486-2.7751 2.7751 3.0064-2.6017 2.6017z" style="fill:#fff;stroke-width:.26458px;stroke:#000"/>
  <text transform="scale(.81068 1.2335)" x="41.883736" y="54.978016" style="font-family:sans-serif;font-size:2.8599px;line-height:1.25;stroke-width:.26458" xml:space="preserve"><tspan x="41.883736" y="54.978016" style="stroke-width:.26458">16</tspan></text>
  <path d="m94.469 66.603 2.8329-2.7751 3.0064 2.8907-2.7751 2.6595-2.8329-2.486-0.05782-0.17344" style="fill:#fff;stroke-width:.26458px;stroke:#000"/>
  <text transform="scale(.81565 1.226)" x="117.61102" y="55.361553" style="font-family:sans-serif;font-size:2.8774px;line-height:1.25;stroke-width:.26458" xml:space="preserve"><tspan x="117.61102" y="55.361553" style="stroke-width:.26458">22</tspan></text>
  <path d="m125.57 65.099 4.1048-1.0407 0.98285 3.9892-3.9314 1.0985z" style="fill:#fff;stroke-width:.26458px;stroke:#000"/>
  <text transform="scale(.92208 1.0845)" x="136.93811" y="62.745628" style="font-family:sans-serif;font-size:3.2529px;line-height:1.25;stroke-width:.26458" xml:space="preserve"><tspan x="136.93811" y="62.745628" style="stroke-width:.26458">10</tspan></text>
  <text transform="scale(.94603 1.057)" x="16.25058" y="77.71611" style="font-family:sans-serif;font-size:3.3374px;line-height:1.25;stroke-width:.26458" xml:space="preserve"><tspan x="16.25058" y="77.71611" style="stroke-width:.26458"/></text>
  <text transform="scale(.88487 1.1301)" x="129.0029" y="70.810692" style="font-family:sans-serif;font-size:3.1216px;line-height:1.25;stroke-width:.26458" xml:space="preserve"><tspan x="129.0029" y="70.810692" style="stroke-width:.26458"/></text>
  <path d="m37.059 83.195 1.1563-3.8736 3.9892 1.0985-1.0407 3.6423z" style="fill:#fff;stroke-width:.26458px;stroke:#000"/>
  <text transform="scale(.85645 1.1676)" x="44.363842" y="71.104134" style="font-family:sans-serif;font-size:3.0214px;line-height:1.25;stroke-width:.26458" xml:space="preserve"><tspan x="44.363842" y="71.104134" style="stroke-width:.26458">17</tspan></text>
  <path d="m90.596 80.305 3.9314-1.0985 1.2141 4.1627-3.9314 1.0985z" style="fill:#fff;stroke-width:.26458px;stroke:#000"/>
  <text transform="scale(.89787 1.1138)" x="101.72972" y="74.438835" style="font-family:sans-serif;font-size:3.1675px;line-height:1.25;stroke-width:.26458" xml:space="preserve"><tspan x="101.72972" y="74.438835" style="stroke-width:.26458">21</tspan></text>
  <path d="m48.507 91.868 3.9892-1.0985 1.2719 4.047-4.1627 1.0985z" style="fill:#fff;stroke-width:.26458px;stroke:#000"/>
  <text transform="scale(.86663 1.1539)" x="57.112858" y="82.070831" style="font-family:sans-serif;font-size:3.0573px;line-height:1.25;stroke-width:.26458" xml:space="preserve"><tspan x="57.112858" y="82.070831" style="stroke-width:.26458">18</tspan></text>
  <path d="m79.495 94.585 0.86722-3.8158 4.1048 1.1563-1.1563 3.9314z" style="fill:#fff;stroke-width:.26458px;stroke:#000"/>
  <text transform="scale(.88597 1.1287)" x="90.442307" y="83.748131" style="font-family:sans-serif;font-size:3.1255px;line-height:1.25;stroke-width:.26458" xml:space="preserve"><tspan x="90.442307" y="83.748131" style="stroke-width:.26458">20</tspan></text>
  <path d="m10.06 99.21 1.3297-4.1049 3.9314 0.98285-0.92504 4.047z" style="fill:#fff;stroke-width:.26458px;stroke:#000"/>
  <text transform="scale(.8991 1.1122)" x="13.385468" y="88.991707" style="font-family:sans-serif;font-size:3.1718px;line-height:1.25;stroke-width:.26458" xml:space="preserve"><tspan x="13.385468" y="88.991707" style="stroke-width:.26458">5</tspan></text>
  <path d="m63.712 97.649 2.7173-2.8907 2.8907 2.9486-2.8907 2.8329z" style="fill:#fff;stroke-width:.26458px;stroke:#000"/>
  <text transform="scale(.81747 1.2233)" x="79.457176" y="80.817848" style="font-family:sans-serif;font-size:2.8838px;line-height:1.25;stroke-width:.26458" xml:space="preserve"><tspan x="79.457176" y="80.817848" style="stroke-width:.26458">19</tspan></text>
  <path d="m117.25 99.21 4.1048 1.0407 1.1563-4.047-3.9314-0.98285z" style="fill:#fff;stroke-width:.26458px;stroke:#000"/>
  <text transform="scale(.9471 1.0559)" x="125.85844" y="93.907234" style="font-family:sans-serif;font-size:3.3412px;line-height:1.25;stroke-width:.26458" xml:space="preserve"><tspan x="125.85844" y="93.907234" style="stroke-width:.26458">9</tspan></text>
  <text transform="scale(.87643 1.141)" x="59.594582" y="101.74619" style="font-family:sans-serif;font-size:3.0918px;line-height:1.25;stroke-width:.26458" xml:space="preserve"><tspan x="59.594582" y="101.74619" style="stroke-width:.26458"/></text>
  <text transform="scale(.88445 1.1307)" x="89.590172" y="103.96094" style="font-family:sans-serif;font-size:3.1201px;line-height:1.25;stroke-width:.26458" xml:space="preserve"><tspan x="89.590172" y="103.96094" style="stroke-width:.26458"/></text>
  <path d="m33.07 118.69 3.758-1.0985 1.0985 4.1048-3.8736 0.98285z" style="fill:#fff;stroke-width:.26458px;stroke:#000"/>
  <text transform="scale(.90657 1.1031)" x="37.816322" y="110.17218" style="font-family:sans-serif;font-size:3.1982px;line-height:1.25;stroke-width:.26458" xml:space="preserve"><tspan x="37.816322" y="110.17218" style="stroke-width:.26458">6</tspan></text>
  <path d="m94.527 120.2 2.9486-2.9486 2.9486 2.9486-3.0064 2.8907z" style="fill:#fff;stroke-width:.26458px;stroke:#000"/>
  <text transform="scale(.85604 1.1682)" x="112.74725" y="103.93223" style="font-family:sans-serif;font-size:3.0199px;line-height:1.25;stroke-width:.26458" xml:space="preserve"><tspan x="112.74725" y="103.93223" style="stroke-width:.26458">8</tspan></text>
  <path d="m63.538 127.89 2.9486-2.7751 2.8907 3.0064-2.9486 2.8907z" style="fill:#fff;stroke-width:.26458px;stroke:#000"/>
  <text transform="scale(.87224 1.1465)" x="75.458298" y="112.7572" style="font-family:sans-serif;font-size:3.077px;line-height:1.25;stroke-width:.26458" xml:space="preserve"><tspan x="75.458298" y="112.7572" style="stroke-width:.26458">7</tspan></text>
  <text x="77.007751" y="25.353302" style="fill:#ffffff;font-family:sans-serif;font-size:3.5278px;line-height:1.25;stroke-width:.26458" xml:space="preserve"><tspan x="77.007751" y="25.353302" style="fill:#ffffff;stroke-width:.26458">1</tspan></text>
  <text x="107.15855" y="56.469524" style="fill:#ffffff;font-family:sans-serif;font-size:3.5278px;line-height:1.25;stroke-width:.26458" xml:space="preserve"><tspan x="107.15855" y="56.469524" style="fill:#ffffff;stroke-width:.26458">3</tspan></text>
  <text x="107.67318" y="79.353996" style="fill:#ffffff;font-family:sans-serif;font-size:3.5278px;line-height:1.25;stroke-width:.26458" xml:space="preserve"><tspan x="107.67318" y="79.353996" style="fill:#ffffff;stroke-width:.26458">4</tspan></text>
  <text x="96.54702" y="36.073551" style="fill:#ffffff;font-family:sans-serif;font-size:3.5278px;line-height:1.25;stroke-width:.26458" xml:space="preserve"><tspan x="96.54702" y="36.073551" style="fill:#ffffff;stroke-width:.26458">2</tspan></text>
  <text x="57.397251" y="38.101307" style="fill:#ffffff;font-family:sans-serif;font-size:3.5278px;line-height:1.25;stroke-width:.26458" xml:space="preserve"><tspan x="57.397251" y="38.101307" style="fill:#ffffff;stroke-width:.26458">1</tspan></text>
  <text x="72.935585" y="37.937782" style="fill:#ffffff;font-family:sans-serif;font-size:3.5278px;line-height:1.25;stroke-width:.26458" xml:space="preserve"><tspan x="72.935585" y="37.937782" style="fill:#ffffff;stroke-width:.26458">2</tspan></text>
  <text x="42.275768" y="46.114029" style="fill:#ffffff;font-family:sans-serif;font-size:3.5278px;line-height:1.25;stroke-width:.26458" xml:space="preserve"><tspan x="42.275768" y="46.114029" style="fill:#ffffff;stroke-width:.26458">12</tspan></text>
  <text x="86.995262" y="45.950504" style="fill:#ffffff;font-family:sans-serif;font-size:3.5278px;line-height:1.25;stroke-width:.26458" xml:space="preserve"><tspan x="86.995262" y="45.950504" style="fill:#ffffff;stroke-width:.26458">3</tspan></text>
  <text x="64.024582" y="52.164455" style="fill:#ffffff;font-family:sans-serif;font-size:3.5278px;line-height:1.25;stroke-width:.26458" xml:space="preserve"><tspan x="64.024582" y="52.164455" style="fill:#ffffff;stroke-width:.26458">13</tspan></text>
  <text x="56.08905" y="54.126751" style="fill:#ffffff;font-family:sans-serif;font-size:3.5278px;line-height:1.25;stroke-width:.26458" xml:space="preserve"><tspan x="56.08905" y="54.126751" style="fill:#ffffff;stroke-width:.26458">24</tspan></text>
  <text x="72.114494" y="53.963223" style="fill:#ffffff;font-family:sans-serif;font-size:3.5278px;line-height:1.25;stroke-width:.26458" xml:space="preserve"><tspan x="72.114494" y="53.963223" style="fill:#ffffff;stroke-width:.26458">14</tspan></text>
  <text x="96.279564" y="98.670753" style="fill:#ffffff;font-family:sans-serif;font-size:3.5278px;line-height:1.25;stroke-width:.26458" xml:space="preserve"><tspan x="96.279564" y="98.670753" style="fill:#ffffff;stroke-width:.26458">5</tspan></text>
  <text x="76.291817" y="109.90408" style="fill:#ffffff;font-family:sans-serif;font-size:3.5278px;line-height:1.25;stroke-width:.26458" xml:space="preserve"><tspan x="76.291817" y="109.90408" style="fill:#ffffff;stroke-width:.26458">6</tspan></text>
  <text x="34.176712" y="60.17717" style="fill:#ffffff;font-family:sans-serif;font-size:3.5278px;line-height:1.25;stroke-width:.26458" xml:space="preserve"><tspan x="34.176712" y="60.17717" style="fill:#ffffff;stroke-width:.26458">11</tspan></text>
  <text x="65.074028" y="67.729019" style="fill:#ffffff;font-family:sans-serif;font-size:3.5278px;line-height:1.25;stroke-width:.26458" xml:space="preserve"><tspan x="65.074028" y="67.729019" style="fill:#ffffff;stroke-width:.26458">0</tspan></text>
  <text x="50.365673" y="60.013649" style="fill:#ffffff;font-family:sans-serif;font-size:3.5278px;line-height:1.25;stroke-width:.26458" xml:space="preserve"><tspan x="50.365673" y="60.013649" style="fill:#ffffff;stroke-width:.26458">23</tspan></text>
  <text x="77.510811" y="60.177174" style="fill:#ffffff;font-family:sans-serif;font-size:3.5278px;line-height:1.25;stroke-width:.26458" xml:space="preserve"><tspan x="77.510811" y="60.177174" style="fill:#ffffff;stroke-width:.26458">15</tspan></text>
  <text x="95.248695" y="59.6866" style="fill:#ffffff;font-family:sans-serif;font-size:3.5278px;line-height:1.25;stroke-width:.26458" xml:space="preserve"><tspan x="95.248695" y="59.6866" style="fill:#ffffff;stroke-width:.26458">4</tspan></text>
  <text x="47.912804" y="68.189896" style="fill:#ffffff;font-family:sans-serif;font-size:3.5278px;line-height:1.25;stroke-width:.26458" xml:space="preserve"><tspan x="47.912804" y="68.189896" style="fill:#ffffff;stroke-width:.26458">22</tspan></text>
  <text x="79.636642" y="67.862839" style="fill:#ffffff;font-family:sans-serif;font-size:3.5278px;line-height:1.25;stroke-width:.26458" xml:space="preserve"><tspan x="79.636642" y="67.862839" style="fill:#ffffff;stroke-width:.26458">16</tspan></text>
  <text x="34.340233" y="76.202614" style="fill:#ffffff;font-family:sans-serif;font-size:3.5278px;line-height:1.25;stroke-width:.26458" xml:space="preserve"><tspan x="34.340233" y="76.202614" style="fill:#ffffff;stroke-width:.26458">10</tspan></text>
  <text x="50.529198" y="75.875572" style="fill:#ffffff;font-family:sans-serif;font-size:3.5278px;line-height:1.25;stroke-width:.26458" xml:space="preserve"><tspan x="50.529198" y="75.875572" style="fill:#ffffff;stroke-width:.26458">21</tspan></text>
  <text x="78.001389" y="75.875565" style="fill:#ffffff;font-family:sans-serif;font-size:3.5278px;line-height:1.25;stroke-width:.26458" xml:space="preserve"><tspan x="78.001389" y="75.875565" style="fill:#ffffff;stroke-width:.26458">17</tspan></text>
  <text x="95.085167" y="76.039085" style="fill:#ffffff;font-family:sans-serif;font-size:3.5278px;line-height:1.25;stroke-width:.26458" xml:space="preserve"><tspan x="95.085167" y="76.039085" style="fill:#ffffff;stroke-width:.26458">5</tspan></text>
  <text x="54.348495" y="110.35689" style="fill:#ffffff;font-family:sans-serif;font-size:3.5278px;line-height:1.25;stroke-width:.26458" xml:space="preserve"><tspan x="54.348495" y="110.35689" style="fill:#ffffff;stroke-width:.26458">7</tspan></text>
  <text x="56.252575" y="81.59893" style="fill:#ffffff;font-family:sans-serif;font-size:3.5278px;line-height:1.25;stroke-width:.26458" xml:space="preserve"><tspan x="56.252575" y="81.59893" style="fill:#ffffff;stroke-width:.26458">20</tspan></text>
  <text x="64.265297" y="83.724762" style="fill:#ffffff;font-family:sans-serif;font-size:3.5278px;line-height:1.25;stroke-width:.26458" xml:space="preserve"><tspan x="64.265297" y="83.724762" style="fill:#ffffff;stroke-width:.26458">19</tspan></text>
  <text x="72.114494" y="81.762466" style="fill:#ffffff;font-family:sans-serif;font-size:3.5278px;line-height:1.25;stroke-width:.26458" xml:space="preserve"><tspan x="72.114494" y="81.762466" style="fill:#ffffff;stroke-width:.26458">18</tspan></text>
  <text x="34.044113" y="99.153008" style="fill:#ffffff;font-family:sans-serif;font-size:3.5278px;line-height:1.25;stroke-width:.26458" xml:space="preserve"><tspan x="34.044113" y="99.153008" style="fill:#ffffff;stroke-width:.26458">8</tspan></text>
  <text x="43.120502" y="89.914665" style="fill:#ffffff;font-family:sans-serif;font-size:3.5278px;line-height:1.25;stroke-width:.26458" xml:space="preserve"><tspan x="43.120502" y="89.914665" style="fill:#ffffff;stroke-width:.26458">9</tspan></text>
  <text x="87.072441" y="89.938705" style="fill:#ffffff;font-family:sans-serif;font-size:3.5278px;line-height:1.25;stroke-width:.26458" xml:space="preserve"><tspan x="87.072441" y="89.938705" style="fill:#ffffff;stroke-width:.26458">6</tspan></text>
  <text x="57.474438" y="97.78791" style="fill:#ffffff;font-family:sans-serif;font-size:3.5278px;line-height:1.25;stroke-width:.26458" xml:space="preserve"><tspan x="57.474438" y="97.78791" style="fill:#ffffff;stroke-width:.26458">8</tspan></text>
  <text x="73.372612" y="97.763863" style="fill:#ffffff;font-family:sans-serif;font-size:3.5278px;line-height:1.25;stroke-width:.26458" xml:space="preserve"><tspan x="73.372612" y="97.763863" style="fill:#ffffff;stroke-width:.26458">7</tspan></text>
  <text x="23.52545" y="79.20369" style="fill:#ffffff;font-family:sans-serif;font-size:3.5278px;line-height:1.25;stroke-width:.26458" xml:space="preserve"><tspan x="23.52545" y="79.20369" style="fill:#ffffff;stroke-width:.26458">9</tspan></text>
  <text transform="scale(.83905 1.1918)" x="26.736076" y="47.382874" style="fill:#ffffff;font-family:sans-serif;font-size:2.96px;line-height:1.25;stroke-width:.26458" xml:space="preserve"><tspan x="26.736076" y="47.382874" style="fill:#ffffff;stroke-width:.26458">10</tspan></text>
  <text transform="scale(.75294 1.3281)" x="45.104145" y="27.547571" style="fill:#ffffff;font-family:sans-serif;font-size:2.6562px;line-height:1.25;stroke-width:.26458" xml:space="preserve"><tspan x="45.104145" y="27.547571" style="fill:#ffffff;stroke-width:.26458">11</tspan></text>
  <text transform="scale(.75294 1.3281)" x="71.522034" y="19.224957" style="fill:#ffffff;font-family:sans-serif;font-size:2.6562px;line-height:1.25;stroke-width:.26458" xml:space="preserve"><tspan x="71.522034" y="19.224957" style="fill:#ffffff;stroke-width:.26458">12</tspan></text>
 </g>
 <metadata>
  <rdf:RDF>
   <cc:Work rdf:about="">
    <dc:title>Mercurial Map</dc:title>
   </cc:Work>
  </rdf:RDF>
 </metadata>
</svg>
