<?xml version="1.0" encoding="utf-8"?>
<!-- Generator: Adobe Illustrator 16.0.0, SVG Export Plug-In . SVG Version: 6.00 Build 0)  -->
<!DOCTYPE svg PUBLIC "-//W3C//DTD SVG 1.1//EN" "http://www.w3.org/Graphics/SVG/1.1/DTD/svg11.dtd">
<svg version="1.1" id="Layer_1" xmlns="http://www.w3.org/2000/svg" xmlns:xlink="http://www.w3.org/1999/xlink" x="0px" y="0px"
	 width="612px" height="792px" viewBox="0 0 612 792" enable-background="new 0 0 612 792" xml:space="preserve">
<g>
	<circle cx="173.383" cy="265.702" r="36"/>
	<g>
		<g>
			<g>
				<g>
					<path d="M211.038,271.744c0,0,1.572,0.055,3.145,0.11c1.577,0.026,3.153,0.052,3.153,0.052
						c0.221,0.002,0.436-0.221,0.476-0.495c0,0,0.11-0.653,0.175-1.309c0.037-0.658,0.075-1.316,0.075-1.316
						c0.015-0.276-0.151-0.536-0.368-0.577c0,0-1.551-0.28-3.101-0.56c-1.552-0.251-3.104-0.502-3.104-0.502l0.07-1.446h-11
						c0,0-0.091,1.335-0.137,2.674c-0.195,1.319-0.391,2.637-0.391,2.637l10.791,2.135L211.038,271.744z"/>
				</g>
				<g>
					<path d="M209.141,278.978c0,0,1.531,0.362,3.063,0.725c1.541,0.334,3.082,0.669,3.082,0.669
						c0.216,0.045,0.471-0.131,0.565-0.393c0,0,0.056-0.156,0.14-0.389c0.08-0.235,0.207-0.541,0.281-0.864
						c0.168-0.64,0.337-1.28,0.337-1.28c0.07-0.269-0.041-0.556-0.246-0.639c0,0-1.465-0.577-2.93-1.155
						c-1.473-0.548-2.945-1.097-2.945-1.097s0.376-1.4,0.334-1.409l-10.791-2.135c0,0-0.005,0.084-0.038,0.226
						c-0.038,0.141-0.092,0.341-0.157,0.582c-0.123,0.484-0.287,1.128-0.45,1.773c-0.448,1.252-0.896,2.504-0.896,2.504
						l10.161,4.213L209.141,278.978z"/>
				</g>
				<g>
					<path d="M205.86,285.698c0,0,1.431,0.655,2.861,1.311c1.445,0.63,2.89,1.26,2.89,1.26c0.203,0.087,0.487-0.037,0.629-0.274
						c0,0,0.357-0.557,0.661-1.144c0.29-0.594,0.581-1.188,0.581-1.188c0.121-0.25,0.069-0.553-0.116-0.674
						c0,0-1.323-0.854-2.647-1.708c-1.336-0.827-2.672-1.654-2.672-1.654s0.642-1.3,0.603-1.316l-10.161-4.213
						c0,0-0.023,0.081-0.08,0.214c-0.065,0.13-0.157,0.317-0.269,0.541c-0.215,0.451-0.502,1.051-0.79,1.652
						c-0.686,1.144-1.371,2.287-1.371,2.287l9.141,6.119L205.86,285.698z"/>
				</g>
				<g>
					<path d="M201.334,291.647c0,0,1.275,0.921,2.55,1.841c1.294,0.899,2.589,1.798,2.589,1.798
						c0.182,0.125,0.483,0.059,0.668-0.147c0,0,0.438-0.493,0.876-0.987c0.398-0.526,0.797-1.052,0.797-1.052
						c0.167-0.221,0.174-0.529,0.017-0.684c0,0-1.132-1.096-2.264-2.191c-1.149-1.072-2.299-2.145-2.299-2.145
						c0,0,0.877-1.153,0.853-1.169l-9.141-6.119c0,0-0.034,0.077-0.128,0.189c-0.088,0.116-0.215,0.282-0.367,0.481
						c-0.298,0.402-0.696,0.938-1.094,1.475c-0.896,0.991-1.792,1.981-1.792,1.981l7.778,7.778L201.334,291.647z"/>
				</g>
				<g>
					<path d="M195.739,296.604c0,0,1.071,1.15,2.143,2.3c1.095,1.132,2.189,2.265,2.189,2.265c0.155,0.158,0.463,0.15,0.684-0.016
						c0,0,0.526-0.398,1.052-0.797c0.504-0.425,0.989-0.874,0.989-0.874c0.206-0.185,0.272-0.487,0.147-0.669
						c0,0-0.898-1.295-1.796-2.59c-0.92-1.275-1.84-2.551-1.84-2.551l1.07-0.976l-7.778-7.778c0,0-0.991,0.896-1.982,1.792
						c-0.536,0.397-1.072,0.795-1.475,1.094c-0.199,0.152-0.365,0.279-0.48,0.367c-0.113,0.094-0.19,0.128-0.19,0.128l6.12,9.141
						C194.609,297.465,195.739,296.605,195.739,296.604z"/>
				</g>
				<g>
					<path d="M189.283,300.379c0,0,0.826,1.336,1.653,2.673c0.853,1.324,1.706,2.647,1.706,2.647
						c0.121,0.185,0.424,0.237,0.674,0.116c0,0,0.594-0.291,1.188-0.581c0.303-0.136,0.576-0.324,0.791-0.446
						c0.213-0.127,0.354-0.212,0.354-0.212c0.237-0.143,0.361-0.426,0.274-0.629c0,0-0.629-1.446-1.258-2.892
						c-0.654-1.431-1.309-2.861-1.309-2.861l1.237-0.754l-6.12-9.141c0,0-1.144,0.685-2.287,1.37
						c-0.601,0.288-1.202,0.575-1.652,0.79c-0.224,0.111-0.41,0.204-0.541,0.269c-0.134,0.057-0.214,0.08-0.214,0.08l4.213,10.161
						C188.008,301.007,189.283,300.379,189.283,300.379z"/>
				</g>
				<g>
					<path d="M182.209,302.813c0,0,0.548,1.473,1.096,2.945c0.576,1.466,1.152,2.931,1.152,2.931
						c0.082,0.205,0.37,0.315,0.638,0.246c0,0,0.64-0.168,1.28-0.336c0.323-0.074,0.631-0.196,0.865-0.278
						c0.233-0.084,0.389-0.14,0.389-0.14c0.261-0.094,0.438-0.349,0.393-0.565c0,0-0.333-1.541-0.667-3.083
						c-0.362-1.532-0.723-3.063-0.723-3.063l1.36-0.5l-4.213-10.161c0,0-1.252,0.448-2.504,0.896
						c-0.645,0.164-1.29,0.328-1.773,0.45c-0.241,0.065-0.442,0.12-0.582,0.157c-0.142,0.033-0.226,0.038-0.226,0.038l2.135,10.791
						C180.837,303.181,182.209,302.813,182.209,302.813z"/>
				</g>
				<g>
					<path d="M174.8,303.809c0,0,0.25,1.552,0.5,3.104c0.279,1.551,0.558,3.101,0.558,3.101c0.041,0.217,0.3,0.383,0.576,0.368
						c0,0,0.658-0.038,1.316-0.075c0.657-0.059,1.309-0.172,1.309-0.172c0.274-0.041,0.498-0.255,0.496-0.476
						c0,0-0.025-1.577-0.05-3.153c-0.054-1.572-0.108-3.145-0.108-3.145l1.432-0.221l-2.135-10.791c0,0-1.318,0.196-2.637,0.392
						c-1.338,0.045-2.674,0.136-2.674,0.136v11L174.8,303.809z"/>
				</g>
				<g>
					<path d="M167.341,303.356c0,0-0.055,1.572-0.11,3.145c-0.026,1.577-0.052,3.153-0.052,3.153
						c-0.002,0.221,0.221,0.436,0.495,0.476c0,0,0.653,0.11,1.309,0.175c0.658,0.037,1.316,0.075,1.316,0.075
						c0.276,0.015,0.536-0.151,0.576-0.368c0,0,0.28-1.551,0.56-3.101c0.251-1.552,0.502-3.104,0.502-3.104l1.446,0.07v-11
						c0,0-1.336-0.091-2.674-0.136c-1.318-0.196-2.637-0.392-2.637-0.392l-2.135,10.791L167.341,303.356z"/>
				</g>
				<g>
					<path d="M160.107,301.459c0,0-0.363,1.531-0.725,3.063c-0.334,1.541-0.669,3.082-0.669,3.082
						c-0.045,0.216,0.131,0.471,0.393,0.564c0,0,0.156,0.056,0.389,0.14c0.235,0.08,0.541,0.207,0.864,0.281
						c0.64,0.168,1.28,0.337,1.28,0.337c0.269,0.07,0.556-0.041,0.639-0.246c0,0,0.577-1.465,1.154-2.93
						c0.549-1.473,1.098-2.945,1.098-2.945s1.4,0.376,1.409,0.334l2.135-10.791c0,0-0.084-0.005-0.226-0.038
						c-0.141-0.038-0.341-0.092-0.583-0.157c-0.483-0.123-1.128-0.287-1.772-0.45c-1.252-0.448-2.504-0.896-2.504-0.896
						l-4.213,10.161L160.107,301.459z"/>
				</g>
				<g>
					<path d="M153.386,298.179c0,0-0.655,1.43-1.311,2.861c-0.63,1.445-1.26,2.89-1.26,2.89c-0.087,0.203,0.037,0.487,0.274,0.629
						c0,0,0.557,0.357,1.144,0.66c0.594,0.291,1.188,0.581,1.188,0.581c0.25,0.121,0.553,0.068,0.674-0.116
						c0,0,0.854-1.323,1.707-2.646c0.828-1.336,1.655-2.672,1.655-2.672s1.3,0.642,1.316,0.603l4.213-10.161
						c0,0-0.081-0.023-0.214-0.08c-0.13-0.065-0.317-0.158-0.541-0.269c-0.451-0.215-1.051-0.502-1.652-0.79
						c-1.144-0.685-2.287-1.37-2.287-1.37l-6.119,9.141L153.386,298.179z"/>
				</g>
				<g>
					<path d="M147.438,293.653c0,0-0.921,1.275-1.841,2.55c-0.899,1.294-1.798,2.588-1.798,2.588
						c-0.125,0.182-0.059,0.484,0.147,0.669c0,0,0.493,0.438,0.986,0.876c0.526,0.399,1.053,0.797,1.053,0.797
						c0.221,0.167,0.529,0.174,0.684,0.017c0,0,1.096-1.132,2.191-2.264c1.072-1.149,2.145-2.299,2.145-2.299
						c0,0,1.153,0.877,1.169,0.853l6.119-9.141c0,0-0.077-0.034-0.189-0.128c-0.116-0.088-0.282-0.215-0.481-0.367
						c-0.402-0.298-0.938-0.696-1.475-1.094c-0.991-0.896-1.981-1.792-1.981-1.792l-7.778,7.778L147.438,293.653z"/>
				</g>
				<g>
					<path d="M142.48,288.057c0,0-1.15,1.072-2.3,2.143c-1.132,1.095-2.265,2.19-2.265,2.19c-0.158,0.154-0.15,0.462,0.016,0.684
						c0,0,0.398,0.526,0.797,1.053c0.425,0.504,0.874,0.989,0.874,0.989c0.185,0.205,0.487,0.271,0.669,0.147
						c0,0,1.295-0.898,2.59-1.796c1.275-0.919,2.551-1.839,2.551-1.839l0.976,1.07l7.778-7.778c0,0-0.896-0.991-1.792-1.981
						c-0.397-0.536-0.795-1.072-1.094-1.475c-0.152-0.199-0.279-0.365-0.367-0.48c-0.094-0.113-0.128-0.19-0.128-0.19l-9.141,6.119
						C141.62,286.927,142.48,288.058,142.48,288.057z"/>
				</g>
				<g>
					<path d="M138.706,281.602c0,0-1.336,0.826-2.673,1.652c-1.324,0.853-2.647,1.706-2.647,1.706
						c-0.185,0.121-0.237,0.424-0.116,0.674c0,0,0.291,0.594,0.581,1.188c0.135,0.302,0.324,0.575,0.446,0.791
						c0.127,0.212,0.212,0.354,0.212,0.354c0.143,0.237,0.426,0.361,0.629,0.274c0,0,1.446-0.629,2.892-1.258
						c1.431-0.655,2.861-1.309,2.861-1.309l0.754,1.237l9.141-6.119c0,0-0.685-1.144-1.37-2.287
						c-0.288-0.601-0.575-1.201-0.79-1.652c-0.111-0.224-0.204-0.41-0.269-0.541c-0.057-0.134-0.08-0.214-0.08-0.214l-10.161,4.214
						C138.078,280.327,138.706,281.602,138.706,281.602z"/>
				</g>
				<g>
					<path d="M136.272,274.528c0,0-1.473,0.548-2.945,1.095c-1.466,0.576-2.931,1.153-2.931,1.153
						c-0.205,0.082-0.315,0.37-0.246,0.638c0,0,0.168,0.64,0.336,1.28c0.074,0.323,0.196,0.631,0.278,0.865
						c0.084,0.234,0.14,0.389,0.14,0.389c0.094,0.261,0.349,0.438,0.565,0.393c0,0,1.541-0.333,3.083-0.667
						c1.532-0.361,3.063-0.723,3.063-0.723l0.5,1.36l10.161-4.214c0,0-0.448-1.252-0.896-2.504c-0.164-0.645-0.328-1.289-0.45-1.772
						c-0.065-0.241-0.119-0.442-0.157-0.583c-0.033-0.142-0.038-0.226-0.038-0.226l-10.791,2.135
						C135.904,273.156,136.272,274.528,136.272,274.528z"/>
				</g>
				<g>
					<path d="M135.276,267.119c0,0-1.552,0.25-3.104,0.5c-1.551,0.279-3.101,0.558-3.101,0.558c-0.217,0.041-0.383,0.3-0.368,0.576
						c0,0,0.037,0.658,0.074,1.316c0.059,0.656,0.172,1.309,0.172,1.309c0.041,0.274,0.255,0.497,0.476,0.495
						c0,0,1.576-0.024,3.153-0.049c1.573-0.054,3.145-0.108,3.145-0.108l0.221,1.432l10.791-2.135c0,0-0.196-1.318-0.391-2.637
						c-0.045-1.338-0.137-2.674-0.137-2.674l-11,0L135.276,267.119z"/>
				</g>
				<g>
					<path d="M135.729,259.659c0,0-1.572-0.055-3.145-0.11c-1.577-0.026-3.153-0.052-3.153-0.052
						c-0.221-0.002-0.436,0.221-0.476,0.495c0,0-0.11,0.653-0.175,1.309c-0.037,0.658-0.075,1.316-0.075,1.316
						c-0.015,0.276,0.151,0.536,0.368,0.576c0,0,1.551,0.28,3.101,0.56c1.552,0.251,3.104,0.502,3.104,0.502l-0.07,1.446l11,0
						c0,0,0.091-1.335,0.136-2.674c0.196-1.318,0.392-2.637,0.392-2.637l-10.791-2.135L135.729,259.659z"/>
				</g>
				<g>
					<path d="M137.625,252.425c0,0-1.531-0.362-3.063-0.725c-1.541-0.335-3.082-0.669-3.082-0.669
						c-0.216-0.045-0.471,0.131-0.564,0.392c0,0-0.056,0.156-0.14,0.389c-0.08,0.235-0.207,0.542-0.281,0.864
						c-0.168,0.64-0.337,1.28-0.337,1.28c-0.07,0.269,0.041,0.556,0.246,0.639c0,0,1.465,0.578,2.93,1.155
						c1.473,0.549,2.945,1.098,2.945,1.098s-0.376,1.4-0.334,1.409l10.791,2.135c0,0,0.005-0.084,0.038-0.226
						c0.038-0.141,0.092-0.341,0.157-0.583c0.123-0.483,0.287-1.128,0.45-1.772c0.448-1.252,0.896-2.505,0.896-2.505l-10.161-4.213
						L137.625,252.425z"/>
				</g>
				<g>
					<path d="M140.906,245.705c0,0-1.43-0.655-2.86-1.311c-1.445-0.63-2.891-1.261-2.891-1.261
						c-0.203-0.087-0.487,0.037-0.629,0.274c0,0-0.357,0.557-0.66,1.144c-0.291,0.594-0.581,1.188-0.581,1.188
						c-0.121,0.249-0.069,0.553,0.116,0.674c0,0,1.323,0.854,2.646,1.708c1.336,0.827,2.672,1.655,2.672,1.655
						s-0.641,1.3-0.603,1.316l10.161,4.213c0,0,0.023-0.08,0.08-0.214c0.065-0.131,0.158-0.317,0.269-0.541
						c0.215-0.45,0.502-1.051,0.79-1.651c0.685-1.144,1.37-2.287,1.37-2.287l-9.141-6.119L140.906,245.705z"/>
				</g>
				<g>
					<path d="M145.433,239.756c0,0-1.275-0.92-2.55-1.841c-1.294-0.899-2.588-1.798-2.588-1.798
						c-0.182-0.125-0.484-0.058-0.669,0.147c0,0-0.438,0.494-0.876,0.987c-0.399,0.526-0.797,1.053-0.797,1.053
						c-0.167,0.221-0.174,0.529-0.017,0.684c0,0,1.132,1.096,2.264,2.192c1.149,1.072,2.299,2.145,2.299,2.145
						s-0.877,1.153-0.853,1.17l9.141,6.119c0,0,0.034-0.077,0.128-0.19c0.088-0.116,0.215-0.282,0.367-0.481
						c0.298-0.402,0.696-0.938,1.094-1.474c0.896-0.991,1.792-1.982,1.792-1.982l-7.778-7.778L145.433,239.756z"/>
				</g>
				<g>
					<path d="M151.028,234.799c0,0-1.072-1.15-2.144-2.3c-1.095-1.132-2.189-2.265-2.189-2.265c-0.154-0.158-0.462-0.15-0.684,0.016
						c0,0-0.526,0.398-1.053,0.797c-0.504,0.425-0.989,0.874-0.989,0.874c-0.205,0.185-0.271,0.486-0.147,0.669
						c0,0,0.898,1.295,1.796,2.59c0.919,1.276,1.839,2.551,1.839,2.551l-1.07,0.976l7.778,7.778c0,0,0.991-0.896,1.981-1.792
						c0.536-0.398,1.072-0.795,1.475-1.094c0.199-0.152,0.365-0.279,0.481-0.368c0.112-0.094,0.189-0.128,0.189-0.128l-6.12-9.141
						C152.158,233.938,151.027,234.799,151.028,234.799z"/>
				</g>
				<g>
					<path d="M157.483,231.025c0,0-0.826-1.336-1.653-2.673c-0.853-1.324-1.706-2.648-1.706-2.648
						c-0.121-0.185-0.424-0.237-0.674-0.116c0,0-0.594,0.29-1.188,0.581c-0.303,0.135-0.576,0.324-0.791,0.445
						c-0.212,0.128-0.354,0.213-0.354,0.213c-0.237,0.142-0.361,0.426-0.274,0.629c0,0,0.629,1.446,1.258,2.892
						c0.654,1.431,1.309,2.862,1.309,2.862l-1.237,0.753l6.12,9.141c0,0,1.144-0.685,2.287-1.37c0.601-0.287,1.201-0.574,1.652-0.79
						c0.224-0.111,0.41-0.204,0.541-0.268c0.134-0.057,0.214-0.08,0.214-0.08l-4.214-10.161
						C158.758,230.397,157.483,231.025,157.483,231.025z"/>
				</g>
				<g>
					<path d="M164.557,228.591c0,0-0.548-1.473-1.096-2.945c-0.576-1.465-1.152-2.931-1.152-2.931
						c-0.082-0.205-0.37-0.316-0.638-0.246c0,0-0.64,0.168-1.28,0.336c-0.323,0.075-0.631,0.197-0.865,0.279
						c-0.233,0.083-0.389,0.14-0.389,0.14c-0.261,0.094-0.438,0.348-0.393,0.564c0,0,0.333,1.542,0.667,3.083
						c0.362,1.531,0.723,3.063,0.723,3.063l-1.36,0.5l4.214,10.161c0,0,1.252-0.448,2.504-0.896
						c0.645-0.164,1.289-0.328,1.772-0.451c0.241-0.065,0.442-0.119,0.583-0.157c0.142-0.033,0.226-0.038,0.226-0.038l-2.135-10.791
						C165.929,228.222,164.557,228.591,164.557,228.591z"/>
				</g>
				<g>
					<path d="M171.966,227.595c0,0-0.25-1.552-0.5-3.104c-0.279-1.551-0.558-3.101-0.558-3.101c-0.041-0.217-0.3-0.383-0.576-0.368
						c0,0-0.658,0.038-1.316,0.075c-0.657,0.059-1.31,0.172-1.309,0.172c-0.274,0.041-0.498,0.255-0.496,0.476
						c0,0,0.025,1.577,0.05,3.153c0.054,1.573,0.108,3.145,0.108,3.145l-1.432,0.221l2.135,10.791c0,0,1.318-0.195,2.637-0.392
						c1.338-0.045,2.674-0.136,2.674-0.136v-11L171.966,227.595z"/>
				</g>
				<g>
					<path d="M179.425,228.047c0,0,0.055-1.572,0.11-3.145c0.026-1.577,0.052-3.153,0.052-3.153
						c0.002-0.221-0.221-0.436-0.495-0.476c0,0-0.653-0.11-1.309-0.175c-0.658-0.037-1.316-0.075-1.316-0.075
						c-0.276-0.015-0.536,0.151-0.576,0.368c0,0-0.28,1.551-0.56,3.101c-0.251,1.552-0.502,3.104-0.502,3.104l-1.446-0.07v11
						c0,0,1.336,0.091,2.674,0.136c1.318,0.196,2.637,0.392,2.637,0.392l2.135-10.791L179.425,228.047z"/>
				</g>
				<g>
					<path d="M186.659,229.944c0,0,0.363-1.531,0.725-3.063c0.335-1.541,0.669-3.082,0.669-3.082
						c0.045-0.216-0.131-0.471-0.392-0.564c0,0-0.156-0.056-0.39-0.14c-0.234-0.08-0.541-0.207-0.864-0.281
						c-0.64-0.168-1.28-0.337-1.28-0.337c-0.268-0.07-0.556,0.041-0.638,0.246c0,0-0.578,1.465-1.155,2.93
						c-0.549,1.473-1.098,2.945-1.098,2.945s-1.4-0.376-1.409-0.334l-2.135,10.791c0,0,0.084,0.005,0.226,0.038
						c0.141,0.038,0.341,0.092,0.583,0.157c0.483,0.123,1.128,0.287,1.772,0.45c1.252,0.448,2.504,0.896,2.504,0.896l4.213-10.161
						L186.659,229.944z"/>
				</g>
				<g>
					<path d="M193.38,233.224c0,0,0.655-1.43,1.311-2.86c0.63-1.445,1.26-2.89,1.26-2.89c0.087-0.203-0.036-0.487-0.274-0.63
						c0,0-0.557-0.357-1.144-0.66c-0.594-0.291-1.188-0.581-1.188-0.581c-0.249-0.121-0.553-0.069-0.674,0.116
						c0,0-0.854,1.323-1.708,2.646c-0.828,1.336-1.655,2.672-1.655,2.672s-1.3-0.641-1.316-0.603l-4.213,10.161
						c0,0,0.081,0.023,0.214,0.08c0.13,0.065,0.317,0.158,0.541,0.269c0.451,0.215,1.051,0.502,1.652,0.79
						c1.144,0.685,2.287,1.37,2.287,1.37l6.12-9.141L193.38,233.224z"/>
				</g>
				<g>
					<path d="M199.329,237.751c0,0,0.921-1.275,1.841-2.55c0.899-1.294,1.798-2.589,1.798-2.589
						c0.125-0.182,0.059-0.483-0.147-0.669c0,0-0.493-0.438-0.986-0.876c-0.526-0.398-1.053-0.797-1.053-0.797
						c-0.221-0.167-0.529-0.174-0.684-0.016c0,0-1.096,1.132-2.191,2.264c-1.072,1.149-2.145,2.298-2.145,2.298
						c0,0-1.153-0.877-1.169-0.853l-6.12,9.141c0,0,0.078,0.034,0.19,0.128c0.116,0.088,0.282,0.215,0.481,0.368
						c0.402,0.298,0.938,0.696,1.474,1.093c0.991,0.896,1.982,1.792,1.982,1.792l7.778-7.778L199.329,237.751z"/>
				</g>
				<g>
					<path d="M204.286,243.346c0,0,1.15-1.071,2.3-2.143c1.132-1.095,2.265-2.189,2.265-2.189c0.158-0.155,0.15-0.463-0.016-0.684
						c0,0-0.398-0.526-0.797-1.053c-0.425-0.504-0.874-0.988-0.874-0.988c-0.185-0.206-0.487-0.272-0.669-0.147
						c0,0-1.295,0.898-2.59,1.796c-1.275,0.92-2.551,1.84-2.551,1.84l-0.976-1.07l-7.778,7.778c0,0,0.896,0.991,1.792,1.981
						c0.397,0.537,0.795,1.073,1.093,1.475c0.152,0.199,0.279,0.365,0.368,0.481c0.094,0.113,0.128,0.19,0.128,0.19l9.141-6.12
						C205.146,244.476,204.286,243.346,204.286,243.346z"/>
				</g>
				<g>
					<path d="M208.06,249.802c0,0,1.337-0.826,2.673-1.652c1.324-0.853,2.647-1.706,2.647-1.706
						c0.185-0.121,0.237-0.424,0.116-0.674c0,0-0.29-0.594-0.58-1.188c-0.136-0.302-0.324-0.575-0.446-0.791
						c-0.127-0.213-0.212-0.354-0.212-0.354c-0.143-0.237-0.426-0.361-0.629-0.274c0,0-1.446,0.629-2.892,1.259
						c-1.431,0.654-2.861,1.309-2.861,1.309l-0.754-1.237l-9.141,6.12c0,0,0.685,1.144,1.37,2.287
						c0.288,0.601,0.575,1.202,0.79,1.652c0.111,0.224,0.204,0.41,0.268,0.541c0.058,0.133,0.081,0.214,0.08,0.214l10.161-4.213
						C208.688,251.076,208.06,249.802,208.06,249.802z"/>
				</g>
				<g>
					<path d="M210.494,256.875c0,0,1.473-0.547,2.945-1.095c1.465-0.576,2.931-1.152,2.931-1.152
						c0.205-0.082,0.315-0.37,0.246-0.638c0,0-0.168-0.64-0.336-1.28c-0.074-0.323-0.197-0.631-0.278-0.865
						c-0.084-0.233-0.14-0.389-0.14-0.389c-0.094-0.261-0.349-0.438-0.565-0.393c0,0-1.542,0.333-3.083,0.667
						c-1.532,0.361-3.063,0.723-3.063,0.723l-0.5-1.36l-10.161,4.213c0,0,0.448,1.252,0.896,2.504
						c0.164,0.645,0.328,1.29,0.451,1.773c0.065,0.241,0.119,0.441,0.157,0.582c0.033,0.142,0.038,0.226,0.038,0.226l10.791-2.135
						C210.862,258.248,210.494,256.875,210.494,256.875z"/>
				</g>
				<g>
					<path d="M211.49,264.285c0,0,1.552-0.25,3.104-0.5c1.551-0.279,3.101-0.558,3.101-0.558c0.217-0.041,0.383-0.3,0.368-0.576
						c0,0-0.037-0.658-0.074-1.316c-0.059-0.656-0.172-1.309-0.172-1.309c-0.041-0.274-0.255-0.497-0.476-0.495
						c0,0-1.576,0.025-3.153,0.05c-1.573,0.054-3.145,0.107-3.145,0.107l-0.221-1.432l-10.791,2.135c0,0,0.196,1.318,0.391,2.637
						c0.045,1.338,0.137,2.674,0.137,2.674h11L211.49,264.285z"/>
				</g>
			</g>
		</g>
	</g>
</g>
<g>
	<circle cx="173.384" cy="265.702" r="22.933"/>
	<g>
		<g>
			<g>
				<g>
					<g>
						<path fill="#FFFFFF" d="M187.777,267.309c-0.791-0.021-1.506,0.363-1.567,0.871c0,0-0.012,0.18-0.109,0.477
							c-0.107,0.292-0.139,0.747-0.352,1.239c-0.302,1.025-0.976,2.301-1.803,3.468c-0.399,0.599-0.912,1.107-1.357,1.613
							c-0.514,0.437-0.949,0.895-1.407,1.184c-0.414,0.348-0.805,0.567-1.076,0.724c-0.265,0.167-0.417,0.262-0.417,0.262
							c-0.455,0.23-0.614,0.994-0.346,1.744c0,0,0.382,1.012,0.909,2.551c0.531,1.546,1.183,3.602,1.756,5.678
							c1.174,4.154,1.968,8.449,1.969,8.449c0.179,1.059,1.599,1.569,3.083,0.9c0,0,0.499-0.239,1.371-0.656
							c0.887-0.392,2.063-1.115,3.47-1.987c2.762-1.814,6.131-4.744,8.709-8.334c2.626-3.554,4.384-7.688,5.237-10.888
							c0.208-0.803,0.399-1.54,0.546-2.197c0.106-0.665,0.199-1.244,0.275-1.721c0.138-0.957,0.217-1.503,0.217-1.503
							c0.115-1.617-0.744-2.796-1.824-2.642c0,0-4.336,0.569-8.657,0.741c-2.16,0.098-4.315,0.117-5.927,0.096
							C188.871,267.359,187.777,267.309,187.777,267.309z"/>
					</g>
				</g>
				<g>
					<g>
						<path fill="#FFFFFF" d="M176.323,279.894c-0.223-0.756-0.81-1.329-1.313-1.239c-0.002-0.016-0.17,0.066-0.49,0.056
							c-0.316-0.006-0.766,0.056-1.307,0.05c-1.088-0.021-2.511-0.21-3.87-0.632c-1.37-0.406-2.603-1.165-3.49-1.762
							c-0.419-0.337-0.812-0.563-1.021-0.804c-0.232-0.212-0.365-0.333-0.365-0.333c-0.41-0.316-1.14-0.283-1.777,0.211
							c0,0-3.375,2.691-7.016,5.084c-3.604,2.415-7.419,4.485-7.419,4.485c-0.952,0.501-1.016,2.014,0.101,3.196
							c0,0,0.373,0.406,1.025,1.116c0.686,0.674,1.686,1.627,2.966,2.67c2.544,2.105,6.409,4.386,10.632,5.74
							c4.218,1.403,8.678,1.766,11.958,1.589c0.823-0.052,1.579-0.062,2.245-0.16c0.666-0.099,1.246-0.185,1.724-0.255
							c0.477-0.078,0.851-0.138,1.107-0.18c0.255-0.041,0.388-0.083,0.388-0.083c1.585-0.385,2.452-1.555,1.971-2.537
							c0,0-1.883-3.954-3.377-8.018C177.462,284.034,176.323,279.894,176.323,279.894z"/>
					</g>
				</g>
				<g>
					<g>
						<path fill="#FFFFFF" d="M160.802,272.86c0.33-0.221,0.55-0.506,0.689-0.8c0.147-0.299,0.187-0.593,0.072-0.826
							c0,0-0.081-0.159-0.223-0.437c-0.099-0.296-0.243-0.716-0.444-1.211c-0.278-1.031-0.563-2.428-0.584-3.884
							c0.021-1.456,0.307-2.853,0.584-3.884c0.201-0.496,0.345-0.916,0.444-1.211c0.142-0.278,0.223-0.438,0.223-0.438
							c0.114-0.233,0.075-0.526-0.072-0.825c-0.14-0.294-0.359-0.579-0.689-0.8c0,0-3.59-2.375-6.976-5.096
							c-1.699-1.35-3.354-2.768-4.576-3.86c-1.224-1.094-2.001-1.837-2.001-1.837c-0.796-0.77-2.172-0.312-3.003,1.089
							c0,0-1.183,1.881-2.36,4.986c-1.207,3.082-2.211,7.476-2.185,11.876c-0.026,4.4,0.979,8.794,2.185,11.876
							c1.178,3.105,2.361,4.986,2.361,4.986c0.831,1.401,2.207,1.859,3.004,1.09c0,0,0.777-0.743,2.001-1.837
							c1.221-1.093,2.876-2.51,4.575-3.86C157.212,275.235,160.802,272.86,160.802,272.86z"/>
					</g>
				</g>
				<g>
					<g>
						<path fill="#FFFFFF" d="M162.69,255.964c0.638,0.494,1.368,0.527,1.778,0.211c0,0,0.132-0.122,0.364-0.333
							c0.209-0.24,0.603-0.467,1.021-0.804c0.887-0.596,2.12-1.355,3.49-1.761c1.359-0.422,2.782-0.612,3.87-0.632
							c0.541-0.007,0.991,0.056,1.307,0.05c0.319-0.011,0.487,0.071,0.49,0.055c0.503,0.09,1.09-0.482,1.313-1.239
							c0,0,1.138-4.141,2.671-8.194c1.494-4.063,3.377-8.017,3.377-8.017c0.482-0.983-0.385-2.152-1.97-2.537
							c0,0-0.132-0.043-0.388-0.083c-0.255-0.042-0.63-0.103-1.107-0.18c-0.478-0.071-1.058-0.157-1.724-0.255
							c-0.666-0.098-1.422-0.108-2.246-0.16c-3.28-0.177-7.739,0.186-11.958,1.589c-4.223,1.354-8.088,3.635-10.632,5.74
							c-1.28,1.042-2.28,1.996-2.966,2.67c-0.652,0.71-1.025,1.115-1.025,1.115c-1.117,1.183-1.052,2.696-0.101,3.197
							c0,0,3.814,2.07,7.419,4.485C159.314,253.273,162.69,255.964,162.69,255.964z"/>
					</g>
				</g>
				<g>
					<g>
						<path fill="#FFFFFF" d="M179.342,252.512c-0.268,0.75-0.109,1.514,0.347,1.744c0,0,0.151,0.096,0.416,0.263
							c0.271,0.157,0.662,0.376,1.076,0.724c0.458,0.29,0.893,0.748,1.407,1.185c0.445,0.505,0.958,1.013,1.357,1.612
							c0.827,1.167,1.501,2.443,1.803,3.468c0.213,0.492,0.245,0.947,0.352,1.239c0.097,0.297,0.109,0.477,0.109,0.477
							c0.062,0.508,0.776,0.892,1.567,0.871c0,0,1.094-0.051,2.701-0.07c1.612-0.021,3.767-0.002,5.927,0.096
							c4.321,0.172,8.657,0.741,8.657,0.741c1.08,0.154,1.939-1.025,1.824-2.641c0,0-0.079-0.546-0.217-1.503
							c-0.076-0.477-0.169-1.056-0.275-1.721c-0.147-0.657-0.338-1.394-0.546-2.197c-0.853-3.2-2.611-7.333-5.238-10.888
							c-2.578-3.59-5.947-6.52-8.709-8.334c-1.407-0.873-2.583-1.596-3.47-1.988c-0.873-0.417-1.371-0.656-1.371-0.656
							c-1.485-0.669-2.905-0.158-3.084,0.9c0,0-0.794,4.294-1.968,8.449c-0.573,2.076-1.226,4.132-1.756,5.678
							C179.725,251.5,179.342,252.512,179.342,252.512z"/>
					</g>
				</g>
			</g>
		</g>
	</g>
</g>
<circle fill="#FFFFFF" cx="173.383" cy="265.702" r="4"/>
</svg>
