<?xml version="1.0" encoding="utf-8"?>
<!-- Generator: Adobe Illustrator 16.0.0, SVG Export Plug-In . SVG Version: 6.00 Build 0)  -->
<!DOCTYPE svg PUBLIC "-//W3C//DTD SVG 1.1//EN" "http://www.w3.org/Graphics/SVG/1.1/DTD/svg11.dtd">
<svg version="1.1" id="Layer_1" xmlns="http://www.w3.org/2000/svg" xmlns:xlink="http://www.w3.org/1999/xlink" x="0px" y="0px"
	 width="358.479px" height="358.48px" viewBox="0 0 358.479 358.48" enable-background="new 0 0 358.479 358.48"
	 xml:space="preserve">
<g>
	<circle cx="179.24" cy="179.24" r="143.999"/>
	<g>
		<g>
			<g>
				<g>
					<path d="M296.021,277.632c0,0,1.316,0.867,3.291,2.168c1.98,1.298,4.627,3.013,7.274,4.694
						c5.298,3.376,10.678,6.652,10.678,6.652c0.751,0.461,1.93,0.125,2.615-0.745c0,0,0.409-0.52,1.021-1.298
						c0.603-0.787,1.45-1.804,2.217-2.879c1.529-2.151,3.06-4.302,3.06-4.302c0.639-0.903,0.623-2.125-0.035-2.709
						c0,0-4.673-4.187-9.477-8.304c-4.783-4.12-9.638-8.133-9.638-8.133l3.105-4.887l-37.716-22.662c0,0-0.723,1.129-1.808,2.823
						c-1.019,1.742-2.633,3.875-4.157,6.073c-0.788,1.079-1.652,2.096-2.414,3.089c-0.385,0.493-0.757,0.97-1.109,1.422
						c-0.358,0.447-0.733,0.839-1.058,1.218c-1.313,1.507-2.188,2.512-2.188,2.512l32.601,29.549L296.021,277.632z"/>
				</g>
				<g>
					<path d="M274.589,298.548c0,0,4.471,4.462,9.006,8.795c4.534,4.352,9.167,8.619,9.167,8.619c0.646,0.6,1.871,0.502,2.717-0.216
						c0,0,0.504-0.429,1.261-1.072c0.75-0.65,1.78-1.484,2.733-2.404c1.933-1.81,3.866-3.619,3.866-3.619
						c0.808-0.761,1.034-1.961,0.504-2.663c0,0-3.798-5.054-7.689-10.017c-3.884-4.973-7.859-9.853-7.859-9.853
						s1.006-1.043,2.013-2.086c0.501-0.523,1.003-1.046,1.379-1.438c0.358-0.409,0.597-0.681,0.597-0.681l-32.601-29.549
						c0,0-0.208,0.261-0.607,0.685c-0.406,0.417-0.986,1.014-1.683,1.729c-0.707,0.705-1.47,1.59-2.387,2.436
						c-0.911,0.853-1.881,1.763-2.853,2.672c-0.955,0.928-2.023,1.729-2.958,2.554c-0.949,0.81-1.822,1.581-2.636,2.162
						c-1.583,1.216-2.639,2.027-2.639,2.027l26.159,35.379L274.589,298.548z"/>
				</g>
				<g>
					<path d="M249.466,314.838c0,0,3.512,5.254,7.113,10.4c3.592,5.155,7.298,10.247,7.298,10.247
						c0.516,0.714,1.734,0.858,2.703,0.319c0,0,0.577-0.322,1.443-0.805c0.857-0.499,2.038-1.098,3.151-1.814
						c2.247-1.396,4.495-2.791,4.495-2.791c0.94-0.587,1.397-1.72,1.016-2.513c0,0-2.729-5.697-5.57-11.328
						c-2.831-5.639-5.771-11.206-5.771-11.206s1.192-0.825,2.384-1.649c0.594-0.416,1.196-0.819,1.633-1.142
						c0.432-0.331,0.72-0.551,0.72-0.551l-26.159-35.379c0,0-0.257,0.211-0.729,0.554c-0.48,0.33-1.167,0.801-1.99,1.366
						c-0.833,0.551-1.752,1.272-2.822,1.917c-1.061,0.66-2.192,1.364-3.324,2.067c-1.129,0.708-2.328,1.301-3.409,1.927
						c-0.544,0.307-1.071,0.603-1.57,0.884c-0.506,0.27-1,0.494-1.448,0.718c-1.792,0.891-2.987,1.484-2.987,1.484l18.734,39.813
						L249.466,314.838z"/>
				</g>
				<g>
					<path d="M221.659,325.906c0,0,2.417,5.817,4.958,11.597c2.525,5.771,5.165,11.476,5.165,11.476
						c0.367,0.801,1.531,1.177,2.584,0.833c0,0,2.515-0.807,5.012-1.664c2.47-0.936,4.94-1.872,4.94-1.872
						c1.034-0.395,1.701-1.418,1.481-2.271c0,0-1.553-6.088-3.248-12.179c-1.677-6.084-3.474-12.12-3.474-12.12
						s1.328-0.58,2.656-1.159c0.664-0.291,1.327-0.581,1.825-0.798c0.497-0.219,0.817-0.39,0.817-0.39l-18.734-39.813
						c0,0-0.29,0.167-0.832,0.387c-0.536,0.232-1.302,0.564-2.221,0.962c-1.809,0.864-4.331,1.753-6.82,2.726
						c-1.27,0.417-2.539,0.833-3.729,1.224c-1.181,0.42-2.312,0.722-3.281,0.977c-1.932,0.537-3.22,0.895-3.22,0.895l10.645,42.693
						L221.659,325.906z"/>
				</g>
				<g>
					<path d="M192.236,331.365c0,0,1.242,6.173,2.614,12.333c1.359,6.173,2.843,12.284,2.843,12.284
						c0.204,0.856,1.273,1.447,2.373,1.311c0,0,2.62-0.333,5.241-0.666c2.609-0.405,5.208-0.878,5.208-0.879
						c1.09-0.19,1.942-1.069,1.892-1.948c0,0-0.344-6.282-0.818-12.555c-0.466-6.297-1.058-12.569-1.058-12.569l5.653-1.269
						l-10.645-42.693c0,0-1.305,0.289-3.263,0.722c-0.976,0.23-2.115,0.495-3.356,0.678c-1.234,0.214-2.551,0.442-3.868,0.67
						c-2.654,0.31-5.298,0.709-7.301,0.795c-0.998,0.08-1.83,0.146-2.412,0.193c-0.582,0.06-0.916,0.049-0.916,0.048l2.15,43.948
						c0,0,0.355,0,0.887-0.038c0.531-0.041,1.239-0.095,1.947-0.148C190.821,331.475,192.236,331.365,192.236,331.365z"/>
				</g>
				<g>
					<path d="M162.305,330.997c0,0,0.014,6.294,0.157,12.602c0.13,6.306,0.391,12.622,0.391,12.622
						c0.034,0.879,0.968,1.665,2.075,1.742c0,0,2.64,0.178,5.279,0.355c1.319,0.109,2.642,0.095,3.633,0.128
						c0.991,0.021,1.652,0.034,1.652,0.034c1.108,0.021,2.116-0.677,2.237-1.55c0,0,0.886-6.236,1.642-12.474
						c0.382-3.113,0.738-6.243,0.993-8.598c0.249-2.352,0.415-3.919,0.415-3.919l5.793-0.168l-2.15-43.948
						c0,0-1.334,0.037-3.335,0.092c-0.5,0.011-1.042,0.045-1.615,0.045c-0.573-0.014-1.177-0.028-1.802-0.043
						c-1.249-0.045-2.585-0.006-3.915-0.101c-1.33-0.09-2.659-0.181-3.905-0.265c-1.248-0.067-2.398-0.272-3.392-0.368
						c-0.993-0.112-1.82-0.206-2.398-0.271c-0.577-0.081-0.903-0.147-0.903-0.147l-6.487,43.519c0,0,0.351,0.058,0.876,0.146
						c0.527,0.079,1.234,0.15,1.938,0.237C160.895,330.832,162.305,330.997,162.305,330.997z"/>
				</g>
				<g>
					<path d="M133.017,324.771c0,0-1.224,6.174-2.322,12.387c-1.111,6.209-2.097,12.455-2.097,12.455
						c-0.141,0.873,0.624,1.823,1.694,2.117c0,0,2.556,0.691,5.112,1.381c1.274,0.364,2.572,0.628,3.541,0.845
						c0.97,0.213,1.616,0.355,1.616,0.355c1.084,0.237,2.211-0.251,2.501-1.083c0,0,2.092-5.942,4.057-11.912
						c1.975-5.955,3.831-11.987,3.831-11.987l5.719,0.956l6.487-43.519c0,0-1.313-0.22-3.282-0.55
						c-0.991-0.13-2.124-0.402-3.342-0.671c-1.213-0.291-2.532-0.495-3.811-0.867c-1.285-0.347-2.569-0.695-3.773-1.021
						c-1.207-0.316-2.296-0.739-3.251-1.029c-0.951-0.305-1.743-0.559-2.297-0.737c-0.552-0.187-0.858-0.32-0.858-0.32
						l-14.912,41.396c0,0,0.332,0.126,0.83,0.315c0.506,0.167,1.181,0.388,1.855,0.61
						C131.666,324.331,133.017,324.771,133.017,324.771z"/>
				</g>
				<g>
					<path d="M105.528,312.934c0,0-2.406,5.82-4.699,11.701c-2.312,5.887-4.479,11.781-4.479,11.781
						c-0.307,0.825,0.251,1.911,1.24,2.409c0,0,2.361,1.182,4.722,2.363c1.176,0.599,2.406,1.093,3.305,1.507
						c0.907,0.4,1.512,0.667,1.512,0.667c1.014,0.447,2.212,0.19,2.66-0.569c0,0,3.216-5.416,6.313-10.882
						c3.103-5.448,6.113-11.01,6.113-11.011l5.417,2.066l14.912-41.396c0,0-1.245-0.476-3.111-1.19
						c-0.465-0.183-0.98-0.353-1.506-0.579c-0.523-0.234-1.076-0.48-1.647-0.735c-1.138-0.519-2.379-1.012-3.582-1.594
						c-2.377-1.226-4.804-2.35-6.521-3.41c-1.753-0.987-2.922-1.645-2.922-1.645l-22.662,37.715L105.528,312.934z"/>
				</g>
				<g>
					<path d="M80.848,296.021c0,0-0.867,1.316-2.168,3.291c-1.298,1.981-3.013,4.628-4.694,7.274
						c-3.376,5.298-6.651,10.677-6.651,10.677c-0.461,0.751-0.125,1.93,0.745,2.616c0,0,0.52,0.409,1.298,1.021
						c0.787,0.602,1.804,1.45,2.879,2.216c2.151,1.53,4.302,3.061,4.302,3.061c0.903,0.639,2.125,0.623,2.71-0.035
						c0,0,4.187-4.674,8.304-9.477c4.119-4.783,8.133-9.638,8.133-9.638l4.888,3.105l22.662-37.715c0,0-1.129-0.723-2.823-1.808
						c-1.742-1.019-3.875-2.633-6.073-4.157c-1.079-0.788-2.096-1.652-3.089-2.414c-0.493-0.385-0.97-0.757-1.422-1.11
						c-0.447-0.358-0.839-0.732-1.218-1.058c-1.507-1.313-2.511-2.188-2.511-2.188l-29.55,32.601L80.848,296.021z"/>
				</g>
				<g>
					<path d="M59.932,274.589c0,0-4.462,4.471-8.795,9.006c-4.352,4.534-8.619,9.167-8.619,9.167
						c-0.599,0.646-0.502,1.871,0.216,2.717c0,0,0.429,0.504,1.072,1.261c0.65,0.75,1.484,1.779,2.404,2.733
						c1.81,1.933,3.619,3.866,3.619,3.866c0.761,0.808,1.961,1.035,2.664,0.504c0,0,5.054-3.798,10.016-7.689
						c4.973-3.883,9.854-7.859,9.854-7.859s1.043,1.007,2.086,2.013c0.523,0.502,1.046,1.003,1.438,1.38
						c0.409,0.358,0.682,0.596,0.682,0.596l29.55-32.601c0,0-0.262-0.208-0.686-0.608c-0.417-0.406-1.014-0.986-1.729-1.683
						c-0.705-0.707-1.589-1.47-2.435-2.387c-0.853-0.91-1.763-1.881-2.673-2.852c-0.928-0.955-1.728-2.023-2.554-2.958
						c-0.81-0.948-1.582-1.822-2.162-2.636c-1.216-1.583-2.026-2.639-2.026-2.639L56.474,270.08L59.932,274.589z"/>
				</g>
				<g>
					<path d="M43.642,249.466c0,0-5.254,3.512-10.4,7.113c-5.155,3.592-10.248,7.298-10.248,7.298
						c-0.714,0.516-0.858,1.734-0.319,2.703c0,0,0.322,0.577,0.806,1.443c0.499,0.857,1.097,2.038,1.814,3.15
						c1.395,2.248,2.791,4.495,2.791,4.495c0.587,0.94,1.72,1.397,2.513,1.015c0,0,5.697-2.729,11.328-5.57
						c5.639-2.831,11.206-5.771,11.206-5.771s0.825,1.192,1.649,2.384c0.416,0.594,0.82,1.196,1.142,1.633
						c0.33,0.432,0.55,0.719,0.55,0.719l35.379-26.159c0,0-0.212-0.257-0.554-0.728c-0.33-0.48-0.8-1.167-1.365-1.99
						c-0.551-0.833-1.272-1.752-1.917-2.823c-0.66-1.061-1.364-2.192-2.068-3.324c-0.708-1.129-1.301-2.327-1.927-3.409
						c-0.306-0.545-0.603-1.071-0.884-1.571c-0.269-0.506-0.493-1-0.718-1.447c-0.891-1.793-1.484-2.988-1.484-2.988l-39.813,18.734
						L43.642,249.466z"/>
				</g>
				<g>
					<path d="M32.575,221.659c0,0-5.817,2.417-11.597,4.958c-5.771,2.525-11.477,5.165-11.477,5.165
						c-0.801,0.367-1.176,1.531-0.833,2.584c0,0,0.806,2.515,1.664,5.013c0.936,2.47,1.872,4.94,1.872,4.94
						c0.395,1.034,1.419,1.701,2.271,1.48c0,0,6.088-1.553,12.179-3.247c6.084-1.677,12.12-3.474,12.12-3.474
						s0.58,1.328,1.159,2.655c0.291,0.664,0.581,1.328,0.799,1.825c0.219,0.497,0.39,0.817,0.39,0.817l39.813-18.734
						c0,0-0.167-0.29-0.387-0.832c-0.232-0.536-0.564-1.302-0.962-2.221c-0.865-1.81-1.753-4.332-2.726-6.82
						c-0.417-1.27-0.833-2.539-1.224-3.729c-0.42-1.181-0.722-2.312-0.977-3.281c-0.537-1.932-0.895-3.22-0.895-3.22l-42.693,10.645
						L32.575,221.659z"/>
				</g>
				<g>
					<path d="M27.115,192.237c0,0-6.172,1.242-12.333,2.613c-6.173,1.359-12.284,2.843-12.284,2.843
						c-0.856,0.205-1.447,1.273-1.311,2.373c0,0,0.333,2.62,0.666,5.241c0.405,2.609,0.878,5.208,0.878,5.208
						c0.191,1.09,1.069,1.942,1.949,1.892c0,0,6.282-0.344,12.554-0.818c6.297-0.465,12.569-1.058,12.569-1.058l1.269,5.653
						l42.693-10.645c0,0-0.289-1.305-0.722-3.263c-0.23-0.976-0.495-2.116-0.678-3.356c-0.214-1.234-0.442-2.551-0.67-3.868
						c-0.31-2.654-0.709-5.298-0.795-7.301c-0.08-0.999-0.146-1.83-0.193-2.413c-0.061-0.582-0.049-0.916-0.049-0.916l-43.947,2.15
						c0,0,0,0.355,0.038,0.886c0.041,0.531,0.095,1.239,0.149,1.947C27.006,190.821,27.115,192.237,27.115,192.237z"/>
				</g>
				<g>
					<path d="M27.483,162.306c0,0-6.294,0.013-12.602,0.157c-6.305,0.13-12.622,0.391-12.622,0.391
						c-0.879,0.034-1.665,0.969-1.742,2.075c0,0-0.177,2.64-0.355,5.279c-0.109,1.319-0.095,2.643-0.128,3.633
						C0.014,174.832,0,175.493,0,175.493c-0.021,1.108,0.677,2.116,1.55,2.238c0,0,6.236,0.886,12.474,1.642
						c3.113,0.382,6.243,0.738,8.599,0.993c2.351,0.249,3.918,0.415,3.918,0.415l0.169,5.793l43.947-2.15
						c0,0-0.037-1.334-0.092-3.335c-0.012-0.5-0.046-1.042-0.046-1.615c0.014-0.573,0.028-1.177,0.043-1.802
						c0.045-1.249,0.007-2.585,0.101-3.915c0.09-1.33,0.181-2.659,0.266-3.905c0.067-1.248,0.272-2.398,0.368-3.392
						c0.112-0.993,0.206-1.82,0.271-2.398c0.081-0.577,0.147-0.903,0.147-0.903l-43.519-6.487c0,0-0.058,0.351-0.145,0.876
						c-0.08,0.526-0.151,1.233-0.238,1.938C27.649,160.895,27.483,162.306,27.483,162.306z"/>
				</g>
				<g>
					<path d="M33.71,133.018c0,0-6.175-1.224-12.387-2.322c-6.209-1.111-12.455-2.097-12.455-2.097
						c-0.873-0.141-1.823,0.624-2.117,1.694c0,0-0.69,2.556-1.381,5.112c-0.363,1.273-0.628,2.571-0.845,3.54
						c-0.213,0.97-0.355,1.617-0.355,1.617c-0.237,1.084,0.251,2.211,1.084,2.501c0,0,5.942,2.092,11.912,4.057
						c5.955,1.975,11.987,3.831,11.987,3.831l-0.956,5.719l43.519,6.487c0,0,0.22-1.313,0.551-3.282
						c0.13-0.991,0.401-2.124,0.671-3.342c0.29-1.212,0.495-2.532,0.866-3.811c0.348-1.284,0.695-2.569,1.021-3.773
						c0.316-1.207,0.74-2.296,1.03-3.251c0.305-0.951,0.559-1.743,0.737-2.297c0.186-0.552,0.319-0.858,0.319-0.858L35.515,127.63
						c0,0-0.126,0.332-0.315,0.83c-0.167,0.506-0.389,1.181-0.611,1.855C34.149,131.667,33.71,133.018,33.71,133.018z"/>
				</g>
				<g>
					<path d="M45.547,105.528c0,0-5.821-2.406-11.702-4.699c-5.887-2.311-11.781-4.479-11.781-4.479
						c-0.825-0.307-1.911,0.251-2.409,1.24c0,0-1.182,2.361-2.363,4.722c-0.599,1.176-1.093,2.406-1.507,3.306
						c-0.4,0.907-0.667,1.511-0.667,1.511c-0.447,1.014-0.19,2.212,0.569,2.66c0,0,5.416,3.216,10.882,6.313
						c5.448,3.103,11.01,6.113,11.01,6.113l-2.065,5.416l41.396,14.912c0,0,0.476-1.244,1.19-3.111
						c0.182-0.465,0.352-0.98,0.579-1.506c0.233-0.524,0.48-1.076,0.734-1.647c0.519-1.138,1.012-2.379,1.594-3.581
						c1.226-2.377,2.35-4.804,3.41-6.521c0.986-1.753,1.644-2.922,1.644-2.922l-37.715-22.662L45.547,105.528z"/>
				</g>
				<g>
					<path d="M62.459,80.848c0,0-1.316-0.868-3.291-2.168c-1.981-1.298-4.628-3.013-7.274-4.694
						c-5.298-3.376-10.677-6.652-10.677-6.652c-0.751-0.461-1.93-0.125-2.616,0.745c0,0-0.409,0.519-1.021,1.298
						c-0.602,0.787-1.45,1.804-2.216,2.879c-1.53,2.151-3.061,4.302-3.061,4.302c-0.639,0.903-0.623,2.125,0.035,2.709
						c0,0,4.673,4.187,9.477,8.304c4.783,4.12,9.638,8.133,9.638,8.133l-3.105,4.887l37.715,22.662c0,0,0.723-1.129,1.808-2.823
						c1.019-1.742,2.633-3.874,4.157-6.072c0.788-1.079,1.652-2.096,2.414-3.089c0.385-0.493,0.757-0.97,1.109-1.422
						c0.358-0.448,0.733-0.839,1.058-1.218c1.313-1.507,2.188-2.512,2.188-2.512L66.196,76.568L62.459,80.848z"/>
				</g>
				<g>
					<path d="M83.892,59.932c0,0-4.471-4.462-9.006-8.795c-4.534-4.352-9.167-8.619-9.167-8.619c-0.646-0.6-1.871-0.502-2.717,0.216
						c0,0-0.504,0.429-1.261,1.072c-0.75,0.65-1.78,1.484-2.733,2.404c-1.933,1.81-3.866,3.619-3.866,3.619
						c-0.808,0.761-1.035,1.961-0.505,2.663c0,0,3.798,5.054,7.689,10.017c3.884,4.973,7.859,9.854,7.859,9.854
						s-1.006,1.043-2.013,2.086c-0.502,0.522-1.003,1.046-1.38,1.438c-0.358,0.409-0.596,0.682-0.596,0.682l32.601,29.549
						c0,0,0.208-0.261,0.607-0.685c0.406-0.417,0.986-1.014,1.683-1.729c0.707-0.705,1.47-1.59,2.387-2.436
						c0.911-0.853,1.881-1.762,2.853-2.672c0.955-0.929,2.023-1.729,2.958-2.554c0.949-0.81,1.822-1.582,2.636-2.162
						c1.583-1.216,2.639-2.027,2.639-2.027L88.4,56.474L83.892,59.932z"/>
				</g>
				<g>
					<path d="M109.015,43.642c0,0-3.512-5.254-7.113-10.4c-3.592-5.155-7.298-10.248-7.298-10.248
						c-0.516-0.714-1.734-0.858-2.703-0.319c0,0-0.577,0.322-1.443,0.805c-0.857,0.499-2.038,1.098-3.15,1.814
						c-2.248,1.396-4.495,2.791-4.495,2.791c-0.94,0.587-1.397,1.72-1.015,2.513c0,0,2.729,5.698,5.57,11.329
						c2.831,5.639,5.771,11.206,5.771,11.206s-1.192,0.825-2.384,1.649c-0.594,0.416-1.196,0.819-1.633,1.142
						c-0.432,0.331-0.72,0.551-0.72,0.551l26.159,35.379c0,0,0.257-0.212,0.729-0.554c0.48-0.329,1.167-0.8,1.99-1.365
						c0.833-0.551,1.752-1.272,2.823-1.917c1.061-0.66,2.192-1.364,3.324-2.068c1.129-0.708,2.327-1.301,3.409-1.927
						c0.545-0.307,1.072-0.603,1.571-0.884c0.506-0.269,1-0.493,1.448-0.718c1.792-0.891,2.987-1.484,2.987-1.484l-18.733-39.813
						L109.015,43.642z"/>
				</g>
				<g>
					<path d="M136.822,32.575c0,0-2.417-5.817-4.958-11.597c-2.525-5.771-5.165-11.477-5.165-11.476
						c-0.367-0.801-1.531-1.177-2.584-0.833c0,0-2.515,0.806-5.012,1.664c-2.47,0.936-4.94,1.872-4.94,1.872
						c-1.034,0.396-1.701,1.419-1.48,2.271c0,0,1.553,6.088,3.247,12.18c1.678,6.084,3.475,12.119,3.474,12.12
						c0,0-1.328,0.58-2.655,1.159c-0.664,0.291-1.327,0.581-1.825,0.799c-0.497,0.219-0.817,0.39-0.817,0.39l18.733,39.813
						c0,0,0.29-0.167,0.832-0.387c0.536-0.232,1.302-0.564,2.221-0.962c1.809-0.864,4.332-1.753,6.82-2.726
						c1.27-0.417,2.54-0.833,3.73-1.224c1.181-0.42,2.312-0.722,3.281-0.977c1.932-0.537,3.22-0.895,3.22-0.895l-10.645-42.693
						L136.822,32.575z"/>
				</g>
				<g>
					<path d="M166.244,27.116c0,0-1.243-6.173-2.614-12.333c-1.36-6.173-2.843-12.284-2.843-12.284
						c-0.205-0.856-1.274-1.447-2.373-1.311c0,0-2.621,0.333-5.241,0.666c-2.609,0.405-5.208,0.878-5.208,0.879
						c-1.09,0.19-1.942,1.069-1.891,1.948c0,0,0.344,6.282,0.818,12.554c0.465,6.297,1.058,12.569,1.058,12.569l-5.653,1.269
						l10.645,42.693c0,0,1.305-0.289,3.263-0.722c0.976-0.23,2.116-0.495,3.356-0.678c1.234-0.214,2.551-0.442,3.868-0.67
						c2.654-0.31,5.298-0.709,7.301-0.795c0.998-0.08,1.83-0.146,2.412-0.193c0.582-0.06,0.917-0.049,0.917-0.049l-2.151-43.947
						c0,0-0.355,0-0.886,0.038c-0.531,0.041-1.239,0.094-1.947,0.148C167.66,27.006,166.244,27.116,166.244,27.116z"/>
				</g>
				<g>
					<path d="M196.175,27.483c0,0-0.013-6.294-0.157-12.602c-0.131-6.306-0.391-12.622-0.391-12.622
						c-0.034-0.879-0.969-1.665-2.075-1.742c0,0-2.639-0.178-5.279-0.355c-1.319-0.109-2.642-0.095-3.633-0.128
						C183.648,0.014,182.987,0,182.987,0c-1.108-0.021-2.116,0.677-2.238,1.55c0,0-0.886,6.236-1.641,12.474
						c-0.382,3.113-0.738,6.243-0.993,8.599c-0.249,2.351-0.415,3.919-0.415,3.919l-5.793,0.168l2.151,43.947
						c0,0,1.334-0.037,3.334-0.092c0.5-0.012,1.042-0.046,1.615-0.046c0.573,0.014,1.177,0.028,1.802,0.043
						c1.249,0.044,2.585,0.006,3.915,0.101c1.33,0.09,2.659,0.18,3.906,0.265c1.248,0.067,2.398,0.272,3.392,0.368
						c0.992,0.112,1.819,0.206,2.398,0.271c0.577,0.081,0.903,0.147,0.903,0.147l6.486-43.519c0,0-0.35-0.058-0.876-0.146
						c-0.526-0.079-1.233-0.15-1.938-0.237C197.586,27.648,196.175,27.483,196.175,27.483z"/>
				</g>
				<g>
					<path d="M225.463,33.709c0,0,1.223-6.174,2.322-12.387c1.111-6.209,2.096-12.455,2.097-12.455
						c0.141-0.873-0.624-1.823-1.694-2.117c0,0-2.556-0.691-5.112-1.381c-1.273-0.364-2.571-0.628-3.54-0.845
						c-0.97-0.213-1.616-0.355-1.616-0.355c-1.084-0.237-2.211,0.251-2.501,1.084c0,0-2.092,5.942-4.057,11.912
						c-1.975,5.955-3.831,11.987-3.831,11.987l-5.719-0.956l-6.486,43.519c0,0,1.313,0.22,3.281,0.55
						c0.991,0.13,2.125,0.401,3.342,0.671c1.213,0.29,2.532,0.495,3.811,0.866c1.285,0.348,2.569,0.695,3.773,1.021
						c1.208,0.316,2.296,0.74,3.251,1.03c0.951,0.305,1.743,0.559,2.298,0.737c0.552,0.186,0.858,0.319,0.858,0.319l14.912-41.396
						c0,0-0.332-0.126-0.83-0.315c-0.506-0.167-1.181-0.389-1.855-0.61C226.814,34.149,225.463,33.709,225.463,33.709z"/>
				</g>
				<g>
					<path d="M252.953,45.546c0,0,2.406-5.821,4.699-11.702c2.311-5.887,4.479-11.781,4.479-11.781
						c0.307-0.825-0.251-1.911-1.24-2.409c0,0-2.361-1.182-4.722-2.363c-1.176-0.599-2.406-1.093-3.305-1.507
						c-0.907-0.4-1.512-0.667-1.512-0.667c-1.014-0.446-2.212-0.189-2.66,0.569c0,0-3.216,5.416-6.313,10.882
						c-3.103,5.448-6.113,11.01-6.113,11.011l-5.417-2.066L215.938,76.91c0,0,1.245,0.476,3.111,1.19
						c0.465,0.182,0.98,0.352,1.506,0.579c0.523,0.234,1.076,0.48,1.647,0.735c1.138,0.519,2.379,1.012,3.582,1.594
						c2.377,1.226,4.804,2.35,6.521,3.41c1.753,0.987,2.922,1.645,2.922,1.645l22.661-37.716L252.953,45.546z"/>
				</g>
				<g>
					<path d="M277.633,62.458c0,0,0.868-1.316,2.168-3.291c1.298-1.981,3.013-4.628,4.694-7.274
						c3.376-5.298,6.652-10.677,6.652-10.677c0.461-0.751,0.125-1.93-0.745-2.616c0,0-0.52-0.409-1.298-1.021
						c-0.787-0.602-1.804-1.45-2.879-2.216c-2.151-1.53-4.303-3.06-4.303-3.06c-0.903-0.639-2.124-0.623-2.709,0.035
						c0,0-4.187,4.673-8.304,9.477c-4.119,4.783-8.133,9.638-8.133,9.638l-4.888-3.105l-22.661,37.716c0,0,1.129,0.723,2.824,1.808
						c1.742,1.019,3.874,2.633,6.072,4.157c1.079,0.788,2.096,1.652,3.088,2.414c0.493,0.385,0.97,0.757,1.422,1.11
						c0.448,0.358,0.839,0.732,1.219,1.058c1.507,1.313,2.511,2.188,2.511,2.188l29.549-32.601L277.633,62.458z"/>
				</g>
				<g>
					<path d="M298.549,83.891c0,0,4.462-4.471,8.795-9.006c4.352-4.534,8.619-9.167,8.619-9.167c0.6-0.646,0.502-1.871-0.217-2.717
						c0,0-0.429-0.504-1.072-1.261c-0.649-0.75-1.484-1.78-2.403-2.733c-1.81-1.933-3.619-3.866-3.619-3.866
						c-0.761-0.808-1.961-1.035-2.664-0.504c0.001,0-5.053,3.798-10.016,7.689c-4.973,3.883-9.854,7.859-9.854,7.859
						s-1.043-1.007-2.085-2.013c-0.523-0.502-1.046-1.003-1.438-1.38c-0.409-0.358-0.682-0.596-0.682-0.596l-29.549,32.601
						c0,0,0.261,0.208,0.685,0.607c0.417,0.406,1.014,0.986,1.729,1.683c0.705,0.707,1.59,1.47,2.436,2.387
						c0.853,0.91,1.762,1.881,2.672,2.853c0.928,0.954,1.728,2.023,2.554,2.958c0.81,0.949,1.582,1.822,2.162,2.636
						c1.216,1.583,2.027,2.639,2.027,2.639l35.379-26.159L298.549,83.891z"/>
				</g>
				<g>
					<path d="M314.838,109.014c0,0,5.255-3.512,10.4-7.114c5.155-3.592,10.248-7.297,10.248-7.297
						c0.714-0.516,0.858-1.734,0.318-2.703c0,0-0.321-0.577-0.805-1.443c-0.499-0.857-1.098-2.038-1.814-3.151
						c-1.395-2.247-2.79-4.495-2.79-4.495c-0.588-0.94-1.721-1.397-2.514-1.015c0,0-5.697,2.729-11.328,5.57
						c-5.639,2.831-11.206,5.771-11.206,5.771s-0.824-1.192-1.649-2.384c-0.415-0.594-0.819-1.196-1.141-1.633
						c-0.331-0.432-0.551-0.72-0.551-0.72l-35.379,26.159c0,0,0.211,0.257,0.554,0.728c0.33,0.48,0.8,1.167,1.366,1.991
						c0.551,0.833,1.272,1.752,1.917,2.822c0.66,1.061,1.363,2.192,2.067,3.324c0.708,1.129,1.301,2.328,1.927,3.409
						c0.307,0.544,0.603,1.071,0.884,1.571c0.269,0.506,0.493,1,0.718,1.447c0.891,1.792,1.484,2.987,1.484,2.987l39.813-18.733
						L314.838,109.014z"/>
				</g>
				<g>
					<path d="M325.905,136.821c0,0,5.817-2.417,11.597-4.958c5.772-2.525,11.477-5.165,11.477-5.165
						c0.801-0.367,1.177-1.531,0.833-2.584c0.001,0-0.806-2.515-1.663-5.013c-0.936-2.47-1.872-4.94-1.872-4.94
						c-0.395-1.034-1.419-1.701-2.271-1.48c0,0-6.088,1.553-12.18,3.247c-6.084,1.677-12.119,3.474-12.119,3.474
						s-0.58-1.328-1.159-2.655c-0.29-0.664-0.581-1.327-0.799-1.825c-0.219-0.497-0.39-0.817-0.39-0.817l-39.813,18.733
						c0,0,0.167,0.29,0.387,0.832c0.232,0.536,0.564,1.302,0.962,2.221c0.864,1.809,1.753,4.332,2.725,6.82
						c0.417,1.27,0.833,2.539,1.224,3.729c0.421,1.181,0.722,2.312,0.977,3.281c0.537,1.932,0.895,3.22,0.895,3.22l42.693-10.644
						L325.905,136.821z"/>
				</g>
				<g>
					<path d="M331.364,166.244c0,0,6.173-1.243,12.333-2.614c6.174-1.359,12.284-2.842,12.285-2.842
						c0.856-0.205,1.447-1.274,1.311-2.373c0,0-0.333-2.621-0.665-5.241c-0.405-2.609-0.879-5.208-0.879-5.208
						c-0.19-1.09-1.069-1.942-1.948-1.891c0,0-6.282,0.344-12.555,0.817c-6.297,0.465-12.569,1.058-12.569,1.058l-1.269-5.653
						l-42.693,10.644c0,0,0.289,1.305,0.722,3.263c0.23,0.976,0.495,2.116,0.678,3.356c0.214,1.234,0.442,2.551,0.67,3.868
						c0.31,2.654,0.709,5.298,0.795,7.301c0.08,0.999,0.146,1.83,0.193,2.413c0.061,0.582,0.049,0.916,0.049,0.916l43.947-2.15
						c0,0,0.001-0.355-0.038-0.886c-0.04-0.531-0.094-1.239-0.148-1.947C331.473,167.659,331.364,166.244,331.364,166.244z"/>
				</g>
				<g>
					<path d="M330.997,196.174c0,0,6.294-0.013,12.602-0.157c6.306-0.13,12.622-0.391,12.622-0.391
						c0.88-0.033,1.665-0.968,1.742-2.075c0,0,0.178-2.64,0.354-5.279c0.109-1.319,0.095-2.643,0.129-3.633
						c0.02-0.992,0.033-1.652,0.033-1.652c0.021-1.108-0.677-2.116-1.55-2.238c0,0-6.236-0.886-12.475-1.642
						c-3.112-0.382-6.242-0.738-8.598-0.993c-2.352-0.249-3.919-0.415-3.919-0.415l-0.169-5.793l-43.947,2.15
						c0,0,0.037,1.334,0.092,3.335c0.012,0.5,0.046,1.042,0.046,1.615c-0.014,0.573-0.028,1.177-0.043,1.802
						c-0.045,1.249-0.007,2.585-0.101,3.915c-0.09,1.33-0.181,2.659-0.266,3.905c-0.067,1.249-0.272,2.398-0.368,3.393
						c-0.112,0.992-0.206,1.819-0.271,2.398c-0.081,0.577-0.147,0.903-0.147,0.903l43.519,6.487c0,0,0.058-0.35,0.146-0.876
						c0.079-0.526,0.15-1.233,0.237-1.938C330.831,197.585,330.997,196.174,330.997,196.174z"/>
				</g>
				<g>
					<path d="M324.769,225.462c0,0,6.175,1.224,12.388,2.322c6.209,1.111,12.455,2.097,12.455,2.097
						c0.872,0.141,1.822-0.624,2.116-1.694c0,0,0.69-2.556,1.382-5.112c0.363-1.274,0.627-2.572,0.845-3.541
						c0.213-0.97,0.355-1.616,0.355-1.616c0.237-1.084-0.252-2.211-1.084-2.501c0,0-5.942-2.092-11.912-4.057
						c-5.955-1.975-11.987-3.831-11.987-3.831l0.956-5.719l-43.519-6.487c0,0-0.22,1.313-0.55,3.281
						c-0.13,0.991-0.402,2.125-0.671,3.342c-0.291,1.213-0.495,2.532-0.867,3.811c-0.347,1.285-0.695,2.569-1.021,3.773
						c-0.316,1.208-0.739,2.296-1.029,3.251c-0.305,0.951-0.559,1.743-0.737,2.298c-0.187,0.552-0.32,0.858-0.32,0.858
						l41.396,14.912c0,0,0.126-0.332,0.314-0.83c0.167-0.506,0.389-1.18,0.611-1.855
						C324.331,226.813,324.769,225.462,324.769,225.462z"/>
				</g>
				<g>
					<path d="M312.933,252.952c0,0,5.82,2.406,11.701,4.699c5.887,2.312,11.781,4.479,11.781,4.479
						c0.825,0.307,1.911-0.251,2.409-1.24c0,0,1.182-2.361,2.362-4.722c0.6-1.176,1.093-2.406,1.507-3.305
						c0.4-0.907,0.667-1.512,0.667-1.512c0.447-1.014,0.19-2.212-0.569-2.66c0,0-5.415-3.216-10.882-6.313
						c-5.448-3.103-11.011-6.113-11.011-6.113l2.066-5.417l-41.396-14.912c0,0-0.476,1.245-1.19,3.111
						c-0.183,0.465-0.353,0.98-0.579,1.506c-0.234,0.523-0.48,1.076-0.735,1.647c-0.519,1.138-1.012,2.379-1.594,3.581
						c-1.225,2.377-2.35,4.804-3.41,6.521c-0.987,1.753-1.645,2.922-1.645,2.922l37.716,22.662L312.933,252.952z"/>
				</g>
			</g>
		</g>
	</g>
</g>
<g>
	<circle cx="179.241" cy="179.241" r="91.731"/>
	<g>
		<g>
			<g>
				<g>
					<g>
						<path fill="#FFFFFF" d="M225.293,214.416c-2.68-1.71-5.781-1.739-7.161-0.234c0,0-0.116,0.136-0.333,0.391
							c-0.218,0.255-0.578,0.587-1.007,1.04c-0.432,0.449-0.938,1.014-1.594,1.583c-0.315,0.298-0.65,0.616-1.003,0.951
							c-0.352,0.336-0.765,0.641-1.166,0.993c-1.605,1.409-3.624,2.884-5.887,4.313c-2.255,1.441-4.791,2.796-7.447,3.891
							c-2.646,1.114-5.388,2.008-8.003,2.67c-2.622,0.648-5.119,0.988-7.256,1.259c-1.076,0.048-2.057,0.183-2.93,0.2
							c-0.873,0.023-1.634,0.044-2.261,0.061c-1.252-0.026-1.967-0.041-1.967-0.041c-1.041-0.03-2.055,0.491-2.925,1.486
							c-0.86,0.94-1.569,2.269-1.862,3.819c0,0-0.773,4.245-2.137,10.589c-1.361,6.361-3.363,14.765-5.681,23.099
							c-2.302,8.346-4.921,16.64-7.031,22.829c-2.103,6.183-3.634,10.245-3.634,10.245c-0.754,2.021-0.241,4.208,1.339,5.919
							c0.786,0.862,1.831,1.629,3.081,2.242c1.248,0.63,2.708,1.055,4.312,1.232c0,0,0.549,0.064,1.579,0.185
							c1.03,0.117,2.539,0.309,4.47,0.423c1.93,0.122,4.272,0.334,6.964,0.354c1.346,0.025,2.778,0.06,4.287,0.062
							c1.508-0.042,3.094-0.085,4.749-0.131c6.611-0.287,14.309-1.106,22.394-2.827c8.084-1.705,16.543-4.311,24.664-7.761
							c8.127-3.435,15.902-7.709,22.773-12.349c6.879-4.631,12.872-9.594,17.643-14.209c1.223-1.124,2.334-2.261,3.382-3.352
							c1.049-1.089,2.052-2.117,2.965-3.107c1.78-2.021,3.339-3.781,4.57-5.271c2.39-3.035,3.755-4.769,3.755-4.769
							c1.885-2.606,2.778-5.386,2.591-7.719c-0.193-2.347-1.358-4.194-3.353-5.068c0,0-4-1.734-9.894-4.505
							c-5.881-2.758-13.674-6.631-21.302-10.776c-7.631-4.126-15.078-8.513-20.574-11.918c-2.747-1.696-5.025-3.15-6.619-4.178
							C226.2,215.005,225.293,214.416,225.293,214.416z"/>
					</g>
				</g>
				<g>
					<g>
						<path fill="#FFFFFF" d="M160.083,233.957c0.414-1.514,0.374-3.063,0.017-4.295c-0.179-0.617-0.44-1.157-0.779-1.583
							c-0.324-0.465-0.724-0.819-1.203-1.028c0,0-0.165-0.071-0.473-0.204c-0.155-0.065-0.346-0.146-0.57-0.241
							c-0.217-0.113-0.467-0.242-0.747-0.387c-1.132-0.543-2.734-1.39-4.586-2.532c-1.87-1.125-3.901-2.616-6.002-4.285
							c-2.043-1.735-4.093-3.719-5.968-5.86c-1.895-2.126-3.553-4.458-4.955-6.738c-0.362-0.563-0.716-1.119-1.008-1.696
							c-0.304-0.57-0.638-1.106-0.917-1.655c-0.525-1.114-1.091-2.133-1.483-3.139c-0.208-0.496-0.44-0.958-0.617-1.416
							c-0.172-0.46-0.336-0.896-0.489-1.307c-0.341-0.807-0.55-1.544-0.747-2.141c-0.421-1.187-0.58-1.891-0.58-1.89
							c-0.135-0.507-0.426-0.956-0.837-1.345c-0.409-0.39-0.879-0.734-1.471-1c-1.168-0.532-2.689-0.793-4.253-0.595
							c0,0-4.271,0.572-10.709,1.229c-6.437,0.662-15.06,1.354-23.735,1.732c-8.691,0.398-17.318,0.465-23.853,0.376
							c-6.521-0.085-10.882-0.277-10.882-0.277c-2.178-0.087-4.026,1.065-5.211,3.097c-1.222,2.029-1.612,4.912-1.047,8.08
							c0,0,0.084,0.545,0.313,1.552c0.226,1.008,0.557,2.486,0.978,4.368c0.424,1.881,1.083,4.129,1.796,6.718
							c0.369,1.291,0.833,2.644,1.295,4.078c0.466,1.433,0.962,2.937,1.565,4.478c2.262,6.212,5.438,13.282,9.582,20.458
							c4.127,7.181,9.237,14.455,15.055,21.131c5.804,6.688,12.305,12.76,18.842,17.832c6.54,5.08,13.051,9.188,18.849,12.322
							c5.824,3.106,10.884,5.336,14.485,6.744c1.808,0.687,3.229,1.227,4.198,1.595c0.483,0.187,0.861,0.311,1.116,0.394
							c0.254,0.084,0.385,0.128,0.385,0.128c3.07,1.012,5.99,1.03,8.177,0.103c2.184-0.889,3.585-2.558,3.801-4.728
							c0,0,0.413-4.346,1.232-10.816c0.818-6.484,2.083-15.02,3.688-23.568c1.583-8.539,3.475-16.981,5.032-23.263
							C158.918,238.099,160.083,233.957,160.083,233.957z"/>
					</g>
				</g>
				<g>
					<g>
						<path fill="#FFFFFF" d="M121.312,177.862c1.581-0.078,2.976-0.6,4.045-1.323c1.107-0.724,1.741-1.66,1.873-2.69
							c0,0,0.08-0.708,0.221-1.949c0.104-0.615,0.229-1.361,0.373-2.217c0.149-0.855,0.402-1.802,0.601-2.851
							c0.57-2.057,1.221-4.466,2.246-6.946c1.018-2.48,2.28-5.066,3.752-7.574c1.523-2.478,3.214-4.806,4.926-6.869
							c1.708-2.069,3.529-3.774,5.078-5.244c0.833-0.669,1.55-1.336,2.235-1.87c0.688-0.529,1.288-0.99,1.782-1.37
							c1.029-0.706,1.617-1.11,1.617-1.11c0.847-0.6,1.377-1.599,1.496-2.917c0.136-1.283-0.057-2.76-0.731-4.192
							c0,0-1.863-3.89-4.479-9.828c-2.625-5.945-5.942-13.942-8.952-22.043c-3.033-8.107-5.779-16.357-7.705-22.604
							c-0.969-3.127-1.733-5.731-2.259-7.556c-0.521-1.829-0.818-2.875-0.818-2.875c-0.579-2.081-2.271-3.545-4.55-4.004
							c-2.27-0.461-5.211-0.09-8.011,1.515c0,0-0.482,0.269-1.387,0.773c-0.908,0.498-2.229,1.246-3.864,2.281
							c-1.643,1.021-3.65,2.239-5.851,3.799c-1.105,0.772-2.296,1.571-3.511,2.471c-1.201,0.919-2.464,1.886-3.782,2.895
							c-5.196,4.127-10.97,9.335-16.517,15.504c-5.557,6.154-10.866,13.261-15.384,20.783c-4.52,7.52-8.302,15.544-11.127,23.34
							c-2.842,7.794-4.73,15.337-5.935,21.862c-0.272,1.637-0.532,3.206-0.78,4.698c-0.224,1.496-0.371,2.923-0.533,4.261
							c-0.344,2.675-0.477,5.02-0.607,6.95c-0.146,1.929-0.186,3.447-0.2,4.482c-0.021,1.035-0.032,1.587-0.032,1.587
							c-0.103,3.227,0.951,5.999,2.423,7.787c1.476,1.797,3.563,2.604,5.672,2.139c0,0,1.063-0.228,2.922-0.627
							c1.858-0.392,4.516-0.94,7.732-1.553c6.42-1.232,14.994-2.681,23.576-3.81c8.565-1.146,17.184-1.973,23.666-2.446
							C117.002,178.044,121.312,177.862,121.312,177.862z"/>
					</g>
				</g>
				<g>
					<g>
						<path fill="#FFFFFF" d="M162.608,123.725c0.56,1.474,1.504,2.694,2.522,3.476c0.512,0.398,1.037,0.652,1.573,0.83
							c0.537,0.18,1.069,0.226,1.58,0.107c0,0,0.696-0.189,1.941-0.375c0.62-0.106,1.368-0.269,2.241-0.347
							c0.434-0.057,0.896-0.117,1.383-0.181c0.488-0.059,1.004-0.071,1.54-0.12c1.072-0.126,2.237-0.105,3.468-0.165
							c0.615-0.011,1.246,0.032,1.892,0.033c0.647-0.013,1.304,0.039,1.971,0.094c2.672,0.167,5.509,0.536,8.276,1.211
							c2.771,0.65,5.485,1.529,7.977,2.518c2.46,1.071,4.73,2.165,6.601,3.288c1.878,1.099,3.377,2.117,4.389,2.861
							c0.259,0.179,0.491,0.339,0.692,0.478c0.189,0.153,0.35,0.284,0.48,0.39c0.263,0.209,0.402,0.321,0.402,0.321
							c0.409,0.325,0.91,0.511,1.473,0.579c0.535,0.099,1.134,0.076,1.764-0.055c1.255-0.263,2.641-0.955,3.784-2.032
							c0,0,3.111-2.973,7.93-7.294c4.815-4.325,11.382-9.958,18.177-15.365c6.794-5.431,13.737-10.554,19.078-14.322
							c5.328-3.761,8.971-6.166,8.971-6.166c1.814-1.208,2.631-3.229,2.391-5.575c-0.208-2.366-1.594-4.935-3.928-7.17
							c0,0-0.1-0.096-0.294-0.281c-0.193-0.186-0.48-0.461-0.872-0.8c-0.78-0.683-1.923-1.684-3.378-2.958
							c-2.933-2.519-7.277-5.939-12.755-9.624c-5.489-3.647-12.174-7.468-19.729-10.857c-7.547-3.39-15.96-6.279-24.59-8.264
							c-8.626-2.002-17.448-3.099-25.726-3.372c-8.281-0.289-16.015,0.225-22.562,1.144c-1.644,0.19-3.204,0.459-4.688,0.72
							c-1.483,0.266-2.895,0.491-4.208,0.771c-2.62,0.586-4.916,1.06-6.775,1.569c-1.859,0.511-3.32,0.913-4.315,1.187
							c-0.997,0.27-1.518,0.453-1.518,0.453c-3.064,0.988-5.427,2.687-6.645,4.718c-1.238,2-1.389,4.173-0.29,6.056
							c0,0,2.217,3.76,5.354,9.478c3.146,5.729,7.138,13.377,10.867,21.238c3.739,7.836,7.176,15.775,9.614,21.77
							C161.109,119.686,162.608,123.725,162.608,123.725z"/>
					</g>
				</g>
				<g>
					<g>
						<path fill="#FFFFFF" d="M226.892,146.26c-1.23,0.987-2.071,2.237-2.497,3.438c-0.471,1.236-0.454,2.375,0.061,3.28
							c0,0,0.349,0.625,0.959,1.718c0.279,0.561,0.619,1.243,1.007,2.024c0.396,0.779,0.736,1.708,1.199,2.681
							c0.765,2.014,1.637,4.378,2.295,6.998c0.644,2.62,1.141,5.46,1.4,8.32c0.28,2.859,0.274,5.734,0.061,8.402
							c-0.199,2.669-0.554,5.144-1.045,7.223c-0.122,0.519-0.198,1.027-0.329,1.496c-0.13,0.469-0.253,0.914-0.368,1.332
							c-0.196,0.846-0.456,1.559-0.65,2.151c-0.198,0.591-0.323,1.065-0.446,1.377c-0.123,0.311-0.189,0.477-0.189,0.477
							c-0.68,1.924,0.801,4.65,3.569,6.212c0,0,0.946,0.523,2.602,1.44c1.656,0.924,4.01,2.253,6.797,3.882
							c5.587,3.254,12.956,7.771,20.182,12.57c7.242,4.789,14.32,9.851,19.517,13.749c5.214,3.903,8.623,6.621,8.623,6.621
							c1.708,1.351,3.885,1.513,6.048,0.582c2.148-0.93,4.182-3.023,5.598-5.91c0,0,0.89-2.02,2.448-5.555
							c0.737-1.786,1.56-3.989,2.508-6.51c0.446-1.271,0.882-2.639,1.352-4.077c0.472-1.438,0.953-2.953,1.372-4.56
							c1.835-6.379,3.403-14,4.263-22.249c0.871-8.246,0.994-17.117,0.212-25.905c-0.767-8.79-2.437-17.482-4.728-25.42
							c-2.276-7.946-5.167-15.128-8.018-21.1c-0.736-1.482-1.442-2.903-2.114-4.254c-0.71-1.332-1.413-2.58-2.067-3.756
							c-1.282-2.367-2.568-4.336-3.583-5.982c-1.007-1.651-1.885-2.893-2.472-3.748c-0.59-0.853-0.904-1.307-0.904-1.307
							c-0.91-1.333-1.971-2.423-3.113-3.229c-1.128-0.817-2.296-1.379-3.427-1.668c-2.252-0.592-4.425-0.019-5.855,1.596
							c0,0-2.868,3.259-7.339,8.018c-4.475,4.769-10.567,10.976-16.855,16.927c-6.271,5.959-12.75,11.672-17.728,15.861
							C230.276,143.585,226.892,146.26,226.892,146.26z"/>
					</g>
				</g>
			</g>
		</g>
	</g>
</g>
</svg>
