<?xml version="1.0" encoding="UTF-8"?>
<!-- Created with Inkscape (http://www.inkscape.org/) -->
<svg width="707.61" height="875.88" version="1.1" viewBox="0 0 187.22 231.74" xmlns="http://www.w3.org/2000/svg" xmlns:cc="http://creativecommons.org/ns#" xmlns:dc="http://purl.org/dc/elements/1.1/" xmlns:rdf="http://www.w3.org/1999/02/22-rdf-syntax-ns#">
 <metadata>
  <rdf:RDF>
   <cc:Work rdf:about="">
    <dc:format>image/svg+xml</dc:format>
    <dc:type rdf:resource="http://purl.org/dc/dcmitype/StillImage"/>
    <dc:title/>
   </cc:Work>
  </rdf:RDF>
 </metadata>
 <g transform="translate(-6.5968 -8.7373)" fill="#fff">
  <g transform="matrix(.79512 0 0 .81269 74.413 -111.47)">
   <path d="m-27.035 188.44c0 0.49816-0.4071 0.90588-0.90615 0.90588h-20.158c-0.49783 0-0.90479-0.40773-0.90479-0.90588v-30.125c0-0.49814 0.40696-0.90602 0.90479-0.90602h20.158c0.49906 0 0.90615 0.40788 0.90615 0.90602z" stroke="#000" stroke-width=".36653"/>
   <path d="m-48.326 187.99c-0.24905-0.24756-0.27637-1.743-0.27452-15.026 2e-3 -12.89 0.0349-14.772 0.26203-14.917 0.15579-0.0991 4.2043-0.1783 10.102-0.19758 8.7183-0.0285 9.8735-7.7e-4 10.116 0.2399 0.24448 0.24301 0.27837 1.8296 0.31744 14.858 0.0291 9.7222-0.0159 14.698-0.13503 14.922-0.17354 0.32661-0.46938 0.3373-10.145 0.36631-8.8728 0.0266-9.9967-3.2e-4 -10.243-0.24504z" stroke-width="0"/>
  </g>
  <g transform="matrix(.79512 0 0 .81269 94.526 -111.47)">
   <path d="m-27.035 188.44c0 0.49816-0.4071 0.90588-0.90615 0.90588h-20.158c-0.49783 0-0.90479-0.40773-0.90479-0.90588v-30.125c0-0.49814 0.40696-0.90602 0.90479-0.90602h20.158c0.49906 0 0.90615 0.40788 0.90615 0.90602z" stroke="#000" stroke-width=".36653"/>
   <path d="m-48.326 187.99c-0.24905-0.24756-0.27637-1.743-0.27452-15.026 2e-3 -12.89 0.0349-14.772 0.26203-14.917 0.15579-0.0991 4.2043-0.1783 10.102-0.19758 8.7183-0.0285 9.8735-7.7e-4 10.116 0.2399 0.24448 0.24301 0.27837 1.8296 0.31744 14.858 0.0291 9.7222-0.0159 14.698-0.13503 14.922-0.17354 0.32661-0.46938 0.3373-10.145 0.36631-8.8728 0.0266-9.9967-3.2e-4 -10.243-0.24504z" stroke-width="0"/>
  </g>
  <g transform="matrix(.79512 0 0 .81269 74.413 -83.786)">
   <path d="m-27.035 188.44c0 0.49816-0.4071 0.90588-0.90615 0.90588h-20.158c-0.49783 0-0.90479-0.40773-0.90479-0.90588v-30.125c0-0.49814 0.40696-0.90602 0.90479-0.90602h20.158c0.49906 0 0.90615 0.40788 0.90615 0.90602z" stroke="#000" stroke-width=".36653"/>
   <path d="m-48.326 187.99c-0.24905-0.24756-0.27637-1.743-0.27452-15.026 2e-3 -12.89 0.0349-14.772 0.26203-14.917 0.15579-0.0991 4.2043-0.1783 10.102-0.19758 8.7183-0.0285 9.8735-7.7e-4 10.116 0.2399 0.24448 0.24301 0.27837 1.8296 0.31744 14.858 0.0291 9.7222-0.0159 14.698-0.13503 14.922-0.17354 0.32661-0.46938 0.3373-10.145 0.36631-8.8728 0.0266-9.9967-3.2e-4 -10.243-0.24504z" stroke-width="0"/>
  </g>
  <g transform="matrix(.79512 0 0 .81269 94.526 -83.786)">
   <path d="m-27.035 188.44c0 0.49816-0.4071 0.90588-0.90615 0.90588h-20.158c-0.49783 0-0.90479-0.40773-0.90479-0.90588v-30.125c0-0.49814 0.40696-0.90602 0.90479-0.90602h20.158c0.49906 0 0.90615 0.40788 0.90615 0.90602z" stroke="#000" stroke-width=".36653"/>
   <path d="m-48.326 187.99c-0.24905-0.24756-0.27637-1.743-0.27452-15.026 2e-3 -12.89 0.0349-14.772 0.26203-14.917 0.15579-0.0991 4.2043-0.1783 10.102-0.19758 8.7183-0.0285 9.8735-7.7e-4 10.116 0.2399 0.24448 0.24301 0.27837 1.8296 0.31744 14.858 0.0291 9.7222-0.0159 14.698-0.13503 14.922-0.17354 0.32661-0.46938 0.3373-10.145 0.36631-8.8728 0.0266-9.9967-3.2e-4 -10.243-0.24504z" stroke-width="0"/>
  </g>
  <g transform="matrix(.79512 0 0 .81269 142.8 -119.04)">
   <path d="m-27.035 188.44c0 0.49816-0.4071 0.90588-0.90615 0.90588h-20.158c-0.49783 0-0.90479-0.40773-0.90479-0.90588v-30.125c0-0.49814 0.40696-0.90602 0.90479-0.90602h20.158c0.49906 0 0.90615 0.40788 0.90615 0.90602z" stroke="#000" stroke-width=".36653"/>
   <path d="m-48.326 187.99c-0.24905-0.24756-0.27637-1.743-0.27452-15.026 2e-3 -12.89 0.0349-14.772 0.26203-14.917 0.15579-0.0991 4.2043-0.1783 10.102-0.19758 8.7183-0.0285 9.8735-7.7e-4 10.116 0.2399 0.24448 0.24301 0.27837 1.8296 0.31744 14.858 0.0291 9.7222-0.0159 14.698-0.13503 14.922-0.17354 0.32661-0.46938 0.3373-10.145 0.36631-8.8728 0.0266-9.9967-3.2e-4 -10.243-0.24504z" stroke-width="0"/>
  </g>
  <g transform="matrix(.79512 0 0 .81269 162.78 -119.04)">
   <path d="m-27.035 188.44c0 0.49816-0.4071 0.90588-0.90615 0.90588h-20.158c-0.49783 0-0.90479-0.40773-0.90479-0.90588v-30.125c0-0.49814 0.40696-0.90602 0.90479-0.90602h20.158c0.49906 0 0.90615 0.40788 0.90615 0.90602z" stroke="#000" stroke-width=".36653"/>
   <path d="m-48.326 187.99c-0.24905-0.24756-0.27637-1.743-0.27452-15.026 2e-3 -12.89 0.0349-14.772 0.26203-14.917 0.15579-0.0991 4.2043-0.1783 10.102-0.19758 8.7183-0.0285 9.8735-7.7e-4 10.116 0.2399 0.24448 0.24301 0.27837 1.8296 0.31744 14.858 0.0291 9.7222-0.0159 14.698-0.13503 14.922-0.17354 0.32661-0.46938 0.3373-10.145 0.36631-8.8728 0.0266-9.9967-3.2e-4 -10.243-0.24504z" stroke-width="0"/>
  </g>
  <g transform="matrix(.79512 0 0 .81269 142.8 -91.402)">
   <path d="m-27.035 188.44c0 0.49816-0.4071 0.90588-0.90615 0.90588h-20.158c-0.49783 0-0.90479-0.40773-0.90479-0.90588v-30.125c0-0.49814 0.40696-0.90602 0.90479-0.90602h20.158c0.49906 0 0.90615 0.40788 0.90615 0.90602z" stroke="#000" stroke-width=".36653"/>
   <path d="m-48.326 187.99c-0.24905-0.24756-0.27637-1.743-0.27452-15.026 2e-3 -12.89 0.0349-14.772 0.26203-14.917 0.15579-0.0991 4.2043-0.1783 10.102-0.19758 8.7183-0.0285 9.8735-7.7e-4 10.116 0.2399 0.24448 0.24301 0.27837 1.8296 0.31744 14.858 0.0291 9.7222-0.0159 14.698-0.13503 14.922-0.17354 0.32661-0.46938 0.3373-10.145 0.36631-8.8728 0.0266-9.9967-3.2e-4 -10.243-0.24504z" stroke-width="0"/>
  </g>
  <g transform="matrix(.79512 0 0 .81269 162.78 -91.402)">
   <path d="m-27.035 188.44c0 0.49816-0.4071 0.90588-0.90615 0.90588h-20.158c-0.49783 0-0.90479-0.40773-0.90479-0.90588v-30.125c0-0.49814 0.40696-0.90602 0.90479-0.90602h20.158c0.49906 0 0.90615 0.40788 0.90615 0.90602z" stroke="#000" stroke-width=".36653"/>
   <path d="m-48.326 187.99c-0.24905-0.24756-0.27637-1.743-0.27452-15.026 2e-3 -12.89 0.0349-14.772 0.26203-14.917 0.15579-0.0991 4.2043-0.1783 10.102-0.19758 8.7183-0.0285 9.8735-7.7e-4 10.116 0.2399 0.24448 0.24301 0.27837 1.8296 0.31744 14.858 0.0291 9.7222-0.0159 14.698-0.13503 14.922-0.17354 0.32661-0.46938 0.3373-10.145 0.36631-8.8728 0.0266-9.9967-3.2e-4 -10.243-0.24504z" stroke-width="0"/>
  </g>
  <g transform="matrix(.79512 0 0 .81269 182.47 -119.04)">
   <path d="m-27.035 188.44c0 0.49816-0.4071 0.90588-0.90615 0.90588h-20.158c-0.49783 0-0.90479-0.40773-0.90479-0.90588v-30.125c0-0.49814 0.40696-0.90602 0.90479-0.90602h20.158c0.49906 0 0.90615 0.40788 0.90615 0.90602z" stroke="#000" stroke-width=".36653"/>
   <path d="m-48.326 187.99c-0.24905-0.24756-0.27637-1.743-0.27452-15.026 2e-3 -12.89 0.0349-14.772 0.26203-14.917 0.15579-0.0991 4.2043-0.1783 10.102-0.19758 8.7183-0.0285 9.8735-7.7e-4 10.116 0.2399 0.24448 0.24301 0.27837 1.8296 0.31744 14.858 0.0291 9.7222-0.0159 14.698-0.13503 14.922-0.17354 0.32661-0.46938 0.3373-10.145 0.36631-8.8728 0.0266-9.9967-3.2e-4 -10.243-0.24504z" stroke-width="0"/>
  </g>
  <g transform="matrix(.79512 0 0 .81269 182.47 -91.402)">
   <path d="m-27.035 188.44c0 0.49816-0.4071 0.90588-0.90615 0.90588h-20.158c-0.49783 0-0.90479-0.40773-0.90479-0.90588v-30.125c0-0.49814 0.40696-0.90602 0.90479-0.90602h20.158c0.49906 0 0.90615 0.40788 0.90615 0.90602z" stroke="#000" stroke-width=".36653"/>
   <path d="m-48.326 187.99c-0.24905-0.24756-0.27637-1.743-0.27452-15.026 2e-3 -12.89 0.0349-14.772 0.26203-14.917 0.15579-0.0991 4.2043-0.1783 10.102-0.19758 8.7183-0.0285 9.8735-7.7e-4 10.116 0.2399 0.24448 0.24301 0.27837 1.8296 0.31744 14.858 0.0291 9.7222-0.0159 14.698-0.13503 14.922-0.17354 0.32661-0.46938 0.3373-10.145 0.36631-8.8728 0.0266-9.9967-3.2e-4 -10.243-0.24504z" stroke-width="0"/>
  </g>
  <g transform="matrix(.79512 0 0 .81269 142.8 -63.369)">
   <path d="m-27.035 188.44c0 0.49816-0.4071 0.90588-0.90615 0.90588h-20.158c-0.49783 0-0.90479-0.40773-0.90479-0.90588v-30.125c0-0.49814 0.40696-0.90602 0.90479-0.90602h20.158c0.49906 0 0.90615 0.40788 0.90615 0.90602z" stroke="#000" stroke-width=".36653"/>
   <path d="m-48.326 187.99c-0.24905-0.24756-0.27637-1.743-0.27452-15.026 2e-3 -12.89 0.0349-14.772 0.26203-14.917 0.15579-0.0991 4.2043-0.1783 10.102-0.19758 8.7183-0.0285 9.8735-7.7e-4 10.116 0.2399 0.24448 0.24301 0.27837 1.8296 0.31744 14.858 0.0291 9.7222-0.0159 14.698-0.13503 14.922-0.17354 0.32661-0.46938 0.3373-10.145 0.36631-8.8728 0.0266-9.9967-3.2e-4 -10.243-0.24504z" stroke-width="0"/>
  </g>
  <g transform="matrix(.79512 0 0 .81269 162.78 -63.369)">
   <path d="m-27.035 188.44c0 0.49816-0.4071 0.90588-0.90615 0.90588h-20.158c-0.49783 0-0.90479-0.40773-0.90479-0.90588v-30.125c0-0.49814 0.40696-0.90602 0.90479-0.90602h20.158c0.49906 0 0.90615 0.40788 0.90615 0.90602z" stroke="#000" stroke-width=".36653"/>
   <path d="m-48.326 187.99c-0.24905-0.24756-0.27637-1.743-0.27452-15.026 2e-3 -12.89 0.0349-14.772 0.26203-14.917 0.15579-0.0991 4.2043-0.1783 10.102-0.19758 8.7183-0.0285 9.8735-7.7e-4 10.116 0.2399 0.24448 0.24301 0.27837 1.8296 0.31744 14.858 0.0291 9.7222-0.0159 14.698-0.13503 14.922-0.17354 0.32661-0.46938 0.3373-10.145 0.36631-8.8728 0.0266-9.9967-3.2e-4 -10.243-0.24504z" stroke-width="0"/>
  </g>
  <g transform="matrix(.79512 0 0 .81269 182.47 -63.369)">
   <path d="m-27.035 188.44c0 0.49816-0.4071 0.90588-0.90615 0.90588h-20.158c-0.49783 0-0.90479-0.40773-0.90479-0.90588v-30.125c0-0.49814 0.40696-0.90602 0.90479-0.90602h20.158c0.49906 0 0.90615 0.40788 0.90615 0.90602z" stroke="#000" stroke-width=".36653"/>
   <path d="m-48.326 187.99c-0.24905-0.24756-0.27637-1.743-0.27452-15.026 2e-3 -12.89 0.0349-14.772 0.26203-14.917 0.15579-0.0991 4.2043-0.1783 10.102-0.19758 8.7183-0.0285 9.8735-7.7e-4 10.116 0.2399 0.24448 0.24301 0.27837 1.8296 0.31744 14.858 0.0291 9.7222-0.0159 14.698-0.13503 14.922-0.17354 0.32661-0.46938 0.3373-10.145 0.36631-8.8728 0.0266-9.9967-3.2e-4 -10.243-0.24504z" stroke-width="0"/>
  </g>
  <g transform="matrix(.79512 0 0 .81269 215.17 59.19)">
   <path d="m-27.035 188.44c0 0.49816-0.4071 0.90588-0.90615 0.90588h-20.158c-0.49783 0-0.90479-0.40773-0.90479-0.90588v-30.125c0-0.49814 0.40696-0.90602 0.90479-0.90602h20.158c0.49906 0 0.90615 0.40788 0.90615 0.90602z" stroke="#000" stroke-width=".36653"/>
   <path d="m-48.326 187.99c-0.24905-0.24756-0.27637-1.743-0.27452-15.026 2e-3 -12.89 0.0349-14.772 0.26203-14.917 0.15579-0.0991 4.2043-0.1783 10.102-0.19758 8.7183-0.0285 9.8735-7.7e-4 10.116 0.2399 0.24448 0.24301 0.27837 1.8296 0.31744 14.858 0.0291 9.7222-0.0159 14.698-0.13503 14.922-0.17354 0.32661-0.46938 0.3373-10.145 0.36631-8.8728 0.0266-9.9967-3.2e-4 -10.243-0.24504z" stroke-width="0"/>
  </g>
  <g transform="matrix(.79512 0 0 .81269 195.72 59.19)">
   <path d="m-27.035 188.44c0 0.49816-0.4071 0.90588-0.90615 0.90588h-20.158c-0.49783 0-0.90479-0.40773-0.90479-0.90588v-30.125c0-0.49814 0.40696-0.90602 0.90479-0.90602h20.158c0.49906 0 0.90615 0.40788 0.90615 0.90602z" stroke="#000" stroke-width=".36653"/>
   <path d="m-48.326 187.99c-0.24905-0.24756-0.27637-1.743-0.27452-15.026 2e-3 -12.89 0.0349-14.772 0.26203-14.917 0.15579-0.0991 4.2043-0.1783 10.102-0.19758 8.7183-0.0285 9.8735-7.7e-4 10.116 0.2399 0.24448 0.24301 0.27837 1.8296 0.31744 14.858 0.0291 9.7222-0.0159 14.698-0.13503 14.922-0.17354 0.32661-0.46938 0.3373-10.145 0.36631-8.8728 0.0266-9.9967-3.2e-4 -10.243-0.24504z" stroke-width="0"/>
  </g>
  <g transform="matrix(.79512 0 0 .81269 176.28 59.19)">
   <path d="m-27.035 188.44c0 0.49816-0.4071 0.90588-0.90615 0.90588h-20.158c-0.49783 0-0.90479-0.40773-0.90479-0.90588v-30.125c0-0.49814 0.40696-0.90602 0.90479-0.90602h20.158c0.49906 0 0.90615 0.40788 0.90615 0.90602z" stroke="#000" stroke-width=".36653"/>
   <path d="m-48.326 187.99c-0.24905-0.24756-0.27637-1.743-0.27452-15.026 2e-3 -12.89 0.0349-14.772 0.26203-14.917 0.15579-0.0991 4.2043-0.1783 10.102-0.19758 8.7183-0.0285 9.8735-7.7e-4 10.116 0.2399 0.24448 0.24301 0.27837 1.8296 0.31744 14.858 0.0291 9.7222-0.0159 14.698-0.13503 14.922-0.17354 0.32661-0.46938 0.3373-10.145 0.36631-8.8728 0.0266-9.9967-3.2e-4 -10.243-0.24504z" stroke-width="0"/>
  </g>
  <g transform="matrix(.79512 0 0 .81269 156.83 59.19)">
   <path d="m-27.035 188.44c0 0.49816-0.4071 0.90588-0.90615 0.90588h-20.158c-0.49783 0-0.90479-0.40773-0.90479-0.90588v-30.125c0-0.49814 0.40696-0.90602 0.90479-0.90602h20.158c0.49906 0 0.90615 0.40788 0.90615 0.90602z" stroke="#000" stroke-width=".36653"/>
   <path d="m-48.326 187.99c-0.24905-0.24756-0.27637-1.743-0.27452-15.026 2e-3 -12.89 0.0349-14.772 0.26203-14.917 0.15579-0.0991 4.2043-0.1783 10.102-0.19758 8.7183-0.0285 9.8735-7.7e-4 10.116 0.2399 0.24448 0.24301 0.27837 1.8296 0.31744 14.858 0.0291 9.7222-0.0159 14.698-0.13503 14.922-0.17354 0.32661-0.46938 0.3373-10.145 0.36631-8.8728 0.0266-9.9967-3.2e-4 -10.243-0.24504z" stroke-width="0"/>
  </g>
  <g transform="matrix(.79512 0 0 .81269 137.39 59.19)">
   <path d="m-27.035 188.44c0 0.49816-0.4071 0.90588-0.90615 0.90588h-20.158c-0.49783 0-0.90479-0.40773-0.90479-0.90588v-30.125c0-0.49814 0.40696-0.90602 0.90479-0.90602h20.158c0.49906 0 0.90615 0.40788 0.90615 0.90602z" stroke="#000" stroke-width=".36653"/>
   <path d="m-48.326 187.99c-0.24905-0.24756-0.27637-1.743-0.27452-15.026 2e-3 -12.89 0.0349-14.772 0.26203-14.917 0.15579-0.0991 4.2043-0.1783 10.102-0.19758 8.7183-0.0285 9.8735-7.7e-4 10.116 0.2399 0.24448 0.24301 0.27837 1.8296 0.31744 14.858 0.0291 9.7222-0.0159 14.698-0.13503 14.922-0.17354 0.32661-0.46938 0.3373-10.145 0.36631-8.8728 0.0266-9.9967-3.2e-4 -10.243-0.24504z" stroke-width="0"/>
  </g>
  <g transform="matrix(.79512 0 0 .81269 215.17 31.145)">
   <path d="m-27.035 188.44c0 0.49816-0.4071 0.90588-0.90615 0.90588h-20.158c-0.49783 0-0.90479-0.40773-0.90479-0.90588v-30.125c0-0.49814 0.40696-0.90602 0.90479-0.90602h20.158c0.49906 0 0.90615 0.40788 0.90615 0.90602z" stroke="#000" stroke-width=".36653"/>
   <path d="m-48.326 187.99c-0.24905-0.24756-0.27637-1.743-0.27452-15.026 2e-3 -12.89 0.0349-14.772 0.26203-14.917 0.15579-0.0991 4.2043-0.1783 10.102-0.19758 8.7183-0.0285 9.8735-7.7e-4 10.116 0.2399 0.24448 0.24301 0.27837 1.8296 0.31744 14.858 0.0291 9.7222-0.0159 14.698-0.13503 14.922-0.17354 0.32661-0.46938 0.3373-10.145 0.36631-8.8728 0.0266-9.9967-3.2e-4 -10.243-0.24504z" stroke-width="0"/>
  </g>
  <g transform="matrix(.79512 0 0 .81269 195.72 31.145)">
   <path d="m-27.035 188.44c0 0.49816-0.4071 0.90588-0.90615 0.90588h-20.158c-0.49783 0-0.90479-0.40773-0.90479-0.90588v-30.125c0-0.49814 0.40696-0.90602 0.90479-0.90602h20.158c0.49906 0 0.90615 0.40788 0.90615 0.90602z" stroke="#000" stroke-width=".36653"/>
   <path d="m-48.326 187.99c-0.24905-0.24756-0.27637-1.743-0.27452-15.026 2e-3 -12.89 0.0349-14.772 0.26203-14.917 0.15579-0.0991 4.2043-0.1783 10.102-0.19758 8.7183-0.0285 9.8735-7.7e-4 10.116 0.2399 0.24448 0.24301 0.27837 1.8296 0.31744 14.858 0.0291 9.7222-0.0159 14.698-0.13503 14.922-0.17354 0.32661-0.46938 0.3373-10.145 0.36631-8.8728 0.0266-9.9967-3.2e-4 -10.243-0.24504z" stroke-width="0"/>
  </g>
  <g transform="matrix(.79512 0 0 .81269 176.28 31.145)">
   <path d="m-27.035 188.44c0 0.49816-0.4071 0.90588-0.90615 0.90588h-20.158c-0.49783 0-0.90479-0.40773-0.90479-0.90588v-30.125c0-0.49814 0.40696-0.90602 0.90479-0.90602h20.158c0.49906 0 0.90615 0.40788 0.90615 0.90602z" stroke="#000" stroke-width=".36653"/>
   <path d="m-48.326 187.99c-0.24905-0.24756-0.27637-1.743-0.27452-15.026 2e-3 -12.89 0.0349-14.772 0.26203-14.917 0.15579-0.0991 4.2043-0.1783 10.102-0.19758 8.7183-0.0285 9.8735-7.7e-4 10.116 0.2399 0.24448 0.24301 0.27837 1.8296 0.31744 14.858 0.0291 9.7222-0.0159 14.698-0.13503 14.922-0.17354 0.32661-0.46938 0.3373-10.145 0.36631-8.8728 0.0266-9.9967-3.2e-4 -10.243-0.24504z" stroke-width="0"/>
  </g>
  <g transform="matrix(.79512 0 0 .81269 156.83 31.145)">
   <path d="m-27.035 188.44c0 0.49816-0.4071 0.90588-0.90615 0.90588h-20.158c-0.49783 0-0.90479-0.40773-0.90479-0.90588v-30.125c0-0.49814 0.40696-0.90602 0.90479-0.90602h20.158c0.49906 0 0.90615 0.40788 0.90615 0.90602z" stroke="#000" stroke-width=".36653"/>
   <path d="m-48.326 187.99c-0.24905-0.24756-0.27637-1.743-0.27452-15.026 2e-3 -12.89 0.0349-14.772 0.26203-14.917 0.15579-0.0991 4.2043-0.1783 10.102-0.19758 8.7183-0.0285 9.8735-7.7e-4 10.116 0.2399 0.24448 0.24301 0.27837 1.8296 0.31744 14.858 0.0291 9.7222-0.0159 14.698-0.13503 14.922-0.17354 0.32661-0.46938 0.3373-10.145 0.36631-8.8728 0.0266-9.9967-3.2e-4 -10.243-0.24504z" stroke-width="0"/>
  </g>
  <g transform="matrix(.79512 0 0 .81269 137.39 31.145)">
   <path d="m-27.035 188.44c0 0.49816-0.4071 0.90588-0.90615 0.90588h-20.158c-0.49783 0-0.90479-0.40773-0.90479-0.90588v-30.125c0-0.49814 0.40696-0.90602 0.90479-0.90602h20.158c0.49906 0 0.90615 0.40788 0.90615 0.90602z" stroke="#000" stroke-width=".36653"/>
   <path d="m-48.326 187.99c-0.24905-0.24756-0.27637-1.743-0.27452-15.026 2e-3 -12.89 0.0349-14.772 0.26203-14.917 0.15579-0.0991 4.2043-0.1783 10.102-0.19758 8.7183-0.0285 9.8735-7.7e-4 10.116 0.2399 0.24448 0.24301 0.27837 1.8296 0.31744 14.858 0.0291 9.7222-0.0159 14.698-0.13503 14.922-0.17354 0.32661-0.46938 0.3373-10.145 0.36631-8.8728 0.0266-9.9967-3.2e-4 -10.243-0.24504z" stroke-width="0"/>
  </g>
  <g transform="matrix(.79512 0 0 .81269 215.17 3.6279)">
   <path d="m-27.035 188.44c0 0.49816-0.4071 0.90588-0.90615 0.90588h-20.158c-0.49783 0-0.90479-0.40773-0.90479-0.90588v-30.125c0-0.49814 0.40696-0.90602 0.90479-0.90602h20.158c0.49906 0 0.90615 0.40788 0.90615 0.90602z" stroke="#000" stroke-width=".36653"/>
   <path d="m-48.326 187.99c-0.24905-0.24756-0.27637-1.743-0.27452-15.026 2e-3 -12.89 0.0349-14.772 0.26203-14.917 0.15579-0.0991 4.2043-0.1783 10.102-0.19758 8.7183-0.0285 9.8735-7.7e-4 10.116 0.2399 0.24448 0.24301 0.27837 1.8296 0.31744 14.858 0.0291 9.7222-0.0159 14.698-0.13503 14.922-0.17354 0.32661-0.46938 0.3373-10.145 0.36631-8.8728 0.0266-9.9967-3.2e-4 -10.243-0.24504z" stroke-width="0"/>
  </g>
  <g transform="matrix(.79512 0 0 .81269 195.72 3.6279)">
   <path d="m-27.035 188.44c0 0.49816-0.4071 0.90588-0.90615 0.90588h-20.158c-0.49783 0-0.90479-0.40773-0.90479-0.90588v-30.125c0-0.49814 0.40696-0.90602 0.90479-0.90602h20.158c0.49906 0 0.90615 0.40788 0.90615 0.90602z" stroke="#000" stroke-width=".36653"/>
   <path d="m-48.326 187.99c-0.24905-0.24756-0.27637-1.743-0.27452-15.026 2e-3 -12.89 0.0349-14.772 0.26203-14.917 0.15579-0.0991 4.2043-0.1783 10.102-0.19758 8.7183-0.0285 9.8735-7.7e-4 10.116 0.2399 0.24448 0.24301 0.27837 1.8296 0.31744 14.858 0.0291 9.7222-0.0159 14.698-0.13503 14.922-0.17354 0.32661-0.46938 0.3373-10.145 0.36631-8.8728 0.0266-9.9967-3.2e-4 -10.243-0.24504z" stroke-width="0"/>
  </g>
  <g transform="matrix(.79512 0 0 .81269 176.28 3.6279)">
   <path d="m-27.035 188.44c0 0.49816-0.4071 0.90588-0.90615 0.90588h-20.158c-0.49783 0-0.90479-0.40773-0.90479-0.90588v-30.125c0-0.49814 0.40696-0.90602 0.90479-0.90602h20.158c0.49906 0 0.90615 0.40788 0.90615 0.90602z" stroke="#000" stroke-width=".36653"/>
   <path d="m-48.326 187.99c-0.24905-0.24756-0.27637-1.743-0.27452-15.026 2e-3 -12.89 0.0349-14.772 0.26203-14.917 0.15579-0.0991 4.2043-0.1783 10.102-0.19758 8.7183-0.0285 9.8735-7.7e-4 10.116 0.2399 0.24448 0.24301 0.27837 1.8296 0.31744 14.858 0.0291 9.7222-0.0159 14.698-0.13503 14.922-0.17354 0.32661-0.46938 0.3373-10.145 0.36631-8.8728 0.0266-9.9967-3.2e-4 -10.243-0.24504z" stroke-width="0"/>
  </g>
  <g transform="matrix(.79512 0 0 .81269 156.83 3.6279)">
   <path d="m-27.035 188.44c0 0.49816-0.4071 0.90588-0.90615 0.90588h-20.158c-0.49783 0-0.90479-0.40773-0.90479-0.90588v-30.125c0-0.49814 0.40696-0.90602 0.90479-0.90602h20.158c0.49906 0 0.90615 0.40788 0.90615 0.90602z" stroke="#000" stroke-width=".36653"/>
   <path d="m-48.326 187.99c-0.24905-0.24756-0.27637-1.743-0.27452-15.026 2e-3 -12.89 0.0349-14.772 0.26203-14.917 0.15579-0.0991 4.2043-0.1783 10.102-0.19758 8.7183-0.0285 9.8735-7.7e-4 10.116 0.2399 0.24448 0.24301 0.27837 1.8296 0.31744 14.858 0.0291 9.7222-0.0159 14.698-0.13503 14.922-0.17354 0.32661-0.46938 0.3373-10.145 0.36631-8.8728 0.0266-9.9967-3.2e-4 -10.243-0.24504z" stroke-width="0"/>
  </g>
  <g transform="matrix(.79512 0 0 .81269 137.39 3.6279)">
   <path d="m-27.035 188.44c0 0.49816-0.4071 0.90588-0.90615 0.90588h-20.158c-0.49783 0-0.90479-0.40773-0.90479-0.90588v-30.125c0-0.49814 0.40696-0.90602 0.90479-0.90602h20.158c0.49906 0 0.90615 0.40788 0.90615 0.90602z" stroke="#000" stroke-width=".36653"/>
   <path d="m-48.326 187.99c-0.24905-0.24756-0.27637-1.743-0.27452-15.026 2e-3 -12.89 0.0349-14.772 0.26203-14.917 0.15579-0.0991 4.2043-0.1783 10.102-0.19758 8.7183-0.0285 9.8735-7.7e-4 10.116 0.2399 0.24448 0.24301 0.27837 1.8296 0.31744 14.858 0.0291 9.7222-0.0159 14.698-0.13503 14.922-0.17354 0.32661-0.46938 0.3373-10.145 0.36631-8.8728 0.0266-9.9967-3.2e-4 -10.243-0.24504z" stroke-width="0"/>
  </g>
  <g transform="matrix(.79512 0 0 .81269 215.17 -24.153)">
   <path d="m-27.035 188.44c0 0.49816-0.4071 0.90588-0.90615 0.90588h-20.158c-0.49783 0-0.90479-0.40773-0.90479-0.90588v-30.125c0-0.49814 0.40696-0.90602 0.90479-0.90602h20.158c0.49906 0 0.90615 0.40788 0.90615 0.90602z" stroke="#000" stroke-width=".36653"/>
   <path d="m-48.326 187.99c-0.24905-0.24756-0.27637-1.743-0.27452-15.026 2e-3 -12.89 0.0349-14.772 0.26203-14.917 0.15579-0.0991 4.2043-0.1783 10.102-0.19758 8.7183-0.0285 9.8735-7.7e-4 10.116 0.2399 0.24448 0.24301 0.27837 1.8296 0.31744 14.858 0.0291 9.7222-0.0159 14.698-0.13503 14.922-0.17354 0.32661-0.46938 0.3373-10.145 0.36631-8.8728 0.0266-9.9967-3.2e-4 -10.243-0.24504z" stroke-width="0"/>
  </g>
  <g transform="matrix(.79512 0 0 .81269 195.72 -24.153)">
   <path d="m-27.035 188.44c0 0.49816-0.4071 0.90588-0.90615 0.90588h-20.158c-0.49783 0-0.90479-0.40773-0.90479-0.90588v-30.125c0-0.49814 0.40696-0.90602 0.90479-0.90602h20.158c0.49906 0 0.90615 0.40788 0.90615 0.90602z" stroke="#000" stroke-width=".36653"/>
   <path d="m-48.326 187.99c-0.24905-0.24756-0.27637-1.743-0.27452-15.026 2e-3 -12.89 0.0349-14.772 0.26203-14.917 0.15579-0.0991 4.2043-0.1783 10.102-0.19758 8.7183-0.0285 9.8735-7.7e-4 10.116 0.2399 0.24448 0.24301 0.27837 1.8296 0.31744 14.858 0.0291 9.7222-0.0159 14.698-0.13503 14.922-0.17354 0.32661-0.46938 0.3373-10.145 0.36631-8.8728 0.0266-9.9967-3.2e-4 -10.243-0.24504z" stroke-width="0"/>
  </g>
  <g transform="matrix(.79512 0 0 .81269 176.28 -24.153)">
   <path d="m-27.035 188.44c0 0.49816-0.4071 0.90588-0.90615 0.90588h-20.158c-0.49783 0-0.90479-0.40773-0.90479-0.90588v-30.125c0-0.49814 0.40696-0.90602 0.90479-0.90602h20.158c0.49906 0 0.90615 0.40788 0.90615 0.90602z" stroke="#000" stroke-width=".36653"/>
   <path d="m-48.326 187.99c-0.24905-0.24756-0.27637-1.743-0.27452-15.026 2e-3 -12.89 0.0349-14.772 0.26203-14.917 0.15579-0.0991 4.2043-0.1783 10.102-0.19758 8.7183-0.0285 9.8735-7.7e-4 10.116 0.2399 0.24448 0.24301 0.27837 1.8296 0.31744 14.858 0.0291 9.7222-0.0159 14.698-0.13503 14.922-0.17354 0.32661-0.46938 0.3373-10.145 0.36631-8.8728 0.0266-9.9967-3.2e-4 -10.243-0.24504z" stroke-width="0"/>
  </g>
  <g transform="matrix(.79512 0 0 .81269 156.83 -24.153)">
   <path d="m-27.035 188.44c0 0.49816-0.4071 0.90588-0.90615 0.90588h-20.158c-0.49783 0-0.90479-0.40773-0.90479-0.90588v-30.125c0-0.49814 0.40696-0.90602 0.90479-0.90602h20.158c0.49906 0 0.90615 0.40788 0.90615 0.90602z" stroke="#000" stroke-width=".36653"/>
   <path d="m-48.326 187.99c-0.24905-0.24756-0.27637-1.743-0.27452-15.026 2e-3 -12.89 0.0349-14.772 0.26203-14.917 0.15579-0.0991 4.2043-0.1783 10.102-0.19758 8.7183-0.0285 9.8735-7.7e-4 10.116 0.2399 0.24448 0.24301 0.27837 1.8296 0.31744 14.858 0.0291 9.7222-0.0159 14.698-0.13503 14.922-0.17354 0.32661-0.46938 0.3373-10.145 0.36631-8.8728 0.0266-9.9967-3.2e-4 -10.243-0.24504z" stroke-width="0"/>
  </g>
  <g transform="matrix(.79512 0 0 .81269 137.39 -24.153)">
   <path d="m-27.035 188.44c0 0.49816-0.4071 0.90588-0.90615 0.90588h-20.158c-0.49783 0-0.90479-0.40773-0.90479-0.90588v-30.125c0-0.49814 0.40696-0.90602 0.90479-0.90602h20.158c0.49906 0 0.90615 0.40788 0.90615 0.90602z" stroke="#000" stroke-width=".36653"/>
   <path d="m-48.326 187.99c-0.24905-0.24756-0.27637-1.743-0.27452-15.026 2e-3 -12.89 0.0349-14.772 0.26203-14.917 0.15579-0.0991 4.2043-0.1783 10.102-0.19758 8.7183-0.0285 9.8735-7.7e-4 10.116 0.2399 0.24448 0.24301 0.27837 1.8296 0.31744 14.858 0.0291 9.7222-0.0159 14.698-0.13503 14.922-0.17354 0.32661-0.46938 0.3373-10.145 0.36631-8.8728 0.0266-9.9967-3.2e-4 -10.243-0.24504z" stroke-width="0"/>
  </g>
  <g transform="matrix(.79512 0 0 .81269 104.04 31.145)">
   <path d="m-27.035 188.44c0 0.49816-0.4071 0.90588-0.90615 0.90588h-20.158c-0.49783 0-0.90479-0.40773-0.90479-0.90588v-30.125c0-0.49814 0.40696-0.90602 0.90479-0.90602h20.158c0.49906 0 0.90615 0.40788 0.90615 0.90602z" stroke="#000" stroke-width=".36653"/>
   <path d="m-48.326 187.99c-0.24905-0.24756-0.27637-1.743-0.27452-15.026 2e-3 -12.89 0.0349-14.772 0.26203-14.917 0.15579-0.0991 4.2043-0.1783 10.102-0.19758 8.7183-0.0285 9.8735-7.7e-4 10.116 0.2399 0.24448 0.24301 0.27837 1.8296 0.31744 14.858 0.0291 9.7222-0.0159 14.698-0.13503 14.922-0.17354 0.32661-0.46938 0.3373-10.145 0.36631-8.8728 0.0266-9.9967-3.2e-4 -10.243-0.24504z" stroke-width="0"/>
  </g>
  <g transform="matrix(.79512 0 0 .81269 84.598 31.145)">
   <path d="m-27.035 188.44c0 0.49816-0.4071 0.90588-0.90615 0.90588h-20.158c-0.49783 0-0.90479-0.40773-0.90479-0.90588v-30.125c0-0.49814 0.40696-0.90602 0.90479-0.90602h20.158c0.49906 0 0.90615 0.40788 0.90615 0.90602z" stroke="#000" stroke-width=".36653"/>
   <path d="m-48.326 187.99c-0.24905-0.24756-0.27637-1.743-0.27452-15.026 2e-3 -12.89 0.0349-14.772 0.26203-14.917 0.15579-0.0991 4.2043-0.1783 10.102-0.19758 8.7183-0.0285 9.8735-7.7e-4 10.116 0.2399 0.24448 0.24301 0.27837 1.8296 0.31744 14.858 0.0291 9.7222-0.0159 14.698-0.13503 14.922-0.17354 0.32661-0.46938 0.3373-10.145 0.36631-8.8728 0.0266-9.9967-3.2e-4 -10.243-0.24504z" stroke-width="0"/>
  </g>
  <g transform="matrix(.79512 0 0 .81269 65.152 31.145)">
   <path d="m-27.035 188.44c0 0.49816-0.4071 0.90588-0.90615 0.90588h-20.158c-0.49783 0-0.90479-0.40773-0.90479-0.90588v-30.125c0-0.49814 0.40696-0.90602 0.90479-0.90602h20.158c0.49906 0 0.90615 0.40788 0.90615 0.90602z" stroke="#000" stroke-width=".36653"/>
   <path d="m-48.326 187.99c-0.24905-0.24756-0.27637-1.743-0.27452-15.026 2e-3 -12.89 0.0349-14.772 0.26203-14.917 0.15579-0.0991 4.2043-0.1783 10.102-0.19758 8.7183-0.0285 9.8735-7.7e-4 10.116 0.2399 0.24448 0.24301 0.27837 1.8296 0.31744 14.858 0.0291 9.7222-0.0159 14.698-0.13503 14.922-0.17354 0.32661-0.46938 0.3373-10.145 0.36631-8.8728 0.0266-9.9967-3.2e-4 -10.243-0.24504z" stroke-width="0"/>
  </g>
  <g transform="matrix(.79512 0 0 .81269 45.707 31.145)">
   <path d="m-27.035 188.44c0 0.49816-0.4071 0.90588-0.90615 0.90588h-20.158c-0.49783 0-0.90479-0.40773-0.90479-0.90588v-30.125c0-0.49814 0.40696-0.90602 0.90479-0.90602h20.158c0.49906 0 0.90615 0.40788 0.90615 0.90602z" stroke="#000" stroke-width=".36653"/>
   <path d="m-48.326 187.99c-0.24905-0.24756-0.27637-1.743-0.27452-15.026 2e-3 -12.89 0.0349-14.772 0.26203-14.917 0.15579-0.0991 4.2043-0.1783 10.102-0.19758 8.7183-0.0285 9.8735-7.7e-4 10.116 0.2399 0.24448 0.24301 0.27837 1.8296 0.31744 14.858 0.0291 9.7222-0.0159 14.698-0.13503 14.922-0.17354 0.32661-0.46938 0.3373-10.145 0.36631-8.8728 0.0266-9.9967-3.2e-4 -10.243-0.24504z" stroke-width="0"/>
  </g>
  <g transform="matrix(.79512 0 0 .81269 104.04 3.6279)">
   <path d="m-27.035 188.44c0 0.49816-0.4071 0.90588-0.90615 0.90588h-20.158c-0.49783 0-0.90479-0.40773-0.90479-0.90588v-30.125c0-0.49814 0.40696-0.90602 0.90479-0.90602h20.158c0.49906 0 0.90615 0.40788 0.90615 0.90602z" stroke="#000" stroke-width=".36653"/>
   <path d="m-48.326 187.99c-0.24905-0.24756-0.27637-1.743-0.27452-15.026 2e-3 -12.89 0.0349-14.772 0.26203-14.917 0.15579-0.0991 4.2043-0.1783 10.102-0.19758 8.7183-0.0285 9.8735-7.7e-4 10.116 0.2399 0.24448 0.24301 0.27837 1.8296 0.31744 14.858 0.0291 9.7222-0.0159 14.698-0.13503 14.922-0.17354 0.32661-0.46938 0.3373-10.145 0.36631-8.8728 0.0266-9.9967-3.2e-4 -10.243-0.24504z" stroke-width="0"/>
  </g>
  <g transform="matrix(.79512 0 0 .81269 84.598 3.6279)">
   <path d="m-27.035 188.44c0 0.49816-0.4071 0.90588-0.90615 0.90588h-20.158c-0.49783 0-0.90479-0.40773-0.90479-0.90588v-30.125c0-0.49814 0.40696-0.90602 0.90479-0.90602h20.158c0.49906 0 0.90615 0.40788 0.90615 0.90602z" stroke="#000" stroke-width=".36653"/>
   <path d="m-48.326 187.99c-0.24905-0.24756-0.27637-1.743-0.27452-15.026 2e-3 -12.89 0.0349-14.772 0.26203-14.917 0.15579-0.0991 4.2043-0.1783 10.102-0.19758 8.7183-0.0285 9.8735-7.7e-4 10.116 0.2399 0.24448 0.24301 0.27837 1.8296 0.31744 14.858 0.0291 9.7222-0.0159 14.698-0.13503 14.922-0.17354 0.32661-0.46938 0.3373-10.145 0.36631-8.8728 0.0266-9.9967-3.2e-4 -10.243-0.24504z" stroke-width="0"/>
  </g>
  <g transform="matrix(.79512 0 0 .81269 65.152 3.6279)">
   <path d="m-27.035 188.44c0 0.49816-0.4071 0.90588-0.90615 0.90588h-20.158c-0.49783 0-0.90479-0.40773-0.90479-0.90588v-30.125c0-0.49814 0.40696-0.90602 0.90479-0.90602h20.158c0.49906 0 0.90615 0.40788 0.90615 0.90602z" stroke="#000" stroke-width=".36653"/>
   <path d="m-48.326 187.99c-0.24905-0.24756-0.27637-1.743-0.27452-15.026 2e-3 -12.89 0.0349-14.772 0.26203-14.917 0.15579-0.0991 4.2043-0.1783 10.102-0.19758 8.7183-0.0285 9.8735-7.7e-4 10.116 0.2399 0.24448 0.24301 0.27837 1.8296 0.31744 14.858 0.0291 9.7222-0.0159 14.698-0.13503 14.922-0.17354 0.32661-0.46938 0.3373-10.145 0.36631-8.8728 0.0266-9.9967-3.2e-4 -10.243-0.24504z" stroke-width="0"/>
  </g>
  <g transform="matrix(.79512 0 0 .81269 45.707 3.6279)">
   <path d="m-27.035 188.44c0 0.49816-0.4071 0.90588-0.90615 0.90588h-20.158c-0.49783 0-0.90479-0.40773-0.90479-0.90588v-30.125c0-0.49814 0.40696-0.90602 0.90479-0.90602h20.158c0.49906 0 0.90615 0.40788 0.90615 0.90602z" stroke="#000" stroke-width=".36653"/>
   <path d="m-48.326 187.99c-0.24905-0.24756-0.27637-1.743-0.27452-15.026 2e-3 -12.89 0.0349-14.772 0.26203-14.917 0.15579-0.0991 4.2043-0.1783 10.102-0.19758 8.7183-0.0285 9.8735-7.7e-4 10.116 0.2399 0.24448 0.24301 0.27837 1.8296 0.31744 14.858 0.0291 9.7222-0.0159 14.698-0.13503 14.922-0.17354 0.32661-0.46938 0.3373-10.145 0.36631-8.8728 0.0266-9.9967-3.2e-4 -10.243-0.24504z" stroke-width="0"/>
  </g>
  <g transform="matrix(.79512 0 0 .81269 104.04 -24.153)">
   <path d="m-27.035 188.44c0 0.49816-0.4071 0.90588-0.90615 0.90588h-20.158c-0.49783 0-0.90479-0.40773-0.90479-0.90588v-30.125c0-0.49814 0.40696-0.90602 0.90479-0.90602h20.158c0.49906 0 0.90615 0.40788 0.90615 0.90602z" stroke="#000" stroke-width=".36653"/>
   <path d="m-48.326 187.99c-0.24905-0.24756-0.27637-1.743-0.27452-15.026 2e-3 -12.89 0.0349-14.772 0.26203-14.917 0.15579-0.0991 4.2043-0.1783 10.102-0.19758 8.7183-0.0285 9.8735-7.7e-4 10.116 0.2399 0.24448 0.24301 0.27837 1.8296 0.31744 14.858 0.0291 9.7222-0.0159 14.698-0.13503 14.922-0.17354 0.32661-0.46938 0.3373-10.145 0.36631-8.8728 0.0266-9.9967-3.2e-4 -10.243-0.24504z" stroke-width="0"/>
  </g>
  <g transform="matrix(.79512 0 0 .81269 84.598 -24.153)">
   <path d="m-27.035 188.44c0 0.49816-0.4071 0.90588-0.90615 0.90588h-20.158c-0.49783 0-0.90479-0.40773-0.90479-0.90588v-30.125c0-0.49814 0.40696-0.90602 0.90479-0.90602h20.158c0.49906 0 0.90615 0.40788 0.90615 0.90602z" stroke="#000" stroke-width=".36653"/>
   <path d="m-48.326 187.99c-0.24905-0.24756-0.27637-1.743-0.27452-15.026 2e-3 -12.89 0.0349-14.772 0.26203-14.917 0.15579-0.0991 4.2043-0.1783 10.102-0.19758 8.7183-0.0285 9.8735-7.7e-4 10.116 0.2399 0.24448 0.24301 0.27837 1.8296 0.31744 14.858 0.0291 9.7222-0.0159 14.698-0.13503 14.922-0.17354 0.32661-0.46938 0.3373-10.145 0.36631-8.8728 0.0266-9.9967-3.2e-4 -10.243-0.24504z" stroke-width="0"/>
  </g>
  <g transform="matrix(.79512 0 0 .81269 65.152 -24.153)">
   <path d="m-27.035 188.44c0 0.49816-0.4071 0.90588-0.90615 0.90588h-20.158c-0.49783 0-0.90479-0.40773-0.90479-0.90588v-30.125c0-0.49814 0.40696-0.90602 0.90479-0.90602h20.158c0.49906 0 0.90615 0.40788 0.90615 0.90602z" stroke="#000" stroke-width=".36653"/>
   <path d="m-48.326 187.99c-0.24905-0.24756-0.27637-1.743-0.27452-15.026 2e-3 -12.89 0.0349-14.772 0.26203-14.917 0.15579-0.0991 4.2043-0.1783 10.102-0.19758 8.7183-0.0285 9.8735-7.7e-4 10.116 0.2399 0.24448 0.24301 0.27837 1.8296 0.31744 14.858 0.0291 9.7222-0.0159 14.698-0.13503 14.922-0.17354 0.32661-0.46938 0.3373-10.145 0.36631-8.8728 0.0266-9.9967-3.2e-4 -10.243-0.24504z" stroke-width="0"/>
  </g>
  <g transform="matrix(.79512 0 0 .81269 45.707 -24.153)">
   <path d="m-27.035 188.44c0 0.49816-0.4071 0.90588-0.90615 0.90588h-20.158c-0.49783 0-0.90479-0.40773-0.90479-0.90588v-30.125c0-0.49814 0.40696-0.90602 0.90479-0.90602h20.158c0.49906 0 0.90615 0.40788 0.90615 0.90602z" stroke="#000" stroke-width=".36653"/>
   <path d="m-48.326 187.99c-0.24905-0.24756-0.27637-1.743-0.27452-15.026 2e-3 -12.89 0.0349-14.772 0.26203-14.917 0.15579-0.0991 4.2043-0.1783 10.102-0.19758 8.7183-0.0285 9.8735-7.7e-4 10.116 0.2399 0.24448 0.24301 0.27837 1.8296 0.31744 14.858 0.0291 9.7222-0.0159 14.698-0.13503 14.922-0.17354 0.32661-0.46938 0.3373-10.145 0.36631-8.8728 0.0266-9.9967-3.2e-4 -10.243-0.24504z" stroke-width="0"/>
  </g>
  <g transform="matrix(.79512 0 0 .81269 104.19 58.671)">
   <path d="m-27.035 188.44c0 0.49816-0.4071 0.90588-0.90615 0.90588h-20.158c-0.49783 0-0.90479-0.40773-0.90479-0.90588v-30.125c0-0.49814 0.40696-0.90602 0.90479-0.90602h20.158c0.49906 0 0.90615 0.40788 0.90615 0.90602z" stroke="#000" stroke-width=".36653"/>
   <path d="m-48.326 187.99c-0.24905-0.24756-0.27637-1.743-0.27452-15.026 2e-3 -12.89 0.0349-14.772 0.26203-14.917 0.15579-0.0991 4.2043-0.1783 10.102-0.19758 8.7183-0.0285 9.8735-7.7e-4 10.116 0.2399 0.24448 0.24301 0.27837 1.8296 0.31744 14.858 0.0291 9.7222-0.0159 14.698-0.13503 14.922-0.17354 0.32661-0.46938 0.3373-10.145 0.36631-8.8728 0.0266-9.9967-3.2e-4 -10.243-0.24504z" stroke-width="0"/>
  </g>
  <g transform="matrix(.79512 0 0 .81269 84.745 58.671)">
   <path d="m-27.035 188.44c0 0.49816-0.4071 0.90588-0.90615 0.90588h-20.158c-0.49783 0-0.90479-0.40773-0.90479-0.90588v-30.125c0-0.49814 0.40696-0.90602 0.90479-0.90602h20.158c0.49906 0 0.90615 0.40788 0.90615 0.90602z" stroke="#000" stroke-width=".36653"/>
   <path d="m-48.326 187.99c-0.24905-0.24756-0.27637-1.743-0.27452-15.026 2e-3 -12.89 0.0349-14.772 0.26203-14.917 0.15579-0.0991 4.2043-0.1783 10.102-0.19758 8.7183-0.0285 9.8735-7.7e-4 10.116 0.2399 0.24448 0.24301 0.27837 1.8296 0.31744 14.858 0.0291 9.7222-0.0159 14.698-0.13503 14.922-0.17354 0.32661-0.46938 0.3373-10.145 0.36631-8.8728 0.0266-9.9967-3.2e-4 -10.243-0.24504z" stroke-width="0"/>
  </g>
  <g transform="matrix(.79512 0 0 .81269 65.299 58.671)">
   <path d="m-27.035 188.44c0 0.49816-0.4071 0.90588-0.90615 0.90588h-20.158c-0.49783 0-0.90479-0.40773-0.90479-0.90588v-30.125c0-0.49814 0.40696-0.90602 0.90479-0.90602h20.158c0.49906 0 0.90615 0.40788 0.90615 0.90602z" stroke="#000" stroke-width=".36653"/>
   <path d="m-48.326 187.99c-0.24905-0.24756-0.27637-1.743-0.27452-15.026 2e-3 -12.89 0.0349-14.772 0.26203-14.917 0.15579-0.0991 4.2043-0.1783 10.102-0.19758 8.7183-0.0285 9.8735-7.7e-4 10.116 0.2399 0.24448 0.24301 0.27837 1.8296 0.31744 14.858 0.0291 9.7222-0.0159 14.698-0.13503 14.922-0.17354 0.32661-0.46938 0.3373-10.145 0.36631-8.8728 0.0266-9.9967-3.2e-4 -10.243-0.24504z" stroke-width="0"/>
  </g>
  <g transform="matrix(.79512 0 0 .81269 45.853 58.671)">
   <path d="m-27.035 188.44c0 0.49816-0.4071 0.90588-0.90615 0.90588h-20.158c-0.49783 0-0.90479-0.40773-0.90479-0.90588v-30.125c0-0.49814 0.40696-0.90602 0.90479-0.90602h20.158c0.49906 0 0.90615 0.40788 0.90615 0.90602z" stroke="#000" stroke-width=".36653"/>
   <path d="m-48.326 187.99c-0.24905-0.24756-0.27637-1.743-0.27452-15.026 2e-3 -12.89 0.0349-14.772 0.26203-14.917 0.15579-0.0991 4.2043-0.1783 10.102-0.19758 8.7183-0.0285 9.8735-7.7e-4 10.116 0.2399 0.24448 0.24301 0.27837 1.8296 0.31744 14.858 0.0291 9.7222-0.0159 14.698-0.13503 14.922-0.17354 0.32661-0.46938 0.3373-10.145 0.36631-8.8728 0.0266-9.9967-3.2e-4 -10.243-0.24504z" stroke-width="0"/>
  </g>
  <g transform="matrix(.79512 0 0 .81269 214.92 86.452)">
   <path d="m-27.035 188.44c0 0.49816-0.4071 0.90588-0.90615 0.90588h-20.158c-0.49783 0-0.90479-0.40773-0.90479-0.90588v-30.125c0-0.49814 0.40696-0.90602 0.90479-0.90602h20.158c0.49906 0 0.90615 0.40788 0.90615 0.90602z" stroke="#000" stroke-width=".36653"/>
   <path d="m-48.326 187.99c-0.24905-0.24756-0.27637-1.743-0.27452-15.026 2e-3 -12.89 0.0349-14.772 0.26203-14.917 0.15579-0.0991 4.2043-0.1783 10.102-0.19758 8.7183-0.0285 9.8735-7.7e-4 10.116 0.2399 0.24448 0.24301 0.27837 1.8296 0.31744 14.858 0.0291 9.7222-0.0159 14.698-0.13503 14.922-0.17354 0.32661-0.46938 0.3373-10.145 0.36631-8.8728 0.0266-9.9967-3.2e-4 -10.243-0.24504z" stroke-width="0"/>
  </g>
  <g transform="matrix(.79512 0 0 .81269 195.47 86.452)">
   <path d="m-27.035 188.44c0 0.49816-0.4071 0.90588-0.90615 0.90588h-20.158c-0.49783 0-0.90479-0.40773-0.90479-0.90588v-30.125c0-0.49814 0.40696-0.90602 0.90479-0.90602h20.158c0.49906 0 0.90615 0.40788 0.90615 0.90602z" stroke="#000" stroke-width=".36653"/>
   <path d="m-48.326 187.99c-0.24905-0.24756-0.27637-1.743-0.27452-15.026 2e-3 -12.89 0.0349-14.772 0.26203-14.917 0.15579-0.0991 4.2043-0.1783 10.102-0.19758 8.7183-0.0285 9.8735-7.7e-4 10.116 0.2399 0.24448 0.24301 0.27837 1.8296 0.31744 14.858 0.0291 9.7222-0.0159 14.698-0.13503 14.922-0.17354 0.32661-0.46938 0.3373-10.145 0.36631-8.8728 0.0266-9.9967-3.2e-4 -10.243-0.24504z" stroke-width="0"/>
  </g>
  <g transform="matrix(.79512 0 0 .81269 176.03 86.452)">
   <path d="m-27.035 188.44c0 0.49816-0.4071 0.90588-0.90615 0.90588h-20.158c-0.49783 0-0.90479-0.40773-0.90479-0.90588v-30.125c0-0.49814 0.40696-0.90602 0.90479-0.90602h20.158c0.49906 0 0.90615 0.40788 0.90615 0.90602z" stroke="#000" stroke-width=".36653"/>
   <path d="m-48.326 187.99c-0.24905-0.24756-0.27637-1.743-0.27452-15.026 2e-3 -12.89 0.0349-14.772 0.26203-14.917 0.15579-0.0991 4.2043-0.1783 10.102-0.19758 8.7183-0.0285 9.8735-7.7e-4 10.116 0.2399 0.24448 0.24301 0.27837 1.8296 0.31744 14.858 0.0291 9.7222-0.0159 14.698-0.13503 14.922-0.17354 0.32661-0.46938 0.3373-10.145 0.36631-8.8728 0.0266-9.9967-3.2e-4 -10.243-0.24504z" stroke-width="0"/>
  </g>
  <g transform="matrix(.79512 0 0 .81269 156.58 86.452)">
   <path d="m-27.035 188.44c0 0.49816-0.4071 0.90588-0.90615 0.90588h-20.158c-0.49783 0-0.90479-0.40773-0.90479-0.90588v-30.125c0-0.49814 0.40696-0.90602 0.90479-0.90602h20.158c0.49906 0 0.90615 0.40788 0.90615 0.90602z" stroke="#000" stroke-width=".36653"/>
   <path d="m-48.326 187.99c-0.24905-0.24756-0.27637-1.743-0.27452-15.026 2e-3 -12.89 0.0349-14.772 0.26203-14.917 0.15579-0.0991 4.2043-0.1783 10.102-0.19758 8.7183-0.0285 9.8735-7.7e-4 10.116 0.2399 0.24448 0.24301 0.27837 1.8296 0.31744 14.858 0.0291 9.7222-0.0159 14.698-0.13503 14.922-0.17354 0.32661-0.46938 0.3373-10.145 0.36631-8.8728 0.0266-9.9967-3.2e-4 -10.243-0.24504z" stroke-width="0"/>
  </g>
  <g transform="matrix(.79512 0 0 .81269 137.13 86.452)">
   <path d="m-27.035 188.44c0 0.49816-0.4071 0.90588-0.90615 0.90588h-20.158c-0.49783 0-0.90479-0.40773-0.90479-0.90588v-30.125c0-0.49814 0.40696-0.90602 0.90479-0.90602h20.158c0.49906 0 0.90615 0.40788 0.90615 0.90602z" stroke="#000" stroke-width=".36653"/>
   <path d="m-48.326 187.99c-0.24905-0.24756-0.27637-1.743-0.27452-15.026 2e-3 -12.89 0.0349-14.772 0.26203-14.917 0.15579-0.0991 4.2043-0.1783 10.102-0.19758 8.7183-0.0285 9.8735-7.7e-4 10.116 0.2399 0.24448 0.24301 0.27837 1.8296 0.31744 14.858 0.0291 9.7222-0.0159 14.698-0.13503 14.922-0.17354 0.32661-0.46938 0.3373-10.145 0.36631-8.8728 0.0266-9.9967-3.2e-4 -10.243-0.24504z" stroke-width="0"/>
  </g>
 </g>
</svg>
