<?xml version="1.0" standalone="no"?>
<!DOCTYPE svg PUBLIC "-//W3C//DTD SVG 20010904//EN"
 "http://www.w3.org/TR/2001/REC-SVG-20010904/DTD/svg10.dtd">
<svg version="1.0" xmlns="http://www.w3.org/2000/svg"
 width="1280.000000pt" height="854.000000pt" viewBox="0 0 1280.000000 854.000000"
 preserveAspectRatio="xMidYMid meet">
<g transform="translate(0.000000,854.000000) scale(0.100000,-0.100000)"
fill="#000000" stroke="none">
<path d="M2630 8029 c-192 -21 -343 -74 -491 -170 -111 -73 -183 -147 -244
-250 -50 -84 -50 -84 -49 -169 1 -92 41 -244 110 -425 19 -49 53 -139 75 -200
43 -121 98 -241 129 -285 11 -15 45 -42 76 -60 68 -38 191 -158 228 -222 l27
-47 -43 -54 c-24 -29 -77 -96 -119 -148 -97 -121 -128 -168 -167 -254 -54
-121 -82 -244 -87 -390 -3 -71 -9 -146 -14 -165 -10 -40 -89 -227 -131 -311
-16 -31 -54 -141 -85 -245 -31 -104 -59 -196 -61 -204 -14 -40 -98 128 -143
285 -30 104 -53 267 -48 332 10 114 14 122 71 147 55 24 79 52 90 102 9 42
-20 76 -87 104 l-53 22 4 91 c4 89 3 94 -26 137 -37 55 -120 107 -184 116 -63
9 -140 -11 -171 -44 -28 -29 -57 -100 -57 -138 0 -19 -5 -24 -24 -24 -62 0
-87 -12 -108 -53 -28 -56 -23 -165 10 -200 15 -16 22 -36 22 -64 0 -46 58
-216 96 -280 13 -23 40 -54 59 -68 75 -58 127 -288 155 -690 14 -191 39 -316
80 -398 l30 -61 -52 -80 c-29 -45 -76 -115 -104 -156 -63 -92 -84 -132 -84
-162 0 -28 29 -77 85 -143 23 -27 74 -97 112 -155 39 -58 99 -136 134 -175 74
-80 256 -294 345 -405 110 -136 244 -350 304 -485 17 -38 37 -79 43 -90 7 -11
12 -58 12 -105 0 -75 4 -91 30 -139 17 -30 47 -66 67 -80 21 -14 37 -33 38
-41 0 -9 12 -33 27 -55 25 -37 26 -40 10 -68 -25 -42 -21 -66 19 -127 81 -124
194 -384 194 -446 0 -11 23 -41 51 -69 28 -28 81 -101 121 -168 38 -65 77
-121 85 -124 8 -3 22 1 31 10 14 14 14 20 2 42 -11 20 -11 29 -1 49 16 28 2
60 -65 148 -53 72 -172 279 -219 382 -34 75 -96 251 -109 311 -6 28 -3 33 29
48 20 9 37 17 39 17 2 0 6 -26 8 -58 3 -45 13 -70 43 -117 82 -127 225 -457
225 -520 0 -13 19 -46 45 -76 24 -28 71 -102 103 -163 78 -147 170 -308 187
-325 11 -12 19 -12 44 -1 17 7 31 19 31 27 0 8 -23 50 -51 94 -47 73 -50 82
-36 96 13 14 13 20 0 62 -9 25 -31 68 -51 95 -19 27 -52 86 -74 130 -21 45
-44 90 -50 101 -99 173 -181 354 -231 505 -13 41 -38 97 -56 124 -17 28 -31
53 -31 57 0 4 20 14 45 23 l46 15 45 -71 c100 -155 246 -460 293 -610 10 -35
40 -102 66 -150 25 -48 59 -123 76 -168 34 -93 52 -132 73 -153 8 -8 21 -30
30 -51 16 -39 39 -46 71 -23 14 11 16 20 10 43 -5 16 -9 50 -10 75 -1 34 -17
77 -58 160 -31 63 -65 147 -76 188 -12 41 -33 93 -47 115 -86 130 -222 415
-273 576 -36 108 -34 100 -21 100 5 0 38 -33 72 -74 68 -79 163 -258 232 -436
21 -52 50 -124 66 -160 16 -36 38 -99 50 -140 24 -81 62 -155 85 -164 8 -3 21
-21 29 -41 16 -38 44 -46 66 -20 15 18 -19 164 -56 236 -27 55 -54 149 -54
192 0 18 -17 52 -44 90 -80 112 -163 295 -215 473 -21 73 -48 104 -88 104 -22
0 -83 35 -100 58 -7 9 -13 26 -13 39 0 22 4 23 66 23 56 0 79 -6 140 -35 40
-19 107 -62 148 -95 61 -49 77 -67 86 -100 5 -22 15 -59 21 -82 23 -88 72
-128 158 -126 61 2 61 0 -1 118 -33 64 -39 86 -40 140 0 36 -2 73 -5 83 -3 10
-45 38 -102 67 -97 48 -242 154 -261 191 -17 31 -51 42 -151 49 -107 8 -173
32 -262 96 -65 47 -107 64 -157 64 -59 0 -84 16 -195 131 -191 197 -326 372
-503 651 -73 114 -79 128 -62 133 11 4 48 37 81 75 34 38 81 83 105 99 59 43
79 80 108 202 48 204 176 504 338 791 87 153 112 189 197 279 l97 103 73 -37
c41 -20 86 -37 101 -37 15 0 41 -5 59 -11 26 -9 31 -16 31 -42 0 -69 20 -111
81 -169 77 -74 167 -119 253 -125 l66 -6 38 42 c20 22 43 41 50 41 7 0 15 6
18 14 3 7 15 14 28 13 28 0 66 31 66 53 0 13 7 15 30 12 35 -5 145 13 215 34
69 22 300 128 373 171 28 16 31 16 150 -35 66 -29 175 -77 241 -107 66 -29
166 -68 223 -85 304 -93 496 -158 608 -207 69 -30 136 -60 150 -65 24 -11 24
-11 -20 -25 -112 -35 -565 -148 -759 -189 -280 -59 -719 -144 -746 -144 -12 0
-28 12 -38 29 -10 17 -26 33 -37 36 -11 3 -63 -8 -116 -25 -110 -35 -216 -42
-303 -19 -51 13 -51 12 -129 -28 -94 -50 -158 -72 -236 -83 -70 -10 -96 -31
-96 -76 0 -49 -16 -83 -66 -136 -48 -51 -56 -73 -24 -63 31 10 24 -1 -26 -39
-56 -43 -134 -73 -222 -86 -78 -11 -96 -27 -88 -80 13 -78 15 -74 -42 -83 -68
-11 -85 -39 -76 -124 7 -66 -9 -195 -32 -265 -19 -58 -9 -83 38 -92 51 -10 78
-33 78 -66 0 -36 23 -60 59 -60 15 0 32 -5 39 -12 17 -17 102 -21 102 -4 0 8
-6 19 -14 25 -13 11 -12 17 1 48 24 59 11 98 -45 131 l-48 27 8 42 c10 46 64
98 92 87 23 -9 20 -20 -14 -46 -27 -21 -29 -26 -16 -43 13 -19 15 -18 48 7 33
25 34 25 57 7 29 -24 47 -24 55 -1 25 75 79 121 158 133 35 6 72 23 122 56 50
34 99 57 166 76 145 43 325 105 375 128 56 27 126 88 175 153 49 67 167 147
257 174 240 73 820 215 1128 276 442 87 616 117 628 108 283 -219 836 -695
1085 -934 174 -167 184 -175 269 -210 151 -63 242 -61 408 8 44 18 102 36 129
39 42 6 58 15 105 60 80 76 115 94 531 285 744 342 1127 492 1452 570 l97 24
203 -16 c112 -9 239 -17 283 -17 87 -1 88 -2 207 -95 78 -60 159 -86 269 -86
65 0 98 -5 130 -20 24 -11 54 -20 67 -20 37 0 71 29 78 66 3 19 19 51 36 71
23 29 27 43 22 66 -5 24 -1 33 27 57 25 21 33 35 34 61 0 26 5 35 20 37 39 8
47 23 41 74 -6 44 -5 48 13 48 11 0 28 11 37 25 14 22 15 30 3 58 -15 38 -102
127 -124 127 -9 0 -38 11 -65 25 -27 14 -84 37 -127 52 -72 25 -91 27 -258 28
-157 2 -193 5 -285 28 -164 41 -301 91 -418 153 -59 31 -144 77 -189 101 -108
57 -159 73 -269 80 -86 5 -92 4 -132 -21 -80 -50 -108 -137 -77 -243 24 -81
45 -119 106 -187 l53 -58 -25 -19 c-37 -28 -284 -147 -374 -180 -175 -64 -508
-133 -910 -189 -121 -17 -264 -51 -325 -78 -78 -34 -186 -118 -266 -206 -43
-48 -81 -80 -102 -87 -114 -37 -243 29 -882 454 -140 93 -259 173 -264 177
-12 12 47 27 244 61 210 36 270 61 369 155 114 107 116 163 11 326 -61 96 -83
115 -395 348 -93 70 -210 159 -258 197 -49 39 -137 99 -195 133 -293 172 -439
275 -552 390 -41 41 -131 120 -200 175 -101 81 -129 110 -150 151 -14 28 -45
73 -70 101 -28 30 -78 114 -129 213 -76 148 -91 170 -160 237 -81 78 -138 113
-188 113 -17 0 -47 7 -67 15 -91 38 -405 85 -576 85 -52 1 -131 7 -175 15
-113 21 -118 20 -170 -25 -50 -43 -56 -44 -160 -30 -80 12 -115 33 -179 107
-35 41 -48 69 -70 149 -16 55 -33 105 -39 112 -14 18 -21 4 -57 -109 -27 -87
-65 -159 -84 -159 -6 0 -22 -12 -37 -26 l-27 -26 -8 47 c-15 106 13 295 46
295 5 0 26 -9 46 -19 28 -15 41 -17 58 -10 40 19 47 42 29 101 -12 40 -14 77
-10 156 5 93 3 111 -18 169 -53 147 -148 231 -198 176 -8 -10 -23 -37 -32 -61
-10 -24 -22 -41 -27 -40 -5 2 -25 44 -44 93 -63 163 -160 347 -206 392 -65 62
-238 128 -318 122 -8 -1 -49 -5 -90 -10z m2661 -2525 c123 -92 323 -249 444
-349 510 -420 701 -559 947 -690 136 -73 150 -82 116 -83 -13 0 -132 -39 -265
-86 -133 -47 -246 -86 -251 -86 -16 0 -298 199 -532 374 -242 182 -382 294
-663 529 -128 107 -191 153 -225 164 -26 9 -51 19 -55 23 -13 11 20 170 53
261 17 44 30 89 30 100 0 11 7 36 15 55 l15 36 74 -40 c40 -22 174 -115 297
-208z m-1731 -1975 c0 -22 -63 -69 -146 -108 -47 -23 -87 -41 -89 -41 -3 0 5
20 17 44 22 47 50 65 148 97 66 22 70 22 70 8z m-530 -549 c-45 -40 -65 -45
-65 -19 0 13 78 59 100 59 5 0 -10 -18 -35 -40z m57 -117 c-9 -9 -20 -14 -24
-10 -3 4 2 14 13 21 25 19 33 10 11 -11z"/>
</g>
</svg>
