<?xml version="1.0" standalone="no"?>
<!DOCTYPE svg PUBLIC "-//W3C//DTD SVG 20010904//EN"
 "http://www.w3.org/TR/2001/REC-SVG-20010904/DTD/svg10.dtd">
<svg version="1.0" xmlns="http://www.w3.org/2000/svg"
 width="989.000000pt" height="1280.000000pt" viewBox="0 0 989.000000 1280.000000"
 preserveAspectRatio="xMidYMid meet">
<g transform="translate(0.000000,1280.000000) scale(0.100000,-0.100000)"
fill="#000000" stroke="none">
<path d="M4834 12393 c-18 -55 -28 -72 -55 -92 -16 -12 -29 -31 -29 -44 0 -12
-7 -30 -14 -40 -12 -16 -14 -16 -27 -1 -18 22 -107 64 -136 64 -30 0 -54 10
-47 21 3 5 1 9 -4 9 -6 0 -12 -6 -15 -14 -3 -7 -26 -18 -51 -25 -25 -6 -55
-21 -66 -33 -22 -24 -40 -77 -40 -122 l0 -29 -23 21 c-13 12 -31 22 -41 22 -9
0 -32 11 -49 24 -45 34 -92 30 -112 -8 -8 -15 -15 -37 -15 -47 0 -21 39 -85
82 -137 38 -44 37 -72 -1 -72 -45 0 -84 -40 -115 -119 -15 -39 -31 -73 -35
-75 -4 -3 -7 -42 -6 -88 2 -61 8 -95 23 -128 24 -50 28 -120 10 -153 -7 -13
-13 -60 -13 -111 l0 -89 -30 -10 c-16 -5 -32 -11 -34 -13 -8 -7 43 -55 73 -71
70 -36 179 -152 217 -229 18 -36 36 -67 41 -70 4 -3 8 -22 8 -43 0 -22 6 -44
15 -51 8 -7 15 -25 15 -41 0 -15 5 -31 10 -34 6 -4 8 -21 4 -41 -5 -28 -2 -40
15 -58 21 -22 21 -22 1 -43 -15 -17 -17 -27 -10 -52 4 -16 6 -39 3 -50 -3 -14
0 -23 11 -27 9 -3 16 -12 16 -19 0 -6 10 -20 21 -31 20 -18 49 -72 49 -93 0
-5 -9 -11 -20 -14 -11 -3 -20 -11 -20 -17 0 -7 7 -10 15 -6 8 3 15 2 15 -3 0
-5 11 -12 25 -15 14 -4 25 -12 25 -19 0 -25 20 19 20 46 0 26 8 31 47 30 7 -1
11 2 8 6 -2 4 5 22 16 39 10 18 19 44 19 59 0 26 -34 92 -77 149 -12 17 -25
46 -29 65 -11 69 -15 78 -40 108 -14 17 -23 35 -19 41 3 5 35 -26 70 -69 74
-91 93 -142 102 -277 5 -84 4 -96 -20 -147 -30 -65 -61 -88 -157 -117 -91 -27
-180 -23 -214 9 -21 19 -36 24 -74 23 -59 -1 -151 -34 -180 -65 -22 -23 -52
-96 -52 -127 0 -10 -18 -48 -40 -86 -78 -136 -105 -253 -140 -604 -22 -217
-71 -482 -95 -510 -7 -8 -18 -40 -24 -70 -7 -30 -23 -91 -36 -135 -13 -44 -31
-109 -40 -145 -9 -36 -25 -82 -35 -103 -11 -21 -20 -48 -20 -60 0 -13 -11 -45
-24 -73 -13 -27 -26 -67 -29 -89 -13 -107 -39 -240 -53 -273 -9 -21 -18 -74
-20 -122 -2 -47 -6 -112 -9 -145 -2 -33 -9 -136 -14 -228 -5 -93 -13 -173 -19
-179 -5 -5 -7 -37 -5 -71 4 -44 1 -73 -11 -101 -9 -21 -16 -50 -16 -65 0 -15
-5 -32 -11 -38 -7 -7 -8 -17 -2 -28 7 -11 6 -34 0 -64 -13 -60 -12 -79 16
-321 2 -14 8 -38 15 -53 7 -16 12 -48 12 -73 0 -24 4 -52 9 -62 18 -36 32
-111 45 -242 8 -74 21 -153 29 -175 8 -22 32 -96 52 -165 40 -137 54 -162 80
-140 12 10 15 27 13 59 -2 37 1 47 15 49 13 3 17 -4 18 -25 0 -32 21 -226 44
-418 8 -71 17 -188 20 -258 3 -71 9 -136 14 -145 5 -9 16 -95 26 -190 23 -231
18 -493 -12 -567 -24 -61 -107 -186 -182 -275 -123 -146 -263 -406 -280 -520
-20 -134 -42 -267 -57 -335 -8 -38 -14 -79 -14 -89 0 -10 -36 -56 -80 -102
-54 -56 -80 -91 -80 -107 0 -13 15 -42 33 -66 24 -32 37 -41 54 -38 l23 4 -23
-41 c-23 -42 -108 -133 -141 -151 -10 -6 -17 -17 -14 -25 3 -11 8 -10 24 6 77
77 127 117 121 99 -16 -56 -56 -136 -88 -175 -20 -25 -44 -59 -52 -76 -20 -38
-63 -264 -88 -454 -10 -80 -30 -215 -45 -300 -24 -140 -25 -164 -16 -253 13
-127 43 -190 131 -278 69 -68 210 -162 273 -181 29 -8 44 -8 69 2 44 19 110
113 150 212 30 77 32 91 31 198 0 63 -10 187 -22 275 -12 88 -21 192 -21 230
1 68 25 219 59 375 9 41 17 100 17 131 1 31 6 62 10 69 5 7 12 30 16 49 12 61
71 204 105 256 36 56 54 97 54 125 0 11 29 79 63 152 102 212 145 310 152 348
9 44 129 267 175 325 19 24 78 91 131 148 52 58 113 131 134 163 77 116 142
344 164 579 32 330 43 425 56 470 8 28 14 75 14 105 -1 44 60 412 75 456 3 8
22 8 68 -1 l63 -11 -2 -118 c-1 -64 -5 -129 -10 -144 -5 -15 -6 -220 -2 -457
l6 -430 34 -165 c33 -160 34 -172 32 -385 0 -137 -6 -247 -14 -290 -9 -48 -14
-175 -16 -405 -1 -184 -2 -360 -3 -390 0 -30 1 -100 3 -155 1 -55 -1 -134 -5
-175 -5 -41 -11 -102 -14 -135 -3 -33 -14 -82 -24 -110 -10 -27 -35 -104 -56
-170 -38 -119 -38 -121 -39 -300 -1 -171 -3 -183 -27 -235 -73 -157 -121 -398
-97 -485 12 -44 107 -147 156 -170 48 -23 118 -21 218 5 140 36 198 77 243
170 l27 55 1 460 c0 584 0 579 19 571 16 -6 21 9 6 18 -16 10 -21 70 -11 126
5 30 13 78 16 107 5 40 13 58 35 78 33 29 35 48 13 104 -12 30 -13 44 -5 60 6
11 11 32 11 46 0 15 13 66 29 114 16 47 34 113 40 146 28 144 55 268 82 375
28 115 36 419 15 635 -9 94 -17 258 -18 365 -1 178 1 206 26 325 37 175 113
466 131 501 8 15 17 53 20 83 4 31 24 133 46 227 l40 170 57 18 c31 10 93 31
137 48 44 17 96 31 115 30 19 0 40 4 47 9 10 9 11 0 7 -38 -5 -38 -3 -52 11
-63 27 -23 47 -1 75 86 23 69 110 248 117 240 2 -2 -8 -53 -22 -114 -29 -130
-31 -170 -9 -179 23 -9 38 13 74 107 60 161 67 193 80 355 7 96 18 171 27 188
11 21 13 64 12 175 -1 81 -2 178 -1 216 1 45 -5 89 -18 129 -11 32 -17 63 -15
68 3 4 2 16 -4 26 -22 44 -33 122 -21 158 10 30 9 40 -4 60 -11 17 -16 48 -16
97 0 40 -5 102 -10 138 -6 36 -12 126 -15 200 -5 159 -14 246 -27 280 -9 22
-24 112 -47 280 -4 30 -15 69 -24 85 -9 17 -17 45 -17 63 0 18 -5 43 -12 55
-13 24 -25 73 -38 157 -5 30 -18 98 -29 150 -12 52 -21 103 -21 113 0 11 -6
33 -14 50 -28 60 -47 232 -56 502 -5 149 -15 304 -21 345 -15 100 -51 212 -91
280 -27 45 -32 64 -29 103 4 63 -14 88 -90 126 -77 39 -94 39 -114 1 -17 -34
-27 -37 -45 -15 -7 8 -28 18 -48 21 -52 10 -208 167 -248 249 l-29 60 1 220
c0 213 1 223 28 300 15 44 33 112 39 151 10 64 13 72 34 72 21 0 22 -2 8 -29
-19 -36 -19 -69 1 -118 13 -34 14 -53 5 -131 -11 -90 -4 -157 20 -186 6 -7 6
-21 0 -37 -7 -19 -6 -27 4 -31 8 -2 15 0 17 6 2 6 10 -8 16 -31 7 -22 17 -41
23 -41 6 0 6 7 -1 20 -7 13 -7 31 -1 52 l9 33 3 -40 c1 -22 5 3 9 56 4 52 13
105 21 117 11 17 11 25 -1 46 -11 22 -11 34 5 85 16 53 16 61 2 81 -10 14 -13
34 -10 59 4 26 0 41 -11 50 -9 7 -16 26 -16 41 0 14 -3 30 -7 34 -8 8 -11 31
-16 161 -2 62 4 110 27 210 16 72 35 137 42 145 13 15 44 94 44 111 0 4 -18 2
-40 -6 -32 -11 -42 -12 -44 -2 -20 70 -46 119 -83 157 -111 115 -123 134 -123
187 0 40 -5 54 -25 73 -23 22 -35 22 -77 5 -13 -5 -18 -2 -18 9 0 9 -9 24 -20
33 -11 10 -20 23 -20 29 0 7 -14 17 -31 23 -23 8 -30 15 -25 27 4 12 2 15 -9
10 -18 -7 -18 -8 0 44 8 23 15 60 15 81 0 32 -5 41 -30 56 -25 14 -30 24 -30
53 0 42 -29 75 -78 89 -26 8 -38 5 -68 -15 l-36 -25 7 31 c7 32 -2 42 -11 13z
m-242 -269 c5 -3 13 -15 19 -27 12 -21 11 -21 -8 -4 -25 22 -33 22 -33 -3 0
-20 -1 -20 -24 -3 -14 10 -27 26 -30 36 -4 17 0 18 32 12 20 -4 40 -9 44 -11z
m852 -1352 c-3 -20 -8 -48 -10 -62 l-6 -25 -13 25 c-28 50 -11 136 21 109 8
-6 11 -24 8 -47z m26 -68 c0 -13 -4 -24 -9 -24 -5 0 -12 -15 -16 -32 -7 -30
-8 -31 -12 -9 -3 13 0 28 6 34 6 6 11 24 11 40 0 16 4 26 10 22 6 -3 10 -17
10 -31z m-7 -127 c-3 -29 -7 -65 -8 -82 -2 -43 -15 -85 -27 -85 -6 0 -8 11 -4
28 8 30 8 29 0 94 -5 36 -2 51 10 63 9 9 16 23 16 31 0 8 4 12 10 9 6 -3 7
-28 3 -58z m-1028 43 c3 -5 1 -10 -4 -10 -6 0 -11 5 -11 10 0 6 2 10 4 10 3 0
8 -4 11 -10z m65 -106 c6 -19 10 -42 8 -51 -2 -14 -9 -9 -26 20 -13 20 -28 37
-33 37 -5 0 -9 7 -9 15 0 9 6 12 15 9 8 -4 15 -1 15 5 0 6 -7 11 -16 11 -8 0
-12 5 -9 11 10 16 42 -17 55 -57z m6 -86 c23 -22 26 -29 15 -42 -14 -16 -8
-20 24 -18 13 1 56 -66 45 -70 -4 -2 -11 -14 -15 -27 -6 -21 -5 -23 14 -18 11
3 21 1 21 -3 0 -15 -24 -65 -35 -72 -14 -11 -27 -10 -20 1 3 5 -3 12 -12 16
-22 8 -79 75 -65 75 6 0 18 -7 26 -16 24 -24 19 1 -9 46 -21 33 -23 43 -14 69
6 17 15 28 20 25 15 -9 10 13 -6 26 -8 7 -15 9 -15 5 0 -4 -7 -2 -15 5 -8 7
-15 24 -15 39 1 25 1 25 15 6 8 -11 26 -32 41 -47z m994 22 c0 -5 -4 -10 -10
-10 -5 0 -10 5 -10 10 0 6 5 10 10 10 6 0 10 -4 10 -10z m-30 -92 c0 -23 -3
-29 -9 -19 -8 12 -4 51 5 51 2 0 4 -15 4 -32z m-1020 12 c0 -5 -4 -10 -10 -10
-5 0 -10 5 -10 10 0 6 5 10 10 10 6 0 10 -4 10 -10z m0 -118 c0 -15 -2 -15
-10 -2 -13 20 -13 33 0 25 6 -3 10 -14 10 -23z m66 -70 c-9 -8 -26 10 -26 26
1 15 2 15 15 -2 8 -11 13 -21 11 -24z m1044 -1466 c0 -29 13 -104 49 -296 12
-60 47 -302 56 -390 4 -30 13 -75 21 -100 7 -25 18 -92 23 -150 5 -58 16 -134
25 -170 8 -36 15 -81 16 -100 0 -19 8 -51 19 -70 10 -19 21 -62 25 -95 4 -33
16 -75 27 -93 10 -18 19 -50 19 -71 0 -22 6 -44 15 -51 8 -7 15 -26 15 -43 0
-16 10 -45 21 -64 34 -55 86 -217 81 -252 -3 -20 4 -49 21 -84 14 -28 27 -65
31 -82 3 -16 10 -52 15 -80 18 -92 13 -165 -18 -260 -16 -50 -32 -112 -36
-140 -4 -27 -10 -55 -14 -62 -3 -7 -31 101 -60 240 -85 396 -118 507 -191 643
-23 44 -53 99 -65 124 -27 52 -90 133 -230 296 -55 64 -111 132 -125 151 -22
33 -23 36 -7 48 22 16 22 18 -10 84 -24 47 -28 68 -28 136 1 95 13 134 131
433 46 118 84 220 84 229 0 8 14 54 31 101 16 48 33 115 36 149 6 64 23 78 23
19z m-1692 -1304 c2 -12 -27 -133 -64 -269 -75 -281 -110 -435 -119 -532 -3
-36 -8 -77 -11 -90 -5 -23 -7 -22 -35 20 -16 24 -29 54 -29 66 0 12 -4 24 -8
27 -8 5 7 100 22 141 4 11 18 48 31 81 13 34 21 71 18 82 -6 25 49 198 83 261
13 24 24 51 24 60 0 9 9 33 20 54 11 20 20 48 20 63 0 55 41 86 48 36z m-238
-1418 c-12 -93 -23 -206 -24 -252 -2 -45 -5 -84 -8 -87 -3 -3 -15 40 -28 96
-26 115 -24 199 6 245 13 19 19 48 20 96 2 75 17 109 41 85 11 -11 10 -40 -7
-183z m2419 -222 c0 -30 -2 -33 -9 -17 -12 28 -12 67 0 60 6 -3 10 -23 9 -43z"/>
<path d="M5416 10813 c-11 -11 -6 -23 9 -23 8 0 15 4 15 9 0 13 -16 22 -24 14z"/>
<path d="M4561 10124 c-7 -8 -11 -18 -8 -20 7 -8 47 15 47 26 0 15 -23 11 -39
-6z"/>
</g>
</svg>
