<?xml version="1.0" standalone="no"?>
<!DOCTYPE svg PUBLIC "-//W3C//DTD SVG 20010904//EN"
 "http://www.w3.org/TR/2001/REC-SVG-20010904/DTD/svg10.dtd">
<svg version="1.0" xmlns="http://www.w3.org/2000/svg"
 width="1280.000000pt" height="1216.000000pt" viewBox="0 0 1280.000000 1216.000000"
 preserveAspectRatio="xMidYMid meet">
<g transform="translate(0.000000,1216.000000) scale(0.100000,-0.100000)"
fill="#000000" stroke="none">
<path d="M7726 12124 c-4 -19 -9 -41 -12 -48 -3 -8 3 -21 12 -31 17 -16 18
-16 31 1 16 21 17 68 3 95 -16 29 -27 23 -34 -17z"/>
<path d="M7337 12023 c-8 -12 -26 -184 -32 -308 -9 -177 -16 -225 -30 -225 -7
0 -54 -21 -104 -46 -202 -101 -301 -247 -301 -445 0 -67 7 -101 42 -207 49
-152 57 -232 34 -381 -9 -58 -16 -142 -16 -187 0 -75 -2 -84 -22 -99 -22 -15
-23 -15 -36 27 -7 24 -17 128 -22 231 -11 200 -28 309 -56 352 -9 14 -18 24
-20 22 -2 -2 1 -60 6 -129 21 -256 29 -417 21 -445 -6 -23 -10 -13 -20 57 -20
140 -31 186 -47 206 -14 17 -15 9 -10 -81 18 -312 18 -343 8 -360 -9 -17 -12
-13 -22 25 -29 107 -51 267 -75 556 -28 339 -53 511 -91 637 -14 45 -35 111
-45 147 -11 36 -24 110 -29 165 -10 115 -23 153 -57 161 -43 11 -46 45 38
-490 68 -434 90 -638 92 -846 2 -191 -10 -370 -24 -370 -5 0 -9 35 -9 79 0 64
-4 84 -22 111 -42 62 -48 53 -49 -82 -1 -154 -10 -186 -32 -108 -9 30 -23 105
-31 165 -9 61 -20 127 -26 147 -13 44 -52 93 -94 119 l-31 19 3 102 c4 117 -5
165 -73 388 -25 80 -59 210 -76 290 -29 133 -70 250 -88 250 -4 0 5 -71 21
-157 182 -1013 266 -1550 298 -1918 5 -66 13 -136 16 -155 3 -19 3 -32 0 -29
-3 3 -37 151 -76 330 -127 582 -190 869 -261 1199 -83 387 -102 456 -142 535
-26 49 -32 56 -35 37 -7 -44 30 -238 99 -517 38 -154 77 -323 86 -375 27 -158
21 -460 -9 -460 -6 0 -28 18 -49 40 -27 28 -41 54 -49 92 -13 59 -9 90 35 257
44 169 24 262 -77 357 -62 58 -119 84 -186 84 -81 0 -71 -11 101 -119 72 -44
92 -79 92 -161 0 -51 -8 -85 -35 -155 -37 -95 -43 -162 -25 -280 5 -39 4 -54
-8 -63 -12 -10 -19 -2 -42 50 -49 113 -105 279 -181 534 -40 138 -92 304 -115
369 -39 116 -127 310 -136 302 -6 -7 58 -268 112 -452 25 -88 122 -389 215
-670 93 -280 179 -544 190 -585 21 -74 23 -76 67 -94 47 -20 83 -64 83 -103 0
-31 -17 -38 -30 -12 -7 11 -34 31 -61 43 -49 21 -50 22 -118 166 -88 187 -175
396 -382 925 -163 414 -246 602 -289 655 l-21 25 5 -25 c35 -180 78 -304 211
-605 118 -269 158 -370 188 -475 29 -102 42 -179 28 -165 -22 23 -146 287
-240 514 -128 308 -202 461 -280 579 -60 91 -86 120 -56 62 9 -17 57 -131 106
-253 50 -122 123 -283 164 -357 128 -234 165 -333 165 -444 0 -55 -1 -56 -29
-56 -52 0 -78 32 -111 140 -17 54 -39 109 -50 122 l-19 23 -1 -31 c0 -18 7
-67 16 -109 27 -132 -16 -122 -86 20 -16 33 -48 121 -71 195 -39 128 -79 221
-113 265 -15 19 -15 19 -16 -14 0 -53 27 -144 91 -302 56 -139 86 -263 67
-275 -4 -3 -8 1 -8 8 0 7 -23 56 -51 108 -80 153 -115 231 -130 290 -7 30 -24
68 -37 84 -34 43 -55 89 -97 216 -46 139 -73 196 -114 234 -17 17 -31 27 -31
24 0 -14 84 -239 174 -463 108 -272 168 -436 161 -443 -7 -7 -42 55 -106 187
-136 279 -218 360 -368 361 -50 0 -82 -8 -151 -36 -68 -27 -93 -33 -108 -25
-21 11 -48 51 -111 158 -23 40 -58 89 -79 109 l-37 36 -3 -32 c-4 -36 24 -95
72 -155 18 -22 46 -62 62 -90 38 -66 38 -142 0 -235 -15 -36 -29 -83 -33 -106
-5 -36 -2 -45 26 -75 38 -41 44 -35 60 63 23 141 59 178 169 178 95 0 170 -40
208 -112 21 -41 16 -158 -7 -158 -5 0 -58 47 -119 105 -61 58 -115 105 -120
105 -25 0 50 -110 152 -222 68 -75 121 -143 135 -175 27 -58 44 -145 36 -184
-4 -23 4 -32 64 -75 102 -72 211 -172 274 -250 59 -72 136 -201 126 -211 -16
-15 -231 173 -530 462 -149 146 -276 265 -280 265 -23 0 250 -341 566 -709
244 -283 267 -313 267 -349 l0 -23 -27 19 c-53 39 -384 358 -529 512 -81 85
-253 272 -383 415 -315 349 -454 499 -582 630 -59 61 -119 130 -134 154 -41
66 -110 136 -154 156 -27 12 -42 26 -46 44 -9 37 -51 88 -86 107 -17 8 -33 14
-35 11 -6 -6 116 -205 178 -288 78 -106 132 -169 344 -405 247 -273 319 -358
403 -469 79 -104 183 -266 176 -273 -2 -3 -35 10 -72 28 -68 34 -138 98 -354
325 -77 82 -189 162 -189 137 0 -24 89 -124 195 -219 116 -105 184 -184 185
-214 0 -14 -6 -16 -33 -9 -51 11 -85 38 -127 99 -21 31 -50 67 -64 80 l-26 24
0 -27 c0 -35 21 -74 59 -110 27 -26 42 -66 25 -66 -3 0 -33 20 -67 44 -58 42
-118 96 -414 370 -64 59 -148 132 -187 161 -82 62 -187 127 -194 120 -7 -6 42
-78 86 -127 20 -23 112 -101 204 -175 92 -73 175 -145 184 -161 53 -86 110
-166 168 -230 134 -148 363 -355 536 -485 96 -72 199 -154 229 -181 53 -50
147 -173 139 -181 -6 -7 -243 152 -395 266 -76 56 -253 193 -393 304 -296 234
-453 352 -602 455 -86 59 -111 82 -127 115 -17 36 -26 44 -67 55 -37 11 -63
29 -118 85 -76 76 -109 98 -166 108 l-35 6 60 -56 c94 -87 276 -237 471 -388
529 -409 645 -506 832 -700 73 -76 131 -139 129 -141 -6 -6 -219 119 -572 336
-176 108 -369 226 -430 261 -68 38 -129 83 -160 115 -29 30 -71 61 -100 74
-27 11 -104 56 -170 99 -109 71 -187 111 -216 111 -6 0 66 -56 159 -124 361
-264 651 -488 935 -723 158 -130 160 -137 44 -107 -83 21 -198 81 -352 182
-184 120 -210 135 -373 209 -169 77 -213 101 -417 236 -82 54 -190 118 -240
142 -94 45 -148 64 -130 48 19 -18 262 -191 530 -378 149 -104 317 -223 375
-265 58 -42 148 -105 200 -140 132 -88 172 -122 199 -171 l23 -41 -23 7 c-47
14 -210 97 -296 152 -48 30 -171 114 -273 186 -178 127 -384 257 -405 257 -21
-1 106 -104 250 -203 150 -102 275 -201 275 -217 0 -4 -19 -4 -42 2 -32 7 -74
4 -174 -12 -124 -20 -136 -21 -193 -6 -89 23 -157 61 -341 190 -165 116 -276
178 -337 190 -41 7 -41 -4 -1 -49 32 -37 86 -68 173 -100 28 -11 71 -37 96
-59 25 -23 96 -70 158 -104 121 -69 204 -130 221 -162 10 -18 6 -26 -25 -57
-36 -36 -36 -36 -109 -31 -90 6 -185 50 -369 171 -117 77 -223 131 -371 192
-40 17 -86 45 -107 66 -25 25 -52 40 -88 49 -29 7 -85 34 -126 61 -103 67
-129 79 -170 79 -43 0 -76 -29 -68 -61 4 -15 28 -32 82 -56 42 -19 87 -45 101
-58 14 -13 61 -37 106 -53 108 -40 249 -107 375 -178 136 -76 632 -384 641
-398 14 -20 9 -123 -6 -135 -17 -14 -18 -14 -231 107 -192 108 -340 183 -434
216 -41 15 -75 25 -77 23 -5 -4 178 -112 451 -265 284 -158 400 -228 506 -301
85 -59 138 -74 169 -46 25 22 26 52 3 59 -10 3 -40 8 -68 11 -104 14 -108 17
-138 105 -21 61 -25 85 -17 104 l9 26 98 -46 c231 -107 688 -403 710 -460 10
-26 -5 -27 -65 -5 -70 25 -92 26 -92 6 0 -9 -11 -48 -25 -87 -29 -83 -30 -99
-10 -137 14 -28 15 -29 52 -15 80 28 198 13 301 -40 52 -27 132 -91 132 -107
0 -4 -51 16 -112 46 -112 54 -182 74 -215 60 -13 -5 -1 -13 47 -31 92 -35 418
-183 460 -210 43 -26 76 -62 66 -71 -13 -13 -109 28 -270 115 -87 47 -184 96
-216 108 -76 31 -191 51 -221 38 -20 -9 -13 -14 67 -49 93 -41 137 -65 131
-72 -4 -4 -555 183 -957 325 -833 294 -2158 799 -2200 838 -14 12 -38 28 -53
33 -47 18 -137 11 -137 -11 0 -25 33 -75 64 -96 19 -13 188 -72 377 -132 546
-173 567 -181 655 -242 151 -105 252 -152 649 -303 316 -121 520 -217 605
-286 l25 -20 -35 6 c-19 4 -102 27 -184 51 -164 48 -258 68 -302 62 -21 -3 20
-20 151 -62 175 -57 299 -108 312 -129 9 -14 -136 0 -296 29 -167 31 -339 75
-641 164 -274 80 -502 141 -508 136 -8 -8 104 -67 193 -101 50 -19 164 -57
255 -84 190 -58 389 -125 522 -177 129 -50 306 -136 291 -141 -13 -5 -122 22
-245 61 -43 13 -78 20 -78 15 0 -17 63 -48 160 -80 131 -43 242 -108 158 -93
-193 36 -521 135 -987 296 -419 145 -871 280 -871 260 0 -4 9 -22 20 -40 27
-43 83 -67 191 -81 97 -13 201 -46 464 -149 99 -39 342 -125 540 -192 402
-137 649 -231 680 -259 61 -57 155 -93 503 -195 123 -36 235 -86 282 -125 l25
-20 -26 -1 c-14 0 -79 16 -145 36 -97 30 -138 37 -222 40 -94 2 -119 8 -270
58 -92 30 -248 79 -347 109 -99 31 -232 72 -295 93 -94 30 -134 38 -220 41
-68 3 -101 2 -95 -5 6 -5 125 -42 265 -82 406 -115 496 -146 672 -227 69 -32
76 -38 67 -55 -19 -35 -70 -58 -130 -58 -75 0 -588 61 -931 110 -387 56 -777
129 -968 181 -151 41 -231 43 -269 5 -14 -15 -13 -19 11 -43 26 -25 35 -27
145 -34 129 -8 237 -23 903 -128 245 -39 513 -77 595 -86 222 -23 306 -41 447
-96 103 -40 157 -54 285 -74 261 -42 384 -64 458 -85 l70 -20 -260 4 c-249 5
-433 18 -990 76 -104 10 -271 24 -370 30 -99 6 -218 18 -265 26 -94 16 -131
10 -149 -25 -10 -18 -6 -20 42 -31 28 -6 158 -15 287 -21 228 -9 380 -28 427
-52 l22 -12 -30 -33 c-48 -51 -85 -65 -169 -65 -41 0 -129 11 -195 23 -138 25
-223 24 -255 -5 -13 -12 -17 -22 -11 -28 6 -6 77 -14 158 -18 191 -11 229 -16
280 -41 55 -26 58 -59 6 -87 -29 -15 -81 -14 -187 5 -124 21 -180 7 -121 -32
19 -12 62 -19 153 -25 118 -7 182 -21 182 -40 0 -4 7 -61 15 -125 11 -84 13
-120 5 -128 -7 -7 -87 -13 -208 -17 -204 -5 -237 -12 -273 -55 -13 -16 -10
-17 41 -10 30 3 134 9 231 12 199 8 378 -3 769 -46 440 -48 502 -52 845 -54
248 -1 344 -5 385 -16 l55 -14 -85 -7 c-81 -5 -127 -19 -142 -43 -12 -18 46
-22 212 -12 135 7 160 6 194 -8 22 -9 37 -19 34 -21 -8 -8 -294 -33 -533 -46
-209 -11 -600 -7 -688 7 -30 5 -35 9 -26 20 8 9 33 14 75 14 34 0 65 4 68 9 9
14 -160 19 -329 10 -88 -4 -248 -11 -355 -14 -107 -3 -209 -8 -226 -11 -29 -4
-74 -36 -74 -53 0 -14 87 -22 350 -31 140 -5 272 -12 292 -16 32 -6 38 -4 38
11 0 10 -8 27 -17 37 -21 24 -6 41 36 41 51 0 76 -26 111 -115 37 -98 45 -108
130 -163 63 -40 97 -71 89 -79 -2 -3 -71 -18 -154 -35 -82 -17 -204 -47 -270
-67 -293 -86 -480 -133 -608 -154 -76 -12 -164 -30 -194 -41 -72 -25 -154 -72
-132 -77 21 -4 384 68 624 124 218 51 537 134 904 235 l254 71 38 -17 c43 -20
71 -17 194 22 99 32 166 34 201 7 37 -27 35 -36 -13 -59 -24 -12 -48 -26 -55
-33 -19 -19 47 -15 120 8 75 24 83 24 106 7 16 -12 2 -19 -120 -60 -162 -54
-252 -77 -312 -77 -57 0 -47 13 25 34 63 17 123 50 123 66 0 5 -6 7 -12 5 -7
-2 -65 -21 -128 -41 -63 -20 -164 -54 -225 -76 -149 -54 -817 -320 -813 -324
4 -3 287 74 538 146 231 66 576 147 587 137 10 -10 -346 -136 -827 -291 -195
-64 -427 -142 -515 -174 -232 -86 -521 -210 -490 -212 42 -1 603 183 1175 385
402 143 840 295 847 295 1 0 3 13 3 29 0 36 13 46 73 59 47 10 57 6 36 -15 -7
-7 -9 -18 -6 -26 4 -11 20 -9 89 14 83 28 148 37 148 20 0 -12 -154 -90 -255
-129 -152 -59 -621 -224 -985 -347 -201 -67 -440 -153 -532 -189 -197 -79
-297 -106 -395 -109 -62 -2 -73 -5 -75 -21 -4 -24 -56 -41 -535 -175 -345 -96
-715 -220 -661 -221 71 -1 552 106 828 185 206 59 231 67 860 270 245 80 530
169 633 200 216 63 517 139 524 132 2 -3 -55 -35 -129 -71 -146 -71 -303 -128
-503 -182 -106 -29 -145 -45 -210 -86 -118 -76 -288 -153 -600 -273 -154 -59
-426 -174 -606 -255 -179 -81 -368 -164 -420 -184 -153 -59 -184 -77 -187
-109 l-3 -27 73 26 c40 15 165 70 278 124 243 115 309 142 427 174 52 14 124
43 178 73 197 109 449 208 685 268 52 14 98 25 101 25 3 0 4 -12 1 -26 -8 -43
-71 -98 -147 -129 -38 -16 -190 -84 -336 -151 -576 -265 -775 -352 -885 -383
-71 -21 -106 -47 -119 -88 -3 -13 -5 -23 -2 -23 2 0 46 18 97 41 51 22 213 89
359 149 146 59 358 149 471 198 113 49 237 99 277 111 72 22 233 43 233 30 0
-21 -192 -128 -385 -214 -82 -37 -172 -79 -200 -92 -66 -34 -219 -133 -213
-139 8 -7 192 74 403 176 168 82 413 186 420 178 16 -18 45 -94 43 -110 -4
-28 -206 -150 -453 -272 -187 -93 -607 -288 -735 -341 -122 -51 -185 -86 -228
-128 -23 -22 -42 -45 -42 -49 0 -26 131 16 297 94 135 63 824 363 1061 462
l177 74 61 -15 c55 -14 72 -14 159 0 53 9 100 18 103 22 12 11 -25 36 -64 42
-73 11 -86 42 -26 66 20 8 143 63 272 122 578 263 972 435 998 435 19 0 -173
-109 -403 -228 -242 -125 -468 -252 -461 -259 5 -5 136 42 371 135 213 83 347
130 420 146 17 4 -28 -24 -100 -62 -161 -85 -224 -121 -600 -340 -390 -228
-620 -353 -802 -437 -81 -37 -200 -100 -263 -140 -380 -237 -803 -472 -1099
-608 -75 -35 -117 -62 -153 -98 -28 -28 -48 -52 -46 -55 12 -11 121 34 202 83
111 68 170 98 217 111 20 5 121 59 225 120 429 249 863 478 1162 612 126 56
149 70 184 112 52 63 66 70 111 56 24 -7 50 -8 78 -2 38 8 42 12 45 42 8 68
81 134 192 171 71 24 76 25 66 10 -3 -6 -35 -24 -69 -39 -58 -26 -107 -72 -92
-87 4 -3 156 73 339 170 437 230 681 350 857 420 79 32 146 56 147 54 7 -7
-1228 -777 -1245 -777 -5 0 -23 8 -40 17 -16 10 -33 14 -37 10 -10 -9 42 -64
66 -70 12 -3 92 39 217 115 200 121 307 179 353 192 14 4 -22 -21 -80 -56
-111 -68 -309 -199 -424 -281 -37 -26 -74 -51 -81 -53 -7 -3 -26 6 -42 20
l-30 25 -69 -53 c-149 -115 -340 -234 -684 -426 -317 -176 -467 -269 -632
-387 -43 -31 -77 -58 -75 -60 7 -6 1227 664 1337 735 81 52 187 100 235 108
32 4 55 1 91 -16 l49 -21 -25 -20 c-60 -46 -488 -328 -865 -570 -402 -257
-778 -509 -771 -516 5 -6 280 143 406 220 63 39 239 150 390 247 151 97 327
207 390 245 63 38 147 90 185 115 265 178 420 246 580 256 44 3 90 7 102 10
13 2 56 50 112 123 98 128 134 164 196 192 41 19 140 25 163 10 21 -13 -81
-100 -294 -250 -274 -195 -413 -302 -472 -365 -71 -75 -72 -105 -6 -247 24
-52 44 -105 44 -116 0 -26 -74 -96 -385 -367 -240 -210 -498 -454 -538 -511
-21 -29 -20 -29 33 9 84 61 205 155 421 327 109 86 259 205 335 263 77 58 162
124 191 147 70 55 121 63 157 24 14 -15 26 -32 26 -36 0 -20 -197 -206 -370
-350 -220 -183 -384 -342 -435 -422 -20 -32 -35 -60 -33 -62 5 -5 119 96 353
315 422 395 538 493 614 519 39 13 120 15 138 3 22 -14 -61 -114 -276 -338
-190 -197 -308 -332 -284 -323 6 2 57 42 114 89 104 86 222 196 591 549 208
199 330 304 403 346 45 27 125 57 125 48 0 -16 -171 -246 -545 -738 -139 -181
-299 -395 -357 -475 -116 -160 -271 -390 -264 -390 6 0 237 277 442 529 220
272 377 452 552 635 87 89 193 201 237 247 87 92 149 139 208 159 39 12 107 6
107 -9 0 -35 -720 -936 -902 -1129 -90 -96 -118 -144 -118 -203 l0 -41 56 73
c95 124 159 194 414 454 135 138 325 342 422 455 162 188 348 385 348 367 0
-21 -184 -337 -493 -847 -293 -482 -568 -960 -553 -960 4 0 24 27 245 335 136
189 590 851 996 1449 160 235 298 438 308 449 30 38 -68 -166 -237 -493 -189
-364 -339 -691 -324 -705 8 -8 69 106 76 142 4 22 40 87 84 153 90 136 151
246 305 555 64 126 138 270 166 320 78 139 247 380 247 351 0 -17 -239 -485
-338 -662 -55 -100 -220 -385 -366 -634 l-265 -452 -48 -23 c-44 -20 -50 -27
-72 -86 -33 -89 -130 -282 -248 -494 -55 -99 -142 -263 -193 -365 -51 -102
-115 -221 -144 -265 -28 -44 -57 -93 -64 -108 -13 -30 -17 -117 -4 -117 4 0
67 107 141 238 74 130 238 410 365 622 126 212 330 565 454 785 123 220 268
474 322 565 122 205 294 464 285 430 -26 -95 -162 -406 -301 -687 -120 -242
-217 -418 -356 -650 -192 -319 -299 -523 -337 -641 -23 -72 -45 -182 -37 -189
2 -3 15 19 28 49 111 260 302 625 478 918 65 107 184 327 265 489 131 261 233
434 309 525 l23 28 28 -36 c56 -74 42 -145 -42 -213 -156 -127 -180 -152 -202
-204 -28 -63 -25 -85 25 -235 61 -183 41 -239 -123 -347 -189 -125 -206 -166
-128 -315 30 -57 45 -98 45 -123 0 -58 -52 -189 -141 -354 -145 -270 -222
-436 -207 -450 5 -6 96 139 172 271 112 196 265 550 351 811 28 88 41 113 54
113 22 0 67 34 83 63 7 13 15 87 19 172 8 177 28 252 92 347 39 58 128 130
143 116 7 -8 -43 -203 -111 -438 -30 -102 -65 -230 -78 -285 -22 -90 -30 -129
-52 -270 l-7 -40 22 20 c34 30 49 75 60 182 12 115 54 273 148 553 101 299
245 701 250 696 7 -8 -34 -199 -109 -506 -77 -313 -99 -415 -124 -565 -30
-184 -56 -309 -92 -434 -50 -176 -159 -484 -228 -639 -39 -89 -47 -169 -20
-192 9 -7 17 -11 18 -9 8 10 99 223 136 317 68 170 183 533 311 977 158 550
194 663 241 764 22 46 41 82 43 80 2 -2 -13 -91 -34 -197 -48 -239 -110 -609
-150 -892 -32 -224 -120 -908 -120 -925 1 -5 7 1 15 15 27 47 55 151 80 303
39 233 91 474 206 957 39 162 88 382 110 488 21 106 48 215 58 242 20 52 70
144 76 138 2 -2 -3 -102 -10 -223 -8 -121 -18 -431 -24 -690 -14 -584 -30
-1063 -38 -1135 l-6 -55 23 20 c37 33 42 62 45 250 3 192 18 354 64 720 29
221 118 894 124 925 1 10 17 1 50 -29 36 -33 51 -57 63 -97 20 -68 11 -114
-55 -301 -27 -78 -53 -168 -57 -201 -13 -122 29 -307 98 -425 42 -73 92 -122
169 -168 131 -76 147 -117 158 -409 9 -213 19 -266 61 -320 l20 -25 0 84 c0
46 -9 145 -20 221 -25 167 -25 358 0 350 8 -2 44 -4 80 -5 51 0 77 6 121 28
32 15 63 35 70 44 13 15 10 16 -26 9 -146 -25 -191 -28 -232 -17 l-43 12 0
117 c0 122 -19 570 -45 1072 -8 162 -15 308 -14 325 2 54 36 -70 59 -216 40
-255 76 -392 114 -445 13 -17 14 -13 9 41 -2 33 -20 130 -39 215 -55 248 -65
308 -62 368 l3 57 27 -85 c15 -47 41 -150 58 -230 17 -80 38 -170 47 -200 17
-59 68 -180 77 -180 15 0 -34 228 -97 445 -75 258 -97 368 -103 505 l-4 115
26 -65 c63 -158 158 -530 235 -927 27 -142 79 -406 114 -586 36 -180 72 -387
80 -460 17 -145 34 -217 71 -288 23 -46 55 -81 41 -46 -21 56 -83 440 -147
922 -44 333 -73 497 -140 795 -32 146 -66 306 -76 355 -16 87 -34 355 -24 355
9 0 88 -154 128 -250 21 -52 73 -199 115 -325 41 -127 112 -324 157 -440 45
-115 113 -295 150 -400 147 -412 193 -535 247 -662 31 -73 58 -131 60 -129 16
15 -59 307 -152 601 -42 132 -91 297 -109 366 -24 95 -43 142 -73 190 -47 75
-100 178 -138 269 -42 101 -176 492 -172 503 4 12 46 -52 87 -133 17 -34 62
-155 99 -269 38 -113 82 -233 100 -266 l32 -60 -6 55 c-5 50 -23 104 -121 380
-25 70 -34 112 -34 158 0 61 1 63 23 57 35 -11 65 -33 84 -62 15 -22 19 -58
23 -197 5 -149 9 -178 29 -223 34 -76 97 -130 241 -202 211 -106 195 -89 230
-254 23 -109 51 -169 82 -175 15 -3 13 9 -13 82 -29 83 -51 176 -42 176 20 0
65 -49 90 -97 50 -93 66 -226 42 -345 -11 -53 -13 -56 -52 -68 -22 -6 -51 -19
-64 -27 -24 -16 -60 -73 -46 -72 30 2 105 43 162 89 l68 55 7 65 c20 204 -70
432 -226 568 -28 25 -40 49 -63 124 -41 137 -129 363 -245 628 -56 129 -124
291 -152 360 -52 128 -140 380 -133 380 5 0 213 -299 425 -610 84 -124 196
-285 247 -359 77 -109 96 -143 105 -190 9 -45 20 -66 59 -107 49 -53 104 -152
165 -301 20 -48 51 -117 70 -153 34 -65 108 -160 124 -160 13 0 -27 91 -128
299 -50 101 -103 222 -118 270 -24 72 -45 109 -130 227 -186 259 -354 569
-390 719 l-7 30 28 -25 c65 -59 241 -273 430 -525 112 -148 244 -319 293 -378
63 -75 120 -162 190 -285 56 -98 121 -205 144 -239 42 -59 123 -153 133 -153
7 0 -65 144 -133 265 -51 91 -138 230 -393 627 -140 217 -289 491 -276 505 6
5 259 -254 332 -341 36 -43 137 -167 224 -275 87 -108 177 -216 200 -241 l42
-45 -42 70 c-56 95 -80 128 -250 360 -81 111 -172 239 -202 285 -71 109 -171
289 -165 295 3 3 54 -45 114 -107 116 -120 199 -227 419 -538 75 -107 167
-233 203 -280 73 -93 244 -274 307 -324 l40 -31 -24 40 c-59 99 -193 290 -352
505 -197 268 -307 430 -384 568 -64 114 -128 252 -117 253 34 4 105 -6 147
-22 107 -40 177 -134 210 -283 l16 -73 62 -29 c89 -42 216 -123 301 -193 86
-71 220 -211 268 -281 38 -57 50 -63 38 -19 -15 51 -54 110 -127 189 -94 103
-137 160 -128 168 3 4 57 7 118 7 101 -1 124 -5 231 -38 66 -21 121 -38 122
-40 21 -25 48 -105 52 -154 16 -205 -141 -328 -311 -244 -23 11 -42 19 -43 18
-2 -2 3 -14 9 -27 21 -42 62 -55 174 -55 100 1 103 1 134 30 117 112 156 359
79 505 -50 95 -146 156 -263 167 -37 3 -67 10 -67 15 0 5 -60 68 -133 141
-175 174 -215 234 -232 351 -7 47 -7 48 16 41 44 -14 74 -33 109 -70 41 -44
117 -95 141 -95 9 0 29 -18 44 -40 36 -53 164 -174 300 -285 61 -49 155 -130
210 -179 91 -81 171 -132 195 -124 6 2 -35 40 -90 86 -55 45 -213 187 -351
315 -139 128 -296 268 -349 312 -53 44 -110 100 -125 125 -16 25 -80 95 -142
155 -100 99 -191 211 -179 222 9 9 145 -89 326 -234 102 -81 211 -165 243
-186 89 -59 177 -107 177 -96 0 23 -168 182 -310 293 -84 67 -186 152 -225
189 -78 77 -107 93 -186 103 -104 13 -150 60 -218 222 -84 198 -152 233 -354
181 -168 -44 -285 -21 -371 71 -54 57 -85 118 -161 313 -50 130 -63 154 -102
190 -47 44 -66 77 -57 100 13 34 110 -17 139 -73 8 -16 25 -71 36 -122 12 -51
31 -111 42 -133 54 -110 146 -195 254 -235 81 -30 220 -44 337 -33 98 9 99 9
140 -18 57 -38 83 -68 165 -189 119 -174 183 -227 305 -251 45 -10 83 -8 198
6 184 24 272 23 329 -2 46 -21 95 -65 54 -49 -60 23 -196 28 -317 12 -142 -18
-180 -27 -186 -44 -7 -21 92 -106 198 -170 62 -37 146 -100 205 -153 87 -79
174 -139 204 -139 5 0 28 16 51 35 23 19 49 35 57 35 22 0 137 -78 366 -247
114 -84 251 -182 305 -217 109 -72 231 -140 237 -134 2 2 -26 35 -63 72 -41
41 -131 111 -232 178 -180 120 -286 203 -482 371 -119 102 -128 112 -128 145
0 19 -12 60 -26 92 -14 32 -24 69 -22 84 l3 27 100 -49 c55 -27 179 -97 275
-154 196 -118 299 -172 379 -199 55 -19 131 -26 131 -11 0 4 -98 64 -217 132
-588 334 -861 516 -1123 750 -44 39 -49 52 -10 28 10 -7 22 -9 26 -5 11 11
-34 54 -92 87 -48 27 -83 64 -71 76 6 6 226 -101 377 -184 69 -37 263 -150
431 -249 296 -175 569 -326 576 -319 4 4 -96 82 -172 133 -76 51 -177 110
-430 253 -244 137 -401 240 -480 314 l-60 57 190 -94 c105 -52 219 -105 255
-118 36 -13 77 -35 91 -49 48 -47 79 -68 114 -80 19 -6 81 -40 137 -74 118
-71 175 -96 219 -96 49 0 25 19 -129 99 -76 39 -154 85 -173 102 l-34 30 75
-6 c153 -13 246 -43 503 -161 172 -80 267 -116 367 -138 l65 -15 -35 29 c-43
35 -149 89 -337 169 -152 65 -285 139 -280 155 2 6 37 28 78 50 l74 39 79 -27
c44 -15 174 -68 290 -118 362 -156 402 -171 380 -147 -49 55 -169 122 -382
215 -125 54 -272 132 -272 144 0 3 22 28 50 55 65 64 83 63 242 -8 135 -61
180 -73 218 -59 l25 9 -30 16 c-17 8 -73 33 -126 55 -202 84 -261 149 -230
252 18 61 28 65 120 41 118 -31 160 -27 145 12 -7 18 -64 43 -120 52 -88 15
-102 23 -127 78 -25 54 -77 113 -187 210 l-65 58 75 -6 c111 -9 298 -41 466
-81 313 -74 463 -104 582 -115 68 -6 126 -9 128 -6 8 8 -142 54 -296 91 -143
35 -339 70 -660 121 -343 53 -437 75 -889 201 -436 122 -545 144 -771 153
-170 7 -190 10 -240 33 -36 17 -48 27 -34 27 12 1 248 -26 525 -58 864 -102
1199 -136 1659 -166 446 -29 665 -56 753 -94 56 -24 85 -26 110 -6 18 13 17
14 -10 28 -48 25 -187 65 -279 81 -49 9 -318 45 -599 81 -551 71 -707 93 -857
124 -173 36 -398 97 -398 108 0 10 278 -5 515 -27 225 -22 501 -24 548 -5 11
5 17 18 17 41 0 18 9 56 20 84 l20 50 -23 0 c-12 0 -51 -16 -87 -35 -151 -82
-167 -87 -238 -83 -88 5 -145 34 -291 152 l-113 91 118 8 c172 10 1076 13
1303 3 202 -8 222 -4 143 31 -29 12 -91 18 -277 24 -414 14 -946 39 -1040 49
-149 17 -315 47 -328 60 -16 14 160 58 318 80 44 6 301 15 570 20 497 9 678
17 653 31 -32 17 -285 29 -645 29 -213 0 -440 5 -503 10 -146 12 -263 31 -253
40 4 4 38 15 76 24 161 40 400 66 610 66 110 0 133 3 156 19 39 28 93 39 221
46 124 7 210 26 230 50 11 13 5 15 -46 15 -33 0 -86 -5 -119 -10 -126 -21
-229 -31 -256 -25 -24 5 -29 12 -29 36 0 40 -31 99 -98 187 -30 40 -53 74 -51
76 2 2 29 10 59 17 39 9 153 13 400 14 346 1 433 8 476 39 44 33 -266 33 -586
0 -80 -8 -233 -17 -340 -21 -173 -5 -211 -3 -334 16 -94 15 -170 22 -231 19
-83 -3 -97 -6 -144 -35 -46 -29 -61 -33 -124 -33 -40 0 -128 -7 -197 -15 -132
-16 -358 -18 -400 -5 -14 4 -21 8 -17 9 5 1 88 14 185 31 98 16 353 54 567 85
705 101 1059 158 1100 175 16 7 13 9 -15 9 -88 2 -404 -22 -715 -54 -365 -38
-677 -56 -790 -46 l-70 6 115 32 c215 60 411 98 880 168 504 75 681 108 895
166 116 32 146 45 80 35 -22 -3 -78 -10 -125 -16 -136 -17 -336 -48 -620 -95
-650 -108 -891 -137 -1255 -150 l-170 -6 35 20 c44 24 120 38 287 51 135 11
193 25 241 58 15 10 90 33 167 52 77 18 338 85 580 150 242 64 497 129 567
144 121 25 227 60 216 72 -14 13 -683 -98 -1120 -187 l-297 -60 -41 27 c-22
15 -41 25 -43 23 -1 -2 -9 -17 -17 -33 -52 -101 -321 -109 -346 -10 -4 14 -5
26 -3 28 2 1 78 26 169 55 91 29 352 124 580 211 470 179 664 245 830 285 231
54 301 75 371 110 39 20 69 38 67 41 -13 12 -534 -119 -1051 -265 -465 -132
-689 -191 -888 -236 -90 -20 -171 -38 -179 -41 -34 -9 44 43 87 59 57 21 137
67 129 74 -10 11 -155 -41 -301 -107 -184 -84 -262 -111 -340 -117 l-60 -5 36
35 c30 28 66 44 205 90 93 30 221 77 284 105 63 28 176 77 250 109 195 86 380
144 458 143 29 -1 23 -3 -197 -89 -102 -41 -207 -97 -230 -125 -13 -15 100 24
609 214 462 172 651 238 895 311 110 33 214 70 231 82 31 20 59 55 52 63 -2 2
-166 -46 -364 -107 -667 -205 -1177 -343 -1349 -364 -47 -6 -49 -5 -30 10 44
36 192 98 419 175 132 45 273 99 315 120 75 38 154 90 135 90 -23 0 -145 -43
-334 -118 -193 -76 -309 -112 -408 -126 -25 -4 -41 -3 -38 2 13 21 330 168
581 271 149 60 327 135 395 166 126 57 353 185 366 206 4 7 3 10 -2 7 -5 -3
-170 -70 -367 -148 -293 -117 -360 -141 -368 -129 -5 8 -9 40 -9 72 0 31 -1
60 -2 65 -4 14 65 52 170 93 180 69 262 121 262 165 0 18 -69 -7 -265 -98 -82
-39 -172 -79 -198 -89 l-49 -19 -39 31 c-21 17 -39 36 -39 42 0 15 81 68 305
202 166 98 332 212 323 220 -6 7 -122 -38 -343 -133 -115 -49 -245 -101 -287
-116 -94 -32 -280 -77 -276 -66 13 34 223 181 438 305 193 112 320 198 392
266 l63 60 -140 -70 c-77 -38 -250 -131 -385 -206 -275 -153 -618 -325 -759
-380 -51 -20 -95 -35 -97 -33 -1 2 90 60 203 128 254 154 583 369 564 370 -27
0 -221 -109 -403 -228 -199 -129 -286 -180 -363 -211 l-50 -21 29 23 c64 49
142 119 302 271 131 125 194 176 298 243 72 47 149 97 171 112 45 29 175 156
175 170 0 23 -195 -103 -854 -549 -136 -92 -297 -196 -356 -230 -105 -60 -318
-160 -340 -160 -36 0 638 555 1150 949 254 195 255 196 220 186 -65 -19 -161
-74 -273 -158 -255 -190 -639 -427 -693 -427 -11 0 -11 7 3 43 47 122 131 206
458 462 272 213 361 289 407 348 l32 40 -49 -28 c-147 -85 -252 -164 -542
-407 -159 -134 -323 -257 -323 -243 0 3 19 32 42 63 165 225 405 459 837 817
106 87 189 191 169 210 -6 6 -189 -138 -343 -269 -139 -118 -193 -166 -520
-461 -362 -328 -521 -463 -711 -607 -117 -88 -130 -97 -119 -77 75 127 439
534 701 784 148 142 294 301 294 321 0 19 -104 -78 -375 -350 -333 -335 -469
-465 -555 -535 -49 -40 -52 -41 -24 -10 17 19 206 228 420 464 524 578 915
1018 1219 1369 l60 69 -35 -6 c-27 -5 -53 -26 -115 -92 -44 -47 -97 -96 -117
-108 -22 -13 -105 -105 -201 -222 -90 -110 -231 -276 -313 -370 -159 -181
-510 -543 -609 -629 l-60 -51 49 70 c93 132 260 350 501 655 133 168 245 312
250 320 13 22 -60 -39 -130 -107 -33 -32 -122 -128 -196 -213 -75 -85 -163
-176 -195 -201 -62 -48 -124 -89 -136 -89 -13 0 38 105 88 182 59 92 99 140
254 308 69 74 146 160 171 190 50 60 119 160 119 173 0 21 -130 -96 -247 -220
-70 -76 -183 -193 -250 -261 l-121 -125 -76 62 c-75 61 -116 105 -116 123 0 6
30 48 66 94 63 81 109 164 102 185 -5 16 -84 -48 -122 -99 -29 -40 -126 -221
-126 -236 0 -2 16 -14 35 -26 140 -87 71 -328 -119 -416 -52 -24 -168 -34
-180 -15 -10 16 43 106 104 175 63 73 95 129 106 185 l7 34 -43 -24 c-47 -26
-105 -98 -173 -214 -23 -38 -67 -95 -97 -126 -45 -46 -65 -58 -105 -67 -51
-11 -140 -1 -159 18 -15 15 40 109 124 209 79 94 130 177 130 214 0 18 -1 18
-31 0 -42 -24 -143 -133 -203 -218 -125 -176 -185 -237 -268 -275 -87 -40 -87
-37 36 208 62 125 173 341 246 481 72 140 158 311 191 380 57 123 58 125 24
86 -114 -129 -288 -432 -415 -720 -72 -164 -182 -379 -211 -415 -17 -20 -20
-21 -14 -5 123 355 322 894 369 1002 48 109 54 157 25 203 l-23 35 -7 -30 c-4
-16 -12 -58 -18 -93 -6 -36 -37 -123 -74 -210 -36 -81 -122 -284 -192 -452
-284 -682 -454 -1030 -637 -1302 -32 -49 -60 -88 -62 -88 -15 0 158 419 294
715 226 490 333 757 356 890 17 95 25 114 81 202 52 81 66 120 58 162 l-7 36
-43 -85 c-58 -115 -124 -276 -245 -592 -154 -404 -215 -545 -303 -701 -33 -59
-62 -105 -65 -103 -11 11 87 277 216 586 33 80 90 242 127 360 37 118 95 283
130 365 69 163 88 226 83 271 -2 24 -16 3 -79 -126 -110 -223 -372 -859 -476
-1154 -19 -55 -43 -118 -54 -141 -23 -48 -85 -125 -101 -125 -21 0 23 294 83
555 48 212 187 738 230 872 43 137 47 175 23 231 l-16 37 -62 -245 c-35 -135
-74 -274 -88 -310 l-26 -65 -25 57 c-14 31 -31 59 -37 63 -23 14 -29 -11 -14
-60 21 -71 22 -207 1 -277 -20 -66 -83 -140 -139 -163 -45 -18 -43 -26 -22
114 38 258 131 663 176 766 39 89 46 146 23 181 -22 34 -28 24 -44 -70 -17
-100 -62 -266 -124 -466 -88 -278 -125 -416 -156 -568 -14 -69 -25 -101 -44
-120 -13 -15 -45 -58 -69 -97 -44 -68 -46 -74 -57 -190 -14 -138 -42 -274 -75
-372 -26 -77 -85 -196 -116 -233 l-20 -25 5 40 c3 22 16 135 30 250 26 215 71
531 151 1055 45 296 83 561 104 720 6 47 20 114 31 150 20 66 18 110 -6 130
-16 13 -16 11 -60 -175 -43 -184 -71 -326 -170 -864 -119 -652 -185 -968 -240
-1166 -8 -27 -19 -70 -25 -94 -19 -71 -21 -41 -5 65 39 258 73 624 130 1409
48 662 78 954 106 1039 23 72 24 95 3 124 -30 43 -41 27 -57 -85 -9 -60 -21
-155 -27 -213 -6 -58 -18 -136 -27 -174 l-16 -69 -20 28 c-13 17 -56 44 -111
70 -50 23 -97 50 -105 59 -12 14 -12 38 3 169 9 84 19 160 21 170 10 52 -31
198 -48 170z"/>
<path d="M6720 11558 c0 -168 30 -384 58 -434 17 -28 15 242 -2 337 -12 68
-38 139 -51 139 -3 0 -5 -19 -5 -42z"/>
<path d="M4965 11383 c12 -49 46 -121 65 -138 18 -16 19 -16 25 8 9 36 -10 88
-46 125 -39 40 -53 41 -44 5z"/>
<path d="M10282 11028 c-90 -100 -112 -159 -44 -124 72 37 156 168 126 196 -5
4 -42 -28 -82 -72z"/>
<path d="M9668 10670 c-25 -19 -74 -117 -64 -127 13 -14 68 23 85 56 42 83 33
114 -21 71z"/>
<path d="M6416 10505 c-8 -51 3 -75 37 -75 17 0 19 5 14 41 -3 23 -14 51 -25
61 -19 20 -20 19 -26 -27z"/>
<path d="M6444 10376 c-9 -23 0 -51 17 -54 18 -3 31 30 22 54 -7 18 -32 18
-39 0z"/>
<path d="M11829 9816 c-52 -35 -111 -79 -130 -98 -32 -32 -72 -98 -64 -106 7
-7 103 48 163 93 73 55 167 177 135 174 -5 0 -51 -29 -104 -63z"/>
<path d="M1575 9760 c26 -51 125 -96 125 -57 0 37 -66 87 -115 87 -25 0 -25 0
-10 -30z"/>
<path d="M1747 9673 c-23 -22 12 -63 54 -63 35 0 37 13 4 45 -24 25 -45 31
-58 18z"/>
<path d="M1940 9526 c0 -15 29 -36 50 -36 6 0 10 10 8 23 -4 27 -58 39 -58 13z"/>
<path d="M2180 9371 c0 -23 43 -61 71 -61 38 0 37 12 -5 44 -34 26 -66 34 -66
17z"/>
<path d="M12393 8721 c-43 -19 -47 -55 -5 -45 15 4 35 14 45 24 28 26 1 40
-40 21z"/>
<path d="M1360 8268 c1 -29 41 -56 140 -92 58 -21 240 -97 405 -168 505 -219
628 -269 675 -274 75 -9 111 -24 195 -79 108 -71 158 -95 197 -95 34 0 98 32
98 49 0 9 -121 51 -145 51 -4 0 -36 14 -71 31 -44 21 -69 39 -80 60 -8 17 -14
32 -12 34 2 2 45 -7 97 -21 119 -31 121 -31 121 6 0 39 -28 63 -99 83 -71 20
-114 51 -91 67 24 17 104 4 168 -29 71 -36 147 -52 140 -30 -8 24 -84 76 -145
100 -75 28 -195 31 -269 6 l-52 -18 -73 30 c-41 16 -153 65 -249 109 -258 117
-418 168 -501 160 -27 -2 13 -21 217 -102 137 -55 296 -123 354 -152 140 -70
241 -136 232 -151 -12 -19 -55 -31 -88 -25 -72 13 -520 195 -904 366 -207 93
-260 110 -260 84z"/>
<path d="M1216 7051 c-17 -27 32 -61 69 -47 27 10 2 51 -33 54 -16 2 -33 -1
-36 -7z"/>
<path d="M11805 5500 c-16 -4 -25 -8 -19 -9 6 0 114 -14 240 -30 126 -16 290
-33 364 -36 l136 -7 29 25 30 26 -95 1 c-52 0 -171 9 -265 20 -170 20 -364 24
-420 10z"/>
<path d="M1040 5361 c-84 -18 -180 -57 -180 -73 0 -16 183 -7 346 17 91 13
169 27 172 30 3 2 -12 12 -33 21 -60 25 -204 27 -305 5z"/>
<path d="M678 5306 c-50 -25 -26 -56 43 -56 29 0 79 34 67 45 -15 15 -87 22
-110 11z"/>
<path d="M11320 3723 c1 -11 100 -79 128 -87 50 -16 10 57 -44 80 -36 15 -84
19 -84 7z"/>
<path d="M2882 3544 c-12 -8 -22 -22 -22 -30 0 -24 35 -16 65 16 l29 30 -25 0
c-13 0 -35 -7 -47 -16z"/>
<path d="M11440 3489 c0 -19 31 -63 62 -88 35 -29 128 -65 128 -50 0 36 -35
72 -110 109 -44 22 -80 35 -80 29z"/>
<path d="M10525 2983 c66 -66 172 -162 235 -214 272 -224 380 -309 380 -299 0
21 -347 357 -445 431 -98 74 -245 177 -275 193 -8 4 39 -46 105 -111z"/>
<path d="M3235 2560 c-3 -5 -126 -90 -273 -189 -256 -172 -427 -299 -418 -308
3 -3 53 20 113 52 104 54 614 396 621 416 4 11 -16 39 -29 39 -4 0 -11 -4 -14
-10z"/>
</g>
</svg>
