<?xml version="1.0" standalone="no"?>
<!DOCTYPE svg PUBLIC "-//W3C//DTD SVG 20010904//EN"
 "http://www.w3.org/TR/2001/REC-SVG-20010904/DTD/svg10.dtd">
<svg version="1.0" xmlns="http://www.w3.org/2000/svg"
 width="1280.000000pt" height="960.000000pt" viewBox="0 0 1280.000000 960.000000"
 preserveAspectRatio="xMidYMid meet">
<g transform="translate(0.000000,960.000000) scale(0.100000,-0.100000)"
fill="#000000" stroke="none">
<path d="M9350 7501 c-424 -121 -818 -558 -1017 -1126 -19 -55 -38 -104 -42
-108 -4 -4 -39 11 -77 33 -155 91 -356 124 -487 81 -90 -30 -166 -94 -211
-177 -34 -60 -36 -70 -36 -157 -1 -112 11 -182 44 -266 14 -36 26 -68 26 -72
0 -4 -26 -5 -58 -2 -164 15 -352 -86 -536 -287 -43 -47 -90 -103 -105 -125
-53 -76 -131 -283 -131 -348 0 -24 -14 -70 -36 -119 -73 -162 -101 -320 -87
-493 l8 -100 6 170 c7 183 25 273 75 386 24 54 44 75 44 48 0 -6 12 -26 26
-45 25 -32 30 -34 75 -31 27 2 49 1 49 -2 0 -4 -7 -33 -14 -66 -30 -130 -38
-247 -32 -460 4 -115 9 -227 12 -247 l6 -38 -41 0 c-22 0 -64 -9 -93 -20 -29
-11 -56 -20 -60 -20 -9 0 -25 57 -39 137 -29 166 -80 243 -160 243 -44 0 -72
-11 -107 -43 l-22 -21 -58 56 c-65 64 -192 138 -237 137 -16 0 -43 -6 -60 -14
l-30 -13 36 -1 c59 -2 160 -80 249 -192 l40 -50 -26 -39 -26 -39 -65 51 c-93
73 -261 172 -354 208 -131 50 -370 83 -448 61 -17 -4 5 -10 71 -19 105 -13
235 -50 313 -90 108 -54 446 -304 432 -319 -5 -4 -150 90 -217 141 -60 45
-161 96 -191 96 -13 0 -30 -4 -37 -9 -8 -4 -35 -4 -60 1 -87 17 -221 12 -297
-11 -38 -11 -77 -26 -85 -32 -12 -9 -11 -9 5 -4 47 17 184 17 260 0 106 -23
336 -117 322 -131 -3 -3 -25 5 -48 17 -89 45 -182 71 -276 76 -85 5 -95 4
-135 -20 -50 -29 -83 -63 -70 -71 5 -3 14 5 20 19 16 35 62 40 155 16 123 -32
123 -36 11 -61 -106 -24 -258 -90 -309 -135 -28 -25 -26 -24 40 8 69 34 171
70 231 82 24 5 33 2 38 -11 6 -16 8 -15 22 4 12 17 25 22 59 22 24 0 50 -3 59
-6 28 -11 17 -24 -18 -24 -84 0 -156 -43 -156 -93 0 -15 3 -18 8 -9 21 32 83
-37 75 -81 -5 -24 -23 -39 -23 -19 0 4 -10 18 -21 32 -11 14 -2 -11 20 -55 22
-44 43 -93 47 -108 4 -16 18 -34 35 -42 42 -22 55 -52 33 -76 -28 -32 -50 -32
-102 1 -27 16 -55 30 -63 30 -8 0 11 -14 41 -31 68 -39 66 -37 52 -51 -8 -8
-17 -7 -36 6 -31 20 -42 21 -26 1 26 -32 -55 -3 -95 34 -21 20 -33 28 -26 19
16 -22 5 -41 -20 -35 -11 3 -17 1 -13 -4 3 -5 12 -9 20 -9 8 0 14 -4 14 -9 0
-9 -139 -3 -150 6 -3 3 7 15 23 28 41 37 32 40 -12 5 -34 -27 -43 -30 -77 -24
-22 4 -51 13 -66 20 -17 9 -35 11 -49 5 -20 -7 -16 -10 29 -21 29 -6 55 -17
58 -22 4 -6 -1 -8 -12 -5 -11 3 -47 13 -81 22 -34 8 -70 18 -80 21 -10 3 -7
-2 7 -10 l25 -15 -30 -1 c-24 -1 -26 -3 -11 -9 16 -6 14 -11 -22 -39 -22 -18
-43 -29 -46 -24 -5 9 -10 34 -27 132 -13 79 -13 78 34 90 128 32 164 62 153
125 -7 37 -62 91 -103 101 -18 5 -23 13 -23 38 0 71 -30 128 -109 207 -92 92
-163 129 -246 129 -49 0 -56 2 -51 18 3 9 8 31 11 47 15 67 59 221 67 231 4 6
52 14 105 18 314 21 613 78 758 146 109 50 115 59 76 109 -49 62 -141 136
-222 180 -64 34 -266 116 -487 196 -35 12 -63 25 -62 29 0 3 0 24 0 45 l0 40
116 -2 116 -2 39 43 c99 112 144 415 90 607 -57 202 -158 295 -339 312 l-64 6
6 41 c16 111 27 268 21 326 -20 210 -101 388 -229 507 -104 98 -185 126 -361
126 -148 0 -202 -20 -295 -112 -104 -103 -191 -282 -225 -464 -22 -120 -35
-337 -24 -417 28 -199 79 -246 296 -274 88 -11 98 -14 95 -32 -2 -10 -7 -80
-12 -154 -9 -125 -52 -443 -68 -505 l-8 -28 -16 39 c-9 22 -22 73 -28 114 -37
226 -164 428 -310 493 -86 39 -246 18 -336 -44 -44 -30 -96 -99 -116 -155 -24
-68 -62 -53 -320 128 -58 41 -131 88 -162 104 -58 30 -66 43 -66 109 0 63 -28
213 -57 300 -160 498 -681 676 -1228 420 -248 -116 -399 -230 -549 -416 -198
-244 -270 -482 -200 -658 29 -73 47 -97 78 -107 11 -4 32 -15 46 -24 14 -10
40 -22 57 -27 l31 -8 -41 -56 c-23 -31 -89 -120 -146 -198 -57 -77 -136 -176
-176 -220 -43 -47 -76 -91 -80 -110 -14 -63 40 -97 198 -123 101 -17 230 1
697 93 223 45 409 82 415 82 5 1 14 -38 19 -86 8 -83 7 -89 -14 -112 -25 -26
-60 -148 -60 -208 l0 -40 -62 7 c-35 4 -128 18 -208 32 -131 23 -159 25 -305
18 -99 -4 -187 -13 -231 -25 -179 -45 -406 -207 -516 -369 -34 -49 -102 -193
-160 -335 -42 -105 -91 -344 -96 -467 l-4 -118 29 0 c104 1 204 54 548 295 91
63 168 115 173 115 11 0 162 -310 162 -332 0 -9 -16 -37 -35 -63 -63 -82 -145
-308 -145 -399 0 -23 -7 -48 -18 -59 -15 -19 -16 -20 0 -14 12 4 19 -2 26 -21
8 -24 3 -30 -47 -72 -60 -50 -88 -80 -76 -80 5 0 17 8 27 17 10 9 -2 -14 -27
-51 -38 -58 -83 -145 -142 -276 -11 -23 -12 -23 -12 -4 -1 11 5 42 13 67 9 29
10 44 3 40 -7 -4 -8 0 -4 11 4 10 7 22 7 27 0 5 10 9 23 9 20 1 20 2 4 11 -27
16 -4 49 35 49 26 0 29 2 18 15 -7 8 -19 15 -27 15 -19 0 45 123 95 181 26 30
30 39 15 30 -16 -8 -24 -8 -29 0 -3 6 -17 9 -30 6 -18 -3 -24 0 -24 14 0 20
-28 39 -47 32 -22 -8 42 -63 72 -63 26 0 25 -1 -22 -55 -52 -59 -63 -59 -38 1
8 20 13 39 11 41 -10 10 -53 -80 -76 -162 -19 -64 -31 -91 -44 -93 -15 -3 -16
2 -10 50 10 82 42 198 64 235 l19 33 -25 -17 c-14 -9 -39 -40 -56 -70 -16 -29
-32 -53 -35 -53 -11 0 11 138 28 180 l19 45 -20 -25 c-33 -41 -42 -88 -49
-240 l-6 -144 -31 -7 c-32 -6 -32 -6 -38 45 -10 84 -8 104 12 109 15 4 15 5
-2 6 -17 1 -18 7 -12 62 10 87 41 179 77 230 27 37 28 41 7 21 -35 -31 -77
-122 -90 -190 -23 -127 -23 -127 -44 -130 -14 -2 -27 6 -38 22 -21 33 -65 34
-102 3 l-27 -24 26 -72 c28 -74 34 -111 18 -111 -15 0 -22 33 -9 42 10 6 9 8
-4 8 -25 0 -57 104 -40 130 7 11 12 31 12 45 0 57 70 158 142 206 23 16 39 29
34 29 -22 0 -125 -66 -170 -109 l-48 -46 5 60 c5 52 4 56 -6 30 -8 -22 -12
-410 -14 -1438 l-4 -1407 6401 0 6400 0 0 1469 c0 931 -4 1479 -10 1495 -6 17
-6 26 0 26 19 0 10 32 -10 37 -11 3 -20 10 -20 15 0 5 -9 21 -20 35 -21 27
-27 15 -9 -19 8 -16 8 -19 -2 -16 -17 6 -34 58 -22 67 5 3 13 15 16 25 7 16 5
17 -8 6 -18 -15 -48 -80 -40 -88 3 -3 5 0 5 6 0 7 5 12 10 12 6 0 10 -7 10
-15 0 -8 -6 -15 -12 -15 -23 0 -41 18 -35 34 7 18 -3 21 -21 6 -6 -6 -10 -7
-7 -4 3 4 0 13 -6 20 -7 9 -4 25 10 58 24 51 27 73 6 36 -13 -22 -14 -23 -15
-5 -1 16 -4 14 -15 -10 -7 -16 -14 -23 -14 -15 -1 12 -3 13 -10 1 -12 -18 -27
-7 -52 37 -11 20 -17 28 -13 17 4 -11 8 -38 10 -60 1 -26 1 -29 -3 -10 -6 36
-23 58 -23 29 0 -11 -15 -35 -33 -53 l-34 -32 -17 23 c-17 23 -17 22 -2 -4 17
-28 21 -58 9 -58 -4 0 -17 9 -29 21 -21 19 -22 20 -19 3 1 -11 7 -18 13 -17 5
1 15 -4 21 -11 9 -11 6 -15 -15 -20 -30 -8 -35 -4 -52 37 -9 21 -9 27 1 27 7
1 5 6 -5 14 -10 7 -22 24 -27 37 -7 17 -10 19 -10 7 -1 -15 -10 -18 -48 -18
-27 0 -64 -3 -85 -6 l-36 -6 1 185 2 185 85 26 c101 31 126 49 144 101 14 39
16 40 68 46 106 12 193 31 213 45 19 14 19 15 -10 39 -48 40 -131 87 -270 152
-71 33 -138 63 -147 66 -16 6 -27 57 -12 57 3 0 88 -22 187 -50 100 -27 233
-61 295 -74 l112 -24 0 137 0 138 -82 65 c-291 228 -513 318 -830 334 -96 5
-125 10 -121 20 16 43 -266 144 -403 144 -39 0 -50 17 -55 90 l-4 45 130 7
c291 16 574 40 634 54 35 8 95 31 133 51 118 62 117 95 -4 176 -46 31 -110 77
-143 104 -33 27 -96 78 -140 114 -92 74 -392 236 -496 267 -224 68 -530 48
-719 -48 -105 -53 -317 -218 -398 -309 -42 -47 -125 -135 -184 -194 -114 -115
-126 -139 -89 -176 22 -22 116 -59 185 -72 60 -11 339 -11 576 1 96 4 176 7
178 5 2 -1 5 -18 9 -38 l5 -35 -98 -6 c-242 -16 -413 -60 -601 -155 l-100 -50
-53 40 c-74 56 -135 80 -217 86 -60 5 -82 2 -134 -17 -149 -56 -260 -242 -305
-509 -25 -149 -30 -151 -71 -35 l-34 99 6 200 c5 168 4 212 -10 270 -10 39
-19 112 -21 164 -9 225 -28 255 -191 296 l-87 21 -23 70 c-26 77 -65 172 -117
286 -35 76 -35 76 -21 135 16 67 70 212 89 238 12 17 18 17 113 2 70 -10 114
-12 147 -6 26 5 74 11 106 14 38 3 81 15 119 34 32 17 61 27 65 24 3 -4 6 -27
6 -53 0 -74 42 -181 101 -258 65 -84 160 -152 271 -193 72 -27 97 -31 188 -32
204 -3 279 22 388 127 84 81 138 189 147 297 9 98 -14 232 -51 296 -44 77
-131 179 -198 232 -67 53 -203 125 -278 148 -26 7 -48 17 -48 21 0 4 13 50 29
102 38 125 52 249 41 376 -8 87 -14 111 -51 187 -75 158 -208 272 -361 310
-105 26 -260 21 -378 -12z m340 -152 c45 -10 170 -86 203 -123 35 -40 79 -151
92 -231 17 -101 6 -216 -31 -342 l-27 -93 -104 0 c-249 0 -494 -91 -685 -254
-68 -58 -149 -146 -190 -206 -21 -33 -39 -22 -84 50 -56 90 -78 178 -78 300 1
92 5 116 33 195 46 129 131 254 225 330 62 50 106 105 106 131 0 4 -17 3 -37
-1 -25 -4 -67 -30 -121 -73 -171 -137 -284 -349 -303 -569 -9 -98 -7 -112 17
-207 22 -83 35 -113 77 -171 28 -38 59 -77 70 -86 19 -15 18 -17 -11 -75 -16
-32 -35 -77 -42 -99 -17 -56 -24 -60 -45 -28 -35 53 -173 218 -228 271 -63 62
-62 46 -7 221 56 180 149 375 250 526 55 82 198 255 210 255 5 0 38 26 72 58
193 179 444 266 638 221z m-7662 -713 c79 -31 147 -81 204 -148 62 -74 83
-112 113 -203 27 -83 60 -254 50 -263 -3 -3 -41 9 -86 27 -122 47 -238 64
-394 58 -71 -3 -165 -13 -209 -22 -43 -9 -80 -14 -82 -12 -2 2 3 21 11 41 42
100 37 313 -8 364 -25 27 -33 28 -47 1 -8 -15 -8 -40 1 -94 10 -63 9 -84 -6
-147 -18 -75 -88 -218 -107 -218 -23 0 -199 -90 -269 -138 -41 -28 -130 -103
-198 -167 l-125 -116 -55 7 c-112 13 -161 72 -161 191 0 48 6 79 19 103 10 19
21 49 25 65 20 89 166 280 305 398 328 278 735 387 1019 273z m7811 -228 c-21
-42 -121 -152 -198 -221 -149 -132 -351 -208 -508 -191 -39 4 -63 11 -63 19 0
14 127 165 139 165 5 0 42 27 82 61 104 86 206 135 354 169 44 10 108 19 143
19 62 1 63 1 51 -21z m364 -59 c179 -90 304 -241 336 -408 28 -144 -59 -319
-192 -388 -72 -38 -137 -52 -239 -53 -107 0 -201 31 -296 97 -126 89 -209 238
-196 353 l6 57 89 69 c91 70 222 215 267 297 l24 45 70 -19 c38 -11 97 -33
131 -50z m-2251 -114 c113 -30 303 -137 292 -165 -3 -8 -18 -85 -32 -172 -19
-119 -28 -155 -38 -151 -8 3 -37 -1 -65 -7 -60 -15 -111 -56 -176 -144 -57
-77 -49 -87 68 -87 47 0 92 1 100 3 10 2 15 -8 17 -36 3 -34 -1 -43 -28 -64
-17 -14 -36 -35 -41 -49 -8 -22 -10 -23 -36 -9 -43 22 -166 135 -220 201 -64
79 -125 186 -154 271 -33 96 -34 250 -2 310 26 50 42 63 107 91 61 26 126 29
208 8z m-3542 -308 c0 -2 -9 -30 -20 -63 -48 -139 -63 -335 -34 -434 24 -81
53 -104 165 -130 l96 -22 -7 -36 c-3 -21 -11 -36 -16 -35 -82 15 -252 33 -314
33 -62 0 -80 3 -80 14 0 8 11 90 24 183 14 92 28 239 32 325 l7 157 61 4 c34
2 67 4 74 5 6 1 12 0 12 -1z m4111 -125 c48 -73 99 -204 99 -255 l0 -29 -51
46 c-52 47 -114 72 -150 61 -18 -6 -20 -3 -15 42 3 26 8 77 11 113 3 36 8 80
12 98 5 32 6 33 26 15 11 -10 42 -51 68 -91z m-959 -226 c19 -9 51 -37 72 -61
l37 -45 -30 0 c-83 0 -231 -48 -321 -105 l-55 -34 -7 39 c-8 46 -44 120 -59
120 -39 0 129 91 191 103 43 9 136 0 172 -17z m1145 -68 c-3 -8 -6 -5 -6 6 -1
11 2 17 5 13 3 -3 4 -12 1 -19z m-1507 -153 c0 -63 -14 -91 -78 -159 -72 -77
-113 -138 -165 -248 -43 -88 -63 -108 -112 -108 -34 0 -48 31 -40 91 6 42 12
53 46 77 75 52 77 53 54 46 -11 -4 -35 -18 -52 -31 -42 -31 -42 -17 0 72 56
116 106 185 209 290 l99 100 20 -44 c10 -24 19 -63 19 -86z m1390 40 c0 -16
-34 -83 -52 -102 -32 -35 -48 -19 -48 48 l0 59 50 0 c28 0 50 -2 50 -5z m-871
-43 c5 -9 12 -34 16 -53 6 -32 4 -37 -17 -42 -12 -4 -35 -7 -49 -7 -14 0 -43
-15 -65 -33 -32 -28 -50 -35 -104 -40 -36 -4 -76 -10 -90 -14 -21 -5 -23 -4
-14 8 6 8 15 24 18 37 7 21 6 21 -21 11 -15 -5 -48 -30 -73 -54 -37 -36 -101
-75 -125 -75 -17 0 4 28 71 95 57 56 97 85 159 116 127 63 274 89 294 51z
m966 -77 c-7 -82 -7 -82 -80 -66 l-30 6 41 33 c27 22 45 47 53 74 18 58 24 40
16 -47z m-5561 -27 c18 -80 58 -180 91 -224 16 -21 14 -22 -77 -59 -121 -47
-225 -104 -299 -161 -32 -25 -59 -42 -59 -39 0 14 196 199 266 252 41 30 74
59 74 63 0 5 3 15 6 24 5 12 0 16 -22 16 -38 0 -168 -98 -303 -226 -55 -53
-101 -94 -101 -91 0 2 20 42 46 88 32 60 65 102 114 149 41 38 76 81 86 104
l15 38 -37 -7 c-38 -7 -111 -63 -180 -137 -60 -64 -131 -206 -153 -307 -25
-109 -78 -207 -96 -175 -5 9 -28 40 -51 69 l-41 51 41 95 c75 169 207 370 276
419 17 12 70 32 118 45 98 26 222 71 236 85 22 22 32 6 50 -72z m4766 14 c-7
-3 -16 2 -21 9 -16 25 -9 32 12 13 13 -12 16 -20 9 -22z m-5650 -176 c0 -7
-72 -211 -75 -214 -2 -2 -19 1 -38 7 -33 11 -36 15 -46 75 -18 105 -19 102 52
119 63 15 107 20 107 13z m5238 -136 c-11 -129 -19 -150 -58 -150 -16 0 -48
-7 -71 -16 -36 -15 -42 -15 -56 -1 -21 21 -35 102 -28 159 6 44 9 48 48 63 33
12 136 39 167 44 3 1 2 -44 -2 -99z m-270 -42 c-1 -60 8 -111 28 -150 12 -23
12 -28 0 -35 -26 -14 -117 -135 -144 -190 -19 -39 -29 -50 -38 -42 -22 18 -54
88 -48 104 4 10 0 15 -10 15 -20 0 -21 28 -1 103 24 92 72 155 166 216 24 16
45 30 46 30 1 1 2 -23 1 -51z m218 -235 c-3 -4 -16 -1 -28 4 l-23 11 25 10
c19 7 26 6 28 -5 2 -8 1 -17 -2 -20z m-4656 -78 c18 -6 18 -9 -8 -55 -16 -30
-39 -55 -59 -64 l-31 -15 -7 73 c-5 48 -3 81 4 94 l11 21 36 -24 c19 -13 44
-27 54 -30z m4595 30 c27 -22 28 -25 9 -25 -35 0 -100 -55 -144 -124 -27 -42
-47 -63 -56 -59 -19 7 -18 27 7 76 28 53 119 157 139 156 8 0 29 -11 45 -24z
m-5677 -180 c0 -44 -2 -54 -8 -35 -4 14 -8 61 -8 105 0 71 1 75 9 35 4 -25 7
-72 7 -105z m5722 46 c0 -98 0 -99 -26 -104 -36 -6 -114 4 -114 15 0 38 105
188 132 188 4 0 8 -44 8 -99z m2618 38 c34 -17 62 -34 62 -39 0 -5 -37 -35
-81 -67 -204 -145 -297 -235 -335 -322 -17 -41 -18 -38 5 -51 37 -19 156 -29
269 -22 l114 7 25 -53 c14 -30 47 -82 73 -117 l47 -62 -28 -17 c-54 -32 -121
-144 -134 -223 -8 -48 -13 -50 -77 -30 -24 8 -81 24 -128 36 -47 12 -118 31
-157 41 -40 11 -82 20 -93 20 -13 0 -20 7 -20 20 0 19 7 20 133 20 73 -1 161
-7 197 -15 36 -7 66 -12 68 -11 1 2 -24 12 -55 24 -97 34 -170 45 -262 38
l-84 -7 6 183 c10 317 66 515 175 621 76 74 163 82 280 26z m-7578 -146 c67
-147 107 -324 95 -419 -5 -41 -14 -64 -37 -90 -16 -18 -36 -34 -43 -34 -13 0
-149 -157 -158 -182 -12 -36 -20 18 -25 181 -5 177 -5 179 17 193 12 7 39 42
59 78 36 64 37 67 37 170 -1 87 -4 113 -23 151 -23 47 -26 66 -16 93 8 20 50
-43 94 -141z m907 102 c2 -1 -8 -24 -22 -52 -13 -28 -27 -63 -31 -78 -9 -35
-20 -22 -38 45 -8 30 -18 64 -21 76 -6 20 -4 21 52 16 32 -2 59 -5 60 -7z
m-781 -52 c-11 -11 -19 6 -11 24 8 17 8 17 12 0 3 -10 2 -21 -1 -24z m4435
-30 c14 -16 13 -26 -11 -112 l-27 -94 -6 48 c-4 26 -7 81 -7 122 0 67 2 73 18
64 9 -5 24 -17 33 -28z m-3787 -93 c14 -42 28 -108 31 -147 8 -77 12 -72 -57
-87 -25 -6 -28 -2 -46 46 -11 29 -25 84 -31 122 l-12 68 33 55 c30 49 34 52
46 36 7 -10 23 -52 36 -93z m-888 -49 c-4 -69 -9 -89 -27 -105 l-21 -21 6 55
c4 30 12 88 18 129 10 63 13 71 21 50 5 -13 6 -62 3 -108z m-712 54 c4 -14 25
-56 49 -93 l42 -67 0 -191 c0 -190 0 -192 -31 -268 l-30 -76 -33 34 c-106 109
-286 99 -442 -24 l-37 -29 -72 126 c-39 69 -68 129 -63 133 4 5 109 84 233
176 124 92 257 200 295 239 39 39 73 70 76 68 4 -1 10 -14 13 -28z m5525 -7
c-1 -7 -5 -24 -9 -38 -7 -22 -8 -21 -9 13 -1 20 4 37 9 37 6 0 10 -6 9 -12z
m265 -18 c-1 -5 -2 -28 -2 -49 -2 -40 -2 -40 -42 -38 -44 1 -73 -20 -138 -106
-20 -26 -38 -44 -40 -39 -1 5 9 62 23 126 14 65 25 119 25 120 0 1 39 1 88 -1
52 -1 87 -7 86 -13z m4116 -43 c63 -24 192 -71 286 -102 148 -50 171 -60 167
-76 -6 -22 -7 -22 -53 -9 -47 14 -204 14 -262 1 -45 -10 -50 -9 -151 39 -97
47 -105 53 -110 83 -19 112 -19 120 -6 114 8 -3 66 -25 129 -50z m-8420 -154
c9 -21 7 -23 -18 -23 -73 1 -85 18 -56 86 9 22 21 50 26 64 9 23 12 19 24 -40
7 -36 18 -75 24 -87z m-206 83 c-10 -20 -21 -36 -26 -36 -5 0 1 18 12 41 26
50 38 46 14 -5z m3595 18 c21 -27 46 -118 40 -149 -3 -14 -14 -21 -34 -23 -28
-3 -34 4 -82 77 l-52 80 32 20 c43 28 71 26 96 -5z m855 -151 c-13 -38 -24
-75 -24 -84 0 -29 -26 -43 -49 -27 -20 14 -18 17 36 96 31 45 58 82 59 82 1 0
-9 -30 -22 -67z m3121 47 c-10 -11 -22 -17 -26 -14 -16 10 -9 23 14 27 12 2
24 5 26 6 2 0 -4 -8 -14 -19z m-107 -52 c9 -46 11 -42 -100 -172 -11 -14 -74
49 -109 110 -37 65 -36 74 4 75 17 1 61 7 97 14 101 19 98 20 108 -27z m-3319
-85 c1 -56 -15 -63 -25 -11 -9 45 -8 67 3 108 6 23 7 21 14 -15 4 -22 8 -59 8
-82z m-4211 89 c10 -7 8 -29 -13 -106 -14 -54 -25 -107 -25 -117 0 -10 -4 -19
-10 -19 -5 0 -10 8 -10 18 0 9 -10 33 -21 52 l-21 34 38 73 c41 77 42 77 62
65z m3527 -62 c19 -38 34 -70 32 -70 -2 0 -22 17 -44 38 -35 32 -40 41 -36 70
3 17 7 32 9 32 2 0 20 -31 39 -70z m-450 10 c3 -6 -1 -7 -9 -4 -18 7 -21 14
-7 14 6 0 13 -4 16 -10z m-2517 -47 c12 -19 21 -36 20 -38 -2 -1 -29 -12 -61
-25 -117 -46 -267 -169 -253 -207 4 -9 -16 -48 -48 -96 -29 -45 -63 -101 -75
-124 -26 -51 -43 -54 -68 -10 -18 30 -18 39 -6 152 12 106 58 364 67 373 4 3
180 -13 253 -24 34 -5 45 -2 59 15 13 14 30 21 54 21 29 -1 39 -7 58 -37z
m3454 -43 c4 -40 3 -40 -32 -40 -37 0 -80 -23 -80 -42 0 -6 8 -4 18 5 11 10
36 17 60 17 42 0 42 0 42 -36 0 -39 2 -38 -67 -19 -10 3 -2 -2 17 -12 l35 -17
-30 -7 c-65 -15 -68 -13 -103 59 -18 37 -32 72 -32 78 0 19 84 52 136 53 30 1
32 -1 36 -39z m52 -59 c-2 -1 -7 0 -13 4 -6 3 -11 25 -10 48 l1 42 12 -45 c6
-25 11 -47 10 -49z m2538 -54 c-2 -74 -7 -125 -13 -121 -10 6 -12 148 -3 218
12 83 20 35 16 -97z m-3765 76 c20 -46 43 -183 32 -183 -5 0 -19 17 -33 38
-13 20 -31 43 -40 51 -9 7 -16 23 -17 35 0 21 0 21 -9 -1 -5 -13 -12 -23 -15
-23 -4 0 -3 10 0 23 4 15 3 18 -3 9 -7 -11 -16 -7 -42 16 l-32 30 23 13 c22
11 73 25 107 28 7 0 20 -16 29 -36z m163 -13 c3 0 -2 -6 -10 -13 -8 -7 -27
-26 -41 -44 l-26 -31 -17 59 c-9 32 -16 61 -16 64 0 3 24 -4 53 -15 28 -11 54
-20 57 -20z m1400 -18 c-18 -31 -31 -32 -41 -4 -5 12 -2 28 8 42 14 20 17 21
32 6 14 -15 14 -19 1 -44z m-1355 -71 c-11 -65 -25 -59 -25 11 0 57 1 61 16
46 12 -12 14 -26 9 -57z m1016 24 c-9 -30 -9 -30 -10 10 -1 25 2 36 9 29 6 -6
6 -21 1 -39z m-1066 -47 c-8 -97 -25 -129 -25 -47 0 70 10 129 22 129 6 0 7
-33 3 -82z m-36 20 c-5 -18 -9 -51 -10 -73 l-1 -40 -10 36 c-7 28 -6 45 6 73
19 45 28 47 15 4z m161 -9 c0 -3 -9 -14 -20 -24 -11 -10 -20 -28 -20 -40 0
-12 -9 -30 -20 -40 -19 -17 -20 -17 -20 1 0 10 4 35 9 54 5 19 12 47 15 63 6
27 7 27 31 10 13 -10 25 -21 25 -24z m-322 1 c13 -16 20 -30 18 -30 -8 0 -46
43 -46 52 0 13 5 9 28 -22z m5130 -14 c14 -35 14 -39 -1 -48 -24 -13 -21 -27
3 -21 22 6 25 -5 11 -53 -6 -21 -4 -41 5 -63 7 -17 18 -82 23 -144 6 -61 13
-126 17 -144 l6 -31 -40 10 -39 10 -7 68 c-7 75 -46 222 -75 278 -10 20 -39
65 -65 99 l-45 62 47 6 c26 3 54 8 62 10 8 2 30 2 49 2 29 -2 35 -7 49 -41z
m-5172 12 c-3 -37 29 -115 58 -137 l31 -25 -22 25 c-29 32 -47 79 -30 79 6 0
3 7 -7 15 -11 8 -17 17 -15 19 3 3 18 -6 34 -19 17 -14 22 -22 12 -19 -16 6
-16 4 2 -27 24 -42 35 -95 20 -104 -12 -8 -25 7 -74 86 -28 45 -34 63 -29 88
6 29 23 45 20 19z m404 -43 c0 -6 -10 -20 -21 -31 -22 -19 -22 -19 -10 3 14
28 14 34 -1 31 -7 -2 -16 -12 -20 -23 -6 -17 -7 -16 -5 5 1 14 8 24 15 23 6
-2 12 4 12 13 0 14 3 14 15 4 8 -7 15 -18 15 -25z m16 -37 c-18 -26 -22 -17
-5 14 6 11 13 17 16 15 3 -3 -2 -16 -11 -29z m-154 -35 c-4 -55 -15 -84 -27
-71 -7 7 16 128 25 128 3 0 3 -26 2 -57z m-147 7 c17 -33 19 -50 6 -50 -8 0
-31 52 -31 71 0 17 10 9 25 -21z m350 9 c-1 -21 -31 -46 -42 -35 -4 3 -1 6 5
6 7 0 12 9 12 19 0 11 6 22 13 24 6 3 12 6 13 6 0 1 0 -8 -1 -20z m-3691 -95
c-24 -58 -44 -109 -45 -112 -1 -4 -4 4 -8 18 -6 18 -1 39 17 75 24 48 72 125
78 125 1 0 -17 -48 -42 -106z m831 56 l27 -10 -56 -51 c-71 -65 -129 -154
-164 -251 -15 -43 -31 -76 -37 -74 -11 3 -7 38 5 46 4 3 8 18 8 35 0 16 5 31
11 33 6 2 9 8 6 13 -8 12 46 138 95 220 36 60 43 68 60 59 10 -5 31 -15 45
-20z m2715 26 c0 -2 -8 -10 -17 -17 -16 -13 -17 -12 -4 4 13 16 21 21 21 13z
m190 -6 c0 -5 -4 -10 -10 -10 -5 0 -10 5 -10 10 0 6 5 10 10 10 6 0 10 -4 10
-10z m-4641 -21 c38 -12 121 -100 121 -128 0 -29 -77 -215 -83 -200 -3 8 -6 0
-6 -18 -1 -43 -18 -83 -34 -83 -15 0 -44 89 -50 150 -3 25 -4 21 -5 -16 -1
-29 7 -76 18 -108 10 -31 16 -64 13 -72 -13 -36 -129 115 -117 153 5 14 4 15
-4 4 -8 -11 -24 13 -67 99 l-57 114 28 23 c43 34 125 76 164 84 19 4 37 7 39
8 2 0 20 -4 40 -10z m1284 -69 c-6 -40 -13 -56 -26 -58 -25 -5 -24 67 3 98 11
13 21 28 21 34 1 6 3 4 5 -4 3 -8 1 -40 -3 -70z m602 31 c50 -11 138 -25 198
-32 61 -7 107 -17 108 -23 0 -6 4 -32 8 -58 6 -37 5 -48 -5 -48 -8 0 -11 -6
-8 -15 9 -21 -2 -19 -26 7 -11 12 -20 17 -20 12 0 -7 -24 -5 -67 4 -71 14
-308 12 -347 -4 -18 -7 -17 -4 4 34 13 23 39 59 57 79 18 20 32 38 29 40 -7 7
-74 -65 -100 -106 -23 -36 -126 -148 -126 -137 0 48 160 266 195 266 6 0 51
-9 100 -19z m2355 -37 c0 -8 -4 -12 -10 -9 -5 3 -10 10 -10 16 0 5 5 9 10 9 6
0 10 -7 10 -16z m-1150 -44 c22 -42 28 -76 9 -50 -8 11 -9 1 -5 -38 l5 -54
-30 38 c-16 21 -46 48 -67 61 l-37 24 36 -33 c20 -18 53 -55 74 -83 l37 -50
-23 -6 c-31 -9 -103 -11 -123 -3 -13 5 -16 22 -16 78 0 39 3 88 6 108 6 36 7
37 58 41 28 2 52 4 53 5 2 1 12 -16 23 -38z m59 13 c-1 -16 2 -41 6 -58 6 -28
5 -29 -9 -12 -8 11 -12 25 -9 33 3 9 0 12 -9 9 -8 -3 -21 7 -31 25 l-18 30 35
0 c32 0 35 -3 35 -27z m816 -53 c3 -5 1 -10 -4 -10 -6 0 -11 5 -11 10 0 6 2
10 4 10 3 0 8 -4 11 -10z m-2702 -84 c-6 -18 -8 -16 -13 14 -7 43 0 62 12 30
5 -12 5 -32 1 -44z m2357 49 c0 -12 -82 -50 -109 -51 l-35 -1 35 32 c29 26 41
31 72 27 20 -2 37 -6 37 -7z m366 -3 c-10 -2 -22 0 -28 6 -6 6 0 7 19 4 21 -5
23 -7 9 -10z m-843 -39 c21 -58 21 -63 3 -63 -16 0 -21 13 -32 73 -9 52 9 46
29 -10z m526 21 c-6 -8 -15 -12 -19 -9 -4 3 -13 -2 -20 -10 -7 -8 -24 -15 -39
-15 l-26 1 34 28 c23 19 41 26 58 23 18 -3 21 -7 12 -18z m99 -15 c-7 -5 -26
-9 -42 -9 -27 0 -28 1 -12 13 10 8 30 12 43 9 18 -3 21 -7 11 -13z m-4235
-238 l27 -63 -37 -68 c-20 -38 -54 -89 -76 -114 -31 -38 -45 -46 -72 -46 -37
0 -36 -4 -13 90 22 89 123 290 137 273 4 -4 20 -37 34 -72z m11557 -16 c0 -5
-5 -3 -10 5 -5 8 -10 20 -10 25 0 6 5 3 10 -5 5 -8 10 -19 10 -25z m-9597 0
c-7 -21 -13 -19 -13 6 0 11 4 18 10 14 5 -3 7 -12 3 -20z m9543 -53 c-8 -7
-36 18 -36 32 0 7 6 18 12 24 10 10 14 6 21 -19 4 -17 6 -34 3 -37z m-179 -7
c21 -43 14 -51 -55 -69 -40 -11 -54 -11 -69 -1 -10 6 -30 15 -45 19 -16 3 -28
12 -28 19 0 14 111 57 173 66 4 0 15 -15 24 -34z m240 -2 c-3 -10 -5 -4 -5 12
0 17 2 24 5 18 2 -7 2 -21 0 -30z m-85 10 c10 -9 18 -20 18 -25 0 -11 -38 14
-44 29 -7 18 4 16 26 -4z m-35 -35 c-3 -8 -6 -5 -6 6 -1 11 2 17 5 13 3 -3 4
-12 1 -19z m-287 -47 c25 -15 28 -20 15 -25 -36 -13 -55 -7 -55 19 0 30 1 30
40 6z m610 -35 c0 -6 -7 -2 -15 8 -8 11 -15 25 -15 30 0 6 7 2 15 -8 8 -11 15
-25 15 -30z m-110 14 c-13 -8 -12 -10 2 -10 10 0 22 -10 28 -22 9 -20 9 -21
-2 -7 -7 8 -21 18 -32 22 -15 6 -16 10 -6 22 7 9 15 13 19 10 3 -3 -1 -10 -9
-15z m-11584 -35 c3 -20 10 -38 15 -41 5 -3 9 -9 9 -14 0 -6 -77 7 -88 16 -7
5 43 82 50 78 4 -3 10 -20 14 -39z m11655 3 c8 -16 8 -19 -2 -16 -6 2 -16 14
-20 27 -11 27 6 19 22 -11z m-270 -15 c7 -8 14 -25 15 -37 2 -22 0 -21 -32 10
-19 19 -34 39 -34 43 0 13 37 1 51 -16z m-71 -13 c6 -11 9 -20 6 -20 -13 0
-56 24 -56 32 0 17 40 7 50 -12z m-9895 -27 c-7 -39 -25 -69 -25 -43 0 16 22
80 28 80 2 0 1 -17 -3 -37z m155 12 c0 -14 -4 -25 -10 -25 -5 0 -10 11 -10 25
0 14 5 25 10 25 6 0 10 -11 10 -25z m-1566 -39 c21 -9 44 -32 65 -66 l33 -53
-29 6 c-79 15 -100 15 -41 -1 37 -10 70 -21 73 -24 13 -12 -66 -18 -110 -8
-27 6 -91 14 -143 17 -53 3 -89 9 -81 12 29 12 87 62 111 96 26 39 63 46 122
21z m552 -82 c-4 -9 -9 -15 -11 -12 -3 3 -3 13 1 22 4 9 9 15 11 12 3 -3 3
-13 -1 -22z m-858 -43 c9 -5 73 -14 142 -20 69 -6 139 -15 155 -21 24 -8 19
-9 -29 -5 -88 8 -62 -4 45 -21 112 -18 132 -28 34 -17 -39 4 -99 8 -135 7 -83
0 -261 -17 -237 -22 10 -2 14 -8 10 -15 -5 -9 -3 -9 8 -1 25 20 196 25 328 10
68 -8 125 -16 126 -18 2 -2 -85 -2 -193 -2 l-197 2 150 -12 c105 -8 141 -13
120 -19 -78 -19 -254 -50 -287 -51 -21 0 -33 -3 -26 -7 6 -4 -14 -15 -45 -25
-83 -26 -62 -28 33 -4 45 12 90 20 99 18 20 -5 -63 -55 -114 -69 -61 -17 -32
-21 31 -5 66 17 296 57 301 53 1 -2 -30 -17 -70 -34 -39 -17 -113 -50 -164
-72 -101 -44 -294 -114 -300 -107 -2 2 23 47 57 100 33 54 60 99 60 102 0 3
19 32 41 66 23 33 36 58 30 54 -15 -10 -94 -127 -165 -248 -44 -73 -65 -99
-87 -107 -16 -5 -29 -7 -29 -3 0 3 40 87 90 187 75 152 176 315 195 315 3 0
13 -4 23 -9z m-644 -113 c17 -31 18 -39 7 -67 -8 -17 -17 -31 -21 -31 -4 0
-17 23 -28 51 -18 41 -19 54 -9 70 16 25 28 20 51 -23z m125 -60 c1 -35 -16
-36 -29 -2 -7 17 -6 32 2 47 11 21 11 21 19 2 4 -11 8 -32 8 -47z m756 -28
c-3 -5 -12 -10 -18 -10 -7 0 -6 4 3 10 19 12 23 12 15 0z m-969 -46 c-3 -8 -1
-14 5 -14 9 0 39 -59 39 -78 0 -4 -13 -18 -30 -30 l-30 -23 1 98 c0 71 3 93
11 80 5 -10 7 -25 4 -33z m217 14 c4 -12 4 -24 1 -27 -6 -7 -24 20 -24 37 0
21 17 13 23 -10z m81 -135 c4 -60 9 -124 12 -143 5 -32 3 -37 -20 -48 -24 -11
-27 -9 -45 27 -18 34 -46 238 -35 250 9 10 15 -11 31 -98 9 -50 18 -89 21 -87
4 4 -11 115 -23 173 -5 20 5 28 41 32 7 1 14 -38 18 -106z m-147 25 c-3 -8 -6
-5 -6 6 -1 11 2 17 5 13 3 -3 4 -12 1 -19z m-107 -63 c0 -39 -5 -42 -32 -18
-17 15 -17 17 -2 35 25 27 34 22 34 -17z m128 -47 c5 -27 6 -48 1 -48 -9 0
-15 19 -25 75 -9 57 11 33 24 -27z m22 -123 c14 -19 14 -19 -2 -6 -10 7 -18
18 -18 24 0 6 1 8 3 6 1 -2 9 -13 17 -24z m11777 -2131 c-3 -3 -12 -4 -19 -1
-8 3 -5 6 6 6 11 1 17 -2 13 -5z m-40 -10 c-3 -3 -12 -4 -19 -1 -8 3 -5 6 6 6
11 1 17 -2 13 -5z"/>
<path d="M5618 3855 c-3 -14 -1 -25 3 -25 5 0 9 11 9 25 0 14 -2 25 -4 25 -2
0 -6 -11 -8 -25z"/>
<path d="M932 2762 c-8 -5 5 -9 32 -9 25 0 43 4 40 9 -7 10 -55 10 -72 0z"/>
<path d="M311 2234 c0 -11 3 -14 6 -6 3 7 2 16 -1 19 -3 4 -6 -2 -5 -13z"/>
</g>
</svg>
