<?xml version="1.0" standalone="no"?>
<!DOCTYPE svg PUBLIC "-//W3C//DTD SVG 20010904//EN"
 "http://www.w3.org/TR/2001/REC-SVG-20010904/DTD/svg10.dtd">
<svg version="1.0" xmlns="http://www.w3.org/2000/svg"
 width="1280.000000pt" height="1155.000000pt" viewBox="0 0 1280.000000 1155.000000"
 preserveAspectRatio="xMidYMid meet">
<g transform="translate(0.000000,1155.000000) scale(0.100000,-0.100000)"
fill="#000000" stroke="none">
<path d="M6757 11364 c-78 -19 -203 -63 -312 -112 -106 -47 -395 -189 -411
-203 -6 -5 -42 -20 -80 -33 -160 -54 -202 -92 -280 -250 -86 -177 -73 -201
106 -192 118 6 259 36 465 98 115 35 154 42 220 42 68 0 370 -38 500 -62 l40
-7 -3 -50 c-10 -186 -14 -231 -23 -240 -5 -5 -9 -19 -9 -31 0 -13 -4 -26 -10
-29 -5 -3 -10 -17 -10 -30 0 -13 -4 -27 -10 -30 -5 -3 -10 -19 -10 -36 0 -16
-9 -38 -20 -49 -12 -12 -15 -20 -7 -20 6 0 -3 -8 -20 -16 -18 -9 -33 -22 -33
-29 0 -7 -13 -26 -30 -41 -16 -16 -42 -58 -57 -94 -31 -74 -69 -134 -107 -169
-14 -14 -26 -35 -26 -47 0 -13 -8 -25 -18 -29 -26 -8 -44 -49 -29 -64 8 -8 8
-11 -2 -11 -7 0 -10 -4 -7 -9 3 -5 -3 -11 -14 -14 -15 -4 -20 -14 -20 -40 0
-21 -7 -41 -20 -52 -12 -11 -20 -31 -20 -48 0 -17 -9 -40 -20 -53 -12 -11 -23
-39 -25 -60 -5 -57 -21 -113 -38 -132 -8 -9 -17 -35 -20 -57 -11 -76 -20 -110
-38 -140 -10 -16 -23 -39 -28 -50 -5 -12 -16 -27 -25 -34 -9 -7 -16 -19 -16
-25 0 -7 -20 -32 -45 -56 -25 -24 -45 -50 -45 -58 0 -8 -11 -23 -25 -34 -30
-24 -55 -68 -55 -99 0 -12 -3 -19 -7 -16 -9 9 -32 -24 -33 -47 0 -10 -11 -31
-25 -48 -14 -16 -25 -39 -25 -51 -1 -37 -32 -68 -76 -74 -36 -5 -44 -1 -79 31
-21 20 -42 36 -46 36 -5 0 -9 7 -9 15 0 8 -4 15 -8 15 -4 0 -12 15 -17 33 -6
17 -12 30 -15 27 -6 -6 -80 73 -80 85 0 12 -44 55 -57 55 -7 0 -13 10 -13 23
0 26 -53 83 -68 73 -6 -3 -12 1 -16 9 -3 8 -13 15 -21 15 -9 0 -13 4 -10 10 3
5 -3 15 -15 22 -17 11 -20 23 -20 75 0 52 -3 65 -20 75 -12 8 -20 24 -20 40 0
16 -5 28 -11 28 -5 0 -7 5 -4 10 4 6 -14 20 -39 31 -44 19 -51 27 -47 57 1 7
-12 19 -29 25 -22 8 -33 20 -37 39 -3 16 -9 28 -14 28 -5 0 -9 8 -9 18 0 11
-9 27 -20 37 -11 10 -20 24 -20 32 0 7 -11 23 -25 35 -17 15 -25 32 -25 55 0
18 -3 33 -7 33 -11 0 -33 50 -33 71 0 10 -4 21 -10 24 -6 4 -10 75 -10 180 l0
173 53 4 c79 7 395 -10 526 -27 192 -25 248 -19 301 30 15 14 58 31 110 45
160 40 299 126 274 168 -20 34 -123 73 -319 122 -110 27 -213 56 -228 63 -16
7 -70 62 -121 122 -130 155 -149 167 -283 176 -75 6 -130 16 -178 33 -74 27
-121 31 -195 17 -32 -7 -90 -3 -215 15 -93 13 -196 24 -227 24 -60 0 -139 -25
-218 -68 -121 -66 -440 -292 -440 -311 0 -4 -26 -20 -58 -33 -115 -51 -150
-96 -212 -278 -47 -140 -47 -183 0 -208 59 -31 211 4 420 95 140 62 182 65
374 24 171 -36 287 -46 404 -34 l82 9 0 -105 c0 -65 9 -162 24 -251 l24 -145
-24 -32 c-14 -18 -30 -33 -35 -33 -6 0 -7 -4 -4 -10 4 -6 -1 -7 -11 -3 -13 5
-15 3 -9 -7 7 -11 -11 -12 -96 -7 -116 7 -239 37 -382 93 -102 40 -231 64
-248 47 -8 -8 7 -23 49 -51 33 -23 62 -47 65 -55 6 -17 59 -31 391 -107 149
-34 285 -68 303 -75 23 -10 39 -26 50 -52 8 -21 28 -54 45 -73 47 -57 48 -58
48 -75 0 -9 6 -18 13 -21 7 -2 14 -17 15 -32 1 -15 12 -35 24 -46 13 -10 22
-24 20 -32 -1 -7 7 -18 18 -24 12 -7 20 -21 20 -37 0 -18 14 -40 45 -70 25
-23 45 -49 45 -57 0 -8 18 -29 40 -46 27 -21 40 -40 40 -56 0 -17 6 -24 20
-24 11 0 19 -3 19 -7 -4 -22 3 -33 21 -33 10 0 34 -18 51 -40 18 -22 43 -43
55 -46 13 -3 30 -21 39 -40 9 -19 25 -40 35 -46 17 -11 17 -13 -7 -25 -38 -19
-64 -16 -233 27 l-155 40 -103 109 c-56 61 -117 119 -135 129 -22 13 -60 22
-120 26 -48 4 -107 14 -130 22 -79 28 -124 34 -177 24 -37 -7 -82 -6 -168 6
-221 29 -245 31 -291 22 -25 -4 -82 -26 -126 -49 -83 -41 -324 -205 -385 -261
-19 -17 -57 -42 -85 -55 -56 -27 -109 -74 -131 -115 -26 -51 -77 -213 -78
-251 -1 -51 21 -67 95 -67 68 0 154 25 311 91 70 29 131 49 154 49 21 0 105
-14 188 -31 166 -34 249 -35 516 -9 69 7 164 10 212 7 80 -4 89 -7 112 -33 14
-16 26 -37 26 -46 0 -9 11 -34 25 -54 14 -20 22 -40 19 -45 -3 -5 2 -12 10
-15 10 -4 16 -19 16 -40 0 -27 4 -34 19 -34 15 0 21 -8 23 -32 3 -30 -1 -34
-52 -60 -72 -36 -175 -131 -326 -300 -146 -164 -221 -263 -230 -301 -4 -19
-22 -38 -58 -61 -60 -39 -98 -80 -131 -147 -27 -51 -60 -166 -70 -239 -3 -25
-17 -92 -32 -149 -34 -139 -30 -222 12 -259 66 -56 210 -5 419 148 60 44 126
85 148 92 44 13 65 8 293 -73 147 -52 234 -57 385 -21 119 28 283 40 425 31
173 -10 194 -15 217 -55 11 -19 26 -34 33 -34 7 0 15 -9 18 -20 3 -13 14 -20
30 -20 22 0 29 -8 45 -52 12 -32 29 -58 42 -65 13 -6 44 -52 72 -104 27 -52
56 -97 64 -102 9 -5 14 -24 14 -52 0 -26 8 -59 20 -80 12 -21 20 -54 20 -80 0
-25 5 -45 10 -45 6 0 10 -9 10 -20 0 -11 4 -20 8 -20 5 0 15 -12 23 -27 13
-26 43 -71 97 -145 12 -17 22 -39 22 -49 0 -10 8 -23 19 -28 17 -10 37 -54 32
-74 -3 -14 26 -49 51 -62 13 -6 22 -17 21 -23 -2 -6 13 -40 32 -75 l35 -64 0
-203 c0 -112 -4 -217 -9 -234 -6 -17 -17 -56 -25 -86 -22 -83 -39 -124 -58
-138 -13 -9 -18 -27 -18 -57 0 -24 -4 -47 -10 -50 -5 -3 -10 -17 -10 -30 0
-24 -26 -88 -59 -142 -16 -25 -20 -53 -22 -138 -1 -58 -7 -108 -11 -111 -9 -6
-27 -45 -24 -54 2 -10 -93 -126 -144 -175 -29 -27 -55 -57 -58 -67 -4 -9 -45
-57 -92 -106 -47 -50 -101 -113 -120 -142 -40 -59 -90 -89 -158 -95 -104 -9
-282 -14 -278 -7 2 4 -8 8 -22 8 -15 1 -56 9 -91 18 -100 26 -266 35 -414 24
-78 -6 -537 -9 -1117 -8 -937 1 -1434 -8 -1540 -29 -25 -5 -72 -14 -105 -20
-33 -6 -150 -29 -260 -50 -272 -53 -413 -78 -520 -92 -49 -6 -137 -19 -195
-30 -58 -10 -132 -23 -164 -29 -111 -19 -717 -5 -776 17 -8 4 -18 6 -22 5 -4
-1 -23 5 -42 13 -79 33 -170 12 -226 -51 -68 -78 -9 -175 120 -198 176 -31
439 -53 765 -66 322 -12 496 -24 647 -47 106 -15 106 -16 96 -39 -6 -13 -20
-26 -31 -30 -16 -5 -17 -8 -6 -16 10 -6 7 -7 -10 -3 -13 4 -26 3 -30 -3 -10
-16 -123 -32 -224 -32 -71 0 -108 -6 -200 -34 -214 -66 -272 -86 -296 -102
-23 -16 -23 -18 -6 -31 15 -11 179 -13 902 -13 853 0 885 -1 922 -19 20 -11
98 -34 172 -52 231 -54 238 -57 234 -81 -3 -12 -15 -33 -27 -47 -19 -21 -19
-23 -3 -11 19 14 19 14 6 -3 -22 -28 -125 -71 -314 -131 -173 -55 -203 -73
-159 -91 9 -5 197 -11 417 -16 521 -9 699 -31 925 -112 93 -33 180 -53 430
-98 69 -13 117 -25 107 -27 -9 -2 -15 -8 -12 -12 3 -5 -6 -12 -20 -16 -14 -3
-22 -11 -18 -17 4 -6 -2 -8 -16 -4 -13 3 -20 3 -17 -1 4 -3 -26 -14 -66 -24
-275 -70 -384 -132 -358 -203 5 -14 20 -22 51 -27 24 -4 240 -5 479 -2 559 8
844 -12 949 -66 32 -16 38 -23 34 -44 -3 -13 -15 -35 -27 -48 -11 -12 -20 -26
-18 -30 1 -5 -1 -7 -5 -6 -5 1 -21 -5 -38 -14 -52 -28 -276 -96 -399 -123
-191 -41 -264 -61 -550 -155 -433 -142 -624 -192 -1031 -275 -298 -60 -517
-94 -854 -131 -235 -25 -330 -44 -393 -75 -41 -21 -56 -52 -37 -75 50 -60 355
-136 659 -164 69 -6 170 -18 225 -26 263 -40 391 -45 1190 -48 429 -1 957 -6
1173 -10 419 -8 534 -2 712 36 52 11 118 28 145 38 89 33 365 71 655 91 92 6
498 12 920 14 723 2 950 9 950 26 0 11 -80 57 -139 79 -53 21 -235 59 -401 86
-94 14 -124 25 -202 70 -25 14 -28 13 122 48 58 13 166 40 241 60 171 44 301
66 654 111 154 19 316 42 360 51 68 14 208 18 950 24 796 7 988 14 930 32 -21
7 -110 18 -365 44 -203 20 -367 55 -355 74 3 4 -2 10 -10 14 -8 3 -15 12 -15
21 0 8 -6 15 -12 16 -36 2 70 22 267 49 502 70 720 103 891 135 100 19 204 35
232 35 70 0 261 27 356 51 185 45 278 118 219 172 -30 27 -115 64 -185 81 -36
9 -86 27 -110 40 -51 28 -156 55 -378 96 -226 43 -375 92 -411 137 -12 14 -12
16 0 8 8 -5 5 5 -7 22 l-22 31 30 22 c50 36 148 75 330 134 205 65 294 106
372 169 31 26 85 59 120 75 158 71 185 151 83 241 -60 52 -201 114 -313 136
-18 4 -31 10 -28 13 4 3 -4 16 -16 29 l-21 23 33 42 c18 24 58 65 88 92 54 50
84 98 75 123 -8 22 -65 51 -143 74 -74 21 -88 22 -950 29 -942 8 -869 4 -1135
64 -304 69 -321 71 -655 70 -295 -1 -355 -5 -645 -44 -44 -6 -114 -15 -155
-20 -41 -5 -114 -14 -162 -20 -99 -13 -198 0 -198 25 0 8 -14 22 -31 30 -24
13 -28 19 -19 30 9 11 6 20 -14 40 -14 14 -26 36 -26 48 0 14 -18 41 -45 67
-24 24 -42 47 -39 51 3 5 -12 19 -33 33 -48 30 -103 84 -103 101 0 7 -15 20
-33 29 -23 10 -40 29 -52 58 -10 24 -36 61 -57 83 -62 66 -88 102 -88 123 0
12 -4 24 -10 27 -5 3 -10 16 -10 29 0 13 -9 31 -20 41 -12 11 -20 31 -20 50 0
22 -10 40 -35 65 -19 19 -35 43 -35 55 0 27 -37 105 -50 105 -6 0 -10 75 -10
195 0 123 -4 195 -10 195 -5 0 -10 7 -10 15 0 8 -9 30 -20 50 -11 20 -20 45
-20 56 0 11 -7 22 -15 25 -8 4 -12 10 -9 15 8 13 -10 39 -37 52 -21 11 -24 21
-27 70 -2 31 -7 57 -12 57 -6 0 -10 34 -10 76 0 77 -16 154 -32 154 -4 0 -8
29 -8 65 0 36 4 65 9 65 5 0 11 8 14 19 6 23 72 33 200 30 77 -1 91 1 111 20
20 19 34 21 149 21 116 0 127 2 137 20 6 11 19 20 29 20 55 0 194 157 273 307
54 103 98 222 98 264 0 16 5 29 10 29 6 0 10 18 10 40 0 22 5 49 10 60 6 11
15 29 20 40 6 11 10 46 10 78 0 46 4 63 20 77 16 14 20 31 20 75 0 47 4 60 25
80 13 12 22 26 20 30 -3 4 2 13 10 20 9 8 15 30 15 56 0 38 4 46 25 54 19 7
26 19 31 51 10 61 27 66 197 49 289 -27 365 -25 538 12 218 47 255 45 404 -19
171 -73 239 -94 327 -100 142 -10 155 22 88 219 -56 167 -97 221 -202 267 -24
10 -61 36 -84 57 -51 49 -287 213 -396 277 -122 70 -199 91 -307 83 -47 -3
-140 -16 -205 -28 -104 -19 -128 -20 -190 -10 -76 13 -106 8 -208 -28 -39 -13
-83 -20 -133 -20 -122 0 -155 -21 -309 -192 -99 -111 -83 -103 -374 -179 -269
-71 -322 -106 -254 -172 36 -35 160 -90 252 -113 47 -12 87 -28 107 -46 58
-48 96 -52 288 -29 94 12 192 21 217 21 41 0 46 -3 51 -26 5 -27 -11 -94 -23
-94 -4 0 -10 -12 -13 -27 -3 -16 -33 -69 -66 -120 -72 -110 -95 -153 -112
-213 -7 -25 -16 -49 -21 -55 -4 -5 -8 -19 -8 -31 0 -12 -7 -37 -15 -57 -8 -19
-11 -37 -8 -41 3 -3 0 -14 -9 -23 -8 -10 -25 -52 -38 -93 -13 -41 -27 -79 -32
-85 -4 -5 -8 -26 -8 -47 0 -21 -3 -38 -8 -38 -4 0 -15 -18 -25 -40 -9 -22 -19
-40 -23 -40 -3 0 -2 6 2 13 4 6 -4 1 -19 -12 -42 -38 -122 -51 -324 -51 -124
0 -183 3 -183 11 0 6 -13 9 -28 8 -27 -3 -96 23 -117 45 -6 6 -14 19 -18 29
-3 9 -16 17 -27 17 -13 0 -20 7 -20 20 0 11 -7 20 -16 20 -8 0 -20 14 -25 30
-6 17 -15 30 -20 30 -5 0 -15 16 -23 35 -8 19 -20 35 -25 35 -6 0 -11 7 -11
15 0 9 -6 18 -13 21 -8 3 -20 20 -27 39 -13 32 -21 40 -42 36 -5 0 -8 7 -8 17
0 10 -12 29 -26 43 -14 13 -35 42 -46 64 -42 85 -54 103 -85 130 -20 16 -33
36 -33 50 0 13 -4 27 -10 30 -5 3 -10 19 -10 35 0 16 -4 32 -10 35 -17 10 -11
45 11 68 49 51 79 106 79 143 0 31 -8 45 -50 87 -40 40 -50 57 -50 83 0 18 5
36 10 39 6 3 10 24 10 46 0 28 6 42 20 51 11 7 20 20 20 28 0 8 15 22 33 30
20 9 50 42 80 85 26 38 54 73 62 78 8 4 15 14 15 20 0 7 25 37 56 67 31 30 66
71 79 90 12 19 34 48 49 63 14 15 26 36 26 46 0 10 11 28 25 41 15 14 25 35
25 52 0 15 4 28 9 28 5 0 11 14 15 30 3 17 9 43 12 59 3 17 15 38 25 47 10 9
19 24 19 33 0 9 9 23 20 31 11 8 20 19 20 25 0 15 70 82 111 105 19 11 59 32
89 47 30 15 80 41 110 58 57 31 109 50 170 60 19 3 58 10 85 16 28 6 70 12 95
15 25 3 54 9 65 14 11 5 65 12 120 14 187 10 250 17 267 33 9 8 21 12 26 9 5
-3 18 4 28 15 10 11 24 17 31 15 7 -3 38 8 69 24 36 20 71 30 98 30 30 0 48 6
61 20 16 17 31 20 115 20 88 0 98 2 118 23 16 17 30 22 52 19 24 -3 32 0 41
22 10 21 19 26 47 26 37 0 37 2 17 67 -7 22 -6 22 84 16 89 -6 93 -5 119 20
18 17 34 24 47 21 11 -3 46 6 78 20 32 15 70 26 85 26 16 0 32 4 38 8 5 5 79
0 164 -10 237 -29 345 -19 727 68 237 53 281 49 518 -56 253 -112 418 -160
550 -160 61 0 87 5 111 19 64 39 66 124 4 261 -16 36 -39 102 -51 147 -22 88
-70 176 -122 231 -40 42 -126 94 -196 118 -41 14 -59 28 -77 55 -54 86 -596
450 -806 541 -165 71 -226 72 -637 7 -195 -31 -207 -32 -275 -18 -117 23 -187
17 -301 -26 -96 -37 -107 -39 -275 -47 -203 -10 -221 -10 -229 -2 -3 3 -7 52
-9 110 l-4 104 69 0 c38 0 123 7 188 15 169 21 210 19 348 -16 146 -37 272
-48 301 -26 20 14 19 16 -12 79 -40 81 -51 91 -153 134 -433 182 -457 189
-659 178 -85 -4 -190 -7 -232 -5 -43 1 -101 -2 -130 -8 -29 -6 -97 -15 -150
-19 -90 -9 -102 -12 -168 -53 -130 -80 -149 -88 -287 -109 -165 -24 -265 -49
-260 -64 6 -18 109 -54 188 -66 41 -7 87 -19 103 -27 34 -19 87 -19 351 -4
207 13 404 6 386 -12 -5 -5 -7 -15 -4 -22 2 -8 -4 -18 -15 -24 -17 -9 -19 -26
-25 -191 l-5 -180 -72 -101 c-83 -114 -122 -156 -159 -171 -14 -5 -84 -25
-156 -43 -358 -93 -417 -108 -500 -132 -143 -41 -205 -80 -205 -130 0 -76 219
-193 477 -254 74 -18 95 -27 131 -61 58 -53 92 -66 200 -74 82 -6 91 -9 94
-28 6 -34 -32 -97 -64 -108 -15 -5 -28 -14 -28 -18 0 -9 -135 -36 -160 -32 -8
1 -24 -3 -35 -8 -11 -5 -69 -11 -130 -14 -133 -6 -185 -14 -206 -32 -9 -8 -18
-12 -20 -9 -3 2 -30 -4 -60 -16 -30 -11 -65 -22 -79 -24 -78 -14 -127 -29
-146 -46 -11 -10 -23 -19 -27 -19 -10 0 -121 -91 -125 -102 -2 -4 -8 -6 -13
-2 -5 3 -9 0 -9 -5 0 -6 -7 -11 -15 -11 -8 0 -22 -11 -31 -25 -9 -14 -21 -25
-28 -25 -6 0 -19 -14 -28 -30 -9 -17 -24 -30 -33 -30 -8 0 -15 -5 -15 -11 0
-6 -22 -36 -50 -66 -27 -30 -50 -60 -50 -66 0 -6 -10 -21 -21 -33 -13 -13 -23
-41 -26 -68 -3 -26 -13 -52 -24 -62 -11 -9 -19 -27 -19 -40 0 -13 -4 -26 -10
-29 -5 -3 -10 -17 -10 -31 0 -14 -4 -33 -9 -43 -6 -10 -11 -52 -12 -94 -1 -51
-6 -78 -15 -81 -7 -3 -14 -17 -16 -33 -2 -23 -13 -33 -57 -55 -61 -31 -114
-35 -166 -14 -18 8 -35 13 -37 11 -2 -2 -17 12 -33 31 -17 19 -42 48 -57 65
-16 17 -28 38 -28 48 0 10 -9 26 -20 36 -11 10 -20 29 -20 42 0 12 -4 23 -8
23 -7 0 -23 48 -36 112 -3 15 -12 33 -20 40 -7 8 -16 39 -20 71 -4 31 -12 59
-17 62 -5 4 -9 17 -9 30 0 13 -4 27 -10 30 -5 3 -10 17 -10 30 0 13 -4 27 -10
30 -5 3 -10 16 -10 28 0 12 -9 33 -20 47 -11 14 -20 31 -20 38 0 6 -4 12 -8
12 -5 0 -15 12 -23 28 -7 15 -28 43 -46 62 -24 24 -33 44 -33 67 0 18 -4 33
-10 33 -5 0 -10 16 -10 35 0 19 5 35 10 35 6 0 10 11 10 24 0 16 7 27 20 31
11 3 20 15 20 25 0 10 5 20 12 22 6 2 12 13 13 24 1 10 7 29 14 42 6 12 9 27
6 32 -3 5 6 17 20 26 15 10 25 26 25 40 0 13 14 52 30 86 17 34 30 67 30 74 0
7 3 14 8 16 16 7 41 66 36 85 -4 13 3 33 16 50 12 17 22 36 24 44 4 25 80 138
94 139 6 0 12 12 12 28 1 15 7 38 14 51 7 13 11 31 9 40 -2 10 5 20 19 26 17
7 24 20 26 46 2 21 12 45 23 54 10 10 19 25 19 34 0 34 61 142 86 151 13 5 24
16 24 23 0 8 9 22 20 32 11 10 25 36 32 57 6 21 15 38 20 38 4 0 8 15 9 33 0
17 3 26 6 20 16 -40 36 28 35 116 -1 35 4 51 27 77 16 18 31 30 34 27 10 -10
47 18 47 36 0 10 9 26 20 36 11 10 20 28 20 40 0 13 7 28 15 35 9 7 14 19 11
27 -3 8 2 13 14 13 22 0 55 54 46 76 -3 8 1 14 9 14 15 0 47 42 43 56 -2 8 17
46 59 118 7 11 13 31 13 42 0 12 7 27 16 35 8 7 13 21 11 30 -3 10 1 23 9 30
8 6 14 19 14 28 0 9 9 23 20 31 11 8 20 25 20 37 0 16 8 25 28 30 58 17 708 9
963 -11 269 -21 329 -17 384 26 18 14 56 25 118 34 188 28 379 97 385 140 6
43 -96 72 -496 139 -117 20 -223 40 -235 44 -12 5 -67 44 -123 88 -199 155
-238 173 -391 173 -77 0 -134 7 -216 26 -102 23 -124 25 -247 19 -102 -5 -186
-1 -345 14 -241 24 -317 25 -398 5z m2073 -2729 c0 -8 -11 -22 -25 -31 -14 -9
-23 -20 -20 -24 6 -10 -20 -21 -68 -26 -28 -4 -39 -1 -44 11 -5 13 -7 14 -14
3 -6 -9 -9 -3 -9 18 0 49 23 61 123 63 44 1 57 -2 57 -14z m-2982 -522 c12
-18 22 -41 22 -53 0 -11 5 -20 10 -20 6 0 10 -13 10 -28 0 -16 3 -32 7 -35 4
-4 16 -35 29 -70 46 -131 64 -171 89 -197 14 -14 25 -38 25 -52 0 -18 14 -38
48 -67 26 -22 56 -49 67 -59 11 -9 32 -24 48 -31 17 -10 27 -22 27 -37 0 -13
9 -28 20 -34 11 -6 20 -20 20 -30 0 -11 5 -20 10 -20 6 0 10 -8 10 -18 0 -11
9 -27 20 -37 12 -11 20 -31 20 -50 0 -18 11 -49 25 -69 14 -20 25 -46 25 -56
0 -11 3 -20 8 -20 9 0 32 -49 32 -70 0 -8 -9 -21 -20 -28 -16 -10 -26 -10 -53
2 -47 19 -61 39 -133 186 -72 148 -136 251 -183 295 -30 27 -40 30 -125 36
-85 5 -97 9 -161 47 -85 52 -122 60 -178 38 -57 -21 -76 -20 -182 9 -50 13
-125 30 -167 36 l-78 11 0 34 c0 22 -5 34 -14 34 -9 0 -14 12 -14 38 -1 54
-13 126 -23 137 -5 5 -9 18 -9 30 0 12 -4 25 -10 31 -6 6 20 7 78 2 195 -17
213 -15 254 20 22 18 62 36 116 50 100 26 185 66 226 107 l31 30 25 -30 c14
-16 35 -44 48 -62z"/>
</g>
</svg>
