<?xml version="1.0" standalone="no"?>
<!DOCTYPE svg PUBLIC "-//W3C//DTD SVG 20010904//EN"
 "http://www.w3.org/TR/2001/REC-SVG-20010904/DTD/svg10.dtd">
<svg version="1.0" xmlns="http://www.w3.org/2000/svg"
 width="1077.000000pt" height="1280.000000pt" viewBox="0 0 1077.000000 1280.000000"
 preserveAspectRatio="xMidYMid meet">
<g transform="translate(0.000000,1280.000000) scale(0.100000,-0.100000)"
fill="#000000" stroke="none">
<path d="M5830 11808 c-118 -26 -200 -52 -256 -82 l-61 -32 -37 33 c-20 19
-41 31 -46 28 -5 -3 -12 -21 -16 -40 -3 -19 -11 -35 -16 -35 -5 0 -6 9 -3 20
5 17 2 20 -21 20 -15 0 -36 8 -47 17 -18 17 -20 16 -48 -15 -16 -17 -36 -32
-44 -32 -8 0 -15 -7 -15 -15 0 -9 -6 -15 -12 -14 -36 4 -60 -3 -65 -19 -2 -10
-17 -23 -33 -30 -24 -11 -30 -21 -36 -58 -7 -47 -17 -53 -46 -27 -17 15 -20
15 -34 1 -12 -11 -27 -14 -56 -11 -35 5 -63 -2 -108 -28 -8 -5 -31 -17 -50
-28 -38 -21 -100 -81 -83 -81 5 0 18 9 28 20 38 42 189 96 156 56 -6 -7 -8
-22 -4 -31 3 -10 2 -16 -3 -13 -18 11 -56 -11 -50 -28 4 -10 -1 -22 -11 -30
-13 -9 -15 -16 -7 -24 9 -9 6 -18 -11 -36 -12 -13 -26 -24 -31 -24 -5 -1 -22
-12 -39 -25 -22 -19 -27 -27 -17 -34 10 -6 10 -10 -3 -21 -23 -19 -18 -38 14
-45 55 -12 50 -71 -10 -98 -41 -19 -50 -41 -23 -51 13 -5 14 -9 5 -20 -10 -11
-8 -16 5 -24 11 -6 13 -11 5 -16 -16 -10 -14 -36 3 -36 12 0 12 -5 3 -29 -9
-25 -8 -33 6 -49 15 -17 16 -19 0 -35 -16 -15 -15 -18 5 -40 14 -15 19 -30 16
-44 -5 -18 -1 -23 19 -28 16 -4 24 -12 21 -20 -3 -7 1 -24 10 -37 10 -16 12
-28 6 -38 -5 -8 -10 -25 -10 -37 0 -18 6 -23 25 -23 14 0 25 -5 25 -10 0 -10
40 -31 65 -35 6 0 18 -5 29 -10 13 -6 21 -3 28 8 7 14 12 15 29 4 17 -10 22
-9 33 6 8 10 24 16 37 15 18 -2 24 3 29 24 4 24 7 25 23 14 16 -13 17 -17 2
-62 -17 -51 -276 -586 -282 -580 -4 4 70 184 98 238 11 21 17 38 14 38 -7 0
-71 -131 -105 -214 -16 -41 -39 -121 -50 -178 -11 -57 -23 -114 -26 -126 -3
-15 -1 -21 6 -17 12 8 12 9 0 -54 -5 -28 -6 -60 -2 -72 5 -12 3 -58 -4 -103
-6 -44 -15 -119 -19 -166 -4 -47 -17 -132 -30 -190 -36 -156 -53 -277 -65
-449 -13 -182 -19 -218 -70 -376 -46 -144 -100 -462 -112 -655 -3 -43 -5 -45
-33 -45 -26 0 -37 11 -95 97 -36 54 -73 105 -82 115 -17 16 -18 15 -18 -19 0
-52 47 -354 65 -413 11 -40 14 -111 13 -345 -1 -363 0 -461 7 -468 2 -3 14 7
26 21 23 31 79 39 79 12 0 -65 -26 -222 -50 -301 -23 -76 -27 -102 -19 -123
16 -39 38 -60 75 -67 20 -4 54 -25 86 -55 29 -27 60 -49 69 -49 23 0 101 64
122 100 11 17 21 29 23 27 3 -2 -4 -62 -15 -133 -11 -71 -26 -216 -32 -323
-17 -276 -2 -512 67 -1031 14 -107 32 -226 41 -265 33 -148 45 -462 24 -630
-10 -81 -11 -146 -5 -250 5 -77 7 -183 6 -236 -2 -82 0 -99 17 -120 29 -38 28
-68 -7 -139 -60 -122 -50 -175 35 -187 l42 -6 -5 -56 c-5 -42 -1 -71 14 -116
23 -65 30 -124 19 -142 -4 -7 0 -16 9 -21 17 -9 17 -15 12 -209 -2 -50 -7 -74
-16 -78 -7 -3 -10 -10 -7 -15 4 -6 0 -22 -9 -35 -9 -13 -16 -36 -16 -50 0 -39
-17 -63 -60 -85 -24 -12 -52 -39 -71 -68 -24 -38 -44 -54 -86 -73 -36 -16 -56
-31 -59 -46 -3 -12 -25 -34 -47 -49 -101 -66 -156 -116 -203 -185 -45 -67 -49
-78 -49 -132 0 -55 2 -61 36 -92 46 -41 123 -59 231 -53 68 4 90 11 175 53 81
40 111 62 173 125 69 70 79 77 117 78 53 2 229 82 236 108 3 11 8 37 11 59 4
22 16 71 28 109 19 63 20 75 10 160 -7 50 -11 161 -11 246 1 216 0 242 -11
255 -12 14 12 232 29 264 7 12 14 63 16 114 4 112 20 185 46 213 16 17 19 29
14 57 -4 21 -3 37 4 42 6 3 20 23 30 43 15 31 19 63 20 190 2 167 -13 287 -55
441 l-25 94 18 71 c14 55 17 102 16 211 -3 152 18 424 42 539 8 39 38 146 66
239 45 146 56 169 78 180 53 25 89 145 60 199 -10 18 -8 24 12 39 13 10 38 19
55 19 29 0 84 40 84 61 0 4 20 20 45 34 77 46 78 43 100 -183 23 -229 25 -374
7 -562 -7 -74 -16 -211 -22 -305 -5 -93 -16 -203 -25 -243 -21 -104 -19 -181
11 -323 39 -182 40 -219 5 -422 -31 -178 -55 -416 -44 -443 3 -8 1 -20 -4 -27
-21 -26 -21 -46 -3 -70 27 -34 44 -115 29 -133 -9 -12 -9 -17 3 -27 20 -15 45
-344 28 -361 -13 -13 -13 -91 0 -136 6 -19 15 -91 19 -160 7 -108 6 -128 -8
-143 -14 -17 -14 -20 3 -32 15 -11 17 -22 12 -62 -4 -26 -8 -75 -10 -108 -3
-52 -45 -219 -62 -246 -3 -5 0 -31 7 -57 16 -63 -9 -276 -39 -342 -12 -25 -23
-68 -26 -96 -2 -29 -15 -71 -27 -95 -19 -37 -23 -65 -27 -172 l-4 -128 41 -39
c33 -32 54 -41 117 -56 66 -14 87 -15 143 -5 35 7 88 23 117 37 61 29 139 94
159 135 22 42 18 123 -11 219 -14 47 -29 114 -34 150 -4 36 -16 85 -25 110
-23 60 -23 173 0 233 18 47 17 88 -1 224 -4 28 0 57 11 87 14 37 15 49 5 60
-16 20 -4 74 22 103 15 16 17 25 9 40 -13 26 28 240 64 330 17 42 28 90 30
132 2 36 17 134 35 216 25 117 38 158 61 189 25 35 27 41 15 65 -11 22 -10 39
10 121 61 250 68 458 23 675 -32 157 -35 284 -10 460 46 316 72 441 141 670
88 294 144 519 210 846 l11 56 67 26 c37 14 86 31 109 38 57 16 84 47 90 103
3 25 11 49 17 54 6 5 97 39 201 75 128 45 203 67 230 66 22 -1 50 3 62 9 12 7
30 12 41 12 11 0 30 8 43 19 13 10 78 35 144 56 66 20 188 59 272 87 84 27
156 47 161 44 15 -9 116 26 142 49 33 31 341 130 393 127 25 -2 55 6 85 22 71
37 364 128 386 120 7 -3 34 4 59 15 29 13 58 18 75 15 21 -4 36 1 60 21 18 15
32 33 32 40 0 7 18 29 41 48 l41 35 -49 8 c-26 4 -63 15 -81 24 -36 20 -67 16
-97 -11 -11 -9 -38 -21 -60 -24 -22 -4 -53 -15 -70 -25 -47 -27 -334 -117
-394 -124 -33 -3 -62 -13 -75 -25 -12 -10 -68 -33 -126 -51 -58 -17 -131 -40
-163 -51 -31 -10 -78 -19 -105 -19 -44 0 -125 -22 -147 -40 -5 -4 -57 -22
-115 -40 -58 -17 -170 -52 -249 -77 -79 -25 -169 -49 -200 -53 -86 -13 -131
-26 -154 -48 -29 -27 -49 -34 -228 -81 l-151 -40 6 32 c4 18 9 48 12 67 7 45
45 67 69 41 8 -10 15 -25 15 -34 0 -9 4 -18 8 -21 10 -6 55 180 76 314 8 52
22 172 31 265 23 245 42 388 76 579 16 93 28 171 26 173 -3 2 -45 -37 -95 -86
l-91 -89 -5 41 c-3 23 -8 92 -11 152 -14 256 -26 404 -41 489 -15 84 -36 570
-26 604 3 7 21 12 43 12 21 0 39 5 39 10 0 6 -19 10 -42 10 -51 1 -35 14 30
25 23 4 42 12 42 18 0 15 92 78 116 80 26 3 43 -52 43 -135 1 -59 3 -68 20
-68 12 0 21 11 28 33 l10 32 11 -35 c5 -19 11 -27 11 -17 1 9 3 17 6 17 11 0
42 -35 49 -54 9 -25 22 -12 34 34 l9 35 8 -28 c5 -18 12 -26 21 -23 8 3 14 0
14 -6 0 -7 4 -7 14 1 11 9 15 9 20 -1 3 -7 4 22 2 65 -3 84 9 104 20 31 4 -27
10 -41 14 -34 5 8 11 3 18 -16 l10 -29 1 30 c1 17 -6 58 -14 90 -27 106 -55
164 -98 200 -38 33 -39 35 -16 35 33 0 52 -16 78 -65 17 -31 21 -34 17 -13 -3
14 -8 34 -12 45 -3 10 1 7 10 -7 11 -17 15 -20 16 -9 0 29 -39 68 -76 75 -21
4 -52 1 -73 -6 -33 -10 -43 -9 -96 15 -33 14 -71 36 -84 48 -43 40 -77 133
-95 262 -9 66 -19 135 -22 153 l-5 33 48 -5 c31 -4 41 -3 28 3 -18 7 -16 10
19 25 21 9 44 16 51 16 7 0 18 6 24 14 7 8 25 17 40 21 15 3 28 12 28 21 0 11
-9 13 -36 9 -26 -4 -20 0 24 16 67 24 112 57 63 45 -16 -3 -28 -2 -28 3 0 4
-23 9 -51 10 -61 1 -220 53 -234 77 -5 9 -24 38 -42 63 -17 25 -49 75 -70 111
-23 40 -67 93 -114 136 -62 58 -92 77 -151 99 -91 34 -115 59 -219 230 -53 86
-95 175 -83 175 3 0 15 -21 27 -47 14 -32 22 -42 25 -31 3 15 -9 55 -43 139
-8 21 30 32 56 16 16 -10 21 -9 28 1 7 12 14 11 39 -2 53 -27 132 -56 132 -48
0 5 -32 24 -71 42 -67 33 -104 60 -81 60 6 0 12 -5 14 -11 3 -9 9 -9 24 -1 16
8 24 8 33 -1 17 -17 131 -18 131 -1 0 10 9 12 30 8 23 -5 31 -2 36 12 3 11 10
27 15 37 5 10 7 22 4 26 -3 5 2 11 10 15 19 7 19 39 0 75 -13 26 -13 30 0 41
13 10 18 5 35 -34 12 -25 26 -46 31 -46 11 0 7 16 -22 95 -32 84 -8 80 79 -13
69 -73 102 -97 102 -74 0 4 -36 43 -80 87 -44 44 -80 84 -80 89 0 5 -7 14 -16
21 -15 11 -15 14 1 38 22 34 13 47 -36 47 -28 0 -39 4 -39 15 0 8 9 15 20 15
25 0 25 10 1 54 l-20 34 22 16 c22 15 22 16 3 31 -11 8 -30 15 -43 15 -13 0
-23 6 -23 14 0 25 -23 36 -44 20 -14 -10 -23 -11 -33 -3 -9 9 -17 8 -28 -1
-21 -17 -31 -5 -14 16 8 10 12 19 11 22 -2 3 11 13 30 22 23 11 33 22 32 38 0
12 4 22 9 22 20 0 78 -43 111 -81 20 -24 37 -36 41 -30 3 6 -20 37 -52 69 -32
31 -58 61 -58 67 0 5 -21 16 -47 25 -27 8 -48 21 -48 28 0 6 -7 12 -15 12 -18
0 -19 12 -4 27 15 15 3 33 -23 33 -12 0 -22 8 -25 21 -5 18 -12 20 -55 17 -38
-2 -47 0 -43 11 3 7 1 19 -5 26 -8 10 -8 19 2 34 21 34 -1 45 -52 27 -40 -14
-45 -13 -57 2 -13 16 -15 15 -29 -5 -9 -13 -25 -23 -35 -23 -10 0 -22 -6 -26
-14 -9 -14 -53 -32 -53 -21 0 4 9 24 19 44 20 36 54 171 46 180 -9 8 -17 -7
-26 -49 -11 -49 -59 -160 -70 -160 -11 0 -16 57 -7 75 7 11 3 17 -15 24 -13 5
-27 19 -30 32 -5 20 -10 21 -62 16 -43 -4 -57 -2 -62 9 -3 8 -16 14 -29 14
-13 0 -28 9 -34 21 -9 16 -17 19 -38 14 -15 -4 -34 -13 -43 -21 -8 -8 -30 -14
-48 -14 -30 0 -33 -2 -29 -25 3 -14 1 -25 -3 -25 -5 0 -9 4 -9 9 0 5 -13 14
-29 21 -16 6 -32 18 -35 27 -4 9 -13 12 -25 8 -11 -3 -39 -1 -61 5 -23 6 -47
13 -53 14 -7 2 -32 -1 -57 -6z m775 -400 c30 -26 35 -36 30 -57 -8 -32 -13
-37 -46 -44 -23 -6 -29 -1 -62 63 l-36 70 39 0 c30 0 48 -8 75 -32z m-1440
-107 c-13 -27 -33 -52 -44 -56 -11 -3 -31 -19 -44 -35 -27 -32 -37 -30 -37 8
0 36 46 91 94 113 22 10 44 19 49 19 4 0 -4 -22 -18 -49z m1480 -71 c-34 -36
-51 -38 -58 -8 -8 27 7 38 52 38 l35 0 -29 -30z m95 -18 c0 -28 -32 -52 -58
-45 -15 3 -24 0 -28 -11 -3 -9 -13 -16 -21 -16 -13 0 -13 2 -2 17 18 21 89 73
101 73 4 0 8 -8 8 -18z m-1690 -88 c0 -17 -53 -93 -62 -88 -9 6 -3 68 8 86 6
9 54 11 54 2z m1705 -23 c-3 -6 -11 -11 -17 -11 -6 0 -6 6 2 15 14 17 26 13
15 -4z m-1935 -1 c0 -5 -6 -10 -14 -10 -8 0 -18 5 -21 10 -3 6 3 10 14 10 12
0 21 -4 21 -10z m355 -91 c6 -19 0 -38 -9 -28 -10 12 -16 49 -7 49 5 0 13 -9
16 -21z m1585 -8 c0 -31 -24 -43 -39 -19 -11 17 -10 22 1 29 22 14 38 10 38
-10z m-1715 -88 c-7 -17 -8 -17 -15 2 -9 24 -2 41 12 27 6 -6 7 -19 3 -29z
m1651 -260 c18 -24 17 -33 -1 -33 -8 0 -15 4 -15 9 0 5 -3 16 -6 25 -8 21 6
20 22 -1z m128 -443 c39 -54 41 -60 26 -60 -10 0 -70 87 -70 102 0 16 8 7 44
-42z m-65 10 c11 -24 11 -24 -3 -6 -9 11 -16 24 -16 30 0 12 5 7 19 -24z m981
-1393 c14 -17 18 -27 10 -23 -23 14 -60 49 -60 57 0 15 25 -2 50 -34z m30 8
c13 -14 21 -25 18 -25 -2 0 -15 11 -28 25 -13 14 -21 25 -18 25 2 0 15 -11 28
-25z m20 -74 c5 -11 9 -32 9 -48 l-2 -28 -4 30 c-3 17 -12 38 -20 48 -10 10
-11 17 -5 17 6 0 16 -9 22 -19z m-2701 -507 c3 -44 6 -171 6 -284 -1 -181 -3
-215 -23 -290 -23 -85 -74 -251 -79 -259 -2 -3 -17 5 -33 17 -33 25 -51 27
-68 10 -17 -17 -15 -48 5 -70 16 -18 15 -18 -17 -4 -19 8 -36 19 -38 25 -5 15
41 180 110 391 57 175 60 192 68 319 6 106 11 137 23 146 11 8 13 15 6 22 -6
6 -8 26 -3 48 11 61 35 22 43 -71z m1453 -103 c-15 -9 12 -63 53 -106 35 -38
99 -53 162 -39 l38 8 -35 4 c-19 2 -39 8 -44 13 -16 15 48 11 88 -6 l36 -15 0
-125 c0 -94 6 -154 25 -242 42 -205 85 -438 85 -466 0 -21 -6 -28 -27 -33 -16
-4 -32 -9 -38 -13 -5 -3 -18 -7 -27 -8 -10 -2 -22 -4 -28 -5 -14 -4 -63 121
-55 140 8 21 -4 52 -19 52 -7 0 -26 19 -41 41 -25 38 -26 46 -16 79 8 27 8 46
0 69 -12 34 -29 39 -53 15 -9 -8 -23 -14 -32 -12 -9 2 -48 65 -87 142 -69 133
-72 143 -76 219 -4 102 9 173 65 347 4 10 10 4 21 -19 12 -23 13 -35 5 -40z
m45 -53 c-3 -7 -5 -2 -5 12 0 14 2 19 5 13 2 -7 2 -19 0 -25z m43 -39 c0 -4
-7 -6 -15 -3 -8 4 -15 10 -15 15 0 4 7 6 15 3 8 -4 15 -10 15 -15z m35 -609
c3 -5 2 -10 -4 -10 -5 0 -13 5 -16 10 -3 6 -2 10 4 10 5 0 13 -4 16 -10z
m-1675 -90 c0 -19 -11 -26 -23 -14 -8 8 3 34 14 34 5 0 9 -9 9 -20z m-13 -52
c-3 -8 -6 -5 -6 6 -1 11 2 17 5 13 3 -3 4 -12 1 -19z m-97 -117 c0 -6 -5 -13
-11 -17 -17 -10 -6 -110 15 -132 16 -18 15 -29 -13 -198 -17 -99 -37 -242 -46
-319 -9 -77 -18 -147 -21 -155 -3 -9 -12 5 -22 35 -10 28 -30 68 -44 89 -30
44 -24 66 18 66 30 0 32 5 49 102 20 109 19 119 -6 86 -33 -45 -43 -35 -36 35
6 65 70 356 87 395 9 22 30 31 30 13z m2040 -263 c0 -2 7 -57 15 -123 21 -169
19 -226 -5 -110 -10 50 -25 119 -35 154 -13 52 -14 66 -3 72 12 8 28 12 28 7z
m-2260 -727 c0 -12 -20 -25 -27 -18 -7 7 6 27 18 27 5 0 9 -4 9 -9z m1370 -78
c-4 -21 -17 -78 -28 -128 -11 -49 -26 -137 -33 -195 -11 -89 -17 -109 -39
-131 -14 -15 -31 -34 -39 -44 -11 -14 -25 -16 -72 -13 -32 2 -61 7 -65 10 -3
4 4 53 15 110 12 57 30 171 41 253 11 82 23 151 26 154 2 3 14 0 24 -7 31 -19
122 -13 143 9 27 29 35 23 27 -18z m-1152 -3256 c16 -109 16 -107 -15 -107
-33 0 -63 26 -63 55 0 27 46 135 58 135 4 0 13 -37 20 -83z m419 -699 c-2 -13
-4 -5 -4 17 -1 22 1 32 4 23 2 -10 2 -28 0 -40z m9 -75 c-10 -26 -18 -8 -9 23
5 21 8 24 11 11 2 -10 1 -25 -2 -34z"/>
</g>
</svg>
