<?xml version="1.0" encoding="UTF-8"?>
<!-- Created with Inkscape (http://www.inkscape.org/) -->
<svg width="800" height="85" version="1.1" viewBox="0 0 211.67 22.49" xmlns="http://www.w3.org/2000/svg">
	<defs>
		<filter id="t13nea" x="-.25" y="-.25" width="1.5" height="1.5" color-interpolation-filters="sRGB">
			<feColorMatrix values="1 0 0 0 0 0 1 0 0 0 0 0 1 0 0 0 0 0 1 1 "/>
			<feColorMatrix result="result1" type="saturate" values="0"/>
			<feFlood flood-color="rgb(9,111,151)" result="result2"/>
			<feColorMatrix result="result3" type="hueRotate" values="0"/>
			<feBlend in2="result1" mode="screen" result="result2"/>
			<feBlend in2="result2" mode="multiply" result="result4"/>
			<feTurbulence baseFrequency="0.035" numOctaves="5" result="result7" type="fractalNoise"/>
			<feColorMatrix result="result0" values="1 0 0 0 0 0 1 0 0 0 0 0 1 0 0 0 0 0 3 -1 "/>
			<feFlood flood-color="rgb(200,57,93)" result="result1"/>
			<feBlend in="result1" in2="result4" mode="lighten" result="result5"/>
			<feComposite in2="result0" operator="out" result="result6"/>
			<feComposite in2="result4" operator="atop" result="result8"/>
			<feComposite in2="SourceGraphic" operator="in" result="fbSourceGraphic"/>
			<feColorMatrix in="fbSourceGraphic" result="fbSourceGraphicAlpha" values="0 0 0 -1 0 0 0 0 -1 0 0 0 0 -1 0 0 0 0 1 0"/>
			<feGaussianBlur in="fbSourceGraphic" result="result0" stdDeviation="6"/>
			<feDiffuseLighting lighting-color="rgb(255,255,255)" result="result5" surfaceScale="4">
				<feDistantLight azimuth="235" elevation="45"/>
			</feDiffuseLighting>
			<feComposite in="result5" in2="fbSourceGraphic" k1="1.4" operator="arithmetic" result="fbSourceGraphic"/>
			<feGaussianBlur in="fbSourceGraphic" result="result0" stdDeviation="6"/>
			<feSpecularLighting lighting-color="rgb(255,255,255)" in="result0" result="result1" specularExponent="25" surfaceScale="4">
				<feDistantLight azimuth="235" elevation="45"/>
			</feSpecularLighting>
			<feComposite in="fbSourceGraphic" in2="result1" k2="1" k3="1" operator="arithmetic" result="result4"/>
			<feComposite in="result4" in2="fbSourceGraphic" operator="in" result="fbSourceGraphic"/>
			<feColorMatrix in="fbSourceGraphic" result="fbSourceGraphicAlpha" values="0 0 0 -1 0 0 0 0 -1 0 0 0 0 -1 0 0 0 0 1 0"/>
			<feGaussianBlur in="fbSourceGraphic" result="result8" stdDeviation="5"/>
			<feTurbulence baseFrequency="0.03" numOctaves="2" result="result7" seed="25"/>
			<feComposite in="result8" in2="result8" operator="in" result="result6"/>
			<feDisplacementMap in="result7" in2="result6" result="result4" scale="120"/>
			<feComposite in="fbSourceGraphic" in2="result4" k1="2" k2="0.25" k3="2.5" operator="arithmetic" result="result2"/>
			<feComposite in="result2" in2="fbSourceGraphic" operator="in" result="fbSourceGraphic"/>
			<feBlend in2="fbSourceGraphic" mode="screen" result="result91"/>
			<feBlend in2="result91" mode="multiply"/>
		</filter>
		<filter id="t13nec" color-interpolation-filters="sRGB">
			<feGaussianBlur result="fbSourceGraphic" stdDeviation="5"/>
			<feGaussianBlur in="SourceGraphic" result="result1" stdDeviation="0.01"/>
			<feComposite in="fbSourceGraphic" in2="result1" k2="0.5" k3="0.5" operator="arithmetic" result="result2"/>
			<feBlend in2="fbSourceGraphic" result="result3"/>
		</filter>
		<filter id="t13neb" x="-.15" y="-.15" width="1.3" height="1.3" color-interpolation-filters="sRGB">
			<feTurbulence baseFrequency="0.05" numOctaves="5" result="result91" type="fractalNoise"/>
			<feDisplacementMap in="SourceGraphic" in2="result91" result="result5" scale="25" xChannelSelector="R"/>
			<feComposite in="SourceGraphic" in2="result5" operator="atop" result="fbSourceGraphic"/>
			<feColorMatrix in="fbSourceGraphic" result="fbSourceGraphicAlpha" values="0 0 0 -1 0 0 0 0 -1 0 0 0 0 -1 0 0 0 0 1 0"/>
			<feGaussianBlur in="fbSourceGraphic" result="result1" stdDeviation="0.5"/>
			<feTurbulence baseFrequency="0.04" numOctaves="10" result="result0" type="fractalNoise"/>
			<feGaussianBlur result="result8" stdDeviation="1"/>
			<feDisplacementMap in="result1" in2="result0" result="result2" scale="20" xChannelSelector="R" yChannelSelector="B"/>
			<feComposite in="result2" in2="result8" operator="in" result="result7"/>
			<feComposite in="result2" in2="result7" k1="2" k2="0.15" operator="arithmetic" result="fbSourceGraphic"/>
			<feColorMatrix in="fbSourceGraphic" result="fbSourceGraphicAlpha" values="1 0 0 -1 0 1 0 1 -1 0 1 0 0 -1 0 -0.8 -1 0 3.7 -2.6 "/>
			<feGaussianBlur result="result9" stdDeviation="0.5"/>
			<feSpecularLighting result="result11" specularConstant="0.7" specularExponent="3" surfaceScale="10">
				<feDistantLight azimuth="235" elevation="55"/>
			</feSpecularLighting>
			<feDiffuseLighting lighting-color="rgb(255,255,255)" diffuseConstant="0.4" in="result9" result="result6" surfaceScale="50">
				<feDistantLight azimuth="235" elevation="10"/>
			</feDiffuseLighting>
			<feBlend in2="result11" mode="screen" result="result10"/>
			<feComposite in="result10" in2="fbSourceGraphic" operator="in" result="result2"/>
			<feComposite in2="fbSourceGraphic" k2="1" k3="0.9" operator="arithmetic"/>
		</filter>
		<filter id="t13nee" color-interpolation-filters="sRGB">
			<feGaussianBlur in="SourceGraphic" result="result6" stdDeviation="3"/>
			<feColorMatrix in="SourceGraphic" result="result7" values="1 0 0 0 0 0 1 0 0 0 0 0 1 0 0 0 0 0 1 0 "/>
			<feComposite in="result6" in2="result7" operator="in"/>
		</filter>
		<filter id="t13ned" color-interpolation-filters="sRGB">
			<feGaussianBlur in="SourceGraphic" result="result6" stdDeviation="3"/>
			<feColorMatrix in="SourceGraphic" result="result7" values="1 0 0 0 0 0 1 0 0 0 0 0 1 0 0 0 0 0 1 0 "/>
			<feComposite in="result6" in2="result7" operator="in"/>
		</filter>
	</defs>
	<g transform="translate(0 -274.51)">
		<path d="m15.038 280.81h1.8521v8.1492h-1.8521zm-0.37042-0.37042v-0.37042h2.5929v0.37042c-0.20474 3e-3 -0.36839 0.16485-0.37042 0.37042h-1.8521c-0.0063-0.21188-0.17628-0.36697-0.37042-0.37042zm0 8.8985c0.21331-3e-3 0.37411-0.18196 0.37042-0.37896h1.8521c0.0063 0.2076 0.17056 0.36554 0.37042 0.37042v0.37042h-2.5929zm2.2225-4.824h1.8521v0.74084h-1.8521zm2.0733 0.74129-0.22122-4.5e-4v-0.73757l0.2661-7e-3c0.28353 0.0215 0.44292-0.0893 0.48016-0.3669h0.365v1.4817h-0.36188c-0.05056-0.29485-0.25175-0.35504-0.52815-0.36996zm-3.9254-0.74129v0.74084h-1.8521v-0.74084zm-2.0733 0.74129c-0.2764 0.0149-0.47759 0.0751-0.52815 0.36996h-0.36188v-1.4817h0.365c0.03723 0.27757 0.19662 0.38839 0.48016 0.3669l0.2661 7e-3v0.73757zm7.6296-4.4454h1.8521v8.1492h-1.8521zm-0.37042-0.37042v-0.37042h2.5929v0.37042c-0.20474 3e-3 -0.36839 0.16485-0.37042 0.37042h-1.8521c-0.0063-0.21188-0.17628-0.36697-0.37042-0.37042zm0 8.8985c0.21331-3e-3 0.37411-0.18196 0.37042-0.37896h1.8521c0.0063 0.2076 0.17056 0.36554 0.37042 0.37042v0.37042h-2.5929zm6.494-0.37896v0.74084c-1.6619-2e-3 -2.8605-0.65368-3.3146-2.3375-0.04965-0.40811 0.05975-0.7867 0.53645-0.79983 0.30857 0.0165 0.54549 0.2217 0.54438 0.54438 0 0.18128-0.04289 0.28088-0.17605 0.40883-0.09884 0.095-0.09793 0.10546 0.02781 0.32035 0.68411 0.77126 1.3253 1.124 2.382 1.1229zm0-8.1492c-0.83832-5.5e-4 -1.8164 0.74144-1.8324 1.5924v1.0005c0.0061 0.19526 0.18569 0.38211 0.35076 0.37896v0.36188h-2.2225v-0.36188c0.17408 0.01 0.34532-0.18051 0.33139-0.37896v-1.8771c0.78769-1.0457 2.3472-1.4588 3.3728-1.4566zm-0.22122 4.4454c-0.2764 0.0149-0.47759 0.0751-0.52815 0.36996h-0.36188v-1.4817h0.365c0.03723 0.27757 0.19662 0.38839 0.48016 0.3669l0.2661 7e-3v0.73757zm2.1622 3.8674c-0.58003 0.39246-1.346 0.58409-1.941 0.57719 5.58e-4 -0.24904-7.59e-4 -0.4918 0-0.74084 1.5216-8e-5 2.2098-2.6657 2.2098-4.0746s-0.53168-4.0782-2.2098-4.0746v-0.74084c2.4875 7e-3 4.0424 2.4384 4.0632 4.8154 0.01181 1.3519-0.47673 2.6416-1.3883 3.6383 0.34167 0.47404 0.82732 0.72869 1.3997 0.80674v0.37042c-0.76264 0.0224-1.4601-0.25609-2.1336-0.57719zm0.28149-4.6086v0.74084h-2.2225v-0.74084zm12.827 4.5718c0.09701 0.16003 0.19191 0.24367 0.37742 0.24367h0.11911v0.37077l-2.2307-0.0106-2.6217-4.406 1.1111-1.5504zm0.12611-0.12675c-0.0061 0.20103 0.15726 0.37118 0.37042 0.37042h-2.2225v-4.445h1.8521zm0-8.1492v4.0746h-1.8521v-4.445h2.2225c-0.21316-7.6e-4 -0.37652 0.16939-0.37042 0.37042zm0.37042-0.37896c-0.21331 3e-3 -0.37411 0.18196-0.37042 0.37896h-1.8521c-0.0063-0.2076-0.17056-0.36554-0.37042-0.37042v-0.37042h2.5929zm-7.6526 0.25221c-0.09701-0.16003-0.19191-0.24367-0.37742-0.24367h-0.11911v-0.37077l2.2307 0.0106 2.6217 4.406-1.1111 1.5504zm-0.12611 0.12675c0.0061-0.20103-0.15726-0.37118-0.37042-0.37042h2.2225v4.445h-1.8521zm0 8.1492v-4.0746h1.8521v4.445h-2.2225c0.21316 7.6e-4 0.37652-0.16939 0.37042-0.37042zm-0.37042 0.37896c0.21331-3e-3 0.37411-0.18196 0.37042-0.37896h1.8521c0.0063 0.2076 0.17056 0.36554 0.37042 0.37042v0.37042h-2.5929zm13.697-1.1198h-1.4817v-2.9633h1.4817zm0 0.71592c6.05e-4 0.23173 0.16273 0.34364 0.37042 0.40387v0.36188h-1.8521v-0.24492c-0.34151 0.19696-0.72635 0.23193-1.1112 0.25097v-0.36909c0.62876-0.0706 1.0262-0.50891 1.1186-1.1186h1.4743zm-5.1775-2.1769c0.01622-1.4479 1.0102-2.9708 2.5846-2.984v0.36068c-0.76489-7e-3 -1.099 1.7664-1.101 2.6026-2e-3 0.83621 0.32435 2.5939 1.101 2.6027v0.36068c-1.5227 0-2.6008-1.4948-2.5846-2.9427zm5.1775-2.2182v0.71592h-1.4743c-0.09248-0.60972-0.48987-1.048-1.1186-1.1186v-0.3691c0.3849 0.0191 0.76974 0.054 1.1112 0.25098v-0.24492h1.8521v0.36188c-0.20769 0.0602-0.36981 0.17214-0.37042 0.40387zm1.1951 0.71592h1.4817v2.9633h-1.4817zm0-0.71592c-6.06e-4 -0.23173-0.16273-0.34364-0.37042-0.40387v-0.36188h1.8521v0.24492c0.34151-0.19697 0.72635-0.23193 1.1112-0.25098v0.3691c-0.62875 0.0706-1.0262 0.50891-1.1186 1.1186h-1.4743zm4.0539 0.69784c-0.36736-0.13922-0.41319-0.4805-0.20957-0.78055-0.39099-0.19155-0.81448-0.31208-1.2514-0.31262v-0.37649c0.68999 0.0193 1.3611 0.24648 1.8901 0.69233 0.18191 0.15332 0.18299 0.46463 0.01617 0.64821-0.09624 0.10591-0.32087 0.17628-0.44531 0.12912zm-2.2004 3.7266-1.8535 0.73556v-1.4807h1.4817c-8.6e-4 0.18997 0.17024 0.36853 0.37184 0.37933zm3.508-3.7085h1.4817v2.9633h-1.4817zm0-0.71592c-6.05e-4 -0.23173-0.16273-0.34364-0.37042-0.40387v-0.36188h1.8521v0.24492c0.34151-0.19697 0.72635-0.23193 1.1112-0.25098v0.3691c-0.62875 0.0706-1.0262 0.50891-1.1186 1.1186h-1.4743zm4.0539 0.69784c-0.36736-0.13922-0.41319-0.4805-0.20957-0.78055-0.39099-0.19155-0.81448-0.31208-1.2514-0.31262v-0.37649c0.68999 0.0193 1.3611 0.24648 1.8901 0.69233 0.18191 0.15332 0.18299 0.46463 0.01617 0.64821-0.09624 0.10591-0.32087 0.17628-0.44531 0.12912zm-2.2004 3.7266-1.8535 0.73556v-1.4807h1.4817c-8.61e-4 0.18997 0.17024 0.36853 0.37184 0.37933zm8.5429-0.74514h-1.4817v-2.9633h1.4817zm0 0.71592c6.05e-4 0.23173 0.16273 0.34364 0.37042 0.40387v0.36188h-1.8521v-0.24492c-0.34151 0.19696-0.72635 0.23193-1.1112 0.25097v-0.36909c0.62876-0.0706 1.0262-0.50891 1.1186-1.1186h1.4743zm-3.024-5.1373c0.09559-0.01 0.23168-0.0194 0.30242-0.0209l0.12862-3e-3v0.36131c-0.21076 0.031-0.42411 0.0588-0.58937 0.1929-0.21347 0.17322-0.38437 0.39225-0.45437 0.66979-0.09186 0.27683-0.08499 0.60852 0 0.88575 0.13619 0.41045 0.45094 0.77786 0.89767 0.83969l0.14607 0.023v0.36131h-0.0677c-0.57682 0.0335-1.0513 0.53346-1.0435 1.1112 0 0.57474 0.46083 1.082 1.0435 1.1112h0.0677v0.37042l-0.08746-1.7e-4c-0.14688-2.9e-4 -0.44783-0.0401-0.64308-0.0851-0.65-0.19355-1.5025-0.61929-1.4796-1.3964 0-0.47379 0.32073-0.84462 0.7108-1.0888 0.11294-0.0674 0.2346-0.12233 0.34694-0.18666-0.02915-0.0134-0.05667-0.0311-0.08746-0.0401-0.13309-0.039-0.44749-0.1919-0.60781-0.2956-0.40102-0.25942-0.74846-0.66909-0.73354-1.167 0-0.49417 0.31666-0.90368 0.72662-1.1622 0.38856-0.25058 0.91274-0.42771 1.4236-0.48105zm3.024 0.74213v0.71592h-1.4743c-0.09248-0.60972-0.48987-1.048-1.1186-1.1186v-0.3691c0.3849 0.0191 0.76974 0.054 1.1112 0.25098v-0.24492h1.8521v0.36188c-0.20769 0.0602-0.36981 0.17214-0.37042 0.40387zm3.5587-3.7291h1.8521v8.1492h-1.8521zm-0.37042-0.37042v-0.37042h2.5929v0.37042c-0.20474 3e-3 -0.36839 0.16485-0.37042 0.37042h-1.8521c-0.0063-0.21188-0.17628-0.36697-0.37042-0.37042zm0 8.8985c0.21331-3e-3 0.37411-0.18196 0.37042-0.37896h1.8521c0.0063 0.2076 0.17056 0.36554 0.37042 0.37042v0.37042h-2.5929zm2.2225-4.824h1.8521v0.74084h-1.8521zm2.0733 0.74129-0.22122-4.5e-4v-0.73757l0.2661-7e-3c0.28353 0.0215 0.44292-0.0893 0.48016-0.3669h0.365v1.4817h-0.36188c-0.05056-0.29485-0.25175-0.35504-0.52815-0.36996zm-3.9254-0.74129v0.74084h-1.8521v-0.74084zm-2.0733 0.74129c-0.2764 0.0149-0.47759 0.0751-0.52815 0.36996h-0.36188v-1.4817h0.365c0.03723 0.27757 0.19662 0.38839 0.48016 0.3669l0.2661 7e-3v0.73757zm9.1112 2.9629h-1.4817v-2.9633h1.4817zm-1.8292 0.16722c0.10668-0.0515 0.28748-0.0591 0.34754-0.16722h1.4817c0 0.16144 0.01506 0.27614-0.13969 0.36549-0.0702 0.0395-0.1128 0.0396-0.29526 0.0462-1.1697 0.0425-1.3407 1.3179-1.3446 2.1812-0.0039 0.86337 0.13547 2.2209 1.0527 2.2225v0.37041c-0.34256 4e-3 -0.66824 2e-3 -0.97849-0.11992-1.0265-0.40433-1.6805-1.3814-1.6696-2.473 0.01093-1.0916 0.5694-1.9543 1.5457-2.4257zm2.5493 3.555c0.12445-0.0472 0.34907 0.0232 0.44531 0.12911 0.16682 0.18358 0.16574 0.4949-0.01617 0.64821-0.52899 0.44585-1.2001 0.67304-1.8901 0.69234v-0.37649c0.43691-5.5e-4 0.8604-0.12108 1.2514-0.31262-0.20362-0.30005-0.1578-0.64134 0.20957-0.78055zm-2.1934-9.6606c2.66e-4 -0.39105 0.32776-0.71779 0.73675-0.7188 0.41104-1e-3 0.72956 0.32765 0.73015 0.7301 5.99e-4 0.4045-0.3095 0.72966-0.73449 0.73171-0.42704 2e-3 -0.73268-0.35195-0.73241-0.74301zm1.8451 2.2299v0.3658c-0.20161 0.0108-0.3727 0.18937-0.37184 0.37934h-1.4817v-1.4807zm1.4699 1.4861 0.0023-1.4715 1.8498 3.6733 2.2235-4.4264 0.36947 0.74439v1.4802l-1.8521 3.7041h-0.74074zm-0.78099-1.5377c-0.10158-0.19994-0.22059-0.29396-0.44718-0.31449h-0.06829v-0.37042h1.6669v0.37042h-0.15592c-0.1449 0-0.15952 5e-3 -0.21608 0.0602-0.10734 0.10484-0.04531 0.22798 0.0048 0.32418l-0.0023 1.4693zm4.8556-0.047h-0.2881c0.02392-0.28671-0.23793-0.26752-0.45273-0.26752v-0.37042h2.4077v0.3647c-0.18553 7e-3 -0.34944 0.0382-0.45314 0.20219l-0.84417 1.6556h-0.36957zm3.4022 5.2651c-0.51082-0.0533-1.035-0.23048-1.4236-0.48105-0.40996-0.25853-0.72662-0.66804-0.72662-1.1622-0.01491-0.49787 0.33252-0.90754 0.73355-1.167 0.16032-0.10371 0.47472-0.25661 0.60781-0.2956 0.03078-9e-3 0.05831-0.0268 0.08746-0.0401-0.11234-0.0643-0.234-0.11922-0.34694-0.18666-0.39007-0.24414-0.7108-0.61498-0.7108-1.0888-0.02294-0.77716 0.8296-1.2029 1.4796-1.3964 0.19526-0.045 0.4962-0.0848 0.64308-0.0851l0.08746-1.7e-4v0.37042h-0.0677c-0.58272 0.0292-1.0435 0.53651-1.0435 1.1112-0.0078 0.57778 0.46672 1.0778 1.0435 1.1112h0.0677v0.3613l-0.14607 0.023c-0.44673 0.0618-0.76148 0.42925-0.89767 0.8397-0.08499 0.27723-0.09186 0.60892 0 0.88575 0.07 0.27754 0.2409 0.49657 0.45437 0.66979 0.16526 0.1341 0.3786 0.16194 0.58937 0.1929v0.36131l-0.12862-3e-3c-0.07074-2e-3 -0.20683-0.0109-0.30242-0.0209zm0.43104-5.5383v-0.37081c0.50379 0.0396 0.99365 0.16548 1.3896 0.49895 0.25567 0.21353 0.25342 0.21208 0.30858 0.19824 0.12092-0.0608 0.14269-0.19784 0.15858-0.3207h0.36574v1.8521h-0.36405c-0.13029-1.0868-0.72563-1.7771-1.8585-1.8578zm0 5.1972c1.1328-0.0807 1.7282-0.77093 1.8585-1.8578h0.36405v1.8521h-0.36574c-0.0159-0.12286-0.03766-0.25986-0.15858-0.3207-0.05517-0.0138-0.05291-0.0153-0.30858 0.19824-0.39594 0.33347-0.8858 0.4594-1.3896 0.49895zm9.9901-0.3761c1.1311 0 2.4905-0.58468 2.5986-1.8521h0.36473v2.2225h-0.37042v-0.0898c0-0.15377-0.12437-0.25641-0.28334-0.23384-0.04223 6e-3 -0.16476 0.0645-0.27228 0.13005-0.63402 0.33812-1.3144 0.56079-2.0373 0.56404zm0-8.1492v-0.74084c1.6619 2e-3 2.8605 0.65368 3.3146 2.3375 0.04965 0.40811-0.05975 0.7867-0.53645 0.79983-0.30857-0.0165-0.54549-0.2217-0.54438-0.54438 0-0.18128 0.04289-0.28088 0.17605-0.40883 0.09884-0.095 0.09793-0.10546-0.02781-0.32035-0.68411-0.77126-1.3253-1.124-2.382-1.1229zm0.22122 4.4454-0.22122-4.5e-4v-0.73757l0.2661-7e-3c0.28353 0.0215 0.44292-0.0893 0.48016-0.3669h0.365v1.4817h-0.36188c-0.05056-0.29485-0.25175-0.35504-0.52815-0.36996zm-2.1622 3.8674c-0.67344 0.3211-1.3709 0.59959-2.1336 0.57719v-0.37042c0.57235-0.0781 1.058-0.3327 1.3997-0.80674-0.91157-0.9967-1.4001-2.2864-1.3883-3.6383 0.02076-2.377 1.5757-4.8087 4.0632-4.8154v0.74084c-1.6781-4e-3 -2.2098 2.6657-2.2098 4.0746s0.68816 4.0745 2.2098 4.0746c7.59e-4 0.24904-5.58e-4 0.4918 0 0.74084-0.59504 7e-3 -1.361-0.18473-1.941-0.57719zm1.7198-3.8674c-0.2764 0.0149-0.47759 0.0751-0.52815 0.36996h-0.36188v-1.4817h0.365c0.03723 0.27757 0.19662 0.38839 0.48016 0.3669l0.2661 7e-3v0.73757zm5.2264-4.5e-4h1.4817v2.9633h-1.4817zm0-0.71592c-6.1e-4 -0.23173-0.16273-0.34364-0.37042-0.40387v-0.36188h1.8521v0.24492c0.34151-0.19697 0.72635-0.23193 1.1112-0.25098v0.3691c-0.62875 0.0706-1.0262 0.50891-1.1186 1.1186h-1.4743zm3.6882 1.4524c-1e-3 -0.70546-0.28428-1.8502-1.0952-1.8533v-0.37029c1.4052 2e-3 2.5817 0.52156 2.5817 1.8884l0.013 2.562h-1.4806zm0.016 2.2268h1.4817c-6e-5 0.25922 0.20652 0.72954 0.58202 0.73675 0.22463-9e-3 0.28898-0.21278 0.42131-0.34575l0.3137 0.26314c-0.1917 0.5126-0.76189 0.80976-1.269 0.82832-0.92638 0.0339-1.527-0.71206-1.5297-1.4825zm-2.2225 0c-3e-3 0.7704-0.60332 1.5164-1.5297 1.4825-0.50712-0.0186-1.0773-0.31572-1.269-0.82832l0.3137-0.26314c0.13233 0.13297 0.19668 0.33694 0.42131 0.34575 0.3755-7e-3 0.58209-0.47753 0.58202-0.73675zm10.108-2.562v2.562h-1.4817v-2.7049c0-0.56796-0.41816-1.3784-1.1112-1.3696v-0.37042c1.3015 7e-3 2.586 0.38553 2.5929 1.883zm0 4.0437h-1.4817v-0.24492c-0.34151 0.19696-0.72635 0.23193-1.1112 0.25097v-0.36909c0.62858-0.0705 1.0262-0.50911 1.1186-1.1186h1.4743zm0 1.4817h-1.4817v-1.4817h1.4817zm-2.5929 2.2225v-0.37041c0.84234 1e-3 1.1104-1.1198 1.1112-1.8521h1.4817c-4e-3 1.3145-1.3257 2.2189-2.5929 2.2225zm0-0.36474v0.37082c-0.50379-0.0396-0.99365-0.16548-1.3896-0.49896-0.25567-0.21353-0.25341-0.21208-0.30858-0.19823-0.12092 0.0608-0.14269 0.19783-0.15859 0.3207h-0.36574v-1.8521h0.36405c0.13029 1.0868 0.72562 1.7771 1.8584 1.8578zm-2.5846-6.3234c-0.0162-1.4479 1.0619-2.9427 2.5846-2.9427v0.36068c-0.77661 9e-3 -1.103 1.7664-1.101 2.6026 2e-3 0.83621 0.33607 2.6095 1.101 2.6027v0.36068c-1.5744-0.0132-2.5684-1.5361-2.5846-2.984zm7.4 1.5023h-1.4817v-2.9633h1.4817zm-1.4817 1.1112v-1.1112h1.4817v1.1112h0.74083v0.37042h-2.5929v-0.37042zm0 1.8521v-1.4817h1.4817v1.4817zm1.8535 0.74514-1.8535 0.73556v-1.4807h1.4817c-8.6e-4 0.18997 0.17024 0.36853 0.37184 0.37934zm-0.38026-9.6469c2.6e-4 0.39106-0.30537 0.74506-0.73241 0.74301-0.42499-2e-3 -0.73509-0.32721-0.73449-0.73171 5.9e-4 -0.40245 0.31911-0.73111 0.73015-0.7301 0.40899 1e-3 0.73648 0.32775 0.73675 0.7188zm0.37884 1.8553c-0.14488 0.028-0.2616 0.0893-0.33139 0.223-0.0368 0.0705-0.0382 0.13928-0.0386 0.49036l-4.5e-4 0.40643h-1.4817l-4.5e-4 -0.40643c-3.9e-4 -0.35108-7e-3 -0.41734-0.0386-0.49036-0.0618-0.14223-0.19486-0.18648-0.33139-0.223v-0.36188h2.2225zm0.80359 1.1198h1.4817v2.9633h-1.4817zm0-0.71592c-6.1e-4 -0.23173-0.16273-0.34364-0.37042-0.40387v-0.36188h1.8521v0.24492c0.3415-0.19697 0.72634-0.23193 1.1112-0.25098v0.3691c-0.62876 0.0706-1.0262 0.50891-1.1186 1.1186h-1.4743zm3.6882 1.4524c-1e-3 -0.70546-0.28428-1.8502-1.0952-1.8533v-0.37029c1.4052 2e-3 2.5817 0.52156 2.5817 1.8884l0.013 2.562h-1.4806zm0.016 3.3381v-1.1112h1.4817v1.1112h0.74084v0.37042h-2.5929v-0.37042zm0 1.8521v-1.4817h1.4817v1.4817zm1.8535 0.74514-1.8535 0.73556v-1.4807h1.4817c-8.6e-4 0.18997 0.17024 0.36853 0.37185 0.37934zm-5.9281-2.5887c0.14488-0.028 0.2616-0.0893 0.3314-0.223 0.0368-0.0705 0.0382-0.13928 0.0386-0.49036l4.5e-4 -0.40643h1.4817l4.5e-4 0.40643c3.9e-4 0.35108 7e-3 0.41734 0.0386 0.49036 0.0618 0.14223 0.19486 0.18648 0.33139 0.223v0.36188h-2.2225zm6.2913-2.6221c-0.0162-1.4479 1.0619-2.9427 2.5846-2.9427v0.36068c-0.77661 9e-3 -1.103 1.7664-1.101 2.6026 2e-3 0.83621 0.33607 2.6095 1.101 2.6027v0.36068c-1.5744-0.0132-2.5684-1.5361-2.5846-2.984zm1.4733-0.34975h2.2142c-0.0778-0.75929-0.22383-2.0237-1.103-2.2322v-0.36068c1.6525 0.0228 2.496 1.465 2.5988 2.9633h-3.71zm2.5722 1.8702c0.12445-0.0472 0.34907 0.0232 0.44531 0.12911 0.16683 0.18359 0.16574 0.4949-0.0162 0.64822-0.52899 0.44584-1.2001 0.67304-1.8901 0.69233v-0.37649c0.43691-5.4e-4 0.8604-0.12107 1.2514-0.31262-0.20362-0.30005-0.15779-0.64134 0.20957-0.78055z" filter="url(#t13nec)"/>
	</g>
	<g transform="translate(0 -274.51)">
		<path d="m15.038 280.81h1.8521v8.1492h-1.8521zm-0.37042-0.37042v-0.37042h2.5929v0.37042c-0.20474 3e-3 -0.36839 0.16485-0.37042 0.37042h-1.8521c-0.0063-0.21188-0.17628-0.36697-0.37042-0.37042zm0 8.8985c0.21331-3e-3 0.37411-0.18196 0.37042-0.37896h1.8521c0.0063 0.2076 0.17056 0.36554 0.37042 0.37042v0.37042h-2.5929zm2.2225-4.824h1.8521v0.74084h-1.8521zm2.0733 0.74129-0.22122-4.5e-4v-0.73757l0.2661-7e-3c0.28353 0.0215 0.44292-0.0893 0.48016-0.3669h0.365v1.4817h-0.36188c-0.05056-0.29485-0.25175-0.35504-0.52815-0.36996zm-3.9254-0.74129v0.74084h-1.8521v-0.74084zm-2.0733 0.74129c-0.2764 0.0149-0.47759 0.0751-0.52815 0.36996h-0.36188v-1.4817h0.365c0.03723 0.27757 0.19662 0.38839 0.48016 0.3669l0.2661 7e-3v0.73757zm7.6296-4.4454h1.8521v8.1492h-1.8521zm-0.37042-0.37042v-0.37042h2.5929v0.37042c-0.20474 3e-3 -0.36839 0.16485-0.37042 0.37042h-1.8521c-0.0063-0.21188-0.17628-0.36697-0.37042-0.37042zm0 8.8985c0.21331-3e-3 0.37411-0.18196 0.37042-0.37896h1.8521c0.0063 0.2076 0.17056 0.36554 0.37042 0.37042v0.37042h-2.5929zm6.494-0.37896v0.74084c-1.6619-2e-3 -2.8605-0.65368-3.3146-2.3375-0.04965-0.40811 0.05975-0.7867 0.53645-0.79983 0.30857 0.0165 0.54549 0.2217 0.54438 0.54438 0 0.18128-0.04289 0.28088-0.17605 0.40883-0.09884 0.095-0.09793 0.10546 0.02781 0.32035 0.68411 0.77126 1.3253 1.124 2.382 1.1229zm0-8.1492c-0.83832-5.5e-4 -1.8164 0.74144-1.8324 1.5924v1.0005c0.0061 0.19526 0.18569 0.38211 0.35076 0.37896v0.36188h-2.2225v-0.36188c0.17408 0.01 0.34532-0.18051 0.33139-0.37896v-1.8771c0.78769-1.0457 2.3472-1.4588 3.3728-1.4566zm-0.22122 4.4454c-0.2764 0.0149-0.47759 0.0751-0.52815 0.36996h-0.36188v-1.4817h0.365c0.03723 0.27757 0.19662 0.38839 0.48016 0.3669l0.2661 7e-3v0.73757zm2.1622 3.8674c-0.58003 0.39246-1.346 0.58409-1.941 0.57719 5.58e-4 -0.24904-7.59e-4 -0.4918 0-0.74084 1.5216-8e-5 2.2098-2.6657 2.2098-4.0746s-0.53168-4.0782-2.2098-4.0746v-0.74084c2.4875 7e-3 4.0424 2.4384 4.0632 4.8154 0.01181 1.3519-0.47673 2.6416-1.3883 3.6383 0.34167 0.47404 0.82732 0.72869 1.3997 0.80674v0.37042c-0.76264 0.0224-1.4601-0.25609-2.1336-0.57719zm0.28149-4.6086v0.74084h-2.2225v-0.74084zm12.827 4.5718c0.09701 0.16003 0.19191 0.24367 0.37742 0.24367h0.11911v0.37077l-2.2307-0.0106-2.6217-4.406 1.1111-1.5504zm0.12611-0.12675c-0.0061 0.20103 0.15726 0.37118 0.37042 0.37042h-2.2225v-4.445h1.8521zm0-8.1492v4.0746h-1.8521v-4.445h2.2225c-0.21316-7.6e-4 -0.37652 0.16939-0.37042 0.37042zm0.37042-0.37896c-0.21331 3e-3 -0.37411 0.18196-0.37042 0.37896h-1.8521c-0.0063-0.2076-0.17056-0.36554-0.37042-0.37042v-0.37042h2.5929zm-7.6526 0.25221c-0.09701-0.16003-0.19191-0.24367-0.37742-0.24367h-0.11911v-0.37077l2.2307 0.0106 2.6217 4.406-1.1111 1.5504zm-0.12611 0.12675c0.0061-0.20103-0.15726-0.37118-0.37042-0.37042h2.2225v4.445h-1.8521zm0 8.1492v-4.0746h1.8521v4.445h-2.2225c0.21316 7.6e-4 0.37652-0.16939 0.37042-0.37042zm-0.37042 0.37896c0.21331-3e-3 0.37411-0.18196 0.37042-0.37896h1.8521c0.0063 0.2076 0.17056 0.36554 0.37042 0.37042v0.37042h-2.5929zm13.697-1.1198h-1.4817v-2.9633h1.4817zm0 0.71592c6.05e-4 0.23173 0.16273 0.34364 0.37042 0.40387v0.36188h-1.8521v-0.24492c-0.34151 0.19696-0.72635 0.23193-1.1112 0.25097v-0.36909c0.62876-0.0706 1.0262-0.50891 1.1186-1.1186h1.4743zm-5.1775-2.1769c0.01622-1.4479 1.0102-2.9708 2.5846-2.984v0.36068c-0.76489-7e-3 -1.099 1.7664-1.101 2.6026-2e-3 0.83621 0.32435 2.5939 1.101 2.6027v0.36068c-1.5227 0-2.6008-1.4948-2.5846-2.9427zm5.1775-2.2182v0.71592h-1.4743c-0.09248-0.60972-0.48987-1.048-1.1186-1.1186v-0.3691c0.3849 0.0191 0.76974 0.054 1.1112 0.25098v-0.24492h1.8521v0.36188c-0.20769 0.0602-0.36981 0.17214-0.37042 0.40387zm1.1951 0.71592h1.4817v2.9633h-1.4817zm0-0.71592c-6.06e-4 -0.23173-0.16273-0.34364-0.37042-0.40387v-0.36188h1.8521v0.24492c0.34151-0.19697 0.72635-0.23193 1.1112-0.25098v0.3691c-0.62875 0.0706-1.0262 0.50891-1.1186 1.1186h-1.4743zm4.0539 0.69784c-0.36736-0.13922-0.41319-0.4805-0.20957-0.78055-0.39099-0.19155-0.81448-0.31208-1.2514-0.31262v-0.37649c0.68999 0.0193 1.3611 0.24648 1.8901 0.69233 0.18191 0.15332 0.18299 0.46463 0.01617 0.64821-0.09624 0.10591-0.32087 0.17628-0.44531 0.12912zm-2.2004 3.7266-1.8535 0.73556v-1.4807h1.4817c-8.6e-4 0.18997 0.17024 0.36853 0.37184 0.37933zm3.508-3.7085h1.4817v2.9633h-1.4817zm0-0.71592c-6.05e-4 -0.23173-0.16273-0.34364-0.37042-0.40387v-0.36188h1.8521v0.24492c0.34151-0.19697 0.72635-0.23193 1.1112-0.25098v0.3691c-0.62875 0.0706-1.0262 0.50891-1.1186 1.1186h-1.4743zm4.0539 0.69784c-0.36736-0.13922-0.41319-0.4805-0.20957-0.78055-0.39099-0.19155-0.81448-0.31208-1.2514-0.31262v-0.37649c0.68999 0.0193 1.3611 0.24648 1.8901 0.69233 0.18191 0.15332 0.18299 0.46463 0.01617 0.64821-0.09624 0.10591-0.32087 0.17628-0.44531 0.12912zm-2.2004 3.7266-1.8535 0.73556v-1.4807h1.4817c-8.61e-4 0.18997 0.17024 0.36853 0.37184 0.37933zm8.5429-0.74514h-1.4817v-2.9633h1.4817zm0 0.71592c6.05e-4 0.23173 0.16273 0.34364 0.37042 0.40387v0.36188h-1.8521v-0.24492c-0.34151 0.19696-0.72635 0.23193-1.1112 0.25097v-0.36909c0.62876-0.0706 1.0262-0.50891 1.1186-1.1186h1.4743zm-3.024-5.1373c0.09559-0.01 0.23168-0.0194 0.30242-0.0209l0.12862-3e-3v0.36131c-0.21076 0.031-0.42411 0.0588-0.58937 0.1929-0.21347 0.17322-0.38437 0.39225-0.45437 0.66979-0.09186 0.27683-0.08499 0.60852 0 0.88575 0.13619 0.41045 0.45094 0.77786 0.89767 0.83969l0.14607 0.023v0.36131h-0.0677c-0.57682 0.0335-1.0513 0.53346-1.0435 1.1112 0 0.57474 0.46083 1.082 1.0435 1.1112h0.0677v0.37042l-0.08746-1.7e-4c-0.14688-2.9e-4 -0.44783-0.0401-0.64308-0.0851-0.65-0.19355-1.5025-0.61929-1.4796-1.3964 0-0.47379 0.32073-0.84462 0.7108-1.0888 0.11294-0.0674 0.2346-0.12233 0.34694-0.18666-0.02915-0.0134-0.05667-0.0311-0.08746-0.0401-0.13309-0.039-0.44749-0.1919-0.60781-0.2956-0.40102-0.25942-0.74846-0.66909-0.73354-1.167 0-0.49417 0.31666-0.90368 0.72662-1.1622 0.38856-0.25058 0.91274-0.42771 1.4236-0.48105zm3.024 0.74213v0.71592h-1.4743c-0.09248-0.60972-0.48987-1.048-1.1186-1.1186v-0.3691c0.3849 0.0191 0.76974 0.054 1.1112 0.25098v-0.24492h1.8521v0.36188c-0.20769 0.0602-0.36981 0.17214-0.37042 0.40387zm3.5587-3.7291h1.8521v8.1492h-1.8521zm-0.37042-0.37042v-0.37042h2.5929v0.37042c-0.20474 3e-3 -0.36839 0.16485-0.37042 0.37042h-1.8521c-0.0063-0.21188-0.17628-0.36697-0.37042-0.37042zm0 8.8985c0.21331-3e-3 0.37411-0.18196 0.37042-0.37896h1.8521c0.0063 0.2076 0.17056 0.36554 0.37042 0.37042v0.37042h-2.5929zm2.2225-4.824h1.8521v0.74084h-1.8521zm2.0733 0.74129-0.22122-4.5e-4v-0.73757l0.2661-7e-3c0.28353 0.0215 0.44292-0.0893 0.48016-0.3669h0.365v1.4817h-0.36188c-0.05056-0.29485-0.25175-0.35504-0.52815-0.36996zm-3.9254-0.74129v0.74084h-1.8521v-0.74084zm-2.0733 0.74129c-0.2764 0.0149-0.47759 0.0751-0.52815 0.36996h-0.36188v-1.4817h0.365c0.03723 0.27757 0.19662 0.38839 0.48016 0.3669l0.2661 7e-3v0.73757zm9.1112 2.9629h-1.4817v-2.9633h1.4817zm-1.8292 0.16722c0.10668-0.0515 0.28748-0.0591 0.34754-0.16722h1.4817c0 0.16144 0.01506 0.27614-0.13969 0.36549-0.0702 0.0395-0.1128 0.0396-0.29526 0.0462-1.1697 0.0425-1.3407 1.3179-1.3446 2.1812-0.0039 0.86337 0.13547 2.2209 1.0527 2.2225v0.37041c-0.34256 4e-3 -0.66824 2e-3 -0.97849-0.11992-1.0265-0.40433-1.6805-1.3814-1.6696-2.473 0.01093-1.0916 0.5694-1.9543 1.5457-2.4257zm2.5493 3.555c0.12445-0.0472 0.34907 0.0232 0.44531 0.12911 0.16682 0.18358 0.16574 0.4949-0.01617 0.64821-0.52899 0.44585-1.2001 0.67304-1.8901 0.69234v-0.37649c0.43691-5.5e-4 0.8604-0.12108 1.2514-0.31262-0.20362-0.30005-0.1578-0.64134 0.20957-0.78055zm-2.1934-9.6606c2.66e-4 -0.39105 0.32776-0.71779 0.73675-0.7188 0.41104-1e-3 0.72956 0.32765 0.73015 0.7301 5.99e-4 0.4045-0.3095 0.72966-0.73449 0.73171-0.42704 2e-3 -0.73268-0.35195-0.73241-0.74301zm1.8451 2.2299v0.3658c-0.20161 0.0108-0.3727 0.18937-0.37184 0.37934h-1.4817v-1.4807zm1.4699 1.4861 0.0023-1.4715 1.8498 3.6733 2.2235-4.4264 0.36947 0.74439v1.4802l-1.8521 3.7041h-0.74074zm-0.78099-1.5377c-0.10158-0.19994-0.22059-0.29396-0.44718-0.31449h-0.06829v-0.37042h1.6669v0.37042h-0.15592c-0.1449 0-0.15952 5e-3 -0.21608 0.0602-0.10734 0.10484-0.04531 0.22798 0.0048 0.32418l-0.0023 1.4693zm4.8556-0.047h-0.2881c0.02392-0.28671-0.23793-0.26752-0.45273-0.26752v-0.37042h2.4077v0.3647c-0.18553 7e-3 -0.34944 0.0382-0.45314 0.20219l-0.84417 1.6556h-0.36957zm3.4022 5.2651c-0.51082-0.0533-1.035-0.23048-1.4236-0.48105-0.40996-0.25853-0.72662-0.66804-0.72662-1.1622-0.01491-0.49787 0.33252-0.90754 0.73355-1.167 0.16032-0.10371 0.47472-0.25661 0.60781-0.2956 0.03078-9e-3 0.05831-0.0268 0.08746-0.0401-0.11234-0.0643-0.234-0.11922-0.34694-0.18666-0.39007-0.24414-0.7108-0.61498-0.7108-1.0888-0.02294-0.77716 0.8296-1.2029 1.4796-1.3964 0.19526-0.045 0.4962-0.0848 0.64308-0.0851l0.08746-1.7e-4v0.37042h-0.0677c-0.58272 0.0292-1.0435 0.53651-1.0435 1.1112-0.0078 0.57778 0.46672 1.0778 1.0435 1.1112h0.0677v0.3613l-0.14607 0.023c-0.44673 0.0618-0.76148 0.42925-0.89767 0.8397-0.08499 0.27723-0.09186 0.60892 0 0.88575 0.07 0.27754 0.2409 0.49657 0.45437 0.66979 0.16526 0.1341 0.3786 0.16194 0.58937 0.1929v0.36131l-0.12862-3e-3c-0.07074-2e-3 -0.20683-0.0109-0.30242-0.0209zm0.43104-5.5383v-0.37081c0.50379 0.0396 0.99365 0.16548 1.3896 0.49895 0.25567 0.21353 0.25342 0.21208 0.30858 0.19824 0.12092-0.0608 0.14269-0.19784 0.15858-0.3207h0.36574v1.8521h-0.36405c-0.13029-1.0868-0.72563-1.7771-1.8585-1.8578zm0 5.1972c1.1328-0.0807 1.7282-0.77093 1.8585-1.8578h0.36405v1.8521h-0.36574c-0.0159-0.12286-0.03766-0.25986-0.15858-0.3207-0.05517-0.0138-0.05291-0.0153-0.30858 0.19824-0.39594 0.33347-0.8858 0.4594-1.3896 0.49895zm9.9901-0.3761c1.1311 0 2.4905-0.58468 2.5986-1.8521h0.36473v2.2225h-0.37042v-0.0898c0-0.15377-0.12437-0.25641-0.28334-0.23384-0.04223 6e-3 -0.16476 0.0645-0.27228 0.13005-0.63402 0.33812-1.3144 0.56079-2.0373 0.56404zm0-8.1492v-0.74084c1.6619 2e-3 2.8605 0.65368 3.3146 2.3375 0.04965 0.40811-0.05975 0.7867-0.53645 0.79983-0.30857-0.0165-0.54549-0.2217-0.54438-0.54438 0-0.18128 0.04289-0.28088 0.17605-0.40883 0.09884-0.095 0.09793-0.10546-0.02781-0.32035-0.68411-0.77126-1.3253-1.124-2.382-1.1229zm0.22122 4.4454-0.22122-4.5e-4v-0.73757l0.2661-7e-3c0.28353 0.0215 0.44292-0.0893 0.48016-0.3669h0.365v1.4817h-0.36188c-0.05056-0.29485-0.25175-0.35504-0.52815-0.36996zm-2.1622 3.8674c-0.67344 0.3211-1.3709 0.59959-2.1336 0.57719v-0.37042c0.57235-0.0781 1.058-0.3327 1.3997-0.80674-0.91157-0.9967-1.4001-2.2864-1.3883-3.6383 0.02076-2.377 1.5757-4.8087 4.0632-4.8154v0.74084c-1.6781-4e-3 -2.2098 2.6657-2.2098 4.0746s0.68816 4.0745 2.2098 4.0746c7.59e-4 0.24904-5.58e-4 0.4918 0 0.74084-0.59504 7e-3 -1.361-0.18473-1.941-0.57719zm1.7198-3.8674c-0.2764 0.0149-0.47759 0.0751-0.52815 0.36996h-0.36188v-1.4817h0.365c0.03723 0.27757 0.19662 0.38839 0.48016 0.3669l0.2661 7e-3v0.73757zm5.2264-4.5e-4h1.4817v2.9633h-1.4817zm0-0.71592c-6.1e-4 -0.23173-0.16273-0.34364-0.37042-0.40387v-0.36188h1.8521v0.24492c0.34151-0.19697 0.72635-0.23193 1.1112-0.25098v0.3691c-0.62875 0.0706-1.0262 0.50891-1.1186 1.1186h-1.4743zm3.6882 1.4524c-1e-3 -0.70546-0.28428-1.8502-1.0952-1.8533v-0.37029c1.4052 2e-3 2.5817 0.52156 2.5817 1.8884l0.013 2.562h-1.4806zm0.016 2.2268h1.4817c-6e-5 0.25922 0.20652 0.72954 0.58202 0.73675 0.22463-9e-3 0.28898-0.21278 0.42131-0.34575l0.3137 0.26314c-0.1917 0.5126-0.76189 0.80976-1.269 0.82832-0.92638 0.0339-1.527-0.71206-1.5297-1.4825zm-2.2225 0c-3e-3 0.7704-0.60332 1.5164-1.5297 1.4825-0.50712-0.0186-1.0773-0.31572-1.269-0.82832l0.3137-0.26314c0.13233 0.13297 0.19668 0.33694 0.42131 0.34575 0.3755-7e-3 0.58209-0.47753 0.58202-0.73675zm10.108-2.562v2.562h-1.4817v-2.7049c0-0.56796-0.41816-1.3784-1.1112-1.3696v-0.37042c1.3015 7e-3 2.586 0.38553 2.5929 1.883zm0 4.0437h-1.4817v-0.24492c-0.34151 0.19696-0.72635 0.23193-1.1112 0.25097v-0.36909c0.62858-0.0705 1.0262-0.50911 1.1186-1.1186h1.4743zm0 1.4817h-1.4817v-1.4817h1.4817zm-2.5929 2.2225v-0.37041c0.84234 1e-3 1.1104-1.1198 1.1112-1.8521h1.4817c-4e-3 1.3145-1.3257 2.2189-2.5929 2.2225zm0-0.36474v0.37082c-0.50379-0.0396-0.99365-0.16548-1.3896-0.49896-0.25567-0.21353-0.25341-0.21208-0.30858-0.19823-0.12092 0.0608-0.14269 0.19783-0.15859 0.3207h-0.36574v-1.8521h0.36405c0.13029 1.0868 0.72562 1.7771 1.8584 1.8578zm-2.5846-6.3234c-0.0162-1.4479 1.0619-2.9427 2.5846-2.9427v0.36068c-0.77661 9e-3 -1.103 1.7664-1.101 2.6026 2e-3 0.83621 0.33607 2.6095 1.101 2.6027v0.36068c-1.5744-0.0132-2.5684-1.5361-2.5846-2.984zm7.4 1.5023h-1.4817v-2.9633h1.4817zm-1.4817 1.1112v-1.1112h1.4817v1.1112h0.74083v0.37042h-2.5929v-0.37042zm0 1.8521v-1.4817h1.4817v1.4817zm1.8535 0.74514-1.8535 0.73556v-1.4807h1.4817c-8.6e-4 0.18997 0.17024 0.36853 0.37184 0.37934zm-0.38026-9.6469c2.6e-4 0.39106-0.30537 0.74506-0.73241 0.74301-0.42499-2e-3 -0.73509-0.32721-0.73449-0.73171 5.9e-4 -0.40245 0.31911-0.73111 0.73015-0.7301 0.40899 1e-3 0.73648 0.32775 0.73675 0.7188zm0.37884 1.8553c-0.14488 0.028-0.2616 0.0893-0.33139 0.223-0.0368 0.0705-0.0382 0.13928-0.0386 0.49036l-4.5e-4 0.40643h-1.4817l-4.5e-4 -0.40643c-3.9e-4 -0.35108-7e-3 -0.41734-0.0386-0.49036-0.0618-0.14223-0.19486-0.18648-0.33139-0.223v-0.36188h2.2225zm0.80359 1.1198h1.4817v2.9633h-1.4817zm0-0.71592c-6.1e-4 -0.23173-0.16273-0.34364-0.37042-0.40387v-0.36188h1.8521v0.24492c0.3415-0.19697 0.72634-0.23193 1.1112-0.25098v0.3691c-0.62876 0.0706-1.0262 0.50891-1.1186 1.1186h-1.4743zm3.6882 1.4524c-1e-3 -0.70546-0.28428-1.8502-1.0952-1.8533v-0.37029c1.4052 2e-3 2.5817 0.52156 2.5817 1.8884l0.013 2.562h-1.4806zm0.016 3.3381v-1.1112h1.4817v1.1112h0.74084v0.37042h-2.5929v-0.37042zm0 1.8521v-1.4817h1.4817v1.4817zm1.8535 0.74514-1.8535 0.73556v-1.4807h1.4817c-8.6e-4 0.18997 0.17024 0.36853 0.37185 0.37934zm-5.9281-2.5887c0.14488-0.028 0.2616-0.0893 0.3314-0.223 0.0368-0.0705 0.0382-0.13928 0.0386-0.49036l4.5e-4 -0.40643h1.4817l4.5e-4 0.40643c3.9e-4 0.35108 7e-3 0.41734 0.0386 0.49036 0.0618 0.14223 0.19486 0.18648 0.33139 0.223v0.36188h-2.2225zm6.2913-2.6221c-0.0162-1.4479 1.0619-2.9427 2.5846-2.9427v0.36068c-0.77661 9e-3 -1.103 1.7664-1.101 2.6026 2e-3 0.83621 0.33607 2.6095 1.101 2.6027v0.36068c-1.5744-0.0132-2.5684-1.5361-2.5846-2.984zm1.4733-0.34975h2.2142c-0.0778-0.75929-0.22383-2.0237-1.103-2.2322v-0.36068c1.6525 0.0228 2.496 1.465 2.5988 2.9633h-3.71zm2.5722 1.8702c0.12445-0.0472 0.34907 0.0232 0.44531 0.12911 0.16683 0.18359 0.16574 0.4949-0.0162 0.64822-0.52899 0.44584-1.2001 0.67304-1.8901 0.69233v-0.37649c0.43691-5.4e-4 0.8604-0.12107 1.2514-0.31262-0.20362-0.30005-0.15779-0.64134 0.20957-0.78055z" filter="url(#t13nea)"/>
	</g>
	<text x="9.9364338" y="17.761065" fill="#ff6600" filter="url(#t13neb)" font-family="'Stencil Std'" font-size="10.583px" letter-spacing="0px" stroke-width=".26458" word-spacing="0px" style="line-height:1.25" xml:space="preserve"><tspan x="9.9364338" y="17.761065" fill="#ff6600" font-family="'Stencil Std'" stroke-width=".26458">T13 Narrative Engine</tspan></text>
	<g transform="translate(0 -274.51)">
		<path d="m15.038 280.81h1.8521v8.1492h-1.8521zm-0.37042-0.37042v-0.37042h2.5929v0.37042c-0.20474 3e-3 -0.36839 0.16485-0.37042 0.37042h-1.8521c-0.0063-0.21188-0.17628-0.36697-0.37042-0.37042zm0 8.8985c0.21331-3e-3 0.37411-0.18196 0.37042-0.37896h1.8521c0.0063 0.2076 0.17056 0.36554 0.37042 0.37042v0.37042h-2.5929zm2.2225-4.824h1.8521v0.74084h-1.8521zm2.0733 0.74129-0.22122-4.5e-4v-0.73757l0.2661-7e-3c0.28353 0.0215 0.44292-0.0893 0.48016-0.3669h0.365v1.4817h-0.36188c-0.05056-0.29485-0.25175-0.35504-0.52815-0.36996zm-3.9254-0.74129v0.74084h-1.8521v-0.74084zm-2.0733 0.74129c-0.2764 0.0149-0.47759 0.0751-0.52815 0.36996h-0.36188v-1.4817h0.365c0.03723 0.27757 0.19662 0.38839 0.48016 0.3669l0.2661 7e-3v0.73757zm7.6296-4.4454h1.8521v8.1492h-1.8521zm-0.37042-0.37042v-0.37042h2.5929v0.37042c-0.20474 3e-3 -0.36839 0.16485-0.37042 0.37042h-1.8521c-0.0063-0.21188-0.17628-0.36697-0.37042-0.37042zm0 8.8985c0.21331-3e-3 0.37411-0.18196 0.37042-0.37896h1.8521c0.0063 0.2076 0.17056 0.36554 0.37042 0.37042v0.37042h-2.5929zm6.494-0.37896v0.74084c-1.6619-2e-3 -2.8605-0.65368-3.3146-2.3375-0.04965-0.40811 0.05975-0.7867 0.53645-0.79983 0.30857 0.0165 0.54549 0.2217 0.54438 0.54438 0 0.18128-0.04289 0.28088-0.17605 0.40883-0.09884 0.095-0.09793 0.10546 0.02781 0.32035 0.68411 0.77126 1.3253 1.124 2.382 1.1229zm0-8.1492c-0.83832-5.5e-4 -1.8164 0.74144-1.8324 1.5924v1.0005c0.0061 0.19526 0.18569 0.38211 0.35076 0.37896v0.36188h-2.2225v-0.36188c0.17408 0.01 0.34532-0.18051 0.33139-0.37896v-1.8771c0.78769-1.0457 2.3472-1.4588 3.3728-1.4566zm-0.22122 4.4454c-0.2764 0.0149-0.47759 0.0751-0.52815 0.36996h-0.36188v-1.4817h0.365c0.03723 0.27757 0.19662 0.38839 0.48016 0.3669l0.2661 7e-3v0.73757zm2.1622 3.8674c-0.58003 0.39246-1.346 0.58409-1.941 0.57719 5.58e-4 -0.24904-7.59e-4 -0.4918 0-0.74084 1.5216-8e-5 2.2098-2.6657 2.2098-4.0746s-0.53168-4.0782-2.2098-4.0746v-0.74084c2.4875 7e-3 4.0424 2.4384 4.0632 4.8154 0.01181 1.3519-0.47673 2.6416-1.3883 3.6383 0.34167 0.47404 0.82732 0.72869 1.3997 0.80674v0.37042c-0.76264 0.0224-1.4601-0.25609-2.1336-0.57719zm0.28149-4.6086v0.74084h-2.2225v-0.74084zm12.827 4.5718c0.09701 0.16003 0.19191 0.24367 0.37742 0.24367h0.11911v0.37077l-2.2307-0.0106-2.6217-4.406 1.1111-1.5504zm0.12611-0.12675c-0.0061 0.20103 0.15726 0.37118 0.37042 0.37042h-2.2225v-4.445h1.8521zm0-8.1492v4.0746h-1.8521v-4.445h2.2225c-0.21316-7.6e-4 -0.37652 0.16939-0.37042 0.37042zm0.37042-0.37896c-0.21331 3e-3 -0.37411 0.18196-0.37042 0.37896h-1.8521c-0.0063-0.2076-0.17056-0.36554-0.37042-0.37042v-0.37042h2.5929zm-7.6526 0.25221c-0.09701-0.16003-0.19191-0.24367-0.37742-0.24367h-0.11911v-0.37077l2.2307 0.0106 2.6217 4.406-1.1111 1.5504zm-0.12611 0.12675c0.0061-0.20103-0.15726-0.37118-0.37042-0.37042h2.2225v4.445h-1.8521zm0 8.1492v-4.0746h1.8521v4.445h-2.2225c0.21316 7.6e-4 0.37652-0.16939 0.37042-0.37042zm-0.37042 0.37896c0.21331-3e-3 0.37411-0.18196 0.37042-0.37896h1.8521c0.0063 0.2076 0.17056 0.36554 0.37042 0.37042v0.37042h-2.5929zm13.697-1.1198h-1.4817v-2.9633h1.4817zm0 0.71592c6.05e-4 0.23173 0.16273 0.34364 0.37042 0.40387v0.36188h-1.8521v-0.24492c-0.34151 0.19696-0.72635 0.23193-1.1112 0.25097v-0.36909c0.62876-0.0706 1.0262-0.50891 1.1186-1.1186h1.4743zm-5.1775-2.1769c0.01622-1.4479 1.0102-2.9708 2.5846-2.984v0.36068c-0.76489-7e-3 -1.099 1.7664-1.101 2.6026-2e-3 0.83621 0.32435 2.5939 1.101 2.6027v0.36068c-1.5227 0-2.6008-1.4948-2.5846-2.9427zm5.1775-2.2182v0.71592h-1.4743c-0.09248-0.60972-0.48987-1.048-1.1186-1.1186v-0.3691c0.3849 0.0191 0.76974 0.054 1.1112 0.25098v-0.24492h1.8521v0.36188c-0.20769 0.0602-0.36981 0.17214-0.37042 0.40387zm1.1951 0.71592h1.4817v2.9633h-1.4817zm0-0.71592c-6.06e-4 -0.23173-0.16273-0.34364-0.37042-0.40387v-0.36188h1.8521v0.24492c0.34151-0.19697 0.72635-0.23193 1.1112-0.25098v0.3691c-0.62875 0.0706-1.0262 0.50891-1.1186 1.1186h-1.4743zm4.0539 0.69784c-0.36736-0.13922-0.41319-0.4805-0.20957-0.78055-0.39099-0.19155-0.81448-0.31208-1.2514-0.31262v-0.37649c0.68999 0.0193 1.3611 0.24648 1.8901 0.69233 0.18191 0.15332 0.18299 0.46463 0.01617 0.64821-0.09624 0.10591-0.32087 0.17628-0.44531 0.12912zm-2.2004 3.7266-1.8535 0.73556v-1.4807h1.4817c-8.6e-4 0.18997 0.17024 0.36853 0.37184 0.37933zm3.508-3.7085h1.4817v2.9633h-1.4817zm0-0.71592c-6.05e-4 -0.23173-0.16273-0.34364-0.37042-0.40387v-0.36188h1.8521v0.24492c0.34151-0.19697 0.72635-0.23193 1.1112-0.25098v0.3691c-0.62875 0.0706-1.0262 0.50891-1.1186 1.1186h-1.4743zm4.0539 0.69784c-0.36736-0.13922-0.41319-0.4805-0.20957-0.78055-0.39099-0.19155-0.81448-0.31208-1.2514-0.31262v-0.37649c0.68999 0.0193 1.3611 0.24648 1.8901 0.69233 0.18191 0.15332 0.18299 0.46463 0.01617 0.64821-0.09624 0.10591-0.32087 0.17628-0.44531 0.12912zm-2.2004 3.7266-1.8535 0.73556v-1.4807h1.4817c-8.61e-4 0.18997 0.17024 0.36853 0.37184 0.37933zm8.5429-0.74514h-1.4817v-2.9633h1.4817zm0 0.71592c6.05e-4 0.23173 0.16273 0.34364 0.37042 0.40387v0.36188h-1.8521v-0.24492c-0.34151 0.19696-0.72635 0.23193-1.1112 0.25097v-0.36909c0.62876-0.0706 1.0262-0.50891 1.1186-1.1186h1.4743zm-3.024-5.1373c0.09559-0.01 0.23168-0.0194 0.30242-0.0209l0.12862-3e-3v0.36131c-0.21076 0.031-0.42411 0.0588-0.58937 0.1929-0.21347 0.17322-0.38437 0.39225-0.45437 0.66979-0.09186 0.27683-0.08499 0.60852 0 0.88575 0.13619 0.41045 0.45094 0.77786 0.89767 0.83969l0.14607 0.023v0.36131h-0.0677c-0.57682 0.0335-1.0513 0.53346-1.0435 1.1112 0 0.57474 0.46083 1.082 1.0435 1.1112h0.0677v0.37042l-0.08746-1.7e-4c-0.14688-2.9e-4 -0.44783-0.0401-0.64308-0.0851-0.65-0.19355-1.5025-0.61929-1.4796-1.3964 0-0.47379 0.32073-0.84462 0.7108-1.0888 0.11294-0.0674 0.2346-0.12233 0.34694-0.18666-0.02915-0.0134-0.05667-0.0311-0.08746-0.0401-0.13309-0.039-0.44749-0.1919-0.60781-0.2956-0.40102-0.25942-0.74846-0.66909-0.73354-1.167 0-0.49417 0.31666-0.90368 0.72662-1.1622 0.38856-0.25058 0.91274-0.42771 1.4236-0.48105zm3.024 0.74213v0.71592h-1.4743c-0.09248-0.60972-0.48987-1.048-1.1186-1.1186v-0.3691c0.3849 0.0191 0.76974 0.054 1.1112 0.25098v-0.24492h1.8521v0.36188c-0.20769 0.0602-0.36981 0.17214-0.37042 0.40387zm3.5587-3.7291h1.8521v8.1492h-1.8521zm-0.37042-0.37042v-0.37042h2.5929v0.37042c-0.20474 3e-3 -0.36839 0.16485-0.37042 0.37042h-1.8521c-0.0063-0.21188-0.17628-0.36697-0.37042-0.37042zm0 8.8985c0.21331-3e-3 0.37411-0.18196 0.37042-0.37896h1.8521c0.0063 0.2076 0.17056 0.36554 0.37042 0.37042v0.37042h-2.5929zm2.2225-4.824h1.8521v0.74084h-1.8521zm2.0733 0.74129-0.22122-4.5e-4v-0.73757l0.2661-7e-3c0.28353 0.0215 0.44292-0.0893 0.48016-0.3669h0.365v1.4817h-0.36188c-0.05056-0.29485-0.25175-0.35504-0.52815-0.36996zm-3.9254-0.74129v0.74084h-1.8521v-0.74084zm-2.0733 0.74129c-0.2764 0.0149-0.47759 0.0751-0.52815 0.36996h-0.36188v-1.4817h0.365c0.03723 0.27757 0.19662 0.38839 0.48016 0.3669l0.2661 7e-3v0.73757zm9.1112 2.9629h-1.4817v-2.9633h1.4817zm-1.8292 0.16722c0.10668-0.0515 0.28748-0.0591 0.34754-0.16722h1.4817c0 0.16144 0.01506 0.27614-0.13969 0.36549-0.0702 0.0395-0.1128 0.0396-0.29526 0.0462-1.1697 0.0425-1.3407 1.3179-1.3446 2.1812-0.0039 0.86337 0.13547 2.2209 1.0527 2.2225v0.37041c-0.34256 4e-3 -0.66824 2e-3 -0.97849-0.11992-1.0265-0.40433-1.6805-1.3814-1.6696-2.473 0.01093-1.0916 0.5694-1.9543 1.5457-2.4257zm2.5493 3.555c0.12445-0.0472 0.34907 0.0232 0.44531 0.12911 0.16682 0.18358 0.16574 0.4949-0.01617 0.64821-0.52899 0.44585-1.2001 0.67304-1.8901 0.69234v-0.37649c0.43691-5.5e-4 0.8604-0.12108 1.2514-0.31262-0.20362-0.30005-0.1578-0.64134 0.20957-0.78055zm-2.1934-9.6606c2.66e-4 -0.39105 0.32776-0.71779 0.73675-0.7188 0.41104-1e-3 0.72956 0.32765 0.73015 0.7301 5.99e-4 0.4045-0.3095 0.72966-0.73449 0.73171-0.42704 2e-3 -0.73268-0.35195-0.73241-0.74301zm1.8451 2.2299v0.3658c-0.20161 0.0108-0.3727 0.18937-0.37184 0.37934h-1.4817v-1.4807zm1.4699 1.4861 0.0023-1.4715 1.8498 3.6733 2.2235-4.4264 0.36947 0.74439v1.4802l-1.8521 3.7041h-0.74074zm-0.78099-1.5377c-0.10158-0.19994-0.22059-0.29396-0.44718-0.31449h-0.06829v-0.37042h1.6669v0.37042h-0.15592c-0.1449 0-0.15952 5e-3 -0.21608 0.0602-0.10734 0.10484-0.04531 0.22798 0.0048 0.32418l-0.0023 1.4693zm4.8556-0.047h-0.2881c0.02392-0.28671-0.23793-0.26752-0.45273-0.26752v-0.37042h2.4077v0.3647c-0.18553 7e-3 -0.34944 0.0382-0.45314 0.20219l-0.84417 1.6556h-0.36957zm3.4022 5.2651c-0.51082-0.0533-1.035-0.23048-1.4236-0.48105-0.40996-0.25853-0.72662-0.66804-0.72662-1.1622-0.01491-0.49787 0.33252-0.90754 0.73355-1.167 0.16032-0.10371 0.47472-0.25661 0.60781-0.2956 0.03078-9e-3 0.05831-0.0268 0.08746-0.0401-0.11234-0.0643-0.234-0.11922-0.34694-0.18666-0.39007-0.24414-0.7108-0.61498-0.7108-1.0888-0.02294-0.77716 0.8296-1.2029 1.4796-1.3964 0.19526-0.045 0.4962-0.0848 0.64308-0.0851l0.08746-1.7e-4v0.37042h-0.0677c-0.58272 0.0292-1.0435 0.53651-1.0435 1.1112-0.0078 0.57778 0.46672 1.0778 1.0435 1.1112h0.0677v0.3613l-0.14607 0.023c-0.44673 0.0618-0.76148 0.42925-0.89767 0.8397-0.08499 0.27723-0.09186 0.60892 0 0.88575 0.07 0.27754 0.2409 0.49657 0.45437 0.66979 0.16526 0.1341 0.3786 0.16194 0.58937 0.1929v0.36131l-0.12862-3e-3c-0.07074-2e-3 -0.20683-0.0109-0.30242-0.0209zm0.43104-5.5383v-0.37081c0.50379 0.0396 0.99365 0.16548 1.3896 0.49895 0.25567 0.21353 0.25342 0.21208 0.30858 0.19824 0.12092-0.0608 0.14269-0.19784 0.15858-0.3207h0.36574v1.8521h-0.36405c-0.13029-1.0868-0.72563-1.7771-1.8585-1.8578zm0 5.1972c1.1328-0.0807 1.7282-0.77093 1.8585-1.8578h0.36405v1.8521h-0.36574c-0.0159-0.12286-0.03766-0.25986-0.15858-0.3207-0.05517-0.0138-0.05291-0.0153-0.30858 0.19824-0.39594 0.33347-0.8858 0.4594-1.3896 0.49895zm9.9901-0.3761c1.1311 0 2.4905-0.58468 2.5986-1.8521h0.36473v2.2225h-0.37042v-0.0898c0-0.15377-0.12437-0.25641-0.28334-0.23384-0.04223 6e-3 -0.16476 0.0645-0.27228 0.13005-0.63402 0.33812-1.3144 0.56079-2.0373 0.56404zm0-8.1492v-0.74084c1.6619 2e-3 2.8605 0.65368 3.3146 2.3375 0.04965 0.40811-0.05975 0.7867-0.53645 0.79983-0.30857-0.0165-0.54549-0.2217-0.54438-0.54438 0-0.18128 0.04289-0.28088 0.17605-0.40883 0.09884-0.095 0.09793-0.10546-0.02781-0.32035-0.68411-0.77126-1.3253-1.124-2.382-1.1229zm0.22122 4.4454-0.22122-4.5e-4v-0.73757l0.2661-7e-3c0.28353 0.0215 0.44292-0.0893 0.48016-0.3669h0.365v1.4817h-0.36188c-0.05056-0.29485-0.25175-0.35504-0.52815-0.36996zm-2.1622 3.8674c-0.67344 0.3211-1.3709 0.59959-2.1336 0.57719v-0.37042c0.57235-0.0781 1.058-0.3327 1.3997-0.80674-0.91157-0.9967-1.4001-2.2864-1.3883-3.6383 0.02076-2.377 1.5757-4.8087 4.0632-4.8154v0.74084c-1.6781-4e-3 -2.2098 2.6657-2.2098 4.0746s0.68816 4.0745 2.2098 4.0746c7.59e-4 0.24904-5.58e-4 0.4918 0 0.74084-0.59504 7e-3 -1.361-0.18473-1.941-0.57719zm1.7198-3.8674c-0.2764 0.0149-0.47759 0.0751-0.52815 0.36996h-0.36188v-1.4817h0.365c0.03723 0.27757 0.19662 0.38839 0.48016 0.3669l0.2661 7e-3v0.73757zm5.2264-4.5e-4h1.4817v2.9633h-1.4817zm0-0.71592c-6.1e-4 -0.23173-0.16273-0.34364-0.37042-0.40387v-0.36188h1.8521v0.24492c0.34151-0.19697 0.72635-0.23193 1.1112-0.25098v0.3691c-0.62875 0.0706-1.0262 0.50891-1.1186 1.1186h-1.4743zm3.6882 1.4524c-1e-3 -0.70546-0.28428-1.8502-1.0952-1.8533v-0.37029c1.4052 2e-3 2.5817 0.52156 2.5817 1.8884l0.013 2.562h-1.4806zm0.016 2.2268h1.4817c-6e-5 0.25922 0.20652 0.72954 0.58202 0.73675 0.22463-9e-3 0.28898-0.21278 0.42131-0.34575l0.3137 0.26314c-0.1917 0.5126-0.76189 0.80976-1.269 0.82832-0.92638 0.0339-1.527-0.71206-1.5297-1.4825zm-2.2225 0c-3e-3 0.7704-0.60332 1.5164-1.5297 1.4825-0.50712-0.0186-1.0773-0.31572-1.269-0.82832l0.3137-0.26314c0.13233 0.13297 0.19668 0.33694 0.42131 0.34575 0.3755-7e-3 0.58209-0.47753 0.58202-0.73675zm10.108-2.562v2.562h-1.4817v-2.7049c0-0.56796-0.41816-1.3784-1.1112-1.3696v-0.37042c1.3015 7e-3 2.586 0.38553 2.5929 1.883zm0 4.0437h-1.4817v-0.24492c-0.34151 0.19696-0.72635 0.23193-1.1112 0.25097v-0.36909c0.62858-0.0705 1.0262-0.50911 1.1186-1.1186h1.4743zm0 1.4817h-1.4817v-1.4817h1.4817zm-2.5929 2.2225v-0.37041c0.84234 1e-3 1.1104-1.1198 1.1112-1.8521h1.4817c-4e-3 1.3145-1.3257 2.2189-2.5929 2.2225zm0-0.36474v0.37082c-0.50379-0.0396-0.99365-0.16548-1.3896-0.49896-0.25567-0.21353-0.25341-0.21208-0.30858-0.19823-0.12092 0.0608-0.14269 0.19783-0.15859 0.3207h-0.36574v-1.8521h0.36405c0.13029 1.0868 0.72562 1.7771 1.8584 1.8578zm-2.5846-6.3234c-0.0162-1.4479 1.0619-2.9427 2.5846-2.9427v0.36068c-0.77661 9e-3 -1.103 1.7664-1.101 2.6026 2e-3 0.83621 0.33607 2.6095 1.101 2.6027v0.36068c-1.5744-0.0132-2.5684-1.5361-2.5846-2.984zm7.4 1.5023h-1.4817v-2.9633h1.4817zm-1.4817 1.1112v-1.1112h1.4817v1.1112h0.74083v0.37042h-2.5929v-0.37042zm0 1.8521v-1.4817h1.4817v1.4817zm1.8535 0.74514-1.8535 0.73556v-1.4807h1.4817c-8.6e-4 0.18997 0.17024 0.36853 0.37184 0.37934zm-0.38026-9.6469c2.6e-4 0.39106-0.30537 0.74506-0.73241 0.74301-0.42499-2e-3 -0.73509-0.32721-0.73449-0.73171 5.9e-4 -0.40245 0.31911-0.73111 0.73015-0.7301 0.40899 1e-3 0.73648 0.32775 0.73675 0.7188zm0.37884 1.8553c-0.14488 0.028-0.2616 0.0893-0.33139 0.223-0.0368 0.0705-0.0382 0.13928-0.0386 0.49036l-4.5e-4 0.40643h-1.4817l-4.5e-4 -0.40643c-3.9e-4 -0.35108-7e-3 -0.41734-0.0386-0.49036-0.0618-0.14223-0.19486-0.18648-0.33139-0.223v-0.36188h2.2225zm0.80359 1.1198h1.4817v2.9633h-1.4817zm0-0.71592c-6.1e-4 -0.23173-0.16273-0.34364-0.37042-0.40387v-0.36188h1.8521v0.24492c0.3415-0.19697 0.72634-0.23193 1.1112-0.25098v0.3691c-0.62876 0.0706-1.0262 0.50891-1.1186 1.1186h-1.4743zm3.6882 1.4524c-1e-3 -0.70546-0.28428-1.8502-1.0952-1.8533v-0.37029c1.4052 2e-3 2.5817 0.52156 2.5817 1.8884l0.013 2.562h-1.4806zm0.016 3.3381v-1.1112h1.4817v1.1112h0.74084v0.37042h-2.5929v-0.37042zm0 1.8521v-1.4817h1.4817v1.4817zm1.8535 0.74514-1.8535 0.73556v-1.4807h1.4817c-8.6e-4 0.18997 0.17024 0.36853 0.37185 0.37934zm-5.9281-2.5887c0.14488-0.028 0.2616-0.0893 0.3314-0.223 0.0368-0.0705 0.0382-0.13928 0.0386-0.49036l4.5e-4 -0.40643h1.4817l4.5e-4 0.40643c3.9e-4 0.35108 7e-3 0.41734 0.0386 0.49036 0.0618 0.14223 0.19486 0.18648 0.33139 0.223v0.36188h-2.2225zm6.2913-2.6221c-0.0162-1.4479 1.0619-2.9427 2.5846-2.9427v0.36068c-0.77661 9e-3 -1.103 1.7664-1.101 2.6026 2e-3 0.83621 0.33607 2.6095 1.101 2.6027v0.36068c-1.5744-0.0132-2.5684-1.5361-2.5846-2.984zm1.4733-0.34975h2.2142c-0.0778-0.75929-0.22383-2.0237-1.103-2.2322v-0.36068c1.6525 0.0228 2.496 1.465 2.5988 2.9633h-3.71zm2.5722 1.8702c0.12445-0.0472 0.34907 0.0232 0.44531 0.12911 0.16683 0.18359 0.16574 0.4949-0.0162 0.64822-0.52899 0.44584-1.2001 0.67304-1.8901 0.69233v-0.37649c0.43691-5.4e-4 0.8604-0.12107 1.2514-0.31262-0.20362-0.30005-0.15779-0.64134 0.20957-0.78055z" filter="url(#t13nea)"/>
	</g>
	<g fill="#ccc" stroke-width=".26458">
		<rect x="3.6355" y="1.5322" width="167.23" height="1.7108" filter="url(#t13ned)"/>
		<rect x="3.8493" y="20.137" width="167.23" height="1.7108" filter="url(#t13nee)"/>
	</g>
</svg>
