<?xml version="1.0" encoding="UTF-8"?>
<!-- Created with Inkscape (http://www.inkscape.org/) -->
<svg width="1920" height="1080" enable-background="new" version="1.1" viewBox="0 0 508 285.75" xmlns="http://www.w3.org/2000/svg" xmlns:xlink="http://www.w3.org/1999/xlink">
	<defs>
		<linearGradient id="t13nef" x1="123.26" x2="122.82" y1="21.51" y2="208.77" gradientTransform="matrix(3.7795 0 0 3.7795 0 -42.519)" gradientUnits="userSpaceOnUse">
			<stop stop-color="#55f" offset="0"/>
			<stop stop-color="#fca" offset="1"/>
		</linearGradient>
		<linearGradient id="t13nee" x1="244.81" x2="240.79" y1="189.81" y2="129.45" gradientTransform="matrix(3.7795 0 0 3.7795 3.8483 100.78)" gradientUnits="userSpaceOnUse">
			<stop stop-color="#fea" offset="0"/>
			<stop stop-color="#a40" offset="1"/>
		</linearGradient>
		<linearGradient id="t13ned" x1="278.33" x2="259.24" y1="217.92" y2="71.673" gradientTransform="matrix(3.7795 0 0 3.1432 0 181.81)" gradientUnits="userSpaceOnUse">
			<stop stop-color="#ffe680" offset="0"/>
			<stop stop-color="#f60" offset="1"/>
		</linearGradient>
		<filter id="t13nel" x="-.2" y="-.2" width="1.4" height="1.4" color-interpolation-filters="sRGB">
			<feColorMatrix result="result1" values="0 0 0 0 0 0 0 0 0 0 0 0 0 0 0 0.21 0.72 0.07 0 0 "/>
			<feColorMatrix result="result9" values="1 0 0 0 0 0 1 0 0 0 0 0 1 0 0 0 0 0 2 0 "/>
			<feComposite in="SourceGraphic" in2="result9" operator="in" result="result4"/>
			<feFlood flood-color="rgb(0,0,0)" result="result2"/>
			<feComposite in2="result9" operator="in" result="result10"/>
			<feComposite in2="result4" operator="atop"/>
			<feGaussianBlur result="result8" stdDeviation="3"/>
			<feOffset dx="3" dy="3" in="result8" result="result3"/>
			<feFlood flood-color="rgb(219,173,62)" result="result5"/>
			<feMerge result="result6">
				<feMergeNode in="result5"/>
				<feMergeNode in="result3"/>
				<feMergeNode in="result4"/>
			</feMerge>
			<feComposite in2="SourceGraphic" operator="in" result="fbSourceGraphic"/>
			<feColorMatrix in="fbSourceGraphic" result="fbSourceGraphicAlpha" values="0 0 0 -1 0 0 0 0 -1 0 0 0 0 -1 0 0 0 0 1 0"/>
			<feGaussianBlur in="fbSourceGraphic" result="result0" stdDeviation="0.5"/>
			<feTurbulence baseFrequency="0.2" numOctaves="10" result="result1" seed="300" type="fractalNoise"/>
			<feGaussianBlur result="result8" stdDeviation="0.5"/>
			<feDisplacementMap in="result0" in2="result8" result="result7" scale="5" xChannelSelector="R"/>
			<feComposite in="result7" in2="result1" operator="in" result="result2"/>
			<feComposite in="result0" in2="result2" k3="3" operator="arithmetic" result="result11"/>
			<feBlend in2="result2" mode="multiply" result="fbSourceGraphic"/>
			<feColorMatrix in="fbSourceGraphic" result="fbSourceGraphicAlpha" values="1 0 0 -1 0 1 0 1 -1 0 1 0 0 -1 0 -1.8 -0.5 0 5.7 -3.5 "/>
			<feGaussianBlur in="fbSourceGraphicAlpha" result="result0" stdDeviation="0.5"/>
			<feSpecularLighting result="result6" specularExponent="3" surfaceScale="5">
				<feDistantLight azimuth="225" elevation="10"/>
			</feSpecularLighting>
			<feComposite in="result6" in2="fbSourceGraphicAlpha" operator="in" result="result2"/>
			<feComposite in="fbSourceGraphic" in2="result2" k2="1" k3="0.7" operator="arithmetic" result="fbSourceGraphic"/>
			<feColorMatrix in="fbSourceGraphic" result="fbSourceGraphicAlpha" values="0 0 0 -1 0 0 0 0 -1 0 0 0 0 -1 0 0 0 0 1 0"/>
			<feGaussianBlur in="fbSourceGraphic" result="blur" stdDeviation="1.05 1.31195"/>
			<feColorMatrix result="colormatrix" values="1 0 0 0 0 0 1 0 0 0 0 0 1 0 0 0 0 0 50 0 "/>
			<feComposite in="colormatrix" in2="fbSourceGraphic" operator="in" result="fbSourceGraphic"/>
			<feColorMatrix in="fbSourceGraphic" result="fbSourceGraphicAlpha" values="0 0 0 -1 0 0 0 0 -1 0 0 0 0 -1 0 0 0 0 1 0"/>
			<feTurbulence baseFrequency="0.05" in="fbSourceGraphic" numOctaves="5" result="result91" type="fractalNoise"/>
			<feDisplacementMap in="fbSourceGraphic" in2="result91" result="result5" scale="25" xChannelSelector="R"/>
			<feComposite in="fbSourceGraphic" in2="result5" operator="atop" result="fbSourceGraphic"/>
			<feColorMatrix in="fbSourceGraphic" result="fbSourceGraphicAlpha" values="0 0 0 -1 0 0 0 0 -1 0 0 0 0 -1 0 0 0 0 1 0"/>
			<feGaussianBlur in="fbSourceGraphic" result="blur" stdDeviation="5.21781 7.3"/>
		</filter>
		<filter id="t13nek" x="-.2" y="-.2" width="1.4" height="1.4" color-interpolation-filters="sRGB">
			<feColorMatrix result="result1" values="0 0 0 0 0 0 0 0 0 0 0 0 0 0 0 0.21 0.72 0.07 0 0 "/>
			<feColorMatrix result="result9" values="1 0 0 0 0 0 1 0 0 0 0 0 1 0 0 0 0 0 2 0 "/>
			<feComposite in="SourceGraphic" in2="result9" operator="in" result="result4"/>
			<feFlood flood-color="rgb(0,0,0)" result="result2"/>
			<feComposite in2="result9" operator="in" result="result10"/>
			<feComposite in2="result4" operator="atop"/>
			<feGaussianBlur result="result8" stdDeviation="3"/>
			<feOffset dx="3" dy="3" in="result8" result="result3"/>
			<feFlood flood-color="rgb(219,173,62)" result="result5"/>
			<feMerge result="result6">
				<feMergeNode in="result5"/>
				<feMergeNode in="result3"/>
				<feMergeNode in="result4"/>
			</feMerge>
			<feComposite in2="SourceGraphic" operator="in" result="fbSourceGraphic"/>
			<feColorMatrix in="fbSourceGraphic" result="fbSourceGraphicAlpha" values="0 0 0 -1 0 0 0 0 -1 0 0 0 0 -1 0 0 0 0 1 0"/>
			<feColorMatrix in="fbSourceGraphic" result="result1" values="0 0 0 0 0 0 0 0 0 0 0 0 0 0 0 0.21 0.72 0.07 0 0 "/>
			<feColorMatrix result="result9" values="1 0 0 0 0 0 1 0 0 0 0 0 1 0 0 0 0 0 2 0 "/>
			<feComposite in="fbSourceGraphic" in2="result9" operator="in" result="result4"/>
			<feFlood flood-color="rgb(0,0,0)" result="result2"/>
			<feComposite in2="result9" operator="in" result="result10"/>
			<feComposite in2="result4" operator="atop"/>
			<feGaussianBlur result="result8" stdDeviation="3"/>
			<feOffset dx="3" dy="3" in="result8" result="result3"/>
			<feFlood flood-color="rgb(219,173,62)" result="result5"/>
			<feMerge result="result6">
				<feMergeNode in="result5"/>
				<feMergeNode in="result3"/>
				<feMergeNode in="result4"/>
			</feMerge>
			<feComposite in2="fbSourceGraphic" operator="in" result="fbSourceGraphic"/>
			<feColorMatrix in="fbSourceGraphic" result="fbSourceGraphicAlpha" values="0 0 0 -1 0 0 0 0 -1 0 0 0 0 -1 0 0 0 0 1 0"/>
			<feGaussianBlur in="fbSourceGraphic" result="result0" stdDeviation="0.5"/>
			<feTurbulence baseFrequency="0.2" numOctaves="10" result="result1" seed="300" type="fractalNoise"/>
			<feGaussianBlur result="result8" stdDeviation="0.5"/>
			<feDisplacementMap in="result0" in2="result8" result="result7" scale="5" xChannelSelector="R"/>
			<feComposite in="result7" in2="result1" operator="in" result="result2"/>
			<feComposite in="result0" in2="result2" k3="3" operator="arithmetic" result="result11"/>
			<feBlend in2="result2" mode="multiply" result="fbSourceGraphic"/>
			<feColorMatrix in="fbSourceGraphic" result="fbSourceGraphicAlpha" values="1 0 0 -1 0 1 0 1 -1 0 1 0 0 -1 0 -1.8 -0.5 0 5.7 -3.5 "/>
			<feGaussianBlur in="fbSourceGraphicAlpha" result="result0" stdDeviation="0.5"/>
			<feSpecularLighting result="result6" specularExponent="3" surfaceScale="5">
				<feDistantLight azimuth="225" elevation="10"/>
			</feSpecularLighting>
			<feComposite in="result6" in2="fbSourceGraphicAlpha" operator="in" result="result2"/>
			<feComposite in="fbSourceGraphic" in2="result2" k2="1" k3="0.7" operator="arithmetic" result="fbSourceGraphic"/>
			<feColorMatrix in="fbSourceGraphic" result="fbSourceGraphicAlpha" values="0 0 0 -1 0 0 0 0 -1 0 0 0 0 -1 0 0 0 0 1 0"/>
			<feGaussianBlur in="fbSourceGraphic" result="blur" stdDeviation="4.43664 5.74"/>
			<feColorMatrix result="colormatrix" values="1 0 0 0 0 0 1 0 0 0 0 0 1 0 0 0 0 0 50 0 "/>
			<feComposite in="colormatrix" in2="fbSourceGraphic" operator="in" result="fbSourceGraphic"/>
			<feColorMatrix in="fbSourceGraphic" result="fbSourceGraphicAlpha" values="0 0 0 -1 0 0 0 0 -1 0 0 0 0 -1 0 0 0 0 1 0"/>
			<feTurbulence baseFrequency="0.05" in="fbSourceGraphic" numOctaves="5" result="result91" type="fractalNoise"/>
			<feDisplacementMap in="fbSourceGraphic" in2="result91" result="result5" scale="25" xChannelSelector="R"/>
			<feComposite in="fbSourceGraphic" in2="result5" operator="atop" result="fbSourceGraphic"/>
			<feColorMatrix in="fbSourceGraphic" result="fbSourceGraphicAlpha" values="0 0 0 -1 0 0 0 0 -1 0 0 0 0 -1 0 0 0 0 1 0"/>
			<feTurbulence baseFrequency="0.05" in="fbSourceGraphic" numOctaves="5" result="result91" type="fractalNoise"/>
			<feDisplacementMap in="fbSourceGraphic" in2="result91" result="result5" scale="25" xChannelSelector="R"/>
			<feComposite in="fbSourceGraphic" in2="result5" operator="atop" result="fbSourceGraphic"/>
			<feColorMatrix in="fbSourceGraphic" result="fbSourceGraphicAlpha" values="0 0 0 -1 0 0 0 0 -1 0 0 0 0 -1 0 0 0 0 1 0"/>
			<feGaussianBlur in="fbSourceGraphic" result="blur" stdDeviation="5.21781 7.3"/>
		</filter>
		<linearGradient id="t13nec" x1="239.12" x2="241.81" y1="287.24" y2="156.12" gradientTransform="matrix(3.7795 0 0 3.7795 67.572 30.36)" gradientUnits="userSpaceOnUse">
			<stop stop-color="#ffe6d5" offset="0"/>
			<stop stop-color="#d45500" offset="1"/>
		</linearGradient>
		<filter id="t13nej" x="-.2" y="-.2" width="1.4" height="1.4" color-interpolation-filters="sRGB">
			<feColorMatrix result="result1" values="0 0 0 0 0 0 0 0 0 0 0 0 0 0 0 0.21 0.72 0.07 0 0 "/>
			<feColorMatrix result="result9" values="1 0 0 0 0 0 1 0 0 0 0 0 1 0 0 0 0 0 2 0 "/>
			<feComposite in="SourceGraphic" in2="result9" operator="in" result="result4"/>
			<feFlood flood-color="rgb(0,0,0)" result="result2"/>
			<feComposite in2="result9" operator="in" result="result10"/>
			<feComposite in2="result4" operator="atop"/>
			<feGaussianBlur result="result8" stdDeviation="3"/>
			<feOffset dx="3" dy="3" in="result8" result="result3"/>
			<feFlood flood-color="rgb(219,173,62)" result="result5"/>
			<feMerge result="result6">
				<feMergeNode in="result5"/>
				<feMergeNode in="result3"/>
				<feMergeNode in="result4"/>
			</feMerge>
			<feComposite in2="SourceGraphic" operator="in" result="fbSourceGraphic"/>
			<feColorMatrix in="fbSourceGraphic" result="fbSourceGraphicAlpha" values="0 0 0 -1 0 0 0 0 -1 0 0 0 0 -1 0 0 0 0 1 0"/>
			<feGaussianBlur in="fbSourceGraphic" result="result0" stdDeviation="0.5"/>
			<feTurbulence baseFrequency="0.2" numOctaves="10" result="result1" seed="300" type="fractalNoise"/>
			<feGaussianBlur result="result8" stdDeviation="0.5"/>
			<feDisplacementMap in="result0" in2="result8" result="result7" scale="5" xChannelSelector="R"/>
			<feComposite in="result7" in2="result1" operator="in" result="result2"/>
			<feComposite in="result0" in2="result2" k3="3" operator="arithmetic" result="result11"/>
			<feBlend in2="result2" mode="multiply" result="fbSourceGraphic"/>
			<feColorMatrix in="fbSourceGraphic" result="fbSourceGraphicAlpha" values="1 0 0 -1 0 1 0 1 -1 0 1 0 0 -1 0 -1.8 -0.5 0 5.7 -3.5 "/>
			<feGaussianBlur in="fbSourceGraphicAlpha" result="result0" stdDeviation="0.5"/>
			<feSpecularLighting result="result6" specularExponent="3" surfaceScale="5">
				<feDistantLight azimuth="225" elevation="10"/>
			</feSpecularLighting>
			<feComposite in="result6" in2="fbSourceGraphicAlpha" operator="in" result="result2"/>
			<feComposite in="fbSourceGraphic" in2="result2" k2="1" k3="0.7" operator="arithmetic" result="fbSourceGraphic"/>
			<feColorMatrix in="fbSourceGraphic" result="fbSourceGraphicAlpha" values="0 0 0 -1 0 0 0 0 -1 0 0 0 0 -1 0 0 0 0 1 0"/>
			<feGaussianBlur in="fbSourceGraphic" result="blur" stdDeviation="1.05 1.31"/>
			<feColorMatrix result="colormatrix" values="1 0 0 0 0 0 1 0 0 0 0 0 1 0 0 0 0 0 50 0 "/>
			<feComposite in="colormatrix" in2="fbSourceGraphic" operator="in" result="fbSourceGraphic"/>
			<feColorMatrix in="fbSourceGraphic" result="fbSourceGraphicAlpha" values="0 0 0 -1 0 0 0 0 -1 0 0 0 0 -1 0 0 0 0 1 0"/>
			<feTurbulence baseFrequency="0.05" in="fbSourceGraphic" numOctaves="5" result="result91" type="fractalNoise"/>
			<feDisplacementMap in="fbSourceGraphic" in2="result91" result="result5" scale="25" xChannelSelector="R"/>
			<feComposite in="fbSourceGraphic" in2="result5" operator="atop" result="fbSourceGraphic"/>
			<feColorMatrix in="fbSourceGraphic" result="fbSourceGraphicAlpha" values="0 0 0 -1 0 0 0 0 -1 0 0 0 0 -1 0 0 0 0 1 0"/>
			<feGaussianBlur in="fbSourceGraphic" result="blur" stdDeviation="5.21781 7.3"/>
		</filter>
		<linearGradient id="t13neb" x1="385.13" x2="356.82" y1="272.34" y2="156.13" gradientUnits="userSpaceOnUse">
			<stop stop-color="#fea" offset="0"/>
			<stop stop-color="#a40" offset="1"/>
		</linearGradient>
		<linearGradient id="t13nea" x1="317.34" x2="306.17" y1="223.92" y2="92.811" gradientTransform="scale(3.7795)" gradientUnits="userSpaceOnUse">
			<stop stop-color="#ffd42a" offset="0"/>
			<stop stop-color="#fca" offset="1"/>
		</linearGradient>
		<filter id="t13nei" x="-.2" y="-.2" width="1.4" height="1.4" color-interpolation-filters="sRGB">
			<feColorMatrix result="result1" values="0 0 0 0 0 0 0 0 0 0 0 0 0 0 0 0.21 0.72 0.07 0 0 "/>
			<feColorMatrix result="result9" values="1 0 0 0 0 0 1 0 0 0 0 0 1 0 0 0 0 0 2 0 "/>
			<feComposite in="SourceGraphic" in2="result9" operator="in" result="result4"/>
			<feFlood flood-color="rgb(0,0,0)" result="result2"/>
			<feComposite in2="result9" operator="in" result="result10"/>
			<feComposite in2="result4" operator="atop"/>
			<feGaussianBlur result="result8" stdDeviation="3"/>
			<feOffset dx="3" dy="3" in="result8" result="result3"/>
			<feFlood flood-color="rgb(219,173,62)" result="result5"/>
			<feMerge result="result6">
				<feMergeNode in="result5"/>
				<feMergeNode in="result3"/>
				<feMergeNode in="result4"/>
			</feMerge>
			<feComposite in2="SourceGraphic" operator="in" result="fbSourceGraphic"/>
			<feColorMatrix in="fbSourceGraphic" result="fbSourceGraphicAlpha" values="0 0 0 -1 0 0 0 0 -1 0 0 0 0 -1 0 0 0 0 1 0"/>
			<feGaussianBlur in="fbSourceGraphic" result="result0" stdDeviation="0.5"/>
			<feTurbulence baseFrequency="0.2" numOctaves="10" result="result1" seed="300" type="fractalNoise"/>
			<feGaussianBlur result="result8" stdDeviation="0.5"/>
			<feDisplacementMap in="result0" in2="result8" result="result7" scale="5" xChannelSelector="R"/>
			<feComposite in="result7" in2="result1" operator="in" result="result2"/>
			<feComposite in="result0" in2="result2" k3="3" operator="arithmetic" result="result11"/>
			<feBlend in2="result2" mode="multiply" result="fbSourceGraphic"/>
			<feColorMatrix in="fbSourceGraphic" result="fbSourceGraphicAlpha" values="1 0 0 -1 0 1 0 1 -1 0 1 0 0 -1 0 -1.8 -0.5 0 5.7 -3.5 "/>
			<feGaussianBlur in="fbSourceGraphicAlpha" result="result0" stdDeviation="0.5"/>
			<feSpecularLighting result="result6" specularExponent="3" surfaceScale="5">
				<feDistantLight azimuth="225" elevation="10"/>
			</feSpecularLighting>
			<feComposite in="result6" in2="fbSourceGraphicAlpha" operator="in" result="result2"/>
			<feComposite in="fbSourceGraphic" in2="result2" k2="1" k3="0.7" operator="arithmetic" result="fbSourceGraphic"/>
			<feColorMatrix in="fbSourceGraphic" result="fbSourceGraphicAlpha" values="0 0 0 -1 0 0 0 0 -1 0 0 0 0 -1 0 0 0 0 1 0"/>
			<feGaussianBlur in="fbSourceGraphic" result="blur" stdDeviation="1.05156 2.09"/>
			<feColorMatrix result="colormatrix" values="1 0 0 0 0 0 1 0 0 0 0 0 1 0 0 0 0 0 50 0 "/>
			<feComposite in="colormatrix" in2="fbSourceGraphic" operator="in" result="fbSourceGraphic"/>
			<feColorMatrix in="fbSourceGraphic" result="fbSourceGraphicAlpha" values="0 0 0 -1 0 0 0 0 -1 0 0 0 0 -1 0 0 0 0 1 0"/>
			<feTurbulence baseFrequency="0.05" in="fbSourceGraphic" numOctaves="5" result="result91" type="fractalNoise"/>
			<feDisplacementMap in="fbSourceGraphic" in2="result91" result="result5" scale="25" xChannelSelector="R"/>
			<feComposite in="fbSourceGraphic" in2="result5" operator="atop" result="fbSourceGraphic"/>
			<feColorMatrix in="fbSourceGraphic" result="fbSourceGraphicAlpha" values="0 0 0 -1 0 0 0 0 -1 0 0 0 0 -1 0 0 0 0 1 0"/>
			<feGaussianBlur in="fbSourceGraphic" result="blur" stdDeviation="5.21781 7.3"/>
		</filter>
		<filter id="t13neh" x="-.2" y="-.2" width="1.4" height="1.4" color-interpolation-filters="sRGB">
			<feColorMatrix result="result1" values="0 0 0 0 0 0 0 0 0 0 0 0 0 0 0 0.21 0.72 0.07 0 0 "/>
			<feColorMatrix result="result9" values="1 0 0 0 0 0 1 0 0 0 0 0 1 0 0 0 0 0 2 0 "/>
			<feComposite in="SourceGraphic" in2="result9" operator="in" result="result4"/>
			<feFlood flood-color="rgb(0,0,0)" result="result2"/>
			<feComposite in2="result9" operator="in" result="result10"/>
			<feComposite in2="result4" operator="atop"/>
			<feGaussianBlur result="result8" stdDeviation="3"/>
			<feOffset dx="3" dy="3" in="result8" result="result3"/>
			<feFlood flood-color="rgb(219,173,62)" result="result5"/>
			<feMerge result="result6">
				<feMergeNode in="result5"/>
				<feMergeNode in="result3"/>
				<feMergeNode in="result4"/>
			</feMerge>
			<feComposite in2="SourceGraphic" operator="in" result="fbSourceGraphic"/>
			<feColorMatrix in="fbSourceGraphic" result="fbSourceGraphicAlpha" values="0 0 0 -1 0 0 0 0 -1 0 0 0 0 -1 0 0 0 0 1 0"/>
			<feGaussianBlur in="fbSourceGraphic" result="result0" stdDeviation="0.5"/>
			<feTurbulence baseFrequency="0.2" numOctaves="10" result="result1" seed="300" type="fractalNoise"/>
			<feGaussianBlur result="result8" stdDeviation="0.5"/>
			<feDisplacementMap in="result0" in2="result8" result="result7" scale="5" xChannelSelector="R"/>
			<feComposite in="result7" in2="result1" operator="in" result="result2"/>
			<feComposite in="result0" in2="result2" k3="3" operator="arithmetic" result="result11"/>
			<feBlend in2="result2" mode="multiply" result="fbSourceGraphic"/>
			<feColorMatrix in="fbSourceGraphic" result="fbSourceGraphicAlpha" values="1 0 0 -1 0 1 0 1 -1 0 1 0 0 -1 0 -1.8 -0.5 0 5.7 -3.5 "/>
			<feGaussianBlur in="fbSourceGraphicAlpha" result="result0" stdDeviation="0.5"/>
			<feSpecularLighting result="result6" specularExponent="3" surfaceScale="5">
				<feDistantLight azimuth="225" elevation="10"/>
			</feSpecularLighting>
			<feComposite in="result6" in2="fbSourceGraphicAlpha" operator="in" result="result2"/>
			<feComposite in="fbSourceGraphic" in2="result2" k2="1" k3="0.7" operator="arithmetic" result="fbSourceGraphic"/>
			<feColorMatrix in="fbSourceGraphic" result="fbSourceGraphicAlpha" values="0 0 0 -1 0 0 0 0 -1 0 0 0 0 -1 0 0 0 0 1 0"/>
			<feGaussianBlur in="fbSourceGraphic" result="blur" stdDeviation="12.25 2.35"/>
			<feColorMatrix result="colormatrix" values="1 0 0 0 0 0 1 0 0 0 0 0 1 0 0 0 0 0 50 0 "/>
			<feComposite in="colormatrix" in2="fbSourceGraphic" operator="in" result="fbSourceGraphic"/>
			<feColorMatrix in="fbSourceGraphic" result="fbSourceGraphicAlpha" values="0 0 0 -1 0 0 0 0 -1 0 0 0 0 -1 0 0 0 0 1 0"/>
			<feTurbulence baseFrequency="0.05" in="fbSourceGraphic" numOctaves="5" result="result91" type="fractalNoise"/>
			<feDisplacementMap in="fbSourceGraphic" in2="result91" result="result5" scale="25" xChannelSelector="R"/>
			<feComposite in="fbSourceGraphic" in2="result5" operator="atop" result="fbSourceGraphic"/>
			<feColorMatrix in="fbSourceGraphic" result="fbSourceGraphicAlpha" values="0 0 0 -1 0 0 0 0 -1 0 0 0 0 -1 0 0 0 0 1 0"/>
			<feGaussianBlur in="fbSourceGraphic" result="blur" stdDeviation="5.21781 7.3"/>
		</filter>
		<filter id="t13neg" color-interpolation-filters="sRGB">
			<feGaussianBlur result="blur" stdDeviation="5.21781 7.3"/>
		</filter>
	</defs>
	<g transform="translate(0 -11.25)">
		<path transform="matrix(.26458 0 0 .26458 0 11.25)" d="m-7.9629-5.0215v1091h1935.1v-1091h-1935.1z" fill="url(#t13nef)" filter="url(#t13neg)"/>
	</g>
	<g>
		<path transform="scale(.26458)" d="m1268.9 319.52c-0.6 0.03241-1.2943 0.29102-1.8809 0.29102h-8.4453c-1.4723 0-10.523-0.37013-11.264 0-1.1872 0.59357-1.6273 2.2228-2.8144 2.8164-1.1164 0.55817-7.8717-0.57559-8.4473 0-0.6636 0.66362 0.6637 2.1508 0 2.8144-1.4077 1.4078-7.0375-1.4078-8.4453 0-0.6636 0.66362 0.6636 2.1528 0 2.8164-1.3272 1.3272-3.9521-0.83942-5.6309 0-1.1871 0.59356-1.6293 2.2209-2.8164 2.8144-0.8394 0.41971-1.8779 0-2.8164 0h-14.076-2.8165c-0.9383 0-1.975-0.41971-2.8144 0-1.1871 0.59356-1.6293 2.2229-2.8164 2.8164-0.8394 0.41972-1.9751-0.41969-2.8145 0-1.1871 0.59356-1.6293 2.2209-2.8164 2.8145-1.6789 0.83942-4.3036-1.3272-5.6308 0-0.6637 0.66362 0.6636 2.1528 0 2.8164-1.4078 1.4078-7.0395-1.4078-8.4473 0-0.6636 0.66363 0.6637 2.1508 0 2.8145-1.3272 1.3272-4.3035-1.3272-5.6309 0-0.6635 0.66363 0.6637 2.1528 0 2.8164-1.3271 1.3272-4.3036-1.3272-5.6308 0-0.6636 0.66362 0.6636 2.1508 0 2.8145-1.3272 1.3272-4.3037-1.3272-5.6309 0-0.6636 0.66362 0.6636 2.1528 0 2.8164-7.508 0 0.9396-0.9376-2.8144 2.8164-0.6636 0.66362-2.1528-0.66362-2.8164 0-0.6638 0.66362 0.6636 2.1508 0 2.8144-1.3273 1.3272-4.3037-1.3272-5.6309 0-0.6637 0.66362 0.6636 2.1528 0 2.8164-1.8732 1.8732-3.7576-1.8732-5.6309 0-0.6634 0.66362 0.6638 2.1508 0 2.8144-0.6634 0.66362-2.1527-0.66363-2.8164 0-0.6636 0.66362 0.6637 2.1528 0 2.8164-1.3272 1.3272-4.3035-1.3272-5.6308 0-0.6636 0.66363 0.6636 2.1508 0 2.8144-1.3272 1.3272-3.9521-0.83942-5.6309 0-1.187 0.59356-1.6274 2.2228-2.8144 2.8164-1.7696 0.88481-9.494-0.8848-11.264 0-1.1871 0.59356-1.6273 2.2209-2.8145 2.8144-0.7402 0.37017-9.7894 0-11.262 0h-22.525-14.076c-0.9385 0-2.1528-0.66362-2.8164 0s0.6636 2.1528 0 2.8164c-0.3971 0.39706-7.8678 0.28875-8.4454 0-1.1871-0.59356-1.4891-2.8164-2.8164-2.8164-0.6636-0.66362-1.8779 0-2.8164 0h-2.8144-16.893c-0.9385 0-2.1528-0.66362-2.8164 0-0.6637 0.66362 0.6636 2.1528 0 2.8164-1.3273 1.3272-4.3036-1.3272-5.6309 0-0.6636 0.66362 0.6637 2.1508 0 2.8144-0.6636 0.66361-2.1507-0.66365-2.8144 0-0.6636 0.66361 0.6637 2.1528 0 2.8164-0.6636 0.66364-1.8779 0-2.8164 0 0 0.93849 0.4197 1.977 0 2.8164-5.8587 11.717 0.1944-3.0109-5.6309 2.8145-0.6636 0.66364 0.6636 2.1528 0 2.8164s-1.8779 0-2.8164 0c0 0.9385 0.6636 2.1508 0 2.8144-7.508 0 0.9396-0.93757-2.8144 2.8164-0.66361 0.66365-2.1528-0.66361-2.8164 0-0.66361 0.66365 0.66365 2.1508 0 2.8144-0.66361 0.66361-2.1508-0.66361-2.8144 0-0.66365 0.66361 0.66361 2.1528 0 2.8164-1.3273 1.3272-4.3036-1.3273-5.6309 0-0.66361 0.66361 0.66361 2.1508 0 2.8144-7.4927 7.4926 1.8618-7.4927-5.6309 0-0.66361 0.66361 0.66361 2.1528 0 2.8164-0.66361 0.66365-1.8779 0-2.8164 0 0 0.93849 0.66363 2.1508 0 2.8144-0.66361 0.66361-2.1508-0.66364-2.8145 0-0.66365 0.66361 0.66361 2.1528 0 2.8164-0.66365 0.66365-2.1528-0.66361-2.8164 0-1.3273 0-1.6293 2.2209-2.8164 2.8144-0.8394 0.41972-1.876 0-2.8144 0-0.93854 0-2.1528 0.66361-2.8164 0s0.66361-2.1508 0-2.8144c-0.12775-0.12775-12.749 0-14.076 0h-2.8164c-0.93849 0-2.1508 0.66365-2.8144 0-0.49172-0.49172 0.10515-1.4358 0.17969-2.1621 0.21566-0.37221 0.23092-0.6543-0.17969-0.6543-0.66361-0.66364-2.1528-0.66364-2.8164 0-0.31066 0.31065-0.53026 0.94761-0.58593 1.5371-0.71545 0.50759-1.4339 1.0144-2.2285 1.2793-0.89034 0.29669-2.1528-0.66361-2.8164 0-0.66361 0.66365 0.66365 2.1508 0 2.8144-0.66361 0.66361-2.1528-0.66361-2.8164 0-0.66365 0.66361 0.66361 2.1528 0 2.8164-0.66365 0.66361-1.876 0-2.8145 0 0-3.3308-16.386-3.3229-16.893-2.8164-0.66365 0.66361 0.66361 2.1528 0 2.8164-5.6195 5.6195-0.0112-5.6195-5.6309 0-0.66365 0.66361 0.66361 2.1528 0 2.8164-0.66365 0.66359-2.1528-0.66365-2.8164 0-0.66361 0.66359 0.66361 2.1508 0 2.8144s-1.977-0.41972-2.8164 0c-11.717 5.8587 3.0109-0.19441-2.8144 5.6309-0.66365 0.66364-2.1528-0.66361-2.8164 0-0.66361 0.66364 0.66361 2.1528 0 2.8164s-2.1508-0.66361-2.8144 0c-0.66361 0.66361 0.66365 2.1508 0 2.8145-1.3272 1.3272-4.3036-1.3273-5.6309 0-0.66361 0.66361 0.66361 2.1528 0 2.8164-0.66361 0.66365-2.1528-0.66361-2.8164 0-0.66361 0.66365 0.41971 1.975 0 2.8145 0 2.0986-2.1508 3.64-2.8145 5.6309-0.29669 0.8903 0.66361 2.1528 0 2.8164-0.66364 0.66365-2.1528-0.66361-2.8164 0-1.3273 1.3273 1.3272 4.3036 0 5.6309-0.66361 0.66365-2.1508-0.66361-2.8145 0 0 7.508 0.93765-0.93761-2.8164 2.8164-1.4077 1.4078 1.4078 7.0376 0 8.4453-0.66361 0.66361-2.1508-0.66361-2.8145 0-1.3272 1.3273 1.3273 4.3036 0 5.6309-0.66364 0.66361-2.1528-0.66365-2.8164 0-0.66361 0.66361 0.41971 1.977 0 2.8164-0.59358 1.1872-2.2229 1.6273-2.8164 2.8144-0.41972 0.83943 0.66361 2.1528 0 2.8164-0.66365 0.66363-2.1508-0.66361-2.8144 0-1.4078 1.4078 1.4078 7.0395 0 8.4473-0.66361 0.66361-2.1528-0.66365-2.8164 0-0.66361 0.66361 0.66365 2.1508 0 2.8144-0.66361 0.66365-2.1508-0.66361-2.8144 0-0.66365 0.66365 0.66361 2.1528 0 2.8164-0.66365 0.66361-2.1528-0.66365-2.8164 0-0.66361 0.66361 0.66361 2.1508 0 2.8144-0.66361 0.66365-2.1508-0.66361-2.8144 0-0.66361 0.66365 0.66365 2.1528 0 2.8164-0.66361 0.66361-2.1528-0.66361-2.8164 0-0.66364 0.66361 0.66361 2.1508 0 2.8144-0.66364 0.66361-2.1508-0.66361-2.8144 0-0.66365 0.66361 0.66361 2.1528 0 2.8164-0.66365 0.66365-2.1528-0.66361-2.8164 0-0.66361 0.66365 0.66365 2.1508 0 2.8144-0.66361 0.66361-2.1508-0.66361-2.8144 0-0.66365 0.66361 0.66361 2.1528 0 2.8164-0.66365 0.66361-2.1528-0.66361-2.8164 0s0.66361 2.1508 0 2.8144c-0.66361 0.66361-2.1508-0.66365-2.8144 0-0.66361 0.66361 0.41972 1.977 0 2.8164-0.59354 1.1872-2.2228 1.6273-2.8164 2.8144-0.41966 0.83943 0.66365 2.1528 0 2.8164-0.66359 0.66364-2.1528-0.66361-2.8164 0-0.66361 0.66364 0.66361 2.1528 0 2.8164s-2.1508-0.66361-2.8144 0c-0.66361 0.66361 0.66364 2.1508 0 2.8145-0.66361 0.66361-2.1528-0.66361-2.8164 0-1.3273 1.3272 1.3272 4.3036 0 5.6309-0.66365 0.66364-2.1508-0.66361-2.8144 0-0.66361 0.66364 0.66361 2.1528 0 2.8164-0.66361 0.66361-2.1528-0.66365-2.8164 0-3.7463 3.7464 3.7463 1.8845 0 5.6309-0.66361 0.66365-2.1508-0.66361-2.8144 0-0.66365 0.66365 0.41968 1.975 0 2.8144-0.59358 1.1871-2.2229 1.6293-2.8164 2.8164-0.41972 0.83943 0.66361 2.1508 0 2.8144s-2.1508-0.66361-2.8144 0 0.66361 2.1528 0 2.8164-2.1528-0.66361-2.8164 0c-0.66361 0.66361 0.66365 2.1508 0 2.8144-0.66361 0.66361-2.1508-0.66364-2.8144 0-0.66365 0.66361 0.66361 2.1528 0 2.8164-0.66365 0.66365-2.1528-0.66361-2.8164 0-0.66361 0.66365 0.66365 2.1528 0 2.8164-0.66361 0.66361-2.1528-0.66365-2.8164 0-0.66365 0.66361 0.66361 2.1508 0 2.8144-0.66365 0.66365-2.1508-0.66361-2.8145 0-0.66361 0.66365 0.66361 2.1528 0 2.8164-0.66361 0.66361-2.1528-0.66359-2.8164 0-0.66361 0.66361 0.66361 2.1508 0 2.8145-1.3272 1.3272-4.3036-1.3273-5.6309 0 0 7.508 0.93956-0.93761-2.8145 2.8164-0.66361 0.66361 0.66365 2.1508 0 2.8145-0.66361 0.66361-2.1528-0.66361-2.8164 0-0.66365 0.66361 0.66361 2.1528 0 2.8164-0.66365 0.66361-2.1508-0.66361-2.8145 0s0.66361 2.1508 0 2.8145c-0.66361 0.66361-2.1528-0.66365-2.8164 0-0.66361 0.66361 0.66365 2.1528 0 2.8164-0.66361 0.66365-2.1508-0.66361-2.8145 0-0.66363 0.66365 1e-5 1.876 0 2.8145-0.93852 0-2.1528-0.66365-2.8164 0-1.3273 1.3272 1.3272 4.3036 0 5.6309-0.66361 0.66361-2.1508-0.66361-2.8144 0s0.66361 2.1528 0 2.8164-2.1528-0.66361-2.8164 0c-0.66361 0.66361 0.66365 2.1528 0 2.8164-0.66361 0.66361-1.8779 0-2.8164 0 0 0.93849 0.66361 2.1508 0 2.8144-0.66364 0.66365-2.1508-0.66361-2.8144 0-0.66361 0.66365 0.41972 1.977 0 2.8164-0.59357 1.1871-2.2229 1.6273-2.8164 2.8144-0.41971 0.83943 0.66361 2.1528 0 2.8164-0.66364 0.66361-2.1508-0.66361-2.8144 0s0.66361 2.1508 0 2.8144-2.1528-0.66361-2.8164 0 0.66361 2.1528 0 2.8164c-0.66361 0.66361-2.1508-0.66365-2.8144 0-0.66365 0.66361 0.66361 2.1508 0 2.8144-0.66365 0.66361-2.1528-0.66361-2.8164 0-0.66361 0.66361 0.66359 2.1528 0 2.8164-0.66361 0.66361-2.1508-0.66361-2.8145 0-0.66361 0.66361 0.66365 2.1508 0 2.8144-0.66361 0.66361-2.1528-0.66365-2.8164 0-0.66361 0.66361 0.66364 2.1528 0 2.8164-0.66361 0.66365-1.975-0.4197-2.8145 0-1.1872 0.59358-1.6293 2.2228-2.8164 2.8164-0.83944 0.41972-2.1508-0.66365-2.8145 0-0.66364 0.66361 0.66361 2.1508 0 2.8144-0.66364 0.66365-2.1528-0.66361-2.8164 0-0.66361 0.66365 0.66361 2.1528 0 2.8164s-2.1528-0.66361-2.8164 0 0.66361 2.1508 0 2.8144-2.1508-0.66361-2.8144 0c-0.66361 0.66361 0.66364 2.1528 0 2.8164-0.66361 0.66361-2.1528-0.66365-2.8164 0-0.66365 0.66361 0.66361 2.1508 0 2.8144-0.66365 0.66365-2.1508-0.66361-2.8144 0-0.66361 0.66365 0.66365 2.1528 0 2.8164-0.66361 0.66361-2.1528-0.66365-2.8164 0-0.66365 0.66361 0.66361 2.1508 0 2.8144-0.66365 0.66361-2.1508-0.66364-2.8144 0-0.66361 0.66361 0.66361 2.1528 0 2.8164-0.66361 0.66365-2.1528-0.66361-2.8164 0-0.66361 0.66365 0.66365 2.1508 0 2.8144-0.66361 0.66361-2.1508-0.66361-2.8144 0-0.66365 0.66361 0.66361 2.1528 0 2.8164-0.66365 0.66365-2.1528-0.66361-2.8164 0-0.66361 0.66365 0.66361 2.1508 0 2.8144s-2.1508-0.66361-2.8144 0 0.41972 1.977 0 2.8164c-1.1871 2.3742-4.4457 3.2566-5.6328 5.6309-0.41972 0.83943 0.66361 2.1528 0 2.8164-0.66365 0.66361-2.1508-0.66364-2.8145 0-0.66361 0.66361 0.66365 2.1508 0 2.8145-0.66361 0.66364-1.8779 0-2.8164 0 0 0.93853 0.66361 2.1528 0 2.8164-0.66365 0.66361-2.1509-0.66361-2.8144 0-0.66361 0.66361 0.66359 2.1508 0 2.8145-0.66361 0.66361-2.1528-0.66361-2.8164 0s0.66361 2.1528 0 2.8164c-0.66361 0.66361-2.1508-0.66365-2.8144 0-0.66361 0.66361 0.66364 2.1509 0 2.8144-0.66361 0.66365-2.1528-0.66359-2.8164 0-0.66365 0.66365 0.66361 2.1528 0 2.8164-0.66365 0.66361-2.1508-0.66361-2.8144 0-0.66361 0.66361 0.66364 2.1508 0 2.8144-0.66361 0.66361-2.1528-0.66364-2.8164 0-0.66365 0.66361 0.66361 2.1528 0 2.8164-0.66365 0.66365-2.1508-0.66361-2.8144 0-0.66365 0.66365 0.66361 2.1508 0 2.8144-0.66365 0.66361-1.8779 0-2.8164 0 0 0.9385 0.66365 2.1528 0 2.8164-0.66361 0.66365-2.1508-0.66361-2.8144 0-0.66365 0.66365 0.66361 2.1528 0 2.8164-0.66365 0.66361-2.1528-0.66361-2.8164 0s0.41972 1.975 0 2.8144c-0.59357 1.1871-1.8779 1.8779-2.8164 2.8164-1.6559 1.6559-10.61 9.9579-11.262 11.262-0.41972 0.83944 0.66361 2.1508 0 2.8145-0.66365 0.66361-2.1508-0.66361-2.8145 0s0.66361 2.1528 0 2.8164c-0.66361 0.66361-2.1528-0.66364-2.8164 0-0.66361 0.66361 0.66361 2.1508 0 2.8145-0.66361 0.66364-2.1508-0.66361-2.8145 0-0.66361 0.66364 0.66365 2.1528 0 2.8164-0.66361 0.66361-2.1528-0.66361-2.8164 0s0.66361 2.1528 0 2.8164c-0.66361 0.66361-2.1508-0.66365-2.8145 0-0.66361 0.66361 0.66361 2.1508 0 2.8144-0.66361 0.66365-2.1528-0.66361-2.8164 0-0.66361 0.66365 0.41971 1.977 0 2.8164-1.3853 2.7705-9.8764 8.4912-11.262 11.262-0.41972 0.83939 0.66361 2.1508 0 2.8144-0.66361 0.66365-2.1528-0.66361-2.8164 0-0.66361 0.66365 0.66361 2.1528 0 2.8164-0.66361 0.66361-2.1508-0.66365-2.8144 0-0.66361 0.66361 0.66365 2.1508 0 2.8144-0.66361 0.66361-2.1528-0.66365-2.8164 0-0.66364 0.66361 0.66361 2.1528 0 2.8164-0.66364 0.66364-2.1508-0.66361-2.8144 0-5.8254 5.8254 8.901-0.22771-2.8164 5.6309-0.83943 0.41967-2.1508-0.66365-2.8144 0-0.66361 0.66361 0.66361 2.1528 0 2.8164s-2.1528-0.66361-2.8164 0c-0.66359 0.66361 0.66361 2.1508 0 2.8145-0.66359 0.66359-2.1508-0.66361-2.8144 0-0.66361 0.66359 0.66365 2.1528 0 2.8164-0.66361 0.66361-2.1528-0.66365-2.8164 0-0.66361 0.66361 0.66361 2.1508 0 2.8144-0.66361 0.66365-2.1528-0.66361-2.8164 0-0.66361 0.66365 0.66361 2.1528 0 2.8164-0.66361 0.66361-2.1508-0.66365-2.8144 0-0.66361 0.66361 0.66364 2.1508 0 2.8144-0.66361 0.66365-2.1528-0.66361-2.8164 0-0.66365 0.66365 0.66361 2.1528 0 2.8164-0.66365 0.66361-1.975-0.41972-2.8144 0-2.3742 1.1872-3.2566 4.4437-5.6309 5.6309-0.83944 0.41968-1.977-0.41972-2.8164 0-11.717 5.8587 3.011-0.19441-2.8144 5.6309-4.6829 4.6829-0.94791-4.683-5.6309 0-0.66361 0.66361 0.66365 2.1508 0 2.8144-0.66361 0.66361-2.1528-0.66365-2.8164 0-0.66364 0.66361 0 1.8779 0 2.8164-0.93853 0-2.1508-0.66361-2.8144 0-0.66365 0.66365 0.66361 2.1528 0 2.8164-0.66365 0.66361-1.8779 0-2.8164 0 0 0.9385 0.66361 2.1508 0 2.8145-0.66361 0.66361-1.977-0.41972-2.8164 0-1.1872 0.59353-1.6273 2.2229-2.8145 2.8164-0.83943 0.41972-2.1528-0.66361-2.8164 0s0.66361 2.1508 0 2.8145-2.1508-0.66361-2.8145 0c-0.66361 0.66361 0.66365 2.1528 0 2.8164-0.66361 0.66361-1.8779 0-2.8164 0 0 0.9385 0.66361 2.1508 0 2.8145-0.66365 0.66364-2.1508-0.66361-2.8145 0-0.66359 0.66364 0.66365 2.1528 0 2.8164-0.66359 0.66361-2.1528-0.66364-2.8164 0-0.66365 0.66361 0.66361 2.1508 0 2.8145-0.66365 0.66364-2.1508-0.66361-2.8144 0-0.66361 0.66364 0.66361 2.1528 0 2.8164-0.66361 0.66365-2.1528-0.66361-2.8164 0-0.66361 0.66365 0.66361 2.1508 0 2.8145-0.66361 0.66359-2.1508-0.66361-2.8144 0-0.66361 0.66359 0.41971 1.977 0 2.8164-5.8587 11.717 0.19441-3.009-5.6309 2.8164-0.66361 0.66364 0.66361 2.1508 0 2.8144s-2.1528-0.66361-2.8164 0c-0.66361 0.66361 0.66365 2.1528 0 2.8164-0.66361 0.66361-2.1528-0.66365-2.8164 0-0.66364 0.66361 0.66361 2.1508 0 2.8144-0.66364 0.66365-2.1508-0.66361-2.8144 0-0.66361 0.66365 0.66365 2.1528 0 2.8164-0.66361 0.66361-2.1528-0.66361-2.8164 0-0.66365 0.66361 0.66359 2.1508 0 2.8144-0.66365 0.66365-2.1508-0.66361-2.8145 0-0.66361 0.66365 0.66361 2.1528 0 2.8164s-1.977-0.41972-2.8164 0c-1.1871 0.59357-1.6273 2.2209-2.8145 2.8144-0.83939 0.41972-2.1528-0.66361-2.8164 0-0.66365 0.66361 0.66361 2.1528 0 2.8164-1.3273 1.3272-4.3036-1.3272-5.6309 0-0.66365 0.66361 0.66361 2.1508 0 2.8145-0.66365 0.66365-1.975-0.41972-2.8145 0-8.5333 4.2667 2.9005 1.3642-5.6328 5.6309-0.83939 0.41971-2.1508-0.66365-2.8144 0-0.66365 0.66361 0.66361 2.1528 0 2.8164-1.3273 1.3273-4.3036-1.3272-5.6309 0-0.66361 0.66365 0.66365 2.1528 0 2.8164-1.3272 1.3273-4.3036-1.3273-5.6309 0-0.66361 0.66361 0.66365 2.1508 0 2.8144-0.66361 0.66361-1.977-0.41971-2.8164 0-1.1872 0.59354-1.6273 2.2229-2.8144 2.8164-0.83943 0.41972-2.1528-0.66361-2.8164 0-0.66361 0.66365 0.66361 2.1508 0 2.8144s-1.975-0.41971-2.8144 0c-1.1871 0.59358-1.6293 2.2228-2.8164 2.8164-0.83943 0.41968-2.1508-0.66365-2.8144 0-0.66361 0.66361 0.66365 2.1508 0 2.8144-0.66361 0.66365-1.977-0.41968-2.8164 0-2.3742 1.1872-3.2566 4.4438-5.6309 5.6309-0.83944 0.41976-2.1528-0.66361-2.8164 0-0.66361 0.66365 0.66365 2.1528 0 2.8164-0.66361 0.66361-1.9751-0.41972-2.8144 0-1.1871 0.59357-1.6293 2.2209-2.8164 2.8144-0.83943 0.41972-2.1508-0.66361-2.8144 0-0.66361 0.66361 0.66364 2.1528 0 2.8164-0.66361 0.66361-1.977-0.41972-2.8164 0-2.3743 1.1871-3.2566 4.4437-5.6309 5.6309-0.83943 0.41971-2.1508-0.66361-2.8144 0s0.66361 2.1528 0 2.8164c-1.3273 1.3272-3.952-0.83943-5.6309 0-1.6576 1.6576-2.4871 2.5294-3.0332 3.1211 0.72657-0.97502 1.2319-2.2224-2.5996-0.30664-3.3786 1.6893-5.0667 6.758-8.4453 8.4473-0.83943 0.41972-2.1528-0.66361-2.8164 0-0.66365 0.66365 0.66361 2.1508 0 2.8144-1.3273 1.3272-4.3036-1.3272-5.6309 0-0.66361 0.66361 0.66361 2.1528 0 2.8164-1.3272 1.3272-4.3036-1.3273-5.6309 0-0.66365 0.66361 0.66361 2.1508 0 2.8144-1.3273 1.3273-4.3036-1.3272-5.6309 0-0.66365 0.66365 0.66361 2.1528 0 2.8164-0.66365 0.66361-1.975-0.41972-2.8144 0-1.1872 0.59357-1.6293 2.2209-2.8164 2.8144-0.8394 0.41972-2.1528-0.66364-2.8164 0-0.66362 0.66361 0.66362 2.1528 0 2.8164-0.66362 0.66365-2.1508-0.66361-2.8144 0-0.66362 0.66365 0.66362 2.1528 0 2.8164-1.3272 1.3272-4.3036-1.3273-5.6309 0-0.66362 0.66361 0.66362 2.1508 0 2.8144-0.66362 0.66361-2.1528-0.66365-2.8164 0-0.66361 0.66361 0.66363 2.1528 0 2.8164-0.66361 0.66363-1.975-0.41972-2.8144 0-1.1871 0.59356-1.6293 2.2209-2.8164 2.8144-0.83943 0.41971-2.1508-0.66361-2.8145 0s0.66362 2.1528 0 2.8164c-0.66362 0.66361-2.1528-0.66364-2.8164 0-0.66362 0.66361 0.66362 2.1508 0 2.8145-0.66362 0.66364-1.975-0.41972-2.8145 0-2.3742 1.1872-3.2586 4.4437-5.6328 5.6309-0.83942 0.41968-2.1508-0.66365-2.8144 0-0.66362 0.66361 0.66363 2.1528 0 2.8164-0.66362 0.66361-2.1528-0.66361-2.8164 0-0.66363 0.66361 0.66362 2.1508 0 2.8145-0.66363 0.66361-1.975-0.41972-2.8144 0-1.1871 0.59357-1.6293 2.2228-2.8164 2.8164-0.83942 0.41968-2.1508-0.66364-2.8144 0-0.66362 0.66361 0.66362 2.1508 0 2.8145-0.66362 0.66364-2.1528-0.66361-2.8164 0-0.66362 0.66364 0.66362 2.1528 0 2.8164-5.8254 5.8254 0.22788-8.9011-5.6309 2.8164-0.41971 0.83939 0.66363 2.1508 0 2.8144-5.8254 5.8254 0.22787-8.9011-5.6309 2.8164-0.41972 0.83943 0.66362 2.1508 0 2.8144-1.3272 1.3272-4.3036-1.3273-5.6309 0-0.66362 0.66361 0.66363 2.1528 0 2.8164-0.66362 0.66364-1.977-0.41972-2.8164 0-1.1871 0.59357-1.6273 2.2209-2.8145 2.8144-0.8394 0.41972-2.1528-0.66361-2.8164 0s0.66362 2.1528 0 2.8164c-1.3272 1.3272-4.3036-1.3273-5.6309 0-0.66362 0.66361 0.66363 2.1508 0 2.8144-0.66362 0.66365-1.975-0.41968-2.8144 0-1.1871 0.59357-1.6293 2.2228-2.8164 2.8164-0.83943 0.4197-2.1508-0.6637-2.8144 0-0.66362 0.6636 0.66362 2.1507 0 2.8145-1.3272 1.3271-4.3036-1.3274-5.6309 0-0.66362 0.6635 0.66362 2.1528 0 2.8164s-1.977-0.4197-2.8164 0c-1.1871 0.5935-1.6273 2.2209-2.8144 2.8144-0.83942 0.4197-1.977-0.4197-2.8164 0-1.1871 0.5935-1.6293 2.2228-2.8164 2.8164-0.83943 0.4197-2.1508-0.6636-2.8145 0-0.66361 0.6636 0.66362 2.1529 0 2.8164-0.66361 0.6637-2.1528-0.6635-2.8164 0-0.66362 0.6637 0.66362 2.1509 0 2.8145-1.3272 1.3273-4.3036-1.3272-5.6309 0-0.66362 0.6636 0.66362 2.1528 0 2.8164s-1.975-0.4197-2.8145 0c-1.6576 1.6576-2.4871 2.5294-3.0332 3.1211 0.72657-0.975 1.2339-2.2224-2.5977-0.3066-1.1871 0.5935-1.6293 2.2229-2.8164 2.8164-0.83943 0.4197-1.975-0.4198-2.8145 0-1.1871 0.5936-1.6293 2.2209-2.8164 2.8144-0.83942 0.4198-1.977-0.4197-2.8164 0-1.1871 0.5936-1.6273 2.2228-2.8144 2.8164-0.83942 0.4197-2.1528-0.6637-2.8164 0-0.66362 0.6636 0.66362 2.1508 0 2.8145-1.3272 1.3272-4.3036-1.3273-5.6309 0-0.66362 0.6636 0.66362 2.1527 0 2.8164-1.3272 1.3272-4.3036-1.3273-5.6309 0-0.66361 0.6636 0.66363 2.1508 0 2.8144-1.3272 1.3272-3.952-0.8394-5.6308 0-1.1871 0.5935-1.6273 2.2229-2.8145 2.8164-0.83942 0.4198-1.977-0.4196-2.8164 0-1.1871 0.5935-1.6273 2.2228-2.8145 2.8164-0.83942 0.4197-1.977-0.4197-2.8164 0-1.1871 0.5936-1.6293 2.2209-2.8164 2.8145-0.83943 0.4197-1.975-0.4197-2.8144 0-1.1871 0.5936-1.6293 2.2229-2.8164 2.8164-0.83942 0.4197-2.1508-0.6636-2.8144 0s0.66362 2.1508 0 2.8145c-0.66362 0.6636-1.977-0.4197-2.8164 0-1.1871 0.5936-1.6273 2.2228-2.8144 2.8164-0.83942 0.4196-1.977-0.4198-2.8164 0-1.1871 0.5935-1.6273 2.2209-2.8144 2.8144-0.83943 0.4198-1.977-0.4197-2.8164 0-1.1871 0.5936-1.6273 2.2229-2.8144 2.8164-0.83942 0.4199-1.977-0.4197-2.8164 0-14.976 7.488 9.3451-1.8571-5.6309 5.6309-0.83942 0.4197-1.977-0.4197-2.8164 0-1.1871 0.5935-1.6273 2.2209-2.8145 2.8144-0.83942 0.4198-2.1528-0.6635-2.8164 0-0.66363 0.6636 0.66362 2.1528 0 2.8164-0.66363 0.6637-1.975-0.4197-2.8144 0-1.1871 0.5935-1.6293 2.2209-2.8164 2.8145-0.83942 0.4197-1.975-0.4197-2.8144 0-1.1871 0.5936-1.6293 2.2228-2.8164 2.8164-0.83942 0.4197-2.1508-0.6636-2.8144 0s0.66362 2.1528 0 2.8164c-1.3272 1.3273-4.3036-1.3272-5.6309 0-0.66362 0.6636 0.66363 2.1508 0 2.8145-1.3272 1.3273-4.3056-1.3273-5.6328 0-0.66362 0.6635 0.66362 2.1528 0 2.8164-3.5769 3.5769-2.0539-3.5769-5.6309 0-0.66361 0.6636 0.66362 2.1508 0 2.8144-0.66361 0.6637-1.975-0.4197-2.8144 0-1.1871 0.5936-1.6293 2.2229-2.8164 2.8164-0.83943 0.4198-1.975-0.4197-2.8145 0-1.1871 0.5936-1.6293 2.2209-2.8164 2.8145-0.83943 0.4197-2.1508-0.6637-2.8145 0-0.66363 0.6636 0.66362 2.1527 0 2.8164-1.3272 1.3272-3.952-0.8395-5.6309 0-1.1871 0.5935-1.6293 2.2208-2.8164 2.8144-0.83942 0.4197-1.975-0.4197-2.8145 0-1.1871 0.5935-1.6293 2.2229-2.8164 2.8164-1.6788 0.8394-4.3036-1.3273-5.6309 0-0.66362 0.6637 0.66362 2.1509 0 2.8145-3 3-2.6309-3-5.6309 0-0.66362 0.6636 0.66362 2.1528 0 2.8164-1.3272 1.3272-4.3036-1.3272-5.6309 0-0.66362 0.6636 0.66362 2.1508 0 2.8145-1.4078 1.4078-7.0395-1.4078-8.4473 0-0.66362 0.6635 0.66362 2.1528 0 2.8164-1.3272 1.3273-3.952-0.8394-5.6309 0-1.1871 0.5936-1.6273 2.2229-2.8145 2.8164-1.6788 0.8394-3.954-0.8394-5.6328 0-1.1871 0.5936-1.6273 2.2209-2.8145 2.8144-1.6788 0.8395-4.3036-1.3272-5.6309 0-0.66362 0.6637 0.66362 2.1529 0 2.8164-1.3272 1.3273-3.952-0.8394-5.6309 0-1.1871 0.5936-1.6293 2.221-2.8164 2.8145-1.6788 0.8395-3.952-0.8394-5.6309 0-1.1871 0.5936-1.6273 2.2228-2.8145 2.8164-0.83942 0.4197-1.977-0.4198-2.8164 0-1.1871 0.5935-1.6293 2.2209-2.8164 2.8144-1.6788 0.8394-4.3036-1.3273-5.6309 0-0.66362 0.6637 0.66362 2.1528 0 2.8164-1.3272 1.3272-3.952-0.8393-5.6309 0-1.1871 0.5935-1.6273 2.2209-2.8145 2.8145-0.83942 0.4197-2.1528-0.6636-2.8164 0-0.66362 0.6636 0.66362 2.1528 0 2.8164-0.66362 0.6636-1.975-0.4197-2.8145 0-1.1871 0.5936-1.6293 2.2208-2.8164 2.8145-1.6788 0.8394-4.3036-1.3273-5.6309 0-0.66362 0.6636 0.66362 2.1528 0 2.8164-1.3272 1.3273-4.3036-1.3272-5.6309 0-0.66362 0.6636 0.66362 2.1508 0 2.8144s-1.977-0.4197-2.8164 0c-1.1871 0.5936-1.6273 2.2229-2.8145 2.8164-0.83942 0.4197-1.977-0.4197-2.8164 0-1.1871 0.5936-1.6273 2.2229-2.8145 2.8164-0.83942 0.4197-1.977-0.4197-2.8164 0-1.1871 0.5936-1.6273 2.221-2.8145 2.8145-0.83942 0.4198-1.977-0.4197-2.8164 0-1.1871 0.5936-1.6273 2.2228-2.8145 2.8164-0.83942 0.4197-1.977-0.4198-2.8164 0-1.1871 0.5935-1.6273 2.2208-2.8145 2.8144-0.83942 0.4197-2.1528-0.6637-2.8164 0-0.66362 0.6636 0.66362 2.1529 0 2.8164-1.3272 1.3273-3.952-0.8394-5.6309 0-1.1871 0.5935-1.6293 2.2209-2.8164 2.8145-0.83942 0.4197-2.1508-0.6636-2.8145 0s0.66362 2.1528 0 2.8164c-1.3272 1.3272-4.3036-1.3273-5.6309 0-0.66362 0.6636 0.66362 2.1509 0 2.8145-0.66362 0.6636-1.977-0.4197-2.8164 0-1.1871 0.5936-1.6273 2.2228-2.8145 2.8164-0.83942 0.4196-1.977-0.4197-2.8164 0-1.1871 0.5936-1.6273 2.2209-2.8145 2.8144-0.83942 0.4197-1.977-0.4197-2.8164 0-1.1871 0.5936-1.6273 2.2229-2.8145 2.8164-0.83942 0.4197-2.1528-0.6636-2.8164 0-0.66362 0.6636 0.66362 2.1528 0 2.8164-1.3272 1.3273-4.3036-1.3271-5.6309 0-0.66362 0.6638 0.66362 2.1509 0 2.8145-1.3272 1.3273-4.3036-1.3272-5.6309 0-0.66362 0.6637 0.66362 2.1528 0 2.8164-0.66362 0.6637-1.977-0.4197-2.8164 0-1.1871 0.5936-1.6273 2.2208-2.8145 2.8144-0.83942 0.4198-2.1528-0.6636-2.8164 0-0.66362 0.6637 0.66362 2.1527 0 2.8165-0.66362 0.6635-1.975-0.4198-2.8145 0-1.1871 0.5935-1.6293 2.2208-2.8164 2.8144-1.6788 0.8394-4.3036-1.3273-5.6309 0-0.66362 0.6636 0.66362 2.1528 0 2.8164-0.66362 0.6636-2.1508-0.6636-2.8145 0-0.66363 0.6636 0.66362 2.1509 0 2.8145-1.3272 1.3271-4.3056-1.3273-5.6328 0-0.66363 0.6636 0.66362 2.1528 0 2.8164-1.3272 1.3272-4.3036-1.3272-5.6309 0-0.66362 0.6636 0.66362 2.1508 0 2.8144-1.3272 1.3273-4.3036-1.3272-5.6309 0-0.66362 0.6636 0.66363 2.1528 0 2.8164-0.66362 0.6636-1.975-0.4196-2.8145 0-1.1871 0.5936-1.6293 2.221-2.8164 2.8145-0.83943 0.4197-2.1508-0.6636-2.8145 0-0.66361 0.6636 0.66363 2.1528 0 2.8164-1.3272 1.3273-4.3036-1.3272-5.6308 0-0.66362 0.6637 0.66361 2.1528 0 2.8164-0.66362 0.6637-2.1528-0.6636-2.8164 0-0.66362 0.6637 0.66362 2.1508 0 2.8144s-1.975-0.4197-2.8144 0c-1.1871 0.5935-1.6293 2.2228-2.8164 2.8165-0.83942 0.4197-1.977-0.4198-2.8164 0-1.1871 0.5935-1.6273 2.2208-2.8144 2.8144-0.83943 0.4197-2.1528-0.6637-2.8164 0-0.66362 0.6636 0.66362 2.1528 0 2.8164s-2.1508-0.6636-2.8144 0 0.66362 2.1509 0 2.8145c-1.3272 1.3272-4.3036-1.3273-5.6309 0-0.66362 0.6636 0.66362 2.1528 0 2.8164s-2.1528-0.6636-2.8164 0c-0.66361 0.6636 0.66363 2.1508 0 2.8144-1.3272 1.3272-4.3036-1.3272-5.6308 0-0.66363 0.6636 0.66362 2.1528 0 2.8164-0.66363 0.6636-2.1508-0.6636-2.8145 0-0.66363 0.6636 0.66362 2.1509 0 2.8145-1.3272 1.3273-4.3056-1.3272-5.6328 0-0.66362 0.6636 0.66362 2.1528 0 2.8164-0.66362 0.6637-2.1508-0.6636-2.8144 0-0.66362 0.6637 0.66362 2.1508 0 2.8144-1.3272 1.3273-4.3036-1.3272-5.6309 0-0.66362 0.6637 0.66362 2.1529 0 2.8165-1.3272 1.3273-4.3036-1.3272-5.6309 0-0.66363 0.6637 0.66362 2.1527 0 2.8164-1.3272 1.3272-3.952-0.8395-5.6309 0-1.1871 0.5935-1.6293 2.2208-2.8164 2.8144-1.6788 0.8394-4.3036-1.3273-5.6309 0-0.66362 0.6636 0.66362 2.1528 0 2.8164-1.3272 1.3272-4.3036-1.3273-5.6309 0-0.66362 0.6636 0.66363 2.1509 0 2.8145-0.41267 0.4126-1.2051 0.4461-2.1309 0.3457 2.5776 0.8541 5.1607 1.6904 7.7617 2.4707 1.7615 0.5284 6.4598 0 8.4473 0h14.076 22.525c1.268 0 7.5884 0.4284 8.4453 0 1.1871-0.5936 1.6293-2.2229 2.8164-2.8164 0.85685-0.4284 7.1793 0 8.4473 0h19.707c1.268 0 7.5904 0.4284 8.4473 0 1.1871-0.5936 1.5553-2.3948 2.8145-2.8145 1.6016-0.5339 11.426 0 14.078 0h22.523c2.4399 0 9.6327 0.5436 11.264 0 1.9909-0.6636 3.64-2.1528 5.6309-2.8164 1.6891-0.5631 11.83 0 14.076 0h30.971c1.9442 0 10.408 0.428 11.264 0 1.1871-0.5936 1.5553-2.3947 2.8145-2.8144 2.671-0.8904 5.6318 0 8.4473 0h19.707c1.877 0 3.8119 0.4552 5.6328 0 2.0359-0.509 3.64-2.1527 5.6309-2.8164 1.8208-0.6069 11.002 0 14.076 0h30.971 73.203c6.3609 0-1.2584-0.4189 8.4473 2.8164 1.0752 0.3583 9.8365 0.2849 11.262 0 3.7944-0.7589 7.4114-2.4314 11.262-2.8164 5.6031-0.5603 11.264 0 16.895 0h19.707 14.078c1.877 0 3.8099-0.4552 5.6309 0 14.62 3.655-3.006 2.8164 11.262 2.8164h70.389c4.6925 0 9.407-0.467 14.076 0 4.7617 0.4761 9.2927 2.8144 14.078 2.8144 2.0985 0 3.5731-2.4029 5.6308-2.8144 4.6014-0.9203 9.3856 0 14.078 0h28.154 8.4473c2.8155 0 5.6864 0.5521 8.4473 0 2.0578-0.4116 3.5731-2.4048 5.6309-2.8164 2.7608-0.5521 5.6298 0 8.4453 0h25.34c2.8155 0 5.6701 0.4629 8.4473 0 2.9274-0.4879 5.5179-2.3286 8.4453-2.8165 2.7772-0.4628 5.6318 0 8.4473 0h16.893c2.8155 0 5.6701 0.4629 8.4473 0 2.9274-0.4879 5.5198-2.3265 8.4473-2.8144 2.7772-0.4628 5.6298 0 8.4453 0h8.4473c2.8155 0 5.6581 0.3982 8.4453 0 3.8307-0.5472 7.433-2.2691 11.264-2.8164 5.5744-0.7963 11.296 0.6219 16.893 0 61.905-6.8783-22.48 1.0504 30.971-5.6309 4.6563-0.582 9.4748 0.9203 14.076 0 2.9102-0.582 5.5371-2.2324 8.4473-2.8144 1.8406-0.3682 3.7538 0 5.6309 0h8.4473c2.8155 0 5.6845 0.5522 8.4453 0 2.0578-0.4116 3.5731-2.4049 5.6308-2.8164 2.7608-0.5522 5.6318 0 8.4473 0h25.34c2.8155 0 5.6701 0.4629 8.4473 0 2.9274-0.4879 5.5179-2.3266 8.4453-2.8145 2.7772-0.4629 5.6318 0 8.4473 0h25.34 59.125 185.82 25.34c2.8155 0 5.6681 0.4628 8.4453 0 2.9274-0.4879 5.5199-2.3285 8.4473-2.8164 2.7772-0.4629 5.6298 0 8.4453 0h8.4472 25.34 78.834 45.049 16.893c2.8155 0 5.67-0.4629 8.4472 0 2.9274 0.4879 5.518 2.3285 8.4454 2.8164 3.7802 0.63 18.253 0 22.523 0 2.8155 0 5.6701-0.4629 8.4473 0 2.9274 0.4879 5.5023 2.4464 8.4472 2.8145 4.6563 0.582 9.4199-0.582 14.076 0 2.9449 0.3681 5.4977 2.4887 8.4473 2.8164 12.878 0 16.89-0.2061 17.902-0.2949-1.2595 0.1642-3.6577 0.8903 7.4375 3.1093 1.8405 0.3682 3.7538 0 5.6309 0h8.4472c2.8155 0 5.6844-0.5522 8.4453 0 2.0578 0.4116 3.5731 2.4049 5.6309 2.8164 6.4744 1.2949 15.9-1.1042 22.525 0 2.9275 0.4879 5.5351 2.2325 8.4453 2.8145 4.512 0.9024 9.5661-0.9024 14.078 0 2.0578 0.4116 3.5731 2.4049 5.6309 2.8164 7.2193 1.4439 15.304-1.4438 22.523 0 2.0578 0.4116 3.5731 2.4029 5.6309 2.8144 2.7325 0.5465 19.184 0 22.525 0 1.877 0 3.7902-0.3681 5.6308 0 2.9102 0.5821 5.5352 2.2345 8.4453 2.8165 1.8406 0.3681 3.7558 0 5.6329 0h19.707c2.8155 0 5.6864-0.5521 8.4473 0 2.0577 0.4116 3.5949 2.3074 5.6308 2.8164 1.8209 0.4552 3.7539 0 5.6309 0h19.709c3.754 0 7.5806-0.7363 11.262 0 2.9101 0.582 5.537 2.2323 8.4472 2.8144 3.6811 0.7362 7.5078 0 11.262 0h16.892c1.877 0 3.8099-0.4553 5.6309 0 2.0359 0.5089 3.595 2.3074 5.6309 2.8164 1.821 0.4552 3.7538 0 5.6308 0h22.525 5.6309c1.877 0 3.8099-0.4553 5.6308 0 2.0359 0.509 3.64 2.1509 5.6309 2.8145 0.8903 0.2967 1.8759 0 2.8144 0h5.6329 11.262 42.232 28.154c2.3577 0 11.937-0.5353 14.078 0 2.0359 0.509 3.5731 2.4048 5.6309 2.8164 3.6959 0.7392 12.416 0 16.893 0h36.602 39.418c2.7232 0 16.058 0.4175 16.893 0 1.1871-0.5936 1.5288-2.4945 2.8164-2.8164 2.4857-0.6214 12.996 0 16.892 0h36.602 5.6309c0.9385 0 1.975 0.4197 2.8144 0 4.6603-2.3302 0.7571-5.3779 8.4473-2.8145 1.2591 0.4197 1.4891 2.8145 2.8164 2.8145 2.0985 0 3.595-2.3055 5.6309-2.8145 2.5136-0.6284 10.817 0 14.076 0h30.971 30.971 2.8164c0.9385 0 2.1509 0.6636 2.8145 0 0.6637-0.6636-0.6636-2.1528 0-2.8164 0.1277-0.1277 12.751 0 14.078 0h67.572c1.0339 0 11.148 0.1134 11.262 0 0.6636-0.6637-0.6636-2.1508 0-2.8144 0.6636-0.6637 1.8779 0 2.8164 0h14.078 5.6309c-1.3272-1.3273 1.3272-4.3056 0-5.6329-0.6636-0.6636-2.1528 0.6637-2.8164 0-1.3273-1.3272 1.3272-4.3035 0-5.6308-0.6636-0.6636-2.1509 0.6636-2.8145 0s0-1.876 0-2.8145c0-0.6828-0.0911-8.3567 0-8.4472 0.6636-0.6636 2.1509 0.6636 2.8145 0 0.7704-0.7704-0.7637-9.7345 0-11.262 0.5935-1.1871 2.2228-1.6272 2.8164-2.8144 0.5582-1.1163-0.5756-7.8716 0-8.4473 0.6636-0.6636 2.1508 0.6636 2.8144 0 0.9884-0.9883-0.9724-12.133 0-14.078 0.5937-1.1871 2.2231-1.6274 2.8164-2.8144 0.0741-0.1474 0.0741-8.3 0-8.4473-0.5933-1.1871-2.2227-1.6273-2.8164-2.8145-0.8847-1.7695 0.8848-9.494 0-11.264-0.5936-1.1871-2.2208-1.6274-2.8144-2.8145-0.8548-1.7097 0.8548-15.183 0-16.893-0.5936-1.1871-2.2229-1.6293-2.8164-2.8164-0.4197-0.8394 0-1.8779 0-2.8164v-2.8144-16.893-2.8164c0-0.9385 0.6636-2.1507 0-2.8145-0.6636-0.6635-2.1509 0.6638-2.8145 0-1.4078-1.4077 1.4077-7.0394 0-8.4472-0.6636-0.6636-2.1528 0.6636-2.8164 0-0.6637-0.6636 0-1.8779 0-2.8164-0.9385 0-2.1528 0.6635-2.8164 0-0.6637-0.6637 0.6636-2.1509 0-2.8145-0.6637-0.6636-2.1508 0.6636-2.8144 0-0.6637-0.6636 0.6636-2.1528 0-2.8164-0.6637-0.6636-2.1527 0.6636-2.8164 0-0.6636-0.6636 0.6637-2.1508 0-2.8145-1.3272-1.3273-4.3036 1.3273-5.6309 0-0.6636-0.6636 0.6636-2.1528 0-2.8164-1.3272-1.3273-3.952 0.8394-5.6309 0-1.1871-0.5936-1.6273-2.2209-2.8144-2.8144-6.0249-3.0125 0.394 3.0124-5.6309 0-1.187-0.5936-1.6293-2.2229-2.8164-2.8164-1.1164-0.5582-7.8717 0.5755-8.4472 0-0.6637-0.6637 0.6636-2.1508 0-2.8145-1.4077-1.4077-7.0376 1.4078-8.4454 0-0.6636-0.6636 0.6636-2.1527 0-2.8164-1.4077-1.4077-7.0394 1.4078-8.4472 0-0.6636-0.6636 0.6636-2.1508 0-2.8144-0.6775-0.6776-10.584 0.6774-11.262 0-0.6638-0.6636 0.6635-2.1529 0-2.8164-0.7705-0.7705-9.7343 0.7637-11.262 0-1.187-0.5936-1.6293-2.2209-2.8164-2.8145-0.7279-0.364-14.897 0-16.892 0-0.9385 0-2.1509 0.6636-2.8145 0-0.6637-0.6636 0.6636-2.1528 0-2.8164-0.6637-0.6636-1.8778 0-2.8164 0h-16.893-2.8164c-0.9385 0-2.1508 0.6636-2.8144 0-0.6637-0.6636 0.6636-2.1528 0-2.8164-0.7704-0.7704-9.7363 0.7637-11.264 0-1.1871-0.5936-1.6272-2.221-2.8145-2.8145-1.5273-0.7637-10.491 0.7704-11.262 0-0.6636-0.6636 0.6636-2.1528 0-2.8164-1.3272-1.3273-3.9521 0.8394-5.6308 0-1.1872-0.5935-1.6294-2.2209-2.8164-2.8144-1.1164-0.5582-7.8697 0.5756-8.4454 0-0.6635-0.6637 0.6638-2.1528 0-2.8164-1.3271-1.3273-3.9539 0.8394-5.6328 0-1.187-0.5936-1.6273-2.2209-2.8144-2.8145-1.6788-0.8394-3.9521 0.8395-5.6309 0-1.1871-0.5935-1.6293-2.2228-2.8164-2.8164-3.0044-1.5022-2.6265 1.5022-5.6309 0-1.1871-0.5935-1.6273-2.2209-2.8144-2.8144-1.1164-0.5582-7.8716 0.5755-8.4473 0-0.6635-0.6636 0.6638-2.1528 0-2.8164-1.4077-1.4077-7.0394 1.4078-8.4472 0-0.6636-0.6637 0.6636-2.1509 0-2.8145-1.4077-1.4077-7.0378 1.4078-8.4453 0-0.6637-0.6636 0.6635-2.1528 0-2.8164-1.3273-1.3272-4.3037 1.3272-5.6309 0-0.6636-0.6636 0.6636-2.1508 0-2.8145-0.6636-0.6636-2.1528 0.6637-2.8164 0-0.6637-0.6636 0.6636-2.1528 0-2.8164-0.6637-0.6635-2.1509 0.6636-2.8145 0-0.6637-0.6635 0.6636-2.1528 0-2.8164-0.6637-0.6636-1.9769 0.4197-2.8164 0-2.083-1.0415-3.5478-4.5893-5.6308-5.6308-0.8394-0.4198-2.1529 0.6636-2.8164 0-1.3273-1.3273 1.3273-4.3036 0-5.6309-0.6637-0.6636-2.1509 0.6637-2.8145 0-0.6636-0.6636 0.6636-2.1508 0-2.8144-0.6636-0.6637-2.1528 0.6636-2.8164 0-0.6636-0.6637 0.4197-1.9771 0-2.8164-0.3738-0.7476-7.6978-8.0716-8.4453-8.4454-0.8394-0.4196-2.1528 0.6637-2.8164 0-0.6637-0.6635 0.6636-2.1528 0-2.8164-1.3273-1.3273-4.3036 1.3272-5.6309 0-0.6636-0.6636 0.6637-2.1528 0-2.8164-0.6636-0.6635-1.9749 0.4197-2.8144 0-1.1871-0.5935-1.6293-2.2209-2.8164-2.8144-0.8394-0.4197-2.1509 0.6636-2.8145 0s0.6636-2.1529 0-2.8164c-0.6636-0.6638-1.977 0.4196-2.8164 0-1.1871-0.5936-1.6293-2.221-2.8164-2.8145-0.8394-0.4198-2.1508 0.6636-2.8145 0-0.6636-0.6637 0.6637-2.1527 0-2.8164-0.6636-0.66361-2.1528 0.66365-2.8164 0-0.6635-0.66361 0.6636-2.1508 0-2.8144-0.6635-0.66365-2.1508 0.66361-2.8144 0-0.6636-0.66365 0.6636-2.1528 0-2.8164s-2.1529 0.66361-2.8164 0c-0.6637-0.66361 0.6635-2.1508 0-2.8144-0.6637-0.66361-2.1509 0.66364-2.8145 0-0.6637-0.66361 0.4197-1.977 0-2.8164-0.5936-1.1872-2.2229-1.6273-2.8164-2.8144-0.8395-1.6788 1.3272-4.3036 0-5.6309-0.6637-0.66365-2.1507 0.66361-2.8144 0-0.6636-0.66365 0.6637-2.1528 0-2.8164-0.6636-0.66361-2.1527 0.66361-2.8164 0-1.3272-1.3272 1.3273-4.3036 0-5.6309-0.6637-0.66364-2.1509 0.66361-2.8145 0-0.6636-0.66364 0.6636-2.1528 0-2.8164s-2.1528 0.66361-2.8164 0c-1.3272-1.3273 1.3273-4.3036 0-5.6309-0.6636-0.66365-2.1508 0.66361-2.8145 0-0.6636-0.66365 0.6637-2.1508 0-2.8145-0.6636-0.66361-2.1527 0.66361-2.8164 0-0.6635-0.66361 0.4198-1.977 0-2.8164-0.7519-1.5037-6.965-6.963-8.4472-8.4453-1.4823-1.4823-6.9415-7.6954-8.4453-8.4473-0.8394-0.41972-2.1528 0.66365-2.8164 0-0.6637-0.66361 0.6636-2.1528 0-2.8164-0.6637-0.66364-1.975 0.41972-2.8145 0-1.1871-0.59357-1.6293-2.2209-2.8164-2.8144-0.8394-0.41972-1.975 0.41972-2.8145 0-1.187-0.59357-1.6293-2.2228-2.8164-2.8164-0.8394-0.41967-2.1528 0.66365-2.8164 0-0.6636-0.66361 0.6636-2.1508 0-2.8144-1.3272-1.3273-3.952 0.8394-5.6308 0-1.1871-0.59357-1.6274-2.2228-2.8145-2.8164-1.6789-0.83943-4.3036 1.3272-5.6308 0-0.6637-0.66361 0.6636-2.1508 0-2.8144-1.3273-1.3272-3.952 0.83943-5.6309 0-1.1871-0.59354-1.6293-2.2229-2.8164-2.8164-0.8394-0.4197-2.1508 0.66361-2.8145 0-0.6636-0.66363 0.6637-2.1508 0-2.8144-0.6636-0.66361-1.977 0.41972-2.8164 0-2.3742-1.1871-3.2566-4.4438-5.6308-5.6309-0.8394-0.41971-2.1528 0.66361-2.8164 0-0.6636-0.66364 0.6636-2.1528 0-2.8164s-2.1509 0.66361-2.8145 0 0.6636-2.1528 0-2.8164c-0.6636-0.66361-2.1528 0.66365-2.8164 0-0.6637-0.66361 0.6636-2.1508 0-2.8144-0.6637-0.66365-2.1508 0.66361-2.8144 0-0.6637-0.66365 0.6636-2.1528 0-2.8164-0.6637-0.66361-2.1528 0.66361-2.8165 0-0.6635-0.66361 0.6637-2.1508 0-2.8144-0.6635-0.66361-2.1507 0.66361-2.8144 0-0.6636-0.66361 0.4198-1.977 0-2.8164-1.6893-3.3786-6.758-5.0667-8.4473-8.4453-0.4196-0.83943 0.6636-2.1528 0-2.8164s-2.1509 0.66361-2.8144 0c-0.6636-0.66361 0.6635-2.1508 0-2.8144-0.6636-0.66361-2.1528 0.66365-2.8164 0-0.6636-0.66361 0.6636-2.1528 0-2.8164-0.6636-0.66364-2.1509 0.66361-2.8145 0-0.6636-0.66364 0.6636-2.1508 0-2.8144s-2.1528 0.66361-2.8164 0 0.6636-2.1528 0-2.8164c-0.6636-0.66361-2.1528 0.66365-2.8164 0-0.6637-0.66361 0.6636-2.1528 0-2.8164-0.6637-0.66365-2.1508 0.66361-2.8144 0-0.6637-0.66365 0.6636-2.1508 0-2.8145-0.6637-0.66361-2.1528 0.66361-2.8165 0-0.6636-0.66361 0.6637-2.1528 0-2.8164-0.6636-0.66361-1.9749 0.41971-2.8144 0-1.1871-0.59354-1.6292-2.2209-2.8164-2.8145-0.8394-0.4197-2.1509 0.66361-2.8145 0-0.6636-0.66363 0.6636-2.1528 0-2.8164s-2.1528 0.66361-2.8164 0 0.6636-2.1508 0-2.8144-1.8759 0-2.8144 0c0-0.9385 0.6636-2.1528 0-2.8164-5.8254-5.8254 0.2276 8.903-5.6309-2.8144-0.4197-0.83944 0.6636-2.1528 0-2.8164-0.6636-0.66361-2.1528 0.66365-2.8164 0-1.3273-1.3272 1.3272-4.3036 0-5.6309-0.6636-0.66361-2.1528 0.66361-2.8164 0-1.3273-1.3273 1.3272-4.3036 0-5.6309-0.6636-0.66365-2.1508 0.66361-2.8145 0-0.6635-0.66365 0.4198-1.977 0-2.8164-0.5935-1.1871-2.2229-1.6273-2.8164-2.8145-0.4198-0.83943 0.6636-2.1528 0-2.8164-0.6637-0.66361-2.1507 0.66364-2.8144 0-1.3272-1.3272 1.3273-4.3036 0-5.6309-0.6636-0.66361-2.1527 0.66364-2.8164 0-0.6636-0.66361 0.4198-1.9751 0-2.8145-0.5935-1.1872-2.2209-1.6293-2.8145-2.8164-0.4197-0.83944 0.6637-2.1508 0-2.8145-0.6636-0.66361-2.1528 0.66361-2.8164 0-1.3272-1.3272 1.3273-4.3036 0-5.6309-0.6636-0.66361-2.1508 0.66361-2.8144 0s0.6636-2.1528 0-2.8164c-0.6636-0.66361-2.1528 0.66365-2.8164 0-1.3272-1.3272 1.3272-4.3036 0-5.6309-0.6636-0.66361-2.1509 0.66361-2.8145 0s0.6636-2.1528 0-2.8164c-0.6636-0.66361-2.1528 0.66365-2.8164 0-0.6636-0.66361 0.6636-2.1508 0-2.8144-0.6636-0.66365-2.1508 0.66361-2.8144 0-5.8254-5.8254 8.9009 0.22771-2.8165-5.6309-0.8395-0.41972-2.1527 0.66361-2.8164 0-0.6636-0.66361 0.6637-2.1528 0-2.8164-0.6636-0.66361-2.1508 0.66365-2.8144 0-5.8254-5.8253 8.9011 0.22805-2.8164-5.6309-0.8395-0.41971-2.1507 0.66365-2.8145 0-0.6636-0.66361 0.6638-2.1508 0-2.8144-0.6636-0.66365-2.1528 0.66361-2.8164 0-0.6636-0.66365 0.6636-2.1528 0-2.8164-7.508 0 0.9396 0.93956-2.8144-2.8145-0.6636-0.66361-2.1528 0.66361-2.8164 0s0.6636-2.1528 0-2.8164c-0.6636-0.66365-2.1509 0.66361-2.8145 0-1.3272-1.3273 1.3272-4.3036 0-5.6309-0.6636-0.66361-2.1528 0.66364-2.8164 0-0.6636-0.66361 0.6636-2.1528 0-2.8164-0.6636-0.66365-2.1509 0.66361-2.8145 0-0.6635-0.66365 0.6636-2.1508 0-2.8144-0.6635-0.66365-2.1527 0.66361-2.8164 0-0.6636-0.66365 0.6637-2.1528 0-2.8164-0.6636-0.66361-2.1508 0.66365-2.8144 0-0.6637-0.66361 0.6636-2.1508 0-2.8144-0.6637-0.66365-2.1528 0.66361-2.8164 0-1.3273-1.3273 1.3272-4.3036 0-5.6309-0.6637-0.66361-2.1527 0.66361-2.8164 0-0.6636-0.66361 0.4198-1.977 0-2.8164-0.5935-1.1871-2.2209-1.6273-2.8145-2.8144-0.8394-1.6789 1.3273-4.3036 0-5.6309-0.6636-0.66365-1.8779 0-2.8164 0 0-0.93853 0.6637-2.1528 0-2.8164-0.6636-0.66361-2.1508 0.66361-2.8144 0s0.4196-1.977 0-2.8164c-0.5935-1.1871-2.2228-1.6273-2.8164-2.8145-0.4197-0.83943 0.6636-2.1528 0-2.8164s-2.1509 0.66361-2.8145 0 0.6636-2.1508 0-2.8145-2.1528 0.66361-2.8164 0 0.6636-2.1528 0-2.8164c-0.6636-0.66361-2.1508 0.66365-2.8145 0-0.6636-0.66361 0.6637-2.1509 0-2.8144-0.6636-0.66365-2.1528 0.66359-2.8164 0-0.6636-0.66365 0.6636-2.1528 0-2.8164-1.8732-1.8732-3.7577 1.8732-5.6308 0-0.6637-0.66361 0.6636-2.1508 0-2.8144-0.6637-0.66365-2.1509 0.66361-2.8145 0-0.6637-0.66365 0.6636-2.1528 0-2.8164-1.3273-1.3273-4.3055 1.3272-5.6328 0-0.6636-0.66361 0.6637-2.1508 0-2.8144-0.6636-0.66361-1.975 0.41971-2.8144 0-1.1871-0.59354-1.6293-2.2228-2.8164-2.8164-0.8394-0.41968-2.1509 0.66365-2.8145 0-0.6636-0.66361 0.6636-2.1528 0-2.8164s-2.1528 0.66361-2.8164 0 0.6636-2.1508 0-2.8144c-0.6636-0.66361-1.876 0-2.8145 0 0-0.93849 0.6636-2.1528 0-2.8164-0.6636-0.66364-2.1528 0.66361-2.8164 0-0.6636-0.66364 0.4198-1.975 0-2.8144-2.9971-5.9941-2.6338 0.36336-5.6308-5.6309-0.4197-0.83943 0.6636-2.1528 0-2.8164-7.5081 0 0.9395 0.93956-2.8145-2.8145-0.6637-0.66361-2.1527 0.66361-2.8164 0-0.6636-0.66361 0.4198-1.977 0-2.8164-0.5935-1.1871-2.2228-1.6274-2.8164-2.8145-0.4197-0.83943 0.6637-2.1528 0-2.8164-0.6636-0.66361-2.1508 0.66364-2.8144 0-0.6637-0.66361 0.6636-2.1508 0-2.8145-0.6637-0.66364-2.1529 0.66361-2.8164 0-0.6637-0.66364 0.6635-2.1528 0-2.8164-0.6637-0.66361-2.1509 0.66361-2.8145 0-1.3272-1.3273 1.3273-4.3036 0-5.6309-0.6636-0.66361-2.1528 0.66365-2.8164 0-0.6636-0.66361 0.6636-2.1528 0-2.8164s-2.1508 0.66361-2.8145 0c-0.6636-0.66361 0.4198-1.975 0-2.8144-0.5935-1.1871-2.2229-1.6293-2.8164-2.8164-0.4197-0.83943 0.6636-2.1508 0-2.8144-0.6636-0.66365-2.1508 0.66361-2.8144 0-1.3273-1.3273 1.3272-4.3036 0-5.6309-0.6636-0.66365-2.1528 0.66361-2.8164 0-0.6637-0.66365 0.6636-2.1528 0-2.8164-0.6637-0.66361-2.1509 0.66361-2.8145 0-0.6637-0.66361 0.6636-2.1508 0-2.8144-0.6637-0.66361-2.1528 0.66361-2.8164 0-0.6637-0.66361 0.6636-2.1528 0-2.8164-0.6637-0.66361-2.1527 0.66365-2.8164 0-1.3272 0-2.2209-1.6273-2.8144-2.8144-0.8395-1.6789 1.3273-4.3056 0-5.6328-0.6637-0.66365-2.1529 0.66361-2.8164 0-0.6637-0.66365 0.6635-2.1508 0-2.8144-0.6637-0.66361-2.1509 0.66361-2.8145 0-1.3272-1.3273 1.3273-4.3036 0-5.6309-0.6636-0.66365-2.1528 0.66361-2.8164 0-0.6636-0.66365 0.6636-2.1528 0-2.8164s-2.1509 0.66361-2.8145 0 0.6636-2.1508 0-2.8144-2.1528 0.66361-2.8164 0c-0.6635-0.66361 0.6636-2.1528 0-2.8164-0.6635-0.66361-2.1508 0.66365-2.8144 0-0.6636-0.66361 0.6636-2.1508 0-2.8144-0.6636-0.66365-2.1528 0.66361-2.8164 0-0.6636-0.66365 0.6636-2.1528 0-2.8164-0.6636-0.66361-2.1509 0.66365-2.8145 0-0.6637-0.66361 0.4197-1.9751 0-2.8144-1.1872-2.3743-4.4437-3.2586-5.6308-5.6328-0.4198-0.8394 0.6636-2.1508 0-2.8145-0.6637-0.66361-2.1528 0.66365-2.8164 0-1.3272-1.3272 1.3272-4.3036 0-5.6309-0.6637-0.66361-2.1528 0.66365-2.8165 0-0.6636-0.66361 0.6637-2.1528 0-2.8164-0.6636-0.66365-2.1508 0.66361-2.8144 0-1.3272-1.3273 1.3273-4.3036 0-5.6309-0.6636-0.66361-2.1528 0.66361-2.8164 0s0.6636-2.1508 0-2.8145c-0.6636-0.66364-2.1509 0.66361-2.8145 0-0.6635-0.66364 0.6636-2.1528 0-2.8164-0.6635-0.66361-2.1528 0.66361-2.8164 0-1.3273-1.3273 1.3272-4.3036 0-5.6309-0.6636-0.66361-2.1508 0.66365-2.8144 0-1.3273-1.3272 1.3272-4.3036 0-5.6309-0.6636-0.66361-2.1528 0.66365-2.8164 0 0-7.508 0.9395 0.93757-2.8145-2.8164-1.3273-1.3272 1.3272-4.3036 0-5.6309-0.6637-0.66361-2.1528 0.66361-2.8164 0-0.6637-0.66361 0.6636-2.1508 0-2.8144-0.6637-0.66361-2.1508 0.66365-2.8144 0-0.6637-0.66361 0.4197-1.977 0-2.8164-0.5935-1.1871-2.223-1.6273-2.8164-2.8144-0.4198-0.83943 0.6635-2.1528 0-2.8164-0.6637-0.66361-2.1508 0.66363-2.8145 0-0.6636-0.66361 0.6637-2.1508 0-2.8145-0.6636-0.66365-2.1528 0.66361-2.8164 0-0.6636-0.66365 0.4197-1.977 0-2.8164-0.5935-1.1871-2.2228-1.6274-2.8164-2.8145-0.4197-0.83943 0.6636-2.1528 0-2.8164s-2.1509 0.66361-2.8145 0 0.4197-1.975 0-2.8145c-0.5936-1.1871-2.2228-1.6292-2.8164-2.8164-0.4197-0.8394 0.6636-2.1528 0-2.8164-0.6635-0.66365-2.1508 0.66361-2.8144 0-0.6636-0.66365 0.4197-1.975 0-2.8144-1.1871-2.3742-4.4438-3.2566-5.6309-5.6309-0.4197-0.83943 0.6636-2.1528 0-2.8164-0.6637-0.66361-2.1528 0.66361-2.8164 0-0.6637-0.66361 0.6636-2.1508 0-2.8144-0.6637-0.66361-2.1508 0.66365-2.8144 0-0.6637-0.66361 0.4197-1.977 0-2.8164-0.5936-1.1871-2.2228-1.6273-2.8165-2.8144-0.4196-0.83943 0.6638-2.1528 0-2.8164-0.6636-0.66361-2.1507 0.66365-2.8144 0-0.6636-0.66361 0.6637-2.1508 0-2.8144-0.6636-0.66365-1.8779 0-2.8164 0 0-0.93849 0.6636-2.1528 0-2.8164-0.6636-0.66361-2.1509 0.66365-2.8145 0-0.6636-0.66361 0.4197-1.975 0-2.8144-0.5935-1.1872-2.2228-1.6293-2.8164-2.8164-0.4197-0.83943 0.6636-2.1528 0-2.8164-0.6635-0.66361-2.1528 0.66361-2.8164 0 0-7.508 0.9395 0.93955-2.8144-2.8144-1.3274-1.3272 1.3271-4.3036 0-5.6309-0.6636-0.66361-2.1528 0.66364-2.8164 0-1.3273-1.3273 1.3272-4.3036 0-5.6309-0.6636-0.66365-2.1509 0.66361-2.8145 0-1.3273-1.3273 1.3272-4.3036 0-5.6309-0.6636-0.66361-2.1528 0.66364-2.8164 0-1.3273-1.3272 1.3272-4.3036 0-5.6309-0.6637-0.66361-2.1509 0.66361-2.8144 0-1.3273-1.3272 1.327-4.3056 0-5.6328-0.6638-0.66363-2.1528 0.66361-2.8165 0-1.3272-1.3272 1.3273-4.3036 0-5.6308-0.6636-0.66365-2.1507 0.66361-2.8144 0-1.8823-1.8824 1.8824-3.7485 0-5.6309-0.6636-0.66361-2.1527 0.66361-2.8164 0-0.6636-0.66361 0.6637-2.1508 0-2.8145-0.6636-0.66361-2.1509 0.66365-2.8145 0-1.3271-1.3272 1.3274-4.3036 0-5.6309-0.6635-0.66361-2.1528 0.66361-2.8164 0s0.6636-2.1528 0-2.8164c-0.6636-0.66361-2.1509 0.66364-2.8144 0-0.6636-0.66361 0.6635-2.1508 0-2.8145-0.6636-0.66364-2.1528 0.66361-2.8164 0-1.3272-1.3272 1.3272-4.3036 0-5.6308-0.6636-0.66365-2.1529 0.66359-2.8164 0-0.6637-0.66365 0.6635-2.1528 0-2.8164-0.6637-0.66361-2.1509 0.66361-2.8145 0s0.6636-2.1528 0-2.8164-2.1528 0.66361-2.8164 0c-1.3273-1.3272 1.3272-4.3036 0-5.6309-0.6637-0.66364-2.1508 0.66361-2.8145 0-1.3272-1.3272 1.3273-4.3036 0-5.6309-7.508 0 0.9377 0.93957-2.8164-2.8144-0.6636-0.66361-2.1507 0.66361-2.8144 0-0.6636-0.66361 0.4198-1.977 0-2.8164-0.5935-1.1871-2.2228-1.6273-2.8164-2.8144-0.4197-0.83939 0.6637-2.1528 0-2.8164-0.6636-0.66363-2.1509 0.66361-2.8145 0-0.6636-0.66363 0.6636-2.1508 0-2.8144s-2.1528 0.66361-2.8164 0 0.6636-2.1528 0-2.8164c-0.6636-0.66361-2.1508 0.66364-2.8144 0-1.3272-1.3272 1.3273-4.3036 0-5.6309-0.6636-0.66361-2.1529 0.66364-2.8164 0-0.6636-0.66361 0.6635-2.1528 0-2.8164-0.6636-0.66365-1.8779 0-2.8164 0 0-0.93853 0.6636-2.1508 0-2.8144-0.6637-0.66362-2.1509 0.66362-2.8145 0-1.3273-1.3272 1.3272-4.3036 0-5.6309-0.6636-0.66362-2.1528 0.66362-2.8164 0s0.6636-2.1528 0-2.8164-2.1508 0.66362-2.8145 0c-1.4078-1.4078 1.4077-7.0376 0-8.4453-0.6636-0.66363-2.1528 0.66362-2.8164 0-1.3273-1.3272 1.3273-4.3036 0-5.6309-0.6636-0.66362-2.1507 0.66362-2.8144 0-1.3272-1.3272 1.3273-4.3056 0-5.6328-0.6636-0.66362-2.1527 0.66362-2.8164 0-0.6636-0.66362 0.4198-1.975 0-2.8145-0.5935-1.1871-2.2209-1.6293-2.8145-2.8164-0.4197-0.83942 0.6637-2.1508 0-2.8145-0.6636-0.66362-2.1528 0.66363-2.8164 0-0.6636-0.66362 0.6636-2.1528 0-2.8164-0.6636-0.66363-2.1509 0.66362-2.8144 0-1.3273-1.3272 1.3273-4.3036 0-5.6309-0.6636-0.66362-1.8779 0-2.8164 0 0-0.9385 0.6636-2.1508 0-2.8144h-1.3282c-0.7459 0.22776-1.4863 0.55037-1.4863 0h-2.8164c-0.9385 0-1.977 0.41971-2.8164 0-1.1871-0.59356-1.6273-2.2228-2.8145-2.8164-0.8394-0.41971-2.1528 0.66362-2.8164 0-0.6637-0.66362 0.6636-2.1508 0-2.8144-1.4078-1.4078-7.0375 1.4078-8.4453 0-0.6636-0.66362 0.6637-2.1528 0-2.8164-0.2488-0.24886-0.5755-0.31046-0.9355-0.29102zm20.644 8.7383h1.4863c0.5261-0.16062 1.0537-0.27445 1.3282 0 0.9385 0-2.8145-0.9385-2.8145 0zm208.35 304.07c0.9385 0 0.9385-2.8144 0-2.8144s-0.6636 2.1508 0 2.8144zm630.68 627.86c0.6636 0.6636 2.8144 0.9385 2.8144 0s-1.8759 0-2.8144 0zm-2339 8.791c-5.8737-1.9463-11.708-4.0198-17.578-5.9766 3.754 2.8155 7.0646 6.3487 11.262 8.4473 0.83942 0.4197-0.66362-2.1528 0-2.8164 0.99507-0.9951 4.0842 0.1036 6.3164 0.3457zm1097.4-828.11c0-1.3272-3.753 1.8779-2.8145 2.8164 0.9385 0.9385 2.2209-1.6293 2.8145-2.8164zm160.47-66.205c0.239 0.7176 0.4922 1.4492 0.0136 1.4492-0.5411 0-0.2405-0.71623-0.0136-1.4492zm-73.176 39.418c0.22676 0.73236 0.52698 1.4473-0.01367 1.4473-0.47859 0-0.22534-0.72966 0.01367-1.4473z" fill="url(#t13nea)" filter="url(#t13neh)" stroke="#000" stroke-dasharray="0, 10.99999932999999963"/>
	</g>
	<g>
		<path transform="scale(.26458)" d="m1539.8 533.33c-64.228-0.0901-92.391 57.733-139.64 88.977-87.623 30.323-70.872 121.18-141.62 164.99-60.815 40.928-134.76 57.307-206.59 79.492-82.082 12.416-162.91 1.764-240.46 38.084-76.079 1.5924-101.4-57.925-158-71.812-48.165-45.758-19.477-145.6-110.09-153.47-27.515-54.968-102.08-57.624-147.69-101.79-81.174-8.5369-141.62 40.238-216.61 57.516-40.062 3.1923-20.015 123.59-52.684 54.805-29.61-25.52-9.7698 44.317 8.7305 57.375-53.502 47.016-91.622 98.703-135.79 155.3-71.585 34.523-111.86 89.783-146.46 151.49l-2.1094 6.9687c86.106 5.6199 172.06-11.859 258.54-3.957 183.32 11.79 367.12-1.7123 550.82 1.7578 120.49 0.6109 241.01 5.4798 360.23 18.896 230.59-3.6128 461.82 11.887 691.73-10.279 121.21-8.0152 243.19-8.7536 363.33-22.312 8.7477-59.758-11.844-141.87 18.746-208.34 0.1822-67.542-17.851-134.55-10.383-202.58 4.0764-39.47-3.4606-72.348-46.307-31.711-85.862 13.548-174.55 20.047-261.09 14.326-78.811-21.536-145.83-61.304-223.27-82.902-4.6187-0.5457-9.0599-0.80844-13.342-0.81445z" fill="url(#t13ned)" filter="url(#t13nek)" stroke="#000" stroke-dasharray="0, 10.03135626000000080" stroke-width=".91194"/>
	</g>
	<g>
		<path transform="scale(.26458)" d="m985.37 574.18c-22.929 0.26399-46.927 6.0118-71.426 15.863-86.167-46.659-79.911 75.03-151.13 87.322-41.553 61.943-110.75 94.829-190.54 93.252-120.64 21.663-243.71-12.008-349.77-67.904-82.263-62.636-199.22-61.379-286.22-9.0234-0.9215 22.337 6.8382 43.234 11.264 64.756-2.6468 88.802-4.6547 177.55-10.422 266.11-9.5427 86.115-40.588 198.12 50.09 253.64 131.23 80.425 288.86 40.804 433.43 49.875 132.67 9.113 265.37 14.831 398.36 13.348 114.7-5.0483 229.22-17.046 344.09-8.873 193.7 9.208 388.41 1.1264 579.55-32.906 78.814-25.459 196.77-2.4673 245.3-79.273 18.397-73.874-16.433-142.16-36.725-210.87-24.478-81.205 28.357-165.36 11.736-244.11-70.748-6.7503-147.89 31.539-220.51 45.77-92.675 29.521-180.91-37.776-274.57-24.113-77.939-0.99326-145.62-42.646-205.48-87.717-75.196-8.1025-116.43-80.237-185.1-86.842-27.178-27.356-58.408-38.685-91.92-38.299z" fill="url(#t13nee)" filter="url(#t13nel)" stroke="#000" stroke-dasharray="0, 10.99999932999999963"/>
	</g>
	<g>
		<path d="m-40.227 334.92c2.4831 0.49663 4.9579 1.0369 7.4494 1.4899 0.68228 0.12407 1.54 0 2.2348 0h6.7044 17.878 20.113 8.1943 1.4899c0.49662 0 1.0081 0.12044 1.4899 0 0.53866-0.13467 0.95121-0.61026 1.4899-0.74493 0.4818-0.12047 0.99325 0 1.4899 0h4.4696c1.0773 0 4.4279 0.15732 5.2146 0 0.54446-0.1089 0.95121-0.61026 1.4899-0.74494 0.4818-0.12046 0.99325 0 1.4899 0 1.3463 0 4.044 0.16722 5.2146 0 1.0135-0.1448 1.9638-0.61796 2.9797-0.74493 1.4704-0.18381 4.2838 0 5.9595 0h13.409 2.9797c0.99325 0 1.9965 0.14047 2.9797 0 0.77734-0.11105 1.4648-0.59095 2.2348-0.74494 0.48698-0.0974 0.99325 0 1.4899 0h4.4696 2.9797 1.4899c0.24831 0 0.50937-0.0785 0.74494 0 0.52675 0.17558 0.95121 0.61027 1.4899 0.74494 0.58598 0.14647 3.6949 0 4.4696 0h10.429 12.664c0.79632 0 4.4078 0.16134 5.2146 0 0.76999-0.15402 1.4648-0.59095 2.2348-0.74494 0.97396-0.19481 1.9865 0 2.9797 0h8.1943 8.9392c0.99325 0 2.0058-0.19481 2.9798 0 0.76998 0.15399 1.4648 0.59092 2.2348 0.74494 0.48698 0.0974 0.99325 0 1.4899 0h2.9798 8.9392c0.79632 0 4.4078-0.16134 5.2146 0 0.76998 0.15399 1.4648 0.59092 2.2348 0.74493 0.80671 0.16135 4.4182 0 5.2146 0 0.49662 0 1.0081-0.12046 1.4899 0 0.53866 0.13468 0.94021 0.66641 1.4899 0.74494 2.2124 0.31604 4.5-0.3674 6.7044 0 0.54769 0.0913 0.95121 0.61026 1.4899 0.74493 0.48179 0.12044 0.99324 0 1.4899 0 0.77468 0 3.8836-0.1465 4.4696 0 0.53866 0.13467 0.95121 0.61026 1.4899 0.74494 1.1152 0.27879 3.2903-0.23588 4.4696 0 0.76998 0.15398 1.4648 0.59094 2.2348 0.74493 0.48698 0.0974 1-0.0816 1.4899 0 1.0099 0.16833 1.9638 0.61796 2.9798 0.74494 1.4784 0.18481 2.9798 0 4.4696 0 0.49663 0 1.0081-0.12044 1.4899 0 0.53866 0.13467 0.9512 0.61028 1.4899 0.74493 0.4818 0.12046 0.99325 0 1.4899 0h1.4899 9.6842 3.7247c0.49662 0 1.0081-0.12044 1.4899 0 0.53866 0.13467 0.94541 0.63606 1.4899 0.74493 0.73047 0.14611 1.4899 0 2.2348 0h3.7247 13.409 36.502 4.4696c0.74493 0 1.5-0.12245 2.2348 0 0.77455 0.12909 1.4544 0.65823 2.2348 0.74494 1.4808 0.16454 2.9797 0 4.4696 0h11.174 16.389 6.7044c0.74494 0 1.5-0.12245 2.2348 0 0.77454 0.12911 1.4603 0.61584 2.2348 0.74496 0.7348 0.12245 1.4899 0 2.2348 0h6.7044 14.899 28.308 9.6842c1.2416 0 2.5 0.2041 3.7247 0 0.77454-0.12912 1.4603-0.61585 2.2348-0.74496 1.2246-0.2041 2.4831 0 3.7247 0h10.429c1.2416 0 2.5 0.20412 3.7247 0 0.77454-0.12909 1.4648-0.59092 2.2348-0.74494 0.487-0.0974 0.99325 0 1.4899 0h2.2348 7.4494c0.74496 0 1.5043 0.14611 2.2348 0 0.54446-0.10887 0.94541-0.63603 1.4899-0.74493 0.73047-0.14608 1.4899 0 2.2348 0h6.7044c7.1292 0-1.6657 0.33316 3.7247-0.74493 0.73049-0.14608 1.4899 0 2.2348 0h6.7044c0.49665 0 1.0081 0.12046 1.4899 0 0.53866-0.13468 0.9512-0.61027 1.4899-0.74494 0.48178-0.12044 0.99324 0 1.4899 0h1.4899 6.7044c3.775 0-0.88839 0.22209 2.9797-0.74493 0.4818-0.12044 0.99324 0 1.4899 0h1.4899 4.4696c0.49662 0 1.0081 0.12043 1.4899 0 0.53866-0.13468 0.95123-0.61027 1.4899-0.74494 0.4818-0.12044 0.99327 0 1.4899 0h4.4696 1.4899c0.49662 0 1.0081 0.12044 1.4899 0 0.53867-0.13467 0.9512-0.61026 1.4899-0.74493 0.48178-0.12047 0.99324 0 1.4899 0h1.4899 4.4696c4.9413 0-1.0535 0.35115 2.2348-0.74494 0.47115-0.15705 0.99325 0 1.4899 0h1.4899 5.2146c0.74493 0 1.5281 0.23556 2.2348 0 0.33314-0.11104 0.4118-0.63389 0.74493-0.74493 0.42686-0.14229 3.0253 0 3.7247 0h9.6842c1.747 0-0.35119 0.17558 1.4899-0.74494 0.22649-0.11324 2.4654 0 2.9797 0h5.9595 0.74494c0.24831 0 0.52284 0.11105 0.74493 0 0.31409-0.15705 0.43085-0.5879 0.74494-0.74496 0.22209-0.11104 0.49662 0 0.74493 0h0.74494c0.24831 0 0.74493-0.24831 0.74493 0 0 0.24834-0.56933 0.17561-0.74493 0-0.17558-0.17557 0-0.49662 0-0.74493 0-0.51813-0.1347-3.4553 0-3.7247 0.15705-0.31409 0.5879-0.43085 0.74493-0.74494 0.25728-0.51456-0.26149-3.4632 0-3.7247 0.1756-0.17557 0.56936 0.17561 0.74496 0 0.26149-0.26148-0.25728-3.2101 0-3.7247 0.15703-0.31408 0.58788-0.43084 0.74493-0.74493 0.0963-0.19262 0-3.9416 0-4.4696v-0.74494c0-0.24831-0.1756-0.56936 0-0.74493 0.17558-0.17558 0.56936 0.17557 0.74494 0 0.17558-0.17558 0-0.49663 0-0.74494v-0.74493c0-0.528-0.0963-4.277 0-4.4696 0.15703-0.31411 0.58788-0.43085 0.74493-0.74496 0.11335-0.22669 0-1.8993 0-2.2348v-5.2145c0-0.33549-0.11334-2.0081 0-2.2348 0.15703-0.31409 0.58788-0.43085 0.74494-0.74494 0.11104-0.22209 0-0.49662 0-0.74493v-0.74493-4.4696c0-0.33549-0.11335-2.0081 0-2.2348 0.15705-0.31409 0.58788-0.43085 0.74493-0.74493 0.11105-0.2221 0-0.49663 0-0.74494v-0.74493-4.4696c0-0.33546-0.11335-2.0081 0-2.2348 0.92051-1.841 0.74494 0.25715 0.74494-1.4899 0-0.51813-0.1347-3.4553 0-3.7247 0.15705-0.31411 0.5879-0.43085 0.74493-0.74493 0.20206-0.40413-0.20383-2.7759 0-2.9798 0.17558-0.17558 0.56936 0.17558 0.74494 0 0.26148-0.26149-0.25729-3.2101 0-3.7247 0.15705-0.31409 0.5879-0.43085 0.74493-0.74493 0.2341-0.46821-0.2341-2.5116 0-2.9798 0.15706-0.31409 0.5879-0.43085 0.74493-0.74494 0.29798-0.59595-0.29797-1.6389 0-2.2348 0.15706-0.31409 0.58791-0.43084 0.74496-0.74493 0.23411-0.46821-0.23412-2.5115 0-2.9798 0.15704-0.31409 0.58788-0.43085 0.74494-0.74494 0.29797-0.59595-0.29797-1.6389 0-2.2348 0.15703-0.31409 0.58788-0.43084 0.74493-0.74493 0.23411-0.46821-0.2341-2.5115 0-2.9798 0.15703-0.31409 0.58788-0.43084 0.74494-0.74494 0.23497-0.46995-0.23498-3.2547 0-3.7247 0.15703-0.31409 0.58788-0.43085 0.74493-0.74494 0.0979-0.19587 0-2.5902 0-2.9797 0-0.18067-0.0241-2.2109 0-2.2348 0.17558-0.17559 0.56936 0.17558 0.74494 0 0.17557-0.17559 0-0.49663 0-0.74494v-0.74494-7.4494-18.623-12.664-5.2146c0-0.33549 0.11334-2.0081 0-2.2348-0.15706-0.31409-0.58791-0.43084-0.74494-0.74494-0.1347-0.26939 0-3.2066 0-3.7247v-8.1943c0-0.27356 0.03-2.9498 0-2.9797-0.17558-0.17558-0.56935 0.17558-0.74493 0-0.03-0.03 0-2.7062 0-2.9798v-5.9595-0.74494c0-0.24831-0.17558-0.56935 0-0.74493 0.17558-0.17559 0.56935 0.17558 0.74493 0 0.17558-0.17559 0-0.49663 0-0.74494v-3.7247-0.74493c0-0.24831 0.17558-0.56935 0-0.74494-0.0745-0.0745-2.1603-0.0745-2.2348 0-0.1756 0.17559 0.17558 0.56935 0 0.74494-0.37248 0.37247-1.8624-0.37247-2.2348 0-0.17558 0.17558 0.1756 0.56935 0 0.74493-0.03 0.03-2.7062 0-2.9797 0s-2.9498-0.03-2.9797 0c-0.1756 0.17559 0.24832 0.74494 0 0.74494-0.35118 0-0.39377-0.74494-0.74493-0.74494-0.35118 0-0.43085 0.58789-0.74496 0.74494-0.26937 0.1347-3.2065 0-3.7247 0-0.35124 0-3.6909-0.0338-3.7247 0-0.17561 0.17558 0.17557 0.56936 0 0.74494-0.1523 0.15229-1.9394-0.14768-2.2348 0-0.31409 0.15704-0.43085 0.58789-0.74494 0.74494-0.44418 0.22209-1.1387-0.35117-1.4899 0-0.17557 0.17558 0.17558 0.56935 0 0.74493-0.17925 0.17926-2.8005-0.17925-2.9797 0-0.17558 0.17558 0.17557 0.56936 0 0.74494-0.26149 0.26149-3.2101-0.25728-3.7247 0-0.31409 0.15705-0.43085 0.58789-0.74494 0.74494-0.40412 0.20206-2.7759-0.20384-2.9797 0-0.17558 0.17558 0.17557 0.56935 0 0.74493-0.37248 0.37247-1.8624-0.37247-2.2348 0-0.1756 0.17559 0.17558 0.56935 0 0.74494-0.1756 0.17558-0.56935-0.17559-0.74493 0-0.17561 0.17558 0.11104 0.52284 0 0.74493-0.15706 0.3141-0.58791 0.43085-0.74496 0.74494-0.11105 0.2221 0.1756 0.56936 0 0.74494-0.17558 0.17558-0.56933-0.17558-0.74494 0-0.17557 0.17558 0.17561 0.56935 0 0.74494-0.17557 0.17558-0.56935-0.17559-0.74493 0-0.17558 0.17558 0.17558 0.56935 0 0.74493-0.49559 0.49561-0.99425-0.49561-1.4899 0-0.17558 0.17559 0.11105 0.52284 0 0.74494-1.5501 3.1002 0.0514-0.79636-1.4899 0.74494-0.17558 0.17558 0.17558 0.56935 0 0.74493-0.49562 0.49561-0.99428-0.49561-1.4899 0-0.17558 0.17559 0.17558 0.56936 0 0.74494s-0.74493 0.24831-0.74493 0 0.99324 0 0.74493 0c-4.2213 0-0.24831-0.49662-1.4899 0.74493-0.1756 0.17559-0.49665 0-0.74496 0h-3.7247c-0.24831 0-0.56936-0.17558-0.74493 0-0.17558 0.17559 0.17557 0.56936 0 0.74494-0.0338 0.0338-3.3734 0-3.7247 0-0.18068 0-2.2108-0.024-2.2348 0-0.17558 0.17558 0.24831 0.74494 0 0.74494-0.35116 0-0.43085-0.58789-0.74494-0.74494-1.6272-0.81362 4e-3 2.2386-1.4899 0.74494-0.17558-0.17558 0.17558-0.56936 0-0.74494s-0.56935-0.17558-0.74493 0 0.17558 0.56936 0 0.74494-0.49663 0-0.74494 0c-1.9865 0 0.24831 0.24831-0.74493-0.74494-0.17558-0.17558-0.49662 0-0.74494 0h-0.74493-6.7044-11.174c-0.18066 0-2.2108 0.024-2.2348 0-0.17557-0.17558 0.17558-0.56935 0-0.74494-0.0745-0.0745-2.1603-0.0745-2.2348 0-0.17558 0.17559 0.17558 0.56936 0 0.74494s-0.49662 0-0.74493 0h-3.7247c-0.24831 0-0.56933-0.17558-0.74494 0-0.17557 0.17558 0.17561 0.56936 0 0.74494-0.17557 0.17558-0.49662 0-0.74493 0-0.35124 0-3.6909-0.0338-3.7247 0-0.17558 0.17558 0.17557 0.56935 0 0.74494-0.17558 0.17558-0.49663 0-0.74494 0h-3.7247c-0.24831 0-0.56935 0.17558-0.74493 0-0.17558-0.17559 0.17558-0.56936 0-0.74494-0.37245-0.37247-1.8624 0.37247-2.2348 0-0.17558-0.17558 0.17557-0.56936 0-0.74494-0.35118-0.35116-1.0457 0.2221-1.4899 0-0.31409-0.15704-0.43085-0.58789-0.74494-0.74494-0.44421-0.22209-1.1387 0.35117-1.4899 0-0.17558-0.17558 0.1756-0.56935 0-0.74493-0.17558-0.17558-0.52282 0.11105-0.74494 0-0.31408-0.15705-0.43082-0.58789-0.74493-0.74494-0.22209-0.11105-0.56936 0.17559-0.74493 0-0.17558-0.17558 0.17557-0.56935 0-0.74493-0.4956-0.49562-0.99426 0.49561-1.4899 0-0.17558-0.17559 0.17557-0.56936 0-0.74494-0.35116-0.35117-1.1387 0.35117-1.4899 0-0.17558-0.17559 0.17558-0.56935 0-0.74494-0.37248-0.37247-1.8624 0.37247-2.2348 0-0.1756-0.17558 0.17558-0.56935 0-0.74493-0.35118-0.35117-1.0457 0.22209-1.4899 0-0.31409-0.15705-0.43082-0.5879-0.74493-0.74494-0.2221-0.11105-0.52285 0.11105-0.74494 0-0.31409-0.15705-0.43085-0.58789-0.74493-0.74494-0.2267-0.11335-1.8993 0-2.2348 0-0.24831 0-0.56935-0.17558-0.74493 0s0.17558 0.56936 0 0.74494c-0.37248 0.37247-1.8624-0.37247-2.2348 0-0.17561 0.17558 0.17557 0.56935 0 0.74494-0.03 0.03-2.7062 0-2.9798 0-0.18066 0-2.2109 0.024-2.2348 0-0.17558-0.17559 0.17558-0.56936 0-0.74494s-0.49662 0-0.74494 0c-0.35123 0-3.6909-0.0338-3.7247 0-0.17558 0.17558 0.1756 0.56935 0 0.74494-0.23067 0.23066-3.494-0.23067-3.7247 0-0.17557 0.17558 0.17558 0.56935 0 0.74493-0.37248 0.37247-1.8623-0.37247-2.2348 0-0.17558 0.17559 0.17558 0.56935 0 0.74494-0.37248 0.37247-1.8624-0.37247-2.2348 0-0.17558 0.17558 0.17561 0.56935 0 0.74494-0.17925 0.17925-2.8005-0.17926-2.9797 0-0.17557 0.17558 0.17558 0.56935 0 0.74493-0.49561 0.49561-0.99425-0.49561-1.4899 0-0.17558 0.17559 0.17557 0.56936 0 0.74494-0.35116 0.35117-1.1387-0.35117-1.4899 0-0.17558 0.17558 0.17557 0.56935 0 0.74493-0.49562 0.49561-0.99428-0.4956-1.4899 0-0.17561 0.17559 0.17558 0.56936 0 0.74494-0.17561 0.17558-0.56936-0.17558-0.74494 0-0.1756 0.17558 0.17558 0.56936 0 0.74494-0.35118 0.35116-1.1387-0.35117-1.4899 0-0.17558 0.17558 0.1756 0.56935 0 0.74494-0.17558 0.17558-0.56936-0.17559-0.74494 0-0.17557 0.17558 0.17558 0.56935 0 0.74493-0.17557 0.17559-0.56935-0.17558-0.74493 0-0.17558 0.17559 0.17558 0.56935 0 0.74494-0.35116 0.35117-1.1387-0.35117-1.4899 0-0.17558 0.17558 0.17558 0.56935 0 0.74493-0.17558 0.17559-0.56936-0.17558-0.74493 0-0.17558 0.17559 0.17557 0.56936 0 0.74494-0.35118 0.35117-1.1387-0.35116-1.4899 0-0.17558 0.17558 0.17558 0.56936 0 0.74494s-0.49662 0-0.74494 0h-0.74493c-0.24831 0-0.74496 0.24831-0.74496 0s0.99327 0 0.74496 0c-4.2213 0-0.24831-0.49662-1.4899 0.74494-0.35115 0.35116-1.0457-0.2221-1.4899 0-0.31409 0.15704-0.43085 0.58789-0.74494 0.74493-0.44418 0.2221-1.1387-0.35117-1.4899 0-0.17558 0.17559 0.17558 0.56936 0 0.74494-0.17925 0.17925-2.8005-0.17926-2.9797 0-0.1756 0.17558 0.17558 0.56935 0 0.74494-0.35118 0.35116-1.1387-0.35117-1.4899 0-0.17558 0.17558 0.1756 0.56935 0 0.74493-0.35116 0.35117-1.1387-0.35116-1.4899 0-0.17558 0.17559 0.17558 0.56936 0 0.74494-0.35115 0.35117-1.0457-0.2221-1.4899 0-0.31408 0.15704-0.43085 0.58789-0.74493 0.74493-0.22209 0.11105-0.56936-0.17558-0.74494 0-0.17557 0.17559 0.17558 0.56936 0 0.74494-0.35118 0.35117-1.1387-0.35116-1.4899 0-0.17557 0.17558 0.17558 0.56936 0 0.74494-0.17557 0.17558-0.52284-0.11105-0.74493 0-0.31411 0.15704-0.43085 0.58789-0.74493 0.74494-0.22212 0.11104-0.56936-0.17559-0.74496 0-0.17558 0.17558 0.1756 0.56935 0 0.74493-0.17558 0.17559-0.52282-0.11105-0.74494 0-0.31409 0.15705-0.43082 0.58789-0.74493 0.74494-0.22209 0.11105-0.56936-0.17559-0.74494 0-0.17558 0.17558 0.17558 0.56935 0 0.74493-0.17558 0.17559-0.52284-0.11104-0.74493 0-0.31409 0.15705-0.43085 0.5879-0.74494 0.74494-0.22209 0.11105-0.56935-0.17558-0.74493 0s0.17558 0.56936 0 0.74494c-0.49562 0.49561-0.99428-0.49561-1.4899 0-0.17558 0.17558 0.17558 0.56935 0 0.74494-0.17558 0.17558-0.56936-0.17559-0.74493 0-0.17561 0.17558 0.17557 0.56935 0 0.74493-0.35119 0.35117-1.1387-0.35116-1.4899 0-0.17558 0.17559 0.1756 0.56936 0 0.74494-0.17558 0.17558-0.56933-0.17558-0.74493 0-0.17558 0.17558 0.1756 0.56935 0 0.74494-0.35116 0.35116-1.1387-0.35117-1.4899 0-0.17558 0.17558 0.17558 0.56935 0 0.74493-0.49559 0.49561-0.99425-0.49561-1.4899 0-0.17558 0.17559 0.17558 0.56935 0 0.74494-0.35116 0.35117-1.1387-0.35117-1.4899 0-0.17558 0.17558 0.17558 0.56935 0 0.74493-0.35118 0.35117-1.1387-0.35116-1.4899 0-0.1756 0.17559 0.17558 0.56936 0 0.74494-0.1756 0.17558-0.56936-0.17558-0.74493 0-0.17561 0.17558 0.17557 0.56936 0 0.74494-0.35118 0.35116-1.1387-0.35117-1.4899 0-0.17558 0.17558 0.17561 0.56935 0 0.74494-0.17558 0.17558-0.56933-0.17559-0.74493 0-0.17558 0.17558 0.1756 0.56935 0 0.74493-0.17558 0.17559-0.52282-0.11105-0.74494 0-0.31408 0.15705-0.43084 0.58789-0.74493 0.74494-0.22209 0.11105-0.56936-0.17559-0.74494 0-0.17557 0.17558 0.17558 0.56935 0 0.74494-0.49561 0.49561-0.99425-0.49562-1.4899 0-0.17558 0.17558 0.17557 0.56935 0 0.74493-0.17558 0.17559-0.56936-0.17558-0.74494 0-0.17558 0.17559 0.17558 0.56936 0 0.74494-0.49562 0.49561-0.99428-0.49561-1.4899 0-0.1756 0.17558 0.17558 0.56935 0 0.74494-0.35118 0.35116-1.1387-0.35117-1.4899 0-0.17558 0.17558 0.1756 0.56935 0 0.74493-0.17558 0.17558-0.52282-0.11105-0.74494 0-0.31408 0.15705-0.43082 0.58789-0.74493 0.74494-0.22209 0.11105-0.56936-0.17558-0.74494 0-0.17557 0.17558 0.17558 0.56935 0 0.74494-0.35115 0.35116-1.1387-0.35117-1.4899 0-0.17558 0.17558 0.17557 0.56935 0 0.74493-0.35116 0.35117-1.1387-0.35117-1.4899 0-0.17558 0.17559 0.17557 0.56935 0 0.74494-0.35118 0.35117-1.1387-0.35117-1.4899 0-0.17561 0.17558 0.17558 0.56935 0 0.74493-0.37248 0.37247-1.8624-0.37246-2.2348 0-0.17558 0.17559 0.1756 0.56936 0 0.74494-0.49559 0.49561-0.99425-0.49561-1.4899 0-0.17558 0.17558 0.17558 0.56936 0 0.74494-0.35116 0.35116-1.1387-0.35117-1.4899 0-0.17558 0.17558 0.17558 0.56935 0 0.74494-0.49562 0.49561-0.99425-0.49561-1.4899 0-0.17558 0.17558 0.17558 0.56935 0 0.74493-0.35118 0.35117-1.1387-0.35116-1.4899 0-0.17557 0.17559 0.17558 0.56936 0 0.74494-0.49561 0.49561-0.99427-0.49561-1.4899 0-0.1756 0.17558 0.17558 0.56935 0 0.74494-0.35118 0.35116-1.0457-0.2221-1.4899 0-0.31409 0.15704-0.43082 0.58788-0.74493 0.74493-0.2221 0.11105-0.52285-0.11105-0.74494 0-0.31409 0.15705-0.43085 0.58789-0.74493 0.74494-0.22209 0.11105-0.52285-0.11105-0.74494 0-0.31408 0.15705-0.43085 0.58789-0.74493 0.74494-0.22209 0.11104-0.52285-0.11105-0.74494 0-0.31408 0.15704-0.43084 0.58789-0.74493 0.74493-0.22209 0.11105-0.52284-0.11105-0.74494 0-0.31411 0.15705-0.43084 0.58789-0.74493 0.74494-0.44421 0.2221-1.1387-0.35117-1.4899 0-0.17558 0.17558 0.1756 0.56935 0 0.74494-0.35116 0.35116-1.1387-0.35117-1.4899 0-0.17558 0.17558 0.17557 0.56935 0 0.74493-0.37246 0.37247-1.8623-0.37247-2.2348 0-0.17557 0.17559 0.17558 0.56935 0 0.74494-0.35115 0.35117-1.0457-0.2221-1.4899 0-0.31408 0.15705-0.43084 0.58789-0.74493 0.74493-0.44421 0.2221-1.1387-0.35116-1.4899 0-0.1756 0.17559 0.17558 0.56936 0 0.74494-0.15229 0.1523-1.9394-0.14768-2.2348 0-0.31408 0.15705-0.43085 0.58789-0.74493 0.74494-0.22209 0.11105-0.52285-0.11105-0.74494 0-0.31408 0.15704-0.43084 0.58789-0.74493 0.74494-0.44418 0.22209-1.0457-0.2221-1.4899 0-0.31409 0.15704-0.43085 0.58789-0.74493 0.74493-0.44421 0.2221-1.1387-0.35116-1.4899 0-0.17561 0.17559 0.17557 0.56936 0 0.74494-0.35118 0.35117-1.0457-0.2221-1.4899 0-0.31409 0.15705-0.43082 0.58789-0.74493 0.74494-0.44419 0.22209-1.1387-0.35117-1.4899 0-0.17558 0.17558 0.17558 0.56935 0 0.74493-0.37246 0.37247-1.8624-0.37247-2.2348 0-0.17558 0.17559 0.17557 0.56936 0 0.74494-0.17558 0.17558-0.49663 0-0.74494 0h-0.74493-0.74494c-0.24831 0-0.52284-0.11105-0.74493 0-0.31412 0.15705-0.43085 0.58789-0.74496 0.74493-0.4041 0.20206-2.7759-0.20382-2.9797 0-0.17558 0.17559 0.17558 0.56936 0 0.74494-0.37245 0.37247-1.8624-0.37247-2.2348 0-0.17558 0.17558 0.17557 0.56936 0 0.74494-0.1523 0.15229-1.9394-0.14768-2.2348 0-0.31411 0.15705-0.43084 0.58789-0.74493 0.74494-0.79298 0.39648-0.69691-0.39649-1.4899 0-0.31408 0.15704-0.43084 0.58789-0.74493 0.74493-0.44418 0.2221-1.1387-0.35117-1.4899 0-0.17558 0.17559 0.17558 0.56936 0 0.74494-0.35115 0.35117-1.0457-0.2221-1.4899 0-0.31408 0.15705-0.43085 0.58789-0.74493 0.74494-0.44421 0.22209-1.1387-0.35117-1.4899 0-0.1756 0.17558 0.17558 0.56935 0 0.74493-0.37248 0.37247-1.8624-0.37247-2.2348 0-0.17558 0.17559 0.1756 0.56936 0 0.74494-0.15229 0.15229-1.9394-0.14768-2.2348 0-0.31409 0.15704-0.43085 0.58789-0.74494 0.74494-0.44418 0.22209-1.1387-0.35117-1.4899 0-0.17557 0.17558 0.17558 0.56935 0 0.74493-0.15229 0.15229-1.9394-0.14768-2.2348 0-0.31411 0.15705-0.43085 0.58789-0.74493 0.74494-0.44421 0.2221-1.0457-0.2221-1.4899 0-0.31409 0.15705-0.43085 0.58789-0.74493 0.74494-0.44419 0.22209-1.0457-0.2221-1.4899 0-0.31409 0.15704-0.43085 0.58789-0.74494 0.74493-0.44418 0.2221-1.0187-0.15704-1.4899 0-0.52675 0.17559-0.96313 0.56936-1.4899 0.74494-0.47115 0.15705-1.0457-0.2221-1.4899 0-0.31409 0.15705-0.43082 0.58789-0.74493 0.74493-0.22209 0.11106-0.50935-0.0785-0.74494 0-0.52673 0.17559-0.96311 0.56936-1.4899 0.74494-0.47114 0.15705-1.0457-0.22209-1.4899 0-0.31408 0.15705-0.43084 0.58789-0.74493 0.74494-0.22209 0.11105-0.52284-0.11105-0.74493 0-0.31409 0.15704-0.43085 0.58789-0.74494 0.74494-0.22212 0.11104-0.50406-0.0602-0.74493 0-0.76179 0.19044-1.4648 0.59093-2.2348 0.74493-0.48697 0.0974-1.0081-0.12045-1.4899 0-1.0773 0.26934-1.9262 1.1387-2.9797 1.4899-0.47114 0.15704-1.0457-0.2221-1.4899 0-0.31409 0.15704-0.43084 0.58789-0.74494 0.74493-0.22209 0.11105-0.49662 0-0.74493 0-0.49662 0-1.0187-0.15704-1.4899 0-0.33315 0.11105-0.43085 0.58789-0.74494 0.74494-0.2221 0.11105-0.52284-0.11105-0.74494 0-0.31409 0.15705-0.43084 0.58789-0.74493 0.74494-0.4442 0.22209-1.0187-0.15705-1.4899 0-0.52675 0.17558-0.96312 0.56935-1.4899 0.74493-0.23557 0.0785-0.52284-0.11105-0.74494 0-0.31409 0.15705-0.43084 0.58789-0.74493 0.74494-0.2221 0.11105-0.49663 0-0.74494 0-0.49663 0-1.0187-0.15705-1.4899 0-0.33315 0.11105-0.43085 0.58789-0.74494 0.74494-4.4992 2.2496-0.3154-0.10739-3.7247 0.74493-0.53867 0.13467-0.96313 0.56935-1.4899 0.74494-0.23557 0.0785-0.52284-0.11105-0.74494 0-0.31409 0.15705-0.41178 0.63389-0.74493 0.74494-0.47114 0.15704-0.99325 0-1.4899 0-0.24832 0-0.52284-0.11105-0.74494 0-0.31409 0.15704-0.43085 0.58789-0.74494 0.74493-0.22209 0.11105-0.50937-0.0785-0.74493 0-0.52675 0.17559-0.96313 0.56936-1.4899 0.74494-0.23557 0.0785-0.52284-0.11105-0.74493 0-0.3141 0.15704-0.4118 0.63389-0.74494 0.74494-0.47114 0.15704-0.99325 0-1.4899 0-0.24832 0-0.52284-0.11105-0.74494 0-0.31409 0.15704-0.49662 0.49662-0.74494 0.74493-0.49662 0-1.0187-0.15704-1.4899 0-0.33315 0.11105-0.41179 0.63389-0.74494 0.74494-0.47114 0.15705-1.0187-0.15705-1.4899 0-0.33315 0.11105-0.43085 0.58789-0.74494 0.74494-0.22209 0.11105-0.50404-0.0602-0.74493 0-1.5236 0.38089-2.946 1.109-4.4696 1.4899-0.2409 0.0602-0.50937-0.0785-0.74494 0-0.52675 0.17558-0.96312 0.56935-1.4899 0.74494-0.47113 0.15704-1.0457-0.2221-1.4899 0-0.31409 0.15704-0.41179 0.63388-0.74493 0.74493-0.47114 0.15705-1.0187-0.15704-1.4899 0-0.33314 0.11105-0.41179 0.63389-0.74493 0.74494-0.47114 0.15705-1.0187-0.15705-1.4899 0-0.33314 0.11105-0.43084 0.58789-0.74494 0.74494-0.22209 0.11104-0.49662 0-0.74493 0-0.49663 0-1.0187-0.15705-1.4899 0-0.33315 0.11104-0.43085 0.58789-0.74494 0.74493-0.2221 0.11105-0.50937-0.0785-0.74494 0-0.52675 0.17559-0.96312 0.56936-1.4899 0.74494-0.23557 0.0785-0.52284-0.11105-0.74494 0-0.31409 0.15705-0.41179 0.63389-0.74493 0.74494-0.47114 0.15704-1.0187-0.15705-1.4899 0-0.33314 0.11105-0.43084 0.58789-0.74493 0.74493-0.2221 0.11105-0.50404-0.0602-0.74494 0-0.76179 0.19045-1.4798 0.52922-2.2348 0.74494-0.98443 0.28126-2.0085 0.42118-2.9798 0.74494-0.52675 0.17558-0.96312 0.56935-1.4899 0.74493-0.47114 0.15705-1.0457-0.22209-1.4899 0-0.31409 0.15705-0.43084 0.58789-0.74493 0.74494-0.59595 0.29797-1.6389-0.29797-2.2348 0-0.31409 0.15705-0.43085 0.58789-0.74494 0.74494-0.59595 0.29797-1.6389-0.29798-2.2348 0-0.31409 0.15704-0.43084 0.58789-0.74493 0.74493-0.4442 0.2221-1.0457-0.2221-1.4899 0-0.31409 0.15705-0.43084 0.58789-0.74493 0.74495-0.59595 0.29797-1.6389-0.29797-2.2348 0-0.31409 0.15703-0.43084 0.58788-0.74493 0.74494-0.59595 0.29797-1.6389-0.29798-2.2348 0-0.31409 0.15703-0.43085 0.58787-0.74494 0.74493-0.59595 0.29797-1.6389-0.29797-2.2348 0-0.31409 0.15703-0.43084 0.58788-0.74493 0.74493-0.59595 0.29798-1.6389-0.29797-2.2348 0-0.3141 0.15703-0.43085 0.58788-0.74494 0.74494-0.46821 0.2341-2.5115-0.2341-2.9798 0-0.31409 0.15706-0.43084 0.58788-0.74493 0.74493-0.59595 0.29798-1.6389-0.29797-2.2348 0-0.31409 0.15706-0.43084 0.58788-0.74493 0.74494-0.4442 0.22209-1.0457-0.22209-1.4899 0-0.31409 0.15705-0.43084 0.5879-0.74493 0.74493-0.46821 0.23411-2.5115-0.2341-2.9798 0-0.31409 0.15706-0.43084 0.58791-0.74494 0.74494-0.59594 0.29797-1.6389-0.29798-2.2348 0-0.3141 0.15705-0.4118 0.63388-0.74494 0.74493-0.34073 0.11359-2.6483-0.16573-2.9798 0-0.31409 0.15706-0.43084 0.5879-0.74494 0.74493-0.59594 0.29798-1.6389-0.29797-2.2348 0-0.3141 0.15706-0.43085 0.58791-0.74494 0.74497-0.46821 0.2341-2.5115-0.23413-2.9798 0-0.31409 0.15703-0.43084 0.58787-0.74493 0.74493-0.4442 0.22209-1.0187-0.15706-1.4899 0-0.52675 0.17558-0.96312 0.56933-1.4899 0.74493-0.79158 0.26385-2.1882-0.26386-2.9798 0-0.33314 0.11105-0.41179 0.63389-0.74493 0.74494-0.47115 0.15703-0.99326 0-1.4899 0-0.24831 0-0.52284-0.11105-0.74494 0-0.31409 0.15703-0.41178 0.63389-0.74493 0.74493-0.47114 0.15703-1.0187-0.15705-1.4899 0-0.33314 0.11105-0.41179 0.63389-0.74493 0.74494-0.67044 0.22346-1.5644-0.2235-2.2348 0-0.52675 0.17558-0.96312 0.56935-1.4899 0.74493-0.7067 0.23556-1.5121-0.18068-2.2348 0-0.53867 0.13467-0.96313 0.56936-1.4899 0.74494-0.23557 0.0785-0.50937-0.0785-0.74494 0-0.52675 0.17557-0.96312 0.56935-1.4899 0.74493-0.23557 0.0785-0.50404-0.0602-0.74494 0-0.76178 0.19045-1.4648 0.59095-2.2348 0.74494-0.48699 0.0974-1.0187-0.15704-1.4899 0-0.33314 0.11104-0.41179 0.63388-0.74494 0.74493-0.70671 0.23558-1.5281-0.23556-2.2348 0-0.52675 0.1756-0.96312 0.56936-1.4899 0.74493-0.23557 0.0785-0.50937-0.0785-0.74494 0-0.52675 0.17561-0.9512 0.61029-1.4899 0.74496-0.48179 0.12044-1.0187-0.15705-1.4899 0-0.33315 0.11105-0.41179 0.63389-0.74494 0.74494-0.70671 0.23556-1.5281-0.23559-2.2348 0-0.52675 0.17558-0.96312 0.56936-1.4899 0.74493-0.23557 0.0785-0.50937-0.0785-0.74494 0-0.52675 0.17558-0.96312 0.56936-1.4899 0.74494-0.70671 0.23556-1.5281-0.23559-2.2348 0-0.33315 0.11104-0.43085 0.58788-0.74494 0.74493-0.2221 0.11105-0.49662 0-0.74494 0-0.49662 0-1.0187-0.15705-1.4899 0-0.33314 0.11105-0.43084 0.58788-0.74493 0.74494-0.46821 0.2341-2.5115-0.23411-2.9798 0-0.31409 0.15705-0.41179 0.63389-0.74494 0.74493-2.5101 0.83669-0.72877-0.50202-2.2348 0-0.52675 0.17558-0.96313 0.56936-1.4899 0.74494-0.51239 0.17081-1.7953-0.21977-2.2348 0-0.31409 0.15705-0.43084 0.5879-0.74494 0.74493-0.46996 0.23498-3.2547-0.23498-3.7247 0-0.31409 0.15706-0.43084 0.5879-0.74494 0.74493-0.46821 0.23411-2.5115-0.2341-2.9797 0-0.3141 0.15706-0.43084 0.58791-0.74494 0.74494-0.45234 0.22619-4.0173-0.22617-4.4696 0-0.31409 0.15705-0.43084 0.5879-0.74493 0.74496-0.19261 0.0963-3.9416 0-4.4696 0-0.24831 0-0.52284-0.11107-0.74494 0-0.31409 0.15703-0.43084 0.58788-0.74494 0.74493-0.2694 0.1347-3.2066 0-3.7247 0-0.24831 0-0.56935-0.1756-0.74494 0-0.17558 0.17558 0.17559 0.56933 0 0.74494-0.03376 0.0338-3.3734 0-3.7247 0-1.747 0 0.35116-0.17561-1.4899 0.74493-0.26939 0.1347-3.2065 0-3.7247 0-0.24831 0-0.56935-0.17558-0.74494 0-0.17558 0.17558 0.17558 0.56936 0 0.74494-0.02397 0.0241-2.0541 0-2.2348 0-0.27357 0-2.9498-0.03-2.9797 0-0.17558 0.17557 0.17558 0.56935 0 0.74493s-0.49663 0-0.74494 0c-0.52801 0-4.277-0.0963-4.4696 0-0.31409 0.15706-0.43084 0.58788-0.74494 0.74494-0.2221 0.11104-0.49663 0-0.74494 0h-0.74494c-0.35124 0-3.6909-0.0338-3.7247 0-0.17558 0.17557 0.17558 0.56935 0 0.74493-0.03376 0.0338-3.3734 0-3.7247 0-0.24831 0-0.56935-0.17558-0.74493 0-0.17559 0.17558 0.17558 0.56936 0 0.74493-0.20383 0.20384-2.5756-0.20206-2.9797 0-0.31409 0.15706-0.43084 0.58791-0.74494 0.74494-0.46821 0.2341-2.5115-0.2341-2.9797 0-0.31409 0.15706-0.43084 0.5879-0.74494 0.74493-0.59595 0.29798-1.6389-0.29797-2.2348 0-0.31409 0.15706-0.43084 0.58791-0.74494 0.74494-0.59595 0.298-1.6389-0.29798-2.2348 0-0.31409 0.15705-0.43084 0.5879-0.74494 0.74496-0.59595 0.29797-1.6389-0.29798-2.2348 0-0.31409 0.15703-0.43084 0.58788-0.74494 0.74493-0.59595 0.29798-1.6389-0.29797-2.2348 0-0.31409 0.15703-0.43084 0.58788-0.74494 0.74494-0.97692 0.48844-0.51295-0.48848-1.4899 0-0.31409 0.15703-0.43084 0.58787-0.74494 0.74493-0.44419 0.22209-1.0457-0.22209-1.4899 0-0.31409 0.15703-0.43084 0.58788-0.74494 0.74494-0.44419 0.22209-1.0457-0.2221-1.4899 0-0.31409 0.15705-0.43084 0.58787-0.74494 0.74493-0.44419 0.22209-1.1387-0.35116-1.4899 0-0.17558 0.17558 0.17558 0.56936 0 0.74493-0.35117 0.35119-1.0457-0.22209-1.4899 0-0.31409 0.15706-0.43084 0.58791-0.74494 0.74494-0.44419 0.22209-1.0457-0.22209-1.4899 0-0.31409 0.15706-0.43084 0.5879-0.74494 0.74493-0.44419 0.22209-1.1387-0.35115-1.4899 0-0.17558 0.17558 0.17558 0.56936 0 0.74494-0.17558 0.1756-0.49662 0-0.74494 0h-0.74494c-1.9865 0 0.24831-0.24831-0.74494 0.74493-0.37247 0.37248-1.8623-0.37245-2.2348 0-0.17558 0.17561 0.17558 0.56936 0 0.74496-0.15229 0.15227-1.9394-0.14769-2.2348 0-0.31409 0.15703-0.43084 0.58788-0.74494 0.74494-0.29536 0.14766-2.0825-0.1523-2.2348 0-0.17558 0.17557 0.17558 0.56933 0 0.74493-0.17926 0.17926-2.8005-0.17925-2.9797 0-0.17558 0.17558 0.17558 0.56936 0 0.74494-0.17558 0.17557-0.49662 0-0.74494 0-0.35124 0-3.6909-0.0338-3.7247 0-0.17558 0.17557 0.17558 0.56935 0 0.74493-0.17926 0.17926-2.8005-0.17926-2.9797 0-0.17558 0.17558 0.17558 0.56936 0 0.74493-0.17558 0.17558-0.49662 0-0.74494 0-0.35124 0-3.6909-0.0338-3.7247 0-0.17558 0.17558 0.17558 0.56936 0 0.74494-0.17926 0.17925-2.8005-0.17926-2.9797 0-0.17558 0.17558 0.17558 0.56936 0 0.74493-0.20383 0.20384-2.5756-0.20206-2.9797 0-0.3141 0.15706-0.43084 0.58791-0.74494 0.74494-0.46821 0.2341-2.5115-0.23411-2.9797 0-0.31409 0.15705-0.43084 0.5879-0.74494 0.74493-0.59595 0.29798-1.6389-0.29797-2.2348 0-0.31409 0.15706-0.43084 0.58791-0.74494 0.74494-0.29536 0.14769-2.0825-0.1523-2.2348 0-0.17558 0.1756 0.17558 0.56935 0 0.74493-0.37247 0.37248-1.8623-0.37245-2.2348 0-0.17559 0.1756 0.17558 0.56936 0 0.74496-0.37247 0.37246-1.8623-0.37248-2.2348 0-0.17558 0.17558 0.17558 0.56933 0 0.74494-0.17558 0.17557-0.52284-0.11105-0.74494 0-3.1002 1.5501 0.79636-0.0514-0.74494 1.4899-0.17558 0.17558-0.56935-0.17557-0.74494 0-0.17558 0.17558 0.11105 0.52285 0 0.74494-0.15705 0.31409-0.58789 0.43085-0.74494 0.74493-0.29798 0.59595 0.29797 1.6389 0 2.2348-0.15705 0.31411-0.58789 0.43084-0.74494 0.74493-0.11336 0.22672 0 1.8993 0 2.2348 0 0.24831-0.17558 0.56933 0 0.74493 0.17558 0.17558 0.56935-0.1756 0.74494 0 0.37247 0.37246-0.37247 1.8623 0 2.2348 0.17558 0.17558 0.56935-0.17558 0.74494 0 0.35117 0.35115-0.2221 1.0457 0 1.4899 0.15705 0.31408 0.58789 0.43084 0.74494 0.74493 0.2221 0.44421-0.35117 1.1387 0 1.4899 0.17558 0.1756 0.49662 0 0.74494 0 0.49662 0.99327 0.99325 1.9865 1.4899 2.9798z" fill="url(#t13neb)" filter="url(#t13nei)" stroke="#000" stroke-dasharray="0, 2.91041648999999980" stroke-width=".26458"/>
	</g>
	<g>
		<path transform="scale(.26458)" d="m2130.8 653.92c-4.7759-0.84888-155.69 126.11-167.85 111.47-22.408 12.872-155.62 70.394-158.2 46.531-0.4108-29.507-51.304 13.925-62.307-0.76172-16.23-9.3741-2.8148-115.44-98.176-58.363 0 0-35.232 22.22-54.809 32.359 1.0815 2.6825-0.9322 5.0364-9.8125 4.5-2.0198 0.66593-3.1367 0.67194-2.9512-0.25781-25.624-25.114-75.362 3.4252-108.82-2.3516-28.368 6.0919-69.739-33.299-85.447-17.357-24.484 27.946-33.398-43.573-61.941-25.34-56.292-0.77983-108.52 33.067-160.48 19.709-79.095 2.2397-150.14-3.2013-219.61-16.893-31.38-8.1322-61.889-23.129-99.08-25.34-41.368-3.1177-78.993-19.56-126.43-16.893-52.981-9.0929-106.31-28.396-171.48-25.34-31.272-15.026-70.788-0.58564-106.99 0-34.642 21.001-84.849 15.067-132.33 25.34-40.69 3.3364-71.374 28.774-104.17 42.232-18.513 27.576-68.181 31.391-92.91 50.678-31.65 10.112-63.5 35.856-95.729 47.865-32.005 17.086-67.138 36.757-112.62 39.416 11.516 16.535-6.8718 25.2-5.6328 42.232-21.793 40.097-24.033 108.68-2.8145 149.22 6.866 29.723 24.251 56.476 53.494 59.125 93.26-0.2955 186.38-13.34 279 2.8164 225.31 33.479 455.08 44.541 686.72 50.68 176.6-5.6805 356.55 5.2944 529.31-16.894 96.778-6.0142 177.68-25.375 270.29-36.602 24.927-9.7136 74.149-9.0103 65.182-39.986 47.678-20.185 109.41-11.675 162.88-19.139 54.46-10.552 144.49 10.643 146.41-53.494 6.233-21.307 68.49 10.807 95.398 30.904-1.8175-20.059 11.226-53.53-0.1562-56.115 197.06 11.723 149.24-80.126-25.055-74.031 57.601-38.386-30.419-236.48-59.486-233.23 27.832-26.192 37.952-36.45 36.615-36.688zm48.082 400.07c0.6261 6.9102 3.0125 12.23 8.7754 14.143 7.486 0.4514 2.3654-5.8219-8.7754-14.143zm-602.19-264.59c1.0589 0.11855 2.0404 0.2028 2.9512 0.25781 2.2497-0.7417 5.7155-2.378 9.8125-4.5-2.3571-5.8465-19.485-13.259-12.764 4.2422z" fill="url(#t13nec)" filter="url(#t13nej)" stroke="#000" stroke-dasharray="0, 10.99999932999999963"/>
	</g>
</svg>
