<?xml version="1.0" standalone="no"?>
<!DOCTYPE svg PUBLIC "-//W3C//DTD SVG 20010904//EN"
 "http://www.w3.org/TR/2001/REC-SVG-20010904/DTD/svg10.dtd">
<svg version="1.0" xmlns="http://www.w3.org/2000/svg"
 width="640.000000pt" height="1280.000000pt" viewBox="0 0 640.000000 1280.000000"
 preserveAspectRatio="xMidYMid meet">
<g transform="translate(0.000000,1280.000000) scale(0.100000,-0.100000)"
fill="#000000" stroke="none">
<path d="M3122 12599 l3 -201 70 0 70 0 3 201 2 201 -75 0 -75 0 2 -201z"/>
<path d="M3045 12379 c-484 -24 -903 -211 -980 -438 -8 -25 -15 -55 -15 -68 0
-20 5 -23 35 -23 l35 0 0 -605 0 -605 -350 0 c-368 0 -398 -3 -414 -45 -3 -9
-6 -214 -6 -456 l0 -440 25 -24 c24 -25 25 -25 220 -25 l195 0 0 -52 c0 -29
-11 -348 -25 -708 -14 -360 -30 -817 -35 -1015 -5 -198 -16 -522 -25 -720 -16
-384 -29 -710 -45 -1105 -6 -135 -15 -353 -20 -485 -6 -132 -28 -685 -50
-1230 -22 -545 -44 -1098 -50 -1230 -24 -578 -33 -788 -65 -1593 -19 -470 -35
-869 -35 -888 l0 -34 -145 0 -145 0 0 -90 0 -90 -110 0 -110 0 0 -100 0 -100
-100 0 -100 0 0 -105 0 -105 2470 0 2470 0 0 105 0 105 -100 0 -100 0 0 100 0
100 -100 0 -100 0 0 90 0 90 -144 0 -144 0 -6 63 c-3 34 -10 175 -16 312 -6
138 -15 340 -20 450 -5 110 -14 301 -20 425 -6 124 -15 317 -20 430 -5 113
-14 306 -20 430 -6 124 -15 317 -20 430 -5 113 -14 306 -20 430 -6 124 -15
317 -20 430 -5 113 -14 306 -20 430 -6 124 -15 317 -20 430 -5 113 -14 306
-20 430 -6 124 -15 317 -20 430 -5 113 -14 306 -20 430 -6 124 -15 317 -20
430 -5 113 -14 306 -20 430 -6 124 -15 315 -20 425 -5 110 -14 322 -20 470 -6
149 -19 477 -30 730 -12 253 -26 587 -33 743 l-12 282 192 0 c188 0 192 0 220
24 l28 24 0 446 0 445 -23 23 c-22 23 -24 23 -367 26 l-345 3 0 604 0 605 35
0 c33 0 35 2 35 33 0 44 -39 123 -89 179 -145 164 -515 297 -866 314 -60 2
-130 6 -155 7 -25 2 -108 0 -185 -4z m-305 -631 l0 -63 -43 -18 c-31 -12 -50
-29 -64 -55 -72 -130 -84 -556 -22 -758 20 -66 41 -90 85 -104 22 -6 7 -9 -58
-9 l-88 -1 0 -50 0 -50 -180 0 -180 0 0 585 0 585 275 0 275 0 0 -62z m840 -8
c0 -64 -2 -70 -21 -70 -11 0 -82 -16 -156 -35 -185 -48 -226 -47 -403 10 -77
25 -152 45 -165 45 -24 0 -25 3 -25 60 l0 60 385 0 385 0 0 -70z m630 -515 l0
-585 -192 0 -193 0 3 50 4 50 -73 0 -72 0 34 23 c69 46 107 247 96 512 -7 157
-24 251 -58 322 -16 33 -29 45 -65 59 l-44 17 0 68 0 69 280 0 280 0 0 -585z
m-1470 205 c0 -189 -2 -220 -15 -220 -12 0 -15 20 -15 118 0 64 -5 157 -11
206 -10 82 -9 91 7 103 10 7 21 13 26 13 4 0 8 -99 8 -220z m262 179 c130 -37
151 -40 228 -36 47 3 141 19 210 36 68 17 128 31 132 31 5 0 8 -97 8 -215 l0
-215 -385 0 -385 0 0 220 0 220 25 0 c14 0 89 -18 167 -41z m681 16 c11 -5 12
-16 6 -53 -4 -26 -11 -118 -15 -204 -4 -87 -11 -158 -16 -158 -4 0 -8 95 -8
210 0 121 4 210 9 210 5 0 16 -2 24 -5z m10 -827 c4 -15 -11 -28 -34 -28 -11
0 -12 273 -2 310 5 16 12 -28 20 -120 6 -79 14 -152 16 -162z m-953 100 c0
-88 -3 -118 -12 -118 -35 1 -37 13 -25 148 10 115 13 129 24 110 8 -15 12 -66
13 -140z m840 -54 l0 -87 -49 7 c-27 4 -66 12 -86 19 l-38 13 49 32 c27 17 65
47 83 66 19 20 36 36 38 36 2 0 3 -39 3 -86z m-750 49 c0 -5 25 -26 56 -48
l55 -40 -38 -12 c-21 -6 -50 -12 -65 -12 -28 -1 -28 0 -28 59 0 33 4 60 10 60
6 0 10 -3 10 -7z m150 -138 c0 -12 -14 -15 -67 -14 l-68 1 45 13 c62 18 90 18
90 0z m450 -5 c11 -7 7 -10 -17 -10 -18 0 -33 5 -33 10 0 13 30 13 50 0z
m-1771 -254 c15 -8 37 -28 47 -43 17 -25 19 -52 22 -283 4 -289 -1 -320 -57
-357 -61 -41 -157 -26 -195 31 -14 22 -16 61 -16 303 1 301 2 308 56 344 35
23 103 25 143 5z m442 4 c18 -10 19 -25 19 -354 l0 -344 -22 -6 c-13 -3 -43
-6 -67 -6 -37 0 -49 5 -82 39 l-39 39 0 279 c0 307 0 305 64 344 34 21 96 25
127 9z m447 -12 c3 -16 -6 -18 -72 -18 -42 0 -76 2 -76 5 0 2 12 11 28 20 38
21 116 16 120 -7z m1450 -1 c15 -16 10 -17 -76 -17 -51 0 -92 4 -92 8 0 33
137 40 168 9z m443 0 c53 -36 58 -63 58 -337 0 -164 -4 -256 -12 -280 -17 -48
-68 -80 -127 -80 -83 0 -79 -18 -81 359 -2 380 -6 361 81 361 32 0 58 -7 81
-23z m426 -20 l33 -37 0 -281 0 -281 -39 -39 c-34 -35 -44 -39 -87 -39 -61 0
-92 16 -121 59 -23 33 -23 40 -23 298 0 292 3 306 63 344 25 16 44 19 86 16
47 -3 59 -9 88 -40z"/>
</g>
</svg>
