<?xml version="1.0" standalone="no"?>
<!DOCTYPE svg PUBLIC "-//W3C//DTD SVG 20010904//EN"
 "http://www.w3.org/TR/2001/REC-SVG-20010904/DTD/svg10.dtd">
<svg version="1.0" xmlns="http://www.w3.org/2000/svg"
 width="1240.000000pt" height="1280.000000pt" viewBox="0 0 1240.000000 1280.000000"
 preserveAspectRatio="xMidYMid meet">
<g transform="translate(0.000000,1280.000000) scale(0.100000,-0.100000)"
fill="#000000" stroke="none">
<path d="M6377 12768 c-85 -34 -92 -34 -225 4 -37 11 -53 10 -110 -6 -37 -10
-80 -21 -97 -24 -16 -2 -46 -19 -66 -37 -20 -18 -63 -50 -95 -72 -75 -51 -133
-115 -141 -154 -5 -25 -15 -35 -59 -54 -100 -44 -112 -102 -73 -345 17 -102
19 -143 12 -180 -9 -46 -8 -50 19 -77 24 -24 31 -44 42 -111 7 -44 21 -93 31
-108 15 -23 16 -38 10 -103 -5 -42 -9 -101 -9 -131 l-1 -55 55 -18 c70 -24 74
-27 99 -95 11 -32 45 -103 75 -157 31 -55 63 -125 72 -157 l18 -58 138 0 c125
0 140 -2 158 -20 11 -11 20 -24 20 -29 0 -5 -71 -33 -157 -62 -411 -135 -667
-258 -852 -408 -38 -30 -53 -36 -95 -37 -60 -1 -98 -19 -166 -79 -55 -49 -88
-62 -117 -47 -42 23 -78 17 -161 -26 -114 -59 -164 -77 -315 -117 l-131 -35
-31 29 c-36 35 -45 36 -450 51 -423 16 -594 31 -768 67 -69 14 -79 14 -95 1
-9 -9 -43 -30 -74 -48 -32 -17 -71 -47 -88 -67 l-32 -35 -81 6 c-45 4 -142 16
-215 27 -159 23 -290 24 -358 4 -65 -19 -144 -71 -274 -179 -58 -48 -121 -97
-141 -109 -33 -19 -37 -25 -38 -66 0 -26 -5 -62 -11 -81 -5 -19 -10 -48 -10
-64 0 -23 -14 -41 -67 -90 -245 -225 -398 -632 -439 -1174 l-7 -94 -41 -30
c-95 -69 -304 -149 -314 -120 -2 7 -15 26 -28 42 -14 16 -24 37 -22 47 8 47
-249 61 -392 20 l-85 -24 -27 -54 c-18 -35 -34 -95 -46 -171 -18 -104 -25
-126 -67 -198 -59 -101 -65 -140 -32 -206 14 -27 33 -77 42 -109 21 -74 61
-136 155 -240 85 -94 111 -146 118 -235 5 -63 6 -66 51 -103 25 -20 73 -60
106 -87 33 -28 78 -59 101 -71 41 -20 42 -20 75 0 69 40 147 55 284 56 72 0
159 -4 195 -8 l65 -8 44 -122 c97 -265 168 -366 310 -434 64 -31 87 -37 166
-41 105 -5 169 7 263 49 171 77 350 259 428 435 13 30 25 54 26 54 2 0 25 -7
52 -15 113 -34 238 -47 611 -60 406 -15 496 -26 623 -77 l61 -25 20 21 c11 12
28 42 37 66 22 57 23 201 3 249 l-15 35 66 66 c36 37 80 75 98 84 l33 17 23
-53 c13 -29 53 -114 89 -190 l65 -136 53 -11 c30 -5 100 -14 156 -20 58 -5
119 -17 145 -29 43 -19 43 -20 61 -98 30 -128 112 -260 233 -374 33 -31 127
-112 209 -181 143 -120 221 -196 293 -284 l32 -40 -6 40 c-9 52 -44 121 -103
204 -63 87 -77 114 -62 119 6 2 18 19 26 38 20 49 45 44 150 -27 27 -18 63
-33 88 -35 l42 -5 -36 20 c-31 17 -57 49 -47 56 6 4 159 35 173 35 8 0 44 -27
80 -60 108 -97 232 -156 456 -216 l106 -29 -55 -72 c-62 -83 -86 -97 -42 -25
35 58 46 92 29 92 -11 0 -41 -29 -133 -128 -21 -23 -42 -42 -47 -42 -4 0 -25
32 -45 71 -64 121 -200 233 -311 255 -57 11 -243 -94 -243 -137 0 -5 41 12 92
36 103 51 150 57 192 24 35 -28 33 -35 -12 -42 -20 -4 -51 -17 -68 -29 -34
-26 -149 -158 -137 -158 14 0 86 52 153 110 82 72 104 84 130 70 25 -14 93
-97 155 -192 49 -75 51 -77 119 -100 43 -14 82 -35 102 -55 l32 -31 53 64 c78
92 104 147 104 214 0 101 -8 110 -148 153 -132 42 -226 83 -270 120 l-28 23
22 28 c29 37 89 61 185 76 43 6 107 20 141 31 l61 19 88 -55 c97 -61 152 -81
191 -68 23 8 20 11 -45 36 -68 27 -153 88 -141 101 10 11 317 -81 384 -113 75
-37 131 -83 121 -99 -12 -20 -73 -42 -220 -78 -172 -43 -222 -64 -272 -115
-32 -33 -35 -39 -18 -39 11 0 29 7 40 15 38 29 48 15 14 -20 -18 -19 -32 -36
-29 -38 2 -1 17 -9 33 -17 70 -35 116 -109 116 -187 0 -44 -27 -125 -55 -167
-13 -20 -22 -36 -19 -36 2 0 22 11 44 25 22 14 51 25 64 25 22 0 24 3 19 33
-4 29 1 39 49 87 52 52 54 80 4 46 -31 -20 -36 -13 -36 45 0 39 -6 55 -29 81
-26 30 -51 70 -51 81 0 3 39 10 88 17 215 29 291 59 330 129 21 37 22 42 7 47
-9 4 -31 2 -48 -3 -58 -18 -81 8 -24 26 17 6 70 15 117 19 139 14 159 28 250
182 25 41 52 75 60 75 16 0 69 -72 70 -95 0 -8 -36 -49 -80 -90 -83 -78 -112
-127 -102 -176 7 -35 31 -30 102 22 67 49 107 70 116 62 10 -11 -45 -115 -85
-159 -21 -24 -63 -59 -93 -76 -56 -34 -187 -73 -246 -73 -23 0 -49 -11 -81
-34 -25 -18 -73 -47 -106 -64 -101 -50 -170 -142 -223 -299 -12 -33 -42 -144
-67 -245 -73 -290 -90 -342 -126 -373 l-32 -26 -53 108 c-30 59 -54 121 -54
136 0 29 45 85 58 72 4 -3 -4 -14 -17 -24 -13 -10 -22 -25 -20 -36 3 -15 12
-11 56 23 37 30 60 59 82 104 27 57 37 97 55 227 l7 43 -37 -38 -36 -39 -17
23 c-46 67 -96 112 -199 179 l-114 75 -48 -55 c-27 -30 -63 -60 -80 -67 -28
-12 -32 -10 -67 21 -77 69 -151 103 -261 119 -56 8 -69 14 -113 55 -27 26 -55
45 -61 43 -24 -8 -19 -30 15 -62 26 -24 67 -43 163 -76 222 -73 225 -77 253
-251 33 -200 76 -397 177 -802 51 -208 110 -457 129 -555 29 -141 41 -182 59
-202 36 -38 52 -77 81 -191 28 -110 56 -182 81 -210 13 -14 15 -71 13 -410 -3
-428 -5 -391 67 -864 44 -288 52 -520 21 -635 -24 -88 -66 -176 -112 -230 -45
-55 -63 -64 -35 -18 26 43 25 58 -2 58 -13 0 -43 9 -67 20 -24 11 -58 20 -77
20 -31 0 -34 -3 -34 -30 0 -16 -9 -54 -21 -84 -11 -31 -19 -70 -17 -88 l3 -33
58 2 c56 2 58 1 51 -20 -7 -26 -41 -64 -68 -79 -11 -6 -68 -27 -128 -48 -60
-21 -120 -46 -134 -55 -31 -20 -63 -88 -64 -132 0 -30 2 -32 48 -40 86 -14
234 -6 392 21 108 19 158 32 165 43 72 114 116 168 169 206 27 19 29 19 23 3
-5 -12 1 -36 14 -62 23 -49 12 -47 129 -18 30 8 77 14 105 14 l50 0 1 63 c0
49 7 75 31 122 49 95 55 127 31 167 -12 18 -41 55 -65 82 -79 88 -91 134 -73
280 24 204 64 363 139 555 122 311 166 521 165 791 0 211 -28 345 -96 468
l-29 54 23 46 c25 53 28 139 8 285 -13 93 -7 155 22 210 23 45 29 42 57 -30
23 -59 42 -163 66 -361 18 -144 35 -205 73 -267 24 -38 25 -41 12 -115 -7 -41
-15 -174 -17 -295 -6 -267 -1 -321 88 -912 37 -250 49 -366 56 -532 4 -98 11
-167 17 -172 6 -5 22 -18 36 -28 14 -11 22 -22 18 -26 -4 -4 -37 14 -73 39
-36 26 -80 50 -98 53 l-33 5 -25 -102 c-32 -125 -28 -160 19 -174 24 -7 48 -4
91 9 34 10 70 15 85 11 25 -6 26 -4 26 33 0 25 7 47 21 62 15 18 18 19 11 4
-6 -10 -8 -43 -5 -72 l6 -53 -75 0 -74 0 -22 -46 c-49 -101 -40 -153 52 -308
32 -53 77 -150 101 -217 69 -190 103 -235 185 -246 33 -5 43 0 78 32 66 59 96
131 100 245 5 114 -18 223 -77 366 l-39 95 62 -6 c86 -9 89 -4 94 149 6 180
-12 205 -105 150 -58 -34 -73 -28 -66 28 18 163 68 364 173 698 133 422 165
595 157 845 -5 178 -20 251 -83 408 l-37 92 22 37 c27 47 27 102 1 135 -23 29
-26 64 -8 96 9 15 13 82 13 212 l1 190 33 85 c30 76 34 99 38 211 4 100 9 130
23 149 18 24 20 24 77 11 79 -19 135 -23 151 -13 18 12 118 447 167 722 59
336 68 443 71 798 1 183 3 335 5 337 3 2 47 11 99 19 52 9 120 21 152 27 l56
11 16 64 c23 91 21 120 -10 140 -32 21 -44 8 -44 -47 0 -23 -8 -46 -21 -60
l-20 -24 4 61 c2 50 11 74 44 130 69 116 64 169 -9 105 -42 -36 -71 -51 -98
-51 -18 0 -14 8 29 60 136 164 201 362 162 498 -5 17 -7 32 -4 32 3 0 61 -33
127 -74 215 -131 279 -157 449 -182 144 -21 380 -14 677 20 398 45 543 43 709
-10 l76 -24 45 -87 c54 -105 129 -186 186 -202 118 -33 191 17 391 266 136
170 168 199 393 356 270 189 351 275 380 408 10 43 10 71 1 125 -17 102 -15
99 -111 86 -88 -13 -177 -50 -330 -141 -82 -48 -172 -82 -186 -69 -16 17 97
151 282 333 111 110 219 222 239 249 69 94 124 230 140 346 5 44 4 47 -44 94
-47 47 -51 48 -91 42 -22 -3 -81 -24 -129 -46 -49 -22 -97 -40 -107 -40 -37 0
-42 -12 -29 -60 7 -25 20 -72 29 -105 21 -76 20 -108 -1 -148 l-18 -32 -5 100
c-5 82 -15 128 -35 153 -1 1 -33 -12 -71 -29 -38 -17 -133 -60 -212 -94 -79
-35 -205 -97 -281 -139 -199 -109 -250 -126 -484 -166 -357 -60 -626 -44
-1148 70 -125 28 -251 50 -279 50 -67 0 -135 18 -155 40 -19 21 -32 90 -18 90
6 0 16 -7 23 -15 7 -8 21 -15 30 -15 15 0 29 30 67 143 46 135 48 147 48 249
0 58 -4 110 -8 115 -17 16 -399 6 -637 -17 -220 -22 -659 -34 -674 -20 -3 3 6
125 20 270 13 146 27 349 31 453 3 103 7 187 9 187 1 0 38 -21 81 -47 113 -67
374 -192 551 -263 l153 -61 57 22 c51 20 72 22 192 19 260 -7 325 -5 375 9 53
16 163 87 310 201 49 38 143 98 210 132 149 78 197 124 295 283 40 66 115 179
166 252 127 180 168 251 203 349 l31 84 -20 32 c-11 18 -25 56 -31 84 l-12 52
71 144 c77 154 104 241 104 329 0 92 -34 135 -124 153 -18 4 -34 20 -50 48
-35 65 -117 103 -219 103 -64 0 -82 -4 -107 -22 l-30 -22 -12 29 c-9 21 -23
33 -49 40 -33 9 -38 8 -59 -17 -39 -45 -100 -182 -122 -268 -20 -85 -40 -242
-40 -324 0 -55 -15 -71 -67 -71 -15 0 -33 -4 -39 -8 -6 -4 -32 -49 -58 -100
-61 -123 -133 -226 -400 -577 -23 -30 -24 -30 -117 -29 -139 0 -197 22 -404
152 -131 82 -214 123 -288 141 -34 8 -60 24 -90 55 -31 31 -67 53 -134 81 -51
21 -100 46 -110 57 -16 18 -16 19 3 13 10 -3 -3 6 -31 19 -27 14 -81 53 -118
85 -81 71 -118 85 -282 106 -199 25 -281 51 -631 201 -133 57 -263 108 -288
115 -45 11 -47 13 -87 98 -22 47 -50 114 -61 148 l-21 63 38 41 c67 75 93 157
124 396 11 84 24 161 30 171 12 23 -4 52 -30 52 -36 0 -65 41 -72 100 -13 111
-83 212 -207 298 l-55 38 0 58 c0 52 -3 60 -30 82 -59 47 -164 95 -218 100
-42 3 -67 -2 -130 -28z m-147 -88 c0 -23 -25 -27 -46 -6 -21 21 -18 26 16 26
23 0 30 -4 30 -20z m163 -51 c27 -31 28 -49 1 -49 -20 0 -64 45 -64 65 0 25
34 17 63 -16z m257 -14 c18 -19 30 -38 27 -42 -4 -4 -25 12 -48 35 -22 23 -34
42 -26 42 7 0 28 -16 47 -35z m-133 -18 c34 -31 35 -47 3 -47 -20 0 -70 53
-70 75 0 20 29 8 67 -28z m-485 5 c-15 -11 -21 -24 -17 -34 12 -31 -158 -136
-252 -157 -76 -16 -43 19 72 77 68 34 92 56 97 92 3 22 9 26 53 31 28 3 55 6
60 7 6 1 0 -6 -13 -16z m307 -58 c55 -49 98 -167 45 -123 -9 7 -34 40 -57 74
-22 33 -48 65 -56 72 -14 11 -13 12 6 13 13 0 41 -16 62 -36z m176 -55 c20
-12 50 -25 67 -28 30 -6 30 -7 14 -24 -10 -9 -33 -17 -52 -17 -29 0 -36 5 -54
39 -10 22 -25 41 -32 44 -8 4 -7 6 4 6 9 1 33 -9 53 -20z m-480 -46 c-21 -15
-45 -17 -45 -5 0 12 43 31 54 24 5 -3 1 -11 -9 -19z m675 -14 c0 -20 -4 -29
-12 -26 -7 2 -26 -2 -41 -10 -47 -24 -55 -9 -15 30 45 46 68 48 68 6z m-382
-33 c2 -9 -2 -16 -8 -16 -15 0 -50 42 -43 53 7 12 47 -17 51 -37z m-418 -21
c0 -19 -32 -35 -69 -35 -38 0 -40 17 -3 31 15 6 34 15 42 19 18 9 30 3 30 -15z
m168 1 c21 -21 -19 -46 -89 -56 -35 -5 -64 -8 -66 -6 -7 6 32 50 61 67 32 20
70 18 94 -5z m738 3 c18 -20 12 -48 -13 -56 -12 -4 -54 62 -46 71 13 12 41 5
59 -15z m-252 -24 c25 -19 13 -33 -38 -45 l-36 -8 0 38 c0 54 20 58 74 15z
m-384 -60 c10 -11 10 -19 2 -27 -8 -8 -19 -4 -41 14 -21 18 -26 29 -19 36 12
12 37 3 58 -23z m260 16 c0 -5 -12 -19 -26 -30 -31 -24 -87 -27 -149 -7 l-40
13 35 16 c38 18 180 24 180 8z m-730 -22 c0 -13 -15 -17 -82 -22 -44 -3 -58 0
-58 10 0 8 9 17 19 21 27 10 121 2 121 -9z m308 -81 c29 -33 42 -57 39 -70 -4
-14 9 -28 54 -59 32 -22 69 -54 81 -70 23 -31 24 -31 90 -25 36 3 73 9 82 12
27 11 17 -11 -14 -29 -31 -19 -89 -25 -109 -12 -9 5 -12 2 -9 -11 2 -11 26
-30 58 -46 145 -72 182 -88 190 -83 5 3 24 33 42 66 17 34 43 66 56 72 51 24
123 -49 138 -140 15 -94 -47 -240 -118 -278 l-37 -20 -53 27 c-45 23 -54 25
-56 12 -2 -9 6 -27 19 -40 17 -18 33 -24 66 -24 54 0 120 32 135 65 6 14 18
25 26 25 16 0 109 -92 181 -179 40 -48 42 -55 31 -76 -26 -48 -120 -152 -238
-262 l-120 -113 -65 0 c-46 0 -105 -12 -203 -41 -137 -39 -258 -58 -306 -46
-21 6 -26 14 -31 55 -3 26 -21 84 -41 127 l-35 80 27 3 c15 1 38 5 52 8 24 5
24 6 6 20 -11 8 -37 14 -57 14 -21 0 -50 5 -65 10 -26 10 -27 12 -21 78 3 37
9 77 13 90 10 33 -27 29 -69 -8 -39 -34 -58 -37 -77 -15 -10 12 -11 41 -4 128
5 62 9 153 9 202 -1 126 -22 160 -116 189 -15 4 -15 11 -7 51 7 32 7 85 0 164
-6 64 -8 119 -4 122 9 9 216 57 289 68 115 17 123 15 171 -41z m517 23 c-13
-12 -85 -31 -85 -22 0 17 27 31 59 31 21 0 31 -4 26 -9z m240 -24 c13 -10 15
-16 6 -21 -18 -12 -61 2 -61 19 0 19 30 19 55 2z m-411 -6 c3 -5 -4 -11 -15
-14 -17 -5 -20 -11 -15 -31 12 -47 -45 -45 -96 2 -34 31 -35 41 -5 35 13 -3
39 0 58 5 45 13 67 14 73 3z m-204 -21 c0 -15 -27 -23 -47 -16 -15 6 -15 8 -3
16 20 13 50 12 50 0z m510 -51 c-19 -25 -55 -49 -76 -49 -12 0 32 53 55 65 40
22 44 18 21 -16z m290 -39 c0 -11 -41 -31 -49 -24 -2 2 -1 10 2 19 7 17 47 21
47 5z m3431 -655 c16 -41 15 -46 -3 -102 -29 -86 -21 -140 46 -281 54 -116 82
-146 93 -103 3 13 12 20 22 19 24 -4 25 35 2 81 -12 22 -21 54 -21 71 0 25 4
30 24 30 14 0 31 -7 40 -15 14 -14 36 -75 36 -101 0 -6 9 -19 20 -29 19 -18
20 -17 20 3 0 11 -9 41 -20 67 -11 26 -20 62 -20 80 l0 34 69 -24 c38 -13 102
-31 141 -41 56 -13 69 -20 66 -33 -3 -9 -12 -47 -22 -86 -36 -148 -132 -298
-263 -413 -69 -60 -75 -63 -109 -57 -21 4 -56 15 -80 26 -47 20 -182 144 -182
166 0 17 15 17 30 -2 24 -29 21 -7 -4 30 -107 157 -114 449 -13 545 21 20 27
35 27 70 0 55 17 90 50 107 29 14 30 14 51 -42z m228 18 c13 -47 0 -101 -35
-143 -33 -38 -83 -65 -96 -52 -16 16 -21 89 -9 136 23 94 25 96 80 96 49 0 50
-1 60 -37z m126 -55 c42 -19 32 -57 -38 -141 -43 -50 -57 -49 -57 6 0 25 54
147 65 147 2 0 16 -5 30 -12z m119 -79 c21 -10 23 -15 15 -41 -9 -32 -1 -55
25 -78 27 -22 20 -43 -11 -37 -90 19 -94 19 -112 3 -17 -16 -19 -16 -25 -1
-12 32 -6 51 36 108 23 31 43 57 44 57 2 0 14 -5 28 -11z m-3901 -76 c43 -62
53 -118 33 -184 -19 -68 -83 -158 -153 -216 -64 -54 -223 -154 -233 -148 -5 3
-18 36 -31 73 -12 37 -28 79 -35 94 -14 27 -13 28 48 69 80 54 244 217 293
292 21 31 41 57 45 57 4 0 19 -17 33 -37z m3647 15 c-1 -21 -26 -48 -44 -48
-11 0 -16 9 -16 30 0 27 3 30 30 30 18 0 30 -5 30 -12z m-3192 -288 c25 0 30
-18 6 -27 -34 -13 -106 50 -88 78 5 8 15 2 33 -20 15 -18 35 -31 49 -31z
m-374 -7 c-12 -72 -52 -137 -137 -226 l-85 -87 -11 31 c-17 49 -14 71 18 120
25 40 194 197 214 198 4 1 5 -16 1 -36z m-568 -90 c31 -20 61 -86 70 -150 l6
-52 -42 -11 c-24 -6 -58 -9 -77 -5 -47 9 -106 65 -137 131 -31 66 -27 77 43
99 51 16 102 12 137 -12z m617 -185 c7 -170 23 -325 81 -793 67 -541 68 -610
7 -756 -54 -129 -247 -394 -315 -432 -33 -18 -897 -29 -1020 -13 l-59 8 7 106
c3 59 9 179 13 266 l6 159 20 -39 c11 -21 42 -98 68 -170 26 -72 59 -154 73
-183 27 -51 91 -131 106 -131 11 0 -27 94 -115 280 -84 178 -111 255 -127 359
-19 129 16 262 183 679 109 272 163 387 220 466 l43 60 15 -42 15 -42 116 0
c114 1 173 10 300 45 73 21 80 27 80 72 0 27 7 37 38 57 22 13 62 54 91 90 61
76 105 116 130 116 16 0 19 -16 24 -162z m3079 21 c125 -122 311 -233 434
-260 61 -14 64 -25 13 -52 -109 -58 -360 60 -443 208 -26 47 -69 155 -61 155
2 0 28 -23 57 -51z m-3425 -24 c13 -9 28 -34 34 -56 11 -36 10 -42 -7 -58 -10
-10 -38 -23 -61 -28 -47 -12 -53 -6 -53 53 0 52 27 98 60 103 3 1 15 -6 27
-14z m-133 -56 c64 -51 -2 -150 -84 -124 -17 5 -20 15 -20 57 0 83 46 112 104
67z m-144 -70 l0 -71 -32 6 c-18 4 -50 10 -70 13 l-38 5 0 59 0 59 70 0 70 0
0 -71z m4244 15 c9 -8 16 -26 16 -40 0 -23 -3 -24 -60 -24 -53 0 -60 2 -60 19
0 23 45 61 71 61 9 0 25 -7 33 -16z m-3058 -138 c58 -77 56 -88 -4 -23 -59 63
-82 96 -82 117 0 17 11 5 86 -94z m-2005 -58 c-17 -15 -42 -28 -54 -28 -23 0
-23 -1 -14 -67 12 -82 0 -184 -44 -375 -17 -73 -33 -166 -36 -206 -8 -103 -27
-77 -27 36 0 63 9 121 32 212 53 212 58 275 30 389 -2 9 10 18 33 23 20 5 52
22 70 38 43 36 53 16 10 -22z m2089 -161 c0 -8 -10 -23 -22 -34 -25 -22 -110
-65 -116 -59 -11 11 25 49 71 76 58 34 67 36 67 17z m-67 -207 c4 0 7 -7 7
-16 0 -13 -7 -15 -37 -9 -38 7 -63 21 -63 35 0 4 19 4 43 -1 23 -4 45 -8 50
-9z m-4795 -23 c39 -41 52 -90 52 -192 0 -53 -7 -126 -15 -163 -16 -69 -51
-143 -71 -149 -7 -2 -21 11 -33 30 -24 40 -28 136 -10 247 6 36 11 107 11 158
1 87 2 92 23 92 12 0 31 -10 43 -23z m-228 -60 c120 -29 120 -29 120 -92 l0
-56 -45 -20 c-26 -12 -54 -17 -68 -14 -23 6 -25 3 -33 -40 -9 -45 -11 -47 -59
-63 -27 -10 -93 -45 -145 -79 -134 -87 -181 -106 -246 -101 -30 3 -57 7 -60
11 -14 13 8 59 51 107 25 28 45 56 45 63 0 24 -29 53 -68 71 -39 18 -42 18
-88 0 -110 -42 -207 -143 -258 -268 l-24 -57 -6 33 c-8 46 11 143 40 202 33
66 67 112 172 229 l87 98 260 -5 c184 -3 279 -9 325 -19z m5125 -14 c-4 -21
-26 -85 -50 -143 -43 -104 -65 -191 -65 -259 -1 -34 -1 -35 -16 -16 -39 51 38
367 106 435 28 28 33 25 25 -17z m-6009 -239 c-3 -9 -6 -20 -6 -25 0 -5 -4 -9
-10 -9 -11 0 -14 33 -3 43 12 13 25 7 19 -9z m-90 -80 c-3 -8 -11 -14 -17 -14
-12 0 -5 72 9 94 8 13 16 -60 8 -80z m474 53 c0 -14 -16 -39 -40 -62 -22 -21
-40 -45 -40 -52 0 -7 -10 -13 -22 -13 -26 0 -128 33 -128 41 0 9 85 77 117 94
16 8 47 15 71 15 37 0 42 -3 42 -23z m591 -111 c10 -32 37 -103 60 -156 l42
-97 246 -7 c488 -14 861 -60 1225 -152 l100 -25 65 30 c132 61 293 87 591 96
107 3 218 8 245 10 l50 5 2 -290 2 -290 -48 0 c-32 0 -64 -9 -97 -26 -109 -56
-112 -57 -247 -24 -125 31 -207 37 -266 20 -30 -8 -39 -5 -95 33 -56 38 -67
42 -130 44 -63 1 -70 4 -86 30 -10 15 -35 46 -57 69 -35 37 -46 42 -143 64
-118 26 -257 31 -330 10 -25 -6 -88 -36 -140 -66 -102 -57 -186 -84 -263 -84
-27 0 -112 15 -190 32 -111 25 -165 33 -247 33 -150 0 -183 -16 -299 -151 -62
-73 -108 -104 -155 -104 -29 0 -28 -2 -46 125 -38 254 -139 516 -267 684 l-33
44 47 27 c27 14 76 45 111 69 112 76 212 112 301 108 32 -2 34 -5 52 -61z
m-806 -165 c13 -95 45 -136 116 -147 37 -6 39 -9 68 -83 93 -242 165 -483 195
-656 l16 -89 -24 -30 c-13 -17 -50 -44 -82 -59 -45 -22 -69 -42 -99 -83 -21
-30 -65 -80 -97 -110 -87 -83 -172 -113 -280 -100 -48 6 -55 10 -73 44 -11 20
-56 65 -100 99 -87 69 -81 68 -206 47 l-36 -6 4 54 c29 396 121 751 262 1013
39 74 53 91 74 93 20 3 29 -3 42 -27 9 -18 23 -31 35 -31 21 0 58 45 84 101
17 36 17 36 56 26 37 -10 40 -14 45 -56z m235 -41 c54 -27 118 -104 155 -183
101 -219 207 -627 236 -902 11 -109 10 -126 -6 -180 -32 -107 -35 -136 -45
-435 -9 -269 -16 -360 -35 -445 -6 -27 -5 -28 6 -10 7 11 21 54 30 95 20 89
22 66 9 -90 -39 -434 -206 -790 -455 -964 -91 -65 -94 -65 -39 -1 150 174 269
421 345 712 198 768 92 1787 -247 2372 -35 60 -35 63 -13 56 13 -4 40 -16 59
-25z m5433 -268 c-3 -120 -37 -327 -48 -289 -4 16 1 94 14 190 11 89 18 173
15 187 -6 21 -5 23 7 12 10 -9 13 -37 12 -100z m-378 -85 c-1 -114 -15 -191
-57 -305 -19 -50 -22 -53 -47 -47 -14 3 -46 19 -71 35 -59 36 -82 43 -114 31
-14 -6 -26 -8 -26 -5 0 3 33 48 73 100 39 52 93 123 120 157 26 34 59 86 74
115 37 75 48 57 48 -81z m-5871 -22 c8 -22 -8 -138 -45 -315 -23 -110 -33
-185 -34 -260 -1 -58 -2 -117 -3 -132 -3 -40 -35 -68 -78 -68 l-37 0 6 53 c4
28 13 129 22 222 27 301 62 438 117 457 25 9 29 15 24 34 -7 27 18 35 28 9z
m2812 -158 c42 -33 54 -37 104 -37 l58 0 41 -55 c23 -30 46 -55 51 -55 6 0 10
-6 10 -13 0 -17 -42 -37 -76 -37 -14 0 -22 -4 -19 -10 10 -16 56 -11 104 10
24 11 60 20 81 20 l38 0 -14 -62 c-18 -77 -40 -148 -66 -210 l-20 -48 -82 0
c-152 0 -272 -37 -471 -145 -181 -99 -376 -194 -410 -201 -29 -5 -33 -1 -79
66 -61 89 -131 150 -221 194 -119 58 -187 71 -389 72 l-180 2 -14 38 c-18 52
-10 119 18 149 54 58 179 71 495 52 86 -5 125 -4 114 3 -24 14 -187 38 -316
46 -127 7 -132 12 -90 74 54 81 137 90 367 44 96 -20 167 -28 245 -28 122 -1
131 1 310 82 98 44 170 71 230 86 11 2 46 4 77 2 48 -2 64 -8 104 -39z m5201
-153 c24 -3 45 -9 48 -14 3 -4 -2 -43 -10 -87 -8 -43 -15 -90 -15 -104 0 -22
-8 -30 -52 -50 -65 -28 -185 -30 -322 -5 -49 8 -92 14 -94 11 -2 -2 -2 -11 1
-20 5 -11 22 -15 67 -15 33 0 60 -4 60 -10 0 -5 -10 -10 -22 -10 -13 0 -30 -5
-38 -10 -12 -7 -7 -12 22 -25 30 -12 59 -14 136 -9 l99 7 7 -69 c21 -211 21
-200 -8 -229 -22 -22 -29 -24 -47 -15 -17 10 -20 19 -17 58 l3 47 -195 7
c-118 4 -280 17 -410 34 -278 37 -612 41 -748 10 -45 -10 -81 -21 -78 -23 9
-9 171 -43 257 -54 l92 -12 -27 -24 c-35 -30 -66 -29 -203 4 -108 26 -147 26
-110 -2 9 -7 40 -15 67 -19 51 -7 70 -26 25 -26 -14 0 -25 -5 -25 -11 0 -15
56 -35 136 -49 64 -10 143 -44 132 -56 -6 -5 -258 24 -317 37 -24 5 -52 14
-63 20 -42 22 -27 -1 17 -26 58 -35 149 -63 240 -75 110 -15 658 -50 784 -50
113 0 114 0 149 -31 56 -50 114 -70 216 -78 l91 -6 -3 -35 c-2 -19 -19 -72
-38 -117 -20 -47 -34 -99 -34 -122 0 -23 -4 -41 -8 -41 -4 0 -48 9 -98 20 -55
12 -126 20 -189 20 l-100 0 -179 87 -180 88 -115 1 c-129 2 -157 9 -380 103
-133 56 -248 96 -308 107 l-38 7 45 -36 c24 -20 130 -79 235 -131 104 -53 206
-109 225 -125 l35 -30 -35 -1 c-30 0 -44 8 -80 46 -47 48 -115 90 -124 76 -9
-14 21 -48 53 -62 26 -11 48 -37 38 -47 -2 -2 -24 8 -48 21 -62 35 -177 79
-379 147 -196 66 -212 69 -184 38 l19 -22 -43 7 c-53 8 -117 39 -126 61 -15
39 -8 45 54 45 33 0 106 7 162 15 57 8 119 16 138 18 l35 3 -30 13 c-25 11
-45 10 -126 -5 -53 -9 -104 -14 -113 -11 -11 5 -16 19 -16 52 0 44 1 45 33 45
18 0 86 -7 151 -16 65 -8 126 -13 135 -11 27 7 -48 34 -114 41 -76 9 -135 24
-135 35 0 16 33 22 92 15 37 -4 58 -3 58 4 0 16 -26 21 -82 15 -52 -5 -53 -5
-35 13 15 16 38 20 145 24 117 5 125 7 97 19 -16 7 -61 16 -99 19 -67 5 -68 5
-46 22 37 28 9 35 -158 38 -110 3 -152 7 -149 15 8 27 72 36 207 32 134 -4
134 -4 80 10 -30 8 -109 18 -174 22 -118 6 -119 6 -96 25 26 21 91 24 185 7
33 -6 81 -9 105 -7 l45 3 -55 18 c-30 10 -97 23 -149 29 -140 17 -83 30 127
29 94 -1 172 1 172 4 0 4 -21 15 -46 26 -41 18 -57 20 -167 14 -101 -6 -129
-5 -161 9 -22 9 -36 19 -32 23 4 4 86 6 184 5 141 -2 173 0 157 10 -11 7 -73
15 -137 19 -159 10 -232 46 -161 78 44 20 112 23 208 8 50 -8 94 -12 98 -10
13 8 -14 33 -37 34 -19 0 -19 1 4 11 14 6 59 20 100 30 64 17 126 21 425 28
193 5 409 15 480 23 351 41 659 52 832 31z m-2745 -44 c27 -20 29 -20 60 -3
22 11 64 18 124 21 85 4 176 -11 327 -54 56 -16 -19 -367 -107 -501 -32 -49
-33 -53 -39 -189 -6 -122 -14 -183 -33 -246 -4 -13 0 -18 15 -18 22 0 45 32
33 45 -16 18 32 -7 89 -46 100 -68 185 -103 251 -103 39 -1 58 -5 58 -13 0
-21 42 -41 110 -52 36 -6 188 -15 338 -20 250 -9 277 -12 309 -31 38 -22 63
-20 63 4 0 12 6 13 33 4 17 -6 44 -19 59 -30 37 -26 56 -23 30 5 -31 33 -29
57 2 28 37 -35 166 -67 166 -42 0 5 -7 14 -15 21 -17 14 -20 40 -5 40 21 0
172 -60 198 -79 15 -11 37 -36 47 -55 22 -40 35 -46 35 -17 0 11 -21 38 -46
60 -43 38 -45 41 -22 41 16 0 49 -21 93 -60 37 -33 71 -60 74 -60 3 0 6 -96 6
-213 0 -209 0 -213 -25 -257 -24 -41 -29 -45 -63 -44 -21 1 -53 12 -76 27 -37
25 -40 25 -55 8 -18 -20 -21 -57 -5 -66 22 -14 69 -89 69 -110 0 -12 -9 -30
-20 -40 -24 -21 -58 -15 -97 19 -25 22 -26 25 -10 32 10 3 30 1 44 -5 14 -6
28 -10 30 -7 9 8 -8 26 -64 67 -51 38 -55 44 -51 75 4 30 1 34 -20 34 -49 0
-107 -25 -143 -63 l-38 -38 -108 25 c-106 24 -351 107 -488 165 -84 36 -110
26 -55 -19 l35 -29 -28 -1 c-42 0 -112 37 -152 81 -19 21 -37 39 -39 39 -2 0
-6 -9 -9 -21 -5 -19 -7 -20 -35 -5 -17 9 -39 26 -49 39 -16 21 -24 23 -84 19
-83 -5 -153 13 -296 76 -83 37 -113 46 -113 36 0 -31 99 -119 237 -210 130
-86 146 -94 177 -88 45 8 101 -11 123 -42 24 -32 72 -40 363 -59 129 -9 265
-22 303 -30 103 -21 235 -90 214 -112 -5 -4 -158 -11 -340 -14 -183 -3 -334
-6 -337 -7 -3 -1 2 -7 10 -12 20 -13 -33 -14 -78 -1 -17 5 -32 6 -32 3 0 -16
89 -64 150 -82 36 -10 99 -29 140 -42 l75 -23 -53 -3 c-62 -4 -135 16 -247 65
-44 19 -104 44 -134 54 l-55 19 25 -26 c40 -43 100 -72 251 -123 78 -27 158
-55 176 -62 31 -13 34 -12 51 10 l18 24 174 -16 c257 -24 309 -27 309 -19 0
19 -105 69 -223 108 -73 23 -125 45 -117 47 8 3 70 11 138 18 138 14 302 8
407 -15 115 -24 106 -10 103 -156 l-3 -127 -110 -7 c-60 -3 -182 -13 -270 -21
-242 -22 -359 -19 -584 14 -108 16 -245 32 -306 35 -174 9 -250 38 -425 164
-160 116 -257 199 -329 284 -67 78 -178 245 -169 253 3 3 31 -19 64 -48 66
-60 142 -117 156 -117 21 0 -17 43 -75 84 -74 53 -112 92 -125 127 -11 27 -5
76 9 85 16 9 109 -38 191 -97 83 -60 160 -102 213 -115 30 -7 30 -7 12 13 -10
12 -65 47 -123 78 -57 32 -122 70 -144 86 -37 27 -98 114 -87 125 3 3 59 -30
124 -74 127 -85 223 -138 223 -123 0 17 -66 67 -153 116 -124 69 -160 101
-152 133 11 46 109 211 125 212 9 0 45 -21 82 -47 36 -27 74 -53 84 -60 18
-11 18 -12 -2 -12 -12 -1 -49 18 -83 40 -66 44 -87 45 -55 3 21 -29 43 -42
129 -81 33 -15 63 -29 68 -31 4 -2 7 19 7 47 0 56 0 56 -122 125 -48 27 -68
51 -68 80 0 33 56 12 148 -56 55 -41 108 -65 119 -54 11 11 -27 43 -87 75 -32
17 -70 45 -84 62 -26 31 -35 79 -16 79 21 0 76 -34 130 -80 104 -89 154 -107
86 -32 -40 44 -176 142 -198 142 -21 0 -88 -38 -137 -78 -66 -54 -118 -132
-220 -329 -51 -99 -109 -202 -130 -229 -35 -47 -40 -50 -126 -71 -102 -26
-181 -64 -322 -154 -256 -163 -348 -200 -493 -200 -112 1 -256 37 -248 64 3 6
23 25 45 41 74 51 214 47 297 -9 25 -17 36 -20 36 -11 0 17 -51 62 -80 71 -58
18 30 62 175 86 169 29 235 63 415 219 85 74 191 151 223 163 9 3 9 8 0 18
-21 21 -15 45 22 90 50 59 60 79 40 79 -9 0 -22 -14 -29 -31 -16 -38 -31 -22
-16 16 6 15 28 52 50 83 22 30 40 61 40 69 0 18 19 16 27 -3 3 -9 -8 -33 -26
-59 -17 -24 -31 -47 -31 -51 0 -15 43 32 61 68 10 20 29 44 41 53 l23 16 -25
20 c-44 34 -50 40 -50 49 0 4 21 32 46 62 52 61 129 214 169 338 65 201 126
333 188 414 29 37 30 38 6 26 -13 -7 -58 -48 -101 -90 -91 -92 -147 -198 -181
-340 -13 -54 -27 -90 -34 -90 -7 0 -28 -22 -45 -50 -18 -27 -38 -50 -45 -50
-7 0 8 29 32 64 25 35 45 67 45 72 0 20 -80 -72 -170 -196 -54 -74 -112 -148
-130 -165 -32 -30 -32 -30 -25 -5 10 35 28 62 105 160 82 104 105 139 96 147
-10 10 -45 -27 -102 -108 -30 -42 -61 -83 -71 -90 -15 -13 -16 -11 -10 21 8
37 23 70 106 222 29 54 50 102 46 108 -3 5 -17 10 -31 10 -32 0 -30 11 6 32
17 9 30 24 30 33 0 22 21 19 60 -10 18 -13 36 -22 41 -20 4 3 22 49 40 103 46
140 72 194 114 241 21 22 31 41 24 41 -23 0 -113 -103 -148 -169 l-33 -63 -62
59 c-33 33 -87 81 -118 107 l-58 47 41 60 c53 78 97 128 134 151 37 24 96 19
137 -12z m-572 2 c0 -10 -6 -27 -14 -37 -12 -16 -32 -20 -132 -26 -105 -6
-266 -40 -361 -76 -9 -4 -13 4 -13 25 0 27 5 32 38 41 20 6 51 11 68 11 17 0
58 12 90 26 88 39 151 53 242 53 73 1 82 -1 82 -17z m116 -13 c8 -14 -36 -110
-48 -103 -12 7 -10 42 4 81 12 33 31 43 44 22z m104 -1 c0 -7 -14 -31 -30 -52
-33 -44 -37 -56 -17 -56 8 0 33 23 56 50 36 43 47 50 78 50 l36 0 -47 -50
c-26 -27 -49 -64 -53 -81 -5 -28 -9 -30 -34 -25 -16 3 -42 9 -59 12 -22 5 -30
12 -30 28 1 40 18 97 36 117 19 21 64 26 64 7z m-860 -33 c0 -13 -13 -39 -29
-57 -15 -18 -33 -43 -39 -54 -9 -17 -21 -22 -64 -23 -65 -1 -86 -5 -214 -42
-123 -35 -173 -37 -225 -7 -22 12 -39 25 -39 28 0 4 9 19 21 34 47 59 160 94
384 117 61 6 128 14 150 19 22 4 43 8 48 9 4 0 7 -10 7 -24z m80 -34 c0 -23
-45 -61 -71 -61 -27 0 -24 11 12 48 35 36 59 41 59 13z m540 -51 c0 -5 -22
-10 -50 -10 -54 0 -68 -15 -22 -24 15 -3 75 -14 134 -26 145 -27 237 -63 293
-112 42 -37 82 -94 72 -104 -2 -2 -54 19 -116 46 -61 28 -137 57 -168 65 -60
16 -190 19 -233 5 l-25 -7 27 -11 c15 -6 87 -27 160 -47 182 -49 259 -91 294
-157 l14 -28 -32 6 c-47 8 -121 36 -207 78 -92 44 -164 61 -225 52 -113 -17
-7 -86 194 -126 30 -6 73 -19 95 -29 l40 -19 -28 -11 c-46 -18 -119 -13 -262
19 -129 29 -145 30 -377 30 -247 0 -337 8 -411 37 -54 20 -66 19 -161 -6 -44
-12 -81 -19 -83 -17 -2 2 -15 36 -29 75 -27 78 -25 147 5 155 99 28 608 141
698 155 130 21 403 28 403 11z m-1360 -131 c13 -24 -3 -51 -26 -42 -17 6 -18
35 -2 51 16 16 15 16 28 -9z m151 -32 c45 -35 40 -89 -11 -114 -20 -10 -28
-10 -39 2 -12 11 -12 21 -4 50 11 36 6 44 -15 23 -17 -17 -15 -55 5 -111 17
-47 17 -49 -2 -63 -10 -8 -22 -14 -26 -14 -7 0 -29 132 -29 173 0 40 27 67 68
67 20 0 44 -6 53 -13z m-2471 -25 c0 -11 -9 -27 -19 -36 -20 -18 -99 -41 -109
-32 -3 3 13 24 35 46 45 44 93 55 93 22z m2198 -58 c42 -8 81 -19 85 -23 4 -4
19 -66 34 -137 21 -106 25 -142 18 -204 -7 -73 -8 -76 -48 -105 -59 -43 -104
-107 -181 -256 -93 -178 -127 -220 -206 -248 -35 -13 -119 -61 -188 -108 -135
-92 -222 -138 -282 -148 -31 -5 -36 -10 -33 -28 7 -36 -34 -63 -157 -101 -139
-44 -162 -56 -104 -56 24 0 80 15 132 35 49 19 109 37 133 41 l44 6 -20 -20
c-11 -11 -53 -43 -94 -71 -73 -50 -76 -51 -148 -51 -41 0 -83 4 -93 10 -13 7
-28 6 -52 -4 -137 -58 -536 -72 -836 -30 -43 6 -44 7 -38 38 53 259 102 565
116 736 6 69 13 148 16 176 l5 50 97 24 c53 12 145 38 205 57 l107 34 152 -75
c84 -41 155 -72 158 -69 3 3 0 8 -7 10 -58 21 -82 82 -40 104 12 7 37 25 55
40 41 36 61 36 95 2 46 -49 71 -119 71 -205 1 -86 15 -91 35 -12 14 54 0 147
-30 207 -11 21 -19 40 -17 42 2 1 37 18 78 37 41 19 127 64 190 100 144 82
264 142 335 169 132 49 277 61 413 33z m-3073 -62 c17 -8 69 -43 116 -78 91
-67 143 -94 183 -94 57 0 57 1 -16 -218 -38 -114 -83 -236 -101 -270 -54 -111
-148 -197 -242 -223 -32 -9 -36 -13 -31 -35 6 -21 0 -27 -48 -50 -52 -25 -55
-25 -112 -10 -140 36 -222 48 -333 47 l-115 0 -49 55 c-56 62 -102 89 -170 99
-46 7 -47 8 -62 58 -35 118 -1 230 117 385 47 60 75 67 106 25 18 -24 23 -26
49 -18 16 6 40 29 58 57 17 26 34 47 38 47 5 1 23 -15 40 -34 50 -57 68 -37
22 25 -30 41 -33 80 -7 80 11 0 48 19 83 41 64 42 119 69 139 69 5 0 10 -11
10 -24 0 -12 11 -38 25 -57 14 -19 34 -47 44 -63 17 -25 21 -27 26 -13 4 9 2
39 -4 67 -23 109 -16 122 84 145 56 14 105 9 150 -13z m3378 -20 c10 -11 17
-40 19 -82 3 -64 4 -65 31 -65 20 1 26 -3 23 -15 -3 -8 -10 -35 -16 -59 l-11
-44 -46 7 c-25 3 -60 6 -78 6 -26 0 -34 5 -39 24 -7 30 16 108 47 154 13 21
27 49 31 65 7 32 17 34 39 9z m-2539 2 c21 -8 21 -44 0 -44 -8 0 -23 7 -31 16
-14 13 -14 17 -2 25 17 11 14 10 33 3z m6046 -41 l115 -38 290 0 c279 -1 385
-8 385 -26 0 -4 -7 -34 -15 -66 -9 -32 -17 -101 -20 -153 l-4 -95 -56 -2 c-50
-1 -57 1 -65 21 -5 13 -28 32 -54 44 -42 20 -121 81 -113 88 1 2 25 -3 52 -11
71 -22 89 -17 25 6 -122 44 -382 100 -579 124 -49 7 -52 8 -37 24 13 12 36 16
104 16 48 -1 107 -4 132 -8 73 -13 35 10 -46 27 -70 15 -195 29 -372 42 -98 7
-104 13 -37 39 62 23 160 13 295 -32z m-5330 6 c30 -31 30 -32 14 -58 l-18
-26 -8 31 c-11 43 -31 57 -73 52 -40 -5 -45 4 -12 20 38 18 64 13 97 -19z
m-336 -3 c32 -29 32 -36 2 -36 -28 0 -51 24 -42 45 7 20 10 19 40 -9z m-372
-46 c73 0 69 -13 -14 -40 -48 -16 -54 -17 -65 -2 -7 9 -13 34 -13 56 l1 41 15
-27 c14 -26 19 -28 76 -28z m9654 -7 c-13 -27 -31 -57 -39 -68 -25 -32 -31 -9
-8 27 11 18 29 45 38 60 29 46 35 32 9 -19z m-4727 18 c12 -8 12 -12 3 -24
-28 -33 -102 -24 -102 13 0 17 6 20 43 20 23 0 48 -4 56 -9z m967 -31 c15 0
23 -4 19 -10 -7 -11 -95 -10 -95 2 0 10 23 17 38 12 8 -2 25 -4 38 -4z m-981
-50 c-3 -5 -20 -10 -36 -10 -21 0 -39 -10 -60 -32 -16 -18 -29 -36 -29 -40 0
-5 37 -8 81 -8 l82 0 -7 -47 c-3 -26 -10 -51 -15 -56 -5 -5 -34 -10 -64 -10
-30 -1 -59 -6 -63 -10 -5 -4 -3 -21 3 -37 6 -17 9 -30 6 -30 -16 0 -45 25 -59
52 -20 39 -15 132 11 196 l17 42 70 0 c43 0 67 -4 63 -10z m-1832 -11 c-15
-15 -75 -17 -80 -1 -3 8 9 12 43 12 35 0 45 -3 37 -11z m-4583 -39 c0 -24 -36
-63 -53 -57 -16 5 -26 49 -14 65 5 6 22 12 38 12 22 0 29 -5 29 -20z m4710
-17 c33 -10 60 -22 60 -27 0 -15 -39 -146 -67 -224 -14 -40 -23 -76 -19 -79
12 -12 92 33 195 109 58 43 107 75 110 73 11 -12 -71 -80 -171 -142 -59 -37
-105 -70 -102 -75 3 -4 17 -8 32 -8 l26 0 -39 -41 c-91 -93 -348 -291 -410
-315 -34 -13 -11 23 55 89 39 38 69 72 66 74 -11 11 -68 -32 -117 -87 l-55
-62 -124 -23 c-200 -39 -312 -29 -360 30 -12 16 -9 15 23 -4 68 -42 41 7 -42
73 -68 55 -96 102 -86 146 4 17 10 30 13 30 4 0 18 -21 32 -46 46 -87 162
-196 190 -179 15 10 -4 31 -57 62 -50 29 -53 38 -17 50 25 8 25 9 -26 50 -54
44 -82 76 -93 106 -12 34 24 17 81 -37 67 -63 90 -76 133 -76 26 0 30 2 19 15
-6 8 -31 26 -55 40 -46 26 -85 69 -85 91 0 21 72 -9 144 -59 65 -46 107 -67
133 -67 27 0 -3 27 -104 92 -51 34 -93 64 -93 67 0 15 25 31 49 31 13 0 53
-16 89 -35 35 -20 69 -34 75 -32 12 4 -26 44 -58 63 -19 11 -19 11 2 22 17 10
37 8 92 -5 39 -9 74 -13 78 -9 15 15 -38 45 -94 52 l-56 7 89 45 c55 29 109
66 142 98 45 45 52 50 52 31 0 -14 -23 -45 -60 -82 -63 -63 -77 -91 -37 -80
61 19 127 85 127 127 0 21 28 43 84 64 35 13 55 28 69 52 19 33 22 34 63 28
24 -3 70 -13 104 -23z m274 6 c-3 -5 -31 -27 -63 -48 -31 -21 -63 -46 -71 -55
-19 -24 -31 -1 -18 34 12 36 38 59 84 75 38 13 78 9 68 -6z m-734 -3 c0 -14
-49 -36 -81 -36 -11 0 -19 7 -19 15 0 11 11 15 40 15 22 0 40 5 40 10 0 6 5
10 10 10 6 0 10 -6 10 -14z m1140 -5 c-12 -24 -3 -51 19 -52 22 -2 23 -2 45 7
17 7 19 3 14 -38 -6 -54 -38 -125 -119 -268 -140 -246 -346 -468 -597 -641
-135 -94 -269 -123 -386 -83 -60 21 -138 91 -116 104 22 13 54 3 167 -53 57
-28 106 -47 110 -44 13 14 -48 64 -105 87 -56 23 -102 55 -102 72 0 23 97 109
179 158 92 56 112 76 65 64 -25 -6 -26 -6 -14 17 27 49 172 179 315 281 235
168 305 230 376 338 17 26 17 26 92 -5 25 -11 22 23 -5 52 l-21 23 47 0 c43 0
46 -2 36 -19z m-2917 -8 c10 -6 9 -43 -2 -43 -5 0 -14 7 -21 15 -20 24 -67 19
-86 -10 -19 -28 -42 -33 -51 -9 -16 43 105 79 160 47z m3057 -4 c0 -16 -30
-22 -53 -11 l-22 10 25 10 c27 10 50 6 50 -9z m2065 -5 c77 -8 158 -20 180
-26 l40 -11 -35 -10 c-69 -19 -223 5 -380 58 l-45 15 50 -5 c28 -3 113 -12
190 -21z m-2501 -15 c-16 -17 -78 -60 -139 -96 -60 -35 -131 -82 -157 -104
l-47 -39 11 30 c27 78 168 187 293 226 64 20 72 17 39 -17z m-884 -67 l0 -48
-105 -18 c-58 -11 -108 -16 -112 -13 -3 4 3 10 13 13 122 44 169 71 179 104
11 34 25 12 25 -38z m6782 26 c-6 -7 -33 -37 -61 -65 -42 -44 -51 -49 -51 -32
0 26 80 109 105 109 13 0 15 -3 7 -12z m-9507 -71 l80 -12 -1 -175 c-2 -244
-38 -483 -109 -716 l-26 -84 -37 19 c-20 10 -84 33 -142 51 -134 42 -181 66
-271 139 -144 116 -189 178 -189 260 0 69 23 120 120 271 39 61 79 131 88 155
14 39 23 47 72 69 31 14 74 30 96 35 44 12 199 5 319 -12z m2411 -52 c-11 -8
-25 -15 -31 -15 -7 0 -20 -9 -30 -20 -19 -21 -44 -12 -30 10 10 15 64 39 90
39 20 0 20 0 1 -14z m1824 -93 c-1 -46 -91 -189 -111 -176 -15 9 -2 41 49 126
44 73 62 88 62 50z m714 -54 c18 -29 0 -30 -53 -4 -46 24 -71 50 -71 75 0 13
110 -50 124 -71z m152 2 c47 -26 104 -93 91 -106 -2 -3 -41 20 -85 50 -44 30
-95 62 -114 70 l-33 14 45 1 c32 1 59 -7 96 -29z m4157 -27 c2 -5 -4 -21 -14
-37 -15 -24 -19 -27 -24 -14 -11 29 24 75 38 51z m-5168 -60 c-10 -16 -25 -37
-35 -48 -28 -32 -42 -65 -35 -83 4 -10 -2 -22 -13 -32 -11 -8 -73 -58 -138
-111 -117 -94 -321 -238 -418 -294 l-49 -29 18 28 c31 46 184 167 374 295 100
67 181 125 178 127 -10 11 -100 -32 -180 -87 -49 -33 -91 -58 -94 -56 -11 11
46 72 147 156 58 49 113 98 124 110 28 31 39 14 16 -25 -18 -28 -19 -34 -6
-34 8 0 23 12 33 26 41 58 66 84 80 84 13 0 13 -4 -2 -27z m1752 7 c32 -19 59
-57 49 -68 -7 -7 -58 19 -103 52 -52 38 -5 53 54 16z m-392 0 c18 -6 41 -20
50 -30 18 -20 17 -20 -67 -20 -86 0 -177 20 -196 43 -13 16 166 23 213 7z
m3140 -90 c22 0 46 -4 54 -9 19 -12 -70 -17 -179 -11 l-85 5 50 16 c34 11 60
13 85 8 19 -5 53 -9 75 -9z m840 -88 c-7 -35 -8 -36 -18 -14 -7 16 -7 30 3 50
16 34 25 14 15 -36z m-2812 9 c17 -17 -1 -41 -30 -41 -35 1 -79 32 -68 50 9
14 81 8 98 -9z m-4526 -76 c12 -8 27 -31 33 -50 6 -19 20 -41 31 -49 18 -12
18 -14 3 -27 -14 -11 -20 -9 -43 19 -19 23 -32 31 -44 26 -15 -5 -17 1 -17 45
0 55 4 59 37 36z m5138 -3 c-11 -11 -175 -31 -254 -32 -94 0 -221 16 -221 29
0 3 108 6 239 6 132 0 238 -1 236 -3z m-4345 -81 c0 -13 -81 -63 -88 -56 -4 4
7 17 23 30 17 13 35 28 40 33 11 10 25 6 25 -7z m-520 -46 c0 -3 -5 -14 -12
-25 -10 -16 -9 -23 12 -45 41 -44 11 -41 -33 4 -40 40 -41 43 -23 57 19 13 56
20 56 9z m-2815 -202 c104 -67 274 -157 343 -181 l31 -11 -50 -123 c-123 -299
-222 -439 -332 -469 -55 -15 -103 8 -168 79 -99 109 -179 274 -225 467 -32
138 -28 160 56 277 33 45 65 97 72 115 l11 31 76 -57 c42 -31 126 -89 186
-128z m4388 151 c-10 -28 -93 -59 -93 -35 0 11 82 59 92 54 4 -2 5 -10 1 -19z
m-1459 -6 c22 -32 20 -38 -14 -38 -27 0 -30 3 -30 30 0 36 22 40 44 8z m218
-28 c-23 -21 -43 -30 -67 -30 -19 0 -35 4 -35 9 0 22 50 42 125 49 6 1 -5 -12
-23 -28z m-1042 -25 c0 -9 -19 -36 -43 -60 -35 -35 -45 -41 -53 -28 -5 8 -25
18 -44 22 l-35 7 48 28 c41 24 83 40 120 45 4 1 7 -6 7 -14z m2068 -17 c-25
-37 -81 -77 -118 -84 l-35 -7 25 28 c24 26 116 85 134 85 5 0 2 -10 -6 -22z
m-1464 -24 c23 -24 41 -64 28 -64 -4 1 -25 13 -47 28 -44 31 -62 74 -26 65 11
-3 31 -16 45 -29z m294 19 c-2 -13 -14 -19 -41 -21 -39 -3 -49 10 -19 27 29
17 64 14 60 -6z m152 -10 c-1 -10 -36 -53 -44 -53 -11 0 -6 36 6 48 13 13 38
16 38 5z m-487 -94 c22 -28 22 -39 -3 -39 -52 0 -120 50 -120 87 0 19 100 -21
123 -48z m392 19 c-11 -39 -52 -68 -96 -68 -21 0 -39 4 -39 9 0 29 75 81 118
81 19 0 22 -4 17 -22z m167 -32 c70 -49 135 -112 126 -122 -12 -12 -67 8 -130
45 -34 21 -73 41 -85 45 -13 4 -23 12 -23 19 0 9 38 57 46 57 2 0 31 -20 66
-44z m6178 13 c-121 -104 -240 -178 -140 -87 43 39 157 118 169 118 3 0 -10
-14 -29 -31z m-3800 -21 c56 -16 270 -112 270 -120 0 -28 -173 24 -283 86
-101 56 -97 66 13 34z m-2890 -177 l45 -40 -95 40 c-131 56 -175 92 -195 158
-6 20 9 12 96 -47 57 -39 124 -89 149 -111z m95 169 c-3 -5 -17 -10 -31 -10
-13 0 -24 5 -24 10 0 6 14 10 31 10 17 0 28 -4 24 -10z m985 -2 c0 -13 -32
-38 -56 -44 -52 -13 -99 21 -60 43 18 10 116 11 116 1z m-589 -99 c30 -21 55
-57 45 -66 -9 -9 -98 17 -133 38 -28 17 -73 75 -73 93 0 10 129 -42 161 -65z
m-456 37 c29 -12 63 -51 53 -61 -8 -8 -93 42 -96 58 -4 21 -1 21 43 3z m1749
-2 c9 -8 16 -22 16 -30 0 -17 -31 -19 -48 -2 -17 17 -15 48 2 48 8 0 22 -7 30
-16z m1560 -22 l50 -24 -25 -14 c-42 -23 -85 -17 -125 18 -33 29 -35 33 -18
45 21 15 51 9 118 -25z m-3051 -20 c44 -19 127 -92 127 -112 0 -13 -62 -23
-135 -23 -61 0 -135 23 -135 43 0 6 11 5 29 -5 54 -27 48 4 -11 61 -31 30 -50
55 -44 58 23 11 125 -2 169 -22z m-3441 -162 c26 -85 46 -159 44 -165 -1 -5
-14 9 -29 32 -46 72 -70 71 -42 -2 24 -63 12 -67 -24 -10 -35 55 -57 110 -80
198 l-17 62 36 22 c19 13 42 22 49 20 10 -1 32 -57 63 -157z m7315 128 c36
-25 43 -48 15 -48 -17 0 -72 48 -72 63 0 13 24 7 57 -15z m-2489 -20 c33 -26
39 -34 27 -41 -17 -9 -25 -5 -72 32 -22 18 -28 28 -20 33 18 11 20 11 65 -24z
m-1830 -8 c34 -21 42 -40 17 -40 -25 0 -96 40 -90 50 10 16 37 12 73 -10z
m-886 -17 c9 -10 19 -29 23 -43 11 -37 35 -60 64 -60 18 0 22 -3 14 -11 -16
-16 -74 5 -107 38 -18 17 -26 37 -26 59 0 38 9 43 32 17z m1678 9 c0 -17 -25
-32 -52 -32 -26 0 -37 17 -21 33 9 10 73 9 73 -1z m-1495 -35 c18 -15 24 -28
20 -40 -10 -24 -18 -21 -38 13 -13 21 -26 30 -43 30 -14 0 -22 4 -19 10 11 17
53 11 80 -13z m1595 2 c0 -5 -10 -13 -22 -18 -51 -19 -68 -22 -68 -12 0 5 16
15 35 21 19 6 35 16 35 21 0 6 5 7 10 4 6 -3 10 -11 10 -16z m3247 -103 c29
-14 54 -30 57 -35 12 -19 -14 -21 -51 -6 -20 9 -43 13 -50 11 -7 -3 -17 4 -23
14 -11 21 -80 59 -142 79 -20 7 -42 19 -48 26 -15 18 181 -50 257 -89z m-3477
76 c0 -14 -23 -32 -42 -32 -20 0 -21 1 -12 24 6 16 54 23 54 8z m1470 3 c0
-19 -27 -55 -42 -55 -20 0 -23 12 -8 41 9 16 50 28 50 14z m-432 -27 c20 -20
15 -48 -8 -48 -25 0 -81 40 -74 52 8 12 68 10 82 -4z m-88 -43 c10 -12 6 -13
-27 -8 l-38 5 37 -35 c24 -23 36 -41 32 -51 -10 -26 -31 -18 -79 31 -43 43
-45 48 -29 60 24 17 89 17 104 -2z m755 -42 c79 -59 82 -77 9 -53 -39 13 -104
72 -104 95 0 24 15 18 95 -42z m-132 -17 c20 -18 34 -36 30 -40 -11 -11 -79
-6 -97 7 -16 12 -16 14 4 40 12 15 22 27 24 27 1 0 19 -15 39 -34z m-1653 4
c31 -9 35 -14 37 -45 1 -20 13 -56 27 -80 14 -24 26 -51 26 -61 0 -30 -31 6
-61 72 -31 69 -59 100 -59 66 0 -32 -19 -36 -26 -5 l-7 27 -9 -24 c-14 -38 8
-75 78 -131 37 -29 64 -58 64 -69 0 -19 -26 -43 -79 -72 -17 -9 -31 -22 -31
-28 0 -18 39 -11 80 15 75 47 79 28 8 -36 -38 -33 -68 -67 -68 -74 0 -28 21
-26 51 5 41 40 47 32 16 -20 l-24 -41 -80 60 c-44 33 -101 85 -128 116 -52 62
-135 181 -135 196 0 21 31 7 45 -20 31 -61 63 -76 92 -42 9 11 22 17 29 14 9
-3 10 5 3 37 -13 55 -34 95 -61 114 -25 18 -19 31 11 21 13 -4 44 -45 77 -101
30 -52 62 -94 70 -94 21 0 17 13 -22 71 -82 122 -83 139 -11 139 28 0 68 -5
87 -10z m920 -27 l35 -36 -30 7 c-30 7 -75 42 -75 58 0 20 39 5 70 -29z m239
1 c-21 -25 -109 -67 -109 -51 0 23 24 44 62 57 21 6 41 17 45 23 5 8 8 8 11
-1 2 -7 -2 -20 -9 -28z m-1022 -6 c37 -13 40 -20 18 -38 -28 -23 -108 12 -90
40 8 13 31 13 72 -2z m2889 -30 c34 -23 34 -23 9 -26 -26 -3 -123 24 -139 39
-15 14 36 27 68 18 16 -5 44 -19 62 -31z m-1494 18 c10 -7 15 -16 11 -19 -12
-12 -51 -7 -56 7 -11 27 16 34 45 12z m-320 -48 c-12 -18 -32 -44 -46 -57 -22
-21 -37 -71 -21 -71 3 0 40 35 83 77 60 61 78 74 80 59 3 -11 -13 -36 -42 -65
-33 -34 -48 -58 -53 -85 -6 -36 -5 -38 15 -27 11 6 36 32 55 59 36 49 76 77
97 70 7 -2 -7 -26 -34 -59 -45 -54 -70 -119 -48 -119 15 0 50 38 58 62 8 27
27 22 22 -7 -7 -32 -3 -32 40 6 86 76 177 94 235 49 30 -24 37 -25 37 -5 0 8
-14 22 -31 30 -72 38 3 71 120 53 71 -11 132 -39 301 -138 74 -44 150 -84 168
-91 40 -14 41 -34 1 -54 -16 -9 -39 -25 -51 -37 -12 -12 -24 -16 -29 -11 -6 6
-2 17 11 28 22 20 26 35 9 35 -7 0 -51 -24 -98 -54 -47 -30 -98 -60 -113 -67
-37 -16 -26 -29 24 -29 41 0 41 0 23 -20 -15 -16 -16 -23 -6 -33 9 -9 24 -6
67 17 30 16 57 27 59 24 5 -5 -87 -76 -109 -84 -7 -3 -42 13 -77 36 -130 85
-273 144 -515 215 -177 52 -277 98 -322 150 -53 60 -39 104 51 155 28 16 53
27 55 25 2 -2 -5 -19 -16 -37z m-772 12 c13 -9 13 -11 0 -19 -17 -12 -30 -5
-30 15 0 16 9 18 30 4z m169 -13 c73 -48 81 -54 74 -60 -14 -14 -40 -6 -87 28
-27 19 -56 35 -63 35 -8 0 -11 5 -8 10 10 17 48 11 84 -13z m101 -2 c13 -14
18 -25 11 -25 -16 0 -61 30 -61 41 0 17 27 9 50 -16z m-357 -21 c37 -25 102
-112 92 -122 -3 -3 -41 29 -84 71 -79 77 -83 102 -8 51z m685 14 c7 -7 12 -20
12 -31 0 -17 -2 -17 -29 5 -28 23 -31 38 -7 38 6 0 17 -5 24 -12z m-753 -30
c26 -12 72 -75 62 -85 -7 -6 -126 78 -127 90 0 11 36 8 65 -5z m274 -54 c23
-19 31 -34 31 -57 l-1 -32 -44 50 c-25 27 -45 53 -45 57 0 16 29 7 59 -18z
m-226 -73 c22 -18 23 -71 1 -71 -27 0 -51 18 -64 50 -7 16 -16 30 -20 30 -17
0 -18 -14 -3 -46 19 -38 11 -56 -13 -32 -13 13 -15 28 -9 76 l7 61 41 -26 c23
-15 50 -34 60 -42z m300 -33 c-13 -12 -25 -19 -29 -15 -10 10 16 37 34 37 13
0 12 -4 -5 -22z m77 -38 c0 -10 -9 -24 -20 -30 -11 -6 -20 -19 -20 -30 0 -22
17 -19 127 29 124 53 136 39 23 -28 -39 -23 -77 -53 -86 -67 -9 -13 -20 -24
-24 -24 -5 0 -24 22 -44 49 -31 41 -35 53 -27 74 17 43 71 64 71 27z m280 -53
c-105 -84 -226 -164 -236 -155 -2 3 6 24 19 49 25 50 71 80 158 103 67 18 78
19 59 3z m1875 -11 c88 -23 89 -24 52 -31 -46 -9 -237 32 -215 46 21 14 68 10
163 -15z m-2415 -6 c0 -17 -40 -31 -78 -28 l-37 3 30 17 c33 19 85 24 85 8z
m730 -30 c0 -11 -80 -36 -165 -51 -82 -14 -116 -29 -144 -65 -12 -15 -21 -22
-21 -15 0 24 73 90 123 111 74 33 207 45 207 20z m-930 -65 c0 -18 -52 -83
-69 -88 -12 -3 -21 -3 -21 -1 0 14 41 83 52 87 18 7 38 8 38 2z m2227 -26 c16
-6 23 -13 17 -17 -6 -4 -20 -25 -32 -47 -11 -22 -28 -47 -38 -56 -20 -17 -54
-32 -54 -24 0 6 74 155 77 155 1 0 14 -5 30 -11z m883 -269 c11 -60 -2 -130
-24 -130 -10 0 -13 11 -10 38 13 129 16 153 20 150 2 -3 8 -28 14 -58z m-14
-207 c10 -38 -27 -263 -38 -233 -5 13 -2 61 7 117 8 51 12 105 9 118 -4 15 -2
25 5 25 6 0 14 -12 17 -27z m-42 -318 c-9 -13 -13 -29 -9 -35 3 -5 1 -10 -4
-10 -6 0 -11 9 -11 21 0 28 19 61 30 54 6 -4 3 -16 -6 -30z m-2204 -33 c0 -32
-50 -91 -78 -92 -7 0 3 19 22 44 20 23 36 48 36 55 0 6 5 11 10 11 6 0 10 -8
10 -18z m188 -21 c30 -16 70 -67 77 -100 4 -19 1 -41 -9 -60 -21 -40 -21 -71
1 -71 33 0 -72 -92 -129 -113 -12 -4 -36 16 -88 73 l-71 80 47 57 c25 32 58
81 72 109 23 48 27 51 52 44 15 -4 36 -13 48 -19z m516 -2037 c16 -10 12 -13
-27 -23 -58 -14 -145 -14 -242 0 -74 11 -86 22 -35 32 44 9 284 2 304 -9z m23
-2037 c-5 -17 -57 -31 -69 -19 -6 6 -8 15 -4 20 8 14 78 13 73 -1z m-99 -107
c-2 -38 -9 -75 -15 -81 -20 -20 -27 17 -13 62 11 34 11 42 -1 54 -24 24 -103
-20 -173 -96 l-60 -64 79 -3 c72 -3 105 -13 105 -31 0 -4 -16 -5 -36 -3 -20 3
-61 -1 -91 -9 -61 -14 -86 -6 -91 29 -2 15 10 35 38 62 31 31 39 44 31 54 -8
9 8 21 67 49 91 43 98 45 136 46 l28 1 -4 -70z m992 -36 c0 -34 -4 -53 -10
-49 -18 11 -12 105 7 105 2 0 3 -25 3 -56z"/>
<path d="M6597 11893 c-4 -3 5 -17 19 -30 23 -21 25 -30 22 -78 -3 -62 10 -72
39 -29 14 23 15 32 4 72 -7 25 -17 52 -23 59 -11 14 -50 18 -61 6z"/>
<path d="M5730 11853 c0 -34 35 -116 66 -151 42 -50 94 -82 94 -58 0 8 19 29
41 47 47 37 44 40 -43 53 -32 5 -53 14 -62 28 -22 32 -10 40 49 33 53 -7 95
-1 95 14 0 5 -40 14 -90 20 -49 6 -103 14 -120 17 -16 4 -30 2 -30 -3z"/>
<path d="M6534 11686 c-15 -39 24 -96 54 -77 9 6 8 16 -5 49 -18 42 -39 54
-49 28z"/>
<path d="M10570 11061 c0 -16 9 -39 20 -52 l19 -24 1 37 c0 20 -7 44 -16 52
-21 22 -24 20 -24 -13z"/>
<path d="M3852 8759 c-12 -19 -11 -20 15 -17 17 2 29 10 31 21 5 24 -30 22
-46 -4z"/>
<path d="M3723 8685 c-47 -13 -123 -48 -161 -73 -10 -7 8 -14 58 -26 98 -22
152 -21 181 4 13 10 18 19 12 20 -24 0 -13 29 17 47 69 40 3 57 -107 28z"/>
<path d="M4277 8546 c-30 -8 -62 -27 -86 -50 -34 -33 -41 -36 -98 -36 -72 0
-108 -11 -123 -39 -10 -20 -9 -21 52 -15 181 16 280 54 321 124 17 29 17 30 0
29 -10 0 -40 -6 -66 -13z"/>
<path d="M8043 8490 c-103 -9 -274 -41 -268 -50 2 -4 60 -10 127 -13 127 -7
168 -14 168 -27 0 -14 -44 -20 -153 -20 -60 0 -106 -4 -103 -8 3 -5 159 -12
348 -16 189 -4 381 -11 428 -17 47 -5 120 -12 162 -15 l77 -7 38 38 c33 33 35
38 20 47 -10 5 -86 13 -170 17 -90 5 -164 13 -182 22 l-30 13 40 4 c22 2 102
-1 177 -8 137 -13 195 -10 243 12 73 33 12 38 -445 36 -217 0 -432 -4 -477 -8z"/>
<path d="M6722 8295 c-31 -45 -42 -85 -22 -85 6 0 10 7 10 16 0 9 11 29 25 46
20 24 35 68 22 68 -2 0 -18 -20 -35 -45z"/>
<path d="M7350 7320 c0 -19 55 -50 108 -60 93 -19 321 -77 587 -150 240 -65
400 -103 550 -130 39 -7 92 -21 118 -33 85 -35 72 1 -18 53 -53 30 -103 40
-279 56 -58 5 -86 15 -170 59 -143 75 -237 99 -646 165 -102 17 -200 35 -217
39 -18 5 -33 6 -33 1z"/>
<path d="M6708 6861 c94 -83 138 -111 172 -111 24 1 24 1 -5 14 -16 8 -59 40
-95 72 -69 61 -117 94 -138 94 -6 0 23 -31 66 -69z"/>
<path d="M7312 6430 c-15 -24 -46 -26 -95 -5 -45 19 -87 19 -87 2 0 -21 33
-32 235 -82 102 -25 202 -52 222 -60 l36 -15 -6 30 c-7 35 -9 34 30 15 16 -8
45 -17 64 -21 l34 -5 -39 25 c-22 13 -78 37 -125 51 -124 38 -224 71 -241 78
-9 5 -20 0 -28 -13z"/>
<path d="M8313 6412 c25 -27 77 -51 213 -97 68 -23 119 -35 130 -31 18 7 4 14
-221 105 -38 16 -86 32 -105 36 -35 7 -35 7 -17 -13z"/>
<path d="M4295 7800 c-11 -13 -77 -60 -146 -105 -120 -79 -183 -135 -160 -143
30 -10 334 98 319 113 -2 3 -45 -6 -94 -20 -49 -14 -95 -25 -103 -25 -28 0 18
36 101 81 81 44 112 74 106 105 -3 14 -6 13 -23 -6z"/>
<path d="M3390 7644 c0 -15 59 -44 66 -33 3 6 2 15 -2 19 -13 13 -64 23 -64
14z"/>
<path d="M4055 7522 c-28 -10 -73 -30 -100 -46 -52 -31 -145 -118 -145 -136 0
-14 171 97 193 126 10 13 26 24 35 25 10 0 40 11 67 24 40 19 45 23 25 24 -14
0 -48 -7 -75 -17z"/>
<path d="M2712 7100 c16 -48 172 -67 279 -33 l54 17 -150 7 c-82 3 -158 10
-169 14 -13 6 -17 4 -14 -5z"/>
<path d="M950 7970 c0 -5 9 -19 21 -31 15 -15 24 -18 32 -10 7 7 3 16 -14 30
-27 23 -39 26 -39 11z"/>
<path d="M870 7668 c1 -47 33 -111 69 -137 17 -12 31 -19 31 -14 0 4 -11 39
-25 77 -36 100 -75 138 -75 74z"/>
<path d="M741 7657 c-32 -82 17 -195 109 -246 45 -25 45 -23 0 44 -43 63 -73
126 -86 180 -12 50 -12 50 -23 22z"/>
<path d="M8615 8021 c-3 -5 -1 -12 5 -16 13 -8 50 3 50 16 0 12 -47 12 -55 0z"/>
<path d="M5824 7342 c-74 -125 -77 -132 -62 -132 18 0 78 38 100 63 19 22 72
127 66 132 -5 4 -47 25 -50 25 -2 0 -26 -39 -54 -88z"/>
<path d="M5720 7333 c-35 -37 -87 -104 -115 -148 -57 -88 -109 -185 -102 -191
2 -2 24 9 49 25 80 51 156 164 214 318 13 35 22 63 20 63 -2 0 -32 -30 -66
-67z"/>
<path d="M1936 7405 c-4 -11 1 -15 18 -15 14 0 30 -2 38 -5 13 -5 46 11 38 18
-3 2 -24 7 -46 11 -32 4 -43 2 -48 -9z"/>
<path d="M2030 7341 c0 -30 75 -61 105 -44 12 7 7 14 -28 31 -47 23 -77 28
-77 13z"/>
<path d="M2056 7261 c-25 -10 173 -52 205 -44 19 5 7 11 -56 29 -85 24 -118
27 -149 15z"/>
<path d="M5397 5800 c-31 -9 -57 -28 -57 -40 0 -14 73 8 94 29 23 23 13 26
-37 11z"/>
<path d="M5579 5720 c-52 -27 -119 -89 -119 -110 0 -28 123 51 164 104 32 43
28 44 -45 6z"/>
<path d="M7125 5665 c-22 -8 -50 -15 -62 -15 -13 0 -24 -8 -28 -20 -8 -25 -53
-52 -143 -84 -40 -14 -86 -33 -103 -41 -29 -16 -54 -58 -44 -75 5 -8 124 44
280 121 61 30 155 103 155 120 0 12 -7 11 -55 -6z"/>
<path d="M5660 5608 c-18 -13 -53 -52 -78 -87 -45 -63 -45 -63 -15 -48 16 9
63 48 104 86 67 64 72 70 48 71 -14 0 -41 -10 -59 -22z"/>
<path d="M6664 5516 c-10 -8 -16 -17 -12 -21 9 -10 61 9 66 23 5 17 -30 15
-54 -2z"/>
</g>
</svg>
