<?xml version="1.0" standalone="no"?>
<!DOCTYPE svg PUBLIC "-//W3C//DTD SVG 20010904//EN"
 "http://www.w3.org/TR/2001/REC-SVG-20010904/DTD/svg10.dtd">
<svg version="1.0" xmlns="http://www.w3.org/2000/svg"
 width="1280.000000pt" height="853.000000pt" viewBox="0 0 1280.000000 853.000000"
 preserveAspectRatio="xMidYMid meet">
<g transform="translate(0.000000,853.000000) scale(0.100000,-0.100000)"
fill="#000000" stroke="none">
<path d="M2610 7419 c-31 -7 -115 -12 -179 -10 -32 1 -130 -44 -137 -63 -3 -8
-41 -35 -84 -60 -91 -53 -189 -132 -209 -168 -10 -21 -23 -27 -65 -32 -108
-12 -232 -71 -254 -121 -9 -19 -8 -34 3 -66 8 -23 15 -76 15 -119 0 -42 3 -80
7 -84 4 -4 7 -53 8 -109 0 -101 0 -101 27 -111 19 -7 35 -6 50 1 37 18 96 25
103 12 4 -6 7 -31 7 -56 -1 -25 5 -55 13 -67 8 -11 24 -52 35 -89 27 -87 92
-159 160 -177 25 -7 49 -15 55 -18 5 -3 24 -6 42 -7 70 -1 98 -85 29 -85 -48
0 -58 -11 -54 -61 3 -37 7 -45 26 -47 39 -6 19 -24 -47 -42 -104 -29 -138 -49
-171 -100 -16 -26 -30 -53 -30 -62 0 -25 -11 -27 -43 -7 -56 34 -127 20 -127
-26 0 -19 -11 -28 -57 -50 -31 -14 -67 -28 -81 -32 -26 -6 -79 -72 -88 -110
-4 -12 -10 -21 -14 -18 -5 3 -11 1 -14 -4 -4 -5 -2 -13 4 -16 15 -9 -7 -35
-30 -35 -21 0 -154 -116 -192 -168 -123 -165 -157 -235 -184 -378 -16 -89 -16
-109 5 -278 28 -223 142 -488 215 -498 15 -2 31 -24 57 -76 20 -40 46 -83 59
-97 23 -24 23 -25 5 -71 -10 -28 -14 -49 -8 -55 5 -5 32 -15 60 -21 36 -9 53
-18 57 -31 2 -11 9 -16 15 -12 6 3 11 1 11 -4 0 -6 8 -11 18 -11 16 0 16 -8 9
-92 -4 -51 -14 -131 -22 -178 -9 -47 -15 -99 -15 -115 0 -17 -5 -46 -10 -65
-12 -40 -40 -179 -40 -197 0 -7 7 -13 16 -13 13 0 15 -10 11 -67 -26 -333 -30
-637 -10 -689 7 -19 33 -18 48 3 13 17 9 149 -5 168 -4 6 -2 82 4 170 6 88 10
222 10 298 -1 75 1 137 4 137 20 0 31 -45 32 -125 1 -49 7 -124 13 -165 12
-71 9 -212 -8 -341 -5 -43 -2 -50 31 -90 39 -47 68 -68 96 -69 9 0 57 -13 106
-30 50 -16 99 -30 110 -30 32 0 33 -11 8 -81 -20 -55 -28 -66 -62 -82 -22 -11
-53 -32 -70 -49 -38 -36 -103 -170 -86 -176 7 -2 9 -10 4 -20 -10 -23 -8 -43
6 -69 15 -28 42 -30 42 -5 0 10 11 29 24 41 l23 22 6 -27 c3 -15 -5 -57 -19
-96 -14 -41 -27 -117 -34 -191 -7 -67 -18 -153 -26 -190 -8 -38 -14 -84 -14
-103 0 -21 -8 -42 -20 -54 -11 -11 -21 -32 -21 -47 -1 -17 -3 -21 -6 -10 -2 9
-11 17 -18 17 -10 0 -12 -9 -8 -33 4 -27 -7 -57 -61 -163 -80 -156 -99 -190
-122 -215 -15 -16 -16 -23 -6 -37 7 -9 15 -24 18 -32 3 -8 10 -24 17 -35 37
-68 39 -77 32 -153 -3 -42 -13 -108 -21 -147 -8 -38 -17 -112 -21 -163 l-6
-92 794 2 793 3 21 60 c35 104 89 225 96 218 9 -11 99 -212 112 -251 l10 -32
720 0 720 0 -6 56 c-5 50 -29 109 -87 214 -14 25 -20 54 -20 100 0 84 8 114
26 99 7 -6 21 -9 31 -7 10 1 24 -1 31 -6 25 -15 24 2 -2 43 -21 33 -26 53 -26
106 0 36 -9 97 -20 136 -22 82 -97 277 -114 299 -21 28 -44 85 -50 125 -3 22
-26 101 -51 175 -25 74 -50 160 -55 190 -5 30 -18 84 -30 120 -11 36 -23 100
-27 142 l-6 77 41 46 c55 63 58 89 27 210 -18 67 -29 138 -32 217 l-6 116 36
42 c20 23 43 62 51 86 13 39 13 50 0 94 -8 27 -19 52 -25 55 -5 4 3 21 21 41
27 32 29 37 16 57 -8 12 -17 32 -21 45 -6 21 -4 22 43 22 60 0 69 9 92 96 12
48 18 61 23 45 3 -11 10 -21 16 -21 23 0 34 44 28 112 -3 37 -3 68 1 68 4 1
25 16 46 34 l39 33 -32 92 c-37 109 -39 146 -9 178 42 44 24 156 -35 220 -11
13 -18 25 -15 29 3 3 30 1 60 -4 109 -20 209 16 287 104 46 52 76 125 97 234
29 148 16 222 -70 388 -19 37 -47 110 -62 162 -15 52 -40 132 -57 178 -26 75
-33 85 -69 103 -36 19 -39 22 -25 37 8 9 27 46 42 82 21 52 25 74 20 112 -6
40 -4 48 13 57 11 6 25 23 31 40 11 24 20 30 54 34 99 12 110 18 142 83 37 76
56 90 96 74 23 -10 32 -10 44 0 9 8 28 9 55 5 27 -5 46 -3 56 6 11 9 20 9 40
0 18 -8 31 -8 45 -1 10 6 35 8 54 4 22 -4 41 -2 49 5 9 8 28 10 50 5 23 -4 42
-2 51 6 12 10 21 10 45 0 24 -10 33 -10 45 0 9 8 28 10 49 6 22 -4 43 -2 55 6
16 10 25 9 44 -1 19 -10 30 -10 45 -2 12 7 38 9 60 5 34 -5 42 -3 60 20 l21
27 413 25 c227 14 419 27 426 29 16 6 17 218 1 264 l-12 33 -56 -6 c-64 -7
-383 -26 -421 -25 -25 0 -25 0 -2 9 12 5 22 16 22 24 0 7 7 17 16 20 16 6 16
8 0 24 -9 10 -16 30 -16 45 0 34 21 38 202 40 76 1 138 4 138 7 0 3 51 6 113
7 61 2 118 5 125 8 14 5 17 102 3 124 -7 11 -26 13 -98 6 -48 -4 -108 -7 -133
-7 -25 0 -50 -4 -56 -9 -5 -4 -113 -11 -240 -15 -126 -3 -232 -11 -235 -16 -3
-5 -69 -11 -146 -13 l-141 -3 -6 36 c-3 21 -6 69 -7 107 -2 174 -20 219 -84
213 -26 -3 -41 -21 -126 -148 -54 -80 -101 -144 -106 -143 -4 1 -9 11 -11 22
-4 24 -41 39 -52 21 -6 -9 -12 -9 -29 0 -15 8 -26 8 -35 1 -6 -6 -21 -8 -33
-5 -11 3 -24 1 -27 -5 -5 -8 -13 -8 -27 0 -13 6 -25 7 -32 1 -7 -5 -40 -8 -74
-6 -36 1 -63 -2 -63 -7 0 -6 -9 -5 -21 2 -15 7 -24 8 -32 0 -5 -5 -22 -7 -37
-4 -16 3 -31 0 -35 -6 -5 -9 -10 -9 -21 0 -8 6 -21 8 -31 4 -10 -4 -43 -8 -73
-7 -30 0 -58 -5 -62 -11 -5 -8 -10 -7 -20 1 -8 6 -19 7 -28 2 -8 -5 -26 -6
-41 -3 -15 3 -30 0 -33 -6 -5 -7 -13 -7 -26 1 -15 10 -22 10 -31 1 -7 -7 -24
-9 -40 -6 -19 3 -29 1 -29 -6 0 -9 -5 -9 -21 -1 -27 15 -49 6 -49 -20 0 -22
-21 -25 -79 -14 -26 5 -31 11 -31 34 0 37 -27 59 -84 66 -65 9 -77 34 -46 95
13 24 38 83 56 132 27 73 31 93 21 108 -17 27 -31 30 -85 18 -26 -5 -66 -10
-89 -9 -23 0 -44 -3 -47 -9 -3 -5 -30 -8 -58 -6 -29 2 -69 -3 -88 -10 -19 -7
-54 -15 -77 -18 -34 -4 -42 -2 -46 14 -4 16 -15 19 -57 19 -43 0 -57 -4 -76
-25 -17 -18 -33 -25 -61 -25 -28 0 -45 -8 -68 -30 -28 -27 -38 -30 -105 -32
-41 -1 -78 -7 -82 -12 -13 -18 -9 -125 6 -160 l14 -34 90 6 c61 3 91 1 96 -7
11 -17 105 -14 112 4 8 19 34 20 34 0 0 -7 7 -18 16 -23 10 -6 16 -25 17 -57
l2 -49 -62 1 c-35 1 -63 -2 -63 -5 0 -4 -79 -7 -175 -8 l-175 -1 6 23 c6 25
-6 54 -46 102 -27 33 -28 35 -14 85 14 50 54 235 54 249 0 4 -7 14 -16 22 -24
24 -10 69 25 83 20 7 31 20 35 39 8 34 -16 110 -33 106 -17 -3 -26 29 -11 38
11 7 11 15 1 47 -23 67 -57 128 -70 125 -20 -4 -42 30 -29 46 9 10 6 14 -9 18
-10 3 -50 41 -88 86 -67 78 -72 81 -214 150 -124 60 -158 72 -221 79 -95 10
-245 9 -290 -2z m1270 -903 c0 -2 -9 -6 -20 -9 -11 -3 -20 -1 -20 4 0 5 9 9
20 9 11 0 20 -2 20 -4z m60 -10 c0 -24 -15 -26 -28 -5 -11 16 -9 19 8 19 11 0
20 -6 20 -14z m2012 -183 c5 -18 17 -34 28 -38 15 -5 20 -15 20 -45 0 -21 -4
-41 -8 -44 -4 -2 -44 -6 -87 -7 -100 -3 -102 4 -40 101 50 78 73 87 87 33z
m1096 -200 c-10 -2 -28 -2 -40 0 -13 2 -5 4 17 4 22 1 32 -1 23 -4z m-723
-112 c-8 -13 -85 -15 -85 -2 0 6 19 11 43 13 49 3 51 3 42 -11z m-110 -7 c-46
-7 -125 -8 -125 -1 0 4 33 6 73 6 39 -1 63 -3 52 -5z m-4519 -2409 l-31 -52
-3 48 c-2 27 2 58 8 69 10 19 12 19 33 3 l23 -17 -30 -51z m-17 -175 c0 -14
-8 -36 -19 -50 -12 -16 -20 -41 -20 -67 0 -44 -17 -100 -26 -90 -7 7 21 183
39 241 11 37 12 38 18 15 4 -13 7 -35 8 -49z"/>
</g>
</svg>
