<?xml version="1.0" encoding="UTF-8"?>
<!-- Created with Inkscape (http://www.inkscape.org/) -->
<svg width="210mm" height="297mm" version="1.1" viewBox="0 0 210 297" xmlns="http://www.w3.org/2000/svg" xmlns:xlink="http://www.w3.org/1999/xlink" preserveAspectRatio="none">
	<defs>
		<filter id="t13neb" x="-.25" y="-.25" width="1.5" height="1.5" color-interpolation-filters="sRGB">
			<feGaussianBlur result="result8" stdDeviation="5"/>
			<feTurbulence baseFrequency="0.03" numOctaves="2" result="result7" seed="25"/>
			<feComposite in="result8" in2="result8" operator="in" result="result6"/>
			<feDisplacementMap in="result7" in2="result6" result="result4" scale="120"/>
			<feComposite in="SourceGraphic" in2="result4" k1="2" k2="0.25" k3="2.5" operator="arithmetic" result="result2"/>
			<feComposite in="result2" in2="SourceGraphic" operator="in" result="fbSourceGraphic"/>
			<feBlend in2="fbSourceGraphic" mode="screen" result="result91"/>
			<feBlend in2="result91" mode="multiply" result="fbSourceGraphic"/>
			<feColorMatrix in="fbSourceGraphic" result="fbSourceGraphicAlpha" values="0 0 0 -1 0 0 0 0 -1 0 0 0 0 -1 0 0 0 0 1 0"/>
			<feFlood flood-color="rgb(0,0,0)" flood-opacity=".49804" in="fbSourceGraphic" result="flood"/>
			<feComposite in="flood" in2="fbSourceGraphic" operator="in" result="composite1"/>
			<feGaussianBlur in="composite1" result="blur" stdDeviation="9.6"/>
			<feOffset dx="-35.9" dy="-35.1562" result="offset"/>
			<feComposite in="fbSourceGraphic" in2="offset" result="composite2"/>
		</filter>
		<linearGradient id="t13nea" x1="97.518" x2="99.786" y1="290.2" y2="1.4226" gradientUnits="userSpaceOnUse">
			<stop stop-color="#fff" offset="0"/>
			<stop stop-color="#d5fff6" offset="1"/>
		</linearGradient>
	</defs>
	<rect x="-2.2679" y="-3.8691" width="216.2" height="306.92" fill="url(#t13nea)" opacity=".98" stroke-dasharray="0, 2.91041645999999998" stroke-width=".26458"/>
	<g opacity=".059">
		<path transform="matrix(1 0 0 4.3491 0 -437.86)" d="m9.9392 123.7c1.2429-0.84099 2.8842-1.2516 4.1593-1.2368-0.0012 0.53365 0.0016 1.0538 0 1.5875-3.2607 1.7e-4 -4.7353 5.7122-4.7353 8.7312 0 3.019 1.1393 8.7389 4.7353 8.7312v1.5875c-5.3304-0.0144-8.6624-5.2252-8.7069-10.319-0.025302-2.8968 1.0216-5.6605 2.9749-7.7963-0.73216-1.0158-1.7728-1.5615-2.9993-1.7287v-0.79375c1.6342-0.048 3.1289 0.54876 4.5719 1.2368zm12.979 9.0819c-0.02472 5.3416-3.115 10.306-8.8194 10.319v-1.5875c3.4152 0 4.6359-5.903 4.611-8.7312-0.02489-2.8282-0.90027-8.7326-4.611-8.7312v-1.5875c5.7776 0 8.8442 4.9771 8.8194 10.319zm2.0001 0.79375h3.175v6.35h-3.175zm0-1.5341c-0.0013-0.49657-0.3487-0.73636-0.79375-0.86543v-0.77545h3.9688v0.52482c0.7318-0.42206 1.5565-0.49698 2.3812-0.5378v0.79091c-1.3473 0.15131-2.1989 1.0905-2.3971 2.3971h-3.1592zm7.9436 2.8121c0.03251-1.4169-0.73247-3.6214-2.3873-3.6712v-0.78176c1.9049 0.0177 3.6196 0.56333 4.7719 2.113 0.75487-1.0621 1.5304-2.1078 3.1656-2.113v0.78238c-1.3972-3e-3 -2.3785 2.1587-2.3812 3.7461v4.9965h-3.1689zm7.8971 0.30022c-0.0028-1.5117-0.60918-3.9646-2.3469-3.9714v-0.79349c3.0111 4e-3 5.5322 1.1176 5.5322 4.0466l0.02781 5.4901h-3.1727zm-0.7625 6.3685v-0.78386c0.43201-0.0232 0.79865-0.40579 0.79681-0.81286h3.175v3.1729zm-7.9344 0.80282c0.31045-0.0601 0.56056-0.19144 0.71013-0.47785 0.07892-0.15113 0.08182-0.29846 0.08265-1.0508l9.69e-4 -0.87092h3.175l9.68e-4 0.87092c8.37e-4 0.75231 0.01462 0.8943 0.08265 1.0508 0.13251 0.30477 0.41756 0.3996 0.71013 0.47785v0.77546h-4.7625zm-7.9375 0c0.31045-0.0601 0.56056-0.19144 0.71013-0.47785 0.07892-0.15113 0.08182-0.29846 0.08265-1.0508l9.69e-4 -0.87092h3.175l9.68e-4 0.87092c8.37e-4 0.75231 0.01462 0.8943 0.08266 1.0508 0.13251 0.30477 0.41756 0.3996 0.71013 0.47785v0.77546h-4.7625zm21.434-8.7495h3.175v6.35h-3.175zm0-1.5341c-0.0013-0.49657-0.3487-0.73636-0.79375-0.86543v-0.77545h3.9688v0.52482c0.7318-0.42206 1.5565-0.49698 2.3812-0.5378v0.79091c-1.3473 0.15131-2.1989 1.0905-2.3971 2.3971h-3.1592zm7.9032 3.1123c-0.0028-1.5117-0.60918-3.9646-2.3469-3.9714v-0.79349c3.0111 4e-3 5.5322 1.1176 5.5322 4.0466l0.02781 5.4901h-3.1727zm0.03431 7.153v-2.3812h3.175v2.3812h1.5875v0.79375h-5.5562v-0.79375zm0 3.9688v-3.175h3.175v3.175zm3.9718 1.5967-3.9718 1.5762v-3.1729h3.175c-0.0018 0.40707 0.36479 0.7897 0.79681 0.81286zm-11.909-5.5655v-2.3812h3.175v2.3812h1.5875v0.79375h-5.5562v-0.79375zm0 3.9688v-3.175h3.175v3.175zm5.5562 4.7625c-2.7154-8e-3 -5.5467-1.9457-5.5562-4.7625h3.175c0.0018 1.5691 0.57623 3.9709 2.3812 3.9688zm0-0.78159c2.4275-0.17283 3.7032-1.652 3.9824-3.9809h0.7801v3.9688h-0.78374c-0.03406-0.26328-0.08071-0.55684-0.33982-0.68722-0.11822-0.0297-0.11338-0.0328-0.66125 0.42479-0.84843 0.71459-1.8981 0.98443-2.9777 1.0692zm13.343-10.331h-3.175v-6.35h3.175zm0.74474 0.35832c2.0921 1.0101 3.2888 2.8589 3.3122 5.1979 0.02342 2.339-1.378 4.4328-3.5777 5.2993-0.66482 0.26187-1.3627 0.26529-2.0968 0.25698v-0.79375c1.9655-3e-3 2.2641-2.9124 2.2558-4.7625-0.0083-1.8501-0.3748-4.5831-2.8813-4.674-0.391-0.0142-0.48228-0.0145-0.63271-0.099-0.3316-0.19147-0.29934-0.43725-0.29934-0.7832h3.175c0.12871 0.23162 0.51614 0.24795 0.74474 0.35832zm-2.3322 9.9726v0.7946c-1.0796-0.0848-2.1293-0.3546-2.9777-1.0692-0.54787-0.45757-0.54303-0.45446-0.66125-0.42479-0.25912 0.13038-0.30576 0.42394-0.33982 0.68722h-0.78374v-3.9688h0.7801c0.27919 2.3289 1.5549 3.8081 3.9824 3.9809zm-1.5694-23.056c5.69e-4 -0.83797 0.70233-1.5381 1.5787-1.5403 0.88081-2e-3 1.5633 0.7021 1.5646 1.5645 0.0013 0.86679-0.66322 1.5636-1.5739 1.568-0.91509 4e-3 -1.57-0.75417-1.5694-1.5922zm-0.8118 3.9756v-0.77545h4.7625v0.77545c-0.29256 0.0782-0.57762 0.17309-0.71013 0.47785-0.06803 0.15647-0.08182 0.29846-0.08266 1.0508l-9.68e-4 0.87092h-3.175l-9.69e-4 -0.87092c-8.36e-4 -0.75232-0.0037-0.89965-0.08265-1.0508-0.14957-0.28641-0.39968-0.41779-0.71013-0.47785zm8.2204 3.9872 0.0049-3.1532 3.9638 7.8714 4.7646-9.4851 0.79172 1.5951v3.1718l-3.9688 7.9373h-1.5873zm-1.6736-3.295c-0.21766-0.42842-0.4727-0.6299-0.95823-0.6739h-0.14634v-0.79375h3.5719v0.79375h-0.33412c-0.3105 0-0.34184 0.0105-0.46302 0.1289-0.23002 0.22466-0.09709 0.48852 0.01028 0.69467l-0.0048 3.1484zm10.405-0.10064h-0.61736c0.05127-0.61439-0.50985-0.57326-0.97014-0.57326v-0.79375h5.1594v0.7815c-0.39756 0.0158-0.7488 0.0819-0.971 0.43327l-1.8089 3.5477h-0.79194zm7.2905 11.282c-1.0946-0.11431-2.2178-0.49387-3.0505-1.0308-0.87848-0.55399-1.557-1.4315-1.557-2.4904-0.03196-1.0669 0.71255-1.9447 1.5719-2.5006 0.34354-0.22223 1.0173-0.54989 1.3024-0.63343 0.06597-0.0193 0.12494-0.0573 0.18741-0.086-0.24073-0.13785-0.50142-0.25545-0.74344-0.39997-0.83587-0.52315-1.5231-1.3178-1.5231-2.3331-0.04916-1.6653 1.7777-2.5776 3.1706-2.9924 0.4184-0.0964 1.0633-0.18164 1.378-0.18224l0.18741-3.6e-4v0.79375h-0.14508c-1.2487 0.0627-2.2362 1.1497-2.2362 2.3812-0.01668 1.2381 1.0001 2.3095 2.2362 2.3812h0.14508v0.77423l-0.313 0.0493c-0.95727 0.1325-1.6317 0.91981-1.9236 1.7993-0.18213 0.59407-0.19684 1.3048 0 1.898 0.15 0.59474 0.51621 1.0641 0.97364 1.4353 0.35412 0.28735 0.8113 0.34702 1.2629 0.41336v0.77423l-0.27561-6e-3c-0.15158-3e-3 -0.44321-0.0234-0.64805-0.0448zm4.0543-9.5131c-0.78721-0.29831-0.8854-1.0296-0.44907-1.6726-0.83783-0.41045-1.7453-0.66873-2.6815-0.66989v-0.80677c1.4786 0.0413 2.9167 0.52819 4.0502 1.4836 0.3898 0.32853 0.39213 0.99563 0.03465 1.389-0.20623 0.22695-0.68757 0.37773-0.95424 0.27667zm-3.1306 8.7822c2.4275-0.17283 3.7032-1.652 3.9824-3.9809h0.7801v3.9688h-0.78374c-0.03407-0.26328-0.08071-0.55684-0.33982-0.68722-0.11822-0.0297-0.11338-0.0328-0.66125 0.42479-0.84843 0.71459-1.8981 0.98443-2.9777 1.0692zm6.35-8.7434h3.175v6.35h-3.175zm0-1.5341c-0.0013-0.49657-0.3487-0.73636-0.79375-0.86543v-0.77545h3.9688v0.52482c0.7318-0.42206 1.5565-0.49698 2.3812-0.5378v0.79091c-1.3473 0.15131-2.1989 1.0905-2.3971 2.3971h-3.1592zm5.5562-0.8593v-0.7946c1.0796 0.0848 2.1293 0.3546 2.9777 1.0692 0.54787 0.45757 0.54304 0.45446 0.66125 0.42479 0.25912-0.13038 0.30576-0.42394 0.33983-0.68721h0.78373v3.9688h-0.7801c-0.27919-2.3289-1.5549-3.8081-3.9824-3.9809zm-5.5562 11.125v-2.3812h3.175v2.3812h1.5875v0.79375h-5.5562v-0.79375zm0 2.381v-1.5873h3.175v3.1752zm17.353-2.381c1.1404 0.0103 2.3453-0.77238 2.3592-1.9844 0.015-1.3454-1.2612-1.8723-2.4253-1.984-2.3304-7e-3 -4.4301-1.1132-5.2025-2.7396-0.984-3.497 2.2744-5.1931 5.2687-5.1983v0.79375c-1.1404-0.0103-2.3453 0.77237-2.3592 1.9844-0.015 1.3454 1.2612 1.8723 2.4254 1.984 2.3304 7e-3 4.4301 1.1132 5.2025 2.7396 0.98399 3.497-2.2744 5.1931-5.2687 5.1983zm0-11.125v-0.7946c1.0796 0.0848 2.1293 0.3546 2.9777 1.0692 0.54788 0.45757 0.54304 0.45446 0.66125 0.42479 0.25912-0.13038 0.30576-0.42394 0.33983-0.68721h0.78373v3.9688h-0.7801c-0.27919-2.3289-1.5549-3.8081-3.9824-3.9809zm-3.1306 8.7822c0.7872 0.29832 0.8854 1.0296 0.44907 1.6726 0.83783 0.41046 1.7453 0.66873 2.6815 0.6699v0.80676c-1.4786-0.0413-2.9167-0.52818-4.0502-1.4836-0.3898-0.32854-0.39213-0.99564-0.0347-1.389 0.20624-0.22695 0.68757-0.37773 0.95425-0.27667zm21.015-0.0387h-3.175v-6.35h3.175zm0 1.5341c1e-3 0.49657 0.3487 0.73636 0.79375 0.86543v0.77546h-3.9688v-0.52482c-0.7318 0.42206-1.5565 0.49698-2.3812 0.53779v-0.79091c1.3473-0.15131 2.1989-1.0905 2.3971-2.3971h3.1592zm-11.095-4.6648c0.0348-3.1027 2.1647-6.366 5.5384-6.3943v0.77287c-1.639-0.0146-2.3549 3.7852-2.3592 5.5771-4e-3 1.7919 0.69503 5.5582 2.3592 5.5771v0.77288c-3.263 0-5.5732-3.203-5.5384-6.3057zm11.095-4.7534v1.5341h-3.1592c-0.19816-1.3065-1.0497-2.2458-2.3971-2.3971v-0.79091c0.82479 0.0408 1.6494 0.11574 2.3812 0.5378v-0.52482h3.9688v0.77545c-0.44505 0.12907-0.79245 0.36886-0.79375 0.86543zm5.5562 7.8841h-3.175v-6.35h3.175zm-3.9718 1.5967v-0.78386c0.43202-0.0232 0.79865-0.40579 0.79681-0.81286h3.175v3.1729zm0.79681-14.297h3.175v6.35h-3.175zm-0.79375-2.3996v-0.77545h4.7625v0.77545c-0.29256 0.0782-0.57762 0.17309-0.71013 0.47785-0.068 0.15647-0.0818 0.29846-0.0827 1.0508l-9.7e-4 0.87092h-3.175l-9.7e-4 -0.87092c-8.3e-4 -0.75232-4e-3 -0.89965-0.0827-1.0508-0.14957-0.28641-0.39968-0.41779-0.71013-0.47785zm19.031 7.162v1.5875c-3.1854-2e-3 -7.1132-1.8565-7.1144-5.5342-1e-3 -3.6777 3.9419-5.5708 7.1144-5.5783v1.5875c-2.0126 0-3.1902 2.1515-3.1505 3.9688 0.0397 1.8173 1.0623 3.9463 3.1505 3.9688zm0 9.525v1.5875c-3.5613-5e-3 -6.1296-1.4007-7.1027-5.0089-0.10639-0.87452 0.12804-1.6858 1.1495-1.7139 0.66121 0.0354 1.1689 0.47509 1.1665 1.1665 0 0.38845-0.0919 0.60187-0.37726 0.87607-0.2118 0.20351-0.20985 0.22598 0.0596 0.68645 1.466 1.6527 2.8398 2.4085 5.1042 2.4062zm0-7.9375v-1.5875c3.1854 2e-3 7.1132 1.8565 7.1144 5.5342 1e-3 3.6777-3.9419 5.5708-7.1144 5.5783v-1.5875c2.0126 0 3.1902-2.1515 3.1505-3.9688-0.0397-1.8173-1.0623-3.9464-3.1505-3.9688zm6.35-8.4019c-7e-3 -0.57345-0.52519-1.1251-1.1906-1.1231h-5.1594v-1.5875h7.1438v3.175h-0.79375zm2.3173 11.533c-0.0348-3.1027 2.2754-6.3057 5.5384-6.3057v0.77287c-1.6642 0.0189-2.3635 3.7852-2.3592 5.5771 4e-3 1.7919 0.72014 5.5917 2.3592 5.5771v0.77288c-3.3737-0.0283-5.5037-3.2916-5.5384-6.3943zm8.669 3.258c0.26667-0.10106 0.74801 0.0497 0.95424 0.27667 0.35748 0.39339 0.35515 1.0605-0.0346 1.389-1.1336 0.95539-2.5717 1.4422-4.0502 1.4836v-0.80676c0.93623-1e-3 1.8437-0.25944 2.6815-0.6699-0.43633-0.64297-0.33813-1.3743 0.44908-1.6726zm-3.1306-8.7822v-0.7946c1.0796 0.0848 2.1292 0.3546 2.9777 1.0692 0.54787 0.45757 0.54303 0.45446 0.66125 0.42479 0.25911-0.13038 0.30576-0.42394 0.33982-0.68721h0.78374v3.9688h-0.7801c-0.27919-2.3289-1.5549-3.8081-3.9824-3.9809zm6.1548 5.5241c-0.0348-3.1027 2.2754-6.3057 5.5384-6.3057v0.77287c-1.6642 0.0189-2.3635 3.7852-2.3592 5.5771 4e-3 1.7919 0.72014 5.5917 2.3592 5.5771v0.77288c-3.3737-0.0283-5.5037-3.2916-5.5384-6.3943zm11.077 0c-0.0347 3.1027-2.1647 6.366-5.5384 6.3943v-0.77288c1.639 0.0146 2.3549-3.7852 2.3592-5.5771 4e-3 -1.7919-0.69503-5.5583-2.3592-5.5771v-0.77287c3.263 0 5.5732 3.203 5.5384 6.3057zm1.5879-2.2708c0.0148-3.2088 2.7673-4.0203 5.5562-4.0349v0.79375c-1.4852-0.0188-2.3812 1.7179-2.3812 2.935v5.7963h-3.175zm0 8.6651v-3.175h3.1592c0.1981 1.3061 1.0501 2.246 2.3971 2.3971v0.79091c-0.82479-0.0408-1.6494-0.11573-2.3812-0.53779v0.52482zm0 3.175v-3.175h3.175v3.175zm-2.3812 4.7625v-0.79375c1.805 2e-3 2.3795-2.3996 2.3812-3.9688h3.175c-0.01 2.8168-2.8408 4.7549-5.5562 4.7625zm-3.1306-3.1363c0.7872 0.29832 0.8854 1.0296 0.44907 1.6726 0.83783 0.41046 1.7453 0.66873 2.6815 0.6699v0.80676c-1.4786-0.0413-2.9167-0.52818-4.0502-1.4836-0.3898-0.32854-0.39213-0.99564-0.0346-1.389 0.20624-0.22695 0.68758-0.37773 0.95425-0.27667zm16.607-11.196c-0.0348 3.1027-2.1647 6.366-5.5384 6.3943v-0.77288c1.6391 0.0146 2.3549-3.7852 2.3592-5.5771 4e-3 -1.7919-0.69503-5.5583-2.3592-5.5771v-0.77287c3.263 0 5.5732 3.203 5.5384 6.3057zm5.7578 6.3437c-1.0946-0.11431-2.2178-0.49387-3.0505-1.0308-0.87847-0.55399-1.557-1.4315-1.557-2.4904-0.032-1.0669 0.71255-1.9447 1.5719-2.5006 0.34354-0.22223 1.0173-0.54989 1.3024-0.63343 0.066-0.0193 0.12494-0.0573 0.18741-0.086-0.24073-0.13785-0.50142-0.25545-0.74343-0.39997-0.83587-0.52315-1.5232-1.3178-1.5232-2.3331-0.0492-1.6653 1.7777-2.5776 3.1706-2.9924 0.4184-0.0964 1.0633-0.18164 1.378-0.18224l0.18742-3.6e-4v0.79375h-0.14508c-1.2487 0.0627-2.2362 1.1497-2.2362 2.3812-0.0167 1.2381 1.0001 2.3095 2.2362 2.3812h0.14508v0.77423l-0.313 0.0493c-0.95727 0.1325-1.6317 0.91981-1.9236 1.7993-0.18213 0.59407-0.19684 1.3048 0 1.898 0.15 0.59474 0.51621 1.0641 0.97365 1.4353 0.35412 0.28735 0.81129 0.34702 1.2629 0.41336v0.77423l-0.27561-6e-3c-0.15158-3e-3 -0.44321-0.0234-0.64805-0.0448zm0.92366-11.868v-0.7946c1.0796 0.0848 2.1292 0.3546 2.9777 1.0692 0.54787 0.45757 0.54303 0.45446 0.66125 0.42479 0.25911-0.13038 0.30576-0.42394 0.33982-0.68721h0.78374v3.9688h-0.78011c-0.27918-2.3289-1.5549-3.8081-3.9824-3.9809zm3.1306 8.7822c0.26668-0.10106 0.74802 0.0497 0.95425 0.27667 0.35748 0.39339 0.35515 1.0605-0.0346 1.389-1.1336 0.95539-2.5717 1.4422-4.0502 1.4836v-0.80676c0.93623-1e-3 1.8437-0.25944 2.6815-0.6699-0.43633-0.64297-0.33813-1.3743 0.44907-1.6726z" filter="url(#t13neb)"/>
	</g>
</svg>
