<?xml version="1.0" standalone="no"?>
<!DOCTYPE svg PUBLIC "-//W3C//DTD SVG 20010904//EN"
 "http://www.w3.org/TR/2001/REC-SVG-20010904/DTD/svg10.dtd">
<svg version="1.0" xmlns="http://www.w3.org/2000/svg"
 width="1280.000000pt" height="640.000000pt" viewBox="0 0 1280.000000 640.000000"
 preserveAspectRatio="xMidYMid meet">
<g transform="translate(0.000000,640.000000) scale(0.100000,-0.100000)"
fill="#000000" stroke="none">
<path d="M6600 5228 c0 -9 -13 -27 -29 -41 -17 -14 -27 -27 -24 -31 3 -3 0
-12 -6 -20 -7 -8 -10 -20 -6 -26 4 -6 -6 -13 -24 -16 -28 -6 -33 -13 -51 -71
-11 -36 -20 -71 -20 -79 0 -26 -20 -14 -26 16 -4 16 -10 27 -15 25 -9 -6 -44
54 -36 62 3 2 -10 30 -29 60 -19 31 -34 60 -34 65 0 4 -4 8 -10 8 -5 0 -10 -6
-10 -14 0 -8 -12 -24 -26 -35 -14 -11 -23 -24 -20 -29 3 -6 -1 -15 -9 -22 -8
-7 -13 -16 -10 -20 3 -5 -9 -20 -27 -34 -24 -19 -28 -26 -15 -26 19 0 22 -17
7 -40 -12 -19 -11 -20 -50 78 -30 77 -45 100 -56 89 -2 -2 -12 -41 -22 -87
-15 -68 -20 -79 -30 -67 -10 11 -10 16 -1 19 8 3 7 13 -5 36 -9 18 -14 37 -11
42 3 6 -5 25 -18 42 -14 18 -32 48 -42 67 l-17 33 -19 -31 c-19 -32 -33 -39
-44 -21 -17 28 -40 -9 -64 -104 -7 -27 -19 -62 -27 -79 l-16 -30 -25 57 c-14
31 -29 56 -33 56 -9 0 -30 -56 -30 -80 0 -10 -6 -23 -14 -30 -12 -9 -19 -3
-40 37 -14 26 -25 40 -26 31 0 -23 -20 -24 -20 -1 0 15 -2 14 -15 -3 -11 -13
-15 -14 -13 -4 1 8 -16 47 -40 85 -23 39 -42 63 -42 53 0 -9 -13 -27 -28 -40
-16 -13 -27 -29 -25 -35 2 -6 0 -14 -6 -17 -6 -4 -7 -14 -4 -24 4 -10 -2 -7
-14 8 l-21 25 -17 -40 c-9 -22 -19 -52 -22 -68 -6 -31 -18 -41 -33 -32 -8 5
-8 11 0 20 7 8 7 14 1 17 -5 1 -25 29 -44 60 l-34 57 -23 -31 c-23 -31 -24
-32 -33 -10 -6 12 -13 22 -17 22 -9 0 -44 -81 -54 -122 -3 -15 -11 -40 -17
-55 l-11 -28 -13 25 c-11 19 -14 21 -15 8 0 -30 -16 -20 -35 22 -10 22 -22 40
-26 40 -8 0 -20 -36 -37 -115 l-9 -40 -12 30 c-32 78 -64 145 -72 145 -9 0
-25 -50 -34 -107 -9 -59 -28 -71 -53 -36 -10 15 -27 43 -37 62 l-17 33 -20
-33 c-19 -32 -21 -32 -34 -14 -19 25 -30 13 -48 -55 -8 -30 -19 -66 -24 -80
-9 -24 -10 -24 -20 15 -6 22 -14 52 -18 68 -3 15 -12 27 -20 27 -7 0 -21 14
-29 31 -25 47 -42 25 -96 -123 -11 -32 -24 -58 -28 -58 -4 0 -16 19 -27 43
-10 23 -23 41 -29 40 -5 -1 -17 -32 -25 -68 -15 -64 -17 -66 -28 -41 -8 18 -8
26 -1 26 7 0 6 6 -2 16 -8 10 -28 41 -44 70 l-30 53 -30 -37 c-17 -20 -30 -39
-31 -42 0 -3 -4 -13 -7 -22 -4 -10 -10 -26 -13 -35 -5 -14 -12 -7 -28 29 -11
26 -25 46 -31 45 -5 -2 -17 -28 -26 -58 -9 -30 -18 -49 -18 -44 -1 6 -10 0
-21 -13 l-19 -23 -14 26 -13 26 -13 -28 -13 -28 -19 38 c-22 43 -34 41 -44 -6
-10 -45 -24 -69 -37 -61 -7 4 -6 9 3 15 11 6 9 13 -7 31 -12 13 -33 43 -47 68
-15 25 -27 40 -27 34 0 -7 -14 -26 -32 -43 -17 -17 -28 -31 -24 -31 5 0 3 -7
-4 -15 -6 -8 -9 -20 -5 -27 8 -16 -16 13 -31 39 -11 16 -15 12 -37 -35 -16
-35 -28 -49 -33 -41 -10 16 -22 -13 -24 -56 -1 -27 -4 -23 -30 33 -16 34 -33
62 -39 62 -5 0 -16 -28 -24 -62 l-14 -63 -18 35 c-14 26 -20 31 -23 18 -2 -10
-6 -18 -9 -18 -3 0 -12 8 -19 18 -11 16 -13 14 -24 -13 -6 -16 -15 -50 -20
-73 -12 -64 -25 -73 -55 -37 -21 25 -26 28 -35 15 -5 -8 -10 -23 -10 -32 0
-30 -16 -20 -35 22 -10 22 -23 39 -29 37 -6 -2 -21 -36 -33 -76 -12 -40 -24
-75 -27 -78 -2 -3 -14 14 -26 37 -12 23 -26 40 -33 37 -6 -2 -18 -26 -26 -53
-18 -60 -20 -62 -31 -44 -5 8 -10 12 -12 10 -2 -3 -8 -14 -14 -24 -17 -32 -33
-30 -51 9 -28 59 -53 36 -83 -81 -10 -43 -43 -66 -54 -38 -14 35 -41 -5 -52
-76 -6 -37 -24 -57 -24 -27 0 7 -5 18 -12 25 -9 9 -17 3 -35 -23 -13 -19 -23
-39 -23 -44 0 -21 -15 -10 -30 21 -8 18 -20 34 -26 35 -12 4 -44 -76 -44 -109
0 -20 -20 -25 -20 -5 0 6 -7 20 -15 30 -13 18 -14 17 -29 -11 -8 -16 -18 -48
-22 -71 -4 -23 -8 -41 -10 -41 -1 0 -17 13 -35 30 -18 16 -36 27 -41 24 -4 -3
-18 -39 -29 -79 -17 -57 -25 -72 -34 -65 -9 8 -14 4 -19 -12 -6 -20 -10 -16
-37 35 -16 31 -34 57 -40 57 -12 0 -48 -77 -49 -102 0 -10 -8 -33 -17 -53
l-17 -35 -22 27 -23 28 -15 -37 c-9 -21 -16 -44 -16 -53 0 -23 -29 -75 -41
-75 -6 0 -13 9 -16 20 -7 28 -17 25 -34 -11 l-15 -31 -18 41 c-31 69 -37 61
-76 -92 -24 -100 -29 -109 -38 -87 -6 14 -11 20 -11 13 -1 -6 -6 -24 -12 -40
l-10 -28 -23 45 c-12 25 -27 45 -32 45 -5 0 -16 -21 -24 -46 -9 -26 -21 -53
-26 -60 -10 -13 -19 -36 -39 -94 -6 -18 -9 -15 -26 18 -11 20 -24 37 -28 37
-5 0 -19 -30 -32 -67 -20 -60 -23 -65 -35 -48 -8 10 -14 22 -14 27 0 15 -29 8
-38 -9 -6 -10 -13 -37 -17 -60 -9 -56 -18 -60 -41 -18 -10 19 -24 35 -31 35
-14 0 -33 -61 -33 -107 0 -41 -14 -49 -29 -17 -14 32 -24 25 -41 -28 -7 -24
-19 -62 -28 -86 -14 -41 -15 -41 -29 -22 -19 27 -28 20 -43 -37 -22 -85 -31
-113 -39 -113 -4 0 -15 17 -25 38 -17 35 -19 36 -27 15 -14 -39 -96 -126 -110
-117 -16 9 -37 -15 -44 -49 -3 -18 -11 -42 -17 -54 -10 -20 -12 -21 -23 -6
-17 23 -29 11 -50 -51 -11 -31 -22 -56 -25 -56 -4 0 -12 12 -19 26 -16 36 -32
26 -51 -31 l-16 -48 -29 56 -30 56 -26 -57 c-18 -40 -45 -75 -89 -115 -35 -31
-67 -57 -72 -57 -4 0 -8 -4 -8 -10 0 -5 8 -10 18 -10 32 0 32 -11 2 -42 -16
-16 -39 -42 -50 -58 -21 -30 -21 -30 -1 -30 23 0 41 -22 23 -28 -7 -2 -35 -23
-64 -45 -28 -23 -59 -47 -69 -53 -27 -16 -70 -82 -56 -87 8 -2 7 -12 -2 -35
-7 -18 -16 -32 -20 -32 -4 0 -15 -21 -26 -46 -17 -42 -20 -45 -29 -25 -14 33
-24 25 -42 -34 -10 -31 -24 -55 -31 -55 -19 0 -30 -34 -64 -192 -35 -168 -36
-188 -4 -226 61 -73 153 -87 684 -101 796 -23 5557 -32 9041 -18 2474 10 2834
18 2952 69 59 25 98 69 98 109 0 34 -53 291 -69 332 -6 15 -17 27 -24 27 -7 0
-21 24 -31 55 -18 59 -30 68 -42 33 -6 -21 -9 -19 -26 22 -11 24 -24 48 -31
52 -7 4 -21 37 -32 74 -11 37 -25 69 -31 71 -6 2 -17 -10 -24 -27 -15 -37 -19
-34 -46 38 -22 61 -39 75 -49 43 -11 -35 -23 -23 -30 29 -4 28 -15 60 -25 72
l-18 22 -19 -32 -20 -33 -11 28 c-6 15 -16 45 -22 66 -11 34 -40 53 -40 25 0
-33 -15 12 -34 104 -11 57 -25 102 -31 100 -5 -1 -15 -17 -21 -35 l-11 -32
-19 64 c-21 72 -38 85 -55 47 -7 -14 -15 -26 -19 -26 -3 0 -14 25 -25 56 -21
62 -33 74 -50 51 -10 -14 -12 -14 -23 4 -7 10 -12 29 -12 42 0 28 -28 70 -44
64 -7 -3 -34 39 -65 99 -51 99 -71 123 -71 89 0 -19 -40 -99 -46 -92 -2 2 -11
31 -20 63 -18 72 -27 82 -46 55 -15 -21 -16 -20 -30 21 -9 24 -21 62 -28 86
-17 53 -27 60 -41 28 -17 -35 -25 -25 -33 38 -11 96 -28 111 -60 51 -23 -42
-32 -38 -41 18 -4 23 -11 50 -17 60 -9 17 -38 24 -38 9 0 -5 -6 -17 -14 -27
-12 -17 -15 -12 -35 48 -13 37 -27 67 -32 67 -4 0 -17 -17 -28 -37 -17 -33
-20 -36 -26 -18 -20 58 -29 81 -39 94 -5 7 -17 34 -26 60 -8 25 -19 46 -24 46
-5 0 -20 -20 -32 -45 l-23 -45 -10 28 c-6 16 -11 34 -12 40 0 7 -5 1 -11 -13
-10 -23 -13 -18 -29 55 -24 102 -43 158 -56 162 -5 2 -18 -15 -28 -37 l-19
-41 -16 31 -16 32 -15 -23 c-22 -32 -35 -18 -59 61 -11 38 -25 72 -30 75 -5 3
-17 -6 -26 -21 l-18 -26 -17 34 c-10 18 -18 42 -19 53 -1 38 -38 106 -56 103
-14 -2 -24 19 -50 100 -17 57 -35 106 -38 109 -3 3 -15 -15 -26 -40 -12 -26
-24 -47 -28 -47 -5 0 -18 21 -31 48 -21 42 -25 45 -33 27 -5 -11 -20 -28 -33
-37 l-23 -17 -18 56 c-11 31 -24 58 -31 60 -7 3 -21 -25 -34 -66 -13 -39 -26
-68 -30 -64 -3 5 -14 32 -24 62 l-18 55 -18 -22 c-17 -22 -18 -22 -24 -2 -3
11 -11 20 -16 20 -5 0 -9 9 -9 20 0 12 -5 17 -14 14 -9 -4 -21 19 -40 80 -15
48 -31 86 -36 86 -5 0 -14 -15 -21 -33 -13 -37 -70 -69 -79 -45 -2 7 -16 49
-30 93 l-26 80 -21 -39 c-22 -44 -23 -43 -48 34 -10 30 -21 59 -25 63 -4 5
-22 -18 -40 -50 l-33 -58 -30 98 c-17 53 -34 97 -38 97 -4 0 -15 -21 -24 -47
-34 -95 -30 -94 -60 -30 -14 31 -31 57 -36 57 -5 0 -15 -11 -21 -26 -11 -23
-13 -19 -34 63 -13 48 -23 92 -23 97 -1 5 -19 -16 -42 -47 -22 -32 -44 -57
-49 -57 -5 0 -16 23 -25 50 -9 28 -20 50 -25 50 -4 0 -17 -23 -29 -51 -32 -73
-51 -64 -76 34 -11 42 -22 77 -26 77 -4 0 -12 -21 -19 -47 -11 -48 -12 -48
-25 -23 l-13 25 -13 -28 c-7 -15 -15 -27 -18 -27 -4 0 -13 19 -21 42 -8 23
-20 43 -26 45 -6 2 -20 -17 -31 -43 -11 -25 -23 -42 -26 -38 -2 5 -13 37 -22
72 -10 36 -23 62 -31 62 -7 0 -21 -25 -30 -55 -10 -30 -21 -52 -24 -48 -4 5
-19 52 -35 106 -15 53 -32 97 -37 97 -4 0 -15 -17 -24 -37 -9 -21 -27 -62 -41
-91 -25 -51 -26 -52 -45 -35 -11 10 -31 40 -45 67 -24 48 -26 49 -37 28 -7
-12 -22 -29 -33 -37 -21 -15 -23 -14 -38 16 -9 17 -14 37 -11 45 3 7 1 16 -5
20 -5 3 -24 30 -40 60 l-31 54 -20 -26 c-15 -18 -23 -22 -28 -14 -13 21 -27 3
-44 -60 -10 -34 -24 -64 -32 -67 -8 -3 -14 -13 -15 -22 0 -9 -6 -1 -13 18 -17
47 -32 49 -47 7 -16 -46 -25 -45 -36 1 -11 46 -27 52 -47 16 -8 -15 -16 -26
-16 -23 -4 29 -47 132 -55 132 -5 1 -17 -20 -25 -46 -8 -25 -18 -46 -21 -46
-3 0 -14 19 -25 41 -17 38 -19 40 -28 20 -5 -11 -13 -21 -17 -21 -13 0 -40 45
-29 48 5 2 1 20 -10 43 -11 21 -19 42 -18 47 4 11 -64 131 -74 132 -4 0 -10
-9 -13 -20 -3 -11 -15 -25 -25 -30 -11 -6 -17 -17 -14 -25 4 -9 -1 -18 -11
-21 -9 -4 -14 -12 -11 -20 3 -7 -6 -19 -18 -28 -13 -8 -40 -50 -60 -92 l-37
-78 -19 29 c-11 17 -25 43 -31 58 l-12 29 -12 -28 -11 -27 -12 41 c-7 23 -17
42 -21 42 -10 0 -41 -73 -41 -97 0 -31 -16 0 -40 75 -13 41 -28 71 -34 69 -6
-2 -24 -41 -40 -87 l-30 -84 -15 46 c-9 26 -19 50 -23 53 -8 8 -38 -47 -38
-70 0 -22 -18 -18 -25 6 -4 11 -9 18 -13 15 -6 -7 -42 23 -42 35 0 5 8 5 17 2
13 -5 11 3 -10 40 -15 26 -23 47 -17 47 6 0 3 12 -8 28 -11 15 -30 47 -42 72
-20 40 -24 42 -31 24 -4 -12 -19 -30 -33 -41 -14 -11 -23 -23 -19 -26 3 -4 0
-13 -7 -22 -7 -9 -10 -18 -7 -21 3 -4 -8 -18 -24 -32 -17 -14 -26 -28 -22 -31
5 -3 4 -24 -3 -46 -7 -24 -14 -34 -17 -25 -3 8 -16 48 -29 88 -12 41 -27 74
-33 75 -5 1 -21 -32 -35 -73 -14 -41 -26 -77 -27 -79 -1 -2 -11 7 -22 20 -15
18 -16 25 -6 27 11 3 9 11 -6 37 -12 19 -18 39 -14 45 3 5 -5 25 -18 42 -14
18 -32 48 -42 67 l-17 33 -19 -31 c-10 -17 -25 -31 -32 -31 -7 0 -29 28 -50
63 -20 34 -37 55 -37 45z m225 -377 c3 -5 1 -12 -5 -16 -5 -3 -10 1 -10 9 0
18 6 21 15 7z m1745 -115 c0 -11 -19 -15 -25 -6 -3 5 1 10 9 10 9 0 16 -2 16
-4z"/>
</g>
</svg>
