<?xml version="1.0" encoding="UTF-8" standalone="no"?>
<!-- Created with Inkscape (http://www.inkscape.org/) -->

<svg
   xmlns:dc="http://purl.org/dc/elements/1.1/"
   xmlns:cc="http://creativecommons.org/ns#"
   xmlns:rdf="http://www.w3.org/1999/02/22-rdf-syntax-ns#"
   xmlns:svg="http://www.w3.org/2000/svg"
   xmlns="http://www.w3.org/2000/svg"
   xmlns:sodipodi="http://sodipodi.sourceforge.net/DTD/sodipodi-0.dtd"
   xmlns:inkscape="http://www.inkscape.org/namespaces/inkscape"
   width="297mm"
   height="210mm"
   viewBox="0 0 297 210"
   version="1.1"
   id="svg6378"
   inkscape:version="0.92.4 (5da689c313, 2019-01-14)"
   sodipodi:docname="railroad.svg">
  <defs
     id="defs6372">
    <marker
       inkscape:stockid="Arrow1Lend"
       orient="auto"
       refY="0.0"
       refX="0.0"
       id="Arrow1Lend"
       style="overflow:visible;"
       inkscape:isstock="true">
      <path
         id="path6989"
         d="M 0.0,0.0 L 5.0,-5.0 L -12.5,0.0 L 5.0,5.0 L 0.0,0.0 z "
         style="fill-rule:evenodd;stroke:#00bc00;stroke-width:1pt;stroke-opacity:1;fill:#000000;fill-opacity:1"
         transform="scale(0.8) rotate(180) translate(12.5,0)" />
    </marker>
    <marker
       inkscape:stockid="DotM"
       orient="auto"
       refY="0.0"
       refX="0.0"
       id="marker7270"
       style="overflow:visible"
       inkscape:isstock="true">
      <path
         id="path7268"
         d="M -2.5,-1.0 C -2.5,1.7600000 -4.7400000,4.0 -7.5,4.0 C -10.260000,4.0 -12.5,1.7600000 -12.5,-1.0 C -12.5,-3.7600000 -10.260000,-6.0 -7.5,-6.0 C -4.7400000,-6.0 -2.5,-3.7600000 -2.5,-1.0 z "
         style="fill-rule:evenodd;stroke:#000000;stroke-width:1pt;stroke-opacity:1;fill:#000000;fill-opacity:1"
         transform="scale(0.4) translate(7.4, 1)" />
    </marker>
    <marker
       inkscape:stockid="DotM"
       orient="auto"
       refY="0.0"
       refX="0.0"
       id="DotM"
       style="overflow:visible"
       inkscape:isstock="true">
      <path
         id="path7050"
         d="M -2.5,-1.0 C -2.5,1.7600000 -4.7400000,4.0 -7.5,4.0 C -10.260000,4.0 -12.5,1.7600000 -12.5,-1.0 C -12.5,-3.7600000 -10.260000,-6.0 -7.5,-6.0 C -4.7400000,-6.0 -2.5,-3.7600000 -2.5,-1.0 z "
         style="fill-rule:evenodd;stroke:#000000;stroke-width:1pt;stroke-opacity:1;fill:#000000;fill-opacity:1"
         transform="scale(0.4) translate(7.4, 1)" />
    </marker>
    <marker
       inkscape:stockid="DotM"
       orient="auto"
       refY="0"
       refX="0"
       id="DotM-7"
       style="overflow:visible"
       inkscape:isstock="true">
      <path
         inkscape:connector-curvature="0"
         id="path7050-3"
         d="m -2.5,-1 c 0,2.76 -2.24,5 -5,5 -2.76,0 -5,-2.24 -5,-5 0,-2.76 2.24,-5 5,-5 2.76,0 5,2.24 5,5 z"
         style="fill:#000000;fill-opacity:1;fill-rule:evenodd;stroke:#000000;stroke-width:1.00000003pt;stroke-opacity:1"
         transform="matrix(0.4,0,0,0.4,2.96,0.4)" />
    </marker>
    <marker
       inkscape:stockid="DotM"
       orient="auto"
       refY="0"
       refX="0"
       id="marker7270-3"
       style="overflow:visible"
       inkscape:isstock="true">
      <path
         inkscape:connector-curvature="0"
         id="path7268-8"
         d="m -2.5,-1 c 0,2.76 -2.24,5 -5,5 -2.76,0 -5,-2.24 -5,-5 0,-2.76 2.24,-5 5,-5 2.76,0 5,2.24 5,5 z"
         style="fill:#000000;fill-opacity:1;fill-rule:evenodd;stroke:#000000;stroke-width:1.00000003pt;stroke-opacity:1"
         transform="matrix(0.4,0,0,0.4,2.96,0.4)" />
    </marker>
    <marker
       inkscape:stockid="DotM"
       orient="auto"
       refY="0"
       refX="0"
       id="DotM-3"
       style="overflow:visible"
       inkscape:isstock="true">
      <path
         inkscape:connector-curvature="0"
         id="path7050-4"
         d="m -2.5,-1 c 0,2.76 -2.24,5 -5,5 -2.76,0 -5,-2.24 -5,-5 0,-2.76 2.24,-5 5,-5 2.76,0 5,2.24 5,5 z"
         style="fill:#000000;fill-opacity:1;fill-rule:evenodd;stroke:#000000;stroke-width:1.00000003pt;stroke-opacity:1"
         transform="matrix(0.4,0,0,0.4,2.96,0.4)" />
    </marker>
    <marker
       inkscape:stockid="DotM"
       orient="auto"
       refY="0"
       refX="0"
       id="marker7270-6"
       style="overflow:visible"
       inkscape:isstock="true">
      <path
         inkscape:connector-curvature="0"
         id="path7268-2"
         d="m -2.5,-1 c 0,2.76 -2.24,5 -5,5 -2.76,0 -5,-2.24 -5,-5 0,-2.76 2.24,-5 5,-5 2.76,0 5,2.24 5,5 z"
         style="fill:#000000;fill-opacity:1;fill-rule:evenodd;stroke:#000000;stroke-width:1.00000003pt;stroke-opacity:1"
         transform="matrix(0.4,0,0,0.4,2.96,0.4)" />
    </marker>
    <marker
       inkscape:stockid="DotM"
       orient="auto"
       refY="0"
       refX="0"
       id="DotM-5"
       style="overflow:visible"
       inkscape:isstock="true">
      <path
         inkscape:connector-curvature="0"
         id="path7050-35"
         d="m -2.5,-1 c 0,2.76 -2.24,5 -5,5 -2.76,0 -5,-2.24 -5,-5 0,-2.76 2.24,-5 5,-5 2.76,0 5,2.24 5,5 z"
         style="fill:#000000;fill-opacity:1;fill-rule:evenodd;stroke:#000000;stroke-width:1.00000003pt;stroke-opacity:1"
         transform="matrix(0.4,0,0,0.4,2.96,0.4)" />
    </marker>
    <marker
       inkscape:stockid="DotM"
       orient="auto"
       refY="0"
       refX="0"
       id="marker7270-0"
       style="overflow:visible"
       inkscape:isstock="true">
      <path
         inkscape:connector-curvature="0"
         id="path7268-5"
         d="m -2.5,-1 c 0,2.76 -2.24,5 -5,5 -2.76,0 -5,-2.24 -5,-5 0,-2.76 2.24,-5 5,-5 2.76,0 5,2.24 5,5 z"
         style="fill:#000000;fill-opacity:1;fill-rule:evenodd;stroke:#000000;stroke-width:1.00000003pt;stroke-opacity:1"
         transform="matrix(0.4,0,0,0.4,2.96,0.4)" />
    </marker>
  </defs>
  <sodipodi:namedview
     id="base"
     pagecolor="#ffffff"
     bordercolor="#666666"
     borderopacity="1.0"
     inkscape:pageopacity="0.0"
     inkscape:pageshadow="2"
     inkscape:zoom="0.35"
     inkscape:cx="-21.428571"
     inkscape:cy="560"
     inkscape:document-units="mm"
     inkscape:current-layer="layer1"
     showgrid="false"
     inkscape:window-width="1920"
     inkscape:window-height="1027"
     inkscape:window-x="-8"
     inkscape:window-y="-8"
     inkscape:window-maximized="1" />
  <metadata
     id="metadata6375">
    <rdf:RDF>
      <cc:Work
         rdf:about="">
        <dc:format>image/svg+xml</dc:format>
        <dc:type
           rdf:resource="http://purl.org/dc/dcmitype/StillImage" />
        <dc:title></dc:title>
      </cc:Work>
    </rdf:RDF>
  </metadata>
  <g
     inkscape:label="Layer 1"
     inkscape:groupmode="layer"
     id="layer1"
     transform="translate(0,-87)">
    <g
       transform="matrix(0.17991114,0,0,0.18508603,35.617405,164.55161)"
       style="stroke:#000000;stroke-width:2.77929306;stroke-miterlimit:4;stroke-dasharray:none"
       id="g3818">
      <path
         style="fill:#ffffff;stroke-width:2.77929306;stroke-miterlimit:4;stroke-dasharray:none"
         d="m 166.84,235.55 c 0,3.7774 -3.0869,6.8691 -6.8711,6.8691 H 7.1189 c -3.7749,0 -6.8608,-3.0918 -6.8608,-6.8691 V 7.12 c 0,-3.7773 3.0859,-6.8701 6.8608,-6.8701 h 152.85 c 3.7842,0 6.8711,3.0928 6.8711,6.8701 z"
         inkscape:connector-curvature="0"
         id="path3814" />
      <g
         style="stroke:none;stroke-width:2.77929306;stroke-miterlimit:4;stroke-dasharray:none"
         id="g3816" />
    </g>
    <g
       transform="matrix(0.17991114,0,0,0.18508603,87.211156,164.55161)"
       style="stroke:#000000;stroke-width:2.77929306;stroke-miterlimit:4;stroke-dasharray:none"
       id="g3818-0">
      <path
         style="fill:#ffffff;stroke-width:2.77929306;stroke-miterlimit:4;stroke-dasharray:none"
         d="m 166.84,235.55 c 0,3.7774 -3.0869,6.8691 -6.8711,6.8691 H 7.1189 c -3.7749,0 -6.8608,-3.0918 -6.8608,-6.8691 V 7.12 c 0,-3.7773 3.0859,-6.8701 6.8608,-6.8701 h 152.85 c 3.7842,0 6.8711,3.0928 6.8711,6.8701 z"
         inkscape:connector-curvature="0"
         id="path3814-1" />
      <g
         style="stroke:none;stroke-width:2.77929306;stroke-miterlimit:4;stroke-dasharray:none"
         id="g3816-2" />
    </g>
    <g
       transform="matrix(0.17991114,0,0,0.18508603,138.80491,164.55161)"
       style="stroke:#000000;stroke-width:2.77929306;stroke-miterlimit:4;stroke-dasharray:none"
       id="g3818-1">
      <path
         style="fill:#ffffff;stroke-width:2.77929306;stroke-miterlimit:4;stroke-dasharray:none"
         d="m 166.84,235.55 c 0,3.7774 -3.0869,6.8691 -6.8711,6.8691 H 7.1189 c -3.7749,0 -6.8608,-3.0918 -6.8608,-6.8691 V 7.12 c 0,-3.7773 3.0859,-6.8701 6.8608,-6.8701 h 152.85 c 3.7842,0 6.8711,3.0928 6.8711,6.8701 z"
         inkscape:connector-curvature="0"
         id="path3814-6" />
      <g
         style="stroke:none;stroke-width:2.77929306;stroke-miterlimit:4;stroke-dasharray:none"
         id="g3816-1" />
    </g>
    <g
       transform="matrix(0.17991114,0,0,0.18508603,190.39865,164.55161)"
       style="stroke:#000000;stroke-width:2.77929306;stroke-miterlimit:4;stroke-dasharray:none"
       id="g3818-7">
      <path
         style="fill:#ffffff;stroke-width:2.77929306;stroke-miterlimit:4;stroke-dasharray:none"
         d="m 166.84,235.55 c 0,3.7774 -3.0869,6.8691 -6.8711,6.8691 H 7.1189 c -3.7749,0 -6.8608,-3.0918 -6.8608,-6.8691 V 7.12 c 0,-3.7773 3.0859,-6.8701 6.8608,-6.8701 h 152.85 c 3.7842,0 6.8711,3.0928 6.8711,6.8701 z"
         inkscape:connector-curvature="0"
         id="path3814-0" />
      <g
         style="stroke:none;stroke-width:2.77929306;stroke-miterlimit:4;stroke-dasharray:none"
         id="g3816-8" />
    </g>
    <g
       transform="matrix(0.17991114,0,0,0.18508603,241.99241,164.55161)"
       style="stroke:#000000;stroke-width:2.77929306;stroke-miterlimit:4;stroke-dasharray:none"
       id="g3818-3">
      <path
         style="fill:#ffffff;stroke-width:2.77929306;stroke-miterlimit:4;stroke-dasharray:none"
         d="m 166.84,235.55 c 0,3.7774 -3.0869,6.8691 -6.8711,6.8691 H 7.1189 c -3.7749,0 -6.8608,-3.0918 -6.8608,-6.8691 V 7.12 c 0,-3.7773 3.0859,-6.8701 6.8608,-6.8701 h 152.85 c 3.7842,0 6.8711,3.0928 6.8711,6.8701 z"
         inkscape:connector-curvature="0"
         id="path3814-06" />
      <g
         style="stroke:none;stroke-width:2.77929306;stroke-miterlimit:4;stroke-dasharray:none"
         id="g3816-3" />
    </g>
    <path
       style="stroke:#000000;stroke-width:2.64599987;stroke-miterlimit:4;stroke-dasharray:5.29199974,2.64599987,1.32299993,2.64599987;stroke-opacity:1;marker-start:url(#DotM);marker-end:url(#marker7270);stroke-dashoffset:0"
       d="M 49.892857,186.25298 H 102.05357"
       id="path6441"
       inkscape:connector-curvature="0"
       sodipodi:nodetypes="cc" />
    <path
       style="stroke:#000000;stroke-width:2.64599987;stroke-miterlimit:4;stroke-dasharray:5.29199974,2.64599987,1.32299993,2.64599987;stroke-opacity:1;marker-start:url(#DotM-7);marker-end:url(#marker7270-3);stroke-dashoffset:0"
       d="m 101.2069,186.25298 h 52.16072"
       id="path6441-8"
       inkscape:connector-curvature="0"
       sodipodi:nodetypes="cc" />
    <path
       style="stroke:#000000;stroke-width:2.64599987;stroke-miterlimit:4;stroke-dasharray:5.29199974,2.64599987,1.32299993,2.64599987;stroke-opacity:1;marker-start:url(#DotM-3);marker-end:url(#marker7270-6);stroke-dashoffset:0"
       d="m 152.52096,186.25298 h 52.16072"
       id="path6441-0"
       inkscape:connector-curvature="0"
       sodipodi:nodetypes="cc" />
    <path
       style="stroke:#000000;stroke-width:2.64599987;stroke-miterlimit:4;stroke-dasharray:5.29199974,2.64599987,1.32299993,2.64599987;stroke-opacity:1;marker-start:url(#DotM-5);marker-end:url(#marker7270-0);stroke-dashoffset:0"
       d="m 203.83501,186.25298 h 52.16071"
       id="path6441-5"
       inkscape:connector-curvature="0"
       sodipodi:nodetypes="cc" />
    <path
       style="stroke:#00bc00;stroke-width:2.64599991;stroke-miterlimit:4;stroke-dasharray:none;stroke-dashoffset:0;stroke-opacity:1;marker-start:url(#Arrow1Lend);marker-end:url(#Arrow1Lend)"
       d="m 75.595237,235.01191 c 136.827383,-0.75595 185.208333,0 185.208333,0"
       id="path7935"
       inkscape:connector-curvature="0"
       sodipodi:nodetypes="cc" />
  </g>
</svg>
