<?xml version="1.0" standalone="no"?>
<!DOCTYPE svg PUBLIC "-//W3C//DTD SVG 20010904//EN"
 "http://www.w3.org/TR/2001/REC-SVG-20010904/DTD/svg10.dtd">
<svg version="1.0" xmlns="http://www.w3.org/2000/svg"
 width="1280.000000pt" height="960.000000pt" viewBox="0 0 1280.000000 960.000000"
 preserveAspectRatio="xMidYMid meet">
<g transform="translate(0.000000,960.000000) scale(0.100000,-0.100000)"
fill="#000000" stroke="none">
<path d="M8055 5024 c-138 -6 -430 -34 -464 -44 -18 -5 -70 -16 -115 -25 -169
-31 -407 -120 -472 -176 -18 -14 -50 -37 -73 -50 -49 -27 -95 -102 -104 -168
-8 -60 19 -118 94 -202 95 -107 152 -151 205 -157 63 -7 64 -19 1 -15 -167 9
-243 10 -437 2 -118 -5 -265 -15 -325 -23 -110 -15 -288 -51 -309 -63 -6 -4
20 25 58 64 117 120 131 197 55 323 -51 87 -63 99 -139 152 -165 114 -520 213
-855 238 -476 36 -1051 27 -1395 -21 -169 -24 -424 -90 -545 -142 -220 -93
-305 -181 -323 -334 -8 -72 -7 -82 16 -133 13 -30 43 -74 65 -98 l41 -42 -124
6 c-138 7 -446 -8 -641 -31 -167 -20 -473 -93 -584 -140 -134 -57 -204 -112
-245 -192 -44 -85 -54 -154 -30 -208 23 -55 158 -181 201 -190 19 -3 55 -13
82 -22 50 -16 60 -17 202 -32 50 -6 117 -14 150 -20 33 -6 145 -13 249 -16
l189 -5 34 -30 c18 -17 39 -30 46 -30 32 -1 38 -21 57 -201 10 -101 18 -185
16 -186 -1 -1 -19 2 -41 8 -124 29 -422 39 -630 19 -123 -11 -356 -63 -428
-95 -101 -44 -171 -150 -151 -229 6 -26 124 -126 149 -126 8 0 23 -4 33 -9 19
-10 246 -39 307 -38 22 0 72 -4 112 -8 82 -9 75 2 93 -135 22 -159 103 -529
135 -615 156 -420 407 -968 449 -979 53 -14 206 -5 321 19 l31 7 24 -122 c29
-144 36 -152 139 -171 85 -15 361 -6 442 14 69 18 111 44 105 66 -16 54 -56
224 -54 227 2 1 44 8 93 14 85 12 145 31 145 48 0 4 -14 144 -31 312 -41 418
-47 476 -64 700 -9 107 -22 275 -30 373 -8 99 -15 201 -15 229 0 50 0 50 28
45 15 -3 83 -11 150 -18 68 -7 126 -17 128 -23 2 -6 11 -234 19 -506 8 -272
24 -616 35 -765 10 -148 26 -364 34 -480 14 -201 16 -211 39 -231 22 -19 108
-39 202 -47 30 -2 30 -2 33 -69 3 -64 5 -69 33 -84 52 -26 200 -39 303 -26 50
6 109 18 131 25 l40 14 -1 189 c-1 136 -12 294 -38 559 -50 504 -54 548 -66
718 l-10 148 51 272 c28 150 54 275 58 280 4 4 72 12 152 17 79 5 192 17 250
27 108 17 112 17 164 -16 17 -11 42 -20 57 -20 15 -1 29 -5 32 -10 3 -4 56
-14 117 -21 l112 -13 -7 -121 c-3 -67 -15 -222 -26 -346 -11 -124 -26 -304
-35 -400 -20 -237 -30 -337 -59 -595 -53 -475 -51 -444 -29 -467 12 -11 50
-26 89 -35 88 -19 328 -21 407 -3 31 7 60 11 63 8 3 -4 -6 -24 -20 -47 -14
-22 -26 -45 -26 -51 0 -23 76 -43 180 -48 162 -7 150 -16 296 243 68 121 125
225 127 230 2 6 9 6 18 -2 59 -49 518 -38 560 13 10 13 5 84 -25 367 -50 460
-57 530 -59 602 l-2 60 65 7 c123 13 255 42 295 65 50 28 122 104 131 138 3
14 3 36 0 49 -10 39 -81 121 -121 140 -52 25 -40 28 30 6 33 -10 124 -26 203
-36 l142 -17 0 -66 c-1 -36 -5 -129 -10 -206 -23 -351 -41 -917 -30 -929 6 -8
24 -16 41 -20 l31 -6 -6 -72 -7 -73 29 -17 c37 -22 169 -48 243 -48 30 0 60
-5 67 -12 7 -7 12 -32 12 -56 0 -63 12 -79 74 -93 66 -15 260 -7 299 12 l29
13 -8 70 c-10 82 -10 78 10 301 34 387 58 716 68 973 l12 272 33 9 c86 24 193
131 193 194 0 55 -87 153 -167 189 l-42 19 -3 159 c-2 88 -1 160 2 160 3 0 21
-5 40 -11 65 -19 314 -50 458 -56 l144 -6 -6 -91 c-4 -50 -13 -165 -21 -256
-8 -91 -22 -250 -30 -355 -25 -292 -53 -527 -79 -649 -14 -61 -54 -249 -90
-418 -36 -169 -66 -312 -66 -317 0 -6 16 -19 35 -28 26 -13 33 -21 30 -37 -2
-12 -9 -61 -15 -111 -6 -49 -13 -101 -16 -115 -4 -20 2 -29 23 -41 93 -53 479
-57 522 -5 6 7 18 78 26 157 9 79 20 153 25 164 30 65 285 1538 320 1846 11
101 23 200 26 220 l5 36 148 11 c81 7 199 21 262 33 109 21 117 24 187 76 73
56 129 117 149 164 14 32 3 93 -25 139 -57 93 -263 201 -477 250 -179 40 -176
40 -170 51 4 5 70 9 148 9 191 0 430 16 612 42 147 20 151 22 210 63 70 50
142 124 175 178 18 31 21 47 16 83 -14 107 -96 181 -311 278 -224 101 -578
156 -1012 156 -128 1 -233 2 -233 3 0 2 21 25 46 53 93 99 109 180 56 277 -49
90 -134 149 -360 251 -154 69 -377 118 -647 141 -163 15 -773 26 -940 19z
m-110 -910 c133 -3 222 -9 226 -15 7 -12 19 -244 19 -381 0 -76 -3 -98 -14
-98 -7 0 -35 -3 -62 -6 l-49 -7 31 34 c71 76 79 140 29 225 -53 90 -247 206
-410 245 -44 10 -60 16 -35 13 25 -3 144 -7 265 -10z m1010 -14 c-3 -5 -11
-10 -16 -10 -6 0 -39 -20 -73 -45 l-63 -45 -7 38 c-10 62 -11 61 67 65 39 1
78 4 85 5 7 1 10 -2 7 -8z m-3155 -93 c0 -2 -27 -25 -59 -50 -62 -48 -89 -56
-236 -72 -178 -20 -457 -111 -550 -180 -16 -12 -45 -30 -62 -39 -20 -10 -45
-38 -63 -69 l-30 -52 5 150 c8 216 11 235 38 235 12 0 144 7 292 15 237 13
366 25 575 55 69 9 90 11 90 7z m-1627 -124 c-9 -99 -8 -98 -56 -50 -23 24
-58 55 -77 70 l-35 27 86 0 87 0 -5 -47z m4765 -272 c32 -25 63 -37 130 -50
140 -29 218 -40 367 -53 l140 -12 -155 -12 c-85 -7 -180 -17 -210 -23 -49 -10
-57 -9 -81 8 -15 11 -40 23 -55 27 -16 4 -45 15 -65 25 -20 10 -66 23 -102 30
-64 12 -65 13 -71 48 -3 20 -6 52 -6 70 l0 35 33 -30 c17 -17 51 -45 75 -63z
m-4022 -340 c71 -66 74 -68 179 -95 141 -37 369 -65 594 -73 l183 -6 -6 -151
c-4 -83 -9 -167 -12 -187 l-5 -36 -97 -16 c-53 -9 -107 -19 -119 -23 -17 -5
-22 -1 -27 23 -10 42 -60 118 -98 146 -44 34 -201 94 -290 113 -40 8 -98 21
-128 29 -30 8 -84 17 -120 20 -36 3 -89 8 -117 11 l-53 5 0 217 1 217 21 -63
c18 -54 32 -73 94 -131z m2499 -120 c55 -59 96 -81 149 -81 19 0 38 -4 41 -10
3 -5 23 -10 44 -10 21 0 51 -5 68 -10 16 -6 104 -14 196 -18 91 -4 168 -10
171 -12 5 -6 -23 -412 -29 -418 -1 -2 -43 -7 -92 -12 -265 -26 -495 -133 -516
-240 -9 -42 17 -99 74 -164 23 -25 39 -46 37 -46 -2 0 -28 9 -58 19 -30 10
-91 24 -135 31 -44 6 -95 13 -112 16 -28 4 -33 9 -33 32 0 15 -5 81 -10 147
-12 139 -50 727 -50 766 0 23 8 29 58 48 31 11 71 29 87 40 30 19 30 19 45 -3
8 -11 37 -45 65 -75z m-3305 -71 c0 -66 -1 -70 -22 -70 -45 0 -244 -43 -286
-61 -68 -30 -72 -28 -72 45 0 35 -3 77 -6 93 l-6 30 129 12 c70 6 151 13 178
15 28 1 58 3 68 4 15 2 17 -7 17 -68z m-821 -307 c0 -192 -2 -343 -4 -338 -6
15 -115 652 -115 670 0 12 13 15 60 15 l60 0 -1 -347z m3361 235 c0 -57 3
-163 6 -236 l6 -134 -38 20 c-22 11 -79 29 -128 40 -48 12 -90 22 -92 24 -2 3
-7 279 -5 350 l1 27 113 4 c61 1 118 4 125 5 9 1 12 -24 12 -100z m-3938 -773
c22 -191 150 -887 244 -1333 19 -90 34 -166 34 -169 0 -22 -243 484 -336 699
-103 238 -123 295 -171 477 -29 113 -60 231 -68 261 -24 92 -34 171 -21 175 6
2 57 6 114 10 57 3 113 10 125 15 12 5 31 8 42 7 18 -2 22 -16 37 -142z m3948
-45 c-6 -4 -45 -15 -85 -23 -40 -9 -99 -28 -130 -41 l-56 -25 3 97 3 97 75 7
c41 4 100 13 130 21 l55 14 9 -70 c6 -51 5 -71 -4 -77z m-145 -460 c33 -6 84
-15 114 -20 30 -5 58 -15 62 -22 5 -7 9 -42 10 -78 0 -36 4 -105 9 -155 7 -80
5 -100 -17 -180 -14 -49 -27 -92 -29 -94 -8 -8 -254 534 -254 560 0 5 10 7 23
4 12 -3 49 -10 82 -15z m-50 -989 c-24 -48 -76 -143 -115 -212 l-72 -124 7 85
c9 125 44 536 51 604 l6 59 84 -163 83 -162 -44 -87z"/>
<path d="M10820 2593 c-97 -15 -256 -49 -318 -69 -82 -26 -187 -98 -216 -147
-36 -63 -18 -114 72 -199 48 -46 67 -58 92 -58 18 0 46 -6 63 -14 35 -15 162
-36 267 -43 36 -2 70 -6 76 -8 17 -5 -6 -107 -71 -310 -29 -93 -63 -204 -75
-245 -31 -108 -248 -525 -413 -795 -157 -257 -169 -281 -147 -295 53 -33 299
-54 353 -29 27 12 18 -2 176 264 113 191 339 643 377 753 26 78 133 516 140
575 3 31 11 61 18 65 6 4 52 8 101 8 118 2 308 20 365 34 25 6 59 14 75 17 38
7 172 136 180 173 17 76 -75 169 -225 227 -63 24 -246 71 -335 84 -60 10 -508
19 -555 12z"/>
</g>
</svg>
