<?xml version="1.0" standalone="no"?>
<!DOCTYPE svg PUBLIC "-//W3C//DTD SVG 20010904//EN"
 "http://www.w3.org/TR/2001/REC-SVG-20010904/DTD/svg10.dtd">
<svg version="1.0" xmlns="http://www.w3.org/2000/svg"
 width="1280.000000pt" height="506.000000pt" viewBox="0 0 1280.000000 506.000000"
 preserveAspectRatio="xMidYMid meet">
<g transform="translate(0.000000,506.000000) scale(0.100000,-0.100000)"
fill="#000000" stroke="none">
<path d="M4712 2767 c-2 -192 -20 -271 -69 -299 -19 -12 -33 -28 -33 -39 0
-13 -7 -19 -24 -19 l-23 0 -7 -207 c-4 -115 -13 -404 -21 -643 -8 -239 -15
-468 -15 -507 l0 -73 -35 0 c-33 0 -35 2 -35 36 0 19 -7 42 -15 50 -8 9 -15
30 -15 49 0 45 -9 65 -29 65 -9 0 -25 13 -34 30 -40 66 -122 92 -189 59 -21
-11 -44 -31 -51 -45 l-14 -26 -16 41 c-10 23 -17 50 -17 60 0 11 -26 35 -70
65 -38 25 -73 46 -77 46 -18 0 -143 -107 -153 -131 -16 -37 -46 -63 -65 -56
-12 5 -15 23 -15 82 l0 75 -27 -1 c-16 0 -86 -6 -158 -12 l-130 -12 -3 -162
-2 -163 -66 0 c-63 0 -66 -1 -82 -32 -9 -17 -25 -39 -34 -50 -10 -10 -18 -24
-18 -32 0 -8 -5 -16 -10 -18 -6 -2 -15 -42 -21 -91 -11 -84 -20 -104 -33 -72
-4 12 -23 15 -81 15 -73 0 -76 -1 -73 -23 3 -19 -3 -23 -39 -31 -40 -9 -43
-12 -43 -43 0 -30 -3 -33 -30 -33 l-30 0 0 69 0 68 -132 9 -132 9 -9 43 c-4
23 -14 42 -21 42 -6 0 -21 22 -33 49 l-21 50 -111 3 c-111 3 -112 3 -138 -24
-15 -16 -24 -28 -20 -28 4 0 1 -14 -8 -30 -11 -21 -23 -30 -40 -30 -17 0 -25
-6 -27 -22 -2 -18 -11 -24 -35 -26 -20 -2 -33 -9 -33 -17 0 -29 -31 -45 -84
-45 -29 0 -74 -3 -99 -6 -40 -6 -47 -10 -52 -35 -4 -16 -11 -31 -16 -34 -5 -4
-9 -35 -9 -71 0 -64 0 -64 -29 -64 -16 0 -31 6 -35 15 -3 8 -18 15 -33 15 -28
0 -28 1 -28 59 0 33 -3 62 -5 65 -3 2 -27 6 -53 8 l-48 3 -17 -50 c-20 -60
-52 -75 -52 -26 0 24 -4 31 -20 31 -11 0 -20 3 -21 8 0 4 -4 57 -10 117 -5 61
-12 147 -16 192 -5 73 -8 83 -25 83 -11 0 -16 4 -13 10 3 5 -1 20 -9 32 -9 12
-17 38 -17 58 -1 19 -5 -1 -10 -44 -6 -58 -14 -85 -29 -101 -25 -27 -37 -100
-46 -277 -5 -115 -8 -128 -24 -128 -11 0 -22 -4 -25 -10 -13 -22 -25 -8 -25
30 0 45 -18 90 -35 90 -7 0 -20 -18 -30 -40 l-18 -40 -84 0 c-79 0 -84 -1 -95
-25 -6 -14 -14 -25 -18 -25 -4 0 -10 -9 -13 -21 -10 -39 -24 -10 -19 41 l5 50
-37 0 c-23 0 -35 4 -31 10 11 17 -15 41 -34 31 -25 -13 -41 -2 -41 30 0 29 0
29 -60 29 -69 0 -138 -19 -142 -38 -2 -8 -20 -20 -40 -27 -34 -11 -37 -11 -42
9 -3 12 -6 52 -6 89 0 43 -4 66 -10 62 -6 -4 -10 14 -11 47 -1 42 -3 48 -9 28
-4 -14 -8 -40 -9 -57 -1 -19 -6 -33 -13 -33 -7 0 -27 -13 -44 -29 -29 -27 -32
-37 -38 -113 -8 -88 -29 -148 -52 -148 -8 0 -17 -7 -20 -15 -3 -8 -21 -19 -39
-25 -26 -9 -35 -18 -41 -43 -4 -18 -9 -26 -11 -19 -3 8 -9 9 -16 4 -17 -13
-90 -32 -121 -32 l-26 0 0 -205 0 -205 6400 0 6400 0 0 119 0 119 -39 15 c-36
15 -48 15 -153 -3 -62 -11 -116 -20 -120 -20 -3 0 -15 -16 -27 -35 l-20 -35
-98 1 c-54 1 -131 4 -171 8 l-74 6 -2 55 c-2 30 -10 72 -20 93 l-16 37 -83 0
c-45 0 -119 -5 -165 -12 -80 -11 -84 -13 -114 -52 -18 -23 -32 -42 -33 -44 -1
-1 -57 10 -125 26 -113 25 -125 30 -131 52 -4 14 -7 113 -8 220 -1 107 -4 280
-8 383 -6 185 -7 189 -29 198 -23 8 -24 13 -26 146 l-3 138 -55 -3 c-55 -4
-56 -3 -77 35 -21 37 -25 39 -105 55 -110 21 -186 9 -201 -32 -10 -26 -17 -28
-126 -46 l-116 -19 -3 -168 c-3 -169 -11 -201 -35 -136 -11 28 -15 30 -47 25
-19 -3 -56 -6 -82 -6 -43 0 -48 -3 -54 -26 l-6 -25 -22 20 c-23 22 -84 29
-102 11 -5 -5 -35 -12 -66 -16 l-56 -7 -7 82 c-8 80 -8 81 -36 81 -18 0 -30 6
-34 19 -3 12 -24 26 -52 35 -38 13 -53 14 -80 4 -20 -7 -33 -19 -33 -30 0 -21
-29 -38 -64 -38 -24 0 -26 -3 -26 -45 l0 -46 -135 3 c-74 2 -136 5 -138 8 -1
3 -5 64 -9 135 -4 72 -10 157 -15 190 l-8 60 -45 0 c-39 0 -45 -3 -48 -22 -6
-41 -48 -63 -121 -64 l-66 0 -52 -63 -53 -63 0 -129 c0 -128 -7 -163 -29 -149
-17 10 -41 -14 -41 -41 0 -13 -4 -24 -10 -24 -5 0 -10 25 -10 55 l0 54 -36 7
c-31 6 -185 0 -226 -8 -9 -2 -13 10 -14 37 0 33 -4 41 -22 43 -21 3 -22 8 -22
113 0 107 -1 112 -39 193 -27 58 -41 104 -46 151 -8 72 -18 70 -29 -6 -4 -25
-17 -72 -31 -104 l-24 -60 -3 55 -3 55 -215 9 c-149 5 -223 5 -242 -3 l-28
-11 0 -199 0 -200 -37 6 c-21 3 -40 8 -43 10 -12 11 -27 109 -22 145 l5 40
-113 -4 -113 -3 2 64 3 64 -32 -7 c-18 -3 -63 -6 -100 -6 l-67 0 -6 -42 c-3
-24 -11 -44 -16 -46 -6 -2 -11 -10 -11 -17 0 -7 -11 -20 -25 -29 -24 -16 -25
-21 -25 -112 0 -95 0 -96 -22 -90 -13 3 -26 6 -30 6 -5 0 -8 16 -8 35 0 34 -2
35 -36 35 -34 0 -36 -2 -30 -25 4 -14 2 -25 -4 -25 -6 0 -10 -32 -10 -80 0
-68 -2 -78 -16 -73 -8 3 -13 11 -10 18 7 19 -56 75 -85 75 -13 0 -39 -4 -57
-9 l-32 -10 0 182 0 182 -198 -2 c-108 -1 -215 -6 -237 -10 l-40 -9 3 -209 c2
-167 0 -214 -11 -227 -12 -15 -79 -37 -114 -38 -10 0 -13 93 -13 434 l0 433
-148 7 c-95 5 -157 4 -175 -3 l-27 -11 0 -215 0 -216 -77 3 -78 3 -1 40 c-1
22 -2 70 -3 108 l-1 67 -45 0 c-68 0 -101 -21 -109 -67 -3 -21 -8 -161 -12
-310 -4 -150 -11 -273 -15 -273 -5 0 -9 -11 -9 -24 0 -15 -7 -26 -20 -29 -18
-5 -20 -14 -20 -95 l0 -91 -27 8 c-46 12 -76 -1 -96 -42 -9 -20 -21 -37 -26
-37 -5 0 -16 -3 -25 -6 -14 -5 -16 8 -16 104 0 107 -1 111 -22 114 -18 2 -24
11 -28 38 -4 26 -10 36 -26 38 -17 2 -23 -4 -27 -26 -4 -18 -14 -31 -26 -35
-20 -5 -21 -13 -21 -128 0 -173 -19 -142 -27 44 l-6 146 -46 -1 c-68 -2 -91
14 -91 62 0 21 -4 42 -10 45 -5 3 -10 16 -10 28 0 12 -7 31 -15 41 -8 11 -15
27 -15 36 0 24 -44 61 -82 69 l-33 7 3 62 4 62 -111 0 c-61 0 -111 1 -111 3
-1 1 -5 235 -10 520 l-9 519 -26 20 c-14 11 -25 26 -25 34 0 8 -11 19 -24 25
-18 9 -28 27 -41 78 -10 36 -23 71 -30 76 -8 7 -16 62 -22 155 l-10 145 -1
-148z"/>
</g>
</svg>
