<?xml version="1.0" standalone="no"?>
<!DOCTYPE svg PUBLIC "-//W3C//DTD SVG 20010904//EN"
 "http://www.w3.org/TR/2001/REC-SVG-20010904/DTD/svg10.dtd">
<svg version="1.0" xmlns="http://www.w3.org/2000/svg"
 width="905.000000pt" height="1280.000000pt" viewBox="0 0 905.000000 1280.000000"
 preserveAspectRatio="xMidYMid meet">
<g transform="translate(0.000000,1280.000000) scale(0.100000,-0.100000)"
fill="#000000" stroke="none">
<path d="M4332 10795 c-15 -53 -8 -104 18 -122 11 -8 18 -18 15 -23 -3 -4 2
-13 10 -20 8 -7 12 -16 9 -21 -3 -5 5 -9 18 -9 13 -1 34 -7 47 -14 20 -11 21
-14 7 -19 -9 -4 -28 -2 -42 3 -34 13 -39 13 -24 -5 27 -32 -9 -13 -51 28 -24
23 -43 40 -41 38 1 -3 -7 -10 -18 -16 -20 -11 -20 -12 17 -54 39 -43 61 -51
148 -55 41 -1 65 -20 47 -38 -7 -7 -25 -3 -55 10 -38 17 -45 18 -43 5 4 -24
36 -43 72 -43 18 0 36 -5 40 -12 15 -24 -89 1 -126 30 -52 42 -55 43 -78 26
l-22 -15 27 -25 c14 -13 38 -27 52 -30 14 -4 31 -11 36 -18 6 -6 35 -11 65
-11 51 0 55 -2 58 -25 2 -24 2 -24 -12 -6 -15 19 -16 18 -25 -5 -5 -13 -10
-20 -10 -15 -1 5 -8 3 -16 -4 -8 -7 -15 -9 -15 -4 0 5 -15 10 -33 11 -43 3
-59 7 -74 16 -7 5 -17 6 -22 2 -5 -3 -12 -1 -16 5 -13 22 -26 8 -23 -26 3 -42
15 -49 100 -57 30 -3 73 -15 94 -26 21 -12 46 -21 55 -21 22 0 32 -37 12 -44
-8 -3 -32 -3 -54 0 -24 4 -39 3 -39 -4 0 -6 -27 -8 -70 -6 -40 3 -79 0 -91 -6
-14 -8 -30 -8 -55 0 -43 15 -59 3 -36 -26 13 -16 38 -23 112 -33 114 -15 152
-17 165 -9 15 8 85 20 85 14 0 -14 -121 -64 -170 -70 -30 -4 -60 -12 -66 -17
-6 -5 -35 -15 -62 -23 l-51 -13 -33 34 c-17 18 -38 33 -45 33 -26 0 -96 -42
-167 -101 -40 -32 -78 -59 -86 -59 -46 0 -95 -28 -148 -84 -31 -34 -88 -91
-125 -127 -48 -46 -68 -72 -65 -85 2 -10 10 -18 16 -17 23 5 12 -23 -20 -54
-18 -17 -56 -45 -84 -62 -38 -23 -53 -39 -57 -60 -4 -17 -33 -58 -68 -96 l-62
-66 -52 6 c-48 6 -54 5 -98 -29 l-47 -36 -32 19 c-51 30 -146 54 -189 48 -63
-8 -92 -36 -105 -104 -7 -32 -17 -76 -23 -98 -12 -46 -14 -260 -2 -320 7 -37
4 -44 -30 -86 -41 -49 -47 -51 -124 -50 -43 1 -56 -4 -83 -29 -18 -16 -37 -30
-43 -30 -5 0 -9 -9 -9 -19 0 -11 -4 -23 -10 -26 -5 -3 -10 -10 -10 -14 0 -12
98 -71 118 -71 9 -1 2 -7 -16 -15 -49 -22 -70 -78 -73 -195 -1 -52 0 -99 1
-105 1 -5 2 -117 1 -248 -1 -204 -3 -238 -16 -244 -9 -3 -18 -3 -21 -1 -5 6
-11 86 -13 176 -1 52 -2 53 -28 49 -27 -4 -28 -6 -28 -66 l0 -62 -35 -8 c-19
-5 -70 -15 -112 -22 -76 -13 -111 -34 -46 -27 32 3 33 1 56 -61 12 -35 21 -65
19 -67 -2 -2 -29 -6 -60 -10 -55 -7 -57 -6 -58 17 l-1 24 -7 -25 c-4 -16 -14
-25 -26 -25 -12 0 -22 9 -26 25 l-7 25 -1 -27 c-1 -27 -3 -28 -50 -28 -49 0
-50 1 -54 33 l-4 32 -1 -32 c-2 -30 -5 -33 -32 -33 l-30 0 0 70 c0 39 -4 70
-8 70 -4 0 -6 -32 -4 -71 l4 -71 -43 6 c-24 3 -53 6 -64 6 -50 1 -139 21 -147
32 -6 11 -8 10 -8 0 0 -7 -4 -10 -10 -7 -5 3 -10 28 -10 56 0 42 3 49 19 49
13 0 21 -8 23 -22 3 -17 6 -12 15 20 10 40 10 42 -11 41 -11 0 -15 -3 -8 -6
21 -8 13 -23 -14 -23 -18 0 -25 5 -23 18 1 9 -1 24 -4 32 -4 8 -8 35 -9 60 -5
71 -23 43 -21 -32 1 -63 0 -68 -20 -69 -15 -1 -17 -3 -6 -6 11 -3 15 -12 12
-31 -3 -23 -2 -24 5 -7 8 17 10 13 16 -22 9 -53 4 -61 -36 -59 l-33 2 -1 67
c-1 37 -4 71 -8 74 -3 3 -6 33 -6 65 0 46 -3 58 -16 58 -14 0 -15 -13 -10 -97
3 -54 9 -117 12 -139 6 -40 5 -42 -27 -53 -17 -6 -39 -11 -48 -11 -9 0 -50
-18 -91 -38 l-75 -38 1 -80 c2 -127 21 -235 54 -305 25 -53 30 -76 30 -139 0
-69 3 -79 37 -134 34 -56 37 -66 42 -163 6 -110 12 -123 59 -123 35 0 49 48
62 205 19 252 29 339 45 395 8 30 15 69 15 87 0 18 16 76 35 129 38 106 43
134 20 134 -8 0 -15 7 -15 15 0 13 14 14 98 8 125 -10 240 -10 372 0 l104 8
-18 -20 c-17 -19 -18 -34 -12 -188 10 -225 27 -331 66 -418 56 -122 90 -236
111 -370 23 -153 31 -186 66 -280 31 -81 34 -87 131 -223 99 -139 140 -227
158 -343 29 -188 34 -231 44 -344 7 -84 16 -126 31 -153 49 -87 147 -218 182
-242 43 -29 117 -133 117 -164 0 -11 11 -57 25 -101 16 -51 36 -169 55 -325
41 -327 62 -395 133 -425 29 -12 35 -23 70 -123 21 -64 37 -129 37 -155 0 -25
11 -76 25 -114 72 -201 131 -463 145 -653 14 -179 22 -206 65 -225 19 -7 36
-20 37 -27 1 -7 2 -78 2 -158 l1 -145 48 -104 c26 -58 65 -132 87 -165 99
-154 114 -229 130 -681 12 -343 20 -417 52 -502 35 -94 83 -124 248 -154 56
-10 74 -9 122 5 149 43 220 104 237 207 5 30 15 146 21 259 l11 205 46 93 c32
64 57 101 84 123 23 18 63 72 101 136 35 59 82 125 105 148 24 22 59 56 79 75
20 19 57 67 82 107 26 40 85 116 130 170 55 65 112 147 166 243 46 80 124 217
176 305 128 221 250 466 308 620 28 72 69 177 92 235 23 58 59 155 80 217 30
91 57 143 144 283 59 94 111 181 115 193 5 12 11 63 15 112 4 50 13 117 21
150 7 33 17 78 20 99 4 22 24 74 45 115 20 42 90 222 155 401 104 290 121 329
157 368 l40 44 -6 71 c-4 40 -9 101 -12 137 -3 36 -11 72 -18 80 -7 8 -21 46
-31 83 -20 77 -23 58 47 279 28 91 48 135 68 157 37 38 67 96 75 146 3 22 9
53 12 68 2 16 20 43 38 61 46 46 54 83 66 290 9 154 14 189 35 240 28 66 39
152 50 383 l7 142 -37 21 c-20 12 -36 27 -36 33 0 18 27 162 48 256 l18 84 53
19 c35 13 55 28 61 43 11 29 16 273 6 302 -7 21 -5 22 31 15 51 -9 255 -9 318
1 l50 7 0 -62 c1 -93 21 -198 50 -259 17 -37 25 -72 25 -109 0 -43 7 -66 30
-105 25 -43 30 -60 30 -122 0 -52 4 -76 16 -87 20 -21 30 -20 52 2 15 15 20
50 31 197 7 99 19 208 27 243 8 35 14 74 14 88 0 13 14 63 30 111 35 99 35
103 15 103 -8 0 -15 9 -15 19 0 24 -18 30 -95 31 -33 1 -69 1 -80 2 -11 0 -27
-2 -35 -3 -12 -3 -15 6 -13 51 1 30 3 72 3 93 0 27 4 37 13 33 61 -25 204 -66
231 -66 27 0 40 7 58 30 l24 31 59 -16 c32 -8 61 -13 63 -10 3 2 7 37 10 76 4
53 2 70 -7 65 -6 -4 -11 -34 -11 -70 l0 -63 -51 13 c-57 15 -73 24 -42 24 21
0 21 1 23 93 1 15 5 27 10 27 5 0 7 -7 3 -16 -4 -12 2 -11 32 6 31 17 43 19
68 11 39 -14 37 -15 37 18 0 57 67 98 131 81 25 -7 26 -7 23 44 -1 29 -7 71
-14 94 -6 24 -8 53 -5 65 9 35 -71 -59 -100 -117 -14 -27 -30 -74 -36 -105
l-11 -56 -176 0 c-97 0 -183 4 -191 9 -11 7 -13 34 -7 145 4 74 8 137 11 139
8 8 197 -92 211 -112 13 -18 16 -19 24 -5 9 16 35 28 160 75 52 19 85 39 107
63 37 41 73 108 73 137 0 23 10 39 30 47 13 5 13 6 -1 6 -10 1 -21 20 -32 59
-25 89 -72 143 -168 191 -73 37 -89 41 -154 41 -74 0 -159 -22 -209 -55 -25
-17 -27 -16 -72 13 -101 67 -200 78 -316 33 -75 -29 -144 -97 -160 -157 -8
-27 -18 -44 -28 -45 -10 0 -11 -2 -2 -6 6 -2 12 -15 12 -27 0 -46 33 -117 73
-159 24 -24 75 -58 119 -79 43 -21 83 -46 89 -57 12 -19 13 -19 28 0 9 11 47
30 85 43 63 22 71 23 92 10 20 -13 22 -22 18 -67 -2 -29 -5 -83 -8 -120 -2
-37 -6 -70 -9 -73 -2 -3 -46 3 -96 13 l-91 18 0 41 c0 48 -20 80 -44 71 -10
-4 -15 -11 -11 -16 3 -6 12 -8 20 -5 16 6 21 -11 28 -90 l5 -50 -19 25 c-27
35 -23 15 6 -31 14 -22 25 -53 25 -68 0 -16 11 -45 24 -65 21 -31 25 -47 25
-125 0 -88 0 -89 -24 -89 l-25 0 6 113 c5 82 3 114 -5 114 -11 0 -15 -52 -12
-162 2 -46 -1 -59 -16 -66 -65 -34 -295 -46 -403 -20 l-55 13 -3 58 c-3 62 -2
63 57 51 19 -4 31 -13 32 -23 0 -10 2 -11 6 -3 6 14 49 16 58 2 7 -12 25 -4
25 11 0 5 -12 9 -26 9 -15 0 -43 4 -63 10 -20 5 -49 12 -64 15 -27 6 -28 8
-26 58 3 42 0 53 -14 55 -14 3 -17 -5 -18 -45 -1 -26 -3 -55 -4 -63 -1 -8 -3
-39 -4 -67 l-1 -53 -44 0 c-31 0 -46 5 -50 16 -4 9 -8 107 -11 218 -2 110 -2
194 1 186 6 -19 58 -44 62 -31 2 7 10 6 21 -1 27 -17 51 -4 44 24 -9 38 -23
47 -74 54 -27 4 -49 10 -49 15 0 8 56 14 89 10 7 -2 10 2 6 8 -6 11 -3 12 33
15 9 1 23 5 30 9 7 5 12 3 12 -4 0 -8 4 -8 13 -2 14 12 76 11 95 0 7 -5 12 -3
12 4 0 8 7 6 19 -5 10 -9 25 -14 33 -11 20 8 15 49 -7 54 -13 2 -15 5 -5 11 8
5 0 12 -25 20 -50 16 -161 7 -239 -20 -33 -11 -63 -20 -68 -20 -4 0 -8 18 -8
40 0 33 3 40 20 40 28 0 25 20 -2 21 -23 0 -22 1 2 12 14 6 28 15 31 20 4 5
10 4 13 -2 4 -6 23 -11 43 -11 27 0 36 5 40 21 4 14 13 20 32 19 14 -1 32 -2
39 -1 18 2 15 21 -4 21 -11 0 -14 5 -10 16 3 9 3 21 -1 27 -7 12 -9 17 -12 36
-2 13 -49 29 -106 36 -27 4 -59 9 -69 12 -17 5 -18 6 -3 15 19 10 17 58 -2 82
-9 11 -7 15 9 19 20 5 29 37 10 37 -6 0 -21 11 -34 25 -13 14 -40 36 -60 50
-31 21 -36 22 -36 7 0 -9 -3 -27 -6 -40 -5 -18 -2 -24 15 -29 20 -5 21 -7 5
-24 -19 -21 -11 -39 19 -40 13 -1 16 -3 7 -5 -18 -5 -45 -44 -31 -44 14 0 -8
-60 -22 -61 -88 -6 -124 -46 -63 -69 12 -4 26 -3 35 3 10 9 16 7 26 -6 7 -9
19 -17 28 -17 9 0 23 -7 32 -17 14 -14 18 -14 26 -2 6 10 9 7 9 -12 0 -36 -8
-40 -42 -23 -23 12 -33 13 -44 3 -11 -9 -21 -4 -52 27 -47 49 -102 51 -102 3
0 -10 -4 -19 -10 -19 -23 0 -7 -18 35 -39 31 -15 50 -19 62 -13 10 5 32 6 48
2 l30 -6 -33 -7 c-25 -5 -33 -11 -30 -24 2 -13 11 -17 33 -15 17 2 34 7 38 11
4 5 19 6 33 3 19 -3 24 -11 24 -32 l0 -28 -86 -1 c-91 -1 -117 -11 -122 -48
-2 -15 4 -24 20 -29 39 -13 52 -13 60 -1 6 9 8 8 8 -2 0 -12 3 -12 18 1 23 20
52 30 52 18 0 -6 9 -6 24 -1 21 9 23 7 22 -22 l-1 -32 -55 4 -55 3 19 -21 c12
-13 30 -20 52 -19 19 1 37 -1 40 -4 3 -3 4 -34 2 -69 l-3 -64 -17 35 c-9 20
-29 40 -45 47 -35 15 -113 23 -113 12 0 -5 -7 -6 -15 -2 -9 3 -15 1 -13 -5 2
-6 -6 -17 -17 -26 -19 -14 -19 -16 -3 -32 9 -10 27 -18 40 -20 13 -1 23 -3 23
-4 0 -2 9 -4 20 -6 11 -2 29 -5 40 -7 11 -2 28 2 39 9 15 11 23 10 42 -3 22
-14 24 -22 24 -93 0 -42 -3 -99 -7 -125 l-6 -47 -41 6 c-46 7 -213 23 -328 32
-76 6 -77 6 -84 37 -8 38 -20 47 -54 41 -14 -2 -32 0 -40 5 -12 8 -11 13 8 34
31 33 27 42 -8 17 -16 -12 -30 -29 -30 -37 0 -14 -16 -15 -134 -10 -112 6
-136 4 -146 -8 -24 -29 -39 -14 -87 77 -28 54 -57 97 -70 104 -20 9 -117 137
-181 238 -42 68 -114 137 -172 166 -56 28 -57 28 -129 15 -40 -8 -86 -21 -103
-29 -17 -9 -34 -13 -39 -10 -5 3 -27 32 -49 64 -38 56 -45 61 -108 80 -61 19
-71 19 -114 7 -27 -9 -52 -11 -59 -6 -11 7 -10 9 5 9 15 0 16 3 6 15 -6 8 -9
18 -6 24 4 5 -16 7 -52 4 -54 -5 -60 -3 -101 28 -24 19 -56 58 -72 87 -28 52
-28 52 -6 53 17 1 18 2 4 6 -9 2 -14 9 -11 15 5 7 -1 9 -17 5 -30 -7 -113 32
-117 56 -5 25 21 21 52 -8 36 -33 74 -33 82 -1 3 14 11 23 17 21 42 -12 68
-15 62 -5 -3 5 -2 10 3 10 5 0 9 7 9 15 0 8 -7 15 -15 15 -15 0 -142 59 -152
71 -3 3 -13 9 -23 12 -19 7 -19 28 -1 34 6 2 27 -8 47 -21 22 -15 37 -21 37
-13 0 8 4 7 10 -3 6 -9 10 -11 10 -3 0 8 7 10 18 6 15 -6 16 -5 2 12 -14 17
-13 18 5 11 30 -12 109 -36 118 -36 5 0 5 5 1 12 -4 7 -3 8 5 4 6 -4 25 -4 42
-1 25 6 28 9 18 21 -10 12 -8 16 9 21 12 3 22 10 22 15 0 6 7 5 15 -2 13 -11
14 -10 9 5 -6 15 -2 15 35 -4 40 -21 53 -17 29 7 -9 9 -9 12 3 12 12 0 12 2
-1 10 -11 7 -5 10 24 10 35 0 37 2 25 17 -12 15 -12 16 6 9 11 -5 29 -10 40
-13 20 -4 20 -4 1 11 -19 16 -19 16 -1 16 15 0 16 3 7 12 -7 7 -12 19 -12 28
0 14 -12 17 -62 19 -76 3 -202 27 -241 47 -15 8 -51 17 -80 20 -74 8 -167 36
-167 50 0 8 8 11 23 7 36 -8 142 -3 145 7 2 6 13 10 23 10 11 0 17 5 14 10 -3
6 -1 10 5 10 7 0 21 11 32 25 11 14 27 25 36 25 10 0 13 3 7 8 -15 10 -17 53
-4 69 6 7 13 33 16 59 6 57 -13 57 -40 0 -10 -20 -22 -34 -27 -31 -13 8 -13
11 5 29 14 14 13 19 -10 56 -14 22 -24 45 -23 51 2 6 -5 13 -14 14 -13 2 -18
-4 -18 -22 0 -38 -39 -100 -74 -117 -74 -35 -87 -38 -93 -17 -2 10 -16 24 -29
30 -31 14 -24 27 13 25 30 -2 63 21 63 43 0 7 7 13 15 13 22 0 20 56 -2 69
-10 5 -15 13 -11 17 4 3 0 20 -8 37 -12 22 -13 31 -4 37 8 5 9 10 2 14 -6 3
-9 18 -6 31 2 14 0 25 -6 25 -5 0 -10 5 -10 11 0 10 -39 48 -50 49 -3 0 -5
-22 -5 -49 0 -39 -6 -55 -24 -75 -14 -14 -32 -26 -40 -25 -11 0 -8 3 6 9 33
13 45 43 28 66 -14 18 -14 18 -15 1 0 -28 -25 -14 -26 14 -1 13 -2 29 -4 34
-1 6 -2 13 -1 18 0 4 -6 7 -14 7 -9 0 -12 6 -9 15 4 8 1 15 -5 15 -6 0 -11 10
-12 23 0 19 -2 18 -16 -10 -20 -39 -33 -42 -33 -8 0 14 -3 24 -7 24 -22 -4
-32 3 -35 24 -3 18 -6 14 -16 -18z m226 -314 c-29 -38 -35 -38 -43 0 -8 35 -1
46 35 51 34 4 37 -15 8 -51z m12 -46 c0 -2 -9 -9 -20 -15 -12 -6 -20 -7 -20
-1 0 5 8 12 18 14 9 3 18 5 20 6 1 0 2 -1 2 -4z m221 -136 c-24 -40 -108 -109
-131 -109 -10 0 -31 -3 -48 -6 -25 -5 -31 -2 -37 16 -8 26 7 40 45 40 14 0 38
7 54 15 15 8 35 15 43 15 8 0 11 5 7 11 -4 7 -1 10 7 7 21 -8 51 11 45 28 -3
9 1 14 14 14 19 0 19 0 1 -31z m-86 -427 c-6 -7 -35 18 -35 31 0 5 9 2 20 -8
11 -10 18 -20 15 -23z m-215 -31 c0 -5 -13 -14 -30 -21 -16 -7 -30 -16 -30
-21 0 -5 -12 -9 -26 -9 -38 0 -25 20 26 41 52 21 60 22 60 10z m2450 -431 c0
-5 -11 -10 -25 -10 -14 0 -25 5 -25 10 0 6 11 10 25 10 14 0 25 -4 25 -10z
m60 -80 c8 -5 11 -10 5 -10 -5 0 -17 5 -25 10 -8 5 -10 10 -5 10 6 0 17 -5 25
-10z m-65 -130 c3 -5 1 -10 -4 -10 -6 0 -11 5 -11 10 0 6 2 10 4 10 3 0 8 -4
11 -10z m860 -10 c3 -6 -1 -7 -9 -4 -18 7 -21 14 -7 14 6 0 13 -4 16 -10z
m-2687 -412 c7 -7 12 -20 12 -29 0 -14 -7 -16 -42 -12 -24 3 -44 7 -45 7 -2 1
4 12 13 24 17 24 43 29 62 10z m-2780 -1171 c3 -69 1 -72 -42 -79 -15 -2 -23
9 -39 55 -10 32 -21 56 -23 54 -2 -2 5 -30 16 -61 l19 -57 -21 3 c-16 2 -26
17 -41 61 -10 32 -17 61 -14 63 3 3 18 7 34 10 15 2 42 8 58 13 17 5 35 8 40
7 6 -2 11 -33 13 -69z"/>
<path d="M7335 9240 c3 -5 8 -10 11 -10 2 0 4 5 4 10 0 6 -5 10 -11 10 -5 0
-7 -4 -4 -10z"/>
<path d="M7530 8986 c0 -20 5 -36 10 -36 6 0 10 11 10 25 0 14 0 28 1 32 0 4
-4 9 -10 11 -7 2 -11 -11 -11 -32z"/>
<path d="M8181 8769 c-2 -45 11 -89 26 -89 10 0 11 4 3 19 -5 11 -14 37 -19
58 -7 30 -9 33 -10 12z"/>
<path d="M7360 8625 c0 -8 4 -15 8 -15 5 0 9 7 9 15 0 8 -4 15 -9 15 -4 0 -8
-7 -8 -15z"/>
<path d="M8112 8620 c0 -14 2 -19 5 -12 2 6 2 18 0 25 -3 6 -5 1 -5 -13z"/>
<path d="M7300 8620 c0 -5 5 -10 10 -10 6 0 10 5 10 10 0 6 -4 10 -10 10 -5 0
-10 -4 -10 -10z"/>
<path d="M7505 8620 c3 -5 12 -7 20 -3 21 7 19 13 -6 13 -11 0 -18 -4 -14 -10z"/>
<path d="M7438 8613 c6 -2 18 -2 25 0 6 3 1 5 -13 5 -14 0 -19 -2 -12 -5z"/>
<path d="M7301 8584 c0 -11 3 -14 6 -6 3 7 2 16 -1 19 -3 4 -6 -2 -5 -13z"/>
<path d="M8102 8565 c0 -16 2 -22 5 -12 2 9 2 23 0 30 -3 6 -5 -1 -5 -18z"/>
<path d="M2042 7645 c-11 -12 -10 -15 3 -15 8 0 15 -8 16 -17 0 -15 2 -15 8 2
8 20 4 45 -8 45 -3 -1 -12 -7 -19 -15z"/>
<path d="M1758 7643 c7 -3 16 -2 19 1 4 3 -2 6 -13 5 -11 0 -14 -3 -6 -6z"/>
<path d="M1900 7631 c0 -16 6 -17 50 -13 47 4 49 3 55 -24 14 -60 15 -44 6 49
-1 4 -18 6 -38 6 l-38 -2 35 -7 35 -7 -42 -2 c-24 0 -43 4 -43 9 0 6 -4 10
-10 10 -5 0 -10 -8 -10 -19z"/>
<path d="M1652 7623 c12 -3 18 -18 21 -51 l3 -47 2 47 c2 45 3 47 35 51 18 2
8 4 -23 4 -30 0 -47 -1 -38 -4z"/>
<path d="M1750 7593 c0 -43 5 -41 13 5 4 18 2 32 -3 32 -6 0 -10 -16 -10 -37z"/>
<path d="M1502 7560 c0 -14 2 -19 5 -12 2 6 2 18 0 25 -3 6 -5 1 -5 -13z"/>
<path d="M1591 7564 c0 -11 3 -14 6 -6 3 7 2 16 -1 19 -3 4 -6 -2 -5 -13z"/>
<path d="M5918 2903 c-5 -19 -13 -23 -46 -23 -23 0 -43 -3 -45 -7 -3 -5 16 -6
41 -4 l47 3 -80 -67 c-77 -65 -82 -71 -126 -174 -50 -116 -114 -351 -123 -446
-7 -82 -28 -616 -24 -620 2 -2 78 5 171 14 l167 17 0 -53 0 -53 -38 0 c-54 0
-186 17 -335 42 l-128 22 2 70 c1 48 -2 70 -10 69 -6 -2 -10 7 -8 20 1 14 -3
22 -13 22 -11 0 -14 -9 -12 -35 1 -19 7 -37 12 -38 6 -2 7 -8 4 -14 -4 -6 -10
-5 -15 3 -7 11 -9 10 -9 -3 0 -10 7 -18 15 -18 10 0 15 -11 15 -35 0 -33 -2
-35 -27 -29 -76 17 -103 25 -100 32 3 10 -6 14 -23 9 -47 -14 -101 -26 -142
-32 -51 -8 -57 -15 -33 -35 13 -11 14 -10 9 4 -4 11 -1 16 10 16 11 0 16 -9
16 -26 0 -14 -4 -22 -10 -19 -6 3 -7 -1 -4 -10 5 -13 1 -15 -22 -10 -16 3 -23
2 -16 -1 6 -3 12 -12 12 -19 0 -7 6 -15 13 -18 6 -3 -7 -3 -29 0 -60 7 -66
-14 -9 -28 53 -13 54 -29 3 -44 -58 -16 -58 -28 0 -23 28 3 52 1 52 -3 0 -5 9
-9 20 -9 11 0 20 -6 20 -12 0 -19 107 -85 179 -111 47 -17 61 -27 61 -42 0
-16 -6 -21 -26 -20 -39 0 -53 -28 -29 -56 20 -22 20 -22 0 -16 -11 3 -45 9
-76 12 l-55 7 -33 -72 c-22 -47 -34 -88 -35 -122 -1 -46 2 -53 33 -79 l35 -29
44 78 c122 212 126 217 159 214 20 -2 32 2 36 12 5 13 13 11 50 -14 51 -34
118 -64 167 -75 l34 -7 -42 49 c-23 28 -48 56 -57 63 -30 25 -14 30 93 30 153
0 253 20 384 75 14 6 22 -2 38 -40 21 -50 38 -58 20 -11 -15 39 -13 44 14 39
31 -6 53 28 36 55 -11 16 -11 16 -6 0 8 -26 -3 -48 -24 -48 -24 0 -36 18 -21
33 8 8 11 8 11 -1 0 -7 5 -12 11 -12 6 0 9 6 6 14 -19 48 249 195 441 241 39
10 72 22 72 26 0 5 5 9 10 9 6 0 10 -7 10 -15 0 -8 -4 -15 -10 -15 -19 0 -11
-59 10 -70 26 -14 60 3 60 30 0 19 -25 50 -41 50 -5 0 -9 8 -9 19 0 17 -4 17
-46 8 -37 -9 -47 -8 -55 4 -5 8 -9 9 -9 4 0 -6 5 -16 11 -22 12 -12 -62 -27
-221 -43 -150 -15 -260 -13 -260 5 0 8 -5 15 -10 15 -6 0 -13 -7 -16 -15 -5
-11 -22 -15 -64 -15 l-57 0 -7 48 c-3 26 -6 337 -6 692 l-1 645 35 1 c20 0 38
3 42 7 4 4 -11 7 -34 7 -34 0 -41 3 -44 23 l-3 22 -7 -22z m-546 -1195 c-7 -7
-12 -8 -12 -2 0 14 12 26 19 19 2 -3 -1 -11 -7 -17z m1338 -233 c0 -7 -7 -18
-15 -25 -12 -10 -18 -10 -30 0 -17 14 -20 50 -5 50 6 0 10 -9 10 -21 0 -11 4
-17 10 -14 6 4 8 16 4 28 -6 19 -5 20 10 8 9 -7 16 -19 16 -26z m-1276 -294
c4 -5 -3 -7 -14 -4 -23 6 -26 13 -6 13 8 0 17 -4 20 -9z"/>
<path d="M5540 2115 c-8 -9 -8 -15 -2 -15 12 0 26 19 19 26 -2 2 -10 -2 -17
-11z"/>
<path d="M5362 2098 c-14 -14 -16 -28 -3 -28 9 0 24 30 18 36 -2 2 -9 -2 -15
-8z"/>
<path d="M6833 1753 c-7 -3 -13 -20 -13 -39 0 -30 3 -34 25 -34 22 0 25 4 25
34 0 33 -13 47 -37 39z"/>
<path d="M6838 1583 c6 -2 18 -2 25 0 6 3 1 5 -13 5 -14 0 -19 -2 -12 -5z"/>
<path d="M6788 1573 c6 -2 18 -2 25 0 6 3 1 5 -13 5 -14 0 -19 -2 -12 -5z"/>
<path d="M6738 1563 c6 -2 18 -2 25 0 6 3 1 5 -13 5 -14 0 -19 -2 -12 -5z"/>
<path d="M6688 1553 c6 -2 18 -2 25 0 6 3 1 5 -13 5 -14 0 -19 -2 -12 -5z"/>
<path d="M6711 1144 c0 -11 3 -14 6 -6 3 7 2 16 -1 19 -3 4 -6 -2 -5 -13z"/>
<path d="M6611 1074 c0 -11 3 -14 6 -6 3 7 2 16 -1 19 -3 4 -6 -2 -5 -13z"/>
</g>
</svg>
