<?xml version="1.0" standalone="no"?>
<!DOCTYPE svg PUBLIC "-//W3C//DTD SVG 20010904//EN"
 "http://www.w3.org/TR/2001/REC-SVG-20010904/DTD/svg10.dtd">
<svg version="1.0" xmlns="http://www.w3.org/2000/svg"
 width="1195.000000pt" height="1280.000000pt" viewBox="0 0 1195.000000 1280.000000"
 preserveAspectRatio="xMidYMid meet">
<g transform="translate(0.000000,1280.000000) scale(0.100000,-0.100000)"
fill="#000000" stroke="none">
<path d="M4893 12303 c-80 -14 -132 -37 -204 -89 -42 -31 -119 -120 -144 -168
-5 -10 -18 -23 -27 -28 -10 -4 -25 -12 -34 -16 -9 -4 -17 -12 -17 -17 -1 -6
-9 -19 -20 -30 -24 -26 -50 -77 -72 -144 -9 -29 -24 -65 -31 -80 -8 -14 -14
-31 -14 -38 0 -10 -35 -88 -116 -258 -31 -67 -35 -71 -79 -83 -63 -17 -125
-84 -178 -192 -52 -108 -59 -179 -21 -212 18 -17 21 -24 12 -31 -9 -6 -8 -7 5
-3 9 3 29 0 43 -6 19 -9 30 -9 43 -1 13 8 22 8 29 1 6 -6 23 -1 51 16 22 14
42 26 43 26 2 0 3 -50 3 -110 0 -90 -3 -109 -14 -105 -7 3 -29 2 -49 -1 -30
-6 -32 -8 -16 -17 37 -18 94 -60 94 -67 0 -4 -37 -10 -82 -13 -96 -6 -262 -43
-397 -88 -74 -24 -104 -30 -145 -25 -43 4 -214 15 -280 17 -10 0 -26 -7 -35
-15 -9 -8 -41 -24 -71 -36 -117 -46 -260 -160 -260 -207 0 -62 78 -228 171
-366 33 -48 57 -92 54 -97 -3 -5 -36 -26 -73 -47 -37 -20 -76 -46 -88 -57 -11
-12 -47 -41 -79 -66 -72 -56 -175 -174 -175 -201 0 -11 9 -37 20 -59 l20 -38
-36 -31 c-19 -17 -39 -31 -44 -31 -27 0 -2 -46 73 -134 111 -132 105 -120 83
-158 -32 -55 -68 -88 -97 -88 -21 0 -37 -13 -70 -56 -24 -31 -71 -86 -104
-123 -33 -38 -88 -100 -122 -138 -34 -38 -82 -99 -106 -134 -43 -61 -180 -333
-253 -502 -37 -85 -50 -110 -167 -305 -51 -86 -90 -140 -109 -152 -36 -22 -58
-52 -69 -94 -4 -17 -15 -51 -24 -76 -12 -30 -15 -61 -11 -93 l5 -49 -153 -156
c-255 -262 -268 -278 -320 -402 -20 -46 -52 -110 -72 -144 -33 -54 -38 -70
-42 -145 -6 -111 20 -231 51 -231 7 0 20 -30 30 -67 28 -103 33 -113 61 -113
40 0 56 25 56 88 0 64 24 223 37 245 5 9 9 -33 10 -103 2 -92 7 -133 26 -191
21 -64 28 -74 49 -77 14 -2 33 5 43 14 15 16 16 31 10 139 -6 113 -1 195 14
195 3 0 5 -30 4 -67 -3 -76 22 -166 47 -171 9 -1 24 4 34 11 16 12 20 29 22
103 4 148 78 320 202 471 30 35 38 40 53 30 14 -9 26 -7 53 5 47 23 62 69 42
127 -15 45 -14 49 86 259 30 63 66 102 94 102 15 0 50 24 100 70 l77 70 31
-19 c59 -36 89 -36 132 1 61 51 319 343 387 438 33 47 88 119 121 161 209 262
293 381 302 428 6 29 75 103 107 114 20 7 22 -4 5 -21 -9 -9 -9 -15 1 -24 10
-11 21 -4 56 33 48 51 75 67 75 44 0 -10 10 -15 29 -15 21 0 38 10 61 37 27
31 31 42 27 74 -3 26 0 42 9 50 8 7 13 17 11 23 -8 20 31 82 80 126 26 25 97
97 158 160 60 63 115 119 123 123 8 6 20 0 33 -17 23 -29 54 -33 79 -11 16 14
17 12 12 -33 -4 -44 -1 -52 29 -86 28 -33 33 -46 34 -92 1 -45 5 -58 30 -84
16 -16 34 -30 41 -30 16 0 31 -43 39 -108 4 -33 16 -69 32 -94 18 -26 27 -52
26 -76 -1 -21 3 -41 7 -47 5 -5 9 -14 10 -20 2 -24 35 -85 44 -85 6 0 20 -19
31 -42 32 -67 107 -142 183 -181 54 -29 78 -49 106 -89 21 -32 36 -65 36 -82
0 -47 40 -176 71 -231 16 -29 29 -60 29 -70 0 -10 4 -32 10 -49 37 -114 49
-171 38 -183 -6 -8 -8 -33 -4 -67 9 -66 -3 -92 -44 -101 -21 -5 -39 -19 -55
-45 -46 -73 -85 -110 -116 -110 -28 0 -50 -24 -42 -46 2 -6 -42 -55 -98 -110
-209 -204 -256 -284 -395 -674 -108 -304 -195 -508 -229 -536 -23 -18 -25 -25
-19 -63 4 -24 22 -64 40 -91 28 -41 32 -53 27 -91 -3 -24 -14 -53 -24 -65 -11
-11 -19 -31 -19 -45 0 -13 -3 -63 -6 -111 l-6 -87 76 -80 c42 -44 83 -96 91
-115 24 -57 29 -182 11 -259 -24 -101 -10 -117 95 -117 38 0 69 -6 84 -16 20
-13 30 -14 59 -4 30 10 39 8 73 -12 21 -13 51 -30 66 -38 16 -8 77 -52 135
-99 59 -47 157 -124 218 -173 61 -48 125 -105 142 -127 l31 -39 -32 -42 c-55
-72 -97 -134 -97 -146 0 -10 -306 -163 -427 -214 -48 -20 -69 -42 -58 -59 9
-15 -51 -33 -130 -38 -90 -6 -115 -15 -115 -42 0 -16 11 -20 66 -26 36 -4 64
-10 62 -13 -11 -24 -61 -130 -69 -144 -5 -10 -10 -32 -10 -50 l-1 -33 -7 30
c-4 17 -3 36 3 44 6 8 10 22 8 33 -2 10 2 18 7 18 6 0 11 5 11 12 0 6 -7 5
-18 -5 -14 -13 -21 -14 -30 -5 -14 14 -16 3 -3 -21 7 -13 6 -18 -4 -18 -8 0
-12 4 -9 9 3 4 3 8 0 8 -3 0 -10 -9 -16 -20 -14 -26 -3 -45 16 -29 22 18 16 1
-7 -24 -17 -17 -21 -18 -16 -5 4 11 2 17 -6 15 -7 -1 -11 5 -9 14 1 9 -4 19
-12 22 -12 5 -13 1 -6 -18 8 -21 7 -25 -10 -25 -11 0 -20 5 -20 10 0 6 -6 5
-14 -2 -10 -9 -11 -15 -2 -20 8 -6 7 -11 -4 -17 -10 -7 -17 -6 -23 2 -5 7 -5
1 -1 -13 3 -14 3 -22 -1 -18 -10 9 -40 -30 -31 -39 3 -4 6 -1 6 6 0 7 5 9 12
5 7 -4 8 -3 4 4 -4 7 -2 12 3 12 6 0 11 -8 11 -17 0 -14 2 -15 9 -4 5 7 6 22
4 32 -3 11 0 19 7 19 7 0 10 -7 6 -15 -3 -8 -2 -15 3 -15 4 0 8 -7 8 -15 0 -8
-4 -12 -8 -9 -4 2 -9 -6 -11 -18 -2 -17 -9 -22 -23 -19 -20 3 -20 3 0 -20 11
-12 14 -19 8 -15 -7 4 -13 3 -13 -2 0 -5 9 -12 20 -15 14 -4 18 -10 14 -22 -6
-14 -3 -16 16 -10 14 4 20 3 16 -3 -3 -5 1 -12 9 -15 8 -4 13 -1 11 6 -1 7 -1
9 1 6 2 -4 12 -5 21 -2 12 3 21 -6 30 -27 8 -16 18 -30 23 -30 6 0 7 6 3 13
-6 9 -5 9 7 0 12 -10 18 -10 29 0 12 10 12 9 2 -4 -7 -9 -9 -25 -5 -35 6 -16
7 -16 12 -1 6 16 8 16 26 2 11 -9 14 -14 7 -10 -15 8 -44 -13 -37 -25 3 -5 0
-12 -7 -16 -8 -5 -6 -10 8 -15 17 -7 17 -8 2 -8 -18 -1 -24 -16 -10 -24 4 -2
2 -2 -5 -1 -16 4 -25 -24 -13 -46 8 -15 5 -20 -20 -29 -17 -5 -30 -13 -30 -16
0 -3 4 -4 9 -1 5 4 16 3 25 0 13 -5 14 -9 5 -20 -9 -11 -8 -14 4 -14 22 0 32
-19 18 -33 -9 -9 -11 -8 -5 6 6 15 3 18 -17 15 -18 -2 -23 -8 -21 -25 2 -13
-2 -23 -8 -23 -6 0 -9 4 -6 9 4 5 0 11 -6 14 -9 3 -7 11 7 28 11 13 16 21 11
17 -5 -4 -15 -3 -22 3 -10 8 -12 2 -11 -27 1 -24 -3 -39 -12 -42 -8 -3 -11 0
-7 7 4 6 2 11 -4 11 -7 0 -10 -6 -7 -12 2 -7 11 -13 20 -13 21 0 29 -10 32
-40 3 -26 -9 -42 -19 -26 -4 5 -2 12 4 16 5 3 10 12 10 18 0 7 -7 4 -15 -7 -8
-10 -20 -16 -28 -13 -14 5 -17 -26 -4 -39 4 -4 1 -14 -6 -22 -9 -13 -9 -14 1
-8 8 5 12 0 12 -16 0 -19 -2 -20 -11 -8 -8 12 -9 10 -4 -9 5 -17 4 -22 -5 -16
-9 6 -11 4 -5 -5 6 -10 11 -10 20 3 7 9 15 13 20 9 4 -4 4 4 0 18 -5 14 -8 33
-7 43 0 9 -4 17 -10 17 -6 0 -9 2 -6 5 3 3 16 1 29 -4 13 -5 18 -10 12 -10 -7
-1 -13 -5 -13 -10 0 -5 10 -7 23 -4 21 4 22 4 3 -11 -17 -14 -18 -16 -3 -16
15 0 54 56 49 72 -1 4 5 5 14 1 8 -3 13 -12 10 -20 -3 -8 -6 -20 -6 -26 0 -8
-4 -7 -9 2 -7 11 -11 10 -20 -6 -5 -11 -7 -23 -4 -27 3 -3 -1 -6 -9 -6 -8 0
-27 -15 -42 -32 -28 -35 -31 -35 -58 -12 -12 12 -18 12 -24 3 -4 -8 -3 -10 4
-5 7 4 13 2 13 -3 3 -26 4 -30 11 -37 4 -4 10 1 14 10 3 9 10 14 14 11 5 -3
11 -1 15 5 9 15 19 12 33 -11 12 -18 11 -20 -7 -17 -11 2 -19 -1 -18 -7 2 -10
6 -11 35 -14 6 0 12 -8 12 -16 0 -9 9 -15 23 -14 16 1 18 2 5 6 -10 2 -18 8
-18 12 0 9 42 7 58 -3 8 -5 12 0 12 14 0 12 5 18 10 15 7 -4 7 -13 0 -26 -6
-10 -8 -19 -5 -19 3 0 -2 -11 -11 -25 -21 -32 -28 -27 -14 9 6 18 6 25 0 21
-6 -3 -10 -13 -10 -21 0 -8 -4 -14 -8 -14 -5 0 -14 -11 -20 -25 -7 -15 -8 -25
-2 -25 6 0 10 5 10 10 0 6 5 10 12 10 6 0 27 12 47 27 21 16 30 19 21 9 -14
-17 -13 -18 7 -12 12 4 24 2 28 -4 3 -5 3 -10 -2 -11 -30 -2 -61 -9 -79 -16
-18 -7 -19 -11 -7 -33 l13 -25 0 23 c0 19 4 22 21 17 13 -4 19 -3 16 2 -4 5 0
10 8 10 8 0 15 -4 15 -8 0 -4 16 -5 34 -2 31 5 35 3 33 -16 -1 -11 -5 -21 -10
-21 -5 0 -7 6 -4 13 3 8 -3 13 -14 13 -12 0 -15 -4 -9 -10 15 -15 12 -30 -2
-19 -7 6 -21 10 -30 10 -21 0 -18 -39 3 -45 11 -3 11 -1 -1 7 -11 8 -12 11 -2
11 7 0 10 5 7 10 -3 6 -1 10 4 10 6 0 12 -4 12 -10 5 -38 2 -45 -16 -43 -10 1
-28 -6 -39 -14 -16 -12 -17 -14 -3 -10 19 7 24 -9 5 -16 -10 -4 -10 -6 0 -6
10 -1 10 -5 0 -21 -16 -25 -31 -26 -24 -2 4 12 1 19 -7 19 -9 0 -12 -9 -9 -24
5 -28 28 -30 42 -3 15 28 44 27 35 -1 -5 -15 -4 -19 4 -15 16 10 14 36 -4 42
-17 7 -21 34 -5 34 18 0 43 -51 43 -88 0 -20 4 -40 10 -43 16 -11 -11 -48 -33
-44 -11 2 -20 -2 -21 -8 0 -7 -2 -23 -3 -36 -3 -22 -2 -23 11 -6 7 11 13 25
13 32 0 7 6 10 15 7 9 -4 15 -11 14 -18 -3 -17 12 -46 23 -46 7 0 6 5 -1 13
-8 10 -7 17 1 25 9 9 9 15 -1 24 -11 11 -12 10 -6 -1 6 -10 4 -12 -4 -7 -13 9
-8 18 12 23 7 1 19 4 27 5 8 2 20 7 25 10 6 4 17 3 25 -3 8 -5 11 -9 6 -9 -6
0 -2 -6 9 -13 12 -10 14 -16 7 -21 -7 -4 -12 -3 -12 2 0 14 -38 22 -44 8 -3
-7 -5 -7 -5 2 -1 6 -6 12 -12 12 -8 0 -8 -4 0 -14 8 -9 10 -32 7 -61 -4 -30
-2 -44 4 -40 7 4 9 -3 6 -19 -4 -25 5 -26 39 -7 19 10 50 8 63 -6 8 -7 9 -13
3 -13 -6 0 -11 -5 -11 -11 0 -5 5 -7 10 -4 6 4 18 1 26 -6 8 -7 14 -8 12 -3
-4 11 4 14 42 14 22 0 28 -4 24 -15 -5 -13 -9 -13 -21 -3 -13 10 -19 8 -37
-13 -26 -32 -53 -27 -61 12 -4 16 -10 29 -15 29 -9 0 -1 -40 11 -56 5 -6 6
-14 2 -17 -3 -4 -1 -7 6 -7 7 0 9 -5 6 -10 -4 -6 -3 -10 2 -9 4 1 15 1 23 0
13 -1 13 -2 0 -11 -20 -13 -4 -13 21 0 10 6 19 16 19 23 0 8 -3 8 -9 -2 -7
-10 -13 -11 -30 -2 -23 13 -29 26 -7 18 7 -3 18 -1 23 4 5 5 20 2 37 -6 16 -9
31 -13 34 -10 3 3 0 5 -7 5 -7 0 -9 5 -5 12 4 7 3 8 -4 4 -7 -4 -12 -3 -12 3
0 6 -6 9 -12 7 -7 -1 -10 -1 -5 1 4 3 4 9 1 15 -7 11 37 -13 49 -27 5 -6 7 -3
3 8 -6 19 10 24 17 5 4 -10 8 -10 15 0 5 8 18 12 28 10 23 -4 32 -38 11 -38
-9 0 -17 -6 -20 -12 -2 -7 -8 -10 -12 -6 -4 4 3 16 16 27 27 23 22 26 -16 9
-27 -12 -32 -23 -15 -33 6 -4 8 -10 5 -15 -3 -4 6 -7 19 -6 13 0 22 4 20 8 -2
4 0 9 6 13 6 3 10 -4 10 -17 0 -13 7 -32 16 -43 12 -17 16 -18 24 -5 11 17 4
30 -16 30 -8 0 -14 7 -14 15 0 8 5 15 10 15 6 0 10 7 10 15 0 8 7 15 16 15 9
0 12 5 8 12 -4 7 -3 8 4 4 7 -4 12 -2 12 3 0 6 5 11 11 11 6 0 -3 -16 -20 -36
-17 -19 -29 -40 -25 -46 4 -7 10 -5 16 3 7 11 8 10 4 -4 -4 -11 -2 -16 5 -11
6 3 9 14 6 24 -5 21 22 32 46 19 18 -11 32 5 21 23 -4 6 -3 8 4 4 5 -3 12 0
15 6 2 7 4 1 3 -14 0 -14 -4 -24 -8 -21 -8 4 -12 -12 -8 -36 1 -13 -1 -13 -14
-2 -9 7 -14 17 -11 21 6 10 -21 21 -29 13 -9 -9 -7 -43 2 -44 4 0 20 -3 36 -5
25 -4 28 -3 23 16 -5 20 -4 21 12 6 16 -15 19 -15 36 4 13 14 14 20 5 20 -7 0
-11 3 -7 6 3 3 11 3 17 -1 8 -5 7 -14 -4 -31 -21 -31 -20 -37 4 -31 11 3 20 0
20 -6 0 -6 6 -3 13 8 10 12 16 15 21 6 4 -6 0 -18 -8 -26 -17 -18 -64 -11 -72
10 -3 8 -22 12 -49 11 -23 0 -41 -4 -38 -8 2 -5 -3 -8 -11 -8 -20 0 -20 -19
-1 -44 14 -18 19 -13 17 15 0 3 9 11 20 18 19 12 20 11 14 -13 -4 -15 -2 -26
4 -26 20 0 10 -19 -12 -23 l-23 -4 23 -2 c24 -1 31 -21 8 -21 -8 0 -17 -4 -20
-8 -2 -4 4 -8 15 -8 22 0 33 28 25 69 -2 15 0 27 5 27 5 0 9 -5 9 -11 0 -26
52 -50 65 -29 8 13 35 13 35 0 0 -5 -8 -10 -17 -10 -15 0 -14 -2 2 -14 11 -8
27 -12 37 -11 10 2 18 0 18 -4 0 -4 6 -8 13 -8 6 0 21 -4 32 -9 19 -7 19 -7 3
9 -9 9 -24 17 -33 17 -9 0 -13 5 -10 11 4 6 13 8 21 5 8 -3 14 -1 14 3 0 5 -6
12 -12 14 -7 3 -3 6 10 6 12 1 25 1 29 2 4 0 9 -4 11 -10 2 -6 -3 -9 -11 -5
-8 3 -17 -1 -20 -9 -6 -16 24 -30 55 -28 9 1 19 -2 22 -8 4 -5 -4 -7 -16 -4
-19 4 -20 3 -8 -6 9 -7 11 -11 3 -11 -9 0 -8 -9 2 -34 11 -27 12 -36 2 -40 -6
-3 -3 -4 8 -3 11 1 21 -5 23 -15 2 -10 -1 -18 -7 -18 -6 0 -8 6 -5 14 3 9 -1
13 -13 13 -14 -2 -17 4 -15 22 4 23 3 23 -13 7 -10 -9 -20 -14 -24 -11 -3 4 2
11 12 16 9 6 17 17 17 25 0 8 -4 12 -10 9 -5 -3 -10 -1 -10 4 0 6 5 11 11 11
5 0 7 5 4 10 -5 8 -12 7 -22 -1 -11 -10 -19 -10 -34 -1 -11 7 -19 8 -19 2 0
-5 5 -10 11 -10 6 0 9 -10 7 -22 -2 -19 -8 -22 -30 -20 -15 2 -35 -2 -45 -8
-15 -9 -15 -11 -1 -6 27 8 30 -6 6 -33 -19 -21 -20 -23 -3 -11 26 19 35 32 29
42 -3 4 0 8 5 8 10 0 12 -6 15 -42 1 -7 -7 -12 -16 -10 -17 3 -45 -35 -34 -46
3 -3 6 -1 6 4 0 5 4 15 9 22 7 11 14 11 42 -4 24 -12 31 -13 23 -3 -15 18 -24
69 -13 69 5 0 17 -10 27 -21 34 -42 45 -50 58 -45 8 3 14 1 14 -4 0 -6 8 -10
18 -10 14 0 15 -2 2 -10 -12 -7 -9 -13 13 -30 15 -12 27 -28 27 -36 0 -9 10
-14 27 -14 25 0 26 -1 8 -13 -10 -8 -15 -19 -11 -26 5 -7 0 -21 -10 -32 -20
-23 -2 -26 20 -3 13 12 16 12 16 2 0 -8 -5 -19 -11 -25 -14 -14 25 -38 47 -29
15 6 18 -3 6 -20 -10 -16 -41 -9 -58 13 -7 10 -14 15 -14 11 0 -11 47 -60 57
-58 4 1 12 9 18 18 8 14 11 12 17 -13 6 -26 7 -25 3 7 -4 36 6 50 20 28 11
-18 23 -1 18 25 -3 13 -9 22 -14 19 -5 -3 -6 2 -3 10 7 19 32 28 40 14 4 -7 3
-8 -5 -4 -8 5 -11 -2 -9 -23 1 -17 6 -31 11 -31 4 0 6 -4 3 -8 -3 -5 -1 -22 4
-38 7 -24 12 -23 9 2 0 4 5 11 13 15 16 11 38 12 22 1 -6 -4 -18 -20 -26 -37
-17 -33 -9 -75 14 -75 9 0 9 3 -2 11 -11 7 -12 12 -3 15 7 3 10 11 7 18 -3 8
2 16 10 19 9 4 16 12 16 18 0 8 -6 7 -17 -2 -16 -13 -17 -12 -4 4 11 13 17 15
28 6 11 -10 10 -14 -6 -25 -14 -10 -18 -22 -15 -40 3 -14 -1 -33 -8 -43 -9
-11 -6 -10 10 3 17 15 19 22 11 33 -9 10 -8 13 0 13 7 0 10 4 7 9 -3 5 1 12 9
15 13 4 14 2 5 -14 -13 -25 -5 -40 21 -40 14 0 19 7 19 24 0 27 15 43 24 27 4
-5 2 -12 -4 -16 -14 -9 -13 -42 3 -49 8 -4 9 -8 1 -11 -6 -3 -9 -17 -6 -30 6
-32 -15 -33 -28 -2 -6 15 -9 17 -9 5 -2 -31 10 -46 30 -41 10 3 19 12 19 19 0
8 5 14 11 14 5 0 7 5 3 12 -4 7 -3 8 4 4 15 -9 16 -36 2 -36 -5 0 -10 -4 -10
-10 0 -5 6 -10 14 -10 17 0 25 -11 31 -41 7 -35 24 -50 46 -38 11 5 19 6 18 2
-3 -20 2 -34 11 -28 5 3 10 2 10 -4 0 -6 7 -8 15 -5 11 4 15 -1 16 -17 1 -17
3 -19 6 -6 6 23 23 22 23 -3 0 -11 6 -20 13 -20 9 0 8 -3 -2 -9 -8 -5 -9 -11
-3 -15 11 -6 22 15 22 43 0 10 7 18 15 18 9 0 11 -4 6 -11 -13 -16 -17 -51 -6
-51 5 0 8 7 7 17 -4 21 18 34 29 17 4 -7 6 -16 3 -18 -3 -3 -9 1 -14 9 -8 13
-10 12 -10 -2 0 -9 5 -18 11 -20 8 -3 6 -9 -4 -20 -15 -14 -14 -16 7 -14 13 0
23 3 21 6 -2 3 0 12 6 20 7 13 9 12 9 -2 0 -9 6 -19 13 -21 9 -4 9 -8 -1 -15
-11 -7 -11 -10 3 -15 9 -4 14 -3 10 3 -3 6 1 13 10 16 10 4 14 13 10 23 -5 13
-4 14 7 3 10 -10 10 -16 0 -33 -10 -16 -10 -20 0 -18 23 5 59 -12 52 -24 -3
-7 2 -3 10 7 12 15 16 16 16 5 0 -8 -6 -21 -12 -29 -11 -12 -10 -12 5 0 15 11
20 11 27 1 5 -9 9 -10 14 -2 4 6 12 9 17 5 5 -3 7 -9 4 -14 -3 -5 3 -7 14 -5
15 3 18 -1 14 -12 -5 -13 -3 -13 14 -5 11 6 23 8 27 4 4 -3 11 0 16 8 8 12 10
10 10 -8 0 -22 1 -22 17 -7 15 16 17 16 27 -2 14 -24 77 -28 69 -4 -3 10 4 7
16 -8 19 -21 22 -21 28 -6 6 17 7 17 20 -1 12 -16 15 -17 23 -4 8 13 10 12 10
-2 0 -20 30 -25 30 -5 0 8 2 9 8 1 4 -7 30 -12 57 -12 54 -1 74 -4 91 -15 7
-4 47 -9 90 -12 44 -2 79 -5 79 -5 0 -1 38 -1 85 -2 113 0 271 12 293 24 11 6
17 5 17 -3 0 -8 4 -8 13 -1 6 5 28 12 47 15 77 10 244 64 302 97 10 6 24 10
32 10 8 0 16 5 18 10 2 6 17 12 33 13 17 1 38 11 48 22 10 11 16 14 12 8 -9
-18 -2 -16 23 6 12 10 19 21 15 25 -3 3 -1 6 5 6 7 0 12 -5 12 -12 0 -6 6 -4
13 6 7 9 22 18 35 19 12 0 22 8 22 15 0 8 6 12 15 8 8 -3 15 -1 15 5 0 6 9 7
22 3 20 -6 21 -5 9 10 -12 14 -11 16 6 16 10 0 25 6 32 13 11 10 13 9 8 -4 -4
-13 -1 -16 15 -11 13 3 16 7 8 12 -9 6 -9 9 -1 15 7 4 18 2 26 -5 10 -8 15 -7
22 5 7 13 15 14 36 6 21 -8 25 -8 20 4 -3 10 1 15 12 15 9 0 14 4 11 9 -9 14
20 7 40 -9 16 -14 16 -13 3 8 -12 20 -12 24 1 32 10 6 16 6 18 -1 3 -6 9 -5
18 2 11 9 18 9 26 1 22 -22 30 -12 13 14 -9 15 -12 23 -6 20 6 -4 11 -1 11 6
0 10 2 10 9 -1 5 -7 28 -16 52 -18 37 -5 42 -3 31 9 -12 15 1 38 22 38 5 0 1
-7 -10 -15 -18 -14 -18 -14 4 -8 12 3 22 9 22 14 0 5 5 9 11 9 6 0 8 -9 4 -22
-5 -16 -4 -20 3 -13 5 6 12 19 14 29 1 11 9 21 16 22 7 1 8 0 2 -3 -5 -2 -10
-9 -10 -14 0 -6 10 -5 23 2 18 9 20 9 10 -2 -7 -7 -13 -17 -13 -22 0 -13 29
19 45 50 14 26 15 26 15 6 0 -13 5 -23 11 -23 5 0 7 5 3 12 -4 6 -3 8 4 4 6
-3 15 2 21 11 14 23 14 7 1 -18 -6 -10 -17 -19 -25 -19 -8 0 -15 -4 -15 -10 0
-14 12 -12 38 6 12 8 22 21 22 29 0 13 28 27 62 30 10 1 28 10 40 21 12 10 18
14 15 8 -4 -7 3 -14 16 -18 31 -8 37 -7 37 4 0 6 -8 10 -17 10 -19 0 -9 13 12
16 8 1 13 -2 9 -7 -3 -5 0 -9 5 -9 6 0 11 4 11 9 0 5 10 11 23 13 17 3 23 0
24 -14 1 -9 -2 -20 -8 -23 -5 -4 -9 1 -9 9 0 20 -14 20 -30 1 -13 -15 -5 -39
11 -29 5 3 6 11 2 17 -5 9 -3 9 8 0 12 -10 21 -8 46 7 25 15 33 16 44 5 12
-11 16 -11 28 1 11 13 10 15 -5 12 -22 -3 -31 31 -16 58 8 15 10 15 15 0 4
-10 3 -15 -3 -11 -6 3 -10 1 -10 -4 0 -12 11 -14 34 -5 8 3 12 12 9 20 -4 10
0 12 12 8 9 -4 20 -1 25 5 5 9 9 8 13 -4 5 -10 3 -14 -5 -9 -7 4 -8 3 -4 -4
10 -17 26 -15 26 3 0 8 5 15 11 15 5 0 7 -5 3 -12 -4 -7 -3 -8 5 -4 6 4 8 12
5 18 -5 8 4 9 27 5 19 -4 30 -4 24 1 -5 4 -11 14 -13 22 -1 8 9 2 23 -15 17
-20 28 -26 33 -19 4 6 22 15 40 19 18 3 30 11 27 16 -6 9 -32 8 -50 -2 -15 -8
-35 -5 -37 6 -2 5 16 10 40 11 28 1 47 7 55 18 12 16 14 16 26 2 15 -17 46
-22 36 -6 -4 6 -11 8 -16 5 -5 -4 -9 0 -9 8 0 8 -10 21 -21 29 -21 14 -21 14
-1 14 11 0 19 -3 17 -7 -3 -3 5 -15 16 -25 17 -15 22 -16 29 -4 6 9 4 20 -6
31 -7 8 -14 19 -14 24 0 4 9 -2 20 -15 18 -21 77 -40 66 -21 -3 4 -1 13 5 21
7 13 9 12 9 -2 0 -10 5 -18 11 -18 5 0 7 -4 4 -10 -3 -5 -1 -10 5 -10 7 0 9 8
5 20 -4 11 -2 20 4 20 6 0 11 -6 11 -12 1 -8 6 -6 14 5 7 9 22 17 32 18 11 0
13 3 7 6 -7 2 -13 12 -13 20 0 12 3 13 14 4 11 -9 15 -9 19 1 4 10 8 10 16 -2
5 -8 7 -18 4 -24 -3 -5 -1 -6 5 -2 16 10 15 -7 0 -23 -11 -11 -9 -12 8 -3 11
6 27 19 35 29 12 16 12 17 -2 6 -25 -20 -32 -2 -8 23 19 20 66 24 54 3 -3 -4
-13 -5 -23 -2 -14 5 -15 3 -5 -7 10 -11 16 -11 31 3 10 9 27 17 38 17 14 0 16
2 5 9 -20 13 5 24 28 12 15 -8 20 -7 25 6 4 9 4 18 1 21 -3 3 -5 0 -5 -7 0 -9
-6 -11 -17 -6 -10 4 -26 7 -37 7 -16 -1 -15 3 9 28 16 17 31 28 34 25 2 -3 -4
-12 -15 -19 -10 -8 -15 -18 -11 -22 4 -5 11 -4 15 2 5 6 18 6 41 -2 30 -10 32
-12 16 -21 -12 -7 -14 -13 -6 -17 6 -4 11 -2 11 4 0 7 7 10 15 7 12 -5 12 -2
2 20 -9 21 -9 27 1 31 7 2 10 8 6 13 -3 5 0 9 5 9 6 0 11 -6 11 -12 0 -9 3 -9
9 1 5 8 7 21 4 29 -3 8 10 -2 30 -23 21 -21 38 -32 42 -26 3 6 0 11 -7 11 -11
0 -10 2 0 9 11 7 10 9 -3 14 -9 4 -13 3 -10 -3 3 -6 2 -10 -4 -10 -5 0 -12 4
-15 9 -8 12 23 23 37 14 7 -4 6 1 -2 11 -8 9 -20 15 -27 12 -9 -3 -11 0 -7 11
5 12 3 14 -8 8 -12 -7 -12 -6 -1 6 12 12 16 11 29 -9 16 -22 40 -32 27 -10 -5
8 -2 9 12 4 42 -18 53 -17 73 3 12 12 27 19 34 15 7 -4 3 2 -7 14 -12 14 -15
22 -6 22 7 0 10 7 6 16 -3 8 -2 12 4 9 6 -3 10 -1 10 5 0 7 6 8 18 1 13 -7 23
-6 31 2 7 7 5 -4 -4 -27 -9 -21 -14 -41 -11 -44 3 -3 6 0 6 7 0 7 5 9 10 6 6
-3 10 5 10 18 0 26 23 42 42 30 7 -3 8 -1 4 6 -15 23 -17 61 -4 56 18 -7 15
54 -3 67 -11 8 -11 9 3 5 9 -3 19 -3 21 1 2 4 2 1 0 -7 -2 -9 2 -11 13 -7 8 3
19 6 22 6 4 0 1 4 -7 9 -9 6 -10 11 -2 15 6 4 11 2 11 -4 0 -6 6 -8 13 -5 6 4
1 -3 -12 -14 -18 -17 -20 -22 -8 -27 20 -7 10 -38 -16 -50 -12 -6 -17 -9 -10
-7 7 1 19 -4 27 -12 12 -13 15 -12 20 1 3 8 2 12 -4 9 -15 -9 -12 9 6 31 8 10
12 12 8 4 -6 -13 -5 -13 7 -2 12 11 11 15 -4 27 -12 8 -14 15 -8 20 6 3 11 1
11 -5 0 -6 5 -8 10 -5 6 4 9 1 8 -7 -2 -8 7 -13 22 -14 15 0 24 -5 22 -13 -1
-7 2 -10 8 -6 7 5 8 11 1 19 -7 8 -4 16 10 25 12 7 18 18 15 27 -3 9 3 19 17
25 13 6 23 19 24 29 1 15 -4 17 -30 14 -18 -3 -38 -7 -44 -9 -21 -7 -15 21 9
41 14 12 18 13 10 3 -6 -9 -9 -19 -5 -22 13 -13 23 -7 23 15 0 12 3 18 8 14 4
-4 7 -12 7 -17 0 -5 3 -9 8 -9 4 0 10 0 13 0 4 0 -1 11 -10 25 -18 28 -21 39
-6 30 6 -3 10 0 10 9 0 8 5 16 11 18 9 3 9 10 0 28 -11 24 -11 24 3 6 12 -14
16 -16 16 -5 0 11 2 11 9 1 6 -10 10 -10 20 2 7 8 10 19 7 25 -4 5 3 7 15 4
16 -5 18 -8 7 -15 -9 -6 -6 -7 10 -3 17 5 22 2 22 -12 0 -14 2 -15 9 -4 5 8
14 10 21 6 8 -5 11 -3 8 6 -3 8 -12 13 -21 11 -9 -1 -21 7 -27 18 -6 11 -16
20 -23 20 -8 0 -7 -4 3 -11 12 -9 12 -10 -3 -5 -10 3 -24 6 -30 7 -7 0 -2 4
11 10 15 5 21 14 16 21 -6 10 -4 11 7 1 7 -7 20 -13 28 -13 11 0 10 4 -5 15
-15 11 -16 14 -4 15 9 0 21 -5 28 -12 9 -9 12 -9 12 0 0 7 -4 12 -10 12 -5 0
-8 12 -6 28 2 15 1 21 -1 14 -3 -7 -8 -10 -13 -7 -5 3 -14 -3 -19 -14 -11 -19
-53 -23 -69 -6 -4 4 2 5 14 1 11 -3 29 0 40 8 18 14 18 15 -9 21 -15 4 -27 13
-27 20 0 11 5 11 27 0 25 -13 28 -13 35 5 4 11 10 20 13 20 4 0 4 -4 0 -9 -3
-6 4 -8 16 -6 25 5 44 28 28 34 -6 2 -15 -2 -19 -9 -6 -9 -9 -9 -12 1 -4 11
-10 10 -27 -5 -11 -11 -24 -16 -28 -13 -3 4 -1 7 6 7 7 0 10 4 7 9 -6 9 25 23
62 26 22 2 26 -4 23 -40 -1 -15 0 -17 7 -7 5 8 12 13 16 13 3 -1 16 -1 29 0
21 1 21 1 -2 8 -28 8 -40 31 -16 31 9 0 13 -4 10 -10 -3 -5 -1 -10 4 -10 20 0
11 28 -9 33 -11 3 -19 11 -18 18 2 7 -1 13 -7 14 -31 2 -46 38 -17 41 22 3 23
4 12 24 -11 20 -10 21 30 24 8 1 17 12 21 26 6 23 13 11 10 -16 -1 -7 6 -14
14 -18 9 -3 13 -11 9 -17 -4 -7 -3 -9 4 -5 5 3 13 0 15 -6 4 -10 6 -10 6 0 1
7 6 10 12 6 7 -4 10 -1 7 7 -3 8 -13 14 -24 14 -10 0 -19 5 -19 10 0 6 -4 15
-8 22 -4 7 1 18 14 26 20 14 20 16 2 26 -10 6 -13 11 -7 11 6 0 17 -7 25 -16
10 -12 10 -20 1 -35 -14 -22 -15 -29 -4 -29 5 0 14 10 21 23 9 18 11 18 6 2
l-5 -20 16 20 c14 16 16 17 11 3 -9 -25 0 -22 14 3 6 12 7 19 2 16 -5 -4 -11
9 -12 28 -4 70 -6 85 -12 85 -4 0 -9 9 -12 20 -3 11 -2 20 3 20 4 0 10 -10 14
-22 4 -17 8 -20 15 -10 6 11 10 10 15 -3 9 -24 7 -32 -3 -16 -8 13 -9 -25 -2
-61 2 -14 18 -8 18 7 0 8 -4 12 -9 9 -4 -3 -8 -1 -8 5 0 5 5 13 11 17 6 3 9
17 6 30 -2 13 0 21 5 17 6 -3 7 -18 4 -34 -3 -17 -1 -29 5 -29 6 0 7 -4 4 -10
-7 -11 36 -24 62 -17 10 3 5 5 -13 6 -22 1 -33 7 -37 21 -4 18 -3 18 17 5 23
-15 36 -11 36 9 0 6 -4 6 -8 -2 -7 -9 -14 -8 -32 8 -13 11 -17 20 -10 20 10 0
9 4 -1 18 -13 15 -12 16 3 3 10 -7 16 -17 13 -21 -3 -5 -1 -11 4 -15 16 -9 34
34 21 49 -8 10 -7 15 5 20 9 3 13 2 10 -3 -3 -5 -1 -12 4 -15 5 -4 12 -2 16 4
4 6 11 8 16 5 5 -4 6 2 2 12 -3 10 -3 15 1 11 10 -8 56 31 56 48 0 6 7 15 16
18 14 5 15 4 4 -9 -7 -9 -10 -18 -7 -22 4 -3 0 -11 -9 -18 -14 -10 -14 -12 0
-24 14 -12 16 -12 11 2 -4 8 -2 18 4 21 6 4 8 13 4 21 -3 8 0 15 6 15 6 0 11
-5 11 -11 0 -6 5 -7 13 -2 6 4 22 6 34 5 11 -2 24 2 28 8 6 9 -4 11 -34 6 -46
-6 -51 2 -20 30 20 18 22 18 34 1 14 -20 26 -22 23 -4 -2 6 3 11 10 9 6 -1 11
4 10 10 -2 7 4 12 13 10 9 -1 16 4 16 12 0 8 -3 15 -6 14 -3 0 -15 0 -25 1
-35 2 -7 15 37 17 60 2 65 4 40 14 -13 5 -23 14 -23 20 0 12 12 13 25 2 6 -4
9 -5 8 -3 -2 2 2 10 9 18 8 10 8 12 -3 8 -10 -4 -14 2 -14 19 0 16 5 22 15 21
8 -2 17 -4 20 -4 3 -1 -2 -6 -10 -12 -12 -8 -10 -9 7 -4 19 5 22 3 17 -12 -5
-16 -4 -16 10 1 14 18 14 20 -6 30 -12 6 -23 17 -26 25 -3 9 0 11 9 5 11 -6
10 -3 -1 11 -14 17 -13 17 9 10 17 -5 21 -4 16 5 -5 9 -1 9 16 -1 13 -7 33
-13 44 -14 18 -2 18 -1 -3 13 -26 17 -28 28 -8 35 10 4 13 1 9 -9 -3 -8 1 -14
10 -14 10 0 13 9 11 29 -4 31 19 59 48 58 18 0 15 -10 -9 -39 -13 -15 -13 -16
6 -11 11 3 19 9 16 13 -3 5 -1 11 5 15 9 6 14 -7 11 -28 0 -4 4 -7 10 -7 6 0
8 8 4 19 -4 13 1 27 14 40 12 12 19 22 16 22 -3 1 -9 2 -14 3 -15 2 -26 16
-13 16 7 0 12 10 12 23 0 16 3 18 9 8 6 -9 18 -11 36 -7 16 4 24 3 21 -3 -4
-5 -1 -13 5 -16 5 -4 8 -13 5 -21 -3 -8 -2 -14 3 -14 5 0 11 9 14 20 6 22 -26
60 -50 60 -7 0 -13 5 -13 12 0 6 -3 8 -7 4 -5 -4 1 -14 11 -22 17 -12 18 -14
3 -14 -9 0 -18 5 -18 10 -5 28 -3 33 14 36 9 1 15 -2 11 -7 -9 -15 13 -10 26
6 10 12 10 18 -1 32 -12 14 -10 14 14 -1 25 -17 31 -28 28 -49 0 -4 4 -7 10
-7 6 0 9 7 5 15 -3 9 0 15 8 15 8 0 17 -6 19 -12 4 -10 6 -10 6 0 1 7 -5 20
-11 27 -37 41 -37 42 -12 54 13 6 24 18 24 28 0 13 3 14 12 5 19 -19 37 -14
33 9 -3 14 0 19 8 16 7 -3 21 1 31 9 11 7 22 11 26 9 4 -3 6 16 4 41 -2 42 -1
45 14 31 10 -9 25 -12 36 -8 14 5 16 10 8 15 -13 8 -7 26 9 26 6 0 7 -6 3 -12
-5 -8 -1 -8 12 2 29 22 30 24 13 18 -9 -4 -21 2 -29 15 -7 12 -9 19 -5 15 4
-4 14 0 22 8 8 8 20 11 26 7 8 -5 6 -9 -5 -11 -10 -2 -18 -7 -18 -12 0 -15 30
1 40 21 14 25 12 32 -5 26 -8 -4 -17 -2 -20 3 -6 9 -1 11 38 14 6 1 11 -7 9
-17 -2 -10 3 -17 14 -17 15 0 15 2 1 24 -17 25 -14 30 22 51 10 6 12 4 6 -5
-6 -9 -4 -11 4 -6 7 5 10 14 7 21 -5 15 20 28 36 19 6 -4 9 -1 6 7 -3 8 -15
13 -27 13 -12 -1 -19 1 -16 4 3 4 17 7 30 8 19 1 25 -4 25 -19 0 -26 8 -18 13
13 4 22 8 25 64 32 17 2 49 38 35 38 -6 0 -16 -8 -21 -18 -10 -16 -10 -16 -11
2 0 15 -3 16 -15 6 -13 -11 -14 -10 -9 4 3 9 12 16 20 16 8 0 14 11 15 28 l1
27 7 -25 c6 -23 7 -24 14 -5 7 16 10 17 17 5 8 -12 10 -12 10 4 0 12 5 16 15
13 8 -4 17 -2 20 3 3 4 -6 7 -20 5 -27 -2 -30 2 -15 25 8 12 10 12 10 1 0 -11
4 -10 19 3 11 10 25 15 32 10 9 -5 10 -2 6 9 -3 10 -2 17 4 17 6 0 7 5 3 12
-5 7 -11 5 -21 -7 -7 -11 -13 -14 -13 -8 0 14 25 34 33 26 4 -3 7 564 7 1260
0 909 -3 1268 -11 1273 -8 5 -8 9 1 14 9 5 9 9 1 14 -6 4 -11 2 -11 -4 0 -6
-5 -8 -10 -5 -7 4 -9 -3 -6 -21 4 -18 2 -24 -5 -17 -5 5 -23 8 -39 5 -21 -3
-27 -8 -23 -20 5 -11 3 -13 -8 -6 -27 17 -40 13 -34 -9 6 -21 6 -22 -7 -2 -16
24 -38 30 -38 10 0 -8 -12 -17 -27 -21 -46 -10 -55 -13 -49 -22 2 -4 -7 -12
-20 -19 -13 -6 -22 -7 -18 -2 3 5 0 9 -6 9 -6 0 -13 -7 -17 -16 -4 -10 -8 -12
-13 -4 -7 12 -40 3 -40 -12 0 -5 -7 -16 -15 -24 -13 -14 -15 -14 -15 0 0 8 -8
14 -19 13 -11 0 -19 -5 -18 -10 1 -5 -4 -12 -10 -14 -7 -3 -13 0 -13 6 0 6 -5
11 -11 11 -5 0 -7 -5 -4 -10 4 -6 -7 -15 -24 -21 -18 -6 -28 -16 -24 -22 4 -6
0 -8 -10 -4 -11 4 -17 1 -17 -7 0 -10 -7 -12 -22 -8 -16 4 -19 2 -13 -9 7 -11
5 -11 -10 1 -17 14 -18 13 -12 -3 6 -15 4 -16 -14 -6 -12 6 -19 7 -15 1 3 -5
-1 -15 -9 -22 -13 -11 -14 -10 -9 4 4 11 1 16 -10 16 -10 0 -13 -5 -9 -17 5
-13 2 -15 -11 -10 -9 4 -15 3 -12 -2 9 -13 -40 -31 -52 -19 -7 7 -10 5 -9 -7
1 -10 -4 -20 -12 -23 -8 -3 -11 0 -7 7 12 18 -20 13 -35 -6 -13 -17 -13 -17 5
-3 15 11 18 11 12 1 -5 -8 -4 -16 4 -21 8 -5 7 -9 -5 -13 -9 -4 -13 -3 -10 3
3 6 -1 10 -9 10 -27 0 -31 -2 -28 -11 1 -5 -7 -4 -18 3 -17 11 -22 10 -30 -2
-5 -8 -6 -18 -3 -23 3 -6 -7 -8 -25 -5 -17 2 -29 1 -27 -3 3 -4 -6 -14 -19
-22 -17 -12 -26 -13 -35 -4 -17 17 -38 -7 -23 -26 12 -14 7 -27 -9 -27 -5 0
-6 7 -3 15 10 24 -12 17 -25 -7 l-11 -23 6 24 c4 16 3 21 -5 17 -6 -4 -11 -12
-11 -17 0 -6 -7 -17 -15 -25 -13 -14 -15 -13 -15 6 0 12 -4 18 -10 15 -6 -4
-8 -10 -5 -15 9 -15 -61 -50 -96 -48 -25 2 -33 -1 -31 -11 2 -8 -3 -11 -12 -8
-10 4 -13 1 -9 -8 3 -8 10 -12 17 -8 6 4 17 8 24 9 10 2 11 -1 1 -12 -7 -9
-21 -13 -31 -11 -21 6 -23 -3 -5 -22 9 -11 7 -10 -10 0 -25 15 -29 25 -12 31
7 2 6 8 -4 16 -12 10 -15 10 -14 0 1 -31 -4 -48 -14 -48 -5 0 -7 4 -4 10 3 6
-1 7 -10 3 -11 -4 -13 -8 -5 -13 8 -5 6 -11 -5 -20 -12 -10 -15 -10 -15 4 0 9
-5 16 -11 16 -6 0 -8 -7 -5 -16 4 -12 2 -15 -9 -10 -8 3 -15 1 -15 -4 0 -6 5
-10 11 -10 5 0 7 -5 3 -11 -4 -7 -14 0 -25 18 -20 30 -26 25 -8 -8 10 -19 9
-19 -10 -9 -25 13 -27 7 -6 -13 12 -13 12 -15 -5 -20 -11 -3 -19 -2 -18 2 2
19 -3 31 -12 26 -6 -4 -8 -15 -5 -25 5 -15 2 -18 -16 -15 -15 3 -23 -2 -26
-15 -5 -18 -8 -18 -39 -5 -30 12 -34 12 -34 -1 0 -8 6 -14 13 -12 6 2 12 -2
12 -7 0 -6 -4 -9 -9 -7 -16 5 -46 -10 -46 -24 0 -8 -4 -14 -10 -14 -14 0 -13
23 2 38 9 9 9 15 1 23 -13 13 -36 2 -30 -15 3 -6 -2 -21 -10 -31 -13 -19 -14
-19 -9 8 2 15 0 27 -5 27 -6 0 -9 -6 -6 -12 2 -7 -3 -18 -12 -24 -13 -10 -13
-14 -1 -30 12 -16 12 -17 0 -6 -19 16 -30 15 -30 -3 0 -8 5 -15 12 -15 6 0 9
-3 6 -6 -4 -3 -17 0 -30 7 -12 7 -27 12 -31 11 -4 -1 -10 5 -13 13 -6 14 -8
13 -19 -2 -10 -13 -10 -22 -3 -31 6 -7 8 -15 4 -19 -3 -3 -6 -1 -6 5 0 7 -10
12 -22 11 -22 0 -22 -1 -3 -8 17 -7 17 -8 -7 -13 -15 -3 -25 -1 -22 3 3 5 0 9
-5 9 -6 0 -11 -4 -11 -9 0 -5 -8 -11 -17 -15 -10 -3 -28 -10 -41 -16 -13 -5
-20 -6 -17 -1 3 5 1 12 -5 16 -9 6 -14 -6 -11 -30 0 -6 -8 -16 -19 -23 -11 -7
-20 -8 -20 -3 0 5 6 11 13 14 9 3 9 7 0 17 -8 9 -12 7 -18 -8 -4 -14 -11 -19
-22 -15 -11 4 -14 2 -9 -5 4 -7 2 -12 -4 -12 -6 0 -9 -3 -6 -8 2 -4 -14 -6
-36 -4 -28 3 -39 1 -34 -7 11 -17 -5 -13 -19 6 -9 13 -14 13 -20 3 -5 -9 -4
-11 3 -6 15 9 15 4 -2 -28 -13 -25 -14 -25 -19 -6 -4 14 -10 18 -23 13 -11 -4
-13 -8 -6 -11 7 -2 12 -8 12 -14 0 -5 -9 -6 -20 -3 -13 4 -20 2 -20 -7 -1 -8
-7 -5 -16 7 -15 19 -15 19 -10 -10 4 -16 3 -24 0 -17 -4 8 -10 10 -17 3 -12
-9 -18 -11 -37 -11 -5 0 -10 -8 -10 -17 0 -11 -3 -14 -8 -7 -10 15 -35 22 -47
13 -5 -5 -28 -23 -49 -41 -24 -20 -37 -26 -34 -16 9 22 -28 31 -47 11 -20 -19
-19 -29 0 -13 12 10 18 10 26 2 5 -7 6 -10 3 -7 -4 2 -20 -3 -37 -11 -27 -15
-29 -15 -24 0 5 13 3 15 -12 7 -10 -6 -20 -9 -22 -8 -2 1 2 -3 9 -10 9 -7 10
-13 3 -18 -6 -3 -11 -1 -11 4 0 6 -3 10 -7 10 -29 -5 -35 1 -22 19 13 15 12
16 -3 4 -17 -14 -14 -42 5 -42 6 0 7 -3 4 -6 -4 -4 -13 -1 -22 6 -12 10 -16 9
-21 -4 -4 -11 -13 -15 -25 -11 -12 4 -21 1 -25 -8 -7 -18 -42 -29 -50 -16 -3
5 -10 7 -15 3 -5 -3 -17 0 -26 8 -15 12 -15 11 -2 -9 12 -20 11 -24 -5 -36
-11 -8 -34 -12 -54 -10 -19 2 -40 -1 -48 -8 -8 -6 -21 -8 -30 -5 -11 4 -15 2
-11 -8 3 -8 -4 -22 -15 -33 -12 -10 -18 -12 -14 -5 4 7 1 12 -8 12 -9 0 -16
-6 -16 -14 0 -8 -4 -18 -10 -21 -5 -3 -7 0 -4 8 10 28 -17 29 -43 2 -15 -14
-33 -23 -40 -21 -8 3 -11 1 -8 -4 3 -6 0 -10 -9 -10 -8 0 -22 -3 -32 -7 -13
-5 -15 -3 -9 8 5 8 -3 4 -16 -8 -28 -25 -77 -46 -90 -37 -5 3 -9 0 -9 -6 0 -7
-8 -9 -20 -5 -11 4 -20 2 -20 -4 0 -6 -9 -11 -19 -11 -11 0 -23 -5 -26 -11 -4
-6 -13 -8 -20 -5 -8 3 -19 -1 -25 -9 -6 -7 -19 -11 -29 -8 -10 3 -22 -1 -26
-8 -6 -8 -4 -10 5 -4 9 5 11 4 6 -4 -4 -6 -18 -9 -32 -7 -14 3 -22 1 -19 -5 4
-5 0 -9 -9 -9 -8 0 -17 -6 -19 -12 -4 -10 -6 -10 -6 0 -1 15 -31 16 -31 1 0
-6 -9 -9 -19 -6 -14 3 -18 1 -14 -9 3 -10 0 -12 -10 -8 -9 3 -25 1 -36 -6 -16
-8 -21 -8 -21 2 -1 7 -9 3 -20 -10 -17 -21 -19 -21 -29 -5 -6 10 -11 12 -11 6
0 -7 -7 -13 -15 -13 -8 0 -15 -8 -15 -17 -1 -17 -1 -17 -11 0 -5 9 -15 17 -20
17 -6 0 -7 -4 -4 -10 11 -18 -5 -32 -21 -19 -11 9 -18 8 -32 -3 -9 -9 -25 -14
-34 -13 -10 2 -18 -1 -18 -6 0 -6 -4 -8 -9 -5 -5 4 -11 1 -13 -4 -2 -6 -17
-12 -33 -14 -17 -2 -32 -5 -35 -6 -3 -2 -16 -3 -30 -4 -14 -1 -24 -6 -23 -13
2 -6 -5 -10 -16 -8 -10 2 -24 -5 -31 -15 -8 -11 -20 -15 -33 -12 -12 3 -23 -1
-29 -12 -5 -9 -20 -16 -33 -16 -16 0 -25 -6 -25 -16 0 -8 -4 -12 -10 -9 -20
12 -50 14 -47 2 1 -7 -4 -11 -10 -9 -7 1 -13 -6 -14 -15 0 -12 -2 -13 -6 -5
-4 10 -9 9 -20 -5 -8 -10 -11 -11 -7 -3 6 12 5 13 -7 4 -8 -6 -24 -10 -37 -9
-15 1 -21 -3 -18 -11 3 -7 0 -16 -6 -20 -6 -4 -8 -3 -5 2 3 6 2 16 -4 24 -6
11 -9 5 -10 -20 l-1 -35 -8 39 c-5 26 -3 47 6 65 19 36 17 61 -6 96 -11 17
-20 45 -20 63 0 17 -4 32 -10 32 -16 0 -12 68 15 211 30 165 40 259 60 555 22
337 20 515 -11 808 l-7 69 29 -8 c139 -37 206 -46 379 -55 105 -5 240 -16 300
-26 90 -13 145 -15 305 -9 107 4 280 7 384 5 189 -2 189 -2 290 -37 96 -34
105 -40 171 -109 75 -77 99 -94 138 -94 27 0 41 13 51 46 6 19 -6 30 -94 84
-56 34 -120 68 -143 76 -28 9 -57 31 -86 65 -24 27 -42 51 -40 53 2 2 25 17
50 34 26 17 64 55 85 84 21 29 46 63 56 74 l19 21 91 -61 c102 -68 100 -65
154 -241 39 -128 37 -166 -9 -245 -20 -36 -51 -81 -68 -101 -19 -22 -33 -52
-36 -77 -5 -35 -2 -42 20 -57 l26 -17 -30 -40 c-16 -23 -29 -54 -29 -70 0 -27
30 -68 49 -68 5 0 36 25 67 55 32 30 61 55 65 55 3 0 41 50 84 111 l77 112 9
102 c5 57 21 142 36 191 17 57 26 111 25 149 -1 115 -96 559 -147 694 -14 36
-22 67 -20 70 3 2 26 -10 51 -28 44 -31 84 -35 84 -9 0 18 -55 110 -85 143
-15 17 -38 59 -50 95 -34 98 -166 439 -223 575 -27 66 -69 179 -93 250 -40
121 -105 259 -278 588 -34 65 -59 122 -56 127 4 6 -10 36 -29 68 -33 53 -41
59 -94 75 -59 17 -143 76 -110 77 25 0 40 34 28 64 -13 34 -54 59 -101 62 -50
2 -89 28 -89 58 0 27 -39 46 -94 46 -25 0 -35 7 -53 39 -12 21 -45 63 -73 94
-27 30 -50 62 -50 71 0 10 -14 23 -32 31 -63 26 -146 131 -201 255 -21 46 -55
108 -77 136 -50 66 -160 149 -230 172 -40 14 -54 24 -52 36 4 22 -42 43 -61
28 -11 -9 -35 -3 -108 29 -52 22 -99 46 -104 52 -6 7 -21 46 -34 87 -13 41
-26 82 -28 90 -3 8 -5 34 -4 56 3 48 -23 74 -72 74 -16 0 -42 11 -59 25 -32
27 -48 31 -64 15 -7 -7 -88 5 -244 35 -129 25 -264 48 -299 52 -62 6 -64 7
-95 52 -17 25 -52 67 -77 94 -40 41 -51 47 -88 47 -43 0 -53 12 -23 30 20 12
-1 8 -117 -21 -41 -11 -89 -19 -105 -19 -30 1 -31 1 -8 13 12 7 20 16 17 19
-3 3 9 15 28 27 46 28 55 51 21 51 l-26 0 21 36 c12 20 20 38 18 40 -2 2 -17
0 -35 -5 l-31 -9 20 38 c13 25 18 47 14 60 -6 20 -8 21 -26 4 -15 -14 -23 -15
-46 -5 -19 8 -39 8 -63 1 l-35 -9 25 21 c14 11 24 25 22 29 -1 5 3 9 9 9 8 0
9 4 0 13 -6 8 -8 17 -4 20 13 14 -23 6 -45 -9 -12 -8 -22 -11 -22 -6 0 6 21
19 48 31 110 49 119 62 52 73 -43 7 -100 37 -100 51 0 5 -8 6 -17 3 -12 -4 -9
1 7 15 17 14 19 19 8 15 -24 -7 -23 1 1 13 13 8 35 6 75 -4 67 -18 120 -20 96
-5 -8 5 -26 10 -40 11 -14 0 -43 6 -65 13 l-40 13 45 10 c44 10 45 10 18 21
-14 6 -29 15 -32 21 -3 5 -20 12 -36 16 -17 4 -28 11 -24 16 3 5 -13 9 -35 9
-23 0 -41 5 -41 11 0 6 -23 9 -62 8 -41 -2 -63 1 -66 9 -2 8 3 10 15 5 17 -7
17 -6 1 17 -38 53 -92 139 -141 222 -124 209 -274 380 -394 451 -67 39 -212
97 -243 97 -11 0 -20 4 -20 9 0 5 -10 7 -22 3 -14 -3 -19 -1 -14 6 4 7 -5 9
-31 6 -29 -4 -35 -3 -23 5 11 9 4 10 -30 6 -32 -4 -39 -3 -25 4 28 13 -67 9
-162 -6z m3300 -3945 c12 -6 30 -22 40 -35 l19 -23 31 19 c18 11 46 21 62 23
l30 3 6 -71 c5 -65 11 -81 62 -167 50 -84 188 -250 270 -326 14 -13 23 -29 20
-37 -5 -14 35 -107 59 -135 7 -8 30 -27 51 -41 30 -20 55 -55 108 -154 140
-257 208 -337 320 -374 34 -12 61 -31 85 -59 20 -22 44 -41 55 -41 19 0 59
-64 59 -94 0 -8 -23 -45 -50 -82 -28 -36 -66 -96 -85 -133 -20 -40 -55 -89
-88 -120 -30 -29 -63 -68 -73 -87 -10 -19 -22 -34 -25 -34 -29 0 -537 962
-684 1295 -53 121 -144 320 -201 442 -57 123 -104 227 -104 233 0 13 6 13 33
-2z m3527 -2298 c0 -5 -2 -10 -4 -10 -3 0 -8 5 -11 10 -3 6 -1 10 4 10 6 0 11
-4 11 -10z m-776 -336 c3 -8 2 -12 -4 -9 -6 3 -10 10 -10 16 0 14 7 11 14 -7z
m-5256 -89 c75 -13 204 -38 286 -55 82 -16 151 -30 152 -30 2 0 15 -23 29 -51
34 -67 52 -202 36 -271 -23 -100 -7 -310 34 -438 7 -25 19 -117 25 -204 l12
-159 -25 -21 c-34 -29 -38 -46 -22 -102 7 -27 25 -103 40 -169 15 -66 36 -137
47 -159 11 -21 15 -35 9 -31 -6 3 -18 19 -26 35 -16 31 -55 38 -55 10 -1 -9
-6 -6 -15 10 l-14 25 2 -30 c2 -27 0 -29 -34 -30 -28 0 -35 4 -32 15 3 8 -7
-4 -22 -27 -28 -47 -35 -53 -29 -25 2 9 0 24 -6 32 -9 13 -11 13 -19 0 -7 -9
-6 -17 1 -21 6 -4 7 -12 3 -19 -5 -8 -11 -5 -22 9 -19 28 -43 27 -43 -3 0 -13
-7 -29 -15 -36 -12 -10 -15 -10 -15 4 0 9 5 16 10 16 6 0 10 10 10 22 0 21 -1
21 -13 3 -8 -10 -19 -15 -26 -11 -18 12 -9 -15 23 -63 62 -94 4 -25 -78 93
-48 68 -97 131 -110 139 -25 17 -24 9 -61 257 -27 181 -39 240 -62 315 -24 79
-122 295 -160 352 -68 103 -181 183 -304 214 l-48 13 31 35 c18 20 41 41 52
46 11 6 32 33 46 62 41 80 148 216 184 235 18 9 38 24 46 33 7 9 20 13 27 11
8 -3 76 -17 151 -31z m5029 -11 c-3 -3 -12 -4 -19 -1 -8 3 -5 6 6 6 11 1 17
-2 13 -5z m33 -14 c0 -5 -4 -10 -10 -10 -5 0 -10 5 -10 10 0 6 5 10 10 10 6 0
10 -4 10 -10z m-440 -180 c0 -5 -4 -10 -10 -10 -5 0 -10 5 -10 10 0 6 5 10 10
10 6 0 10 -4 10 -10z m-150 -90 c0 -5 -2 -10 -4 -10 -3 0 -8 5 -11 10 -3 6 -1
10 4 10 6 0 11 -4 11 -10z m-509 -237 c13 -16 12 -17 -3 -4 -10 7 -18 15 -18
17 0 8 8 3 21 -13z m1755 -55 c4 -7 3 -8 -4 -4 -7 4 -12 3 -12 -1 0 -5 -9 -14
-20 -21 -26 -16 -25 -8 2 18 26 24 25 23 34 8z m-350 -7 c-9 -14 4 -41 20 -41
8 0 11 6 7 16 -5 14 -3 14 15 -2 12 -9 19 -21 16 -26 -9 -15 3 -8 17 9 10 11
10 14 2 9 -7 -4 -13 -2 -13 3 0 14 17 14 25 1 3 -5 12 -10 18 -10 7 0 6 4 -3
10 -13 9 -13 10 0 11 25 3 94 -1 118 -6 13 -3 22 -1 22 6 0 7 3 9 6 6 8 -8
-14 -37 -28 -37 -5 0 -6 5 -2 12 5 7 3 8 -5 3 -18 -11 2 -28 36 -31 20 -2 24
-1 13 6 -11 7 -12 12 -3 21 6 6 9 18 6 25 -3 9 2 14 13 14 14 0 16 -3 6 -9
-21 -13 9 -31 46 -26 17 2 34 0 37 -5 3 -5 22 -7 43 -4 26 3 33 1 22 -5 -8 -6
-11 -13 -8 -17 12 -11 58 -13 64 -2 4 6 15 -4 25 -23 10 -19 18 -28 19 -21 0
7 4 11 9 7 5 -3 13 0 17 6 4 8 3 9 -4 5 -7 -4 -12 -2 -12 4 0 7 6 10 13 7 6
-2 12 -12 12 -22 0 -10 6 -20 13 -23 7 -2 10 2 6 12 -5 12 -2 15 10 10 22 -9
20 -34 -3 -34 -11 0 -23 -5 -26 -10 -4 -6 -11 -8 -16 -5 -5 4 -9 -2 -9 -11 0
-15 2 -16 18 -2 16 13 25 15 75 10 9 -1 17 -9 17 -17 0 -8 7 -15 15 -15 7 0
19 -8 24 -17 6 -10 10 -13 10 -8 0 14 -25 46 -31 39 -3 -2 -8 2 -11 10 -4 9
-2 18 3 21 6 4 10 0 10 -7 0 -10 2 -11 8 0 6 9 12 5 22 -15 14 -29 14 -54 0
-63 -5 -3 -2 -16 5 -30 8 -14 14 -20 15 -13 0 7 7 10 15 7 8 -4 12 -11 8 -18
-4 -6 1 -5 10 3 22 18 11 34 -19 28 -16 -3 -24 0 -24 9 0 8 3 14 8 14 4 0 8
14 9 30 1 17 -2 28 -7 25 -6 -4 -7 1 -3 11 4 12 3 15 -5 10 -7 -4 -12 -2 -12
3 0 19 19 12 32 -11 7 -13 11 -26 10 -29 -1 -4 9 -4 21 -1 22 5 22 5 -2 -15
-21 -17 -22 -21 -8 -26 11 -4 17 -1 17 7 0 8 7 17 16 20 10 4 14 13 10 24 -5
14 -3 14 9 -2 8 -11 15 -25 15 -30 0 -6 -4 -5 -9 2 -6 10 -11 9 -22 -4 -11
-13 -11 -18 -1 -21 6 -3 10 -9 7 -13 -3 -5 0 -12 6 -16 8 -5 9 -3 4 6 -5 8 -3
11 5 8 7 -2 14 -11 16 -20 2 -16 -12 -18 -33 -5 -8 5 -9 0 -5 -15 4 -16 2 -19
-8 -13 -8 5 -11 4 -6 -3 3 -6 2 -13 -4 -17 -17 -10 0 -26 21 -20 15 5 17 3 12
-11 -5 -13 -3 -15 7 -9 9 5 11 4 6 -3 -4 -6 -2 -22 4 -34 10 -20 9 -21 -2 -6
-16 19 -48 7 -48 -17 0 -8 -9 -15 -21 -15 -11 0 -17 -4 -14 -10 3 -5 0 -10 -8
-10 -8 0 -20 -6 -26 -14 -10 -12 -8 -19 8 -35 30 -30 26 -45 -6 -24 -26 17
-27 17 -20 -1 6 -15 5 -17 -6 -7 -11 8 -18 7 -31 -8 -10 -11 -24 -17 -31 -15
-7 3 -15 -5 -19 -20 -3 -14 -17 -33 -31 -42 -14 -9 -22 -21 -18 -27 3 -6 1 -7
-5 -3 -7 4 -12 2 -12 -5 0 -7 -3 -9 -6 -6 -4 3 -16 1 -28 -5 -11 -7 -23 -13
-26 -14 -3 0 -13 -4 -23 -9 -16 -7 -16 -8 -1 -20 12 -8 14 -14 6 -19 -7 -4
-12 -2 -12 4 0 8 -7 9 -17 5 -10 -4 -24 -8 -30 -8 -7 0 -23 -12 -35 -25 -13
-14 -16 -21 -8 -17 13 8 13 6 1 -8 -13 -17 -36 -14 -26 4 4 5 1 9 -5 9 -7 0
-9 -8 -5 -20 4 -12 2 -20 -5 -20 -6 0 -8 -6 -4 -12 4 -7 4 -10 -1 -6 -4 4 -21
0 -37 -8 -24 -12 -27 -18 -18 -30 7 -7 17 -11 23 -7 6 4 7 1 3 -6 -6 -9 -12
-9 -24 2 -10 8 -24 17 -32 20 -12 4 -12 6 2 6 9 1 20 5 23 11 4 6 -1 7 -12 3
-29 -10 -43 -24 -37 -37 3 -6 -2 -2 -10 8 -14 17 -16 18 -16 3 0 -9 -4 -17
-10 -17 -5 0 -10 -7 -10 -16 0 -13 3 -14 14 -5 12 10 13 9 9 -7 -3 -14 -11
-18 -25 -14 -11 3 -24 -1 -30 -9 -8 -11 -9 -11 -5 2 3 9 1 22 -4 30 -7 11 -9
10 -9 -4 0 -10 -4 -16 -9 -13 -5 3 -8 -2 -7 -12 0 -10 -6 -16 -16 -16 -18 2
-22 -7 -18 -36 1 -12 -2 -11 -17 3 -15 14 -15 19 -4 26 9 6 10 11 2 15 -6 4
-11 2 -11 -3 0 -6 -8 -11 -17 -12 -11 0 -13 -3 -5 -6 20 -8 14 -19 -14 -21
-18 -1 -23 2 -18 11 5 7 1 6 -10 -3 -17 -13 -17 -14 1 -21 16 -7 16 -8 -4 -8
-12 -1 -25 4 -28 9 -10 17 -23 11 -29 -12 -3 -13 -16 -29 -28 -37 -21 -13 -22
-13 -9 3 8 9 11 19 7 23 -3 3 -6 1 -6 -6 0 -7 -7 -10 -17 -7 -23 7 -57 -19
-47 -35 4 -7 3 -10 -4 -5 -6 3 -13 2 -16 -3 -4 -5 -22 -5 -47 0 -23 6 -47 8
-53 5 -6 -2 -3 -5 8 -5 15 -1 16 -4 6 -16 -14 -17 -35 -21 -25 -5 7 11 3 12
-19 4 -8 -3 -12 -12 -9 -21 5 -12 1 -11 -15 3 -28 24 -28 32 2 27 15 -3 25 1
29 11 6 14 3 15 -13 6 -11 -6 -25 -8 -31 -4 -6 3 -16 -2 -24 -12 -11 -16 -10
-20 4 -31 14 -11 14 -14 1 -23 -11 -7 -16 -6 -18 5 -3 12 -18 14 -64 6 -4 0
-5 -8 -1 -17 3 -9 -6 -4 -21 10 -32 33 -33 39 -3 31 16 -4 18 -3 7 4 -18 11
-72 3 -64 -10 3 -5 9 -7 14 -4 14 9 30 -19 20 -35 -6 -9 -10 -10 -10 -3 0 6
-10 13 -22 15 -13 2 -22 9 -20 16 1 8 -2 11 -7 7 -6 -3 -8 -12 -5 -19 3 -7 -1
-16 -9 -19 -11 -4 -13 0 -10 14 7 27 -13 24 -51 -8 -17 -15 -23 -24 -14 -20
16 6 35 -19 23 -31 -3 -3 -5 0 -5 6 0 20 -35 19 -60 -2 l-25 -21 23 26 c12 14
22 31 22 39 0 9 -5 7 -15 -6 -8 -10 -15 -14 -15 -9 0 6 -5 3 -10 -5 -6 -9 -13
-11 -17 -5 -5 6 -14 10 -22 10 -8 0 -15 6 -17 13 -1 7 0 8 3 2 6 -12 23 -13
23 -1 0 5 -7 12 -16 15 -10 4 -18 -3 -25 -23 -8 -23 -14 -27 -36 -23 -17 3
-24 1 -19 -6 4 -6 -3 -6 -18 1 -13 7 -22 15 -20 18 4 8 -27 22 -33 15 -3 -2
-6 -12 -7 -23 -3 -18 -8 -19 -36 -2 -12 7 -10 8 8 9 12 0 22 2 22 4 0 2 3 13
6 23 6 17 6 17 -7 0 -10 -13 -23 -17 -42 -13 -17 3 -27 0 -28 -7 0 -9 -2 -8
-6 1 -2 6 -11 12 -19 12 -8 0 -14 7 -14 16 0 8 -5 12 -10 9 -6 -4 -8 -10 -5
-15 3 -5 0 -12 -6 -16 -7 -4 -9 -3 -5 4 3 6 1 14 -5 17 -5 4 -8 13 -5 21 8 20
2 17 -20 -8 -16 -18 -17 -21 -2 -15 12 4 16 1 15 -13 -1 -14 -4 -16 -14 -8 -7
5 -20 8 -28 4 -8 -3 -15 -1 -15 4 0 6 6 10 13 10 7 0 8 3 2 8 -5 4 -12 16 -13
27 -5 25 -12 33 -12 13 0 -9 -7 -19 -16 -22 -8 -3 -13 -9 -10 -14 2 -4 -3 -13
-13 -19 -14 -9 -17 -7 -19 11 -1 17 1 18 9 6 9 -13 10 -13 6 0 -2 8 -11 14
-19 12 -19 -3 -31 24 -22 51 6 20 6 20 -12 3 -17 -18 -17 -20 -1 -48 9 -16 17
-35 17 -41 0 -7 -8 3 -17 22 -15 30 -18 32 -29 16 -8 -10 -10 -23 -7 -29 4 -6
-1 -4 -11 4 -11 8 -14 16 -7 18 15 5 14 20 -1 19 -52 -2 -58 2 -52 36 4 27 3
29 -5 10 -6 -13 -13 -23 -16 -23 -4 0 -3 6 1 13 5 9 4 9 -6 0 -11 -10 -11 -15
0 -28 9 -11 9 -15 1 -15 -7 0 -9 -4 -6 -10 3 -6 -1 -7 -10 -3 -11 4 -13 8 -5
13 8 5 6 11 -4 20 -9 7 -13 16 -10 21 3 5 0 9 -5 9 -6 0 -11 7 -11 15 0 18 16
20 23 3 4 -10 6 -10 6 -1 1 19 -17 25 -39 13 -13 -7 -20 -7 -20 0 0 5 4 10 9
10 5 0 12 8 15 17 6 14 2 12 -17 -5 -13 -12 -27 -19 -31 -15 -4 5 -6 1 -4 -7
2 -11 -5 -14 -31 -12 -23 3 -31 0 -26 -8 4 -6 13 -9 19 -7 7 3 13 -1 13 -9 0
-12 -3 -12 -21 0 -12 8 -20 21 -20 30 1 9 -4 16 -12 16 -10 0 -13 -10 -9 -35
3 -29 2 -33 -9 -22 -9 8 -11 16 -5 24 7 7 6 14 -1 18 -5 3 -10 1 -10 -6 0 -7
-3 -10 -6 -6 -12 11 21 44 43 42 12 -1 20 2 17 7 -3 4 -18 7 -34 6 -44 -3 -81
35 -42 45 13 4 13 5 -4 6 -14 1 -24 -6 -27 -19 -8 -30 -25 -24 -21 8 3 22 2
21 -7 -7 -8 -25 -15 -32 -28 -28 -13 3 -17 0 -14 -12 3 -12 -3 -16 -22 -16
-19 0 -22 2 -12 10 19 14 26 49 15 70 -8 14 -12 15 -19 4 -13 -21 -11 -32 5
-26 10 4 13 1 9 -8 -3 -10 -10 -12 -21 -6 -10 5 -25 7 -35 6 -9 -2 -15 0 -12
5 3 5 0 10 -7 12 -13 5 -20 38 -7 38 4 0 13 -9 19 -20 6 -11 16 -20 22 -20 7
0 6 5 -2 15 -6 8 -9 18 -6 23 3 6 -2 9 -11 8 -10 0 -18 4 -18 11 0 6 -4 15 -9
20 -5 5 -6 3 -2 -4 4 -8 1 -13 -8 -13 -9 0 -15 -3 -15 -7 1 -5 1 -18 0 -30 -1
-23 -22 -25 -58 -4 -16 9 -16 11 7 19 24 9 24 9 3 20 -14 8 -23 8 -25 2 -2 -6
-9 -1 -16 10 -7 12 -8 20 -2 20 5 0 10 -5 10 -11 0 -5 4 -8 9 -5 5 3 6 21 1
39 -6 27 -4 36 11 45 13 9 20 9 25 0 4 -7 3 -8 -4 -4 -7 4 -12 3 -12 -3 0 -5
5 -13 10 -16 9 -6 15 9 10 30 -1 5 6 15 16 22 10 7 14 16 10 20 -4 5 -13 0
-20 -9 -12 -16 -15 -16 -32 -2 -14 11 -16 17 -6 21 7 3 24 16 38 29 13 14 24
21 24 16 0 -5 -7 -15 -15 -22 -8 -7 -15 -17 -15 -23 0 -5 9 -2 20 8 18 16 24
14 22 -6 -1 -3 6 -6 14 -6 7 0 14 4 14 9 0 4 -4 8 -9 8 -5 0 -11 11 -13 25 -4
20 -3 23 8 14 8 -6 11 -15 8 -20 -3 -5 0 -9 5 -9 15 0 14 23 -1 39 -11 10 -7
11 16 5 24 -6 28 -4 23 9 -3 9 2 26 13 39 11 13 19 17 20 11 0 -7 -5 -13 -12
-13 -6 0 -9 -2 -6 -5 9 -10 37 6 32 18 -4 11 30 51 70 84 11 10 16 10 20 0 3
-7 4 1 2 16 -2 19 2 31 14 37 15 8 17 6 13 -13 -6 -20 -4 -20 16 5 11 14 21
31 21 37 0 6 5 11 11 11 5 0 7 -4 4 -10 -3 -5 -2 -10 4 -10 5 0 14 6 18 14 4
7 18 19 31 25 22 12 23 11 12 -9 -6 -11 -9 -29 -7 -38 3 -12 5 -11 6 6 1 13 7
22 17 22 10 0 14 6 10 15 -3 8 -1 15 4 15 6 0 10 8 10 18 1 16 1 16 11 -1 10
-17 12 -18 30 -1 10 9 16 20 14 25 -3 4 -1 11 5 14 6 4 9 1 8 -6 -2 -6 3 -14
10 -16 11 -4 16 11 15 44 -1 7 4 10 9 7 5 -4 8 -17 5 -30 -5 -27 -5 -26 17
-18 19 7 21 30 4 37 -7 3 3 3 24 1 33 -3 36 -2 30 19 -5 21 -5 21 12 4 10 -10
21 -15 24 -12 4 3 0 10 -8 15 -8 6 -10 10 -4 10 6 0 17 -7 24 -15 7 -8 17 -15
23 -15 7 0 7 4 -1 12 -16 16 -15 25 3 32 8 3 14 0 12 -6 -1 -7 6 -14 17 -16
13 -3 16 0 11 9 -6 9 -2 11 14 6 17 -4 21 -2 17 9 -3 8 -2 14 3 14 14 0 31
-26 23 -36 -4 -5 -3 -5 3 -1 10 9 11 13 14 45 1 13 3 14 10 3 6 -10 10 -10 16
-1 6 9 10 9 16 -1 6 -10 9 -11 9 -1 0 6 7 12 15 12 8 0 15 4 15 9 0 5 9 7 20
4 14 -4 20 0 20 11 0 9 8 16 19 16 11 0 23 5 26 11 5 6 12 4 21 -8 14 -17 15
-16 10 7 -3 14 -3 19 0 13 9 -19 34 -16 34 5 0 14 2 15 9 2 6 -8 7 -18 5 -22
-8 -12 11 -9 24 4 15 15 16 32 2 23 -5 -3 -10 -2 -10 3 0 20 15 20 43 0 17
-12 27 -17 24 -11 -4 7 -3 15 3 18 6 4 10 3 9 -2 -3 -18 2 -33 11 -33 5 0 7 6
4 14 -3 8 0 17 7 22 8 4 10 3 5 -4 -9 -15 -3 -15 29 0 14 6 24 17 21 24 -3 7
1 18 9 24 11 9 12 7 8 -9 -4 -16 -1 -19 15 -14 11 2 23 0 26 -6 4 -6 13 -11
19 -11 7 0 6 4 -3 10 -13 9 -13 11 0 19 9 6 19 6 27 -1 10 -8 13 -7 13 3 0 11
2 11 8 1 7 -9 13 -8 27 8 19 21 45 27 45 11 0 -6 -5 -13 -12 -17 -7 -4 -8 -3
-4 4 4 7 2 12 -3 12 -6 0 -11 -6 -11 -14 0 -8 9 -13 23 -12 18 1 22 6 19 23
-5 25 21 33 34 11 4 -6 3 -8 -4 -4 -6 3 -13 2 -16 -3 -3 -5 3 -11 14 -14 11
-3 18 -1 14 4 -3 5 4 9 15 9 12 0 21 5 21 10 0 6 11 8 26 4 18 -5 25 -3 20 4
-3 6 -2 13 3 16 5 4 14 -6 20 -21 10 -27 11 -27 6 7 l-6 35 16 -25 c16 -24 16
-24 11 -2 l-4 23 31 -20 c18 -11 35 -21 38 -23 3 -2 13 5 23 15 10 9 22 14 28
11 7 -4 8 -2 4 4 -4 7 -1 12 9 12 9 0 14 4 10 9 -7 12 47 3 60 -10 16 -16 28
-10 14 8 -8 9 -9 14 -3 10 7 -4 24 0 40 8 28 14 49 11 38 -6 -3 -5 -14 -7 -24
-4 -10 3 -21 1 -25 -5 -3 -5 -1 -10 4 -10 21 0 26 -2 39 -12 6 -6 12 -9 13 -7
0 2 2 12 4 22 5 28 14 47 20 47 4 0 4 -4 1 -9z m228 0 c4 -5 -3 -7 -14 -4 -23
6 -26 13 -6 13 8 0 17 -4 20 -9z m256 -18 c0 -3 -6 -3 -14 0 -8 3 -17 1 -19
-6 -2 -7 -8 -8 -13 -4 -11 11 15 27 33 20 7 -3 13 -7 13 -10z m-720 -34 c0 -9
-26 -6 -36 4 -4 4 -2 7 6 7 10 0 10 4 -1 18 -11 14 -10 13 9 -2 12 -11 22 -23
22 -27z m34 29 c-3 -4 -9 -8 -15 -8 -5 0 -9 4 -9 8 0 5 7 9 15 9 8 0 12 -4 9
-9z m748 -15 c3 1 8 0 10 -3 2 -3 1 -4 -1 -2 -3 1 -10 -10 -16 -25 -11 -27
-12 -27 -17 -5 -3 12 -2 20 3 16 13 -8 11 10 -3 26 -11 12 -10 12 2 3 8 -6 18
-11 22 -10z m-924 -13 c-7 -10 -14 -17 -17 -15 -4 4 18 35 25 35 2 0 -1 -9 -8
-20z m1032 15 c0 -2 -10 -9 -22 -15 -22 -11 -22 -10 -4 4 21 17 26 19 26 11z
m-160 -11 c0 -8 -19 -13 -24 -6 -3 5 1 9 9 9 8 0 15 -2 15 -3z m114 -40 c5
-14 4 -15 -9 -4 -17 14 -19 20 -6 20 5 0 12 -7 15 -16z m23 -16 c-3 -8 -6 -5
-6 6 -1 11 2 17 5 13 3 -3 4 -12 1 -19z m66 -25 c-9 -7 -19 -10 -24 -8 -4 3
-10 1 -14 -5 -10 -17 -35 -11 -34 8 0 10 3 12 6 4 7 -19 23 -4 16 16 -6 14 -4
15 9 4 13 -11 19 -11 30 1 9 11 15 12 20 3 4 -6 0 -16 -9 -23z m83 -35 c0 -10
-5 -18 -11 -18 -7 0 -11 10 -11 23 1 12 -4 21 -11 20 -7 -2 -10 3 -7 11 5 12
8 12 23 -2 9 -9 17 -25 17 -34z m-2766 32 c0 -5 -4 -10 -10 -10 -5 0 -10 5
-10 10 0 6 5 10 10 10 6 0 10 -4 10 -10z m1247 4 c-3 -3 -12 -4 -19 -1 -8 3
-5 6 6 6 11 1 17 -2 13 -5z m1583 -99 c-7 -8 -17 -15 -23 -15 -6 0 -2 7 9 15
25 19 30 19 14 0z m-3110 -25 c0 -5 -2 -10 -4 -10 -3 0 -8 5 -11 10 -3 6 -1
10 4 10 6 0 11 -4 11 -10z m3075 -70 c-10 -11 -23 -20 -29 -20 -6 0 0 9 14 20
32 25 38 25 15 0z m-5 -100 c0 -5 -5 -10 -11 -10 -5 0 -7 5 -4 10 3 6 8 10 11
10 2 0 4 -4 4 -10z m-43 -63 c-6 -12 -13 -24 -14 -25 -1 -2 -10 1 -20 8 -14 9
-15 10 -1 6 15 -4 34 18 29 37 -1 5 3 6 9 2 6 -4 5 -14 -3 -28z m70 -4 c1 -22
-1 -24 -8 -10 -6 9 -7 22 -4 27 9 14 10 13 12 -17z m-2597 -78 c-7 -8 -16 -15
-21 -15 -5 0 -1 8 9 18 20 22 31 19 12 -3z m2446 3 c4 -6 2 -14 -4 -16 -7 -2
-9 -9 -6 -14 4 -7 2 -8 -4 -4 -7 4 -12 3 -12 -2 0 -5 -10 -16 -23 -25 -21 -14
-23 -13 -25 9 -1 12 3 26 10 30 6 4 8 3 5 -3 -4 -6 0 -13 8 -16 10 -4 12 -1 8
10 -4 10 -2 14 4 10 6 -4 16 -1 22 7 9 11 9 15 -1 19 -9 4 -9 6 -1 6 6 1 15
-4 19 -11z m-2500 -73 c1 -8 -1 -15 -6 -15 -10 0 -20 26 -13 34 8 8 16 -1 19
-19z m2410 -5 c0 -12 -4 -16 -9 -11 -5 5 -6 14 -3 20 10 15 12 14 12 -9z m-52
-48 c-5 -4 -12 -11 -15 -15 -3 -5 -9 -2 -12 5 -3 9 3 14 15 15 11 1 16 -1 12
-5z m-54 -17 c10 -12 10 -15 -4 -15 -9 0 -16 7 -16 15 0 8 2 15 4 15 2 0 9 -7
16 -15z m-80 -49 c0 -2 -7 -7 -16 -10 -8 -3 -12 -2 -9 4 6 10 25 14 25 6z m65
-6 c3 -6 -1 -7 -9 -4 -18 7 -21 14 -7 14 6 0 13 -4 16 -10z m-2425 -9 c0 -4
-11 -6 -25 -3 -14 2 -25 6 -25 8 0 2 11 4 25 4 14 0 25 -4 25 -9z m2387 -6 c0
-8 -4 -12 -9 -9 -5 3 -6 10 -3 15 9 13 12 11 12 -6z m-2436 -75 c6 -16 15 -30
21 -30 5 0 6 -4 3 -10 -11 -17 -25 -11 -25 11 0 11 -4 17 -10 14 -6 -4 -7 1
-3 10 3 10 0 21 -8 26 -11 7 -11 9 -1 9 7 0 18 -13 23 -30z m39 20 c0 -5 -5
-10 -11 -10 -5 0 -7 5 -4 10 3 6 8 10 11 10 2 0 4 -4 4 -10z m-76 -6 c16 -6
12 -24 -5 -24 -6 0 -8 4 -5 9 4 5 0 12 -6 14 -7 3 -10 6 -6 6 3 1 13 -2 22 -5z
m2356 -24 c7 -14 7 -20 0 -20 -5 0 -10 7 -10 16 0 8 -4 12 -10 9 -5 -3 -10 -1
-10 4 0 18 19 12 30 -9z m-2375 -30 c3 -5 -1 -10 -10 -10 -9 0 -13 5 -10 10 3
6 8 10 10 10 2 0 7 -4 10 -10z m135 -76 c0 -22 -16 -17 -17 6 -1 11 2 18 8 15
5 -4 9 -13 9 -21z m120 -11 c-8 -3 -18 -10 -21 -15 -3 -5 -9 -3 -12 6 -5 12 0
16 21 15 16 0 21 -3 12 -6z m164 -8 c18 -13 15 -20 -6 -16 -5 0 -8 -9 -9 -21
-1 -21 -1 -22 -7 -3 -7 20 -32 27 -43 11 -9 -11 -31 3 -23 15 3 5 10 7 15 4 5
-4 9 0 9 7 0 9 3 9 10 -2 8 -13 10 -12 10 3 0 21 18 22 44 2z m1660 -16 c-6
-11 -24 -2 -24 11 0 5 7 7 15 4 8 -4 12 -10 9 -15z m-64 -13 c8 -3 5 -4 -7 -2
-13 2 -23 0 -23 -5 0 -5 -5 -9 -11 -9 -8 0 -9 4 0 13 6 8 7 18 3 23 -4 4 0 3
8 -2 8 -6 22 -14 30 -18z m-1425 -29 c10 -8 14 -16 9 -19 -5 -3 -18 3 -28 13
-22 22 -9 26 19 6z m1307 -9 c-6 -6 -15 -8 -19 -4 -4 4 -1 11 7 16 19 12 27 3
12 -12z m-4639 -12 c-10 -13 -19 -23 -21 -21 -7 6 19 45 29 45 5 0 2 -11 -8
-24z m3322 -6 c3 -5 12 -7 20 -3 8 3 15 -1 15 -8 0 -7 -3 -9 -7 -6 -3 4 -12 2
-18 -3 -9 -8 -14 -6 -19 5 -3 9 -10 14 -15 10 -5 -3 -12 -1 -16 5 -3 5 3 10
14 10 11 0 22 -4 26 -10z m-3543 -48 c3 -11 0 -19 -7 -19 -7 0 -10 8 -7 19 2
10 6 18 7 18 1 0 5 -8 7 -18z m3678 14 c0 -3 -4 -8 -10 -11 -5 -3 -10 -1 -10
4 0 6 5 11 10 11 6 0 10 -2 10 -4z m173 -16 c-3 -12 -8 -19 -11 -16 -5 6 5 36
12 36 2 0 2 -9 -1 -20z m538 -13 c-6 -8 -7 -18 -3 -22 4 -5 2 -5 -5 -1 -14 8
-6 36 9 36 7 0 6 -5 -1 -13z m-641 -17 c0 -5 -4 -10 -10 -10 -5 0 -10 5 -10
10 0 6 5 10 10 10 6 0 10 -4 10 -10z m716 -2 c4 -7 3 -8 -5 -4 -7 4 -20 -2
-32 -16 -11 -13 -17 -16 -13 -8 19 39 37 49 50 28z m-496 -33 c-7 -9 -15 -13
-17 -11 -6 6 20 36 26 30 2 -2 -2 -10 -9 -19z m-256 -13 c3 -5 -1 -9 -9 -9 -8
0 -12 4 -9 9 3 4 7 8 9 8 2 0 6 -4 9 -8z m2001 -401 c3 -5 2 -12 -3 -15 -5 -3
-9 1 -9 9 0 17 3 19 12 6z m30 -11 c3 -5 1 -10 -4 -10 -6 0 -11 5 -11 10 0 6
2 10 4 10 3 0 8 -4 11 -10z m-115 -74 c0 -2 -7 -7 -16 -10 -8 -3 -12 -2 -9 4
6 10 25 14 25 6z m-143 -143 c-9 -2 -14 -9 -11 -15 4 -7 2 -8 -5 -4 -15 10 -4
26 17 25 15 -1 15 -2 -1 -6z m-37 -7 c0 -3 -4 -8 -10 -11 -5 -3 -10 -1 -10 4
0 6 5 11 10 11 6 0 10 -2 10 -4z m-7325 -48 c-6 -17 -4 -20 9 -15 23 9 20 2
-9 -17 -23 -15 -24 -15 -18 1 6 16 5 17 -12 3 -10 -8 -16 -10 -12 -3 4 6 1 14
-5 16 -7 3 -2 6 12 6 19 1 21 4 11 10 -11 7 -10 10 5 14 10 2 20 5 22 6 2 0 0
-9 -3 -21z m7280 -45 c4 9 13 17 20 17 9 0 6 -8 -8 -24 -15 -17 -24 -21 -33
-12 -6 6 -9 17 -6 25 4 11 7 10 13 -5 6 -18 7 -18 14 -1z m-105 -144 c0 -5 -4
-9 -8 -9 -5 0 -9 7 -9 15 0 8 4 12 9 9 4 -3 8 -9 8 -15z m-140 -53 c0 -3 -4
-8 -10 -11 -5 -3 -10 -1 -10 4 0 6 5 11 10 11 6 0 10 -2 10 -4z m-4 -83 c-7
-7 -26 7 -26 19 0 6 6 6 15 -2 9 -7 13 -15 11 -17z m-6881 -2 c-3 -6 -11 -11
-16 -11 -5 0 -4 6 3 14 14 16 24 13 13 -3z m-18 -80 c19 16 16 4 -3 -16 -14
-13 -19 -14 -25 -3 -13 20 -11 34 3 20 8 -8 15 -9 25 -1z m6653 -62 c0 -5 -4
-9 -8 -9 -5 0 -9 7 -9 15 0 8 4 12 9 9 4 -3 8 -9 8 -15z m-6630 -42 c0 -7 -4
-6 -10 3 -8 12 -10 12 -10 1 0 -8 -3 -12 -6 -8 -9 9 6 28 17 22 5 -4 9 -12 9
-18z m6632 8 c12 -17 -3 -25 -19 -10 -8 9 -18 13 -21 10 -4 -3 0 -10 8 -15 8
-6 11 -10 7 -10 -5 0 -20 9 -33 19 l-24 19 38 -2 c20 0 40 -5 44 -11z m-52
-43 c0 -12 3 -13 8 -5 6 9 11 7 19 -6 9 -15 9 -18 0 -17 -31 7 -45 19 -41 34
3 9 -1 7 -7 -5 -15 -28 -25 -29 -25 -4 0 11 4 18 7 15 4 -2 10 0 14 6 9 14 25
3 25 -18z m-6603 -44 c-3 -7 -5 -2 -5 12 0 14 2 19 5 13 2 -7 2 -19 0 -25z
m6525 -12 c2 -12 -3 -20 -15 -22 -15 -2 -16 0 -6 12 10 12 9 13 -7 8 -18 -6
-17 -5 1 9 23 18 22 18 27 -7z m38 14 c0 -5 -2 -10 -4 -10 -3 0 -8 5 -11 10
-3 6 -1 10 4 10 6 0 11 -4 11 -10z m-6593 -15 c0 -8 -4 -15 -9 -15 -4 0 -8 7
-8 15 0 8 4 15 8 15 5 0 9 -7 9 -15z m77 -3 c2 -4 -4 -8 -14 -8 -10 0 -16 4
-14 8 3 4 9 8 14 8 5 0 11 -4 14 -8z m6418 -24 c-8 -8 -9 -4 -5 13 4 13 8 18
11 10 2 -7 -1 -18 -6 -23z m-6522 3 c0 -10 -7 -24 -15 -31 -9 -8 -15 -9 -15
-2 0 6 4 13 10 17 5 3 7 12 3 20 -3 8 0 15 6 15 6 0 11 -8 11 -19z m6640 10
c0 -5 -7 -14 -15 -21 -13 -11 -14 -10 -9 5 5 13 4 16 -4 11 -7 -4 -12 -2 -12
3 0 6 9 11 20 11 11 0 20 -4 20 -9z m-6553 -26 c0 -8 -4 -12 -9 -9 -4 3 -8 9
-8 15 0 5 4 9 8 9 5 0 9 -7 9 -15z m6380 0 c0 -8 -4 -15 -9 -15 -10 0 -11 14
-1 23 9 10 10 9 10 -8z m33 -30 c-15 -16 -19 -25 -10 -25 19 0 6 -11 -17 -14
-10 -2 -24 -14 -31 -27 -13 -23 -13 -23 -9 -1 3 12 1 22 -4 22 -5 0 -9 -4 -9
-10 0 -5 -5 -10 -11 -10 -8 0 -9 4 0 13 6 8 8 17 4 20 -3 4 -2 7 3 7 6 0 15
-5 20 -10 7 -7 20 1 40 24 16 19 33 35 38 36 5 0 -1 -11 -14 -25z m-6380 5 c0
-5 -5 -10 -11 -10 -5 0 -7 5 -4 10 3 6 8 10 11 10 2 0 4 -4 4 -10z m-79 -47
c12 -15 12 -16 -3 -10 -9 3 -19 1 -21 -6 -2 -7 -7 -9 -11 -6 -8 7 3 39 14 39
4 0 14 -8 21 -17z m37 -23 c-7 -11 -17 -20 -22 -20 -5 0 -1 9 9 20 10 11 20
20 22 20 2 0 -2 -9 -9 -20z m67 -9 c-3 -6 -14 -10 -23 -10 -15 1 -15 2 1 6 9
2 17 9 17 15 0 6 3 9 6 5 3 -3 3 -10 -1 -16z m49 3 c3 -8 2 -12 -4 -9 -6 3
-10 10 -10 16 0 14 7 11 14 -7z m6105 2 c9 -11 9 -16 0 -22 -8 -4 -9 -3 -5 4
4 7 2 12 -3 12 -6 0 -11 5 -11 10 0 14 5 13 19 -4z m-6309 -18 c0 -11 -5 -18
-12 -16 -19 7 -21 35 -3 35 8 0 15 -9 15 -19z m82 -32 c-3 -5 -11 -1 -19 9 -7
11 -13 15 -13 9 0 -5 -4 -2 -9 6 -6 8 -8 17 -5 21 6 11 51 -34 46 -45z m-24
-17 c3 -11 2 -12 -6 -1 -8 11 -10 11 -15 -1 -7 -19 -42 -15 -42 4 -1 8 4 17 9
21 13 9 49 -6 54 -23z m109 -1 c-3 -7 -5 -2 -5 12 0 14 2 19 5 13 2 -7 2 -19
0 -25z m71 7 c-3 -3 -9 2 -12 12 -6 14 -5 15 5 6 7 -7 10 -15 7 -18z m-88 -24
c9 -18 9 -22 0 -16 -7 4 -16 2 -20 -5 -4 -7 -13 -9 -19 -6 -6 4 -9 12 -5 17 3
5 10 7 15 4 5 -4 9 4 9 16 0 25 2 24 20 -10z m6070 -1 c0 -5 -2 -10 -4 -10 -3
0 -8 5 -11 10 -3 6 -1 10 4 10 6 0 11 -4 11 -10z m65 -9 c10 -17 -12 -21 -25
-6 -10 12 -10 15 3 15 9 0 18 -4 22 -9z m-6102 -18 c-5 -12 -2 -15 10 -10 15
6 16 4 5 -16 -10 -19 -13 -20 -16 -4 -2 9 -7 17 -12 17 -5 0 -7 -8 -4 -17 5
-15 4 -15 -5 -3 -7 11 -6 19 6 32 20 22 24 23 16 1z m6032 -1 c-3 -3 -11 0
-18 7 -9 10 -8 11 6 5 10 -3 15 -9 12 -12z m-5988 -24 c-3 -8 -6 -5 -6 6 -1
11 2 17 5 13 3 -3 4 -12 1 -19z m5983 -13 c0 -8 -2 -15 -4 -15 -2 0 -6 7 -10
15 -3 8 -1 15 4 15 6 0 10 -7 10 -15z m80 -5 c0 -5 -5 -10 -11 -10 -5 0 -7 5
-4 10 3 6 8 10 11 10 2 0 4 -4 4 -10z m-5975 -20 c-3 -5 -12 -10 -18 -10 -7 0
-6 4 3 10 19 12 23 12 15 0z m5860 0 c3 -6 -1 -7 -9 -4 -18 7 -21 14 -7 14 6
0 13 -4 16 -10z m-5945 -20 c0 -5 -2 -10 -4 -10 -3 0 -8 5 -11 10 -3 6 -1 10
4 10 6 0 11 -4 11 -10z m44 -16 c3 -8 2 -12 -4 -9 -6 3 -10 10 -10 16 0 14 7
11 14 -7z m5846 1 c0 -8 -10 -19 -22 -25 -22 -10 -22 -10 -4 4 10 8 15 19 11
25 -3 6 -1 11 4 11 6 0 11 -7 11 -15z m-5730 -5 c0 -5 -5 -10 -11 -10 -5 0 -7
5 -4 10 3 6 8 10 11 10 2 0 4 -4 4 -10z m5607 -22 c-3 -8 -6 -5 -6 6 -1 11 2
17 5 13 3 -3 4 -12 1 -19z m-5553 -4 c3 -8 2 -12 -4 -9 -6 3 -10 10 -10 16 0
14 7 11 14 -7z m-159 -4 c-3 -5 -11 -10 -16 -10 -6 0 -7 5 -4 10 3 6 11 10 16
10 6 0 7 -4 4 -10z m-71 -16 c9 -8 16 -20 16 -26 0 -6 -8 -2 -17 9 -10 11 -24
18 -32 15 -8 -3 -11 0 -7 7 10 15 22 14 40 -5z m5767 -27 c-10 -9 -11 -8 -5 6
3 10 9 15 12 12 3 -3 0 -11 -7 -18z m113 7 c3 -8 2 -12 -4 -9 -6 3 -10 10 -10
16 0 14 7 11 14 -7z m-5889 -6 c5 4 5 2 2 -5 -4 -6 -1 -14 5 -17 7 -3 3 -3 -9
-1 -12 3 -24 1 -28 -5 -7 -12 -25 -4 -25 12 0 5 7 7 16 4 12 -5 15 -2 10 10
-5 13 -4 14 7 6 8 -7 18 -8 22 -4z m155 2 c0 -5 -10 -15 -22 -21 -23 -12 -23
-12 -4 10 21 23 26 26 26 11z m5660 -10 c-6 -11 -13 -20 -16 -20 -2 0 0 9 6
20 6 11 13 20 16 20 2 0 0 -9 -6 -20z m55 0 c3 -5 1 -10 -4 -10 -6 0 -11 5
-11 10 0 6 2 10 4 10 3 0 8 -4 11 -10z m65 -42 c0 -5 -9 -8 -20 -8 -11 0 -20
5 -20 10 0 6 -8 10 -17 11 -15 0 -15 2 2 8 20 8 55 -6 55 -21z m-5884 6 c-5
-14 -4 -15 8 -5 12 10 14 6 11 -28 -2 -23 1 -39 5 -36 4 3 10 -1 13 -9 4 -10
0 -12 -14 -9 -15 4 -19 13 -17 32 2 14 -3 31 -11 37 -8 6 -11 16 -7 22 11 18
19 14 12 -4z m91 -6 c-3 -8 -6 -5 -6 6 -1 11 2 17 5 13 3 -3 4 -12 1 -19z
m-122 -6 c-3 -8 2 -20 11 -27 14 -9 14 -14 4 -20 -8 -5 -11 -4 -6 3 3 6 -7 16
-24 24 -37 16 -39 36 -4 36 18 0 24 -5 19 -16z m5864 5 c-2 -1 -12 -9 -22 -16
-15 -12 -17 -12 -11 3 3 9 13 16 22 16 8 0 13 -1 11 -3z m-60 -41 c-3 -3 -11
5 -18 17 -13 21 -12 21 5 5 10 -10 16 -20 13 -22z m-5819 10 c0 -2 -7 -9 -15
-16 -12 -10 -15 -10 -15 4 0 9 7 16 15 16 8 0 15 -2 15 -4z m95 -6 c-3 -5 1
-10 10 -10 9 0 13 -5 10 -10 -5 -8 -11 -7 -21 1 -12 10 -11 29 2 29 3 0 2 -4
-1 -10z m84 -37 c2 -2 -5 -3 -16 -3 -11 0 -20 7 -20 15 0 12 3 12 16 3 9 -7
18 -14 20 -15z m5587 14 c3 -2 -7 -4 -21 -4 -14 0 -27 3 -30 7 -5 8 43 5 51
-3z m-5760 -13 c-5 -13 -2 -15 13 -11 25 6 44 -14 27 -28 -16 -14 -43 -17 -51
-5 -3 5 0 10 7 10 8 0 6 5 -5 11 -14 8 -16 14 -6 25 15 19 23 18 15 -2z m434
12 c0 -3 -4 -8 -10 -11 -5 -3 -10 -1 -10 4 0 6 5 11 10 11 6 0 10 -2 10 -4z
m5270 -16 c0 -5 -5 -10 -11 -10 -5 0 -7 5 -4 10 3 6 8 10 11 10 2 0 4 -4 4
-10z m67 -15 c0 -8 -4 -15 -9 -15 -10 0 -11 14 -1 23 9 10 10 9 10 -8z m-5609
-7 c20 -20 14 -42 -15 -56 -24 -10 -29 -10 -37 5 -14 24 -16 43 -5 43 8 0 13
-15 10 -32 -2 -12 13 -9 35 6 10 8 16 18 12 22 -4 4 -14 1 -23 -6 -10 -8 -15
-9 -15 -1 0 6 5 11 11 11 5 0 7 5 4 10 -9 14 8 13 23 -2z m5569 -38 c1 -11 -2
-22 -6 -25 -7 -3 -8 31 -2 43 3 7 7 0 8 -18z m27 -5 c3 -8 1 -15 -4 -15 -6 0
-10 7 -10 15 0 8 2 15 4 15 2 0 6 -7 10 -15z m-104 -10 c11 -13 10 -14 -4 -9
-9 3 -16 10 -16 15 0 13 6 11 20 -6z m41 -8 c-10 -9 -11 -8 -5 6 3 10 9 15 12
12 3 -3 0 -11 -7 -18z m-5491 9 c0 -24 -15 -35 -38 -29 -21 5 -24 3 -19 -11 4
-9 2 -16 -3 -16 -18 0 -10 29 12 44 21 15 48 21 48 12z m121 -19 c-10 -9 -11
-8 -5 6 3 10 9 15 12 12 3 -3 0 -11 -7 -18z m-271 -7 c0 -5 -4 -10 -10 -10 -5
0 -10 5 -10 10 0 6 5 10 10 10 6 0 10 -4 10 -10z m292 -12 c-7 -7 -12 -8 -12
-2 0 14 12 26 19 19 2 -3 -1 -11 -7 -17z m-241 -2 c-1 -3 -4 -6 -8 -7 -5 0
-14 -5 -20 -11 -9 -7 -13 -7 -13 0 0 6 8 15 17 21 18 9 25 8 24 -3z m5636 8
c-3 -3 -12 -4 -19 -1 -8 3 -5 6 6 6 11 1 17 -2 13 -5z m-57 -8 c0 -3 -4 -8
-10 -11 -5 -3 -10 -1 -10 4 0 6 5 11 10 11 6 0 10 -2 10 -4z m90 -16 c0 -11
-4 -20 -9 -20 -5 0 -7 9 -4 20 3 11 7 20 9 20 2 0 4 -9 4 -20z m-5573 -16 c-7
-7 -37 7 -37 17 0 6 9 5 21 -1 11 -7 19 -14 16 -16z m5426 13 c3 -8 -1 -14 -8
-14 -7 0 -11 6 -8 14 3 7 6 13 8 13 2 0 5 -6 8 -13z m91 -19 c-3 -4 -11 -8
-17 -7 -9 0 -9 2 0 5 7 3 9 13 6 22 -4 14 -3 14 5 2 6 -8 8 -18 6 -22z m-5647
-30 c1 -10 -2 -16 -8 -13 -5 4 -9 1 -9 -4 0 -6 -5 -11 -11 -11 -6 0 -7 5 -2
13 13 21 12 35 -4 41 -8 3 -11 11 -8 17 9 14 41 -19 42 -43z m47 37 c-4 -8 -1
-15 5 -15 6 0 11 5 11 10 0 6 5 10 10 10 6 0 10 -7 10 -15 0 -8 6 -15 13 -16
10 0 10 -2 0 -6 -19 -7 -16 -22 4 -19 9 2 19 10 22 19 5 14 8 14 25 1 11 -8
14 -15 8 -15 -7 -1 -17 -2 -22 -3 -6 0 -15 -8 -20 -16 -7 -11 -10 -11 -10 -2
0 7 -4 10 -10 7 -17 -10 -32 5 -20 20 8 9 8 15 0 20 -5 3 -10 1 -10 -6 0 -10
-3 -10 -12 -1 -8 8 -15 8 -24 1 -10 -8 -12 -6 -11 10 0 11 4 18 8 15 4 -2 10
0 14 6 9 15 15 12 9 -5z m183 -2 c0 -17 -15 -16 -32 1 -12 12 -11 14 9 12 12
0 23 -7 23 -13z m43 1 c0 -8 -19 -13 -24 -6 -3 5 1 9 9 9 8 0 15 -2 15 -3z
m56 -26 c4 -7 4 -10 -1 -6 -4 4 -15 2 -24 -5 -14 -11 -14 -10 -2 6 16 20 18
21 27 5z m5219 2 c3 -5 1 -10 -4 -10 -6 0 -11 5 -11 10 0 6 2 10 4 10 3 0 8
-4 11 -10z m115 -10 c0 -5 -5 -10 -11 -10 -5 0 -7 5 -4 10 3 6 8 10 11 10 2 0
4 -4 4 -10z m-5386 -16 c3 -9 2 -12 -5 -9 -5 4 -18 1 -27 -6 -13 -11 -12 -8 2
9 23 26 22 26 30 6z m-64 -24 c8 -16 8 -20 -2 -18 -7 2 -12 -3 -10 -9 1 -7 -2
-13 -8 -13 -5 0 -10 4 -10 9 0 6 5 13 10 16 6 3 10 11 10 16 0 6 -5 7 -12 3
-7 -4 -8 -3 -4 4 10 16 14 15 26 -8z m5410 -6 c0 -22 -16 -17 -17 6 -1 11 2
18 8 15 5 -4 9 -13 9 -21z m-38 -2 c3 -11 0 -19 -8 -19 -16 0 -16 0 -8 21 8
21 11 20 16 -2z m-5192 4 c0 -2 -7 -9 -15 -16 -13 -11 -14 -10 -9 4 5 14 24
23 24 12z m-50 -22 c0 -2 -7 -4 -15 -4 -8 0 -15 4 -15 10 0 5 7 7 15 4 8 -4
15 -8 15 -10z m-85 -4 c3 -5 1 -10 -4 -10 -6 0 -11 5 -11 10 0 6 2 10 4 10 3
0 8 -4 11 -10z m215 6 c0 -2 -7 -7 -16 -10 -8 -3 -12 -2 -9 4 6 10 25 14 25 6z
m-177 -13 c-7 -2 -13 -12 -13 -20 0 -9 -3 -14 -6 -10 -10 10 4 37 18 36 10 0
10 -2 1 -6z m81 -18 c-9 -14 -18 -25 -21 -25 -5 0 5 18 20 38 17 22 18 13 1
-13z m127 -18 c-10 -9 -11 -8 -5 6 3 10 9 15 12 12 3 -3 0 -11 -7 -18z m4982
8 c-3 -9 -8 -14 -10 -11 -3 3 -2 9 2 15 9 16 15 13 8 -4z m-4913 -9 c0 -3 -4
-8 -10 -11 -5 -3 -10 -1 -10 4 0 6 5 11 10 11 6 0 10 -2 10 -4z m5000 0 c0 -2
-7 -7 -16 -10 -8 -3 -12 -2 -9 4 6 10 25 14 25 6z m55 -40 c-23 -19 -34 -22
-49 -14 -13 7 -16 7 -12 -1 8 -13 -29 -10 -41 4 -5 4 -2 5 5 1 6 -4 12 -2 12
4 0 20 31 23 46 4 9 -11 12 -13 8 -5 -8 15 12 31 41 31 17 0 16 -3 -10 -24z
m-5188 -18 c-3 -8 -6 -5 -6 6 -1 11 2 17 5 13 3 -3 4 -12 1 -19z m190 -28 c-2
-23 -10 -17 -12 10 -1 10 2 17 6 14 4 -2 7 -13 6 -24z m-77 10 c0 -5 -4 -10
-10 -10 -5 0 -10 5 -10 10 0 6 5 10 10 10 6 0 10 -4 10 -10z m5070 -1 c0 -6
-9 -13 -20 -16 -11 -3 -20 -10 -20 -15 0 -5 -4 -6 -10 -3 -17 10 -11 25 13 35
30 12 37 12 37 -1z m-229 -32 c-10 -9 -11 -8 -5 6 3 10 9 15 12 12 3 -3 0 -11
-7 -18z m-5030 -10 c-6 -8 -9 -17 -6 -21 3 -3 -1 -1 -7 4 -10 9 -10 13 2 20
21 13 24 12 11 -3z m95 -8 c18 -17 26 -19 44 -9 28 15 60 21 60 11 0 -5 12 -6
26 -3 20 3 25 2 19 -7 -4 -7 -14 -10 -22 -7 -10 4 -13 1 -8 -13 3 -10 -1 -24
-10 -31 -16 -13 -21 0 -5 16 6 6 5 15 -1 24 -9 12 -10 12 -5 -3 4 -12 2 -17
-6 -14 -7 2 -12 12 -10 22 3 15 0 15 -28 -5 -33 -23 -36 -22 -82 23 -26 25 1
21 28 -4z m445 -12 c-10 -9 -11 -8 -5 6 3 10 9 15 12 12 3 -3 0 -11 -7 -18z
m-156 -7 c-10 -11 -21 -18 -23 -15 -3 3 3 12 14 20 27 20 30 18 9 -5z m4595
10 c0 -5 -5 -10 -11 -10 -5 0 -7 5 -4 10 3 6 8 10 11 10 2 0 4 -4 4 -10z m80
0 c0 -5 -4 -10 -10 -10 -5 0 -10 5 -10 10 0 6 5 10 10 10 6 0 10 -4 10 -10z
m-37 -27 c-7 -2 -13 -12 -13 -20 0 -9 -3 -14 -6 -10 -10 10 4 37 18 36 10 0
10 -2 1 -6z m-4618 -32 c2 -12 0 -19 -6 -16 -5 4 -7 11 -3 16 3 6 0 10 -7 8
-8 -1 -23 0 -34 1 -14 2 -12 4 10 9 36 9 35 9 40 -18z m4658 -5 c-3 -4 -9 -2
-14 5 -13 22 -11 31 5 17 8 -7 12 -17 9 -22z m-4743 20 c0 -3 -4 -8 -10 -11
-5 -3 -10 -1 -10 4 0 6 5 11 10 11 6 0 10 -2 10 -4z m195 -28 c6 -4 2 -8 -7
-8 -10 0 -18 7 -18 17 0 9 3 12 8 7 4 -5 12 -12 17 -16z m4435 8 c0 -2 -8 -10
-17 -17 -16 -13 -17 -12 -4 4 13 16 21 21 21 13z m-149 -29 c-10 -9 -11 -8 -5
6 3 10 9 15 12 12 3 -3 0 -11 -7 -18z m-4371 3 c0 -5 -5 -10 -11 -10 -5 0 -7
5 -4 10 3 6 8 10 11 10 2 0 4 -4 4 -10z m-40 -17 c0 -8 -4 -12 -9 -8 -5 3 -12
1 -15 -4 -3 -5 8 -14 24 -20 17 -5 30 -16 30 -23 0 -10 -2 -10 -9 0 -4 8 -11
13 -15 13 -3 0 -13 2 -21 6 -9 3 -19 3 -22 -1 -9 -9 17 -35 31 -30 6 2 20 -3
31 -11 19 -16 19 -16 -2 -6 -30 15 -32 14 -30 -14 2 -29 22 -46 46 -38 13 4
13 3 2 -5 -19 -13 -3 -35 21 -29 16 5 17 3 7 -9 -7 -8 -18 -13 -25 -10 -8 3
-18 -3 -23 -12 -7 -13 -9 -8 -7 20 3 31 0 36 -16 33 -14 -3 -18 0 -14 10 3 8
2 15 -3 15 -4 0 -6 11 -4 24 3 16 -2 28 -16 38 -20 14 -20 17 -6 45 15 30 45
41 45 16z m62 0 c-6 -3 -10 -9 -6 -14 3 -5 0 -9 -5 -9 -6 0 -11 4 -11 8 0 12
23 32 29 25 3 -3 0 -8 -7 -10z m53 7 c3 -5 1 -10 -4 -10 -6 0 -11 5 -11 10 0
6 2 10 4 10 3 0 8 -4 11 -10z m4400 1 c-3 -5 -1 -12 5 -16 6 -4 8 -11 5 -16
-4 -5 -1 -9 4 -9 6 0 11 7 11 16 0 8 5 12 10 9 8 -5 7 -11 -1 -21 -16 -19 -43
-18 -35 1 3 8 1 15 -4 15 -6 0 -10 7 -10 15 0 8 5 15 11 15 5 0 8 -4 4 -9z
m-33 -23 c-3 -12 -7 -17 -10 -10 -2 7 -9 10 -15 6 -7 -3 -3 2 7 10 25 20 25
20 18 -6z m-92 8 c0 -2 -7 -7 -16 -10 -8 -3 -12 -2 -9 4 6 10 25 14 25 6z
m-4250 -56 c-6 -11 -13 -20 -16 -20 -2 0 0 9 6 20 6 11 13 20 16 20 2 0 0 -9
-6 -20z m-80 -25 c0 -5 -5 -3 -10 5 -5 8 -10 20 -10 25 0 6 5 3 10 -5 5 -8 10
-19 10 -25z m4273 12 c4 3 7 2 7 -4 0 -6 -12 -10 -26 -10 -16 0 -21 2 -14 7 7
4 9 14 6 21 -4 8 -1 6 7 -3 8 -10 17 -15 20 -11z m-4123 -7 c0 -5 -7 -7 -15
-4 -8 4 -15 8 -15 10 0 2 7 4 15 4 8 0 15 -4 15 -10z m-130 -27 c-17 -12 -24
-13 -33 -3 -9 10 -9 11 0 6 6 -3 18 0 25 8 7 8 17 12 21 9 5 -3 -1 -12 -13
-20z m4108 -8 c-3 -3 -9 2 -12 12 -6 14 -5 15 5 6 7 -7 10 -15 7 -18z m-4085
-45 c-7 -27 -13 -25 -11 4 1 14 5 23 9 20 4 -2 5 -13 2 -24z m4012 -19 c-6 -5
-25 10 -25 20 0 5 6 4 14 -3 8 -7 12 -15 11 -17z m-3991 -6 c-4 -10 0 -13 17
-10 14 3 19 1 13 -5 -8 -8 -38 -17 -67 -19 -5 -1 -5 -6 -2 -12 4 -6 13 -8 21
-5 8 3 14 1 14 -3 0 -5 -5 -11 -12 -13 -6 -2 -8 -10 -4 -17 6 -9 11 -9 22 0 8
6 14 8 14 4 0 -4 7 -2 15 5 10 8 12 17 6 24 -6 7 -2 11 15 12 13 1 24 -2 24
-8 0 -5 -4 -7 -9 -4 -5 3 -11 -1 -15 -9 -3 -9 0 -15 9 -15 8 0 15 -4 15 -9 0
-5 -8 -7 -18 -4 -31 8 -72 -14 -69 -38 1 -14 -4 -23 -15 -24 -10 -2 -18 0 -18
5 0 4 -10 6 -22 3 -18 -4 -20 -3 -8 6 8 6 16 27 17 48 2 53 13 82 28 77 7 -3
15 2 18 10 4 9 9 16 11 16 3 0 3 -7 0 -15z m81 5 c-3 -5 -12 -10 -18 -10 -7 0
-6 4 3 10 19 12 23 12 15 0z m80 -8 c-3 -3 -11 0 -18 7 -9 10 -8 11 6 5 10 -3
15 -9 12 -12z m55 -2 c0 -5 -2 -10 -4 -10 -3 0 -8 5 -11 10 -3 6 -1 10 4 10 6
0 11 -4 11 -10z m3604 -16 c9 -24 2 -26 -12 -4 -7 11 -8 20 -3 20 5 0 12 -7
15 -16z m56 -4 c8 -5 11 -10 5 -10 -5 0 -17 5 -25 10 -8 5 -10 10 -5 10 6 0
17 -5 25 -10z m-230 -58 c0 -5 -6 -17 -14 -28 -14 -19 -15 -18 -13 3 0 12 5
19 9 17 4 -3 8 0 8 5 0 6 2 11 5 11 3 0 5 -4 5 -8z m-3497 -36 c19 2 27 1 19
-4 -18 -12 -55 -8 -58 7 -1 6 0 7 2 3 3 -5 19 -8 37 -6z m3522 4 c3 -5 1 -10
-4 -10 -6 0 -11 5 -11 10 0 6 2 10 4 10 3 0 8 -4 11 -10z m-3572 -36 c-3 -7
-10 -11 -16 -7 -8 5 -7 8 1 11 10 3 10 7 0 20 -12 15 -11 15 4 4 9 -8 14 -20
11 -28z m142 16 c-3 -5 -12 -10 -18 -10 -7 0 -6 4 3 10 19 12 23 12 15 0z
m3285 6 c0 -3 -4 -8 -10 -11 -5 -3 -10 -1 -10 4 0 6 5 11 10 11 6 0 10 -2 10
-4z m-20 -41 c0 -5 -5 -3 -10 5 -5 8 -10 20 -10 25 0 6 5 3 10 -5 5 -8 10 -19
10 -25z m-3380 4 c0 -11 -4 -18 -10 -14 -5 3 -7 12 -3 20 7 21 13 19 13 -6z
m3231 -64 c5 4 9 2 9 -4 0 -6 -10 -15 -22 -22 -17 -9 -20 -9 -15 4 3 8 0 20
-6 27 -9 10 -9 11 1 6 7 -5 13 0 13 11 1 13 3 11 6 -5 2 -12 9 -20 14 -17z
m-3181 9 c0 -2 -7 -4 -15 -4 -8 0 -15 4 -15 10 0 5 7 7 15 4 8 -4 15 -8 15
-10z m65 -24 c-3 -5 -11 -10 -16 -10 -6 0 -7 5 -4 10 3 6 11 10 16 10 6 0 7
-4 4 -10z m-15 -34 c0 -3 -4 -8 -10 -11 -5 -3 -10 -1 -10 4 0 6 5 11 10 11 6
0 10 -2 10 -4z m100 -40 c0 -3 -4 -8 -10 -11 -5 -3 -10 -1 -10 4 0 6 5 11 10
11 6 0 10 -2 10 -4z m-40 -70 c0 -12 -5 -7 -19 24 -11 24 -11 24 3 6 9 -11 16
-24 16 -30z m2550 14 c0 -5 -4 -10 -10 -10 -5 0 -10 5 -10 10 0 6 5 10 10 10
6 0 10 -4 10 -10z m-2525 -40 c3 -6 -1 -7 -9 -4 -18 7 -21 14 -7 14 6 0 13 -4
16 -10z m40 -51 c17 -32 15 -46 -5 -34 -6 4 -9 13 -6 21 3 8 1 14 -5 14 -6 0
-7 6 -3 13 4 6 -3 3 -16 -8 -13 -11 -20 -14 -16 -7 4 6 3 12 -3 12 -5 0 -11
-5 -13 -12 -3 -7 -7 -5 -11 6 -4 9 -3 15 1 12 4 -2 14 -1 22 5 25 15 39 10 55
-22z m60 -21 c5 4 5 1 1 -6 -6 -10 -11 -10 -22 -1 -8 6 -14 14 -14 16 0 3 6 0
13 -6 8 -6 18 -7 22 -3z m12 -60 c-3 -8 -6 -5 -6 6 -1 11 2 17 5 13 3 -3 4
-12 1 -19z"/>
<path d="M6168 3988 c5 -5 16 -8 23 -6 8 3 3 7 -10 11 -17 4 -21 3 -13 -5z"/>
<path d="M6095 3960 c-3 -5 -1 -10 4 -10 6 0 11 5 11 10 0 6 -2 10 -4 10 -3 0
-8 -4 -11 -10z"/>
<path d="M10897 4999 c7 -7 15 -10 18 -7 3 3 -2 9 -12 12 -14 6 -15 5 -6 -5z"/>
<path d="M11205 4990 c3 -5 8 -10 11 -10 2 0 4 5 4 10 0 6 -5 10 -11 10 -5 0
-7 -4 -4 -10z"/>
<path d="M10875 4980 c3 -5 8 -10 11 -10 2 0 4 5 4 10 0 6 -5 10 -11 10 -5 0
-7 -4 -4 -10z"/>
<path d="M11156 4981 c-4 -5 1 -8 9 -7 21 3 31 16 12 16 -9 0 -18 -4 -21 -9z"/>
<path d="M11360 4983 c0 -6 8 -17 18 -24 16 -13 16 -13 2 6 -8 11 -16 22 -17
24 -2 2 -3 0 -3 -6z"/>
<path d="M11466 4943 c-6 -14 -5 -15 5 -6 7 7 10 15 7 18 -3 3 -9 -2 -12 -12z"/>
<path d="M11531 4944 c13 -16 29 -19 29 -5 0 5 -9 11 -21 14 -16 4 -18 3 -8
-9z"/>
<path d="M11496 4941 c-3 -5 1 -11 9 -14 9 -4 12 -1 8 9 -6 16 -10 17 -17 5z"/>
<path d="M11625 4860 c-3 -5 -1 -10 4 -10 6 0 11 5 11 10 0 6 -2 10 -4 10 -3
0 -8 -4 -11 -10z"/>
<path d="M10075 4830 c3 -5 8 -10 11 -10 2 0 4 5 4 10 0 6 -5 10 -11 10 -5 0
-7 -4 -4 -10z"/>
<path d="M11718 4823 c7 -3 16 -2 19 1 4 3 -2 6 -13 5 -11 0 -14 -3 -6 -6z"/>
<path d="M10030 4800 c0 -5 7 -7 15 -4 8 4 15 8 15 10 0 2 -7 4 -15 4 -8 0
-15 -4 -15 -10z"/>
<path d="M11716 4773 c-6 -14 -5 -15 5 -6 7 7 10 15 7 18 -3 3 -9 -2 -12 -12z"/>
<path d="M11746 4727 c3 -10 9 -15 12 -12 3 3 0 11 -7 18 -10 9 -11 8 -5 -6z"/>
<path d="M11788 4713 c-10 -2 -18 -9 -18 -14 0 -6 8 -5 20 1 11 6 20 13 20 15
0 3 -1 4 -2 4 -2 -1 -11 -3 -20 -6z"/>
<path d="M11777 4674 c-9 -10 -9 -25 1 -21 4 1 8 -2 9 -8 0 -5 -4 -9 -9 -7 -6
2 -8 -4 -5 -11 3 -8 0 -20 -6 -26 -8 -8 -8 -11 1 -11 7 0 12 4 12 8 0 5 7 17
16 28 13 16 15 16 10 2 -3 -10 -1 -18 4 -18 6 0 10 12 10 26 0 14 -4 23 -9 19
-6 -3 -14 2 -18 10 -5 9 -12 12 -16 9z"/>
<path d="M11827 4663 c3 -7 11 -13 19 -13 7 0 11 6 8 13 -3 8 -11 14 -18 14
-8 0 -12 -6 -9 -14z"/>
<path d="M11735 4620 c3 -5 8 -10 11 -10 2 0 4 5 4 10 0 6 -5 10 -11 10 -5 0
-7 -4 -4 -10z"/>
<path d="M9450 4560 c0 -5 7 -10 16 -10 8 0 12 5 9 10 -3 6 -10 10 -16 10 -5
0 -9 -4 -9 -10z"/>
<path d="M9325 4480 c-10 -12 -13 -20 -7 -20 7 0 12 4 12 9 0 5 8 11 18 13 11
2 13 6 6 10 -6 4 -19 -1 -29 -12z"/>
<path d="M11600 4456 c0 -2 7 -7 16 -10 8 -3 12 -2 9 4 -6 10 -25 14 -25 6z"/>
<path d="M9315 4440 c-3 -6 1 -7 9 -4 18 7 21 14 7 14 -6 0 -13 -4 -16 -10z"/>
<path d="M11457 4357 c-3 -8 1 -14 8 -14 7 0 11 6 8 14 -3 7 -6 13 -8 13 -2 0
-5 -6 -8 -13z"/>
<path d="M9120 4310 c0 -5 5 -10 11 -10 5 0 7 5 4 10 -3 6 -8 10 -11 10 -2 0
-4 -4 -4 -10z"/>
<path d="M9133 4222 c-13 -2 -23 -7 -23 -12 0 -4 15 -6 32 -3 l33 5 -20 -22
c-11 -12 -21 -17 -23 -11 -2 6 -8 8 -14 5 -5 -3 0 -13 12 -21 18 -12 19 -17 8
-31 -11 -13 -11 -14 2 -10 9 3 14 15 12 32 -2 22 3 29 30 41 28 12 30 14 10
15 -13 0 -21 4 -18 8 5 9 -4 10 -41 4z"/>
<path d="M11250 4220 c0 -5 5 -10 11 -10 5 0 7 5 4 10 -3 6 -8 10 -11 10 -2 0
-4 -4 -4 -10z"/>
<path d="M11320 4220 c0 -5 7 -7 15 -4 8 4 15 8 15 10 0 2 -7 4 -15 4 -8 0
-15 -4 -15 -10z"/>
<path d="M11184 4159 c-3 -6 -1 -16 4 -21 8 -8 11 -5 9 11 -1 24 -3 25 -13 10z"/>
<path d="M9270 4149 c0 -5 4 -8 9 -4 5 3 12 1 16 -5 3 -5 11 -10 18 -10 6 0 2
7 -9 15 -23 17 -34 19 -34 4z"/>
<path d="M9311 4104 c0 -11 3 -14 6 -6 3 7 2 16 -1 19 -3 4 -6 -2 -5 -13z"/>
<path d="M9456 4082 c-2 -4 4 -8 14 -8 10 0 16 4 14 8 -3 4 -9 8 -14 8 -5 0
-11 -4 -14 -8z"/>
<path d="M10816 4001 c-4 -7 -5 -15 -2 -18 9 -9 19 4 14 18 -4 11 -6 11 -12 0z"/>
<path d="M9735 3970 c3 -5 8 -10 11 -10 2 0 4 5 4 10 0 6 -5 10 -11 10 -5 0
-7 -4 -4 -10z"/>
<path d="M9850 3960 c-9 -6 -10 -10 -3 -10 6 0 15 5 18 10 8 12 4 12 -15 0z"/>
<path d="M10158 3943 c7 -3 16 -2 19 1 4 3 -2 6 -13 5 -11 0 -14 -3 -6 -6z"/>
<path d="M10308 3931 c-20 -20 -24 -41 -7 -41 6 0 9 7 5 15 -3 10 1 15 13 15
10 0 18 7 18 15 0 19 -8 18 -29 -4z"/>
<path d="M10355 3940 c-8 -13 3 -30 18 -30 8 0 7 3 -2 9 -7 5 -10 14 -7 20 4
6 5 11 2 11 -3 0 -8 -4 -11 -10z"/>
<path d="M10598 3943 c7 -3 16 -2 19 1 4 3 -2 6 -13 5 -11 0 -14 -3 -6 -6z"/>
<path d="M10003 3930 c2 -8 14 -16 28 -17 19 -1 20 -1 4 4 -11 3 -24 10 -28
17 -6 7 -7 6 -4 -4z"/>
<path d="M10060 3920 c0 -5 7 -7 15 -4 8 4 15 8 15 10 0 2 -7 4 -15 4 -8 0
-15 -4 -15 -10z"/>
<path d="M10120 3918 c0 -4 4 -8 9 -8 6 0 12 4 15 8 3 5 -1 9 -9 9 -8 0 -15
-4 -15 -9z"/>
<path d="M10160 3897 c0 -19 10 -27 26 -20 11 4 12 9 3 19 -15 18 -29 18 -29
1z"/>
<path d="M10207 3895 c3 -8 9 -12 14 -9 12 7 11 11 -5 17 -10 4 -13 1 -9 -8z"/>
<path d="M4235 2350 c3 -5 8 -10 11 -10 2 0 4 5 4 10 0 6 -5 10 -11 10 -5 0
-7 -4 -4 -10z"/>
<path d="M5340 1191 c0 -5 5 -13 10 -16 6 -3 10 -2 10 4 0 5 -4 13 -10 16 -5
3 -10 2 -10 -4z"/>
<path d="M5342 1154 c10 -10 20 -15 24 -12 3 4 -5 12 -18 18 -22 12 -22 12 -6
-6z"/>
<path d="M11875 6160 c-3 -5 -1 -10 4 -10 6 0 11 5 11 10 0 6 -2 10 -4 10 -3
0 -8 -4 -11 -10z"/>
<path d="M11508 6023 c7 -3 16 -2 19 1 4 3 -2 6 -13 5 -11 0 -14 -3 -6 -6z"/>
<path d="M10877 5739 c7 -7 15 -10 18 -7 3 3 -2 9 -12 12 -14 6 -15 5 -6 -5z"/>
<path d="M10745 5650 c-3 -6 1 -7 9 -4 18 7 21 14 7 14 -6 0 -13 -4 -16 -10z"/>
<path d="M10409 5473 c-13 -16 -12 -17 4 -4 9 7 17 15 17 17 0 8 -8 3 -21 -13z"/>
<path d="M10010 5315 c-10 -12 -9 -15 4 -15 10 0 15 4 12 9 -4 5 0 12 6 14 8
4 9 6 2 6 -6 1 -17 -6 -24 -14z"/>
<path d="M9845 5240 c-3 -5 -1 -10 4 -10 6 0 11 5 11 10 0 6 -2 10 -4 10 -3 0
-8 -4 -11 -10z"/>
<path d="M9470 5105 c0 -8 4 -15 8 -15 5 0 9 7 9 15 0 8 -4 15 -9 15 -4 0 -8
-7 -8 -15z"/>
<path d="M9200 4984 c0 -8 5 -12 10 -9 6 3 10 10 10 16 0 5 -4 9 -10 9 -5 0
-10 -7 -10 -16z"/>
<path d="M8730 4805 c-7 -9 -8 -15 -2 -15 5 0 12 7 16 15 3 8 4 15 2 15 -2 0
-9 -7 -16 -15z"/>
<path d="M8423 4695 c0 -8 4 -12 9 -9 5 3 6 10 3 15 -9 13 -12 11 -12 -6z"/>
<path d="M7596 4432 c-3 -4 4 -9 15 -9 23 -2 25 3 4 10 -8 4 -16 3 -19 -1z"/>
<path d="M11698 3335 c5 -29 8 -31 15 -11 3 8 0 19 -7 25 -10 9 -12 6 -8 -14z"/>
<path d="M4250 3331 c0 -6 4 -13 10 -16 6 -3 7 1 4 9 -7 18 -14 21 -14 7z"/>
<path d="M11635 3310 c-3 -5 3 -10 15 -10 12 0 18 5 15 10 -3 6 -10 10 -15 10
-5 0 -12 -4 -15 -10z"/>
<path d="M11626 3233 c-6 -14 -5 -15 5 -6 7 7 10 15 7 18 -3 3 -9 -2 -12 -12z"/>
<path d="M4090 3230 c8 -5 20 -10 25 -10 6 0 3 5 -5 10 -8 5 -19 10 -25 10 -5
0 -3 -5 5 -10z"/>
<path d="M11555 3171 c-3 -5 -1 -12 5 -16 5 -3 10 1 10 9 0 18 -6 21 -15 7z"/>
<path d="M11380 3015 c0 -7 -7 -18 -16 -23 -11 -6 -13 -11 -5 -16 6 -4 15 -5
20 -2 12 8 20 56 10 56 -5 0 -9 -7 -9 -15z"/>
<path d="M4153 2932 c-9 -15 -7 -21 8 -30 10 -7 19 -8 19 -3 0 5 -6 12 -12 15
-10 5 -10 7 0 12 6 3 12 10 12 15 0 15 -14 10 -27 -9z"/>
<path d="M11275 2930 c3 -5 11 -10 16 -10 6 0 7 5 4 10 -3 6 -11 10 -16 10 -6
0 -7 -4 -4 -10z"/>
<path d="M4198 2888 c10 -13 10 -17 0 -20 -9 -3 -9 -6 0 -12 7 -4 12 -2 12 3
0 6 5 11 10 11 6 0 10 -7 10 -15 0 -23 16 -18 17 5 1 13 -2 18 -9 14 -8 -5 -9
-1 -4 12 6 15 5 16 -5 7 -10 -10 -16 -10 -28 0 -14 10 -14 10 -3 -5z"/>
<path d="M4130 2866 c0 -2 7 -7 16 -10 8 -3 12 -2 9 4 -6 10 -25 14 -25 6z"/>
<path d="M4205 2820 c-4 -6 -11 -8 -16 -5 -5 4 -9 1 -9 -6 0 -10 -3 -10 -12
-1 -7 7 -17 12 -22 12 -6 0 -3 -7 8 -15 14 -10 24 -12 38 -4 14 7 23 7 34 -2
10 -8 14 -8 14 0 0 6 -5 11 -11 11 -5 0 -7 5 -4 10 3 6 2 10 -4 10 -5 0 -13
-5 -16 -10z"/>
<path d="M11207 2779 c7 -7 15 -10 18 -7 3 3 -2 9 -12 12 -14 6 -15 5 -6 -5z"/>
<path d="M4153 2764 c0 -6 5 -11 11 -11 31 0 46 -4 46 -14 0 -5 -4 -8 -8 -5
-5 3 -9 -1 -9 -8 0 -11 5 -11 17 -4 23 14 21 50 -2 42 -10 -3 -18 -2 -18 3 0
5 -8 9 -18 9 -10 0 -19 -5 -19 -12z"/>
<path d="M11143 2757 c0 -8 6 -14 14 -14 9 0 10 4 2 14 -6 7 -12 13 -14 13 -1
0 -2 -6 -2 -13z"/>
<path d="M11110 2743 c0 -4 5 -15 10 -23 8 -13 10 -13 10 2 0 9 -4 20 -10 23
-5 3 -10 3 -10 -2z"/>
<path d="M4165 2720 c3 -5 8 -10 11 -10 2 0 4 5 4 10 0 6 -5 10 -11 10 -5 0
-7 -4 -4 -10z"/>
<path d="M11012 2699 c-8 -12 -8 -19 -2 -19 5 0 10 4 10 10 0 5 7 7 15 4 11
-5 12 -10 4 -26 -8 -15 -8 -23 2 -32 9 -8 10 -8 4 3 -6 11 -4 13 9 8 12 -5 15
-3 9 6 -4 6 -6 19 -5 27 1 8 -6 20 -16 26 -15 10 -21 8 -30 -7z"/>
<path d="M4152 2694 c10 -10 20 -16 22 -13 3 3 -5 11 -17 18 -21 13 -21 12 -5
-5z"/>
<path d="M4117 2663 c-3 -5 1 -14 9 -20 14 -14 30 0 19 17 -7 12 -22 13 -28 3z"/>
<path d="M10994 2597 c0 -15 6 -23 14 -20 10 4 10 9 0 22 -7 9 -13 17 -14 19
-1 2 -1 -8 0 -21z"/>
<path d="M10927 2539 c7 -7 15 -10 18 -7 3 3 -2 9 -12 12 -14 6 -15 5 -6 -5z"/>
<path d="M4080 2536 c0 -2 9 -6 20 -9 11 -3 18 -1 14 4 -5 9 -34 13 -34 5z"/>
<path d="M10940 2500 c0 -5 5 -10 10 -10 6 0 10 5 10 10 0 6 -4 10 -10 10 -5
0 -10 -4 -10 -10z"/>
<path d="M4080 2490 c-9 -6 -10 -10 -3 -10 6 0 15 5 18 10 8 12 4 12 -15 0z"/>
<path d="M10910 2470 c0 -5 5 -10 11 -10 5 0 7 5 4 10 -3 6 -8 10 -11 10 -2 0
-4 -4 -4 -10z"/>
<path d="M4090 2451 c0 -5 5 -13 10 -16 6 -3 10 -2 10 4 0 5 -4 13 -10 16 -5
3 -10 2 -10 -4z"/>
<path d="M10846 2447 c-16 -12 -16 -14 -2 -14 9 0 16 4 16 9 0 5 5 6 12 2 7
-4 8 -3 4 4 -9 15 -8 15 -30 -1z"/>
<path d="M4040 2436 c0 -2 8 -10 18 -17 15 -13 16 -12 3 4 -13 16 -21 21 -21
13z"/>
<path d="M10794 2418 c-4 -6 -3 -8 4 -4 6 3 12 -2 14 -11 3 -16 4 -17 10 -1 8
19 -17 33 -28 16z"/>
<path d="M10969 2403 c-13 -16 -12 -17 4 -4 16 13 21 21 13 21 -2 0 -10 -8
-17 -17z"/>
<path d="M10705 2400 c-4 -6 3 -10 14 -10 25 0 27 6 6 13 -8 4 -17 2 -20 -3z"/>
<path d="M10770 2390 c0 -5 5 -10 11 -10 5 0 7 5 4 10 -3 6 -8 10 -11 10 -2 0
-4 -4 -4 -10z"/>
<path d="M4085 2370 c3 -5 8 -10 11 -10 2 0 4 5 4 10 0 6 -5 10 -11 10 -5 0
-7 -4 -4 -10z"/>
<path d="M10741 2364 c0 -11 3 -14 6 -6 3 7 2 16 -1 19 -3 4 -6 -2 -5 -13z"/>
<path d="M10646 2361 c-10 -15 5 -41 22 -41 13 0 12 3 -4 16 -18 15 -18 15 0
10 16 -6 17 -4 6 9 -15 18 -17 18 -24 6z"/>
<path d="M4061 2357 c2 -1 13 -9 24 -17 19 -14 19 -14 6 3 -7 9 -18 17 -24 17
-6 0 -8 -1 -6 -3z"/>
<path d="M4146 2321 c-3 -4 3 -16 13 -25 17 -16 19 -16 23 2 4 16 1 18 -15 14
-14 -3 -18 -1 -13 6 4 7 5 12 2 12 -3 0 -7 -4 -10 -9z"/>
<path d="M10664 2303 c10 -11 37 -12 30 -2 -3 5 -12 9 -21 9 -9 0 -13 -3 -9
-7z"/>
<path d="M4118 2293 c6 -2 9 -10 6 -15 -4 -7 -2 -8 5 -4 13 9 5 26 -12 25 -9
0 -8 -2 1 -6z"/>
<path d="M10688 2273 c7 -3 16 -2 19 1 4 3 -2 6 -13 5 -11 0 -14 -3 -6 -6z"/>
<path d="M4186 2257 c2 -7 14 -13 25 -13 19 0 19 1 3 13 -10 7 -21 13 -26 13
-4 0 -5 -6 -2 -13z"/>
<path d="M10573 2263 c9 -2 14 -9 11 -15 -4 -6 1 -8 15 -3 11 3 21 2 21 -3 0
-14 -28 -23 -35 -12 -4 6 -13 10 -21 10 -8 0 -13 -4 -9 -9 6 -11 -13 -25 -37
-27 -36 -3 -39 -4 -34 -13 6 -10 54 -2 61 10 3 4 12 6 20 2 8 -3 15 -1 15 4 0
13 30 12 31 -1 0 -6 5 0 10 13 12 29 3 39 -36 44 -17 3 -22 2 -12 0z"/>
<path d="M10651 2253 c-7 -8 -11 -16 -8 -19 2 -2 10 2 17 11 17 20 9 27 -9 8z"/>
<path d="M10695 2250 c-3 -6 1 -7 9 -4 18 7 21 14 7 14 -6 0 -13 -4 -16 -10z"/>
<path d="M4151 2232 c6 -10 18 -19 25 -19 19 0 18 2 -11 21 -25 16 -25 16 -14
-2z"/>
<path d="M4202 2210 c-9 -16 -9 -18 2 -14 8 3 17 1 21 -5 3 -6 1 -11 -4 -11
-6 0 -11 -10 -11 -22 1 -21 1 -22 11 -5 10 16 13 17 27 4 11 -10 24 -12 37 -7
17 7 16 9 -13 15 -18 4 -31 13 -29 19 3 6 10 10 16 9 6 -2 11 2 11 7 0 13 -13
13 -28 -2 -9 -9 -13 -6 -19 10 -8 21 -9 21 -21 2z"/>
<path d="M10689 2203 c-13 -16 -12 -17 4 -4 9 7 17 15 17 17 0 8 -8 3 -21 -13z"/>
<path d="M4318 2199 c-10 -5 -15 -16 -12 -24 8 -21 22 -19 20 3 0 9 5 16 12
15 6 -2 12 2 12 7 0 12 -10 12 -32 -1z"/>
<path d="M10373 2170 c3 -10 -1 -25 -9 -31 -12 -10 -9 -16 18 -36 18 -13 39
-31 46 -40 6 -9 12 -12 12 -6 0 7 -6 18 -13 25 -7 7 -15 18 -18 23 -2 6 -7 9
-11 8 -5 -2 -8 2 -8 7 0 6 6 10 13 10 8 0 7 4 -3 10 -13 8 -13 10 2 10 30 0
29 18 -3 29 -29 10 -31 9 -26 -9z"/>
<path d="M10514 2172 c-6 -4 -10 -17 -9 -29 2 -26 -21 -39 -29 -17 -3 9 -10
13 -15 10 -5 -4 -11 0 -14 6 -2 7 -8 9 -13 5 -10 -10 16 -28 30 -20 5 4 7 -1
3 -11 -4 -10 -3 -15 3 -11 6 3 10 2 10 -3 0 -6 -7 -12 -15 -16 -8 -3 -15 -11
-14 -18 0 -10 2 -10 6 0 2 6 11 12 18 12 8 0 19 9 25 20 6 11 15 18 21 15 5
-4 9 -2 9 4 0 5 -5 11 -11 13 -9 3 -9 10 0 26 13 24 12 26 -5 14z"/>
<path d="M10541 2153 c2 -24 2 -25 6 -5 3 13 9 19 15 16 7 -4 8 -2 4 4 -13 21
-26 13 -25 -15z"/>
<path d="M4140 2161 c0 -5 7 -11 15 -15 8 -3 15 -1 15 3 0 5 -7 11 -15 15 -8
3 -15 1 -15 -3z"/>
<path d="M10606 2152 c-2 -4 -1 -14 3 -21 6 -10 10 -9 14 3 6 16 -8 32 -17 18z"/>
<path d="M4243 2122 c10 -10 14 -22 10 -25 -3 -4 -2 -7 4 -7 6 0 14 7 17 16 3
8 2 12 -4 9 -6 -3 -13 1 -16 9 -3 9 -11 16 -17 16 -5 0 -3 -8 6 -18z"/>
<path d="M4190 2101 c0 -25 6 -27 13 -6 4 8 2 17 -3 20 -6 4 -10 -3 -10 -14z"/>
<path d="M4223 2078 c1 -21 4 -24 14 -16 15 12 18 22 4 13 -5 -3 -12 3 -14 12
-3 10 -4 6 -4 -9z"/>
<path d="M4252 2044 c-7 -8 -8 -14 -3 -14 10 0 25 19 20 25 -2 1 -10 -3 -17
-11z"/>
<path d="M10480 2045 c0 -8 2 -15 4 -15 2 0 6 7 10 15 3 8 1 15 -4 15 -6 0
-10 -7 -10 -15z"/>
<path d="M4320 2020 c-8 -16 -8 -20 4 -20 9 0 14 8 13 20 -1 11 -2 20 -4 20
-1 0 -7 -9 -13 -20z"/>
<path d="M4355 2010 c-3 -5 -1 -10 5 -10 6 0 8 -10 4 -25 -5 -20 -2 -25 12
-25 13 0 15 3 7 8 -7 5 -9 13 -3 21 9 16 3 41 -10 41 -5 0 -12 -4 -15 -10z"/>
<path d="M10442 2008 c-15 -15 -15 -25 1 -31 7 -3 12 4 12 19 0 13 0 24 0 24
-1 0 -6 -5 -13 -12z"/>
<path d="M10385 1999 c-4 -6 -4 -13 -1 -16 3 -3 1 -12 -4 -18 -13 -16 6 -62
25 -62 10 0 8 7 -6 25 -12 16 -16 29 -10 35 5 5 7 16 3 25 -4 11 -1 14 12 9
10 -4 15 -3 11 3 -8 13 -22 13 -30 -1z"/>
<path d="M10327 1986 c-3 -7 4 -13 14 -13 26 -2 33 14 10 20 -11 3 -22 -1 -24
-7z"/>
<path d="M10494 1989 c-3 -6 -2 -15 3 -20 5 -5 9 -1 9 11 0 23 -2 24 -12 9z"/>
<path d="M4307 1974 c4 -11 3 -15 -5 -10 -7 4 -10 -1 -9 -14 1 -20 2 -20 14
-4 16 21 16 31 3 39 -6 4 -7 -1 -3 -11z"/>
<path d="M4258 1963 c7 -3 16 -2 19 1 4 3 -2 6 -13 5 -11 0 -14 -3 -6 -6z"/>
<path d="M4324 1949 c-3 -6 -2 -15 3 -20 5 -5 9 -1 10 11 2 22 -2 25 -13 9z"/>
<path d="M10330 1949 c-11 -6 -12 -9 -2 -9 7 0 11 -4 8 -8 -3 -5 9 -19 27 -32
l32 -24 -23 28 c-12 16 -19 32 -17 36 8 13 -10 20 -25 9z"/>
<path d="M4238 1943 c-10 -2 -18 -9 -18 -13 0 -6 10 -6 24 0 13 5 27 6 32 2 4
-4 4 -1 0 6 -7 12 -9 13 -38 5z"/>
<path d="M4255 1909 c7 -11 35 -12 35 -1 0 4 -9 8 -20 9 -11 1 -18 -2 -15 -8z"/>
<path d="M4300 1910 c0 -5 5 -10 10 -10 6 0 10 5 10 10 0 6 -4 10 -10 10 -5 0
-10 -4 -10 -10z"/>
<path d="M10340 1896 c0 -2 8 -10 18 -17 15 -13 16 -12 3 4 -13 16 -21 21 -21
13z"/>
<path d="M10487 1889 c7 -7 15 -10 18 -7 3 3 -2 9 -12 12 -14 6 -15 5 -6 -5z"/>
<path d="M4260 1870 c6 -11 15 -20 20 -20 6 0 2 9 -7 20 -10 11 -19 20 -21 20
-1 0 2 -9 8 -20z"/>
<path d="M4309 1888 c-1 -2 -3 -13 -4 -25 -2 -16 2 -20 13 -15 10 3 11 7 5 9
-7 3 -9 11 -6 19 4 11 -3 22 -8 12z"/>
<path d="M4370 1883 c0 -15 18 -35 23 -27 3 5 -1 15 -9 22 -8 7 -14 9 -14 5z"/>
<path d="M4435 1880 c3 -5 8 -10 11 -10 2 0 4 5 4 10 0 6 -5 10 -11 10 -5 0
-7 -4 -4 -10z"/>
<path d="M10296 1875 c-3 -8 -2 -15 3 -15 5 0 14 7 21 15 10 12 10 15 -3 15
-8 0 -17 -7 -21 -15z"/>
<path d="M10403 1862 c0 -12 5 -22 9 -22 11 0 10 12 -2 30 -7 12 -9 10 -7 -8z"/>
<path d="M4345 1840 c-3 -5 -1 -10 4 -10 6 0 11 5 11 10 0 6 -2 10 -4 10 -3 0
-8 -4 -11 -10z"/>
<path d="M4413 1820 c-7 -18 -8 -32 -2 -36 5 -3 9 -2 8 3 -1 4 1 16 5 25 4 10
6 22 4 28 -2 6 -8 -3 -15 -20z"/>
<path d="M10341 1834 c0 -11 3 -14 6 -6 3 7 2 16 -1 19 -3 4 -6 -2 -5 -13z"/>
<path d="M4063 1826 c1 -11 9 -21 17 -23 10 -3 11 -2 4 4 -6 4 -14 15 -17 23
-5 11 -6 9 -4 -4z"/>
<path d="M4272 1814 c-7 -8 -8 -14 -3 -14 10 0 25 19 20 25 -2 1 -10 -3 -17
-11z"/>
<path d="M10248 1823 c-28 -4 -36 -17 -19 -27 5 -4 11 -1 13 5 3 9 9 9 26 0
14 -8 22 -8 22 -1 0 5 -5 10 -11 10 -5 0 -7 5 -4 10 3 6 5 9 3 9 -2 -1 -15 -4
-30 -6z"/>
<path d="M4347 1806 c-4 -10 -1 -13 8 -9 8 3 12 9 9 14 -7 12 -11 11 -17 -5z"/>
<path d="M10188 1792 c-13 -23 -13 -31 -2 -57 7 -16 13 -40 14 -51 0 -14 8
-24 23 -27 21 -6 21 -5 3 8 -10 7 -15 18 -12 24 4 5 2 12 -4 16 -5 3 -10 11
-10 17 0 6 3 9 6 5 4 -3 13 0 20 8 8 8 22 11 31 8 12 -5 14 -3 8 7 -6 10 -4
12 8 7 10 -4 17 -1 17 6 0 7 -11 12 -25 12 -14 0 -25 -5 -25 -11 0 -11 -22
-24 -41 -24 -5 0 -9 9 -9 21 0 11 5 17 10 14 6 -4 7 -11 4 -17 -4 -7 -2 -8 5
-4 10 6 9 52 -2 62 -1 2 -10 -9 -19 -24z"/>
<path d="M4375 1760 c-3 -6 1 -7 9 -4 18 7 21 14 7 14 -6 0 -13 -4 -16 -10z"/>
<path d="M10331 1753 c7 -10 14 -19 15 -21 1 -2 4 4 8 13 3 9 2 13 -4 10 -6
-3 -10 -1 -10 4 0 6 -5 11 -11 11 -8 0 -7 -6 2 -17z"/>
<path d="M4462 1740 c9 -14 14 -16 20 -7 12 18 10 23 -12 24 -17 1 -18 -1 -8
-17z"/>
<path d="M4503 1738 c-7 -9 -4 -19 9 -30 10 -10 18 -14 18 -9 0 6 -5 13 -11
16 -6 4 -8 13 -5 21 7 17 2 18 -11 2z"/>
<path d="M10250 1720 c-23 -8 -23 -8 7 -7 17 1 29 5 27 9 -3 4 -6 8 -7 7 -1
-1 -13 -5 -27 -9z"/>
<path d="M4510 1659 c0 -11 4 -18 10 -14 5 3 7 12 3 20 -7 21 -13 19 -13 -6z"/>
<path d="M4647 1650 c-4 -17 -2 -20 13 -15 9 3 29 1 43 -4 18 -7 27 -7 31 2 2
7 5 4 5 -6 1 -10 6 -15 11 -12 6 3 10 2 10 -4 0 -5 -6 -11 -12 -14 -7 -2 -3
-3 9 -1 17 3 20 0 17 -19 -4 -20 -4 -20 5 -2 7 15 3 26 -16 47 -14 14 -31 24
-38 22 -7 -3 -16 -1 -19 5 -4 6 -14 7 -22 4 -9 -3 -19 0 -24 6 -5 9 -9 6 -13
-9z"/>
<path d="M10155 1650 c-3 -5 -1 -10 5 -10 6 0 8 -6 4 -12 -4 -7 -3 -9 1 -5 12
10 15 37 5 37 -5 0 -12 -4 -15 -10z"/>
<path d="M4547 1619 c12 -12 24 -21 27 -18 2 2 -8 13 -22 23 l-27 19 22 -24z"/>
<path d="M4580 1628 c0 -5 4 -7 9 -4 5 4 11 1 13 -5 3 -8 7 -7 15 2 9 11 6 14
-13 15 -13 1 -24 -2 -24 -8z"/>
<path d="M4815 1600 c-26 -27 -26 -35 -1 -31 5 1 6 -13 2 -31 -4 -23 -3 -29 4
-18 9 14 11 13 14 -9 0 -5 5 -13 10 -18 5 -5 6 -3 2 5 -4 7 -2 12 5 12 8 0 7
4 -3 13 -24 18 -30 75 -10 86 9 5 14 12 11 15 -3 3 -18 -8 -34 -24z"/>
<path d="M4690 1609 c0 -5 5 -7 10 -4 6 3 10 8 10 11 0 2 -4 4 -10 4 -5 0 -10
-5 -10 -11z"/>
<path d="M4644 1595 c8 -8 18 -15 22 -15 3 0 1 7 -6 15 -7 8 -17 15 -22 15 -5
0 -3 -7 6 -15z"/>
<path d="M10142 1601 c-8 -5 -12 -16 -10 -25 2 -12 6 -10 15 9 6 14 10 25 10
25 -1 0 -8 -4 -15 -9z"/>
<path d="M10190 1600 c-8 -5 -12 -12 -9 -15 4 -3 12 1 19 10 14 17 11 19 -10
5z"/>
<path d="M10225 1602 c3 -3 0 -11 -7 -19 -6 -7 -9 -15 -7 -17 2 -2 12 6 21 18
13 18 14 23 2 23 -8 0 -12 -3 -9 -5z"/>
<path d="M9977 1586 c-3 -8 -2 -18 3 -21 13 -8 24 15 12 27 -6 6 -11 4 -15 -6z"/>
<path d="M4727 1574 c-8 -8 3 -34 15 -34 7 0 6 5 -1 13 -6 8 -8 17 -4 20 3 4
4 7 1 7 -2 0 -7 -3 -11 -6z"/>
<path d="M4624 1554 c3 -9 6 -18 6 -20 0 -2 7 -4 15 -4 8 0 15 5 15 10 0 6 -7
10 -16 10 -8 0 -12 5 -9 10 3 6 1 10 -5 10 -7 0 -9 -7 -6 -16z"/>
<path d="M4696 1557 c3 -10 9 -15 12 -12 3 3 0 11 -7 18 -10 9 -11 8 -5 -6z"/>
<path d="M10060 1548 c0 -17 2 -18 15 -8 8 7 15 14 15 15 0 2 -7 5 -15 9 -10
4 -15 -1 -15 -16z"/>
<path d="M4580 1520 c6 -11 13 -20 16 -20 2 0 0 9 -6 20 -6 11 -13 20 -16 20
-2 0 0 -9 6 -20z"/>
<path d="M4725 1520 c3 -5 8 -10 11 -10 2 0 4 5 4 10 0 6 -5 10 -11 10 -5 0
-7 -4 -4 -10z"/>
<path d="M4767 1523 c-4 -3 -7 -11 -7 -17 0 -6 5 -5 12 2 6 6 9 14 7 17 -3 3
-9 2 -12 -2z"/>
<path d="M4947 1509 c3 -11 9 -22 14 -25 15 -9 10 -24 -8 -25 -11 0 -13 -3 -5
-6 6 -2 10 -9 6 -14 -3 -5 0 -9 5 -9 6 0 11 6 11 14 0 8 6 16 13 19 8 3 6 9
-7 19 -10 8 -16 20 -13 25 4 6 1 13 -7 16 -10 4 -12 0 -9 -14z"/>
<path d="M4986 1502 c-3 -5 1 -9 9 -9 8 0 12 4 9 9 -3 4 -7 8 -9 8 -2 0 -6 -4
-9 -8z"/>
<path d="M4744 1479 c-3 -6 -2 -15 3 -20 5 -5 9 -1 10 11 2 22 -2 25 -13 9z"/>
<path d="M4799 1473 c-13 -16 -12 -17 3 -5 9 8 23 10 29 6 8 -4 9 -3 5 4 -10
17 -21 15 -37 -5z"/>
<path d="M4850 1470 c-6 -11 -8 -20 -6 -20 3 0 10 9 16 20 6 11 8 20 6 20 -3
0 -10 -9 -16 -20z"/>
<path d="M5032 1475 c-28 -15 -16 -26 34 -32 33 -3 33 -3 22 22 -12 28 -22 29
-56 10z m48 -9 c0 -2 -9 -6 -20 -9 -11 -3 -20 -1 -20 4 0 5 9 9 20 9 11 0 20
-2 20 -4z"/>
<path d="M9851 1477 c-9 -12 -8 -16 3 -20 19 -7 32 11 19 24 -6 6 -14 5 -22
-4z"/>
<path d="M9944 1465 c3 -23 12 -26 13 -5 1 11 -2 20 -7 20 -4 0 -7 -7 -6 -15z"/>
<path d="M4866 1455 c-9 -26 -7 -32 5 -12 6 10 9 21 6 23 -2 3 -7 -2 -11 -11z"/>
<path d="M9906 1421 c8 -8 43 -8 38 0 -2 4 -13 7 -24 6 -10 -1 -17 -3 -14 -6z"/>
<path d="M4990 1405 c7 -8 9 -23 6 -32 -7 -17 -6 -17 10 -1 14 14 15 20 4 32
-7 9 -17 16 -22 16 -6 0 -5 -7 2 -15z"/>
<path d="M4940 1395 c0 -8 7 -11 20 -8 22 6 19 15 -5 19 -8 1 -15 -4 -15 -11z"/>
<path d="M9828 1403 c7 -3 16 -2 19 1 4 3 -2 6 -13 5 -11 0 -14 -3 -6 -6z"/>
<path d="M9795 1390 c3 -5 8 -10 11 -10 2 0 4 5 4 10 0 6 -5 10 -11 10 -5 0
-7 -4 -4 -10z"/>
<path d="M4881 1376 c-10 -12 -8 -13 8 -9 12 3 18 9 15 14 -7 12 -10 11 -23
-5z"/>
<path d="M5113 1373 c0 -10 4 -23 9 -30 5 -7 5 -14 -2 -18 -18 -11 -11 -23 20
-27 19 -3 31 0 35 10 6 16 -2 32 -17 32 -6 0 -5 -7 3 -17 12 -14 12 -16 0 -12
-8 3 -19 19 -25 36 -13 39 -23 49 -23 26z"/>
<path d="M9730 1374 c0 -8 5 -12 10 -9 6 3 10 10 10 16 0 5 -4 9 -10 9 -5 0
-10 -7 -10 -16z"/>
<path d="M9760 1380 c0 -5 5 -10 10 -10 6 0 10 5 10 10 0 6 -4 10 -10 10 -5 0
-10 -4 -10 -10z"/>
<path d="M4825 1351 c-3 -5 -2 -12 3 -15 5 -3 9 1 9 9 0 17 -3 19 -12 6z"/>
<path d="M9646 1345 c-3 -8 -1 -15 4 -15 6 0 10 7 10 15 0 8 -2 15 -4 15 -2 0
-6 -7 -10 -15z"/>
<path d="M9739 1348 c-6 -21 -5 -38 1 -38 5 0 8 9 7 20 -1 17 -5 26 -8 18z"/>
<path d="M5060 1295 c9 -11 9 -15 1 -15 -7 0 -9 -5 -5 -11 4 -8 9 -7 15 2 12
20 11 26 -7 33 -14 5 -15 4 -4 -9z"/>
<path d="M5018 1293 c7 -3 16 -2 19 1 4 3 -2 6 -13 5 -11 0 -14 -3 -6 -6z"/>
<path d="M5196 1274 c9 -13 20 -21 25 -18 5 3 9 1 9 -4 0 -5 -9 -12 -20 -15
-15 -4 -20 0 -20 13 0 10 -7 21 -16 24 -24 9 -31 7 -11 -5 9 -5 17 -19 17 -30
0 -17 -4 -19 -22 -13 -20 6 -21 5 -9 -9 7 -9 18 -14 23 -11 6 4 14 0 19 -7 6
-10 9 -8 9 9 0 15 6 22 19 22 24 0 37 -30 13 -31 -9 0 -4 -5 12 -10 17 -4 32
-6 35 -4 2 3 -1 5 -8 5 -7 0 -9 5 -6 10 3 6 2 10 -3 10 -6 0 -15 14 -21 31 -6
17 -15 28 -21 24 -5 -3 -10 -1 -10 4 0 6 5 11 12 11 17 0 4 10 -20 15 -21 4
-21 3 -6 -21z"/>
<path d="M5110 1286 c0 -2 7 -6 15 -10 8 -3 15 -1 15 4 0 6 -7 10 -15 10 -8 0
-15 -2 -15 -4z"/>
<path d="M5080 1276 c0 -4 6 -14 14 -22 11 -11 16 -11 19 -1 4 9 6 9 6 0 1 -7
6 -13 12 -13 8 0 7 5 -1 15 -7 9 -15 13 -18 10 -3 -3 -11 0 -19 6 -7 6 -13 8
-13 5z"/>
<path d="M9557 1261 c-3 -13 -1 -18 9 -14 7 2 10 11 7 19 -7 19 -10 18 -16 -5z"/>
<path d="M5075 1230 c3 -5 11 -10 16 -10 6 0 7 5 4 10 -3 6 -11 10 -16 10 -6
0 -7 -4 -4 -10z"/>
<path d="M5131 1194 c0 -11 3 -14 6 -6 3 7 2 16 -1 19 -3 4 -6 -2 -5 -13z"/>
<path d="M9299 1193 c-12 -16 -12 -17 2 -6 9 7 20 9 24 5 5 -4 5 -1 1 6 -9 16
-11 15 -27 -5z"/>
<path d="M5068 1193 c7 -3 16 -2 19 1 4 3 -2 6 -13 5 -11 0 -14 -3 -6 -6z"/>
<path d="M5241 1160 c4 -30 -8 -53 -23 -44 -7 4 -8 2 -4 -4 5 -9 12 -8 26 0
14 9 18 19 13 38 -8 34 -16 41 -12 10z"/>
<path d="M9187 1149 c7 -7 15 -10 18 -7 3 3 -2 9 -12 12 -14 6 -15 5 -6 -5z"/>
<path d="M5178 1128 c5 -5 19 -4 33 1 23 10 22 10 -8 8 -18 0 -29 -5 -25 -9z"/>
<path d="M9085 1129 c-4 -6 -5 -12 -2 -15 2 -3 7 2 10 11 7 17 1 20 -8 4z"/>
<path d="M9112 1114 c-7 -8 -8 -14 -3 -14 10 0 25 19 20 25 -2 1 -10 -3 -17
-11z"/>
<path d="M5000 1086 c0 -2 7 -7 16 -10 8 -3 12 -2 9 4 -6 10 -25 14 -25 6z"/>
<path d="M5390 1075 c0 -8 4 -16 10 -20 13 -8 2 -33 -18 -39 -10 -2 -4 -3 12
-2 31 3 45 19 26 31 -8 5 -8 10 0 20 8 9 5 14 -10 18 -13 3 -20 0 -20 -8z"/>
<path d="M5293 1055 c-3 -9 -3 -18 -1 -21 3 -3 8 4 11 16 6 23 -1 27 -10 5z"/>
<path d="M8920 1066 c0 -2 9 -6 20 -9 11 -3 18 -1 14 4 -5 9 -34 13 -34 5z"/>
<path d="M8870 1044 c-17 -9 -20 -14 -9 -14 9 0 22 7 29 15 15 18 13 18 -20
-1z"/>
<path d="M8804 1038 c-5 -8 -2 -9 11 -4 15 5 16 4 5 -9 -7 -8 -8 -15 -2 -15 8
0 22 22 22 36 0 9 -29 3 -36 -8z"/>
<path d="M5345 1020 c-3 -5 -1 -10 4 -10 6 0 11 5 11 10 0 6 -2 10 -4 10 -3 0
-8 -4 -11 -10z"/>
<path d="M5416 977 c3 -10 9 -15 12 -12 3 3 0 11 -7 18 -10 9 -11 8 -5 -6z"/>
<path d="M8571 976 c-9 -10 -8 -15 3 -19 10 -4 14 0 13 14 -2 23 -1 23 -16 5z"/>
<path d="M8528 970 c-1 -5 -15 -11 -30 -12 -15 -1 -24 -6 -22 -10 3 -5 9 -6
14 -3 5 3 19 1 31 -6 17 -9 20 -8 14 2 -6 9 -3 10 10 5 14 -5 16 -4 7 7 -7 8
-9 17 -5 20 3 4 1 7 -4 7 -6 0 -13 -4 -15 -10z"/>
<path d="M5534 948 c-3 -5 -10 -6 -15 -3 -5 4 -9 1 -9 -6 0 -6 8 -9 20 -6 12
3 23 -1 29 -10 7 -13 9 -11 9 9 0 24 -23 35 -34 16z"/>
<path d="M5395 941 c-3 -5 -1 -12 5 -16 5 -3 10 1 10 9 0 18 -6 21 -15 7z"/>
<path d="M5435 941 c-3 -5 -2 -12 3 -15 5 -3 9 1 9 9 0 17 -3 19 -12 6z"/>
<path d="M5511 906 c-8 -10 -9 -16 -1 -21 5 -3 10 -5 11 -3 4 18 7 38 4 38 -1
0 -8 -6 -14 -14z"/>
<path d="M5516 855 c-3 -8 0 -17 6 -21 6 -4 8 -3 4 4 -3 5 -1 12 6 14 8 3 9 6
1 11 -6 4 -13 0 -17 -8z"/>
<path d="M5567 853 c-15 -14 -5 -21 28 -20 35 1 45 10 24 23 -6 3 -16 1 -22
-5 -14 -14 -30 -15 -22 -1 7 11 2 13 -8 3z"/>
<path d="M5686 757 c3 -10 9 -15 12 -12 3 3 0 11 -7 18 -10 9 -11 8 -5 -6z"/>
<path d="M5970 595 c-8 -9 -8 -15 -2 -15 12 0 26 19 19 26 -2 2 -10 -2 -17
-11z"/>
</g>
</svg>
