<?xml version="1.0" standalone="no"?>
<!DOCTYPE svg PUBLIC "-//W3C//DTD SVG 20010904//EN"
 "http://www.w3.org/TR/2001/REC-SVG-20010904/DTD/svg10.dtd">
<svg version="1.0" xmlns="http://www.w3.org/2000/svg"
 width="1280.000000pt" height="1154.000000pt" viewBox="0 0 1280.000000 1154.000000"
 preserveAspectRatio="xMidYMid meet">
<g transform="translate(0.000000,1154.000000) scale(0.100000,-0.100000)"
fill="#000000" stroke="none">
<path d="M2700 11446 c0 -3 9 -44 21 -92 28 -118 22 -144 -52 -221 -71 -74
-78 -109 -29 -145 26 -19 30 -28 30 -67 0 -62 -38 -324 -48 -331 -10 -6 3
-538 13 -569 3 -12 4 -21 1 -21 -19 0 -138 56 -304 143 l-192 101 -108 165
c-60 91 -122 187 -138 213 -28 46 -44 60 -44 38 0 -6 29 -64 64 -128 35 -64
75 -141 90 -170 l27 -53 -39 20 c-44 23 -62 14 -62 -29 0 -64 19 -97 90 -154
72 -58 116 -114 144 -180 16 -38 16 -40 -4 -62 l-21 -22 -22 22 c-12 12 -89
78 -172 146 -206 171 -402 340 -578 499 -109 98 -152 130 -160 122 -8 -8 38
-61 174 -198 171 -175 273 -283 538 -570 l103 -112 -58 -26 c-49 -21 -60 -23
-73 -12 -9 8 -185 89 -391 182 -427 191 -591 267 -912 423 -193 94 -229 108
-239 96 -7 -9 -8 -18 -3 -23 5 -5 162 -97 349 -206 435 -254 516 -303 823
-499 l254 -161 -44 -7 c-23 -5 -64 -12 -90 -18 -26 -5 -224 -14 -440 -20 -216
-6 -403 -13 -415 -16 -13 -2 -23 -11 -23 -19 0 -17 3 -18 420 -55 393 -35 413
-38 437 -55 17 -13 16 -14 -12 -25 -46 -18 -245 -58 -405 -83 l-145 -22 0 -30
0 -30 265 -7 c146 -4 299 -11 340 -16 99 -13 283 -80 275 -101 -3 -8 -1 -56 6
-105 9 -75 8 -110 -4 -200 -15 -105 -15 -109 4 -135 17 -23 18 -30 7 -61 -7
-19 -28 -57 -45 -84 -18 -26 -33 -57 -33 -67 0 -11 -9 -36 -20 -56 -11 -21
-20 -47 -20 -59 0 -37 -21 -82 -41 -87 -21 -6 -25 -28 -9 -57 13 -24 -49 -203
-80 -232 -23 -22 -24 -31 -9 -60 14 -27 20 -88 9 -88 -5 0 -17 -15 -26 -32
-10 -18 -30 -49 -46 -69 -18 -23 -32 -53 -35 -80 -3 -24 -16 -65 -29 -91 -13
-26 -24 -55 -24 -63 0 -9 -14 -49 -31 -87 -28 -64 -30 -75 -20 -108 15 -50 14
-88 -5 -195 -10 -59 -26 -108 -45 -141 -32 -57 -36 -89 -14 -121 8 -12 12 -28
9 -37 -3 -9 -9 -48 -13 -88 -5 -60 -9 -73 -23 -73 -22 0 -22 -3 -3 -67 19 -65
10 -127 -50 -338 -24 -85 -46 -170 -50 -188 -5 -24 -16 -37 -43 -51 l-36 -18
28 -18 c26 -17 26 -18 9 -37 -10 -11 -30 -27 -45 -35 -28 -17 -43 -49 -27 -58
12 -8 49 13 49 29 0 7 23 31 52 55 43 35 54 40 65 28 11 -11 9 -24 -16 -78
-16 -35 -36 -81 -44 -101 -13 -31 -19 -37 -36 -30 -31 11 -100 81 -115 116
-18 42 -80 63 -124 41 -45 -23 -53 -38 -50 -96 l3 -52 60 -26 c64 -28 111 -58
151 -98 19 -19 24 -34 24 -72 0 -46 2 -50 85 -134 72 -73 86 -93 91 -129 13
-79 75 -116 148 -88 66 25 -12 -55 -93 -96 -9 -5 -33 13 -71 54 -32 34 -62 62
-69 62 -6 0 -45 32 -86 71 -41 39 -75 67 -75 62 0 -6 24 -64 54 -129 l54 -119
62 -32 c51 -27 73 -33 125 -33 70 0 105 18 211 107 l52 43 15 -24 c9 -14 27
-28 39 -31 13 -4 33 -16 44 -27 12 -10 26 -18 31 -16 14 4 259 -190 357 -283
l80 -76 -24 -194 c-19 -154 -24 -245 -25 -439 -1 -208 -4 -264 -23 -368 -27
-146 -37 -172 -64 -164 -17 4 -19 0 -17 -34 1 -22 -3 -50 -8 -64 -21 -51 -25
-123 -9 -169 22 -60 20 -150 -4 -218 -23 -66 -24 -110 -9 -285 l12 -128 -27
-38 c-36 -52 -33 -83 12 -135 11 -12 17 -41 19 -84 1 -36 7 -71 13 -77 5 -7 7
-15 4 -18 -3 -3 6 -25 20 -50 13 -24 28 -62 32 -83 4 -22 23 -80 42 -130 19
-49 40 -112 48 -140 8 -27 23 -72 33 -100 31 -82 54 -189 42 -193 -14 -5 -14
-35 1 -50 7 -7 17 -8 29 -1 15 8 22 3 38 -30 11 -21 28 -69 37 -106 11 -44 33
-92 62 -134 59 -89 72 -115 72 -149 0 -15 4 -32 9 -38 18 -18 20 -76 4 -101
-11 -17 -18 -56 -21 -126 -4 -93 -2 -107 22 -164 25 -59 34 -132 19 -147 -4
-3 -8 -31 -10 -61 -3 -44 1 -59 17 -75 11 -11 25 -20 30 -20 6 0 21 -11 33
-26 27 -30 78 -43 175 -44 63 0 82 -5 145 -36 96 -49 231 -94 280 -94 22 0 57
-5 79 -12 34 -10 42 -9 68 10 33 25 51 27 67 11 9 -9 19 -8 39 6 21 14 31 15
51 6 30 -14 29 -14 48 5 12 13 19 14 28 5 17 -17 44 -13 60 9 7 10 33 24 58
29 42 10 79 40 79 65 0 17 -11 29 -57 60 -45 30 -65 42 -165 95 -150 80 -260
172 -320 267 -14 21 -35 48 -47 58 -45 41 -18 36 30 -6 28 -23 67 -56 87 -71
43 -33 63 -65 56 -89 -5 -17 28 -43 40 -31 9 10 7 53 -3 53 -5 0 -15 16 -21
36 -9 27 -27 45 -69 73 -31 20 -74 56 -96 79 -21 24 -69 66 -106 93 -65 48
-68 53 -74 102 -4 29 -36 133 -72 232 -61 171 -73 211 -107 365 -28 126 -28
126 9 198 l34 67 -14 63 c-8 35 -21 75 -29 90 -7 15 -16 50 -19 77 -6 46 -5
48 8 31 8 -11 15 -32 15 -47 0 -26 22 -45 41 -33 12 7 12 54 0 54 -16 0 -40
76 -50 157 -12 94 -48 252 -61 268 -6 7 -7 26 -4 43 5 24 2 33 -9 38 -12 4
-14 12 -8 27 6 16 2 34 -15 63 -23 39 -24 49 -19 143 2 56 9 110 14 120 6 10
14 58 19 108 8 78 15 101 57 181 26 51 56 97 66 103 24 13 24 31 -1 54 -15 14
-17 22 -9 37 6 11 21 57 34 102 12 44 46 142 75 216 92 237 120 322 160 480
22 85 49 184 60 220 22 73 25 112 9 138 -8 13 2 68 40 232 27 118 55 245 62
283 20 108 36 94 122 -108 30 -72 81 -191 112 -265 35 -82 58 -148 57 -169 -1
-38 171 -387 303 -615 41 -71 82 -152 91 -180 9 -28 25 -68 35 -88 24 -47 24
-70 0 -92 -16 -14 -18 -29 -15 -103 3 -83 2 -89 -26 -127 -22 -28 -30 -51 -30
-80 0 -75 -29 -177 -70 -253 -62 -113 -72 -147 -58 -197 6 -22 10 -45 9 -51
-2 -5 -5 -32 -6 -58 -3 -37 -9 -54 -30 -73 -19 -17 -25 -31 -22 -47 3 -12 8
-67 11 -122 4 -55 12 -135 18 -178 10 -71 9 -79 -8 -91 -17 -13 -17 -15 0 -53
15 -34 16 -53 8 -167 -6 -70 -15 -133 -21 -139 -6 -6 -11 -24 -11 -40 0 -28 2
-29 33 -24 l33 5 -2 -194 c-1 -126 -6 -205 -14 -225 -10 -23 -10 -32 0 -44 19
-23 16 -120 -4 -140 -10 -11 -16 -33 -16 -64 0 -65 -17 -109 -42 -113 -16 -2
-26 -17 -39 -58 -10 -30 -19 -63 -19 -73 0 -18 -5 -31 -33 -82 -44 -80 -43
-74 -15 -98 20 -17 28 -38 38 -95 10 -63 16 -76 43 -96 18 -13 55 -31 82 -39
53 -17 221 -37 311 -37 74 0 251 -60 328 -112 34 -23 81 -61 105 -85 50 -50
161 -91 209 -77 15 4 68 8 117 8 65 1 99 6 122 19 53 28 56 97 6 105 -11 2
-26 14 -33 27 -12 22 -47 42 -115 63 l-30 10 32 12 c20 7 30 17 27 25 -3 7
-51 52 -107 98 -56 47 -153 134 -214 194 -108 104 -113 110 -113 150 0 41 -8
63 -45 117 -16 25 -19 51 -22 205 -3 106 2 249 12 361 8 102 17 214 20 250 3
35 10 69 15 74 6 6 10 26 10 46 0 19 5 51 10 70 6 19 21 100 35 181 14 80 34
172 46 205 11 32 31 92 44 132 13 40 36 87 50 104 21 25 25 38 21 62 -8 39 -8
43 -2 86 3 19 10 80 16 135 6 55 12 117 15 138 2 21 15 52 29 68 15 17 26 38
26 46 0 9 12 37 27 62 23 39 27 61 34 165 8 135 30 237 60 279 l20 28 -28 54
c-16 33 -34 55 -43 55 -12 0 -20 15 -27 53 -6 28 -29 124 -52 212 -23 88 -44
194 -47 235 -4 41 -12 84 -19 96 -16 25 -59 163 -53 169 2 2 227 -104 501
-237 336 -163 499 -247 502 -260 4 -10 18 -21 33 -24 63 -16 1444 -691 1553
-760 21 -13 46 -23 56 -22 21 3 108 -41 499 -250 432 -231 698 -381 714 -403
8 -12 40 -49 71 -82 36 -39 77 -102 113 -171 152 -295 285 -396 521 -396 142
0 183 8 200 39 28 52 25 51 110 27 44 -13 125 -45 180 -70 57 -26 108 -43 118
-40 10 3 57 -13 110 -39 370 -176 675 -297 832 -327 97 -19 521 -250 813 -442
118 -79 155 -99 165 -89 8 8 8 16 2 27 -15 23 -241 165 -462 290 -105 60 -218
124 -250 142 l-58 33 71 -5 c62 -5 89 -15 204 -71 72 -36 156 -81 186 -100 86
-55 314 -166 332 -163 10 2 106 -40 214 -94 109 -54 202 -98 207 -98 7 0 21
23 21 35 0 7 -106 64 -155 83 -76 30 -642 304 -705 341 l-55 33 47 -6 c59 -7
132 -43 310 -153 130 -80 173 -96 173 -64 0 8 -54 47 -120 88 -123 75 -138 92
-43 48 75 -35 158 -51 169 -33 5 8 3 17 -4 24 -21 19 -279 103 -352 115 -50 8
-114 31 -225 83 -85 40 -191 88 -235 107 -44 18 -143 73 -220 120 -77 47 -159
96 -182 108 -59 30 -54 35 10 10 366 -148 909 -293 1232 -329 159 -18 181 -16
172 15 -6 18 -82 33 -198 39 -200 11 -616 110 -951 225 -350 121 -873 357
-893 403 -7 15 -52 44 -135 86 -69 35 -126 65 -128 66 -1 2 5 34 14 72 l17 69
-40 60 c-56 84 -141 140 -296 199 -130 49 -205 59 -370 51 -338 -15 -386 -11
-532 48 -284 115 -1005 426 -1100 475 -16 8 -36 23 -43 33 -7 11 -18 19 -24
19 -41 0 -1525 706 -1570 747 -10 9 -33 16 -50 15 -24 -1 -183 71 -575 260
l-542 262 -15 70 c-9 39 -19 93 -23 120 -4 32 -15 60 -33 80 -18 21 -48 96
-92 226 -76 224 -165 438 -243 582 -53 97 -97 197 -110 249 -5 20 5 42 49 108
55 83 60 97 70 226 2 22 -2 52 -10 67 -20 39 -18 58 8 58 20 0 21 2 7 15 -9 9
-29 17 -45 18 -26 2 -29 -2 -35 -33 -5 -27 -7 -19 -8 33 -1 64 0 68 19 62 30
-9 174 64 158 80 -2 3 -32 -4 -65 -14 -58 -18 -63 -18 -77 -2 -9 10 -16 22
-16 28 0 15 -44 109 -61 129 -7 9 -14 44 -16 80 l-2 64 36 15 c20 9 34 18 30
21 -3 3 -14 1 -25 -5 -38 -21 -42 -14 -42 77 0 122 24 266 65 394 36 110 36
110 36 298 0 104 -3 216 -7 249 -6 58 -5 62 21 82 20 17 26 28 22 47 -4 19 4
38 28 70 60 78 66 131 32 287 -10 46 -19 63 -38 72 -13 7 -61 36 -105 65 -75
49 -86 60 -134 141 -37 62 -69 101 -109 133 -75 61 -126 137 -122 182 1 28 -1
33 -11 24 -11 -8 -16 -4 -26 18 -11 25 -28 36 -84 54 -27 8 -22 18 39 63 l56
43 51 -28 c28 -15 61 -35 74 -43 21 -13 25 -12 38 5 8 11 14 34 14 50 0 61
-41 179 -86 248 l-18 26 56 69 c31 37 112 126 181 196 68 70 121 129 118 132
-4 2 -42 -28 -86 -66 -44 -39 -137 -117 -207 -175 l-128 -105 -25 18 c-20 14
-24 24 -21 45 5 24 74 205 120 311 12 28 13 37 4 37 -7 -1 -53 -75 -103 -165
l-89 -164 -30 19 c-59 37 -154 129 -158 154 -4 18 2 32 19 48 14 13 36 44 49
70 33 66 104 243 104 261 0 23 17 30 24 10 12 -30 25 1 32 72 4 50 -1 122 -20
255 -42 293 -74 394 -152 473 -44 45 -203 124 -282 140 -61 13 -93 44 -152
150 -17 31 -34 57 -37 57 -10 0 6 -105 22 -150 8 -24 13 -45 11 -47 -2 -3 -47
36 -100 86 -52 50 -103 91 -114 91 -22 0 -57 -35 -69 -68 -8 -22 -12 -18 -53
47 -38 60 -60 85 -60 67z m100 -1409 c20 -14 21 -16 6 -45 -22 -43 -30 -45
-78 -24 l-43 19 3 91 3 92 44 -59 c24 -32 53 -65 65 -74z m-80 -395 l0 -27
-86 0 -86 0 27 20 c14 11 45 27 68 36 51 20 77 10 77 -29z m-820 -1311 c0 -26
-46 -98 -56 -88 -5 5 44 117 51 117 3 0 5 -13 5 -29z m941 -398 c11 -34 19
-79 17 -99 l-3 -37 -50 -2 c-27 -2 -85 -16 -129 -33 -58 -23 -83 -29 -97 -22
-25 14 -28 13 -38 -13 -6 -15 -23 -27 -49 -35 -66 -20 -92 -47 -92 -96 0 -52
33 -106 73 -120 21 -8 41 -5 90 13 34 13 82 27 107 30 25 4 51 10 57 14 7 4
38 0 69 -9 32 -9 72 -14 91 -11 l35 6 -7 -37 c-3 -20 -9 -63 -12 -96 l-5 -58
-86 6 c-146 11 -139 8 -138 73 1 73 -16 78 -51 17 -37 -63 -66 -90 -105 -98
-18 -3 -42 -13 -54 -21 -24 -15 -29 -44 -38 -227 -4 -93 8 -120 20 -43 l6 45
30 -25 c20 -17 42 -25 68 -25 36 0 38 -2 42 -34 2 -23 -2 -42 -14 -56 -30 -37
-23 -67 19 -88 36 -19 36 -20 15 -31 -35 -18 -26 -33 11 -17 30 12 36 11 90
-16 31 -15 57 -33 57 -38 0 -6 7 -10 15 -10 25 0 17 -16 -32 -70 -45 -47 -55
-52 -140 -75 -95 -25 -97 -27 -210 -133 -39 -35 -38 -24 -13 -173 13 -74 12
-79 -14 -163 -25 -77 -27 -95 -21 -170 l7 -85 -167 88 c-141 75 -170 93 -181
120 -8 18 -21 31 -31 31 -10 0 -27 7 -37 15 -47 35 -109 6 -149 -68 l-22 -42
-3 37 c-2 20 8 83 22 140 28 110 33 177 16 209 -9 15 -6 26 10 49 11 16 26 55
32 87 6 32 21 85 34 118 13 33 42 125 65 205 30 108 48 153 68 175 48 52 61
78 61 123 0 23 7 59 15 79 8 19 15 55 15 79 0 31 12 68 42 129 38 76 41 88 31
114 -6 17 -8 31 -4 33 3 2 17 28 31 58 13 30 46 84 72 120 44 60 48 69 48 124
0 59 20 108 71 175 10 12 21 38 25 57 7 36 13 39 89 50 28 3 61 13 75 20 24
14 28 11 127 -93 89 -93 106 -116 124 -170z m-1 -168 c7 -8 8 -15 2 -15 -5 0
-15 7 -22 15 -7 8 -8 15 -2 15 5 0 15 -7 22 -15z m73 -107 c16 -21 18 -35 13
-72 -7 -42 -10 -46 -40 -52 -19 -3 -55 0 -82 8 l-49 14 50 25 c44 22 51 30 59
67 11 47 20 49 49 10z m-440 -490 c8 -55 -9 -66 -19 -13 -5 31 1 74 10 64 2
-2 6 -25 9 -51z m69 -2 c33 -29 38 -38 36 -75 -1 -38 -3 -41 -29 -41 -54 0
-59 7 -59 81 0 38 3 69 8 69 4 -1 24 -16 44 -34z m148 -34 c0 -9 -25 -33 -47
-46 -9 -5 -13 2 -13 23 0 28 3 31 30 31 17 0 30 -4 30 -8z m201 -18 c14 -8 -5
-56 -26 -64 -12 -5 -32 -23 -43 -42 -11 -18 -34 -46 -51 -62 l-30 -29 -65 29
c-60 27 -65 32 -66 60 0 26 10 38 58 77 l57 46 80 -6 c44 -3 83 -7 86 -9z
m-16 -166 c-12 -40 -50 -71 -76 -63 -23 8 -22 9 20 46 50 44 65 49 56 17z
m-358 -483 c15 -10 32 -13 49 -9 32 8 33 10 -48 -98 -32 -42 -67 -98 -77 -125
l-20 -48 -1 45 c0 25 -7 74 -15 109 -18 73 -14 92 22 121 31 24 61 26 90 5z
m1672 -84 c27 -17 -26 -191 -58 -191 -5 0 -7 8 -5 18 8 37 34 171 34 177 0 8
13 6 29 -4z m-2402 -78 c-2 -16 -4 -5 -4 22 0 28 2 40 4 28 2 -13 2 -35 0 -50z
m608 -326 l1 -132 -14 90 c-11 71 -12 99 -3 133 7 23 13 42 14 42 1 0 2 -60 2
-133z m-567 -83 c33 -18 55 -24 78 -21 24 4 73 -13 225 -81 l193 -87 -3 -47
c-1 -30 2 -48 8 -48 6 0 11 12 11 28 0 15 4 33 8 40 14 21 42 3 42 -27 0 -28
-27 -275 -60 -561 -11 -96 -20 -178 -20 -183 0 -20 -288 188 -415 300 -38 35
-75 63 -82 63 -7 0 -32 39 -55 88 l-43 87 0 120 c0 110 -2 125 -28 179 -21 45
-23 56 -10 44 10 -8 23 -13 30 -11 6 2 14 -1 18 -6 9 -16 23 -13 34 8 7 11 7
38 2 72 -13 80 -6 84 67 43z m-272 -625 c9 -15 -5 -26 -41 -35 l-30 -7 24 27
c27 28 36 32 47 15z m7900 -2504 c141 -53 252 -131 225 -158 -7 -7 -29 7 -67
42 -34 31 -93 69 -148 96 -103 50 -106 56 -10 20z m-69 -60 c71 -27 164 -77
181 -98 5 -6 7 -27 5 -45 -5 -28 -8 -32 -27 -26 -39 12 -386 187 -386 195 0
25 131 10 227 -26z m-290 -452 c50 -34 131 -81 180 -104 48 -23 90 -43 92 -45
1 -1 -4 -13 -13 -26 -9 -12 -16 -30 -16 -39 0 -13 -13 -17 -62 -22 -148 -13
-271 41 -334 149 -37 62 -35 101 6 135 18 16 38 25 44 21 6 -3 52 -34 103 -69z
m1515 -359 c37 -21 66 -39 65 -41 -2 -1 -52 19 -113 45 -60 27 -148 65 -195
86 -48 21 -102 50 -120 66 -28 24 -3 15 131 -45 91 -40 195 -90 232 -111z
m-632 65 c11 -14 32 -21 75 -25 51 -4 95 -23 329 -140 149 -75 276 -140 281
-146 32 -30 -329 115 -545 219 -85 41 -170 82 -189 90 -26 11 -31 17 -20 24
19 11 50 1 69 -22z m673 -206 c203 -98 361 -180 351 -182 -52 -10 -144 25
-377 146 -133 69 -272 141 -310 159 -60 31 -79 54 -44 54 7 0 178 -80 380
-177z m-21 71 c68 -31 166 -74 218 -95 86 -36 226 -116 217 -125 -2 -2 -132
59 -288 135 -156 77 -281 140 -277 140 3 1 62 -24 130 -55z m598 -259 c25 -13
38 -24 30 -24 -8 -1 -33 10 -55 24 -51 31 -34 32 25 0z m-8610 -720 c0 -17 -9
-48 -20 -70 l-20 -39 0 74 c0 41 3 86 7 100 l7 25 12 -30 c7 -17 13 -44 14
-60z"/>
</g>
</svg>
