<?xml version="1.0" standalone="no"?>
<!DOCTYPE svg PUBLIC "-//W3C//DTD SVG 20010904//EN"
 "http://www.w3.org/TR/2001/REC-SVG-20010904/DTD/svg10.dtd">
<svg version="1.0" xmlns="http://www.w3.org/2000/svg"
 width="1280.000000pt" height="817.000000pt" viewBox="0 0 1280.000000 817.000000"
 preserveAspectRatio="xMidYMid meet">
<g transform="translate(0.000000,817.000000) scale(0.100000,-0.100000)"
fill="#000000" stroke="none">
<path d="M3586 8160 c-298 -47 -558 -206 -656 -400 -12 -24 -42 -100 -65 -170
-82 -239 -189 -501 -236 -577 -26 -41 -95 -212 -115 -283 -11 -36 -18 -117
-21 -235 -5 -186 2 -291 48 -640 49 -378 117 -1179 124 -1470 5 -210 4 -217
-10 -160 -8 33 -20 94 -25 135 -30 213 -69 347 -164 567 -81 189 -98 242 -142
471 -42 218 -83 350 -143 454 -77 135 -171 212 -290 237 -108 23 -340 31 -581
21 -401 -16 -572 -48 -655 -121 -43 -38 -79 -92 -213 -324 -60 -105 -146 -242
-190 -305 -109 -155 -165 -257 -200 -365 -28 -86 -30 -103 -41 -380 -7 -160
-10 -313 -6 -340 98 -842 145 -1550 166 -2515 l11 -545 112 -113 c75 -77 138
-130 196 -166 47 -29 130 -81 184 -116 166 -105 245 -137 398 -161 121 -19
160 -21 438 -15 441 9 481 18 840 195 102 50 208 99 237 108 44 14 60 27 101
77 27 34 65 90 84 126 l36 65 6 171 7 171 -46 227 c-25 125 -45 231 -45 236 0
4 30 -5 68 -20 37 -16 96 -34 132 -41 52 -10 107 -36 270 -128 l205 -116 155
3 c282 4 579 33 1265 122 440 57 467 62 590 103 l130 44 8 44 c13 71 7 118
-172 1354 -154 1062 -202 1588 -216 2360 -10 580 -44 844 -146 1129 -82 231
-185 408 -403 692 -335 437 -423 515 -651 574 -92 25 -286 34 -379 20z"/>
<path d="M7230 7810 l-285 -89 -73 -78 c-168 -180 -294 -377 -352 -550 -52
-158 -61 -262 -69 -828 -8 -471 -10 -525 -35 -710 -24 -181 -33 -218 -91 -395
-35 -107 -69 -224 -76 -260 -13 -72 -15 -232 -5 -481 4 -90 11 -281 16 -424 6
-143 14 -307 20 -365 5 -58 9 -170 10 -250 0 -222 -28 -327 -183 -685 -138
-322 -225 -610 -243 -807 l-7 -77 99 -99 c153 -154 315 -251 549 -327 291 -96
486 -124 1432 -210 155 -14 343 -34 417 -44 l136 -18 187 107 c104 58 218 125
256 148 37 23 69 42 71 42 6 0 -50 -258 -79 -364 -14 -52 -37 -121 -50 -155
-14 -33 -25 -63 -25 -65 0 -2 24 -21 52 -42 29 -20 48 -39 43 -40 -6 -1 -27
-5 -47 -9 -44 -7 -51 -31 -18 -60 22 -20 200 -60 209 -47 9 13 255 -45 351
-83 67 -26 81 -35 65 -40 -74 -28 -85 -35 -91 -60 -9 -35 19 -63 72 -75 62
-15 185 -12 218 5 15 8 37 15 47 15 13 0 19 7 19 21 0 17 5 20 23 16 62 -16
403 -69 552 -87 94 -11 185 -23 204 -26 l33 -5 -23 -16 c-56 -38 -119 -88
-119 -95 0 -34 181 -131 315 -169 120 -34 313 -32 450 3 124 32 145 41 168 66
28 30 18 53 -38 89 -28 18 -77 52 -110 77 -33 24 -82 56 -109 71 l-48 28 53
20 c207 75 253 94 329 133 104 54 178 116 209 179 21 42 23 59 22 168 -1 66
-10 224 -21 351 -39 463 -41 540 -30 1031 15 704 13 1038 -4 1032 -9 -4 -16 3
-20 19 -4 14 -34 52 -68 85 l-62 59 -124 -52 c-89 -38 -140 -66 -178 -100 -33
-29 -68 -50 -90 -54 -54 -10 -138 13 -189 51 -24 19 -63 39 -87 45 -91 23
-188 68 -254 117 -17 13 -34 23 -37 23 -4 0 -36 18 -72 40 -76 46 -99 48 -203
19 -109 -31 -207 -10 -346 73 -65 38 -76 41 -175 49 -109 8 -130 13 -291 72
-53 19 -111 37 -128 39 l-33 3 -3 -70 c-5 -85 -29 -266 -33 -245 -11 56 -117
931 -137 1130 -33 321 -62 725 -76 1030 -34 790 -78 1334 -120 1494 -71 268
-268 496 -559 645 -209 106 -343 137 -626 145 l-200 5 -285 -89z"/>
<path d="M11956 1109 c-64 -24 -84 -42 -66 -63 15 -19 100 -22 118 -4 13 13
16 57 4 74 -5 7 -22 5 -56 -7z"/>
<path d="M12300 1055 c0 -54 32 -80 108 -88 79 -9 92 -3 92 39 0 50 -57 84
-140 84 l-60 0 0 -35z"/>
<path d="M12233 891 c-44 -11 -63 -29 -63 -58 l0 -25 99 4 c116 4 150 22 123
65 -9 15 -117 24 -159 14z"/>
<path d="M8370 882 c-35 -5 -65 -33 -48 -44 24 -14 47 -8 64 17 19 30 18 32
-16 27z"/>
<path d="M12616 836 c-73 -12 -87 -23 -61 -50 13 -12 37 -16 106 -16 49 0 89
4 89 8 0 5 -6 17 -14 27 -8 11 -12 25 -9 32 6 15 -14 15 -111 -1z"/>
<path d="M8663 829 c-39 -11 -42 -32 -8 -55 40 -26 95 8 79 50 -7 18 -23 19
-71 5z"/>
<path d="M8330 640 c-113 -49 -58 -110 98 -110 86 0 122 16 122 54 0 45 -19
56 -110 61 -49 3 -96 1 -110 -5z"/>
<path d="M12137 635 c-128 -45 -211 -167 -163 -240 28 -42 56 -47 214 -36 169
12 207 26 236 84 26 54 13 76 -76 133 -102 66 -152 80 -211 59z"/>
<path d="M12468 411 c-34 -8 -68 -36 -68 -56 0 -9 12 -28 26 -42 22 -22 32
-25 70 -20 25 2 54 13 64 22 20 18 27 55 11 55 -5 0 -12 11 -15 25 -7 26 -28
30 -88 16z"/>
<path d="M9620 228 c-41 -28 -74 -89 -65 -119 11 -34 64 -49 169 -49 138 0
196 27 196 92 0 25 -50 71 -95 88 -15 6 -59 10 -99 10 -59 0 -79 -4 -106 -22z"/>
</g>
</svg>
