<?xml version="1.0" standalone="no"?>
<!DOCTYPE svg PUBLIC "-//W3C//DTD SVG 20010904//EN"
 "http://www.w3.org/TR/2001/REC-SVG-20010904/DTD/svg10.dtd">
<svg version="1.0" xmlns="http://www.w3.org/2000/svg"
 width="640.000000pt" height="1280.000000pt" viewBox="0 0 640.000000 1280.000000"
 preserveAspectRatio="xMidYMid meet">
<g transform="translate(0.000000,1280.000000) scale(0.100000,-0.100000)"
fill="#000000" stroke="none">
<path d="M3190 12778 c0 -6 -45 -105 -100 -219 -114 -234 -154 -345 -169 -457
-6 -45 -15 -635 -21 -1407 -6 -731 -15 -1832 -20 -2445 -6 -613 -14 -1623 -20
-2245 -5 -621 -13 -1474 -16 -1893 -5 -542 -10 -765 -18 -768 -6 -2 -303 -32
-661 -67 l-650 -65 -42 39 c-87 80 -224 62 -294 -39 -33 -49 -35 -166 -3 -208
44 -59 91 -87 152 -92 70 -5 124 18 170 73 l29 36 719 -80 c396 -45 727 -81
737 -81 14 0 17 -9 17 -51 0 -45 -4 -54 -35 -84 -32 -29 -34 -35 -24 -58 6
-14 22 -31 35 -38 31 -16 30 -20 -5 -40 -44 -25 -46 -57 -7 -93 l32 -31 -32
-31 c-39 -36 -37 -68 7 -93 35 -20 36 -24 5 -40 -13 -7 -29 -24 -35 -38 -10
-23 -8 -29 25 -60 20 -18 35 -35 33 -36 -2 -2 -16 -11 -31 -20 -39 -24 -38
-69 1 -98 l30 -22 -34 -32 c-40 -37 -38 -68 6 -94 16 -9 29 -18 29 -21 0 -3
-13 -12 -29 -21 -44 -26 -46 -57 -6 -94 l34 -32 -30 -22 c-39 -29 -40 -74 -1
-98 15 -9 29 -18 31 -20 2 -1 -13 -17 -32 -36 -42 -39 -41 -68 4 -94 16 -10
29 -20 29 -23 0 -3 -13 -12 -29 -21 -44 -25 -46 -57 -7 -93 l32 -31 -32 -31
c-39 -36 -37 -68 7 -93 35 -20 36 -28 5 -42 -50 -23 -50 -85 0 -108 31 -14 30
-22 -5 -42 -44 -26 -46 -57 -6 -95 32 -29 35 -38 35 -87 0 -52 -2 -55 -40 -82
-81 -56 -145 -171 -156 -283 -7 -64 12 -156 47 -223 32 -64 111 -136 187 -172
61 -29 76 -32 162 -32 86 0 101 3 162 32 235 111 307 393 154 601 -19 27 -54
61 -76 77 -39 27 -40 29 -40 86 0 48 4 60 20 69 11 6 27 22 36 35 15 23 15 27
0 49 -8 14 -25 27 -36 31 -26 8 -25 19 4 34 50 27 50 87 0 110 -29 13 -31 27
-4 36 11 4 28 17 36 31 15 22 15 26 0 49 -9 13 -25 29 -36 35 -20 11 -19 12
14 44 41 38 39 69 -5 95 -16 9 -29 18 -29 21 0 3 13 12 29 21 45 26 46 57 3
97 -27 26 -33 37 -23 40 21 7 61 49 61 63 0 6 -15 26 -33 43 l-33 31 32 31
c39 36 37 68 -7 93 -16 9 -29 18 -29 21 0 3 13 12 29 21 44 26 46 57 5 95 -33
32 -34 33 -14 44 11 6 27 22 36 35 15 23 15 27 0 49 -8 14 -25 27 -36 31 -27
9 -25 23 4 36 50 23 51 82 2 108 -31 17 -33 27 -6 36 11 4 28 17 36 31 15 22
15 26 0 49 -9 13 -26 30 -38 36 l-22 12 27 19 c42 30 51 55 33 83 -9 13 -25
26 -36 30 -27 9 -25 19 6 36 49 26 48 85 -2 108 -21 9 -24 18 -24 61 0 43 3
50 23 55 12 2 204 25 427 50 223 25 544 61 714 81 l309 35 29 -36 c46 -55 100
-78 170 -73 61 5 108 33 152 92 32 42 30 159 -3 208 -70 101 -207 119 -294 39
l-42 -39 -650 65 c-357 35 -655 65 -661 67 -8 3 -13 226 -18 768 -3 419 -11
1269 -16 1888 -6 619 -14 1627 -20 2240 -5 613 -14 1716 -20 2450 -6 750 -15
1367 -20 1409 -15 111 -59 230 -170 460 -55 114 -100 213 -100 219 0 7 -4 12
-10 12 -5 0 -10 -5 -10 -12z"/>
</g>
</svg>
