<?xml version="1.0" standalone="no"?>
<!DOCTYPE svg PUBLIC "-//W3C//DTD SVG 20010904//EN"
 "http://www.w3.org/TR/2001/REC-SVG-20010904/DTD/svg10.dtd">
<svg version="1.0" xmlns="http://www.w3.org/2000/svg"
 width="1280.000000pt" height="1146.000000pt" viewBox="0 0 1280.000000 1146.000000"
 preserveAspectRatio="xMidYMid meet">
<g transform="translate(0.000000,1146.000000) scale(0.100000,-0.100000)"
fill="#000000" stroke="none">
<path d="M3976 11450 c-100 -18 -277 -87 -464 -182 -192 -97 -194 -97 -294
-108 -100 -10 -147 -27 -179 -66 -30 -37 -73 -48 -214 -54 -115 -6 -143 -5
-157 7 -28 24 -57 98 -64 160 -8 74 -25 100 -69 109 -43 8 -85 -6 -136 -47
l-40 -32 -42 40 c-49 47 -76 63 -110 63 -30 0 -43 -14 -52 -60 -14 -69 -85
-186 -161 -269 -70 -75 -79 -81 -115 -81 -23 0 -62 -11 -91 -26 -32 -16 -75
-28 -112 -31 -85 -6 -110 -18 -157 -74 -33 -40 -45 -48 -64 -43 -12 3 -37 -1
-53 -10 -17 -9 -41 -16 -53 -16 -28 0 -86 -59 -95 -96 -10 -44 -23 -55 -63
-53 -34 2 -150 -29 -190 -50 -10 -6 -28 -34 -41 -63 -47 -112 -93 -148 -188
-148 -47 0 -63 -4 -78 -21 -10 -11 -34 -27 -53 -35 -61 -26 -97 -61 -135 -133
-20 -38 -57 -94 -82 -123 -59 -69 -131 -185 -199 -323 -45 -91 -56 -125 -65
-196 -9 -64 -9 -97 0 -128 15 -58 61 -107 108 -115 63 -12 70 -16 93 -53 30
-47 141 -99 125 -58 -3 8 -1 27 4 41 l10 25 34 -35 c18 -20 42 -36 53 -36 17
0 19 6 15 68 l-4 67 25 -27 c36 -39 62 -37 62 4 0 42 16 45 39 7 19 -32 60
-54 84 -44 11 4 12 8 2 19 -14 18 -9 88 7 93 6 2 34 -24 61 -59 45 -57 111
-108 140 -108 6 0 -1 25 -15 56 -14 30 -22 58 -19 61 3 4 19 -5 34 -19 34 -32
84 -58 112 -58 20 0 19 2 -8 38 -27 34 -52 90 -52 115 0 6 10 1 23 -10 20 -19
60 -43 70 -43 2 0 7 19 10 41 9 65 20 65 58 3 19 -32 45 -64 58 -73 24 -15 24
-15 17 9 -4 14 -10 47 -13 74 l-6 50 40 -42 c52 -55 66 -55 58 2 -10 64 8 67
63 11 40 -40 102 -84 102 -72 0 2 -7 25 -16 50 -9 28 -13 59 -9 74 l6 26 30
-36 c17 -21 40 -42 51 -48 20 -11 21 -10 15 34 -3 24 -3 47 0 51 3 3 22 -12
41 -34 28 -34 112 -90 112 -76 0 2 -9 23 -20 47 -11 24 -20 53 -20 64 1 17 4
16 28 -12 27 -31 92 -71 92 -56 -1 5 -7 19 -15 33 -8 14 -14 34 -15 44 0 18 1
18 18 3 10 -10 26 -17 36 -17 14 0 16 6 11 34 -8 40 8 55 34 32 27 -24 41 -19
41 14 0 39 14 38 61 -5 44 -39 77 -48 59 -16 -16 31 -12 61 8 61 28 0 81 -37
102 -72 14 -23 20 -51 20 -90 l0 -57 -41 -12 c-31 -10 -48 -10 -73 -1 -44 16
-46 16 -46 -12 0 -32 -10 -56 -22 -56 -6 0 -26 14 -45 30 -19 17 -38 28 -44
25 -5 -4 -9 -26 -9 -51 0 -67 -21 -68 -80 -3 -40 45 -49 51 -55 36 -11 -25 3
-81 26 -111 l20 -26 -28 0 c-15 0 -39 9 -53 20 -36 28 -42 25 -39 -22 l3 -43
-38 3 c-34 3 -36 1 -27 -16 8 -15 7 -23 -4 -32 -11 -9 -23 -3 -61 32 l-47 43
5 -45 c3 -25 7 -51 9 -59 7 -24 -18 -23 -49 4 -16 14 -33 25 -37 25 -4 0 -4
-25 0 -55 8 -70 -4 -72 -75 -8 l-53 48 5 -53 c3 -28 2 -52 -3 -52 -4 0 -24 19
-44 43 l-37 42 4 -72 c2 -40 1 -73 -2 -73 -3 0 -23 18 -45 40 -21 21 -42 37
-47 34 -4 -3 -8 -23 -8 -45 0 -21 -4 -39 -9 -39 -5 0 -23 16 -39 35 -28 32
-31 33 -37 14 -4 -11 -4 -38 0 -59 4 -22 4 -40 0 -40 -4 0 -29 11 -57 25 -27
14 -52 25 -55 25 -3 0 -3 -20 -1 -45 4 -30 2 -45 -6 -45 -15 0 -122 53 -164
81 l-33 22 7 -29 c9 -40 32 -85 57 -111 l20 -23 -26 0 c-35 0 -77 17 -106 43
l-24 22 6 -39 c3 -21 14 -55 24 -75 14 -28 16 -43 9 -64 -20 -55 19 -84 174
-132 203 -63 286 -57 450 32 257 140 395 196 545 223 33 6 175 15 315 20 317
12 426 24 526 56 109 35 231 41 419 19 158 -18 238 -15 355 12 92 21 238 77
361 138 l105 53 70 -37 c183 -96 289 -212 368 -402 43 -106 81 -237 146 -503
l50 -209 -25 -37 c-14 -20 -25 -46 -25 -59 0 -13 -8 -35 -18 -49 -19 -28 -42
-134 -42 -195 0 -20 -12 -62 -26 -94 -14 -32 -39 -92 -54 -133 -16 -41 -47
-122 -70 -180 -67 -167 -69 -173 -70 -210 0 -48 -56 -428 -76 -520 -30 -137
-45 -155 -242 -288 -192 -130 -227 -144 -396 -153 -123 -7 -154 -13 -245 -44
-96 -32 -114 -35 -221 -35 -64 0 -142 -5 -174 -11 -44 -8 -61 -7 -73 2 -25 22
-146 15 -187 -10 -19 -12 -36 -28 -40 -36 -3 -8 -22 -23 -43 -34 -50 -26 -101
-80 -112 -119 -9 -29 -7 -32 11 -32 11 0 37 10 57 22 45 29 134 31 174 5 35
-23 100 -22 177 3 102 33 130 26 130 -29 0 -20 -5 -42 -11 -48 -14 -14 -3 -67
16 -83 27 -23 59 -8 73 35 15 45 55 91 86 101 12 4 29 13 38 22 13 11 21 12
31 3 8 -6 52 -14 98 -18 46 -5 83 -12 82 -17 -1 -5 -69 -34 -150 -66 -268
-104 -1065 -447 -1398 -603 -351 -164 -1098 -540 -1232 -620 -178 -108 -533
-355 -593 -413 -45 -43 -88 -104 -74 -104 4 0 59 31 123 69 438 261 855 463
1511 733 392 162 624 240 1095 368 204 56 431 118 505 140 184 52 319 84 327
76 4 -4 0 -23 -7 -44 -11 -27 -15 -88 -15 -222 0 -176 -2 -187 -25 -235 -23
-46 -25 -61 -23 -171 1 -137 9 -162 80 -263 83 -118 151 -188 241 -248 98 -65
123 -103 143 -208 14 -78 -1 -156 -47 -240 -33 -60 -34 -64 -23 -116 11 -50
10 -54 -12 -72 -43 -35 -132 -73 -266 -116 -89 -28 -146 -52 -175 -74 -50 -38
-183 -225 -265 -372 -30 -55 -77 -139 -104 -187 -27 -48 -65 -136 -85 -195
-21 -59 -46 -120 -56 -135 -23 -34 -54 -151 -63 -244 -8 -85 5 -167 41 -243
l26 -56 22 65 c29 84 41 106 88 159 21 24 38 53 38 65 0 27 8 37 48 65 38 26
40 21 10 -20 -19 -25 -23 -48 -29 -165 -5 -81 -4 -157 2 -188 13 -68 58 -162
102 -211 l36 -40 1 80 c0 92 19 135 73 163 17 9 49 33 69 53 37 36 38 38 39
115 l0 79 44 32 c58 42 81 46 77 13 -16 -118 -14 -142 11 -168 13 -15 27 -44
30 -65 8 -54 47 -100 109 -131 l53 -27 3 25 c2 14 -4 49 -13 78 -14 49 -14 55
2 88 10 19 27 42 38 50 35 26 85 84 91 106 3 12 1 37 -4 57 -15 55 21 120 101
181 40 31 53 28 59 -13 1 -13 11 -29 21 -35 24 -15 37 6 37 60 0 62 43 158 97
218 26 29 74 102 106 163 49 93 73 125 165 220 142 146 166 158 327 158 134 1
176 13 234 68 44 42 91 141 91 192 0 30 -10 54 -37 94 l-38 55 -1 160 c0 89
-4 193 -8 231 -7 64 -6 74 17 116 14 26 51 81 82 123 31 43 71 107 88 144 31
64 32 72 32 192 0 115 -3 130 -29 190 -16 36 -39 94 -51 130 -13 36 -40 96
-60 135 -42 80 -42 111 3 160 16 16 36 42 45 57 36 57 70 34 190 -127 82 -108
103 -128 267 -245 80 -57 115 -106 141 -194 11 -39 26 -94 34 -122 20 -67 45
-98 118 -145 63 -41 226 -99 278 -99 16 0 80 21 142 46 111 46 239 72 223 46
-4 -7 -11 -81 -17 -164 -13 -219 -21 -235 -124 -258 -54 -12 -190 -97 -330
-205 -146 -114 -287 -281 -348 -412 -20 -44 -22 -59 -18 -198 3 -82 5 -222 5
-310 l1 -161 -33 -54 c-18 -30 -62 -91 -98 -135 -36 -44 -100 -125 -143 -180
-105 -135 -162 -189 -255 -244 -135 -78 -148 -96 -161 -214 -6 -56 -10 -63
-80 -138 -66 -72 -77 -90 -126 -210 -59 -147 -114 -236 -216 -354 -82 -95
-146 -132 -298 -170 -59 -15 -116 -37 -140 -53 -54 -38 -105 -114 -105 -160 0
-33 1 -34 18 -20 29 26 80 48 111 48 l29 0 -36 -71 c-31 -60 -43 -75 -77 -89
-44 -19 -69 -43 -80 -78 -3 -12 -32 -39 -63 -60 l-57 -38 0 -54 c0 -30 -6 -65
-13 -77 -6 -12 -12 -34 -12 -49 l0 -28 38 36 c58 56 73 61 168 53 l84 -7 38
40 c20 22 52 47 70 56 17 9 32 21 32 26 0 21 41 50 72 50 25 0 42 11 88 59 64
67 80 73 165 69 53 -3 60 -6 63 -25 2 -13 -8 -33 -27 -52 -17 -18 -31 -42 -31
-56 0 -18 -16 -35 -63 -69 -69 -49 -94 -90 -99 -161 -3 -40 -3 -40 57 -70 68
-34 140 -39 255 -18 79 15 108 42 134 126 16 50 22 59 46 64 16 3 39 16 52 30
13 14 37 31 53 39 17 7 38 19 48 26 14 11 19 10 27 -2 23 -34 23 -64 2 -100
-16 -28 -19 -44 -13 -71 19 -82 55 -105 154 -97 96 8 177 57 177 107 0 14 9
60 20 101 11 41 27 147 34 236 17 191 33 259 90 379 78 163 180 289 338 417
54 44 110 97 125 119 14 21 34 76 45 121 22 95 37 121 128 230 63 74 97 128
260 410 50 88 85 133 155 203 89 89 135 122 481 347 163 106 216 152 435 369
122 121 200 209 258 289 94 130 118 175 151 275 31 94 65 160 149 287 88 135
104 165 147 291 41 119 80 192 156 299 78 107 145 270 169 411 27 152 45 217
81 298 24 55 35 69 53 69 45 0 536 -52 980 -105 799 -94 923 -104 1400 -112
588 -10 1370 42 1445 96 63 45 160 254 203 436 31 133 30 407 -2 555 -43 201
-117 381 -219 533 -82 123 -158 161 -482 247 -216 56 -399 125 -625 235 -296
145 -490 263 -980 598 -402 274 -432 296 -523 379 -43 38 -140 111 -217 162
-741 493 -1438 732 -2214 761 -141 5 -144 6 -180 36 -60 49 -150 88 -246 105
-49 9 -95 18 -101 19 -27 7 -107 208 -203 510 -158 493 -498 908 -907 1106
-72 35 -109 63 -236 181 -83 77 -174 157 -202 178 -113 86 -237 125 -579 185
-111 19 -215 41 -232 47 -36 14 -575 21 -649 8z m654 -49 c69 -11 211 -33 317
-50 258 -41 310 -60 473 -172 261 -179 452 -411 641 -782 l86 -169 36 51 c43
59 78 85 106 76 37 -11 70 -109 96 -280 8 -46 9 -48 15 -20 20 89 58 97 133
27 l27 -26 -6 34 -6 35 21 -25 c34 -41 110 -176 146 -261 19 -43 57 -157 85
-251 28 -95 58 -192 67 -216 21 -56 9 -110 -28 -131 -24 -13 -31 -12 -92 16
-251 118 -430 336 -573 697 -24 61 -43 102 -44 91 0 -42 61 -289 99 -406 70
-207 182 -408 301 -542 l53 -58 -23 -24 c-37 -39 -202 -116 -217 -101 -2 2 6
23 17 47 30 66 27 106 -10 127 -17 10 -35 31 -41 50 -6 18 -33 59 -61 90 -63
72 -55 57 -191 389 -155 377 -197 503 -268 792 -33 136 -71 282 -86 326 -88
272 -246 437 -502 524 -194 66 -452 106 -787 123 -222 11 -247 10 -325 -6 -46
-10 -106 -21 -132 -23 -53 -5 -117 3 -117 16 0 10 65 30 155 47 104 20 472 12
635 -15z m-2363 -120 c56 -40 88 -123 35 -90 -17 10 -24 9 -47 -9 -33 -26 -46
-21 -20 8 18 20 18 21 -3 41 -21 19 -31 79 -14 79 5 0 27 -13 49 -29z m2357
-2 c472 -40 648 -106 789 -292 30 -40 67 -94 82 -120 15 -26 40 -54 56 -63 16
-8 37 -31 48 -52 58 -114 183 -606 205 -807 27 -244 33 -265 140 -469 41 -78
77 -156 81 -175 4 -18 27 -79 51 -135 40 -94 101 -284 93 -290 -2 -1 -58 -19
-123 -40 -99 -31 -198 -71 -464 -183 -7 -3 16 40 53 95 126 192 186 356 186
505 1 130 -32 220 -126 344 -44 59 -234 247 -242 239 -2 -2 8 -59 23 -127 38
-181 45 -454 16 -624 -22 -128 -55 -237 -104 -349 -38 -86 -99 -198 -105 -192
-2 2 -20 75 -38 161 -44 201 -83 323 -149 460 -49 102 -146 246 -193 288 -20
17 -21 17 -36 -21 -50 -124 -61 -317 -37 -604 18 -223 10 -402 -23 -499 -56
-165 -95 -219 -156 -219 -16 0 -24 18 -50 128 -61 254 -82 425 -82 677 0 245
29 450 93 673 14 49 26 72 37 73 38 3 68 -4 103 -21 l37 -19 -7 32 c-12 53 -8
185 6 199 9 9 12 8 12 -8 0 -23 58 -144 68 -144 4 0 6 21 4 46 -9 112 34 272
95 352 l26 34 29 -54 c34 -63 95 -128 159 -169 25 -16 48 -29 51 -29 4 0 -3
23 -13 50 -10 28 -39 128 -64 223 -82 311 -116 370 -279 479 -50 34 -136 97
-191 141 -55 44 -128 93 -163 110 -56 26 -70 29 -140 25 -67 -4 -94 -12 -217
-64 -77 -34 -164 -69 -194 -80 l-53 -19 -24 28 c-26 31 -31 64 -11 90 9 14 33
18 107 22 68 3 141 16 255 45 175 46 232 48 360 15 211 -54 442 -244 548 -450
27 -54 61 -100 102 -140 65 -63 174 -132 162 -102 -3 8 -58 177 -123 374 -64
197 -119 364 -121 371 -4 9 12 12 58 12 l64 0 -70 41 c-130 76 -279 134 -425
166 -64 14 -125 18 -250 17 -195 -1 -297 -19 -498 -89 -71 -25 -132 -45 -136
-45 -3 0 -6 11 -6 24 0 32 -24 49 -78 56 l-46 5 59 32 c125 65 281 95 455 87
52 -3 198 -14 324 -25z m-2075 2 c11 -7 13 -24 8 -70 -4 -52 -1 -68 20 -110
60 -122 217 -200 400 -201 l73 0 54 49 c33 30 71 54 93 60 21 5 56 13 78 19
l40 9 -48 8 c-72 11 -130 0 -227 -45 -105 -48 -184 -54 -257 -19 -24 11 -43
24 -43 27 0 4 46 7 102 7 136 0 169 8 223 55 57 49 77 54 172 46 110 -10 211
-45 290 -102 94 -67 310 -286 361 -364 23 -37 62 -81 91 -102 56 -42 137 -135
177 -204 23 -39 29 -64 36 -158 7 -105 11 -116 53 -198 25 -48 45 -96 45 -107
0 -11 5 -23 10 -26 18 -11 11 -57 -16 -103 -20 -34 -25 -53 -21 -83 l5 -38
-32 7 c-67 15 -180 5 -306 -28 -105 -27 -149 -33 -274 -37 l-148 -6 -72 -51
c-135 -97 -272 -156 -461 -201 -83 -20 -299 -55 -335 -55 -18 0 -10 -19 12
-31 12 -6 50 -18 86 -25 64 -13 102 -35 102 -59 0 -9 -40 -14 -137 -19 -136
-7 -228 -25 -266 -51 -18 -13 -17 -14 19 -25 22 -6 106 -21 187 -32 155 -23
162 -30 42 -43 -194 -20 -660 -137 -900 -227 -121 -45 -280 -121 -364 -175
-54 -35 -70 -33 -71 5 0 24 54 68 105 86 93 32 140 60 143 84 4 27 5 27 -54 2
-58 -25 -123 -40 -129 -30 -6 9 39 50 90 83 22 14 76 35 120 46 58 15 86 27
103 46 33 39 28 48 -21 41 -118 -18 -263 -58 -315 -87 -177 -99 -223 -119
-270 -119 -52 0 -92 9 -92 19 0 4 33 18 72 30 140 45 352 143 880 407 292 146
565 277 606 290 41 14 132 36 202 50 150 29 205 46 379 119 275 116 409 145
706 152 105 2 199 6 211 8 11 3 26 16 32 30 15 32 15 119 1 165 -6 19 -14 94
-18 165 -6 94 -13 140 -26 165 -10 19 -61 80 -115 135 -53 55 -131 141 -173
191 -210 251 -399 364 -542 325 -55 -15 -133 -66 -147 -96 -19 -43 -1 -49 87
-31 176 37 341 11 414 -64 20 -20 73 -99 119 -176 97 -162 108 -177 153 -202
44 -24 59 -56 66 -140 6 -78 -12 -164 -57 -260 -26 -55 -35 -65 -77 -84 -76
-35 -204 -36 -389 -4 -84 14 -170 26 -193 26 -37 0 -41 -2 -41 -25 0 -41 52
-89 132 -120 40 -16 68 -30 63 -31 -6 -2 -102 -10 -215 -19 -587 -45 -1000
-102 -1469 -201 l-221 -47 0 -39 c0 -22 5 -48 11 -60 6 -11 9 -22 6 -24 -9 -9
-55 37 -72 71 -11 25 -21 35 -32 31 -8 -3 -19 -6 -25 -6 -7 0 -9 -19 -6 -50 5
-45 3 -48 -13 -39 -10 5 -26 23 -36 39 -19 33 -21 33 -115 9 -37 -9 -38 -11
-38 -54 0 -25 -4 -45 -9 -45 -11 0 -57 43 -62 59 -4 10 -33 6 -123 -18 -126
-33 -156 -37 -156 -21 0 32 97 72 245 100 99 19 389 92 405 102 10 6 -4 7 -40
4 -149 -16 -327 -19 -365 -6 -90 29 -159 100 -187 189 -7 22 -15 41 -18 41 -3
0 -31 -41 -64 -90 -118 -183 -208 -250 -333 -250 -69 0 -87 10 -107 60 -21 52
-20 93 1 133 l17 32 9 -38 c12 -50 65 -102 111 -111 50 -10 115 24 176 91 83
90 108 198 75 311 -9 29 -13 57 -10 62 22 36 356 286 554 415 538 350 802 465
1067 465 67 0 78 -3 116 -30 42 -31 76 -36 143 -21 28 6 26 7 -40 38 -71 32
-178 66 -247 78 -44 8 -41 22 7 31 51 9 265 -41 386 -90 8 -4 -24 33 -71 81
-84 86 -160 204 -160 249 -1 18 -1 18 -11 0 -7 -10 -9 -37 -5 -62 3 -24 3 -44
1 -44 -14 0 -45 69 -45 98 0 65 86 116 139 83z m-1009 -571 c0 -12 -11 -14
-63 -11 -43 3 -82 -18 -92 -50 -4 -12 -32 -46 -61 -76 -50 -50 -57 -53 -89
-47 -19 3 -57 1 -85 -6 -28 -7 -54 -9 -57 -6 -11 11 3 16 68 27 93 15 139 37
139 65 0 72 62 113 173 114 38 0 67 -4 67 -10z m-446 -226 c23 -9 19 -48 -8
-81 -13 -16 -51 -50 -84 -75 -50 -40 -62 -45 -76 -35 -17 12 -13 47 4 47 4 0
22 13 39 29 25 24 30 34 25 58 -10 49 43 79 100 57z m-339 -260 c-33 -31 -79
-64 -102 -75 -24 -11 -43 -26 -43 -33 0 -7 -9 -25 -21 -40 -21 -27 -19 -31 24
-38 37 -6 10 -23 -39 -23 -36 -1 -63 -8 -98 -29 -53 -31 -79 -71 -55 -87 17
-11 66 -2 98 18 44 28 79 33 126 16 41 -13 45 -18 45 -46 -1 -43 -33 -113 -60
-127 -21 -11 -21 -11 -5 20 21 40 16 74 -10 78 -27 4 -98 -57 -119 -102 -46
-98 -22 -136 45 -70 21 21 39 35 39 31 0 -18 -33 -84 -52 -104 -25 -27 -48
-29 -88 -8 -58 30 -66 85 -20 133 20 21 30 42 30 62 0 51 -30 31 -69 -47 -24
-49 -61 -76 -61 -45 0 32 29 118 48 143 11 13 22 39 25 56 9 45 34 81 69 99
44 23 108 91 108 115 0 52 72 116 163 145 82 25 86 17 22 -42z m2040 -607 c44
-8 73 -16 65 -20 -8 -3 -62 -20 -120 -37 -120 -36 -307 -104 -362 -131 -52
-27 -58 -24 -58 21 0 51 -30 111 -72 143 l-32 26 25 5 c13 3 35 7 49 10 48 9
426 -4 505 -17z m-1071 -205 c14 -22 -10 -12 -36 16 -23 25 -48 64 -48 76 0 2
12 6 28 8 25 3 28 -1 38 -42 5 -25 14 -51 18 -58z m2145 73 c27 -15 62 -40 77
-56 l28 -29 -28 0 c-16 0 -36 -10 -50 -25 l-22 -24 -65 20 c-46 15 -81 19
-125 16 -102 -7 -142 -33 -303 -190 -136 -132 -244 -218 -258 -204 -8 9 15 62
48 107 15 21 65 66 111 101 46 34 128 106 183 159 55 54 116 105 135 115 100
52 186 55 269 10z m-3240 -153 c-53 -47 -84 -61 -132 -62 -31 0 -40 4 -44 20
-3 12 -14 20 -27 20 -29 0 -66 11 -66 19 0 12 189 44 220 38 34 -7 45 4 55 58
l8 40 14 -48 15 -49 -43 -36z m427 -44 c29 -57 24 -57 -44 6 -29 27 -30 31
-15 38 30 11 32 10 59 -44z m-290 -26 c-7 -6 -56 37 -56 49 0 4 10 9 23 11 17
2 24 -3 30 -26 5 -15 6 -31 3 -34z m206 -39 c7 -9 7 -13 -1 -13 -6 0 -29 18
-52 41 l-41 41 23 12 c22 12 25 10 42 -28 10 -22 23 -46 29 -53z m1023 43 c12
-8 16 -19 12 -30 -10 -24 -29 -15 -38 17 -8 30 -2 33 26 13z m-1428 -53 c6
-21 10 -40 8 -42 -2 -2 -19 11 -37 29 -31 31 -31 34 -13 41 11 4 22 8 25 8 3
1 10 -16 17 -36z m1329 -27 c-8 -32 -66 9 -66 47 0 17 4 16 34 -10 19 -15 33
-32 32 -37z m5239 -20 c54 -25 99 -66 74 -66 -32 0 -91 -53 -115 -103 -13 -28
-21 -53 -19 -56 3 -2 25 4 49 13 64 25 100 19 104 -17 4 -33 -53 -97 -88 -97
-40 0 -18 -33 34 -53 49 -18 51 -18 107 3 51 20 62 21 96 9 21 -7 66 -12 100
-10 51 2 65 -1 82 -18 12 -12 21 -28 21 -37 0 -11 6 -14 22 -8 46 14 127 6
181 -19 92 -42 309 -183 391 -254 43 -37 92 -78 107 -91 16 -13 88 -50 160
-82 73 -33 229 -113 348 -179 119 -65 245 -128 281 -140 66 -21 185 -87 560
-307 113 -67 254 -147 313 -180 59 -32 158 -97 220 -142 132 -99 204 -137 363
-192 l119 -40 -110 108 c-164 161 -580 502 -835 683 -375 267 -877 567 -1447
864 -95 49 -171 90 -169 92 5 5 249 -75 396 -129 278 -104 656 -286 1000 -483
102 -59 194 -111 204 -117 33 -18 -17 44 -86 107 -250 226 -909 552 -1375 681
-221 61 -488 97 -692 93 -81 -1 -96 1 -108 17 -15 20 -17 40 -5 48 9 6 429
-37 577 -59 298 -44 410 -79 855 -267 376 -159 751 -391 1250 -774 227 -174
764 -523 1054 -684 310 -172 473 -241 808 -340 321 -95 458 -145 458 -168 0
-21 -301 -181 -456 -242 -384 -154 -831 -254 -1429 -322 -160 -18 -102 -22
129 -9 742 43 1287 148 1743 336 46 19 87 35 91 35 12 0 98 -147 123 -210 42
-109 69 -239 69 -338 0 -35 -4 -40 -67 -79 -360 -220 -761 -288 -1473 -252
-176 8 -568 13 -1165 14 -940 1 -896 0 -1810 55 -588 36 -1006 59 -1175 65
-91 3 -183 8 -205 11 -21 3 -36 2 -33 -2 10 -9 67 -19 342 -59 568 -82 1140
-135 2176 -200 526 -33 650 -36 1405 -41 600 -3 825 -8 976 -20 160 -14 213
-15 294 -5 208 24 368 71 523 151 53 27 99 47 103 44 12 -7 31 -110 27 -151
l-3 -38 -147 -37 c-544 -137 -1308 -181 -2413 -137 -250 9 -639 32 -855 48
-63 5 -116 8 -118 6 -2 -2 41 -13 95 -25 54 -12 132 -30 173 -41 79 -21 190
-67 190 -78 0 -4 -111 5 -247 21 -1443 164 -2472 238 -3308 238 -857 0 -1692
-71 -2350 -199 -55 -10 -101 -18 -103 -16 -10 9 496 177 813 270 1201 350
2394 509 4330 575 160 5 364 13 455 17 l165 7 -110 7 c-60 4 -284 12 -496 18
-544 17 -970 3 -1864 -59 -669 -47 -713 -53 -1385 -220 -275 -68 -476 -111
-780 -165 -347 -62 -756 -161 -1236 -299 -596 -171 -1062 -335 -1499 -526
-177 -77 -172 -75 -160 -62 6 6 107 60 225 119 292 148 1450 641 1647 702 209
64 718 197 945 246 l76 17 12 71 c50 306 176 776 310 1159 28 78 50 144 50
147 0 2 -16 -11 -36 -30 -95 -91 -256 -390 -329 -610 -61 -184 -111 -282 -183
-356 -52 -53 -162 -136 -170 -128 -2 2 18 36 46 77 144 214 214 391 327 833
109 426 191 577 465 859 202 208 416 368 730 549 51 30 27 9 -75 -64 -326
-232 -553 -498 -697 -816 -45 -99 -48 -120 -9 -67 46 63 167 173 296 271 151
114 188 150 310 298 132 160 221 245 303 288 38 20 140 57 227 83 146 42 285
99 299 123 4 5 0 65 -8 132 l-14 123 24 31 c32 42 162 152 228 193 133 83 281
105 381 58z m-5351 -27 c-8 -14 -34 -10 -34 5 0 9 7 12 20 9 11 -3 17 -9 14
-14z m-247 -147 c-16 -8 -37 8 -37 27 0 20 1 20 23 -2 12 -12 18 -24 14 -25z
m-108 -51 c-7 -2 -21 6 -31 19 -29 36 -21 46 12 15 19 -19 26 -31 19 -34z
m-87 -33 c-16 -16 -42 8 -42 38 l0 23 27 -25 c20 -18 24 -27 15 -36z m-95 -44
c-10 -10 -47 26 -47 45 0 11 7 8 27 -11 15 -15 24 -31 20 -34z m-68 -21 c2 -2
-4 -6 -14 -9 -20 -8 -55 27 -55 54 0 12 9 8 32 -14 18 -16 35 -30 37 -31z
m5162 -4 c-25 -22 -89 -65 -144 -96 -110 -62 -117 -61 -117 14 l0 42 83 25
c180 54 212 63 217 58 3 -2 -15 -22 -39 -43z m-5287 -30 c-8 -13 -42 -11 -47
4 -9 27 4 37 29 21 13 -9 21 -20 18 -25z m-145 -19 c42 -21 44 -23 26 -36 -31
-23 -53 -16 -85 28 -36 49 -38 66 -7 46 12 -8 42 -25 66 -38z m-135 -65 c11
-8 28 -15 38 -15 21 0 14 -26 -10 -35 -11 -4 -25 3 -39 20 -36 41 -28 60 11
30z m5220 -24 c62 -29 67 -34 50 -45 -11 -7 -127 -75 -259 -151 -132 -76 -294
-173 -359 -216 -66 -43 -122 -77 -124 -74 -2 2 3 18 11 34 l15 31 -59 0 c-64
0 -149 17 -149 30 0 18 293 196 470 285 91 46 323 146 330 142 3 -2 36 -18 74
-36z m-1066 -571 c18 -15 34 -19 54 -15 20 5 35 1 54 -14 15 -12 39 -21 54
-21 24 0 27 -3 23 -22 -3 -13 -27 -45 -52 -73 -71 -75 -159 -179 -240 -283
-69 -87 -74 -91 -93 -78 -86 61 -76 177 29 340 42 66 134 186 141 186 2 0 16
-9 30 -20z m2107 -2681 c72 -6 134 -15 139 -19 14 -14 -32 -96 -75 -134 -46
-42 -69 -46 -69 -12 0 39 -10 56 -34 56 -47 0 -64 -32 -72 -136 -4 -53 -13
-92 -27 -118 -39 -71 -57 -53 -57 57 0 37 -4 56 -10 52 -12 -7 -60 -99 -60
-114 0 -5 -9 -31 -21 -58 -20 -46 -22 -47 -30 -24 -7 16 -5 40 5 73 l14 48
-27 0 c-35 0 -89 -34 -103 -65 -17 -37 -26 -31 -35 23 -16 102 2 211 25 151 6
-13 14 -35 19 -49 10 -25 10 -24 78 40 63 61 155 177 155 196 0 5 -46 9 -103
9 -90 0 -106 3 -137 23 l-35 24 165 -6 c91 -3 224 -11 295 -17z m-2287 -61 c2
-14 -6 -45 -18 -68 -24 -47 -18 -62 30 -79 25 -8 34 -6 67 18 21 16 54 45 73
66 19 20 43 41 53 46 26 15 54 -5 68 -48 6 -21 16 -44 22 -51 11 -14 -5 -32
-29 -32 -6 0 -19 -9 -28 -19 -14 -16 -15 -23 -6 -41 7 -13 10 -68 8 -154 l-3
-134 -68 -7 c-67 -6 -68 -6 -109 30 -84 72 -216 114 -353 115 -63 0 -71 2 -80
23 -7 15 -21 24 -45 27 -33 5 -34 6 -13 18 36 20 134 42 187 42 l49 0 -23 25
c-12 13 -45 32 -73 41 -59 20 -48 33 32 36 90 4 37 20 -84 26 -63 3 -114 6
-112 8 2 2 37 13 78 23 l74 19 -69 7 c-86 9 -182 0 -257 -25 -72 -25 -69 -25
-69 5 0 18 7 28 25 35 57 22 532 80 625 77 41 -2 45 -4 48 -29z m3879 -180
c-3 -29 -23 -109 -45 -178 -24 -77 -42 -155 -46 -204 -4 -55 -13 -90 -28 -115
-12 -20 -38 -68 -58 -106 -20 -39 -58 -99 -84 -135 -61 -82 -68 -96 -114 -227
-51 -141 -80 -198 -162 -313 -76 -107 -95 -143 -155 -285 -48 -115 -80 -169
-137 -231 -46 -50 -58 -54 -58 -21 0 34 -51 114 -130 202 -86 96 -155 184
-148 190 9 9 115 -68 176 -128 l63 -62 -36 100 c-20 55 -70 193 -110 306 -41
113 -75 210 -75 215 0 5 35 29 77 54 108 63 280 187 387 279 145 125 236 227
344 387 114 169 166 228 254 284 83 54 92 53 85 -12z m-4023 -402 c10 -151 72
-332 149 -433 l24 -33 21 23 c29 31 38 61 47 150 6 74 9 80 38 98 31 20 84 21
130 3 14 -5 17 0 17 36 0 37 -6 48 -38 80 -21 20 -63 45 -93 57 l-54 20 35 22
c48 29 144 30 160 1 6 -11 22 -23 35 -26 21 -5 29 -20 52 -88 23 -70 27 -97
27 -201 0 -66 -7 -178 -16 -248 -14 -126 -22 -146 -55 -147 -14 0 -27 93 -21
145 5 43 -12 46 -47 10 -31 -30 -33 -89 -6 -145 20 -42 15 -52 -12 -22 -26 28
-47 88 -48 134 l-1 43 -19 -40 c-14 -32 -19 -63 -19 -150 0 -107 1 -112 29
-145 21 -26 30 -50 35 -95 4 -33 14 -97 22 -143 13 -75 13 -85 -2 -118 -9 -19
-20 -32 -24 -27 -4 4 -22 55 -40 113 -17 57 -45 130 -61 162 -28 56 -84 128
-99 128 -17 0 -18 -80 -4 -179 19 -128 13 -179 -27 -222 -28 -30 -32 -31 -80
-25 -27 4 -65 4 -85 0 -51 -9 -28 -29 56 -48 67 -15 150 -50 150 -63 0 -3 -7
-14 -14 -22 -13 -15 -11 -19 21 -41 27 -19 55 -26 115 -31 44 -4 89 -14 103
-23 13 -9 36 -16 51 -16 25 0 26 -2 21 -41 -15 -114 -101 -194 -209 -194 -32
1 -62 5 -68 11 -18 18 17 38 71 39 26 1 50 3 53 6 10 10 -33 112 -60 140 -16
17 -65 49 -109 72 -44 23 -100 61 -124 85 -24 24 -57 48 -74 53 -38 11 -101
-3 -139 -31 -84 -62 -100 -70 -120 -59 -17 9 -20 18 -15 57 2 26 8 55 12 65 6
15 1 17 -46 17 -71 0 -121 15 -148 44 l-22 24 54 6 c30 4 63 13 73 20 17 13
15 16 -19 56 -38 45 -122 198 -114 207 12 11 49 -21 86 -75 21 -32 46 -64 56
-72 9 -7 26 -32 37 -54 36 -73 54 -86 120 -86 35 0 58 4 58 11 0 6 -47 103
-105 215 -106 208 -145 308 -145 372 l0 35 26 -24 c43 -40 80 -100 159 -258
l74 -150 32 9 c41 12 87 55 105 97 26 59 17 180 -26 377 -66 303 -78 407 -61
521 11 77 32 105 81 105 l27 0 7 -94z m2471 -941 c90 -33 206 -94 237 -123 38
-35 44 -77 20 -138 -28 -75 -72 -133 -201 -268 -65 -66 -137 -146 -160 -176
-42 -53 -95 -150 -86 -158 2 -2 30 18 62 46 32 27 117 89 190 136 148 96 229
161 350 279 l81 80 32 -23 c43 -30 88 -95 96 -136 5 -29 1 -39 -42 -89 -81
-93 -243 -235 -559 -489 -173 -139 -351 -292 -421 -361 l-121 -120 -91 -185
c-94 -192 -149 -275 -268 -402 -75 -80 -98 -121 -112 -206 -6 -35 -21 -79 -33
-99 l-22 -36 -86 6 c-174 12 -243 53 -283 167 -39 110 -96 129 -273 94 -101
-20 -152 -9 -189 39 -27 37 -59 124 -52 143 7 19 97 62 145 70 38 6 41 5 52
-22 9 -26 8 -77 -2 -139 -6 -30 48 -32 103 -4 52 27 111 28 158 4 30 -15 60
-37 177 -127 14 -11 86 80 136 173 30 55 72 177 63 186 -1 1 -19 -20 -40 -47
-21 -27 -54 -64 -73 -81 -34 -29 -37 -30 -47 -13 -5 11 -10 60 -10 109 -1 89
0 92 58 220 60 133 118 286 111 293 -9 9 -127 -64 -178 -109 -31 -27 -97 -100
-149 -162 -134 -163 -210 -247 -220 -247 -13 0 0 55 27 117 33 74 93 158 211
298 160 191 177 223 240 460 42 157 82 241 170 360 200 269 555 611 702 677
94 42 190 43 297 3z m-2376 -788 c13 -17 5 -27 -24 -27 -38 0 -142 -59 -184
-105 -41 -44 -41 -44 -41 -17 0 67 111 161 191 162 27 0 51 -6 58 -13z m-848
-153 c13 -14 48 -40 77 -56 50 -29 52 -31 52 -73 0 -24 9 -72 20 -107 24 -76
25 -107 5 -155 -8 -19 -15 -44 -15 -54 0 -31 -30 -22 -76 25 -50 50 -53 67
-24 151 20 60 25 112 12 131 -4 5 -35 29 -69 53 -64 45 -98 84 -88 101 3 6 23
10 44 10 28 0 44 -7 62 -26z m-187 -51 c41 -14 196 -160 196 -184 0 -7 -11
-26 -24 -44 -13 -17 -29 -50 -35 -73 -13 -47 -42 -72 -84 -72 -40 0 -92 24
-111 51 -23 33 -21 105 3 125 73 63 74 64 68 106 -8 57 -22 67 -41 29 -13 -24
-23 -31 -47 -31 -35 0 -76 19 -102 47 -16 19 -16 20 1 36 42 38 89 41 176 10z
m-251 -127 c38 -16 62 -40 76 -79 9 -22 8 -29 -4 -33 -26 -10 -59 4 -101 45
-52 49 -63 81 -28 81 14 0 39 -6 57 -14z m-167 -148 c52 -35 98 -95 108 -140
6 -27 5 -28 -36 -28 -53 0 -156 24 -171 39 -15 15 -14 110 1 139 17 30 41 28
98 -10z m645 -165 c42 -38 84 -107 74 -122 -7 -13 -94 -41 -123 -41 -30 0
-127 63 -143 91 -6 12 -9 22 -7 23 2 1 27 13 55 26 29 13 60 32 70 42 22 25
27 23 74 -19z m-752 -43 c28 -14 32 -35 14 -70 -11 -22 -14 -46 -9 -76 5 -43
5 -44 -40 -70 -38 -22 -52 -26 -92 -20 -49 7 -64 19 -54 45 14 40 140 201 157
201 3 0 14 -4 24 -10z m476 -24 c38 -16 43 -27 20 -46 -14 -12 -29 -11 -69 5
-16 7 -17 6 -7 -13 23 -43 14 -89 -25 -128 -34 -34 -40 -36 -85 -32 -61 6 -97
30 -116 76 -15 36 -15 37 18 65 49 42 148 87 192 87 21 0 53 -7 72 -14z m175
-231 c18 -9 32 -26 36 -43 3 -15 8 -33 10 -40 7 -24 -8 -61 -27 -67 -10 -4
-19 -15 -19 -26 0 -23 -38 -40 -69 -32 -30 8 -22 24 25 50 l39 23 -42 0 c-40
0 -43 2 -43 26 0 23 -3 26 -25 22 -36 -7 -39 6 -10 40 14 16 25 34 25 40 0 24
59 28 100 7z m-440 -75 c54 -58 65 -162 23 -218 -24 -32 -49 -43 -39 -17 6 16
1 17 -39 13 -37 -5 -43 -3 -34 8 6 7 26 19 45 26 49 18 42 28 -20 28 -93 0
-99 8 -66 83 11 25 17 52 14 61 -12 31 4 46 47 46 33 0 47 -6 69 -30z m-360
-45 c0 -3 -13 -24 -30 -47 -29 -40 -30 -40 -30 -14 0 38 17 66 40 66 11 0 20
-2 20 -5z m717 -216 c1 -70 1 -70 -20 -56 -25 16 -50 81 -42 108 6 17 31 28
50 22 6 -2 11 -35 12 -74z m-468 -12 c8 -10 7 -25 -3 -58 -8 -24 -17 -57 -21
-74 l-7 -30 -13 25 c-15 26 -20 131 -8 143 11 12 40 8 52 -6z m2281 -207 c10
-5 21 -21 24 -36 4 -14 19 -37 33 -50 l26 -24 -30 -33 c-59 -62 -77 -111 -81
-229 -4 -100 -6 -108 -31 -131 -14 -13 -47 -32 -74 -42 -34 -13 -67 -39 -118
-92 -59 -63 -201 -244 -259 -332 -15 -23 -17 -23 -48 -7 -17 9 -60 19 -94 22
l-63 5 50 -27 c74 -40 148 -63 244 -74 83 -11 181 -44 168 -57 -13 -12 -195
20 -293 52 -108 36 -259 107 -334 158 -48 33 -170 145 -170 157 0 4 19 13 43
20 99 29 194 96 237 166 12 18 45 106 75 194 30 88 64 177 76 198 26 43 86
109 113 124 16 9 14 2 -9 -38 -66 -112 -105 -198 -105 -228 l1 -31 34 40 c19
22 56 69 82 105 50 66 128 134 144 124 15 -9 10 -56 -12 -103 -11 -25 -49 -84
-86 -133 -36 -49 -63 -91 -60 -94 16 -17 177 94 226 156 42 53 81 143 81 188
0 31 9 47 30 55 25 9 160 8 180 -3z m390 -272 c0 -2 -38 -42 -85 -90 -94 -97
-194 -226 -230 -299 -45 -88 -105 -278 -105 -333 0 -54 -16 -88 -51 -107 -17
-9 -23 -7 -34 9 -9 12 -37 24 -75 32 -33 7 -60 17 -60 21 0 5 6 9 14 9 26 0
103 38 125 61 23 24 27 59 11 89 -14 26 26 157 73 242 41 74 184 278 225 321
14 15 40 32 57 36 27 8 135 15 135 9z m-1450 -571 c29 -49 198 -154 392 -242
48 -22 84 -41 79 -43 -15 -5 -219 67 -298 105 -43 21 -109 62 -148 90 -38 29
-72 48 -74 42 -1 -5 2 -39 9 -74 13 -68 7 -116 -15 -135 -11 -9 -20 -7 -42 8
-34 24 -105 44 -127 36 -19 -7 -19 -2 -6 47 7 25 19 39 42 50 19 8 35 24 39
39 8 33 86 110 111 110 10 0 27 -14 38 -33z m1010 -347 c0 -33 -7 -48 -39 -82
l-38 -41 -34 21 c-42 26 -95 80 -86 88 3 3 38 10 78 14 43 5 78 14 87 24 25
25 32 19 32 -24z"/>
<path d="M2265 10796 c-145 -46 -580 -246 -770 -355 -280 -161 -525 -398 -525
-511 0 -33 21 -76 44 -92 6 -4 11 -34 11 -67 0 -52 4 -64 27 -88 23 -23 38
-28 93 -31 37 -3 115 1 173 7 59 6 199 18 312 26 227 16 335 33 455 72 119 38
247 107 294 158 43 47 48 65 30 112 -48 125 -42 247 21 486 50 192 52 235 9
271 -25 21 -41 26 -82 25 -29 0 -70 -6 -92 -13z m24 -252 c24 -31 28 -91 7
-120 -8 -10 -16 -17 -18 -14 -2 3 -12 22 -22 43 -26 50 -39 47 -21 -4 19 -53
19 -63 -1 -55 -11 4 -18 -1 -21 -14 -6 -22 -41 -27 -74 -9 -24 12 -55 4 -63
-17 -4 -10 3 -16 24 -20 54 -11 54 -29 0 -48 -27 -10 -54 -24 -61 -32 -9 -12
-6 -14 22 -15 45 -1 86 -13 74 -21 -19 -12 -129 -28 -188 -28 -59 0 -60 0 -42
-20 26 -28 80 -43 162 -44 40 -1 73 -4 73 -7 0 -11 -99 -60 -172 -85 -40 -13
-140 -33 -227 -44 -86 -12 -174 -26 -196 -32 l-40 -11 30 -8 c16 -5 57 -11 90
-15 33 -4 90 -12 127 -19 38 -7 72 -9 80 -4 19 12 228 11 228 -1 0 -5 -12 -12
-27 -16 -52 -11 -54 -13 -47 -39 9 -38 -23 -46 -50 -12 -17 21 -31 27 -59 27
-55 0 -82 -33 -80 -97 1 -18 -9 -17 -122 17 -133 39 -138 39 -129 -5 3 -19 3
-35 0 -35 -4 0 -40 23 -81 50 -54 36 -84 50 -109 50 -75 0 -140 21 -174 58
l-33 35 -23 -22 c-23 -21 -46 -28 -46 -13 0 16 125 152 195 214 165 143 401
271 655 354 80 26 181 60 225 75 100 35 109 35 134 3z"/>
<path d="M2695 10771 c-55 -24 -158 -169 -188 -266 -17 -56 -22 -94 -22 -190
0 -111 2 -124 27 -171 37 -70 123 -146 224 -195 71 -36 96 -43 162 -47 160 -9
258 54 264 169 3 72 -12 400 -21 457 -5 33 -17 62 -32 78 -32 35 -297 161
-351 168 -24 3 -52 2 -63 -3z m289 -159 c16 -9 38 -29 49 -45 42 -56 33 -269
-21 -482 l-18 -70 -65 -13 c-48 -11 -79 -11 -127 -4 -150 24 -205 116 -218
369 l-7 122 27 7 c15 3 30 4 33 0 3 -3 7 -40 9 -81 4 -75 16 -115 34 -115 6 0
10 15 10 33 l0 32 77 0 c43 0 89 4 103 8 l25 8 -22 -19 c-13 -12 -46 -23 -78
-27 -45 -5 -55 -10 -53 -23 3 -12 12 -16 33 -14 17 1 41 0 54 -4 l25 -5 -32
-25 c-47 -37 -55 -57 -42 -104 13 -49 31 -51 87 -11 62 45 93 117 103 241 5
56 7 115 3 131 -13 68 -88 86 -216 50 -65 -18 -67 -18 -52 0 57 62 205 84 279
41z m-156 -104 c18 -18 15 -25 -12 -32 -24 -6 -76 10 -76 24 0 22 67 29 88 8z"/>
<path d="M7250 8680 c-393 -65 -568 -114 -764 -212 -531 -267 -953 -773 -1251
-1503 -97 -236 -213 -605 -260 -820 -10 -44 -23 -86 -30 -94 -8 -8 -42 -27
-77 -42 -35 -16 -58 -29 -52 -29 6 0 78 14 160 30 550 112 980 155 1929 195
887 37 1271 60 1675 100 101 10 400 17 985 24 1207 15 1157 12 1589 91 452 83
657 151 823 273 56 42 143 137 143 157 0 22 -166 40 -485 51 -376 12 -508 30
-677 88 -32 11 -58 16 -58 11 0 -18 142 -138 212 -178 105 -59 177 -83 282
-89 69 -5 93 -10 108 -25 21 -21 19 -35 -14 -110 -20 -44 -25 -48 -92 -73 -92
-35 -306 -89 -426 -109 -179 -29 -305 -38 -670 -45 l-365 -7 -50 24 c-73 36
-114 72 -206 178 -49 58 -105 111 -140 134 -111 71 -388 173 -611 223 l-67 15
60 -78 c84 -108 106 -127 182 -155 37 -13 86 -37 111 -54 43 -30 106 -111 106
-138 0 -31 -100 -24 -171 12 -70 37 -271 200 -343 279 -50 55 -96 96 -127 112
-33 16 -49 20 -49 12 1 -27 42 -103 90 -164 124 -157 118 -183 -12 -60 -332
317 -705 532 -1159 670 -140 42 -326 82 -336 72 -18 -18 54 -121 142 -204 112
-106 135 -137 169 -228 34 -91 63 -119 146 -137 54 -13 70 -22 100 -56 60 -68
365 -230 548 -290 34 -11 107 -27 164 -36 258 -40 441 -89 494 -131 17 -13 7
-14 -92 -12 -103 3 -114 5 -154 32 -37 24 -60 31 -140 38 -52 5 -151 22 -220
38 -148 34 -255 53 -271 48 -6 -2 26 -26 72 -53 45 -28 89 -61 98 -74 l16 -24
-42 6 c-24 4 -96 28 -160 53 -87 33 -157 52 -268 71 -82 14 -174 34 -202 45
-67 25 -156 91 -213 160 -91 108 -147 162 -215 206 -38 24 -80 53 -92 65 -21
19 -23 19 -30 2 -3 -11 1 -39 11 -64 46 -121 45 -113 29 -153 -14 -34 -14 -41
1 -63 26 -40 100 -77 201 -100 l30 -7 -45 -14 c-103 -31 -156 -6 -232 109 -20
30 -27 34 -32 22 -12 -32 -6 -69 19 -111 19 -32 39 -49 82 -69 32 -15 108 -58
168 -95 68 -42 137 -76 180 -89 75 -22 119 -47 110 -62 -4 -5 -51 -9 -107 -9
l-100 0 -54 49 c-30 27 -96 73 -146 102 -51 29 -112 65 -135 81 -23 15 -44 28
-47 28 -3 0 -28 -24 -56 -54 -68 -72 -126 -99 -210 -99 -48 0 -78 6 -114 23
-52 25 -126 89 -126 109 0 6 18 31 40 55 47 51 49 71 15 143 -31 67 -95 136
-190 204 -42 30 -72 55 -66 57 18 6 142 -28 189 -52 70 -36 91 -64 127 -176
41 -123 82 -189 142 -229 109 -72 183 -44 183 70 0 31 10 54 42 100 37 51 43
68 46 123 5 83 -18 137 -94 217 -63 65 -81 73 -249 105 -118 22 -201 60 -245
112 -75 87 -156 325 -148 433 3 37 7 45 26 47 35 5 57 -22 72 -86 33 -151 100
-304 152 -347 25 -21 38 -24 111 -23 l82 1 320 -141 c175 -78 321 -140 323
-138 2 2 -43 29 -100 59 -57 31 -204 112 -327 181 l-224 124 2 84 c2 103 -15
167 -114 423 -75 194 -115 317 -115 351 0 17 8 19 70 19 39 0 70 -3 70 -7 0
-29 44 -299 55 -335 30 -99 101 -159 215 -182 108 -21 790 -40 818 -22 10 6
-9 29 -66 83 -82 77 -160 122 -325 189 -85 34 -135 69 -271 187 -82 71 -251
250 -243 258 2 2 52 -8 112 -21 155 -35 350 -104 585 -207 326 -144 504 -215
638 -258 68 -22 130 -40 136 -40 6 0 -17 16 -52 34 -113 61 -185 127 -237 215
-4 7 26 -12 66 -43 41 -31 117 -78 169 -105 101 -52 300 -126 300 -112 0 5 -6
11 -13 14 -18 7 -557 427 -557 434 0 11 110 -7 161 -27 l52 -21 -54 63 c-30
35 -99 108 -154 163 -108 108 -186 157 -310 191 -70 19 -320 28 -405 14z"/>
</g>
</svg>
