<?xml version="1.0" standalone="no"?>
<!DOCTYPE svg PUBLIC "-//W3C//DTD SVG 20010904//EN"
 "http://www.w3.org/TR/2001/REC-SVG-20010904/DTD/svg10.dtd">
<svg version="1.0" xmlns="http://www.w3.org/2000/svg"
 width="1280.000000pt" height="720.000000pt" viewBox="0 0 1280.000000 720.000000"
 preserveAspectRatio="xMidYMid meet">
<g transform="translate(0.000000,720.000000) scale(0.100000,-0.100000)"
fill="#000000" stroke="none">
<path d="M5977 5760 c-703 -42 -1299 -143 -1851 -315 -307 -95 -701 -269 -926
-409 l-85 -53 -160 -22 c-739 -104 -1433 -264 -1869 -430 -121 -47 -153 -62
-351 -169 -200 -108 -254 -154 -317 -270 -47 -89 -50 -96 -40 -131 18 -57 104
-154 193 -217 45 -32 123 -99 173 -150 78 -78 106 -99 191 -142 131 -65 330
-139 546 -203 96 -28 183 -55 194 -59 18 -8 17 -9 -8 -9 -40 -1 -42 -22 -8
-94 100 -209 441 -337 816 -307 129 11 201 27 300 65 42 16 102 30 150 35 103
9 118 4 570 -188 592 -251 986 -343 1640 -383 327 -20 1257 -34 1690 -27 473
9 935 30 1165 54 307 31 726 123 944 208 33 13 108 42 166 64 58 23 159 64
225 92 66 29 185 79 265 111 l145 60 80 -6 c52 -4 100 -15 138 -32 195 -84
536 -84 781 -1 180 61 331 171 385 280 17 34 31 67 31 75 0 7 2 13 4 13 2 0
79 23 172 51 216 64 412 138 539 201 85 43 113 64 191 142 50 51 127 118 172
149 91 65 176 160 193 217 11 36 9 42 -39 132 -66 122 -118 164 -358 292 -208
111 -335 162 -624 251 -433 132 -951 241 -1555 326 l-160 22 -85 52 c-368 227
-895 428 -1425 544 -396 86 -649 123 -1090 162 -264 23 -867 33 -1108 19z"/>
</g>
</svg>
