<?xml version="1.0" standalone="no"?>
<!DOCTYPE svg PUBLIC "-//W3C//DTD SVG 20010904//EN"
 "http://www.w3.org/TR/2001/REC-SVG-20010904/DTD/svg10.dtd">
<svg version="1.0" xmlns="http://www.w3.org/2000/svg"
 width="1280.000000pt" height="908.000000pt" viewBox="0 0 1280.000000 908.000000"
 preserveAspectRatio="xMidYMid meet">
<g transform="translate(0.000000,908.000000) scale(0.100000,-0.100000)"
fill="#000000" stroke="none">
<path d="M6120 8993 c-96 -10 -247 -39 -355 -68 -857 -235 -1538 -975 -1756
-1912 l-24 -101 -140 -22 c-213 -33 -602 -105 -786 -145 -1545 -340 -2557
-872 -2875 -1510 -76 -152 -104 -270 -104 -430 0 -160 28 -278 104 -430 234
-470 838 -878 1791 -1210 201 -70 179 -53 275 -210 155 -253 581 -490 1150
-640 74 -19 168 -54 230 -83 406 -193 948 -354 1510 -446 251 -41 683 -86 832
-86 l58 0 0 -269 0 -268 -27 -48 c-46 -84 -33 -185 34 -257 22 -23 26 -37 27
-100 5 -150 92 -267 232 -312 27 -9 258 -41 514 -72 524 -63 588 -65 682 -22
l57 26 12 -36 c33 -107 97 -162 185 -162 81 0 162 55 237 160 13 18 19 21 24
12 14 -34 65 -80 100 -90 68 -20 126 2 192 73 42 46 43 46 58 26 19 -28 65
-51 103 -51 38 0 102 32 127 63 l19 24 28 -23 c21 -19 39 -24 78 -24 47 0 54
3 98 48 26 26 49 53 51 61 4 10 12 9 39 -8 64 -39 139 -25 203 37 123 120 51
316 -109 299 -53 -5 -53 -5 -59 26 -21 97 -101 143 -178 102 -26 -13 -28 -13
-41 19 -21 51 -70 86 -119 86 -23 0 -55 -7 -71 -15 -38 -20 -43 -19 -51 12
-21 84 -99 141 -175 128 -22 -4 -58 -20 -81 -37 -22 -16 -42 -28 -43 -26 -2 2
-8 29 -15 60 -23 107 -91 168 -187 168 -65 0 -123 -30 -182 -94 l-48 -53 -44
39 c-85 73 -61 68 -897 169 -280 33 -274 33 -431 -7 l-23 -6 3 163 3 164 220
7 c924 27 1792 213 2480 530 82 38 186 78 230 89 220 56 464 144 648 233 173
85 288 165 407 285 88 88 113 120 145 187 l40 81 85 28 c543 175 1062 427
1396 675 134 100 354 322 427 431 70 105 128 228 159 334 20 69 23 103 23 240
0 183 -15 253 -86 404 -87 186 -262 394 -474 562 -440 350 -1174 668 -2053
888 -371 94 -900 198 -1244 246 -36 5 -48 11 -48 23 0 32 -59 247 -99 363
-318 920 -1086 1580 -1974 1694 -107 14 -416 19 -517 8z m1777 -8125 c-3 -8
-6 -5 -6 6 -1 11 2 17 5 13 3 -3 4 -12 1 -19z m-70 -260 c-3 -8 -6 -5 -6 6 -1
11 2 17 5 13 3 -3 4 -12 1 -19z"/>
</g>
</svg>
