<?xml version="1.0" standalone="no"?>
<!DOCTYPE svg PUBLIC "-//W3C//DTD SVG 20010904//EN"
 "http://www.w3.org/TR/2001/REC-SVG-20010904/DTD/svg10.dtd">
<svg version="1.0" xmlns="http://www.w3.org/2000/svg"
 width="989.000000pt" height="1280.000000pt" viewBox="0 0 989.000000 1280.000000"
 preserveAspectRatio="xMidYMid meet">
<g transform="translate(0.000000,1280.000000) scale(0.100000,-0.100000)"
fill="#000000" stroke="none">
<path d="M4875 12227 c-95 -36 -199 -102 -248 -157 -45 -50 -104 -171 -163
-335 -27 -74 -35 -87 -125 -176 -66 -65 -107 -114 -127 -155 -34 -68 -43 -77
-93 -93 -46 -15 -102 -72 -93 -94 5 -13 0 -17 -19 -17 -14 0 -29 -5 -33 -12
-5 -8 2 -9 26 -5 l33 7 -26 -24 c-14 -13 -33 -41 -42 -61 -14 -35 -14 -39 2
-51 10 -7 22 -14 27 -14 5 0 3 -6 -3 -13 -6 -8 -12 -23 -14 -35 -2 -12 -7 -25
-12 -29 -4 -5 -5 -2 -1 5 14 23 -9 11 -54 -29 -33 -30 -36 -35 -12 -19 38 26
42 13 6 -21 -14 -13 -42 -48 -60 -77 -23 -35 -46 -58 -69 -68 -50 -20 -51 -18
-14 25 124 143 116 151 -21 21 -46 -44 -88 -80 -92 -80 -5 0 -17 -9 -27 -19
-23 -23 -146 -69 -216 -81 -27 -5 -58 -11 -67 -15 -15 -6 -18 -1 -18 33 0 34
4 41 23 45 20 4 20 4 -4 6 l-25 1 -24 198 c-23 200 -31 422 -17 522 7 49 15
63 76 131 38 42 71 89 75 105 4 15 25 57 46 94 60 99 60 116 10 200 -37 62
-80 106 -80 83 0 -4 -13 7 -29 25 -32 35 -70 42 -91 17 -10 -12 -16 -13 -26
-4 -8 6 -23 9 -34 6 -11 -3 -23 -1 -26 4 -13 22 -45 7 -70 -32 -22 -35 -24
-46 -15 -66 10 -21 5 -40 -33 -126 -49 -114 -66 -182 -66 -262 0 -30 -11 -157
-25 -282 -38 -352 -48 -563 -36 -744 6 -85 16 -180 22 -209 24 -112 71 -185
140 -221 22 -11 39 -25 39 -32 0 -9 2 -9 8 0 5 8 33 8 112 -3 58 -7 169 -16
247 -20 78 -4 146 -10 152 -14 6 -3 14 -28 17 -54 7 -62 37 -139 74 -189 29
-39 29 -40 13 -76 -50 -113 -66 -164 -108 -325 -53 -208 -76 -257 -184 -387
-151 -182 -237 -328 -297 -497 -24 -69 -53 -125 -112 -210 -333 -491 -692
-1408 -836 -2137 -75 -376 -159 -1060 -129 -1042 6 4 16 43 23 87 7 44 16 80
21 80 12 0 87 -113 115 -174 27 -59 86 -348 104 -506 31 -284 53 -257 38 48
-12 256 -4 388 30 445 24 41 88 86 134 93 51 9 72 -17 93 -110 26 -116 39
-108 30 20 -12 161 -8 525 5 574 14 51 50 90 84 90 30 0 61 -37 70 -85 4 -19
11 -35 16 -35 6 0 10 63 10 153 0 85 3 190 7 233 l7 79 17 -85 c30 -143 58
-318 75 -464 21 -187 51 -283 139 -452 171 -325 191 -394 210 -729 8 -132 21
-330 30 -440 8 -110 15 -250 15 -312 0 -72 4 -114 11 -119 8 -5 10 -40 5 -118
-8 -140 3 -184 115 -442 75 -172 83 -197 96 -298 8 -61 18 -124 22 -141 8 -29
9 -30 18 -7 5 14 7 -136 5 -388 -4 -345 -2 -409 9 -405 11 4 13 -10 11 -76 -3
-78 -2 -83 32 -139 41 -66 46 -112 21 -194 -31 -100 -14 -222 47 -352 l33 -69
11 135 c12 130 21 187 67 425 18 97 21 146 21 410 0 297 -17 558 -58 854 -12
86 -11 92 3 74 112 -146 151 -183 276 -267 39 -26 129 -76 200 -111 l130 -64
59 -106 c32 -58 78 -154 102 -212 l43 -105 -40 -72 c-37 -65 -41 -76 -37 -128
10 -137 203 -406 406 -566 61 -48 89 -56 50 -15 -56 60 -73 126 -40 156 28 25
60 21 99 -13 28 -25 43 -30 91 -31 90 -2 104 -9 214 -102 138 -119 227 -176
458 -297 578 -303 649 -343 818 -465 50 -36 93 -65 97 -65 16 0 1 73 -27 120
-77 136 -234 252 -579 429 -178 92 -222 119 -261 161 -26 28 -51 65 -56 83 -8
31 -7 32 24 35 21 2 54 -8 94 -28 34 -17 64 -29 66 -27 3 2 -19 20 -47 38 -29
19 -57 37 -63 41 -12 8 30 58 50 58 6 0 18 -8 25 -17 8 -9 32 -29 53 -45 56
-40 102 -38 204 11 109 54 134 57 225 32 159 -43 242 -94 282 -169 19 -38 24
-42 25 -23 0 20 4 22 23 16 12 -4 49 -9 83 -12 51 -4 78 1 175 32 101 33 123
37 190 33 94 -6 120 -20 263 -146 58 -50 108 -92 112 -92 3 0 -1 11 -10 25
-12 18 -13 30 -6 50 17 46 50 50 200 25 132 -21 137 -21 225 -5 177 34 319 -7
550 -156 50 -31 104 -63 120 -70 17 -7 43 -24 58 -38 l28 -26 -10 28 c-15 40
-85 140 -157 227 -260 312 -573 480 -1114 599 -121 26 -1073 236 -1372 301
-309 68 -378 93 -633 225 -388 200 -365 187 -365 216 0 39 41 71 98 77 39 3
59 -1 103 -23 30 -15 66 -39 81 -53 37 -35 43 -24 12 22 -14 20 -45 94 -69
164 -36 103 -46 150 -56 252 -10 111 -10 135 5 202 24 107 82 220 155 300 34
36 61 71 61 77 0 13 6 14 47 2 65 -19 41 9 -47 55 -168 86 -409 272 -595 459
-122 123 -247 277 -366 452 -105 155 -106 134 15 277 54 63 74 95 70 108 -6
20 3 22 43 8 27 -9 27 -9 -7 19 -19 16 -81 65 -136 109 -119 94 -115 84 -139
337 -9 88 -21 201 -29 252 l-13 92 41 3 41 3 -56 26 c-51 24 -68 27 -194 28
-77 1 -141 4 -143 6 -8 7 69 149 216 401 301 516 377 671 542 1094 46 118 87
219 90 223 10 12 30 -153 40 -333 18 -299 -21 -729 -106 -1189 -13 -74 -23
-136 -20 -138 2 -2 13 12 24 32 23 37 104 95 134 95 48 0 122 -64 138 -121 22
-77 -5 -514 -39 -638 -11 -41 -19 -76 -17 -79 5 -5 52 76 61 106 3 12 27 38
52 57 62 47 95 47 142 -3 43 -46 164 -257 191 -335 36 -103 52 -359 29 -467
-6 -28 -9 -54 -6 -56 6 -6 170 317 252 496 116 254 135 288 191 349 94 102
149 110 240 35 23 -19 47 -34 52 -34 5 0 13 -30 17 -67 15 -144 38 14 51 347
8 219 -8 536 -37 735 -75 522 -272 1007 -622 1529 -85 126 -306 419 -428 565
l-104 124 0 71 c0 64 -5 81 -47 169 -49 100 -53 119 -41 177 l6 33 18 -24 19
-24 -11 32 c-6 18 -9 38 -6 45 3 8 6 6 6 -5 1 -10 9 -34 20 -55 10 -20 22 -57
26 -81 4 -24 25 -71 46 -104 44 -68 45 -75 24 -120 l-16 -32 21 24 c29 33 25
71 -16 167 -35 81 -36 87 -37 216 l-2 133 40 70 c32 56 41 66 43 47 2 -12 -7
-44 -19 -70 -13 -26 -24 -51 -24 -57 -1 -5 -4 -30 -9 -55 -4 -27 -3 -61 2 -80
10 -34 10 -34 11 18 1 38 7 59 21 74 19 21 20 21 20 2 0 -18 1 -18 13 2 6 11
22 36 35 55 12 19 32 66 44 104 11 39 36 96 55 129 18 32 39 79 45 105 6 25
26 78 45 116 28 59 35 88 44 185 6 63 14 118 18 122 4 4 84 -144 178 -330 128
-252 179 -363 203 -442 71 -235 83 -268 141 -365 33 -55 89 -140 125 -190 213
-293 329 -522 379 -746 18 -84 21 -71 -50 -242 -20 -49 -40 -112 -46 -140 -9
-47 -28 -122 -50 -191 -9 -31 2 -56 27 -56 23 0 82 59 89 88 9 43 43 92 63 92
28 0 51 -31 102 -133 38 -78 49 -92 71 -95 15 -2 34 4 44 15 11 10 29 16 46
15 20 -3 32 4 46 24 10 15 42 50 71 78 30 30 52 60 52 72 0 11 9 29 20 39 37
33 33 41 -113 295 -45 77 -67 126 -67 147 0 18 -12 63 -26 100 -14 38 -54 151
-88 253 -110 323 -162 442 -273 624 -76 125 -99 173 -118 245 -8 34 -34 103
-56 154 -22 51 -78 187 -123 302 -46 116 -118 287 -159 380 -42 94 -97 240
-122 325 -26 85 -58 190 -71 233 -21 67 -22 83 -12 125 17 78 -2 163 -56 242
-25 36 -54 89 -66 119 -11 30 -31 72 -44 95 -13 23 -29 59 -36 81 -7 22 -21
50 -30 62 -24 32 -46 173 -30 202 6 12 8 30 5 40 -3 10 -10 115 -15 232 -12
272 -27 469 -41 539 -22 109 -101 215 -196 263 -57 30 -101 39 -192 42 -36 1
-95 5 -131 9 -54 5 -75 2 -125 -17z m-565 -720 c0 -2 -18 -28 -40 -57 -39 -52
-57 -59 -23 -10 27 41 63 79 63 67z m247 -374 c-2 -16 -4 -3 -4 27 0 30 2 43
4 28 2 -16 2 -40 0 -55z m-492 -10 c3 -9 -1 -23 -10 -33 -8 -9 -12 -19 -9 -22
3 -3 1 -8 -3 -11 -14 -9 -13 35 0 53 11 13 10 13 -6 1 -21 -16 -41 -3 -32 21
8 19 51 12 60 -9z m153 -49 c30 -21 57 -75 86 -176 13 -46 28 -94 34 -108 5
-14 12 -37 16 -52 6 -25 3 -28 -17 -28 -13 0 -28 -5 -35 -12 -6 -6 -14 -10
-16 -7 -13 13 -107 293 -114 342 -8 50 -7 57 7 57 9 0 27 -7 39 -16z m349 -26
c-3 -7 -5 -2 -5 12 0 14 2 19 5 13 2 -7 2 -19 0 -25z m-468 -69 c-10 -32 -36
-63 -118 -141 -58 -55 -101 -99 -94 -97 26 8 201 179 213 208 7 17 15 31 19
31 12 0 100 -259 101 -296 0 -6 -25 -13 -57 -16 -32 -3 -101 -22 -153 -43
-197 -76 -228 -85 -400 -109 -96 -14 -197 -33 -223 -42 -26 -9 -50 -14 -53
-11 -3 3 -8 24 -11 46 -6 41 -5 41 39 61 25 11 81 27 124 35 l79 15 -65 -5
-65 -4 80 28 c44 15 99 37 123 50 24 12 71 31 105 42 49 15 67 27 87 55 64 91
104 136 140 159 21 13 43 31 47 40 5 8 24 26 43 39 44 30 56 15 39 -45z m-682
-375 c-3 -3 -12 -4 -19 -1 -8 3 -5 6 6 6 11 1 17 -2 13 -5z m-67 -19 c-14 -7
-27 -11 -30 -9 -6 7 22 24 40 23 9 0 5 -6 -10 -14z m2419 -43 c20 -32 31 -61
30 -83 0 -33 -1 -33 -18 17 -10 27 -26 64 -35 82 -24 47 -12 39 23 -16z m-121
-27 c-3 -3 -9 2 -12 12 -6 14 -5 15 5 6 7 -7 10 -15 7 -18z m129 -137 c-3 -7
-5 -2 -5 12 0 14 2 19 5 13 2 -7 2 -19 0 -25z m-247 -682 c0 -3 -4 -8 -10 -11
-5 -3 -10 -1 -10 4 0 6 5 11 10 11 6 0 10 -2 10 -4z m-154 -73 c-20 -56 -46
-106 -53 -100 -3 3 10 38 27 77 36 76 49 88 26 23z m103 -37 c-6 -21 -12 -36
-14 -34 -3 2 0 21 6 42 6 21 12 36 14 34 3 -2 0 -21 -6 -42z m28 -85 c-2 -32
-12 -71 -21 -87 l-17 -29 5 60 c4 60 20 115 32 115 4 0 4 -26 1 -59z m-107
-140 c-11 -23 -22 -41 -25 -41 -2 0 6 28 18 63 15 42 23 55 25 40 2 -12 -6
-40 -18 -62z m-123 -453 c-3 -8 -6 -5 -6 6 -1 11 2 17 5 13 3 -3 4 -12 1 -19z
m-336 -96 c-6 -11 -16 -64 -22 -118 -13 -121 -19 -140 -29 -96 -9 40 15 188
35 219 8 12 16 30 16 40 1 13 3 12 6 -4 2 -12 0 -31 -6 -41z m198 -117 l0 -20
-9 20 c-5 11 -8 38 -8 60 l0 40 9 -40 c4 -22 8 -49 8 -60z m-92 -62 c-3 -10
-5 -2 -5 17 0 19 2 27 5 18 2 -10 2 -26 0 -35z m-50 -90 c-3 -10 -5 -2 -5 17
0 19 2 27 5 18 2 -10 2 -26 0 -35z m-50 0 c-3 -10 -5 -4 -5 12 0 17 2 24 5 18
2 -7 2 -21 0 -30z m141 -40 c22 -43 42 -91 46 -108 6 -30 -75 121 -88 163 -14
45 5 20 42 -55z m-138 -26 c0 -10 -4 -15 -10 -12 -5 3 -10 18 -10 33 0 21 2
24 10 12 5 -8 10 -23 10 -33z m69 -64 c1 -7 -6 -10 -14 -7 -10 4 -15 19 -14
48 l1 41 13 -35 c7 -19 14 -40 14 -47z m82 -35 c10 -21 19 -47 19 -60 0 -20
-5 -18 -45 22 -41 41 -45 49 -39 78 6 32 7 32 26 15 11 -10 29 -35 39 -55z
m36 -90 c-3 -7 -5 -2 -5 12 0 14 2 19 5 13 2 -7 2 -19 0 -25z"/>
<path d="M3785 10696 c-22 -8 -62 -23 -90 -36 -27 -12 -68 -25 -90 -30 -33 -6
-35 -8 -12 -9 16 -1 56 10 90 23 34 13 83 31 110 41 26 9 47 19 47 21 0 6 -11
4 -55 -10z"/>
<path d="M3408 10693 c23 -2 59 -2 80 0 20 2 1 4 -43 4 -44 0 -61 -2 -37 -4z"/>
</g>
</svg>
