<?xml version="1.0" standalone="no"?>
<!DOCTYPE svg PUBLIC "-//W3C//DTD SVG 20010904//EN"
 "http://www.w3.org/TR/2001/REC-SVG-20010904/DTD/svg10.dtd">
<svg version="1.0" xmlns="http://www.w3.org/2000/svg"
 width="1280.000000pt" height="924.000000pt" viewBox="0 0 1280.000000 924.000000"
 preserveAspectRatio="xMidYMid meet">
<g transform="translate(0.000000,924.000000) scale(0.100000,-0.100000)"
fill="#000000" stroke="none">
<path d="M1283 9228 c6 -15 503 -1048 642 -1333 53 -110 193 -416 312 -680
118 -264 266 -593 329 -731 l114 -252 -11 -50 c-7 -34 -7 -57 -1 -69 24 -44
-37 -68 -94 -38 -56 29 -254 -32 -254 -79 0 -22 -63 -73 -162 -131 -89 -52
-121 -75 -102 -75 4 0 34 17 68 38 125 79 148 81 33 3 -87 -60 -176 -150 -210
-213 -14 -26 -33 -83 -42 -125 -9 -43 -26 -121 -37 -173 -11 -52 -32 -140 -48
-195 -37 -133 -57 -231 -70 -340 -6 -49 -24 -180 -40 -290 -78 -547 -78 -707
4 -760 14 -10 26 -25 26 -35 0 -10 7 -23 15 -30 21 -18 20 -23 -24 -88 -50
-73 -73 -121 -101 -206 -13 -39 -39 -97 -58 -130 -20 -34 -57 -108 -83 -166
-26 -58 -74 -163 -107 -235 -83 -179 -197 -500 -242 -680 -20 -83 -46 -168
-57 -190 -11 -22 -42 -92 -69 -155 -26 -63 -68 -142 -92 -175 -83 -112 -126
-213 -147 -346 -10 -56 -30 -120 -60 -188 -80 -181 -94 -246 -106 -494 -6
-120 -8 -221 -4 -225 4 -4 28 -7 55 -7 39 0 55 5 77 26 l28 26 153 -5 c101 -3
155 -8 157 -16 2 -6 9 -70 15 -143 10 -126 12 -134 46 -184 20 -30 33 -61 31
-71 -5 -17 12 -18 320 -18 204 0 331 4 344 10 10 6 27 27 38 48 29 57 82 230
91 295 6 47 16 67 47 105 22 25 45 48 51 50 19 6 15 -109 -7 -188 -16 -57 -17
-70 -6 -70 8 0 19 9 24 19 6 10 33 45 61 77 27 33 69 94 92 136 27 49 49 78
60 78 26 0 39 33 32 82 -8 57 32 153 113 273 80 119 87 125 118 94 51 -53 105
-216 105 -320 0 -79 38 -78 65 3 13 39 13 53 4 64 -10 12 -4 23 33 62 24 26
65 81 91 122 25 41 84 120 132 175 48 55 120 151 161 213 41 61 76 112 79 112
2 0 25 -33 51 -72 58 -90 299 -438 369 -533 28 -38 96 -124 150 -190 55 -66
141 -174 193 -240 117 -149 132 -160 237 -161 44 0 118 -5 164 -9 l84 -8 34
-76 c20 -42 38 -93 40 -113 l6 -38 336 0 c312 1 334 2 306 17 -16 8 -51 28
-76 45 -47 29 -54 50 -27 84 11 15 -32 52 -89 78 -35 15 -43 25 -52 62 -17 66
-13 100 14 140 31 46 34 108 6 123 -14 8 -21 27 -26 73 -11 102 -58 256 -94
307 -10 14 -42 98 -71 186 -29 88 -68 198 -86 244 -19 46 -34 87 -34 92 0 5
10 9 23 9 12 0 45 11 74 24 65 31 113 92 113 145 0 20 6 45 14 56 7 11 16 36
19 55 2 19 10 62 15 95 6 33 16 114 22 180 5 66 15 162 20 213 10 91 27 359
35 552 2 52 7 138 10 190 3 52 6 424 7 827 1 726 1 731 21 737 17 4 18 7 7 21
-10 12 -14 72 -17 238 -2 122 -8 254 -13 292 -6 39 -15 142 -20 230 -15 250
-25 275 -100 275 -27 0 -47 -9 -78 -35 l-41 -35 -43 30 c-77 54 -153 53 -180
-2 -25 -52 -94 -124 -141 -147 -64 -31 -90 -28 -120 17 -15 20 -51 62 -82 92
-31 30 -64 73 -74 95 -10 22 -33 55 -51 74 -39 38 -127 104 -152 114 -10 3
-18 10 -18 15 0 5 -13 15 -29 22 -26 10 -29 15 -21 35 5 13 11 46 13 73 2 28
14 65 27 86 22 37 22 38 6 104 -19 78 -23 366 -6 377 8 5 8 11 0 20 -6 7 -13
36 -15 64 -2 28 -6 55 -10 61 -3 5 3 10 14 10 21 0 28 14 13 24 -5 3 -14 31
-21 63 -7 32 -27 85 -45 118 -41 80 -183 222 -211 211 -15 -5 -95 30 -95 42 0
5 -17 12 -37 15 -21 3 -51 11 -68 17 -41 17 -119 18 -184 3 -29 -7 -58 -10
-63 -7 -5 3 -18 -3 -29 -15 -11 -12 -30 -22 -42 -22 -12 -1 -30 -2 -40 -3 -10
-1 -21 -6 -25 -11 -4 -6 -27 -23 -52 -37 -91 -53 -167 -156 -210 -287 -15 -45
-17 -65 -9 -108 7 -39 7 -58 -3 -75 -8 -15 -11 -49 -9 -94 2 -55 -1 -73 -13
-83 -9 -8 -16 -21 -16 -31 0 -9 -8 -24 -18 -33 -17 -16 -34 18 -357 716 -303
656 -688 1466 -945 1990 -59 119 -97 187 -107 187 -8 0 -13 -6 -10 -12z m3752
-9136 c-3 -3 -11 0 -18 7 -9 10 -8 11 6 5 10 -3 15 -9 12 -12z"/>
<path d="M7309 7786 c-10 -20 -8 -31 8 -58 22 -37 295 -398 728 -963 160 -209
356 -465 435 -570 116 -153 485 -635 521 -681 6 -7 -10 -51 -41 -115 -65 -138
-84 -218 -71 -312 5 -40 10 -106 10 -147 1 -41 6 -126 11 -189 10 -123 3 -484
-10 -541 -4 -19 -8 -66 -9 -104 -1 -38 -4 -73 -8 -78 -3 -6 -7 -80 -10 -166
-4 -160 -13 -219 -39 -260 -20 -30 -41 -147 -49 -267 -2 -33 -4 -62 -5 -65 -1
-3 -2 -8 -2 -11 0 -3 -3 -22 -8 -42 -5 -22 -4 -37 1 -37 6 0 5 -10 -2 -21 -8
-15 -8 -24 0 -28 7 -5 5 -26 -7 -66 -11 -36 -21 -55 -26 -47 -4 6 -11 12 -17
12 -11 0 -63 -109 -62 -130 2 -19 -26 -72 -45 -86 -8 -6 -12 -16 -8 -22 8 -13
-79 -201 -102 -218 -9 -7 -28 -14 -41 -14 -13 0 -38 -15 -57 -34 -28 -28 -34
-41 -34 -79 0 -24 5 -59 11 -76 10 -28 9 -34 -9 -46 -11 -8 -27 -32 -35 -54
-9 -22 -21 -42 -26 -45 -6 -4 -15 -34 -22 -67 -7 -34 -19 -65 -29 -72 -22 -16
-33 -89 -22 -149 9 -46 8 -47 -27 -75 -185 -145 -371 -329 -596 -588 -229
-264 -305 -362 -305 -393 0 -23 22 -4 167 148 227 238 318 327 453 439 126
105 249 196 256 188 2 -2 -18 -46 -45 -98 -27 -52 -52 -104 -55 -116 -11 -36
-106 -205 -131 -233 -29 -33 -80 -111 -106 -162 -43 -84 -286 -441 -522 -766
-98 -135 -183 -254 -188 -264 -9 -17 83 -18 2500 -18 l2510 0 -5 153 c-9 248
-35 376 -101 484 -22 37 -27 55 -22 78 12 56 9 241 -6 351 -19 129 -26 629
-10 656 8 13 21 -17 59 -140 27 -86 53 -175 58 -197 16 -65 122 -328 135 -332
20 -7 36 66 30 137 -6 68 -32 176 -48 196 -11 13 -58 170 -134 439 -31 110
-76 265 -101 345 -24 80 -49 184 -55 230 -13 109 -29 171 -90 355 -51 153 -72
235 -60 235 4 0 20 -13 36 -30 39 -41 62 -39 71 5 3 19 4 41 1 48 -8 22 -72
47 -120 47 -43 0 -46 2 -52 33 -4 17 -10 36 -13 42 -8 12 -11 34 -16 115 -5
73 -5 72 84 135 30 21 69 48 85 60 17 12 44 26 60 29 39 9 137 74 199 131 27
25 53 45 58 45 4 0 8 6 9 13 1 6 31 39 68 72 78 71 162 165 174 197 11 27 16
218 8 303 -4 33 -4 79 0 103 4 30 0 54 -12 80 -10 20 -35 75 -57 122 -22 47
-64 135 -93 195 -28 61 -51 113 -51 118 1 4 -3 7 -8 7 -6 0 -10 6 -10 14 0 8
-3 16 -7 18 -12 5 -83 145 -83 163 0 8 -4 15 -9 15 -5 0 -12 11 -15 25 -4 14
-11 25 -16 25 -6 0 -10 11 -10 25 0 14 -15 46 -34 72 -18 27 -36 60 -39 74 -4
14 -18 42 -32 63 -14 20 -25 43 -25 52 0 19 -70 164 -79 164 -4 0 -15 16 -24
35 -9 19 -24 35 -32 35 -8 0 -31 23 -51 50 -20 28 -42 50 -49 50 -8 0 -31 21
-52 47 -69 85 -167 173 -223 200 -30 15 -75 42 -99 60 -50 37 -168 77 -366
122 -72 16 -147 37 -168 46 -23 9 -51 13 -70 10 -23 -4 -47 1 -87 21 -30 14
-65 30 -77 35 -13 5 -23 16 -23 26 0 37 -38 136 -57 152 -11 9 -30 31 -42 49
l-22 32 20 26 c12 15 21 33 21 41 0 13 -38 75 -50 80 -8 5 1 117 11 129 6 8 3
24 -10 46 -14 22 -21 55 -22 93 -2 33 -5 65 -9 70 -17 25 -41 107 -36 120 3 8
1 15 -4 15 -13 0 -70 91 -70 113 0 9 -5 17 -10 17 -16 0 -75 70 -75 89 0 9 -7
15 -16 15 -9 -1 -36 14 -59 32 -24 19 -46 34 -50 34 -4 0 -10 10 -13 21 -4 15
-11 20 -23 15 -21 -8 -126 24 -137 42 -6 9 -18 11 -38 7 -20 -5 -34 -2 -46 11
-15 14 -31 16 -116 11 -69 -4 -105 -11 -117 -22 -9 -8 -20 -12 -23 -9 -4 4
-13 2 -20 -5 -8 -6 -22 -9 -31 -5 -10 4 -18 0 -22 -10 -7 -19 -56 -47 -99 -56
-18 -3 -30 -12 -30 -22 0 -19 -40 -53 -79 -68 -14 -5 -30 -20 -35 -33 -5 -13
-25 -41 -45 -62 -20 -21 -35 -43 -34 -49 2 -14 -44 -106 -53 -106 -4 0 -10
-28 -14 -62 -4 -35 -10 -67 -14 -73 -3 -5 -7 -35 -9 -65 -4 -79 -5 -90 -14
-90 -4 0 -8 -9 -8 -20 0 -11 4 -20 8 -20 5 0 7 -25 4 -55 -4 -46 -1 -58 14
-69 17 -13 17 -16 1 -52 -17 -41 -39 -115 -43 -149 -2 -11 -8 -42 -14 -70 -15
-68 -15 -70 9 -152 11 -40 18 -78 15 -86 -3 -8 1 -17 9 -20 8 -3 23 -30 32
-59 23 -69 62 -147 88 -175 26 -29 49 -29 94 2 39 26 47 25 63 -5 9 -16 1 -25
-57 -67 -78 -54 -73 -49 -135 -131 l-47 -62 -518 652 c-286 359 -654 824 -818
1033 -380 484 -363 464 -412 479 -18 6 -25 2 -34 -18z m1921 -1748 c0 -10 -4
-18 -9 -18 -11 0 -22 40 -14 53 7 12 23 -12 23 -35z"/>
</g>
</svg>
