<?xml version="1.0" encoding="UTF-8" standalone="no"?>
<!-- Created with Inkscape (http://www.inkscape.org/) -->

<svg
   xmlns:dc="http://purl.org/dc/elements/1.1/"
   xmlns:cc="http://creativecommons.org/ns#"
   xmlns:rdf="http://www.w3.org/1999/02/22-rdf-syntax-ns#"
   xmlns:svg="http://www.w3.org/2000/svg"
   xmlns="http://www.w3.org/2000/svg"
   xmlns:sodipodi="http://sodipodi.sourceforge.net/DTD/sodipodi-0.dtd"
   xmlns:inkscape="http://www.inkscape.org/namespaces/inkscape"
   width="297mm"
   height="210mm"
   viewBox="0 0 297 210"
   version="1.1"
   id="svg42775"
   inkscape:version="0.92.4 (5da689c313, 2019-01-14)"
   sodipodi:docname="webofwyrd.svg">
  <defs
     id="defs42769">
    <marker
       inkscape:stockid="Arrow1Lend"
       orient="auto"
       refY="0.0"
       refX="0.0"
       id="Arrow1Lend"
       style="overflow:visible;"
       inkscape:isstock="true">
      <path
         id="path4918"
         d="M 0.0,0.0 L 5.0,-5.0 L -12.5,0.0 L 5.0,5.0 L 0.0,0.0 z "
         style="fill-rule:evenodd;stroke:#000000;stroke-width:1pt;stroke-opacity:1;fill:#000000;fill-opacity:1"
         transform="scale(0.8) rotate(180) translate(12.5,0)" />
    </marker>
  </defs>
  <sodipodi:namedview
     id="base"
     pagecolor="#ffffff"
     bordercolor="#666666"
     borderopacity="1.0"
     inkscape:pageopacity="0.0"
     inkscape:pageshadow="2"
     inkscape:zoom="1.1655913"
     inkscape:cx="536.60656"
     inkscape:cy="395.16352"
     inkscape:document-units="px"
     inkscape:current-layer="layer1"
     showgrid="false"
     inkscape:window-width="1920"
     inkscape:window-height="1027"
     inkscape:window-x="-8"
     inkscape:window-y="-8"
     inkscape:window-maximized="1" />
  <metadata
     id="metadata42772">
    <rdf:RDF>
      <cc:Work
         rdf:about="">
        <dc:format>image/svg+xml</dc:format>
        <dc:type
           rdf:resource="http://purl.org/dc/dcmitype/StillImage" />
        <dc:title></dc:title>
      </cc:Work>
    </rdf:RDF>
  </metadata>
  <g
     inkscape:label="Layer 1"
     inkscape:groupmode="layer"
     id="layer1"
     transform="translate(0,-87)">
    <path
       style="fill:none;stroke:#000000;stroke-width:0.26458332px;stroke-linecap:butt;stroke-linejoin:miter;stroke-opacity:1"
       d="M 21.455862,103.6186 140.14717,177.70441"
       id="path42783"
       inkscape:connector-curvature="0"
       sodipodi:nodetypes="cc" />
    <path
       style="fill:none;stroke:#000000;stroke-width:0.16026177px;stroke-linecap:butt;stroke-linejoin:miter;stroke-opacity:1"
       d="M 179.08849,94.872447 140.28227,177.82388"
       id="path42783-3"
       inkscape:connector-curvature="0"
       sodipodi:nodetypes="cc" />
    <path
       style="fill:none;stroke:#000000;stroke-width:0.13561496px;stroke-linecap:butt;stroke-linejoin:miter;stroke-opacity:1"
       d="M 17.225253,196.36756 140.28227,177.82388"
       id="path42783-7"
       inkscape:connector-curvature="0"
       sodipodi:nodetypes="cc" />
    <path
       style="fill:none;stroke:#000000;stroke-width:0.30350864px;stroke-linecap:butt;stroke-linejoin:miter;stroke-opacity:1"
       d="M 31.256508,283.82905 140.28227,177.82388 140.0349,178.19603"
       id="path42783-9"
       inkscape:connector-curvature="0"
       sodipodi:nodetypes="ccc" />
    <path
       style="fill:none;stroke:#000000;stroke-width:0.11688808px;stroke-linecap:butt;stroke-linejoin:miter;stroke-opacity:1"
       d="m 135.8561,290.05184 4.42617,-112.22796 v 0.40562"
       id="path42783-4"
       inkscape:connector-curvature="0"
       sodipodi:nodetypes="ccc" />
    <path
       style="fill:none;stroke:#000000;stroke-width:0.30979607px;stroke-linecap:butt;stroke-linejoin:miter;stroke-opacity:1"
       d="m 257.0446,281.04188 -116.76233,-103.218 -0.1351,-0.11947"
       id="path42783-1"
       inkscape:connector-curvature="0"
       sodipodi:nodetypes="ccc" />
    <path
       style="fill:none;stroke:#000000;stroke-width:0.13038462px;stroke-linecap:butt;stroke-linejoin:miter;stroke-opacity:1"
       d="M 269.38545,194.28443 140.35673,177.78734 v 0.0623"
       id="path42783-2"
       inkscape:connector-curvature="0"
       sodipodi:nodetypes="ccc" />
    <path
       style="fill:none;stroke:#000000;stroke-width:0.27441633px;stroke-linecap:butt;stroke-linejoin:miter;stroke-opacity:1"
       d="m 271.55817,105.15554 -131.20144,72.6318 v 0"
       id="path42783-49"
       inkscape:connector-curvature="0"
       sodipodi:nodetypes="ccc" />
    <path
       style="fill:none;stroke:#000000;stroke-width:0.13247935px;stroke-linecap:butt;stroke-linejoin:miter;stroke-opacity:1"
       d="m 113.8011,94.222221 26.34439,83.415969 v -0.31479"
       id="path42783-8"
       inkscape:connector-curvature="0"
       sodipodi:nodetypes="ccc" />
    <path
       style="fill:none;stroke:#000000;stroke-width:0.26458332px;stroke-linecap:butt;stroke-linejoin:miter;stroke-opacity:1"
       d="m 35.638205,279.2944 100.331765,5.90187 107.8226,-15.88965 17.02461,-76.04331 -9.30679,-77.40527 -75.36232,-15.43566 -60.38065,0.45399 -67.871487,18.61359 -12.711719,74.45434 25.423434,60.38065 76.951282,1.58897 77.17828,-12.48472 17.9326,-54.0248 -15.20866,-54.0248 -49.93888,-14.98166 -44.71801,0.45399 -42.448051,19.74856 -12.030731,47.66894 15.435654,44.26401 54.251788,0.227 50.61988,-11.57675 13.1657,-35.41121 -15.20866,-33.59525 -31.3253,-7.03684 -24.06147,4.08591 -21.33752,9.53378 -15.20866,25.87743 8.8528,27.69338 35.18422,-4.3129 25.65043,-7.94483 4.76689,-19.06757 -9.76078,-12.93871 -13.3927,-3.40493"
       id="path42842"
       inkscape:connector-curvature="0"
       sodipodi:nodetypes="ccccccccccccccccccccccccccccccccc" />
    <path
       style="fill:#ffffff;stroke:#059800;stroke-width:0;stroke-linejoin:round;stroke-miterlimit:4;stroke-dasharray:none;stroke-dashoffset:0;stroke-opacity:1"
       d="m 519.29857,306.99451 c -0.22335,-0.37681 -2.20992,-6.40501 -4.41461,-13.396 -2.20469,-6.99099 -4.22101,-13.26463 -4.48072,-13.94142 -0.40344,-1.05135 3.15643,-1.23054 24.44731,-1.23054 h 24.91951 l -3.28265,6.98372 c -2.79083,5.93737 -3.7149,7.13734 -6.16767,8.00908 -4.02669,1.43114 -28.4055,12.5244 -29.61906,13.47778 -0.54782,0.43037 -1.17877,0.47419 -1.40211,0.0974 z"
       id="path43387"
       inkscape:connector-curvature="0"
       transform="matrix(0.26458333,0,0,0.26458333,0,87)" />
    <g
       id="g43393"
       transform="matrix(0.69510611,0,0,0.69510611,167.73419,53.246159)">
      <path
         id="path3814"
         inkscape:connector-curvature="0"
         d="m -27.034862,188.43927 c 0,0.49816 -0.407095,0.90588 -0.906151,0.90588 h -20.157672 c -0.497828,0 -0.904789,-0.40773 -0.904789,-0.90588 v -30.12506 c 0,-0.49814 0.406961,-0.90602 0.904789,-0.90602 h 20.157672 c 0.499056,0 0.906151,0.40788 0.906151,0.90602 z"
         style="fill:#ffffff;stroke:#000000;stroke-width:0.36652973;stroke-miterlimit:4;stroke-dasharray:none" />
      <path
         inkscape:connector-curvature="0"
         id="path43389"
         d="m -48.326145,187.98761 c -0.24905,-0.24756 -0.27637,-1.74296 -0.27452,-15.02644 0.002,-12.8895 0.0349,-14.77238 0.26203,-14.91691 0.15579,-0.0991 4.20427,-0.1783 10.10223,-0.19758 8.71828,-0.0285 9.8735,-7.7e-4 10.11594,0.2399 0.24448,0.24301 0.27837,1.82956 0.31744,14.8577 0.0291,9.72217 -0.0159,14.69782 -0.13503,14.92206 -0.17354,0.32661 -0.46938,0.3373 -10.14513,0.36631 -8.87278,0.0266 -9.99673,-3.2e-4 -10.24296,-0.24504 z"
         style="fill:#ffffff;stroke:#059800;stroke-width:0;stroke-linejoin:round;stroke-miterlimit:4;stroke-dasharray:none;stroke-dashoffset:0;stroke-opacity:1" />
    </g>
    <g
       transform="matrix(0.68494298,0,0,0.68494298,186.63988,45.549659)"
       id="g43393-8">
      <path
         id="path3814-5"
         inkscape:connector-curvature="0"
         d="m -27.034862,188.43927 c 0,0.49816 -0.407095,0.90588 -0.906151,0.90588 h -20.157672 c -0.497828,0 -0.904789,-0.40773 -0.904789,-0.90588 v -30.12506 c 0,-0.49814 0.406961,-0.90602 0.904789,-0.90602 h 20.157672 c 0.499056,0 0.906151,0.40788 0.906151,0.90602 z"
         style="fill:#ffffff;stroke:#000000;stroke-width:0.36652973;stroke-miterlimit:4;stroke-dasharray:none" />
      <path
         inkscape:connector-curvature="0"
         id="path43389-5"
         d="m -48.326145,187.98761 c -0.24905,-0.24756 -0.27637,-1.74296 -0.27452,-15.02644 0.002,-12.8895 0.0349,-14.77238 0.26203,-14.91691 0.15579,-0.0991 4.20427,-0.1783 10.10223,-0.19758 8.71828,-0.0285 9.8735,-7.7e-4 10.11594,0.2399 0.24448,0.24301 0.27837,1.82956 0.31744,14.8577 0.0291,9.72217 -0.0159,14.69782 -0.13503,14.92206 -0.17354,0.32661 -0.46938,0.3373 -10.14513,0.36631 -8.87278,0.0266 -9.99673,-3.2e-4 -10.24296,-0.24504 z"
         style="fill:#ffffff;stroke:#059800;stroke-width:0;stroke-linejoin:round;stroke-miterlimit:4;stroke-dasharray:none;stroke-dashoffset:0;stroke-opacity:1" />
    </g>
    <g
       transform="matrix(0.68494299,0,0,0.68494299,200.14609,67.246338)"
       id="g43393-8-3">
      <path
         id="path3814-5-1"
         inkscape:connector-curvature="0"
         d="m -27.034862,188.43927 c 0,0.49816 -0.407095,0.90588 -0.906151,0.90588 h -20.157672 c -0.497828,0 -0.904789,-0.40773 -0.904789,-0.90588 v -30.12506 c 0,-0.49814 0.406961,-0.90602 0.904789,-0.90602 h 20.157672 c 0.499056,0 0.906151,0.40788 0.906151,0.90602 z"
         style="fill:#ffffff;stroke:#000000;stroke-width:0.36652973;stroke-miterlimit:4;stroke-dasharray:none" />
      <path
         inkscape:connector-curvature="0"
         id="path43389-5-5"
         d="m -48.326145,187.98761 c -0.24905,-0.24756 -0.27637,-1.74296 -0.27452,-15.02644 0.002,-12.8895 0.0349,-14.77238 0.26203,-14.91691 0.15579,-0.0991 4.20427,-0.1783 10.10223,-0.19758 8.71828,-0.0285 9.8735,-7.7e-4 10.11594,0.2399 0.24448,0.24301 0.27837,1.82956 0.31744,14.8577 0.0291,9.72217 -0.0159,14.69782 -0.13503,14.92206 -0.17354,0.32661 -0.46938,0.3373 -10.14513,0.36631 -8.87278,0.0266 -9.99673,-3.2e-4 -10.24296,-0.24504 z"
         style="fill:#ffffff;stroke:#059800;stroke-width:0;stroke-linejoin:round;stroke-miterlimit:4;stroke-dasharray:none;stroke-dashoffset:0;stroke-opacity:1" />
    </g>
    <g
       transform="matrix(0.68494299,0,0,0.68494299,184.93743,79.504065)"
       id="g43393-8-0">
      <path
         id="path3814-5-6"
         inkscape:connector-curvature="0"
         d="m -27.034862,188.43927 c 0,0.49816 -0.407095,0.90588 -0.906151,0.90588 h -20.157672 c -0.497828,0 -0.904789,-0.40773 -0.904789,-0.90588 v -30.12506 c 0,-0.49814 0.406961,-0.90602 0.904789,-0.90602 h 20.157672 c 0.499056,0 0.906151,0.40788 0.906151,0.90602 z"
         style="fill:#ffffff;stroke:#000000;stroke-width:0.36652973;stroke-miterlimit:4;stroke-dasharray:none" />
      <path
         inkscape:connector-curvature="0"
         id="path43389-5-7"
         d="m -48.326145,187.98761 c -0.24905,-0.24756 -0.27637,-1.74296 -0.27452,-15.02644 0.002,-12.8895 0.0349,-14.77238 0.26203,-14.91691 0.15579,-0.0991 4.20427,-0.1783 10.10223,-0.19758 8.71828,-0.0285 9.8735,-7.7e-4 10.11594,0.2399 0.24448,0.24301 0.27837,1.82956 0.31744,14.8577 0.0291,9.72217 -0.0159,14.69782 -0.13503,14.92206 -0.17354,0.32661 -0.46938,0.3373 -10.14513,0.36631 -8.87278,0.0266 -9.99673,-3.2e-4 -10.24296,-0.24504 z"
         style="fill:#ffffff;stroke:#059800;stroke-width:0;stroke-linejoin:round;stroke-miterlimit:4;stroke-dasharray:none;stroke-dashoffset:0;stroke-opacity:1" />
    </g>
    <g
       transform="matrix(0.68494299,0,0,0.68494299,165.64285,88.129874)"
       id="g43393-8-2">
      <path
         id="path3814-5-62"
         inkscape:connector-curvature="0"
         d="m -27.034862,188.43927 c 0,0.49816 -0.407095,0.90588 -0.906151,0.90588 h -20.157672 c -0.497828,0 -0.904789,-0.40773 -0.904789,-0.90588 v -30.12506 c 0,-0.49814 0.406961,-0.90602 0.904789,-0.90602 h 20.157672 c 0.499056,0 0.906151,0.40788 0.906151,0.90602 z"
         style="fill:#ffffff;stroke:#000000;stroke-width:0.36652973;stroke-miterlimit:4;stroke-dasharray:none" />
      <path
         inkscape:connector-curvature="0"
         id="path43389-5-4"
         d="m -48.326145,187.98761 c -0.24905,-0.24756 -0.27637,-1.74296 -0.27452,-15.02644 0.002,-12.8895 0.0349,-14.77238 0.26203,-14.91691 0.15579,-0.0991 4.20427,-0.1783 10.10223,-0.19758 8.71828,-0.0285 9.8735,-7.7e-4 10.11594,0.2399 0.24448,0.24301 0.27837,1.82956 0.31744,14.8577 0.0291,9.72217 -0.0159,14.69782 -0.13503,14.92206 -0.17354,0.32661 -0.46938,0.3373 -10.14513,0.36631 -8.87278,0.0266 -9.99673,-3.2e-4 -10.24296,-0.24504 z"
         style="fill:#ffffff;stroke:#059800;stroke-width:0;stroke-linejoin:round;stroke-miterlimit:4;stroke-dasharray:none;stroke-dashoffset:0;stroke-opacity:1" />
    </g>
    <g
       transform="matrix(0.68494299,0,0,0.68494299,131.36662,92.442778)"
       id="g43393-8-03">
      <path
         id="path3814-5-7"
         inkscape:connector-curvature="0"
         d="m -27.034862,188.43927 c 0,0.49816 -0.407095,0.90588 -0.906151,0.90588 h -20.157672 c -0.497828,0 -0.904789,-0.40773 -0.904789,-0.90588 v -30.12506 c 0,-0.49814 0.406961,-0.90602 0.904789,-0.90602 h 20.157672 c 0.499056,0 0.906151,0.40788 0.906151,0.90602 z"
         style="fill:#ffffff;stroke:#000000;stroke-width:0.36652973;stroke-miterlimit:4;stroke-dasharray:none" />
      <path
         inkscape:connector-curvature="0"
         id="path43389-5-1"
         d="m -48.326145,187.98761 c -0.24905,-0.24756 -0.27637,-1.74296 -0.27452,-15.02644 0.002,-12.8895 0.0349,-14.77238 0.26203,-14.91691 0.15579,-0.0991 4.20427,-0.1783 10.10223,-0.19758 8.71828,-0.0285 9.8735,-7.7e-4 10.11594,0.2399 0.24448,0.24301 0.27837,1.82956 0.31744,14.8577 0.0291,9.72217 -0.0159,14.69782 -0.13503,14.92206 -0.17354,0.32661 -0.46938,0.3373 -10.14513,0.36631 -8.87278,0.0266 -9.99673,-3.2e-4 -10.24296,-0.24504 z"
         style="fill:#ffffff;stroke:#059800;stroke-width:0;stroke-linejoin:round;stroke-miterlimit:4;stroke-dasharray:none;stroke-dashoffset:0;stroke-opacity:1" />
    </g>
    <g
       transform="matrix(0.68494299,0,0,0.68494299,122.74081,64.06841)"
       id="g43393-8-9">
      <path
         id="path3814-5-4"
         inkscape:connector-curvature="0"
         d="m -27.034862,188.43927 c 0,0.49816 -0.407095,0.90588 -0.906151,0.90588 h -20.157672 c -0.497828,0 -0.904789,-0.40773 -0.904789,-0.90588 v -30.12506 c 0,-0.49814 0.406961,-0.90602 0.904789,-0.90602 h 20.157672 c 0.499056,0 0.906151,0.40788 0.906151,0.90602 z"
         style="fill:#ffffff;stroke:#000000;stroke-width:0.36652973;stroke-miterlimit:4;stroke-dasharray:none" />
      <path
         inkscape:connector-curvature="0"
         id="path43389-5-18"
         d="m -48.326145,187.98761 c -0.24905,-0.24756 -0.27637,-1.74296 -0.27452,-15.02644 0.002,-12.8895 0.0349,-14.77238 0.26203,-14.91691 0.15579,-0.0991 4.20427,-0.1783 10.10223,-0.19758 8.71828,-0.0285 9.8735,-7.7e-4 10.11594,0.2399 0.24448,0.24301 0.27837,1.82956 0.31744,14.8577 0.0291,9.72217 -0.0159,14.69782 -0.13503,14.92206 -0.17354,0.32661 -0.46938,0.3373 -10.14513,0.36631 -8.87278,0.0266 -9.99673,-3.2e-4 -10.24296,-0.24504 z"
         style="fill:#ffffff;stroke:#059800;stroke-width:0;stroke-linejoin:round;stroke-miterlimit:4;stroke-dasharray:none;stroke-dashoffset:0;stroke-opacity:1" />
    </g>
    <g
       transform="matrix(0.68494299,0,0,0.68494299,137.49548,38.871971)"
       id="g43393-8-09">
      <path
         id="path3814-5-9"
         inkscape:connector-curvature="0"
         d="m -27.034862,188.43927 c 0,0.49816 -0.407095,0.90588 -0.906151,0.90588 h -20.157672 c -0.497828,0 -0.904789,-0.40773 -0.904789,-0.90588 v -30.12506 c 0,-0.49814 0.406961,-0.90602 0.904789,-0.90602 h 20.157672 c 0.499056,0 0.906151,0.40788 0.906151,0.90602 z"
         style="fill:#ffffff;stroke:#000000;stroke-width:0.36652973;stroke-miterlimit:4;stroke-dasharray:none" />
      <path
         inkscape:connector-curvature="0"
         id="path43389-5-17"
         d="m -48.326145,187.98761 c -0.24905,-0.24756 -0.27637,-1.74296 -0.27452,-15.02644 0.002,-12.8895 0.0349,-14.77238 0.26203,-14.91691 0.15579,-0.0991 4.20427,-0.1783 10.10223,-0.19758 8.71828,-0.0285 9.8735,-7.7e-4 10.11594,0.2399 0.24448,0.24301 0.27837,1.82956 0.31744,14.8577 0.0291,9.72217 -0.0159,14.69782 -0.13503,14.92206 -0.17354,0.32661 -0.46938,0.3373 -10.14513,0.36631 -8.87278,0.0266 -9.99673,-3.2e-4 -10.24296,-0.24504 z"
         style="fill:#ffffff;stroke:#059800;stroke-width:0;stroke-linejoin:round;stroke-miterlimit:4;stroke-dasharray:none;stroke-dashoffset:0;stroke-opacity:1" />
    </g>
    <g
       transform="matrix(0.68494299,0,0,0.68494299,157.47104,27.976214)"
       id="g43393-8-21">
      <path
         id="path3814-5-46"
         inkscape:connector-curvature="0"
         d="m -27.034862,188.43927 c 0,0.49816 -0.407095,0.90588 -0.906151,0.90588 h -20.157672 c -0.497828,0 -0.904789,-0.40773 -0.904789,-0.90588 v -30.12506 c 0,-0.49814 0.406961,-0.90602 0.904789,-0.90602 h 20.157672 c 0.499056,0 0.906151,0.40788 0.906151,0.90602 z"
         style="fill:#ffffff;stroke:#000000;stroke-width:0.36652973;stroke-miterlimit:4;stroke-dasharray:none" />
      <path
         inkscape:connector-curvature="0"
         id="path43389-5-3"
         d="m -48.326145,187.98761 c -0.24905,-0.24756 -0.27637,-1.74296 -0.27452,-15.02644 0.002,-12.8895 0.0349,-14.77238 0.26203,-14.91691 0.15579,-0.0991 4.20427,-0.1783 10.10223,-0.19758 8.71828,-0.0285 9.8735,-7.7e-4 10.11594,0.2399 0.24448,0.24301 0.27837,1.82956 0.31744,14.8577 0.0291,9.72217 -0.0159,14.69782 -0.13503,14.92206 -0.17354,0.32661 -0.46938,0.3373 -10.14513,0.36631 -8.87278,0.0266 -9.99673,-3.2e-4 -10.24296,-0.24504 z"
         style="fill:#ffffff;stroke:#059800;stroke-width:0;stroke-linejoin:round;stroke-miterlimit:4;stroke-dasharray:none;stroke-dashoffset:0;stroke-opacity:1" />
    </g>
    <g
       transform="matrix(0.68494299,0,0,0.68494299,181.07851,21.84735)"
       id="g43393-8-38">
      <path
         id="path3814-5-73"
         inkscape:connector-curvature="0"
         d="m -27.034862,188.43927 c 0,0.49816 -0.407095,0.90588 -0.906151,0.90588 h -20.157672 c -0.497828,0 -0.904789,-0.40773 -0.904789,-0.90588 v -30.12506 c 0,-0.49814 0.406961,-0.90602 0.904789,-0.90602 h 20.157672 c 0.499056,0 0.906151,0.40788 0.906151,0.90602 z"
         style="fill:#ffffff;stroke:#000000;stroke-width:0.36652973;stroke-miterlimit:4;stroke-dasharray:none" />
      <path
         inkscape:connector-curvature="0"
         id="path43389-5-16"
         d="m -48.326145,187.98761 c -0.24905,-0.24756 -0.27637,-1.74296 -0.27452,-15.02644 0.002,-12.8895 0.0349,-14.77238 0.26203,-14.91691 0.15579,-0.0991 4.20427,-0.1783 10.10223,-0.19758 8.71828,-0.0285 9.8735,-7.7e-4 10.11594,0.2399 0.24448,0.24301 0.27837,1.82956 0.31744,14.8577 0.0291,9.72217 -0.0159,14.69782 -0.13503,14.92206 -0.17354,0.32661 -0.46938,0.3373 -10.14513,0.36631 -8.87278,0.0266 -9.99673,-3.2e-4 -10.24296,-0.24504 z"
         style="fill:#ffffff;stroke:#059800;stroke-width:0;stroke-linejoin:round;stroke-miterlimit:4;stroke-dasharray:none;stroke-dashoffset:0;stroke-opacity:1" />
    </g>
    <g
       transform="matrix(0.68494299,0,0,0.68494299,211.94982,32.743107)"
       id="g43393-8-96"
       inkscape:transform-center-x="-6.1288634"
       inkscape:transform-center-y="0.45398505">
      <path
         id="path3814-5-8"
         inkscape:connector-curvature="0"
         d="m -27.034862,188.43927 c 0,0.49816 -0.407095,0.90588 -0.906151,0.90588 h -20.157672 c -0.497828,0 -0.904789,-0.40773 -0.904789,-0.90588 v -30.12506 c 0,-0.49814 0.406961,-0.90602 0.904789,-0.90602 h 20.157672 c 0.499056,0 0.906151,0.40788 0.906151,0.90602 z"
         style="fill:#ffffff;stroke:#000000;stroke-width:0.36652973;stroke-miterlimit:4;stroke-dasharray:none" />
      <path
         inkscape:connector-curvature="0"
         id="path43389-5-8"
         d="m -48.326145,187.98761 c -0.24905,-0.24756 -0.27637,-1.74296 -0.27452,-15.02644 0.002,-12.8895 0.0349,-14.77238 0.26203,-14.91691 0.15579,-0.0991 4.20427,-0.1783 10.10223,-0.19758 8.71828,-0.0285 9.8735,-7.7e-4 10.11594,0.2399 0.24448,0.24301 0.27837,1.82956 0.31744,14.8577 0.0291,9.72217 -0.0159,14.69782 -0.13503,14.92206 -0.17354,0.32661 -0.46938,0.3373 -10.14513,0.36631 -8.87278,0.0266 -9.99673,-3.2e-4 -10.24296,-0.24504 z"
         style="fill:#ffffff;stroke:#059800;stroke-width:0;stroke-linejoin:round;stroke-miterlimit:4;stroke-dasharray:none;stroke-dashoffset:0;stroke-opacity:1" />
    </g>
    <g
       transform="matrix(0.68494299,0,0,0.68494299,225.79651,66.792348)"
       id="g43393-8-35">
      <path
         id="path3814-5-64"
         inkscape:connector-curvature="0"
         d="m -27.034862,188.43927 c 0,0.49816 -0.407095,0.90588 -0.906151,0.90588 h -20.157672 c -0.497828,0 -0.904789,-0.40773 -0.904789,-0.90588 v -30.12506 c 0,-0.49814 0.406961,-0.90602 0.904789,-0.90602 h 20.157672 c 0.499056,0 0.906151,0.40788 0.906151,0.90602 z"
         style="fill:#ffffff;stroke:#000000;stroke-width:0.36652973;stroke-miterlimit:4;stroke-dasharray:none" />
      <path
         inkscape:connector-curvature="0"
         id="path43389-5-34"
         d="m -48.326145,187.98761 c -0.24905,-0.24756 -0.27637,-1.74296 -0.27452,-15.02644 0.002,-12.8895 0.0349,-14.77238 0.26203,-14.91691 0.15579,-0.0991 4.20427,-0.1783 10.10223,-0.19758 8.71828,-0.0285 9.8735,-7.7e-4 10.11594,0.2399 0.24448,0.24301 0.27837,1.82956 0.31744,14.8577 0.0291,9.72217 -0.0159,14.69782 -0.13503,14.92206 -0.17354,0.32661 -0.46938,0.3373 -10.14513,0.36631 -8.87278,0.0266 -9.99673,-3.2e-4 -10.24296,-0.24504 z"
         style="fill:#ffffff;stroke:#059800;stroke-width:0;stroke-linejoin:round;stroke-miterlimit:4;stroke-dasharray:none;stroke-dashoffset:0;stroke-opacity:1" />
    </g>
    <g
       transform="matrix(0.68494299,0,0,0.68494299,214.90076,102.20356)"
       id="g43393-8-08">
      <path
         id="path3814-5-2"
         inkscape:connector-curvature="0"
         d="m -27.034862,188.43927 c 0,0.49816 -0.407095,0.90588 -0.906151,0.90588 h -20.157672 c -0.497828,0 -0.904789,-0.40773 -0.904789,-0.90588 v -30.12506 c 0,-0.49814 0.406961,-0.90602 0.904789,-0.90602 h 20.157672 c 0.499056,0 0.906151,0.40788 0.906151,0.90602 z"
         style="fill:#ffffff;stroke:#000000;stroke-width:0.36652973;stroke-miterlimit:4;stroke-dasharray:none" />
      <path
         inkscape:connector-curvature="0"
         id="path43389-5-57"
         d="m -48.326145,187.98761 c -0.24905,-0.24756 -0.27637,-1.74296 -0.27452,-15.02644 0.002,-12.8895 0.0349,-14.77238 0.26203,-14.91691 0.15579,-0.0991 4.20427,-0.1783 10.10223,-0.19758 8.71828,-0.0285 9.8735,-7.7e-4 10.11594,0.2399 0.24448,0.24301 0.27837,1.82956 0.31744,14.8577 0.0291,9.72217 -0.0159,14.69782 -0.13503,14.92206 -0.17354,0.32661 -0.46938,0.3373 -10.14513,0.36631 -8.87278,0.0266 -9.99673,-3.2e-4 -10.24296,-0.24504 z"
         style="fill:#ffffff;stroke:#059800;stroke-width:0;stroke-linejoin:round;stroke-miterlimit:4;stroke-dasharray:none;stroke-dashoffset:0;stroke-opacity:1" />
    </g>
    <g
       transform="matrix(0.68494299,0,0,0.68494299,164.73487,114.46129)"
       id="g43393-8-4">
      <path
         id="path3814-5-0"
         inkscape:connector-curvature="0"
         d="m -27.034862,188.43927 c 0,0.49816 -0.407095,0.90588 -0.906151,0.90588 h -20.157672 c -0.497828,0 -0.904789,-0.40773 -0.904789,-0.90588 v -30.12506 c 0,-0.49814 0.406961,-0.90602 0.904789,-0.90602 h 20.157672 c 0.499056,0 0.906151,0.40788 0.906151,0.90602 z"
         style="fill:#ffffff;stroke:#000000;stroke-width:0.36652973;stroke-miterlimit:4;stroke-dasharray:none" />
      <path
         inkscape:connector-curvature="0"
         id="path43389-5-88"
         d="m -48.326145,187.98761 c -0.24905,-0.24756 -0.27637,-1.74296 -0.27452,-15.02644 0.002,-12.8895 0.0349,-14.77238 0.26203,-14.91691 0.15579,-0.0991 4.20427,-0.1783 10.10223,-0.19758 8.71828,-0.0285 9.8735,-7.7e-4 10.11594,0.2399 0.24448,0.24301 0.27837,1.82956 0.31744,14.8577 0.0291,9.72217 -0.0159,14.69782 -0.13503,14.92206 -0.17354,0.32661 -0.46938,0.3373 -10.14513,0.36631 -8.87278,0.0266 -9.99673,-3.2e-4 -10.24296,-0.24504 z"
         style="fill:#ffffff;stroke:#059800;stroke-width:0;stroke-linejoin:round;stroke-miterlimit:4;stroke-dasharray:none;stroke-dashoffset:0;stroke-opacity:1" />
    </g>
    <g
       transform="matrix(0.68494299,0,0,0.68494299,110.02909,113.55331)"
       id="g43393-8-46">
      <path
         id="path3814-5-47"
         inkscape:connector-curvature="0"
         d="m -27.034862,188.43927 c 0,0.49816 -0.407095,0.90588 -0.906151,0.90588 h -20.157672 c -0.497828,0 -0.904789,-0.40773 -0.904789,-0.90588 v -30.12506 c 0,-0.49814 0.406961,-0.90602 0.904789,-0.90602 h 20.157672 c 0.499056,0 0.906151,0.40788 0.906151,0.90602 z"
         style="fill:#ffffff;stroke:#000000;stroke-width:0.36652973;stroke-miterlimit:4;stroke-dasharray:none" />
      <path
         inkscape:connector-curvature="0"
         id="path43389-5-46"
         d="m -48.326145,187.98761 c -0.24905,-0.24756 -0.27637,-1.74296 -0.27452,-15.02644 0.002,-12.8895 0.0349,-14.77238 0.26203,-14.91691 0.15579,-0.0991 4.20427,-0.1783 10.10223,-0.19758 8.71828,-0.0285 9.8735,-7.7e-4 10.11594,0.2399 0.24448,0.24301 0.27837,1.82956 0.31744,14.8577 0.0291,9.72217 -0.0159,14.69782 -0.13503,14.92206 -0.17354,0.32661 -0.46938,0.3373 -10.14513,0.36631 -8.87278,0.0266 -9.99673,-3.2e-4 -10.24296,-0.24504 z"
         style="fill:#ffffff;stroke:#059800;stroke-width:0;stroke-linejoin:round;stroke-miterlimit:4;stroke-dasharray:none;stroke-dashoffset:0;stroke-opacity:1" />
    </g>
    <g
       transform="matrix(0.68494299,0,0,0.68494299,94.36644,70.424268)"
       id="g43393-8-8">
      <path
         id="path3814-5-75"
         inkscape:connector-curvature="0"
         d="m -27.034862,188.43927 c 0,0.49816 -0.407095,0.90588 -0.906151,0.90588 h -20.157672 c -0.497828,0 -0.904789,-0.40773 -0.904789,-0.90588 v -30.12506 c 0,-0.49814 0.406961,-0.90602 0.904789,-0.90602 h 20.157672 c 0.499056,0 0.906151,0.40788 0.906151,0.90602 z"
         style="fill:#ffffff;stroke:#000000;stroke-width:0.36652973;stroke-miterlimit:4;stroke-dasharray:none" />
      <path
         inkscape:connector-curvature="0"
         id="path43389-5-71"
         d="m -48.326145,187.98761 c -0.24905,-0.24756 -0.27637,-1.74296 -0.27452,-15.02644 0.002,-12.8895 0.0349,-14.77238 0.26203,-14.91691 0.15579,-0.0991 4.20427,-0.1783 10.10223,-0.19758 8.71828,-0.0285 9.8735,-7.7e-4 10.11594,0.2399 0.24448,0.24301 0.27837,1.82956 0.31744,14.8577 0.0291,9.72217 -0.0159,14.69782 -0.13503,14.92206 -0.17354,0.32661 -0.46938,0.3373 -10.14513,0.36631 -8.87278,0.0266 -9.99673,-3.2e-4 -10.24296,-0.24504 z"
         style="fill:#ffffff;stroke:#059800;stroke-width:0;stroke-linejoin:round;stroke-miterlimit:4;stroke-dasharray:none;stroke-dashoffset:0;stroke-opacity:1" />
    </g>
    <g
       transform="matrix(0.68494299,0,0,0.68494299,107.30515,22.074345)"
       id="g43393-8-37">
      <path
         id="path3814-5-93"
         inkscape:connector-curvature="0"
         d="m -27.034862,188.43927 c 0,0.49816 -0.407095,0.90588 -0.906151,0.90588 h -20.157672 c -0.497828,0 -0.904789,-0.40773 -0.904789,-0.90588 v -30.12506 c 0,-0.49814 0.406961,-0.90602 0.904789,-0.90602 h 20.157672 c 0.499056,0 0.906151,0.40788 0.906151,0.90602 z"
         style="fill:#ffffff;stroke:#000000;stroke-width:0.36652973;stroke-miterlimit:4;stroke-dasharray:none" />
      <path
         inkscape:connector-curvature="0"
         id="path43389-5-44"
         d="m -48.326145,187.98761 c -0.24905,-0.24756 -0.27637,-1.74296 -0.27452,-15.02644 0.002,-12.8895 0.0349,-14.77238 0.26203,-14.91691 0.15579,-0.0991 4.20427,-0.1783 10.10223,-0.19758 8.71828,-0.0285 9.8735,-7.7e-4 10.11594,0.2399 0.24448,0.24301 0.27837,1.82956 0.31744,14.8577 0.0291,9.72217 -0.0159,14.69782 -0.13503,14.92206 -0.17354,0.32661 -0.46938,0.3373 -10.14513,0.36631 -8.87278,0.0266 -9.99673,-3.2e-4 -10.24296,-0.24504 z"
         style="fill:#ffffff;stroke:#059800;stroke-width:0;stroke-linejoin:round;stroke-miterlimit:4;stroke-dasharray:none;stroke-dashoffset:0;stroke-opacity:1" />
    </g>
    <g
       transform="matrix(0.68494299,0,0,0.68494299,148.84523,2.3257849)"
       id="g43393-8-6">
      <path
         id="path3814-5-82"
         inkscape:connector-curvature="0"
         d="m -27.034862,188.43927 c 0,0.49816 -0.407095,0.90588 -0.906151,0.90588 h -20.157672 c -0.497828,0 -0.904789,-0.40773 -0.904789,-0.90588 v -30.12506 c 0,-0.49814 0.406961,-0.90602 0.904789,-0.90602 h 20.157672 c 0.499056,0 0.906151,0.40788 0.906151,0.90602 z"
         style="fill:#ffffff;stroke:#000000;stroke-width:0.36652973;stroke-miterlimit:4;stroke-dasharray:none" />
      <path
         inkscape:connector-curvature="0"
         id="path43389-5-0"
         d="m -48.326145,187.98761 c -0.24905,-0.24756 -0.27637,-1.74296 -0.27452,-15.02644 0.002,-12.8895 0.0349,-14.77238 0.26203,-14.91691 0.15579,-0.0991 4.20427,-0.1783 10.10223,-0.19758 8.71828,-0.0285 9.8735,-7.7e-4 10.11594,0.2399 0.24448,0.24301 0.27837,1.82956 0.31744,14.8577 0.0291,9.72217 -0.0159,14.69782 -0.13503,14.92206 -0.17354,0.32661 -0.46938,0.3373 -10.14513,0.36631 -8.87278,0.0266 -9.99673,-3.2e-4 -10.24296,-0.24504 z"
         style="fill:#ffffff;stroke:#059800;stroke-width:0;stroke-linejoin:round;stroke-miterlimit:4;stroke-dasharray:none;stroke-dashoffset:0;stroke-opacity:1" />
    </g>
    <g
       transform="matrix(0.68494299,0,0,0.68494299,193.33624,1.8717951)"
       id="g43393-8-5">
      <path
         id="path3814-5-28"
         inkscape:connector-curvature="0"
         d="m -27.034862,188.43927 c 0,0.49816 -0.407095,0.90588 -0.906151,0.90588 h -20.157672 c -0.497828,0 -0.904789,-0.40773 -0.904789,-0.90588 v -30.12506 c 0,-0.49814 0.406961,-0.90602 0.904789,-0.90602 h 20.157672 c 0.499056,0 0.906151,0.40788 0.906151,0.90602 z"
         style="fill:#ffffff;stroke:#000000;stroke-width:0.36652973;stroke-miterlimit:4;stroke-dasharray:none" />
      <path
         inkscape:connector-curvature="0"
         id="path43389-5-2"
         d="m -48.326145,187.98761 c -0.24905,-0.24756 -0.27637,-1.74296 -0.27452,-15.02644 0.002,-12.8895 0.0349,-14.77238 0.26203,-14.91691 0.15579,-0.0991 4.20427,-0.1783 10.10223,-0.19758 8.71828,-0.0285 9.8735,-7.7e-4 10.11594,0.2399 0.24448,0.24301 0.27837,1.82956 0.31744,14.8577 0.0291,9.72217 -0.0159,14.69782 -0.13503,14.92206 -0.17354,0.32661 -0.46938,0.3373 -10.14513,0.36631 -8.87278,0.0266 -9.99673,-3.2e-4 -10.24296,-0.24504 z"
         style="fill:#ffffff;stroke:#059800;stroke-width:0;stroke-linejoin:round;stroke-miterlimit:4;stroke-dasharray:none;stroke-dashoffset:0;stroke-opacity:1" />
    </g>
    <g
       transform="matrix(0.68494299,0,0,0.68494299,243.04813,16.399471)"
       id="g43393-8-39">
      <path
         id="path3814-5-3"
         inkscape:connector-curvature="0"
         d="m -27.034862,188.43927 c 0,0.49816 -0.407095,0.90588 -0.906151,0.90588 h -20.157672 c -0.497828,0 -0.904789,-0.40773 -0.904789,-0.90588 v -30.12506 c 0,-0.49814 0.406961,-0.90602 0.904789,-0.90602 h 20.157672 c 0.499056,0 0.906151,0.40788 0.906151,0.90602 z"
         style="fill:#ffffff;stroke:#000000;stroke-width:0.36652973;stroke-miterlimit:4;stroke-dasharray:none" />
      <path
         inkscape:connector-curvature="0"
         id="path43389-5-37"
         d="m -48.326145,187.98761 c -0.24905,-0.24756 -0.27637,-1.74296 -0.27452,-15.02644 0.002,-12.8895 0.0349,-14.77238 0.26203,-14.91691 0.15579,-0.0991 4.20427,-0.1783 10.10223,-0.19758 8.71828,-0.0285 9.8735,-7.7e-4 10.11594,0.2399 0.24448,0.24301 0.27837,1.82956 0.31744,14.8577 0.0291,9.72217 -0.0159,14.69782 -0.13503,14.92206 -0.17354,0.32661 -0.46938,0.3373 -10.14513,0.36631 -8.87278,0.0266 -9.99673,-3.2e-4 -10.24296,-0.24504 z"
         style="fill:#ffffff;stroke:#059800;stroke-width:0;stroke-linejoin:round;stroke-miterlimit:4;stroke-dasharray:none;stroke-dashoffset:0;stroke-opacity:1" />
    </g>
    <g
       transform="matrix(0.68494299,0,0,0.68494299,258.48378,70.651263)"
       id="g43393-8-36">
      <path
         id="path3814-5-89"
         inkscape:connector-curvature="0"
         d="m -27.034862,188.43927 c 0,0.49816 -0.407095,0.90588 -0.906151,0.90588 h -20.157672 c -0.497828,0 -0.904789,-0.40773 -0.904789,-0.90588 v -30.12506 c 0,-0.49814 0.406961,-0.90602 0.904789,-0.90602 h 20.157672 c 0.499056,0 0.906151,0.40788 0.906151,0.90602 z"
         style="fill:#ffffff;stroke:#000000;stroke-width:0.36652973;stroke-miterlimit:4;stroke-dasharray:none" />
      <path
         inkscape:connector-curvature="0"
         id="path43389-5-6"
         d="m -48.326145,187.98761 c -0.24905,-0.24756 -0.27637,-1.74296 -0.27452,-15.02644 0.002,-12.8895 0.0349,-14.77238 0.26203,-14.91691 0.15579,-0.0991 4.20427,-0.1783 10.10223,-0.19758 8.71828,-0.0285 9.8735,-7.7e-4 10.11594,0.2399 0.24448,0.24301 0.27837,1.82956 0.31744,14.8577 0.0291,9.72217 -0.0159,14.69782 -0.13503,14.92206 -0.17354,0.32661 -0.46938,0.3373 -10.14513,0.36631 -8.87278,0.0266 -9.99673,-3.2e-4 -10.24296,-0.24504 z"
         style="fill:#ffffff;stroke:#059800;stroke-width:0;stroke-linejoin:round;stroke-miterlimit:4;stroke-dasharray:none;stroke-dashoffset:0;stroke-opacity:1" />
    </g>
    <g
       transform="matrix(0.68494299,0,0,0.68494299,240.77818,124.90305)"
       id="g43393-8-7">
      <path
         id="path3814-5-894"
         inkscape:connector-curvature="0"
         d="m -27.034862,188.43927 c 0,0.49816 -0.407095,0.90588 -0.906151,0.90588 h -20.157672 c -0.497828,0 -0.904789,-0.40773 -0.904789,-0.90588 v -30.12506 c 0,-0.49814 0.406961,-0.90602 0.904789,-0.90602 h 20.157672 c 0.499056,0 0.906151,0.40788 0.906151,0.90602 z"
         style="fill:#ffffff;stroke:#000000;stroke-width:0.36652973;stroke-miterlimit:4;stroke-dasharray:none" />
      <path
         inkscape:connector-curvature="0"
         id="path43389-5-47"
         d="m -48.326145,187.98761 c -0.24905,-0.24756 -0.27637,-1.74296 -0.27452,-15.02644 0.002,-12.8895 0.0349,-14.77238 0.26203,-14.91691 0.15579,-0.0991 4.20427,-0.1783 10.10223,-0.19758 8.71828,-0.0285 9.8735,-7.7e-4 10.11594,0.2399 0.24448,0.24301 0.27837,1.82956 0.31744,14.8577 0.0291,9.72217 -0.0159,14.69782 -0.13503,14.92206 -0.17354,0.32661 -0.46938,0.3373 -10.14513,0.36631 -8.87278,0.0266 -9.99673,-3.2e-4 -10.24296,-0.24504 z"
         style="fill:#ffffff;stroke:#059800;stroke-width:0;stroke-linejoin:round;stroke-miterlimit:4;stroke-dasharray:none;stroke-dashoffset:0;stroke-opacity:1" />
    </g>
    <g
       transform="matrix(0.68494299,0,0,0.68494299,163.3729,137.38778)"
       id="g43393-8-57">
      <path
         id="path3814-5-00"
         inkscape:connector-curvature="0"
         d="m -27.034862,188.43927 c 0,0.49816 -0.407095,0.90588 -0.906151,0.90588 h -20.157672 c -0.497828,0 -0.904789,-0.40773 -0.904789,-0.90588 v -30.12506 c 0,-0.49814 0.406961,-0.90602 0.904789,-0.90602 h 20.157672 c 0.499056,0 0.906151,0.40788 0.906151,0.90602 z"
         style="fill:#ffffff;stroke:#000000;stroke-width:0.36652973;stroke-miterlimit:4;stroke-dasharray:none" />
      <path
         inkscape:connector-curvature="0"
         id="path43389-5-9"
         d="m -48.326145,187.98761 c -0.24905,-0.24756 -0.27637,-1.74296 -0.27452,-15.02644 0.002,-12.8895 0.0349,-14.77238 0.26203,-14.91691 0.15579,-0.0991 4.20427,-0.1783 10.10223,-0.19758 8.71828,-0.0285 9.8735,-7.7e-4 10.11594,0.2399 0.24448,0.24301 0.27837,1.82956 0.31744,14.8577 0.0291,9.72217 -0.0159,14.69782 -0.13503,14.92206 -0.17354,0.32661 -0.46938,0.3373 -10.14513,0.36631 -8.87278,0.0266 -9.99673,-3.2e-4 -10.24296,-0.24504 z"
         style="fill:#ffffff;stroke:#059800;stroke-width:0;stroke-linejoin:round;stroke-miterlimit:4;stroke-dasharray:none;stroke-dashoffset:0;stroke-opacity:1" />
    </g>
    <g
       transform="matrix(0.68494299,0,0,0.68494299,87.556592,135.57182)"
       id="g43393-8-95">
      <path
         id="path3814-5-40"
         inkscape:connector-curvature="0"
         d="m -27.034862,188.43927 c 0,0.49816 -0.407095,0.90588 -0.906151,0.90588 h -20.157672 c -0.497828,0 -0.904789,-0.40773 -0.904789,-0.90588 v -30.12506 c 0,-0.49814 0.406961,-0.90602 0.904789,-0.90602 h 20.157672 c 0.499056,0 0.906151,0.40788 0.906151,0.90602 z"
         style="fill:#ffffff;stroke:#000000;stroke-width:0.36652973;stroke-miterlimit:4;stroke-dasharray:none" />
      <path
         inkscape:connector-curvature="0"
         id="path43389-5-343"
         d="m -48.326145,187.98761 c -0.24905,-0.24756 -0.27637,-1.74296 -0.27452,-15.02644 0.002,-12.8895 0.0349,-14.77238 0.26203,-14.91691 0.15579,-0.0991 4.20427,-0.1783 10.10223,-0.19758 8.71828,-0.0285 9.8735,-7.7e-4 10.11594,0.2399 0.24448,0.24301 0.27837,1.82956 0.31744,14.8577 0.0291,9.72217 -0.0159,14.69782 -0.13503,14.92206 -0.17354,0.32661 -0.46938,0.3373 -10.14513,0.36631 -8.87278,0.0266 -9.99673,-3.2e-4 -10.24296,-0.24504 z"
         style="fill:#ffffff;stroke:#059800;stroke-width:0;stroke-linejoin:round;stroke-miterlimit:4;stroke-dasharray:none;stroke-dashoffset:0;stroke-opacity:1" />
    </g>
    <g
       transform="matrix(0.68494299,0,0,0.68494299,61.225179,74.056187)"
       id="g43393-8-28">
      <path
         id="path3814-5-38"
         inkscape:connector-curvature="0"
         d="m -27.034862,188.43927 c 0,0.49816 -0.407095,0.90588 -0.906151,0.90588 h -20.157672 c -0.497828,0 -0.904789,-0.40773 -0.904789,-0.90588 v -30.12506 c 0,-0.49814 0.406961,-0.90602 0.904789,-0.90602 h 20.157672 c 0.499056,0 0.906151,0.40788 0.906151,0.90602 z"
         style="fill:#ffffff;stroke:#000000;stroke-width:0.36652973;stroke-miterlimit:4;stroke-dasharray:none" />
      <path
         inkscape:connector-curvature="0"
         id="path43389-5-62"
         d="m -48.326145,187.98761 c -0.24905,-0.24756 -0.27637,-1.74296 -0.27452,-15.02644 0.002,-12.8895 0.0349,-14.77238 0.26203,-14.91691 0.15579,-0.0991 4.20427,-0.1783 10.10223,-0.19758 8.71828,-0.0285 9.8735,-7.7e-4 10.11594,0.2399 0.24448,0.24301 0.27837,1.82956 0.31744,14.8577 0.0291,9.72217 -0.0159,14.69782 -0.13503,14.92206 -0.17354,0.32661 -0.46938,0.3373 -10.14513,0.36631 -8.87278,0.0266 -9.99673,-3.2e-4 -10.24296,-0.24504 z"
         style="fill:#ffffff;stroke:#059800;stroke-width:0;stroke-linejoin:round;stroke-miterlimit:4;stroke-dasharray:none;stroke-dashoffset:0;stroke-opacity:1" />
    </g>
    <g
       transform="matrix(0.68494299,0,0,0.68494299,73.709901,1.1908102)"
       id="g43393-8-093">
      <path
         id="path3814-5-34"
         inkscape:connector-curvature="0"
         d="m -27.034862,188.43927 c 0,0.49816 -0.407095,0.90588 -0.906151,0.90588 h -20.157672 c -0.497828,0 -0.904789,-0.40773 -0.904789,-0.90588 v -30.12506 c 0,-0.49814 0.406961,-0.90602 0.904789,-0.90602 h 20.157672 c 0.499056,0 0.906151,0.40788 0.906151,0.90602 z"
         style="fill:#ffffff;stroke:#000000;stroke-width:0.36652973;stroke-miterlimit:4;stroke-dasharray:none" />
      <path
         inkscape:connector-curvature="0"
         id="path43389-5-31"
         d="m -48.326145,187.98761 c -0.24905,-0.24756 -0.27637,-1.74296 -0.27452,-15.02644 0.002,-12.8895 0.0349,-14.77238 0.26203,-14.91691 0.15579,-0.0991 4.20427,-0.1783 10.10223,-0.19758 8.71828,-0.0285 9.8735,-7.7e-4 10.11594,0.2399 0.24448,0.24301 0.27837,1.82956 0.31744,14.8577 0.0291,9.72217 -0.0159,14.69782 -0.13503,14.92206 -0.17354,0.32661 -0.46938,0.3373 -10.14513,0.36631 -8.87278,0.0266 -9.99673,-3.2e-4 -10.24296,-0.24504 z"
         style="fill:#ffffff;stroke:#059800;stroke-width:0;stroke-linejoin:round;stroke-miterlimit:4;stroke-dasharray:none;stroke-dashoffset:0;stroke-opacity:1" />
    </g>
    <g
       transform="matrix(0.68494299,0,0,0.68494299,142.71636,-17.876765)"
       id="g43393-8-22">
      <path
         id="path3814-5-462"
         inkscape:connector-curvature="0"
         d="m -27.034862,188.43927 c 0,0.49816 -0.407095,0.90588 -0.906151,0.90588 h -20.157672 c -0.497828,0 -0.904789,-0.40773 -0.904789,-0.90588 v -30.12506 c 0,-0.49814 0.406961,-0.90602 0.904789,-0.90602 h 20.157672 c 0.499056,0 0.906151,0.40788 0.906151,0.90602 z"
         style="fill:#ffffff;stroke:#000000;stroke-width:0.36652973;stroke-miterlimit:4;stroke-dasharray:none" />
      <path
         inkscape:connector-curvature="0"
         id="path43389-5-27"
         d="m -48.326145,187.98761 c -0.24905,-0.24756 -0.27637,-1.74296 -0.27452,-15.02644 0.002,-12.8895 0.0349,-14.77238 0.26203,-14.91691 0.15579,-0.0991 4.20427,-0.1783 10.10223,-0.19758 8.71828,-0.0285 9.8735,-7.7e-4 10.11594,0.2399 0.24448,0.24301 0.27837,1.82956 0.31744,14.8577 0.0291,9.72217 -0.0159,14.69782 -0.13503,14.92206 -0.17354,0.32661 -0.46938,0.3373 -10.14513,0.36631 -8.87278,0.0266 -9.99673,-3.2e-4 -10.24296,-0.24504 z"
         style="fill:#ffffff;stroke:#059800;stroke-width:0;stroke-linejoin:round;stroke-miterlimit:4;stroke-dasharray:none;stroke-dashoffset:0;stroke-opacity:1" />
    </g>
    <g
       transform="matrix(0.68494299,0,0,0.68494299,203.32401,-18.330755)"
       id="g43393-8-69">
      <path
         id="path3814-5-642"
         inkscape:connector-curvature="0"
         d="m -27.034862,188.43927 c 0,0.49816 -0.407095,0.90588 -0.906151,0.90588 h -20.157672 c -0.497828,0 -0.904789,-0.40773 -0.904789,-0.90588 v -30.12506 c 0,-0.49814 0.406961,-0.90602 0.904789,-0.90602 h 20.157672 c 0.499056,0 0.906151,0.40788 0.906151,0.90602 z"
         style="fill:#ffffff;stroke:#000000;stroke-width:0.36652973;stroke-miterlimit:4;stroke-dasharray:none" />
      <path
         inkscape:connector-curvature="0"
         id="path43389-5-74"
         d="m -48.326145,187.98761 c -0.24905,-0.24756 -0.27637,-1.74296 -0.27452,-15.02644 0.002,-12.8895 0.0349,-14.77238 0.26203,-14.91691 0.15579,-0.0991 4.20427,-0.1783 10.10223,-0.19758 8.71828,-0.0285 9.8735,-7.7e-4 10.11594,0.2399 0.24448,0.24301 0.27837,1.82956 0.31744,14.8577 0.0291,9.72217 -0.0159,14.69782 -0.13503,14.92206 -0.17354,0.32661 -0.46938,0.3373 -10.14513,0.36631 -8.87278,0.0266 -9.99673,-3.2e-4 -10.24296,-0.24504 z"
         style="fill:#ffffff;stroke:#059800;stroke-width:0;stroke-linejoin:round;stroke-miterlimit:4;stroke-dasharray:none;stroke-dashoffset:0;stroke-opacity:1" />
    </g>
    <g
       transform="matrix(0.68494299,0,0,0.68494299,278.68633,-1.760124)"
       id="g43393-8-1">
      <path
         id="path3814-5-35"
         inkscape:connector-curvature="0"
         d="m -27.034862,188.43927 c 0,0.49816 -0.407095,0.90588 -0.906151,0.90588 h -20.157672 c -0.497828,0 -0.904789,-0.40773 -0.904789,-0.90588 v -30.12506 c 0,-0.49814 0.406961,-0.90602 0.904789,-0.90602 h 20.157672 c 0.499056,0 0.906151,0.40788 0.906151,0.90602 z"
         style="fill:#ffffff;stroke:#000000;stroke-width:0.36652973;stroke-miterlimit:4;stroke-dasharray:none" />
      <path
         inkscape:connector-curvature="0"
         id="path43389-5-39"
         d="m -48.326145,187.98761 c -0.24905,-0.24756 -0.27637,-1.74296 -0.27452,-15.02644 0.002,-12.8895 0.0349,-14.77238 0.26203,-14.91691 0.15579,-0.0991 4.20427,-0.1783 10.10223,-0.19758 8.71828,-0.0285 9.8735,-7.7e-4 10.11594,0.2399 0.24448,0.24301 0.27837,1.82956 0.31744,14.8577 0.0291,9.72217 -0.0159,14.69782 -0.13503,14.92206 -0.17354,0.32661 -0.46938,0.3373 -10.14513,0.36631 -8.87278,0.0266 -9.99673,-3.2e-4 -10.24296,-0.24504 z"
         style="fill:#ffffff;stroke:#059800;stroke-width:0;stroke-linejoin:round;stroke-miterlimit:4;stroke-dasharray:none;stroke-dashoffset:0;stroke-opacity:1" />
    </g>
    <g
       transform="matrix(0.68494299,0,0,0.68494299,286.85815,73.602197)"
       id="g43393-8-367">
      <path
         id="path3814-5-20"
         inkscape:connector-curvature="0"
         d="m -27.034862,188.43927 c 0,0.49816 -0.407095,0.90588 -0.906151,0.90588 h -20.157672 c -0.497828,0 -0.904789,-0.40773 -0.904789,-0.90588 v -30.12506 c 0,-0.49814 0.406961,-0.90602 0.904789,-0.90602 h 20.157672 c 0.499056,0 0.906151,0.40788 0.906151,0.90602 z"
         style="fill:#ffffff;stroke:#000000;stroke-width:0.36652973;stroke-miterlimit:4;stroke-dasharray:none" />
      <path
         inkscape:connector-curvature="0"
         id="path43389-5-14"
         d="m -48.326145,187.98761 c -0.24905,-0.24756 -0.27637,-1.74296 -0.27452,-15.02644 0.002,-12.8895 0.0349,-14.77238 0.26203,-14.91691 0.15579,-0.0991 4.20427,-0.1783 10.10223,-0.19758 8.71828,-0.0285 9.8735,-7.7e-4 10.11594,0.2399 0.24448,0.24301 0.27837,1.82956 0.31744,14.8577 0.0291,9.72217 -0.0159,14.69782 -0.13503,14.92206 -0.17354,0.32661 -0.46938,0.3373 -10.14513,0.36631 -8.87278,0.0266 -9.99673,-3.2e-4 -10.24296,-0.24504 z"
         style="fill:#ffffff;stroke:#059800;stroke-width:0;stroke-linejoin:round;stroke-miterlimit:4;stroke-dasharray:none;stroke-dashoffset:0;stroke-opacity:1" />
    </g>
    <g
       transform="matrix(0.68494299,0,0,0.68494299,269.37954,149.8725)"
       id="g43393-8-83">
      <path
         id="path3814-5-92"
         inkscape:connector-curvature="0"
         d="m -27.034862,188.43927 c 0,0.49816 -0.407095,0.90588 -0.906151,0.90588 h -20.157672 c -0.497828,0 -0.904789,-0.40773 -0.904789,-0.90588 v -30.12506 c 0,-0.49814 0.406961,-0.90602 0.904789,-0.90602 h 20.157672 c 0.499056,0 0.906151,0.40788 0.906151,0.90602 z"
         style="fill:#ffffff;stroke:#000000;stroke-width:0.36652973;stroke-miterlimit:4;stroke-dasharray:none" />
      <path
         inkscape:connector-curvature="0"
         id="path43389-5-89"
         d="m -48.326145,187.98761 c -0.24905,-0.24756 -0.27637,-1.74296 -0.27452,-15.02644 0.002,-12.8895 0.0349,-14.77238 0.26203,-14.91691 0.15579,-0.0991 4.20427,-0.1783 10.10223,-0.19758 8.71828,-0.0285 9.8735,-7.7e-4 10.11594,0.2399 0.24448,0.24301 0.27837,1.82956 0.31744,14.8577 0.0291,9.72217 -0.0159,14.69782 -0.13503,14.92206 -0.17354,0.32661 -0.46938,0.3373 -10.14513,0.36631 -8.87278,0.0266 -9.99673,-3.2e-4 -10.24296,-0.24504 z"
         style="fill:#ffffff;stroke:#059800;stroke-width:0;stroke-linejoin:round;stroke-miterlimit:4;stroke-dasharray:none;stroke-dashoffset:0;stroke-opacity:1" />
    </g>
    <g
       transform="matrix(0.68494299,0,0,0.68494299,158.833,166.89712)"
       id="g43393-8-68">
      <path
         id="path3814-5-24"
         inkscape:connector-curvature="0"
         d="m -27.034862,188.43927 c 0,0.49816 -0.407095,0.90588 -0.906151,0.90588 h -20.157672 c -0.497828,0 -0.904789,-0.40773 -0.904789,-0.90588 v -30.12506 c 0,-0.49814 0.406961,-0.90602 0.904789,-0.90602 h 20.157672 c 0.499056,0 0.906151,0.40788 0.906151,0.90602 z"
         style="fill:#ffffff;stroke:#000000;stroke-width:0.36652973;stroke-miterlimit:4;stroke-dasharray:none" />
      <path
         inkscape:connector-curvature="0"
         id="path43389-5-07"
         d="m -48.326145,187.98761 c -0.24905,-0.24756 -0.27637,-1.74296 -0.27452,-15.02644 0.002,-12.8895 0.0349,-14.77238 0.26203,-14.91691 0.15579,-0.0991 4.20427,-0.1783 10.10223,-0.19758 8.71828,-0.0285 9.8735,-7.7e-4 10.11594,0.2399 0.24448,0.24301 0.27837,1.82956 0.31744,14.8577 0.0291,9.72217 -0.0159,14.69782 -0.13503,14.92206 -0.17354,0.32661 -0.46938,0.3373 -10.14513,0.36631 -8.87278,0.0266 -9.99673,-3.2e-4 -10.24296,-0.24504 z"
         style="fill:#ffffff;stroke:#059800;stroke-width:0;stroke-linejoin:round;stroke-miterlimit:4;stroke-dasharray:none;stroke-dashoffset:0;stroke-opacity:1" />
    </g>
    <g
       transform="matrix(0.68494299,0,0,0.68494299,62.360153,160.54126)"
       id="g43393-8-10">
      <path
         id="path3814-5-730"
         inkscape:connector-curvature="0"
         d="m -27.034862,188.43927 c 0,0.49816 -0.407095,0.90588 -0.906151,0.90588 h -20.157672 c -0.497828,0 -0.904789,-0.40773 -0.904789,-0.90588 v -30.12506 c 0,-0.49814 0.406961,-0.90602 0.904789,-0.90602 h 20.157672 c 0.499056,0 0.906151,0.40788 0.906151,0.90602 z"
         style="fill:#ffffff;stroke:#000000;stroke-width:0.36652973;stroke-miterlimit:4;stroke-dasharray:none" />
      <path
         inkscape:connector-curvature="0"
         id="path43389-5-67"
         d="m -48.326145,187.98761 c -0.24905,-0.24756 -0.27637,-1.74296 -0.27452,-15.02644 0.002,-12.8895 0.0349,-14.77238 0.26203,-14.91691 0.15579,-0.0991 4.20427,-0.1783 10.10223,-0.19758 8.71828,-0.0285 9.8735,-7.7e-4 10.11594,0.2399 0.24448,0.24301 0.27837,1.82956 0.31744,14.8577 0.0291,9.72217 -0.0159,14.69782 -0.13503,14.92206 -0.17354,0.32661 -0.46938,0.3373 -10.14513,0.36631 -8.87278,0.0266 -9.99673,-3.2e-4 -10.24296,-0.24504 z"
         style="fill:#ffffff;stroke:#059800;stroke-width:0;stroke-linejoin:round;stroke-miterlimit:4;stroke-dasharray:none;stroke-dashoffset:0;stroke-opacity:1" />
    </g>
    <text
       xml:space="preserve"
       style="font-style:normal;font-weight:normal;font-size:10.58333302px;line-height:1.25;font-family:sans-serif;letter-spacing:0px;word-spacing:0px;fill:#000000;fill-opacity:1;stroke:none;stroke-width:0.26458332"
       x="-60.187336"
       y="264.66284"
       id="text43749"
       transform="rotate(-14.4)"><tspan
         sodipodi:role="line"
         id="tspan43747"
         x="-60.187336"
         y="264.66284"
         style="stroke-width:0.26458332">Start</tspan></text>
    <path
       style="fill:none;stroke:#000000;stroke-width:0.89958334;stroke-linecap:butt;stroke-linejoin:miter;stroke-opacity:1;stroke-miterlimit:4;stroke-dasharray:none;marker-end:url(#Arrow1Lend)"
       d="m 26.104418,268.62563 c 9.533787,10.66877 9.533787,10.66877 9.533787,10.66877"
       id="path43751"
       inkscape:connector-curvature="0" />
    <text
       xml:space="preserve"
       style="font-style:normal;font-weight:normal;font-size:10.58333302px;line-height:1.25;font-family:sans-serif;letter-spacing:0px;word-spacing:0px;fill:#000000;fill-opacity:1;stroke:none;stroke-width:0.26458332"
       x="130.74908"
       y="180.09761"
       id="text43775"><tspan
         sodipodi:role="line"
         id="tspan43773"
         x="130.74908"
         y="180.09761"
         style="stroke-width:0.26458332">End</tspan></text>
  </g>
</svg>
