<?xml version="1.0" standalone="no"?>
<!DOCTYPE svg PUBLIC "-//W3C//DTD SVG 20010904//EN"
 "http://www.w3.org/TR/2001/REC-SVG-20010904/DTD/svg10.dtd">
<svg version="1.0" xmlns="http://www.w3.org/2000/svg"
 width="779.000000pt" height="1280.000000pt" viewBox="0 0 779.000000 1280.000000"
 preserveAspectRatio="xMidYMid meet">
<g transform="translate(0.000000,1280.000000) scale(0.100000,-0.100000)"
fill="#000000" stroke="none">
<path d="M3740 12791 c-107 -16 -217 -53 -386 -131 -228 -106 -419 -182 -839
-335 -578 -210 -927 -354 -1055 -434 -25 -16 -61 -32 -81 -35 -63 -11 -109
-82 -109 -168 0 -53 28 -118 50 -118 6 0 48 -38 95 -84 98 -99 244 -199 406
-278 221 -109 801 -338 1164 -460 287 -96 366 -134 452 -212 86 -78 117 -126
164 -254 123 -328 242 -429 669 -573 173 -58 197 -70 372 -175 222 -133 320
-204 408 -293 162 -164 229 -336 217 -560 -8 -158 -57 -295 -178 -497 -27 -45
-54 -86 -61 -92 -8 -6 -34 -7 -73 -1 -280 39 -959 70 -1535 70 -559 0 -809
-13 -1315 -67 -287 -31 -449 -61 -609 -115 -212 -70 -219 -80 -207 -285 8
-147 19 -184 52 -184 20 0 21 4 15 93 l-7 92 24 -27 c59 -64 283 -206 494
-312 l131 -66 11 -49 c6 -27 10 -91 10 -143 0 -94 9 -140 32 -154 18 -11 39
24 39 65 0 20 -9 83 -19 141 -11 58 -18 107 -15 109 2 2 52 -15 111 -39 335
-132 732 -230 1028 -256 94 -8 115 -17 115 -48 0 -12 9 -49 20 -81 61 -176
237 -385 405 -480 28 -16 51 -30 53 -31 2 -1 -6 -58 -18 -126 -13 -76 -25
-211 -31 -353 -12 -270 -31 -440 -60 -547 l-21 -76 -91 -7 c-224 -17 -493 -65
-652 -116 -402 -131 -490 -315 -260 -544 69 -70 210 -165 313 -212 28 -14 52
-27 52 -29 0 -3 -51 -60 -113 -127 -134 -145 -227 -256 -327 -392 -41 -55 -75
-101 -76 -103 -1 -2 -197 -25 -435 -52 -252 -28 -499 -62 -589 -80 -796 -160
-1329 -341 -1444 -493 -44 -57 -44 -92 -1 -177 48 -95 75 -129 157 -196 154
-125 419 -271 643 -354 124 -46 561 -157 765 -194 75 -14 187 -30 250 -37 63
-7 118 -17 121 -22 4 -6 10 -40 14 -76 31 -294 156 -648 324 -916 l49 -79 -81
-17 c-151 -31 -287 -88 -412 -172 -63 -43 -225 -193 -225 -209 0 -6 24 4 53
21 236 141 438 158 680 58 l58 -24 -102 -81 c-56 -44 -134 -98 -173 -119 -65
-34 -78 -37 -151 -37 -68 0 -99 6 -205 43 -102 35 -148 45 -246 54 -112 10
-128 9 -209 -11 -103 -25 -222 -78 -236 -105 -10 -18 -8 -19 33 -11 23 5 70 8
103 7 50 -1 53 0 20 6 l-40 6 45 14 c70 21 159 24 212 8 26 -8 121 -60 210
-115 103 -64 192 -111 243 -128 74 -26 92 -28 235 -28 187 -1 242 12 583 136
265 96 330 107 484 83 71 -11 150 -16 225 -13 127 3 134 -1 69 -47 -61 -42
-99 -48 -209 -33 -53 7 -144 13 -202 13 -96 -1 -116 -5 -231 -43 -124 -42
-162 -63 -143 -82 6 -6 34 -2 74 10 101 31 139 28 297 -24 198 -64 268 -78
408 -78 190 -1 307 36 405 128 27 25 61 69 76 99 16 30 37 56 47 59 12 3 49
-23 120 -85 137 -122 224 -165 365 -180 133 -15 237 -3 490 56 107 25 207 45
223 45 16 0 29 4 29 10 0 16 -99 39 -225 50 -258 24 -358 65 -384 158 -21 72
18 98 144 96 148 -3 274 -36 506 -134 266 -113 402 -149 594 -157 201 -9 324
33 428 144 85 92 141 147 162 161 18 11 16 12 -15 6 -19 -4 -83 -31 -142 -60
-59 -30 -113 -52 -120 -49 -7 3 -33 1 -58 -5 l-45 -9 55 5 c68 6 50 -10 -30
-27 -120 -25 -244 32 -451 209 -93 79 -89 88 31 72 138 -19 228 -58 315 -136
35 -31 37 -35 15 -29 -22 5 -23 4 -7 -5 10 -7 21 -9 24 -6 3 3 14 1 24 -5 30
-16 23 4 -28 73 -108 145 -249 261 -400 330 -78 35 -201 68 -255 68 -43 0 -47
9 -17 36 31 28 184 214 271 329 360 480 581 993 682 1585 44 258 51 365 51
735 -1 303 -4 375 -23 535 -48 386 -121 711 -247 1103 -25 76 -45 139 -45 141
0 1 84 0 188 -2 350 -7 657 61 949 213 288 149 523 374 523 501 0 118 -244
209 -880 328 -254 47 -292 53 -480 70 -158 15 -506 36 -599 36 l-44 0 6 93
c12 181 71 328 241 601 241 385 319 577 348 866 l12 115 96 48 c159 79 297
224 364 385 33 77 62 216 72 333 l7 86 56 18 c137 43 294 143 542 344 l29 24
0 -55 c0 -38 5 -60 15 -68 26 -22 39 3 37 70 -2 59 10 80 23 40 16 -49 45 -4
45 69 0 46 4 54 38 86 43 40 52 43 52 16 0 -39 18 -30 39 18 25 59 26 79 5
109 -24 34 -79 57 -194 80 -342 69 -1023 83 -1555 31 -122 -11 -325 -53 -367
-75 -50 -26 -46 -83 12 -189 15 -27 30 -62 34 -77 4 -16 13 -28 23 -28 13 0
15 8 10 40 -5 43 7 55 19 18 15 -50 94 -123 94 -88 0 6 28 -12 63 -39 206
-161 537 -324 709 -349 l53 -7 13 -50 c19 -71 20 -229 3 -289 -17 -59 -65
-110 -136 -146 -40 -20 -69 -26 -141 -28 l-91 -4 -18 69 c-93 353 -349 663
-753 910 -158 98 -373 199 -677 318 -368 144 -413 166 -511 257 -85 78 -137
220 -114 308 15 57 97 140 195 196 106 61 641 296 1210 532 745 309 768 321
892 466 39 45 57 104 50 165 -6 56 -37 86 -102 102 -27 7 -88 31 -135 55 -47
23 -148 67 -225 97 -122 48 -277 102 -965 338 -80 28 -296 108 -481 179 -344
132 -457 170 -589 196 -91 18 -284 26 -360 15z m134 -2200 c8 -15 22 -88 31
-161 17 -149 35 -226 71 -307 13 -31 23 -58 21 -59 -2 -2 -30 9 -64 25 -70 33
-100 69 -136 161 -37 93 -49 153 -48 244 0 67 3 82 22 102 33 35 84 33 103 -5z
m2941 -1528 c-12 -68 -24 -108 -39 -128 -15 -19 -15 -19 -16 5 0 14 -8 56 -19
93 l-18 67 49 0 49 0 -6 -37z m-2687 -2040 c-1 -5 -33 -53 -69 -108 -37 -55
-78 -121 -93 -148 -32 -56 -35 -56 -129 33 -58 54 -119 142 -107 154 3 2 55
12 115 21 61 9 146 24 190 34 98 23 97 23 93 14z m-498 -95 c1 -33 51 -146 90
-204 19 -27 61 -77 94 -111 32 -35 53 -63 44 -63 -18 0 -116 58 -188 113 -119
89 -214 196 -235 265 -6 22 -5 22 94 22 98 0 101 -1 101 -22z m2127 -470 c-3
-7 -5 -2 -5 12 0 14 2 19 5 13 2 -7 2 -19 0 -25z"/>
<path d="M1868 663 c23 -2 59 -2 80 0 20 2 1 4 -43 4 -44 0 -61 -2 -37 -4z"/>
<path d="M1763 653 c9 -2 23 -2 30 0 6 3 -1 5 -18 5 -16 0 -22 -2 -12 -5z"/>
<path d="M2008 653 c7 -3 16 -2 19 1 4 3 -2 6 -13 5 -11 0 -14 -3 -6 -6z"/>
<path d="M2050 643 c8 -3 22 -11 30 -17 13 -10 13 -9 1 7 -7 9 -21 17 -30 16
-13 0 -14 -1 -1 -6z"/>
<path d="M2097 551 c-4 -17 -3 -21 5 -13 5 5 8 16 6 23 -3 8 -7 3 -11 -10z"/>
<path d="M6000 540 c8 -5 20 -10 25 -10 6 0 3 5 -5 10 -8 5 -19 10 -25 10 -5
0 -3 -5 5 -10z"/>
<path d="M5960 526 c17 -22 99 -76 114 -76 6 0 -9 12 -34 26 -25 14 -56 35
-70 47 -19 17 -21 18 -10 3z"/>
<path d="M2069 503 c-8 -9 -27 -22 -44 -29 -18 -8 -23 -13 -13 -14 16 0 92 59
77 60 -4 0 -13 -7 -20 -17z"/>
<path d="M6434 453 c-20 -32 -55 -78 -78 -103 l-41 -45 43 40 c37 35 129 165
117 165 -3 0 -22 -26 -41 -57z"/>
<path d="M1923 453 c15 -2 37 -2 50 0 12 2 0 4 -28 4 -27 0 -38 -2 -22 -4z"/>
<path d="M6098 443 c7 -3 16 -2 19 1 4 3 -2 6 -13 5 -11 0 -14 -3 -6 -6z"/>
<path d="M1318 403 c6 -2 18 -2 25 0 6 3 1 5 -13 5 -14 0 -19 -2 -12 -5z"/>
<path d="M1440 366 c0 -2 7 -7 16 -10 8 -3 12 -2 9 4 -6 10 -25 14 -25 6z"/>
<path d="M1540 316 c0 -3 27 -24 60 -46 33 -22 60 -38 60 -36 0 3 -27 24 -60
46 -33 22 -60 38 -60 36z"/>
<path d="M5283 303 c9 -2 23 -2 30 0 6 3 -1 5 -18 5 -16 0 -22 -2 -12 -5z"/>
<path d="M6275 284 c-18 -16 -22 -22 -9 -15 18 9 53 42 43 41 -2 -1 -17 -12
-34 -26z"/>
<path d="M5338 293 c7 -3 16 -2 19 1 4 3 -2 6 -13 5 -11 0 -14 -3 -6 -6z"/>
<path d="M5271 276 c10 -9 69 -36 69 -32 0 6 -55 36 -66 36 -4 0 -5 -2 -3 -4z"/>
<path d="M5410 270 c8 -5 20 -10 25 -10 6 0 3 5 -5 10 -8 5 -19 10 -25 10 -5
0 -3 -5 5 -10z"/>
<path d="M5460 250 c8 -5 20 -10 25 -10 6 0 3 5 -5 10 -8 5 -19 10 -25 10 -5
0 -3 -5 5 -10z"/>
<path d="M6195 238 c-22 -12 -65 -30 -95 -40 -38 -13 -44 -17 -20 -13 36 6
160 60 160 69 0 8 1 8 -45 -16z"/>
<path d="M5374 218 l30 -22 -25 -7 c-21 -6 -20 -7 10 -8 34 -1 34 -1 15 20
-10 11 -28 25 -39 30 -11 6 -7 0 9 -13z"/>
<path d="M1674 221 c7 -11 46 -35 46 -28 0 3 -12 12 -26 22 -15 9 -23 12 -20
6z"/>
<path d="M5588 203 c7 -3 16 -2 19 1 4 3 -2 6 -13 5 -11 0 -14 -3 -6 -6z"/>
<path d="M5628 193 c7 -3 16 -2 19 1 4 3 -2 6 -13 5 -11 0 -14 -3 -6 -6z"/>
<path d="M1730 186 c0 -3 9 -10 20 -16 11 -6 20 -8 20 -6 0 3 -9 10 -20 16
-11 6 -20 8 -20 6z"/>
<path d="M5668 183 c6 -2 18 -2 25 0 6 3 1 5 -13 5 -14 0 -19 -2 -12 -5z"/>
<path d="M5318 173 c6 -2 18 -2 25 0 6 3 1 5 -13 5 -14 0 -19 -2 -12 -5z"/>
<path d="M5718 173 c6 -2 18 -2 25 0 6 3 1 5 -13 5 -14 0 -19 -2 -12 -5z"/>
<path d="M6008 173 c6 -2 18 -2 25 0 6 3 1 5 -13 5 -14 0 -19 -2 -12 -5z"/>
<path d="M4048 163 c12 -2 32 -2 45 0 12 2 2 4 -23 4 -25 0 -35 -2 -22 -4z"/>
<path d="M5268 163 c6 -2 18 -2 25 0 6 3 1 5 -13 5 -14 0 -19 -2 -12 -5z"/>
<path d="M5823 163 c31 -2 83 -2 115 0 31 2 5 3 -58 3 -63 0 -89 -1 -57 -3z"/>
<path d="M3998 153 c7 -3 16 -2 19 1 4 3 -2 6 -13 5 -11 0 -14 -3 -6 -6z"/>
<path d="M1807 139 c7 -7 15 -10 18 -7 3 3 -2 9 -12 12 -14 6 -15 5 -6 -5z"/>
<path d="M3940 140 c-18 -12 -2 -12 25 0 13 6 15 9 5 9 -8 0 -22 -4 -30 -9z"/>
<path d="M4158 143 c7 -3 16 -2 19 1 4 3 -2 6 -13 5 -11 0 -14 -3 -6 -6z"/>
<path d="M5198 143 c7 -3 16 -2 19 1 4 3 -2 6 -13 5 -11 0 -14 -3 -6 -6z"/>
<path d="M5120 120 c-8 -5 -10 -10 -5 -10 6 0 17 5 25 10 8 5 11 10 5 10 -5 0
-17 -5 -25 -10z"/>
<path d="M3825 99 c-54 -22 -75 -36 -35 -24 37 12 107 44 95 44 -5 0 -32 -9
-60 -20z"/>
<path d="M4280 90 c19 -11 40 -19 45 -19 6 0 -6 8 -25 19 -19 11 -39 19 -45
19 -5 0 6 -8 25 -19z"/>
<path d="M4965 69 c-60 -21 -105 -38 -98 -38 15 -1 161 45 205 64 60 26 5 13
-107 -26z"/>
<path d="M1920 90 c8 -5 22 -9 30 -9 10 0 8 3 -5 9 -27 12 -43 12 -25 0z"/>
<path d="M2553 93 c26 -2 68 -2 95 0 26 2 4 3 -48 3 -52 0 -74 -1 -47 -3z"/>
<path d="M2448 83 c12 -2 30 -2 40 0 9 3 -1 5 -23 4 -22 0 -30 -2 -17 -4z"/>
<path d="M2723 83 c9 -2 25 -2 35 0 9 3 1 5 -18 5 -19 0 -27 -2 -17 -5z"/>
<path d="M2383 73 c9 -2 23 -2 30 0 6 3 -1 5 -18 5 -16 0 -22 -2 -12 -5z"/>
<path d="M2788 73 c6 -2 18 -2 25 0 6 3 1 5 -13 5 -14 0 -19 -2 -12 -5z"/>
<path d="M2013 63 c9 -2 23 -2 30 0 6 3 -1 5 -18 5 -16 0 -22 -2 -12 -5z"/>
<path d="M2298 63 c12 -2 32 -2 45 0 12 2 2 4 -23 4 -25 0 -35 -2 -22 -4z"/>
<path d="M2853 63 c9 -2 25 -2 35 0 9 3 1 5 -18 5 -19 0 -27 -2 -17 -5z"/>
<path d="M3720 60 c-18 -12 -2 -12 25 0 13 6 15 9 5 9 -8 0 -22 -4 -30 -9z"/>
<path d="M4370 55 c19 -7 44 -14 55 -14 11 0 0 7 -25 15 -57 17 -77 17 -30 -1z"/>
<path d="M2118 53 c28 -2 76 -2 105 0 28 2 5 3 -53 3 -58 0 -81 -1 -52 -3z"/>
<path d="M2918 53 c6 -2 18 -2 25 0 6 3 1 5 -13 5 -14 0 -19 -2 -12 -5z"/>
<path d="M2983 43 c9 -2 25 -2 35 0 9 3 1 5 -18 5 -19 0 -27 -2 -17 -5z"/>
<path d="M3655 40 c-13 -5 -14 -9 -5 -9 8 0 24 4 35 9 13 5 14 9 5 9 -8 0 -24
-4 -35 -9z"/>
<path d="M3048 33 c6 -2 18 -2 25 0 6 3 1 5 -13 5 -14 0 -19 -2 -12 -5z"/>
<path d="M4458 33 c6 -2 18 -2 25 0 6 3 1 5 -13 5 -14 0 -19 -2 -12 -5z"/>
<path d="M3113 23 c15 -2 39 -2 55 0 15 2 2 4 -28 4 -30 0 -43 -2 -27 -4z"/>
<path d="M3578 23 c12 -2 30 -2 40 0 9 3 -1 5 -23 4 -22 0 -30 -2 -17 -4z"/>
<path d="M4518 23 c12 -2 30 -2 40 0 9 3 -1 5 -23 4 -22 0 -30 -2 -17 -4z"/>
<path d="M4803 23 c9 -2 25 -2 35 0 9 3 1 5 -18 5 -19 0 -27 -2 -17 -5z"/>
<path d="M3228 13 c18 -2 45 -2 60 0 15 2 0 4 -33 4 -33 0 -45 -2 -27 -4z"/>
<path d="M3478 13 c12 -2 32 -2 45 0 12 2 2 4 -23 4 -25 0 -35 -2 -22 -4z"/>
<path d="M4633 13 c26 -2 68 -2 95 0 26 2 4 3 -48 3 -52 0 -74 -1 -47 -3z"/>
</g>
</svg>
