<?xml version="1.0" standalone="no"?>
<!DOCTYPE svg PUBLIC "-//W3C//DTD SVG 20010904//EN"
 "http://www.w3.org/TR/2001/REC-SVG-20010904/DTD/svg10.dtd">
<svg version="1.0" xmlns="http://www.w3.org/2000/svg"
 width="739.000000pt" height="1280.000000pt" viewBox="0 0 739.000000 1280.000000"
 preserveAspectRatio="xMidYMid meet">
<g transform="translate(0.000000,1280.000000) scale(0.100000,-0.100000)"
fill="#000000" stroke="none">
<path d="M6468 12673 c-68 -60 -139 -119 -158 -133 -19 -13 -78 -60 -130 -104
-135 -114 -142 -118 -75 -46 33 35 49 57 35 48 -14 -8 -56 -32 -95 -53 -145
-79 -301 -181 -368 -239 -38 -34 -85 -74 -105 -90 l-37 -30 35 39 35 39 -30
-19 c-115 -70 -445 -348 -586 -492 -69 -70 -177 -191 -240 -267 -62 -77 -154
-174 -202 -216 l-88 -77 -82 -6 c-108 -7 -182 -40 -252 -112 -68 -69 -90 -124
-82 -207 5 -52 2 -69 -15 -99 l-20 -37 -92 -6 c-129 -10 -126 -8 -126 -69 l0
-52 -67 -49 c-36 -26 -71 -50 -78 -52 -6 -3 -51 45 -100 106 -67 82 -103 118
-142 140 l-53 30 -93 -11 c-105 -12 -251 -60 -512 -167 -240 -98 -643 -206
-820 -219 -55 -4 -104 -18 -233 -70 -90 -36 -165 -63 -168 -60 -9 9 -36 185
-37 247 -1 36 7 98 17 138 15 61 17 80 7 113 -14 48 -37 55 -121 41 -38 -7
-71 -8 -92 -1 -18 5 -50 9 -70 9 -43 0 -52 9 -39 43 7 17 5 51 -4 103 -8 44
-14 85 -15 92 0 9 -13 12 -42 10 -37 -3 -43 -7 -50 -33 -5 -16 -6 -65 -3 -107
l5 -77 -67 26 c-38 14 -104 30 -148 34 -44 5 -99 11 -122 15 -37 5 -43 3 -59
-21 -17 -26 -17 -30 -1 -89 35 -120 45 -106 -84 -106 -104 0 -116 -2 -140 -23
-33 -28 -49 -92 -42 -172 4 -49 11 -66 36 -92 28 -30 36 -33 92 -33 49 0 66 4
80 20 24 27 35 17 35 -35 0 -59 -20 -197 -31 -211 -5 -6 -55 -14 -111 -17
-157 -10 -180 -16 -176 -41 2 -17 13 -23 65 -31 75 -12 112 -43 144 -122 12
-29 20 -55 18 -57 -2 -2 -122 -8 -266 -13 -182 -7 -268 -14 -278 -23 -21 -18
-20 -93 3 -112 11 -10 59 -19 137 -27 146 -15 165 -19 165 -37 0 -13 15 -19
65 -26 11 -2 29 -20 41 -44 12 -22 268 -384 570 -804 302 -421 560 -780 573
-799 21 -29 27 -59 47 -250 55 -520 115 -1444 135 -2071 13 -418 7 -1953 -10
-2395 -31 -815 -80 -1660 -119 -2050 l-7 -70 -70 -11 c-38 -5 -77 -14 -86 -20
-9 -5 -58 -52 -108 -105 l-91 -97 0 -73 c0 -41 4 -79 8 -86 4 -7 116 -57 247
-112 269 -111 674 -285 900 -386 237 -106 191 -100 450 -55 124 21 230 42 235
45 6 3 10 49 10 101 l0 96 -110 132 c-105 126 -112 132 -174 156 -73 27 -67
15 -87 168 -7 55 -8 96 -3 101 13 12 679 132 1221 220 l472 77 18 -22 c11 -13
74 -41 168 -74 227 -80 718 -260 1015 -372 l265 -100 209 36 c114 20 212 39
217 42 5 3 9 46 9 95 l0 91 -106 123 c-97 113 -111 126 -162 145 -88 31 -86
28 -99 126 -138 1014 -202 2202 -190 3514 8 816 37 1383 98 1890 17 140 33
259 36 264 3 5 24 -12 47 -38 l41 -47 108 10 c60 6 112 13 118 16 5 4 9 15 9
26 0 39 19 59 55 59 28 0 37 5 50 30 10 20 23 30 39 30 12 0 213 16 446 35
233 19 427 35 431 35 11 0 39 54 39 73 0 8 -24 44 -54 81 l-55 66 23 53 23 52
58 5 c99 9 107 55 25 150 l-48 55 0 75 c0 52 -6 90 -20 125 -11 28 -27 87 -35
132 -9 46 -19 89 -24 97 -11 19 -1791 2114 -1803 2121 -5 3 -138 30 -297 61
-158 30 -344 68 -413 84 -69 17 -135 32 -147 35 -13 3 -30 19 -39 36 -9 19
-32 38 -59 50 -42 19 -43 20 -34 52 5 17 9 33 9 34 0 2 23 14 52 29 108 55
178 158 178 264 0 55 -38 137 -85 185 l-33 32 86 85 c99 97 180 155 290 205
l77 35 -30 13 c-30 12 -30 12 30 19 77 10 131 27 280 88 149 62 143 58 109 75
-28 13 -27 13 25 8 42 -3 62 0 95 18 l41 22 -57 5 c-79 7 -84 20 -7 20 87 0
131 9 160 31 24 18 24 18 -51 14 -85 -5 -67 3 64 29 43 9 92 25 110 36 l31 21
-50 -6 c-79 -9 -32 10 70 29 78 14 106 26 208 84 199 114 277 181 277 240 0
11 -7 22 -15 25 -13 6 -174 -26 -295 -58 -61 -16 -198 -31 -189 -21 3 4 46 13
95 22 90 16 166 42 178 63 9 14 1 14 -58 -4 -101 -31 -97 -12 4 20 68 22 117
45 140 64 l35 30 -49 -14 c-69 -20 -46 -4 49 34 89 35 165 88 301 209 89 79
93 83 123 168 35 96 38 157 9 162 -10 2 -66 -40 -140 -105z m-623 -703 c-3 -5
-11 -10 -16 -10 -6 0 -7 5 -4 10 3 6 11 10 16 10 6 0 7 -4 4 -10z m-88 -6 c-3
-3 -12 -4 -19 -1 -8 3 -5 6 6 6 11 1 17 -2 13 -5z m18 -44 c-7 -11 -65 -43
-65 -36 0 4 62 45 68 46 2 0 0 -5 -3 -10z m-415 -200 c0 -5 -5 -10 -11 -10 -5
0 -7 5 -4 10 3 6 8 10 11 10 2 0 4 -4 4 -10z m-75 -25 c-16 -8 -39 -14 -50
-14 -15 0 -13 3 10 14 17 7 39 13 50 13 15 0 13 -3 -10 -13z m-1195 -1115 c0
-5 -5 -10 -11 -10 -5 0 -7 5 -4 10 3 6 8 10 11 10 2 0 4 -4 4 -10z m560 -4365
c0 -3 -24 -54 -54 -113 -69 -138 -194 -480 -236 -647 -18 -71 -36 -134 -40
-138 -4 -5 -21 45 -39 110 -43 161 -170 484 -242 617 -33 59 -58 111 -55 113
5 5 560 60 629 62 20 0 37 -1 37 -4z m-1000 -91 c0 -3 -25 -58 -56 -122 -80
-169 -195 -483 -240 -659 -21 -84 -42 -149 -46 -145 -3 4 -23 66 -42 137 -45
162 -168 467 -247 610 -32 60 -59 113 -59 117 0 4 10 8 23 9 12 0 153 13 312
28 317 31 355 34 355 25z m1198 -116 c17 -29 58 -125 92 -213 l62 -160 -6
-690 c-4 -379 -9 -719 -11 -755 -3 -36 -9 -204 -15 -375 -19 -552 -81 -1541
-98 -1556 -4 -3 -93 -21 -199 -38 -144 -25 -195 -30 -205 -22 -7 7 -21 17 -30
24 -16 11 -17 17 -3 72 27 118 31 218 18 447 -7 123 -19 435 -28 694 -8 259
-18 486 -21 503 -6 28 -2 37 25 61 34 32 41 73 14 88 -15 9 -16 38 -10 333 6
304 9 337 41 539 41 258 112 533 196 760 52 141 137 340 146 340 1 0 16 -24
32 -52z m-2228 27 c0 -2 -5 -16 -12 -30 -12 -27 -31 -35 -23 -10 3 8 7 22 10
30 4 13 25 22 25 10z m1252 -137 c68 -133 159 -380 209 -564 87 -320 129 -675
129 -1084 0 -135 -1 -147 -21 -163 -16 -14 -19 -25 -14 -45 6 -25 31 -51 49
-52 5 0 6 -35 2 -77 -3 -43 -13 -260 -21 -483 -8 -223 -22 -515 -31 -650 -16
-254 -14 -355 13 -473 l15 -67 -31 -29 c-19 -18 -31 -39 -31 -55 0 -14 -2 -26
-5 -26 -3 0 -142 -20 -308 -45 -167 -25 -311 -45 -320 -45 -9 0 -25 8 -36 19
-10 10 -24 20 -31 23 -10 3 -10 19 3 78 27 125 29 223 13 495 -9 143 -23 451
-31 685 -8 234 -18 446 -21 471 -6 43 -4 47 25 68 37 27 43 74 11 91 -18 10
-20 21 -20 123 0 572 84 1074 259 1545 70 190 134 332 149 332 4 0 24 -33 44
-72z m-1029 -80 c61 -110 174 -407 226 -595 90 -324 131 -654 131 -1069 0
-153 -2 -183 -15 -188 -25 -9 -18 -55 15 -84 l29 -27 -9 -175 c-5 -96 -14
-319 -20 -495 -6 -176 -17 -429 -25 -563 -15 -242 -11 -354 15 -457 14 -60 12
-83 -8 -90 -23 -7 -44 -49 -36 -70 4 -8 5 -15 3 -16 -64 -14 -512 -63 -516
-56 -16 27 -62 950 -84 1685 -16 542 -7 1615 14 1687 47 161 218 575 238 575
4 0 23 -28 42 -62z"/>
</g>
</svg>
