<?xml version="1.0" standalone="no"?>
<!DOCTYPE svg PUBLIC "-//W3C//DTD SVG 20010904//EN"
 "http://www.w3.org/TR/2001/REC-SVG-20010904/DTD/svg10.dtd">
<svg version="1.0" xmlns="http://www.w3.org/2000/svg"
 width="1280.000000pt" height="1040.000000pt" viewBox="0 0 1280.000000 1040.000000"
 preserveAspectRatio="xMidYMid meet">
<g transform="translate(0.000000,1040.000000) scale(0.100000,-0.100000)"
fill="#000000" stroke="none">
<path d="M3240 10372 c-116 -31 -185 -63 -275 -127 -71 -50 -170 -152 -209
-213 -47 -75 -152 -293 -184 -382 -64 -179 -78 -212 -95 -222 -11 -6 -40 -6
-79 0 -60 9 -63 8 -82 -16 -12 -14 -37 -42 -57 -61 -19 -20 -54 -61 -76 -91
-43 -58 -87 -102 -166 -164 -27 -22 -59 -50 -72 -63 -25 -28 -80 -40 -290 -68
-66 -8 -134 -20 -151 -26 -20 -6 -69 -50 -132 -118 -88 -94 -111 -113 -179
-146 -43 -20 -104 -41 -136 -45 -41 -6 -70 -18 -101 -42 -24 -18 -86 -65 -138
-104 -104 -79 -194 -184 -270 -317 -58 -100 -249 -529 -273 -612 -9 -32 -27
-80 -40 -105 -12 -25 -42 -94 -65 -155 -24 -60 -60 -132 -80 -160 -86 -114
-85 -112 -82 -365 4 -258 2 -250 99 -354 l65 -68 -5 -167 c-6 -224 -26 -524
-39 -591 -5 -30 -9 -73 -8 -95 6 -105 3 -268 -9 -445 -10 -158 -10 -214 0
-294 12 -96 12 -102 -10 -160 -65 -171 -65 -169 -67 -476 -1 -157 -5 -328 -9
-380 -13 -167 28 -313 146 -517 69 -119 91 -148 216 -281 60 -63 113 -124 119
-134 7 -13 7 -41 1 -86 -14 -101 -3 -318 18 -366 14 -34 15 -48 5 -95 -13 -63
-1 -201 20 -226 7 -8 46 -36 86 -62 l74 -46 0 -111 c-1 -160 -16 -306 -34
-343 -11 -19 -19 -69 -22 -130 -6 -95 -5 -99 21 -138 39 -55 55 -98 55 -141 0
-32 8 -44 58 -91 31 -29 84 -66 117 -82 33 -16 76 -41 95 -55 48 -37 147 -65
261 -76 52 -5 113 -12 135 -15 23 -4 67 0 107 9 38 9 87 16 110 16 46 0 121
18 179 43 60 25 60 45 2 212 -23 65 -57 118 -92 141 -31 21 -53 26 -188 39
-52 6 -63 10 -73 31 -6 13 -22 30 -36 36 -24 11 -26 15 -19 52 8 51 21 76 39
76 24 0 75 50 83 83 5 20 23 42 53 62 29 20 54 50 72 86 37 72 79 106 115 92
21 -7 35 -5 62 8 112 55 133 57 180 14 20 -18 42 -24 105 -30 63 -6 86 -12
108 -31 16 -13 32 -24 35 -24 4 0 46 -6 95 -14 74 -12 93 -20 127 -49 43 -36
86 -52 132 -48 30 2 117 -40 144 -70 24 -27 12 -73 -47 -170 -66 -109 -132
-241 -152 -304 -30 -92 -57 -252 -57 -333 0 -45 -6 -98 -15 -122 -8 -24 -15
-77 -15 -120 l0 -78 46 -41 c52 -46 148 -81 219 -81 28 0 62 -10 100 -30 74
-39 152 -40 312 -4 70 16 130 24 151 20 47 -7 181 -71 212 -101 40 -39 109
-63 210 -74 52 -6 127 -16 165 -22 181 -26 905 -19 1084 11 76 12 160 48 196
84 29 29 33 79 10 110 -8 11 -15 34 -15 50 -2 81 -76 207 -138 233 -20 9 -82
23 -137 33 -66 11 -136 32 -205 62 -113 48 -196 95 -185 106 4 4 160 7 348 7
420 0 438 3 629 111 125 70 148 99 192 238 79 249 89 331 56 461 -35 136 -76
196 -351 511 -284 325 -605 625 -928 870 -128 97 -146 114 -149 142 -3 26 65
329 113 507 7 28 25 104 40 170 34 149 51 215 114 430 27 94 59 217 71 275 23
105 43 183 76 294 16 53 17 73 6 230 -21 285 -32 315 -167 451 -75 74 -178
134 -265 154 -75 17 -245 13 -353 -9 -55 -11 -102 -22 -106 -25 -4 -2 -27 -8
-50 -14 -66 -15 -63 8 14 91 143 155 223 271 354 518 51 97 89 154 134 201 34
37 75 86 90 109 27 41 30 42 70 38 23 -3 107 -27 187 -55 80 -27 181 -61 225
-75 44 -14 118 -40 165 -56 47 -17 132 -43 189 -57 57 -14 130 -37 162 -50 32
-13 82 -28 111 -34 29 -7 79 -21 111 -33 49 -18 70 -20 145 -14 48 4 143 11
212 15 69 5 143 14 165 21 22 7 117 50 211 96 l171 83 143 145 c78 80 151 160
163 178 34 57 188 202 290 272 106 73 134 105 162 180 9 26 37 70 61 97 56 63
68 87 89 179 10 41 20 88 24 105 7 29 9 30 97 42 191 27 253 33 363 33 108 0
115 1 137 25 13 14 34 25 48 25 37 0 68 14 106 50 19 17 60 45 92 61 l58 29
62 -20 c34 -11 78 -20 99 -20 35 0 44 7 109 81 39 44 76 91 82 104 14 32 47
42 148 49 114 7 170 28 225 84 25 25 45 49 45 54 0 13 312 9 1300 -17 514 -13
1151 -29 1415 -35 264 -6 515 -15 558 -19 91 -8 97 -4 97 73 l0 46 174 0 c195
0 186 -3 186 75 0 49 -1 49 -92 60 -52 6 -59 10 -78 42 -17 29 -23 33 -35 23
-8 -7 -15 -18 -15 -26 0 -34 -33 -36 -473 -24 -238 6 -637 17 -887 25 -1117
36 -1849 56 -2665 75 -626 14 -642 15 -663 32 -14 12 -69 13 -372 7 -340 -7
-357 -7 -393 12 -54 28 -180 27 -204 -1 -16 -19 -30 -20 -185 -20 -159 0 -169
1 -190 22 -18 18 -38 23 -117 29 -164 12 -934 33 -963 26 -19 -5 -28 -14 -28
-28 0 -18 -4 -20 -30 -14 -37 8 -124 -11 -141 -31 -6 -8 -14 -28 -18 -46 -5
-26 -16 -37 -56 -56 -91 -46 -130 -43 -271 24 -77 36 -112 32 -175 -20 -74
-60 -191 -136 -201 -130 -4 3 -8 13 -8 23 0 9 -16 78 -35 152 -19 74 -35 139
-35 145 0 8 33 13 93 16 141 6 246 60 267 137 12 46 -18 116 -83 189 -25 28
-51 68 -58 89 -6 21 -15 145 -19 278 -13 379 -48 493 -217 702 -133 165 -294
293 -479 379 -190 90 -286 114 -489 120 -130 4 -147 3 -245 -24z m3460 -2561
c0 -15 -48 -49 -83 -60 -18 -5 -77 -17 -132 -26 -71 -12 -116 -26 -154 -47
-30 -16 -98 -41 -150 -53 -53 -13 -138 -38 -189 -56 -104 -35 -127 -31 -95 17
10 15 32 55 48 88 31 62 41 71 140 113 22 9 51 20 65 24 39 10 550 10 550 0z
m-809 -43 c31 -51 20 -121 -26 -168 l-35 -35 -108 0 c-121 0 -160 11 -185 54
-33 57 -32 57 151 35 47 -5 57 -3 94 22 41 28 52 45 62 97 8 36 22 34 47 -5z
m-443 -65 c12 -15 39 -55 59 -87 35 -56 35 -60 18 -72 -10 -8 -38 -14 -61 -14
-23 0 -58 -7 -77 -15 -70 -29 -157 -12 -157 30 0 13 7 28 15 35 8 7 36 46 62
87 47 74 48 75 83 69 21 -3 44 -16 58 -33z"/>
</g>
</svg>
