<svg width="1920" height="1080" enable-background="new" inkscape:export-filename="C:\Users\Dale\Documents\Websites\www.cjmoseley.dev.cc\wp-content\plugins\t13ne\images\genre\timeless.png" inkscape:export-xdpi="96" inkscape:export-ydpi="96" inkscape:version="0.92.4 (5da689c313, 2019-01-14)" preserveAspectRatio="none" sodipodi:docname="core.svg" version="1.1" viewBox="0 0 508 285.75" xmlns="http://www.w3.org/2000/svg" xmlns:inkscape="http://www.inkscape.org/namespaces/inkscape" xmlns:sodipodi="http://sodipodi.sourceforge.net/DTD/sodipodi-0.dtd" xmlns:xlink="http://www.w3.org/1999/xlink">
 <sodipodi:namedview bordercolor="#666666" borderopacity="1" gridtolerance="10" guidetolerance="10" inkscape:current-layer="layer5" inkscape:cx="881.99329" inkscape:cy="617.2787" inkscape:pagecheckerboard="true" inkscape:pageopacity="0" inkscape:pageshadow="2" inkscape:window-height="837" inkscape:window-maximized="1" inkscape:window-width="1440" inkscape:window-x="-8" inkscape:window-y="-8" inkscape:zoom="0.37790086" objecttolerance="10" pagecolor="#ffffff" showgrid="false"/>
 <defs>
  <linearGradient id="t13ne-a" inkscape:collect="always">
   <stop stop-color="#acf" offset="0"/>
   <stop stop-color="#fff" stop-opacity="0" offset="1"/>
  </linearGradient>
  <linearGradient id="t13nea">
   <stop stop-color="#fff6d5" offset="0"/>
   <stop stop-color="#250" offset="1"/>
  </linearGradient>
  <linearGradient id="t13nef" x1="228.7" x2="234.66" y1="309.59" y2="149.43" gradientTransform="translate(1.0182 26.664)" gradientUnits="userSpaceOnUse" xlink:href="#t13nea"/>
  <linearGradient id="t13nee" x1="94.607" x2="89.392" y1="264.89" y2="89.087" gradientUnits="userSpaceOnUse">
   <stop stop-color="#00112b" offset="0"/>
   <stop stop-color="#d5e5ff" offset="1"/>
  </linearGradient>
  <filter id="t13nel" color-interpolation-filters="sRGB">
   <feColorMatrix result="result1" values="0 0 0 0 0 0 0 0 0 0 0 0 0 0 0 0.21 0.72 0.07 0 0 "/>
   <feColorMatrix result="result9" values="1 0 0 0 0 0 1 0 0 0 0 0 1 0 0 0 0 0 2 0 "/>
   <feComposite in="SourceGraphic" in2="result9" operator="in" result="result4"/>
   <feFlood flood-color="rgb(0,0,0)" result="result2"/>
   <feComposite in2="result9" operator="in" result="result10"/>
   <feComposite in2="result4" operator="atop"/>
   <feGaussianBlur result="result8" stdDeviation="3"/>
   <feOffset dx="3" dy="3" in="result8" result="result3"/>
   <feFlood flood-color="rgb(219,173,62)" result="result5"/>
   <feMerge result="result6">
    <feMergeNode in="result5"/>
    <feMergeNode in="result3"/>
    <feMergeNode in="result4"/>
   </feMerge>
   <feComposite in2="SourceGraphic" operator="in" result="result7"/>
  </filter>
  <filter id="t13nek" color-interpolation-filters="sRGB">
   <feColorMatrix result="result1" values="0 0 0 0 0 0 0 0 0 0 0 0 0 0 0 0.21 0.72 0.07 0 0 "/>
   <feColorMatrix result="result9" values="1 0 0 0 0 0 1 0 0 0 0 0 1 0 0 0 0 0 2 0 "/>
   <feComposite in="SourceGraphic" in2="result9" operator="in" result="result4"/>
   <feFlood flood-color="rgb(0,0,0)" result="result2"/>
   <feComposite in2="result9" operator="in" result="result10"/>
   <feComposite in2="result4" operator="atop"/>
   <feGaussianBlur result="result8" stdDeviation="3"/>
   <feOffset dx="3" dy="3" in="result8" result="result3"/>
   <feFlood flood-color="rgb(219,173,62)" result="result5"/>
   <feMerge result="result6">
    <feMergeNode in="result5"/>
    <feMergeNode in="result3"/>
    <feMergeNode in="result4"/>
   </feMerge>
   <feComposite in2="SourceGraphic" operator="in" result="fbSourceGraphic"/>
   <feColorMatrix in="fbSourceGraphic" result="fbSourceGraphicAlpha" values="0 0 0 -1 0 0 0 0 -1 0 0 0 0 -1 0 0 0 0 1 0"/>
   <feColorMatrix in="fbSourceGraphic" result="result1" values="0 0 0 0 0 0 0 0 0 0 0 0 0 0 0 0.21 0.72 0.07 0 0 "/>
   <feColorMatrix result="result9" values="1 0 0 0 0 0 1 0 0 0 0 0 1 0 0 0 0 0 2 0 "/>
   <feComposite in="fbSourceGraphic" in2="result9" operator="in" result="result4"/>
   <feFlood flood-color="rgb(0,0,0)" result="result2"/>
   <feComposite in2="result9" operator="in" result="result10"/>
   <feComposite in2="result4" operator="atop"/>
   <feGaussianBlur result="result8" stdDeviation="3"/>
   <feOffset dx="3" dy="3" in="result8" result="result3"/>
   <feFlood flood-color="rgb(219,173,62)" result="result5"/>
   <feMerge result="result6">
    <feMergeNode in="result5"/>
    <feMergeNode in="result3"/>
    <feMergeNode in="result4"/>
   </feMerge>
   <feComposite in2="fbSourceGraphic" operator="in" result="result7"/>
  </filter>
  <linearGradient id="t13nec" x1="397.8" x2="356.82" y1="311.08" y2="142.72" gradientUnits="userSpaceOnUse" xlink:href="#t13nea"/>
  <linearGradient id="t13neb" x1="317.34" x2="306.17" y1="223.92" y2="92.811" gradientUnits="userSpaceOnUse">
   <stop stop-color="#dbdee3" offset="0"/>
   <stop stop-color="#57657a" offset="1"/>
  </linearGradient>
  <filter id="t13nei" color-interpolation-filters="sRGB">
   <feColorMatrix result="result1" values="0 0 0 0 0 0 0 0 0 0 0 0 0 0 0 0.21 0.72 0.07 0 0 "/>
   <feColorMatrix result="result9" values="1 0 0 0 0 0 1 0 0 0 0 0 1 0 0 0 0 0 2 0 "/>
   <feComposite in="SourceGraphic" in2="result9" operator="in" result="result4"/>
   <feFlood flood-color="rgb(0,0,0)" result="result2"/>
   <feComposite in2="result9" operator="in" result="result10"/>
   <feComposite in2="result4" operator="atop"/>
   <feGaussianBlur result="result8" stdDeviation="3"/>
   <feOffset dx="3" dy="3" in="result8" result="result3"/>
   <feFlood flood-color="rgb(219,173,62)" result="result5"/>
   <feMerge result="result6">
    <feMergeNode in="result5"/>
    <feMergeNode in="result3"/>
    <feMergeNode in="result4"/>
   </feMerge>
   <feComposite in2="SourceGraphic" operator="in" result="result7"/>
  </filter>
  <filter id="t13neh" color-interpolation-filters="sRGB">
   <feColorMatrix result="result1" values="0 0 0 0 0 0 0 0 0 0 0 0 0 0 0 0.21 0.72 0.07 0 0 "/>
   <feColorMatrix result="result9" values="1 0 0 0 0 0 1 0 0 0 0 0 1 0 0 0 0 0 2 0 "/>
   <feComposite in="SourceGraphic" in2="result9" operator="in" result="result4"/>
   <feFlood flood-color="rgb(0,0,0)" result="result2"/>
   <feComposite in2="result9" operator="in" result="result10"/>
   <feComposite in2="result4" operator="atop"/>
   <feGaussianBlur result="result8" stdDeviation="3"/>
   <feOffset dx="3" dy="3" in="result8" result="result3"/>
   <feFlood flood-color="rgb(219,173,62)" result="result5"/>
   <feMerge result="result6">
    <feMergeNode in="result5"/>
    <feMergeNode in="result3"/>
    <feMergeNode in="result4"/>
   </feMerge>
   <feComposite in2="SourceGraphic" operator="in" result="result7"/>
  </filter>
  <linearGradient id="t13ne-d" x1="235.25" x2="237.35" y1="229.04" y2="9.895" gradientUnits="userSpaceOnUse" xlink:href="#t13ne-a" inkscape:collect="always"/>
  <linearGradient id="t13ne-c" x1="235.25" x2="237.35" y1="229.04" y2="9.895" gradientTransform="matrix(.99966 0 0 1.2826 .087047 .65477)" gradientUnits="userSpaceOnUse" xlink:href="#t13ne-a" inkscape:collect="always"/>
  <linearGradient id="t13ne-b" x1="293.87" x2="294.28" y1="210.46" y2="69.033" gradientUnits="userSpaceOnUse" inkscape:collect="always">
   <stop stop-color="#fff6ff" offset="0"/>
   <stop stop-color="#7b848f" offset="1"/>
  </linearGradient>
  <filter id="t13ne-e" color-interpolation-filters="sRGB" inkscape:label="Drop Shadow" inkscape:menu="Shadows and Glows" inkscape:menu-tooltip="Cut out, add inner shadow and colorize some parts of an image">
   <feColorMatrix result="result1" values="0 0 0 0 0 0 0 0 0 0 0 0 0 0 0 0.21 0.72 0.07 0 0 "/>
   <feColorMatrix result="result9" values="1 0 0 0 0 0 1 0 0 0 0 0 1 0 0 0 0 0 2 0 "/>
   <feComposite in="SourceGraphic" in2="result9" operator="in" result="result4"/>
   <feFlood flood-color="rgb(0,0,0)" result="result2"/>
   <feComposite in2="result9" operator="in" result="result10"/>
   <feComposite in2="result4" operator="atop"/>
   <feGaussianBlur result="result8" stdDeviation="3"/>
   <feOffset dx="3" dy="3" in="result8" result="result3"/>
   <feFlood flood-color="rgb(219,173,62)" result="result5"/>
   <feMerge result="result6">
    <feMergeNode in="result5"/>
    <feMergeNode in="result3"/>
    <feMergeNode in="result4"/>
   </feMerge>
   <feComposite in2="SourceGraphic" operator="in" result="fbSourceGraphic"/>
   <feColorMatrix in="fbSourceGraphic" result="fbSourceGraphicAlpha" values="0 0 0 -1 0 0 0 0 -1 0 0 0 0 -1 0 0 0 0 1 0"/>
   <feFlood flood-color="rgb(0,0,0)" flood-opacity=".49804" in="fbSourceGraphic" result="flood"/>
   <feComposite in="flood" in2="fbSourceGraphic" operator="out" result="composite1"/>
   <feGaussianBlur in="composite1" result="blur" stdDeviation="15.6"/>
   <feOffset dx="2.1" dy="2.9" result="offset"/>
   <feComposite in="offset" in2="fbSourceGraphic" operator="atop" result="composite2"/>
  </filter>
 </defs>
 <g inkscape:groupmode="layer" inkscape:label="Layer 1">
  <path d="m-41.308 136.62c19.616-6.4905 39.75-12.869 60.251-16.479 3.0757-7.5412 7.3812-19.411 27.823-10.645 13.808-3.667 25.226-4.9247 35.15-12.084 11.034-0.62936 18.17-6.1159 29.898-9.0672 14.264-14.331 24.339 16.653 37.746 16.915 5.836 25.282 37.224-1.5311 51.439 14.903 21.136-1.6391 36.422 18.354 57.245 17.148 23.041 0.97093 42.904 17.024 67.505 11.344 20.393 2.5912 30.848-21.415 50.927-13.436 26.539-7.4293 50.132 10.284 73.96-3.2039 18.796-2.4074 33.025-16.777 53.101-17.929 13.272-13.068 52.629-15.857 42.374 12.031 7e-3 21.291-4.4102 42.068-3.5874 63.424 0.23014 26.714 0.11546 53.527-1.3755 80.136-24.594 3.6297-49.271 7.1531-74.262 5.4925-147.69 0.18034-295.39 0.0258-443.08 0.0773-22.18-3.5279-45.342-7.1204-66.773-10.694-4.4353-19.732-0.34768-41.272-2.1311-61.701-0.20822-21.801-1.065-43.633-0.09226-65.42l1.2242-1.0729z" fill="url(#t13ne-b)" filter="url(#t13ne-e)" stroke="#000" stroke-dasharray="0, 2.91041667000000004" stroke-width=".26458" inkscape:connector-curvature="0" sodipodi:nodetypes="cccccccccccccccccccccc"/>
 </g>
 <g inkscape:groupmode="layer" inkscape:label="Layer 2">
  <rect x="-1.4003" y="-2.0073" width="511.1" height="247.15" fill="url(#t13ne-d)" opacity=".683" stroke="#fff" stroke-dasharray="0, 14.55299982" stroke-width="1.323"/>
  <g stroke="#000" stroke-dasharray="0, 2.91041649" stroke-width=".26458">
   <path d="m-60.34 334.17c2.2348 0.74493 4.4481 1.5579 6.7044 2.2348 0.46606 0.13981 1.709 0 2.2348 0h9.6842c0.33549 0 2.0081 0.11335 2.2348 0 0.31409-0.15705 0.43084-0.5879 0.74494-0.74493 0.22671-0.11335 1.8993 0 2.2348 0h5.2146c0.33549 0 2.0081 0.11335 2.2348 0 0.31409-0.15706 0.41179-0.63389 0.74494-0.74494 0.42377-0.14126 3.0231 0 3.7247 0h5.9595c0.64555 0 2.5482 0.14383 2.9797 0 0.52675-0.17557 0.96312-0.56935 1.4899-0.74493 0.44692-0.14899 3.1303 0 3.7247 0h8.1943c0.5144 0 2.7533 0.11324 2.9797 0 0.31409-0.15706 0.41179-0.63389 0.74494-0.74494 0.70671-0.23558 1.4899 0 2.2348 0h5.2146c0.49662 0 1.0081 0.12044 1.4899 0 0.53866-0.13467 0.96312-0.56935 1.4899-0.74496 0.48176-0.16057 2.9113 0 3.7247 0h27.562c1.683 0-0.33315-0.11104 2.2348 0.74496 0.28449 0.0948 2.6027 0.0754 2.9797 0 1.0039-0.20079 1.961-0.64307 2.9797-0.74496 1.4825-0.14824 2.9797 0 4.4696 0h8.9393c0.49662 0 1.0081-0.12043 1.4899 0 3.8681 0.96706-0.79525 0.74496 2.9797 0.74496h18.623c1.2416 0 2.4893-0.12356 3.7247 0 1.2599 0.12597 2.4585 0.74494 3.7247 0.74494 0.55524 0 0.94541-0.63606 1.4899-0.74494 1.2175-0.24349 2.4831 0 3.7247 0h9.6842c0.74493 0 1.5043 0.14608 2.2348 0 0.54446-0.1089 0.94541-0.63605 1.4899-0.74496 0.73047-0.14607 1.4899 0 2.2348 0h6.7044c0.74494 0 1.5 0.12248 2.2348 0 0.77455-0.12909 1.4603-0.61584 2.2348-0.74493 0.7348-0.12245 1.4899 0 2.2348 0h4.4696c0.74494 0 1.5 0.12247 2.2348 0 0.77455-0.12909 1.4603-0.61584 2.2348-0.74494 0.7348-0.12244 1.4899 0 2.2348 0h2.2348c0.74494 0 1.4974 0.10536 2.2348 0 1.0135-0.14478 1.9662-0.60012 2.9798-0.74493 1.4749-0.21069 2.9889 0.16455 4.4696 0 16.379-1.8199-5.9479 0.27789 8.1943-1.4899 1.232-0.15399 2.5072 0.2435 3.7247 0 0.76998-0.15399 1.4648-0.59094 2.2348-0.74493 0.48699-0.0974 0.99325 0 1.4899 0h2.2348c0.74494 0 1.5043 0.1461 2.2348 0 0.54446-0.1089 0.94541-0.63606 1.4899-0.74494 0.73047-0.1461 1.4899 0 2.2348 0h6.7044c0.74494 0 1.5 0.12248 2.2348 0 0.77455-0.12909 1.4603-0.61584 2.2348-0.74493 0.7348-0.12248 1.4899 0 2.2348 0h78.219c0.74494 0 1.5 0.12245 2.2348 0 0.77454-0.12909 1.4603-0.61585 2.2348-0.74494 0.73481-0.12247 1.4899 0 2.2348 0h46.186c0.74493 0 1.5-0.12247 2.2348 0 0.77454 0.12909 1.4603 0.61585 2.2348 0.74494 1.0002 0.16669 4.8297 0 5.9595 0 0.74494 0 1.5-0.12248 2.2348 0 0.77454 0.12909 1.4556 0.64754 2.2348 0.74493 1.232 0.15399 2.4927-0.15398 3.7247 0 0.77917 0.0974 1.4544 0.65823 2.2348 0.74494 9.8695 0 0.62405-0.47115 6.7044 0.74493 0.48696 0.0974 0.99324 0 1.4899 0h2.2348c0.74493 0 1.5043-0.1461 2.2348 0 0.54446 0.1089 0.94541 0.63606 1.4899 0.74494 1.713 0.34261 4.2065-0.29216 5.9595 0 0.77457 0.12909 1.4648 0.59094 2.2348 0.74493 1.1938 0.23876 2.5309-0.23876 3.7247 0 0.54446 0.1089 0.94541 0.63606 1.4899 0.74493 1.9101 0.38204 4.0494-0.382 5.9595 0 0.54446 0.10891 0.94541 0.63606 1.4899 0.74494 0.72298 0.14459 5.0756 0 5.9595 0 0.49663 0 1.0029-0.0974 1.4899 0 0.76999 0.15401 1.4648 0.59095 2.2348 0.74493 0.48699 0.0974 0.99324 0 1.4899 0h5.2146c0.74494 0 1.5043-0.14607 2.2348 0 0.54445 0.10891 0.95123 0.61029 1.4899 0.74496 0.48178 0.12044 0.99325 0 1.4899 0h5.2145c0.99325 0 2.0058-0.19481 2.9798 0 0.76997 0.15399 1.4648 0.59092 2.2348 0.74494 0.97395 0.19479 1.9865 0 2.9797 0h4.4696c0.49662 0 1.0081-0.12047 1.4899 0 0.53866 0.13465 0.9512 0.61026 1.4899 0.74493 0.48181 0.12044 0.99325 0 1.4899 0h7.4494c0.49663 0 1.0081-0.12046 1.4899 0 0.53867 0.13468 0.96314 0.56936 1.4899 0.74494 0.23556 0.0785 0.49662 0 0.74493 0h23.093c0.62381 0 3.1582-0.14163 3.7247 0 0.53866 0.13467 0.94541 0.63603 1.4899 0.74493 0.97787 0.19558 3.2852 0 4.4696 0h20.113c0.72051 0 4.2487 0.11047 4.4696 0 0.31411-0.15705 0.40425-0.65976 0.74493-0.74493 0.65768-0.16441 3.4386 0 4.4696 0h11.174c0.24831 0 0.52284 0.11104 0.74493 0 1.233-0.61653 0.20013-1.4232 2.2348-0.74494 0.33314 0.11105 0.39375 0.74494 0.74493 0.74494 0.55523 0 0.95121-0.61026 1.4899-0.74494 0.66506-0.16626 2.8624 0 3.7247 0h17.134c0.24831 0 0.56935 0.17558 0.74493 0 0.17561-0.17557-0.17558-0.56935 0-0.74493 0.0338-0.0338 3.3735 0 3.7247 0h17.878c0.27355 0 2.9498 0.03 2.9797 0 0.17557-0.17561-0.17558-0.56936 0-0.74494 0.17557-0.1756 0.49662 0 0.74493 0h5.2146c0.24831 0 0.74493-0.24831 0.74493 0 0 0.24832-0.56936 0.17558-0.74493 0-0.35116-0.35118 0.35115-1.1387 0-1.4899-0.17558-0.17558-0.56936 0.1756-0.74494 0-0.35118-0.35116 0.35116-1.1387 0-1.4899-0.17558-0.17558-0.56935 0.17558-0.74493 0s0-0.49662 0-0.74493c0-0.18066-0.0241-2.2109 0-2.2348 0.17558-0.17557 0.56935 0.17558 0.74493 0 0.20384-0.20383-0.20206-2.5756 0-2.9797 0.15703-0.31412 0.58788-0.43085 0.74494-0.74497 0.14769-0.29535-0.1523-2.0825 0-2.2348 0.17557-0.17558 0.56935 0.17558 0.74493 0 0.26149-0.26149-0.25728-3.2101 0-3.7247 0.15706-0.31409 0.58791-0.43085 0.74494-0.74493 0.0196-0.039 0.0196-2.1959 0-2.2348-0.15703-0.31409-0.58788-0.43083-0.74494-0.74494-0.2341-0.4682 0.2341-2.5115 0-2.9797-0.15706-0.31408-0.58788-0.43084-0.74493-0.74493-0.22617-0.45236 0.22616-4.0173 0-4.4696-0.15706-0.31409-0.58791-0.43085-0.74494-0.74494-0.11104-0.22209 0-0.49662 0-0.74493v-5.9595c0-0.24831 0.17558-0.56933 0-0.74494-0.17558-0.17557-0.56935 0.17561-0.74493 0-0.37248-0.37245 0.37245-1.8623 0-2.2348-0.17558-0.17558-0.56936 0.17558-0.74494 0-0.1756-0.17558 0-0.49662 0-0.74493-0.24831 0-0.56935 0.17557-0.74493 0-0.1756-0.17558 0.17558-0.56936 0-0.74494-0.1756-0.17558-0.56936 0.17558-0.74494 0-0.1756-0.17558 0.17558-0.56936 0-0.74493-0.1756-0.17558-0.56935 0.17557-0.74496 0-0.17557-0.17558 0.17561-0.56936 0-0.74494-0.35115-0.35118-1.1387 0.35116-1.4899 0-0.17558-0.17558 0.17557-0.56935 0-0.74493-0.35116-0.35118-1.0457 0.22209-1.4899 0-0.31409-0.15706-0.43085-0.58791-0.74494-0.74494-1.5941-0.79705 0.10422 0.79703-1.4899 0-0.31408-0.15705-0.43084-0.5879-0.74493-0.74493-0.29538-0.14769-2.0825 0.15227-2.2348 0-0.17558-0.1756 0.1756-0.56936 0-0.74496-0.37245-0.37246-1.8623 0.37248-2.2348 0-0.17558-0.17558 0.17557-0.56933 0-0.74494-0.37246-0.37245-1.8623 0.37248-2.2348 0-0.17557-0.17557 0.17558-0.56935 0-0.74493-0.17925-0.17926-2.8005 0.17925-2.9797 0-0.17561-0.17558 0.17557-0.56936 0-0.74493-0.20384-0.20384-2.5756 0.20206-2.9798 0-0.31408-0.15704-0.43085-0.58788-0.74493-0.74494-0.19259-0.0963-3.9416 0-4.4696 0-0.24831 0-0.56936 0.17558-0.74493 0-0.17561-0.17558 0.17557-0.56936 0-0.74493-0.17561-0.17558-0.49663 0-0.74496 0h-5.2145c-0.24832 0-0.56936 0.17557-0.74494 0-0.17558-0.17558 0.17558-0.56936 0-0.74494-0.20383-0.20383-2.5756 0.20206-2.9798 0-0.31409-0.15705-0.43082-0.5879-0.74494-0.74493-0.4041-0.20206-2.7759 0.20383-2.9797 0-0.17558-0.17558 0.17557-0.56936 0-0.74494-0.35116-0.35118-1.0457 0.22209-1.4899 0-0.31409-0.15705-0.43085-0.5879-0.74494-0.74493-0.29538-0.14769-2.0825 0.15229-2.2348 0-0.17557-0.17561 0.17561-0.56936 0-0.74494-0.35115-0.35118-1.0457 0.2221-1.4899 0-0.31408-0.15705-0.43084-0.5879-0.74493-0.74496-0.44418-0.22209-1.0457 0.22212-1.4899 0-0.31409-0.15703-0.43085-0.58787-0.74493-0.74493-0.79492-0.39746-0.69496 0.39746-1.4899 0-0.31409-0.15703-0.43085-0.58788-0.74494-0.74493-0.29538-0.14767-2.0825 0.15229-2.2348 0-0.17557-0.17558 0.17561-0.56936 0-0.74494-0.37245-0.37245-1.8623 0.37248-2.2348 0-0.17558-0.17558 0.17558-0.56936 0-0.74493-0.37245-0.37246-1.8624 0.37248-2.2348 0-0.17558-0.17558 0.17558-0.56936 0-0.74494-0.35118-0.35115-1.1387 0.35116-1.4899 0-0.17558-0.17558 0.17558-0.56935 0-0.74493s-0.56936 0.17558-0.74494 0c-0.1756-0.17558 0.17558-0.56936 0-0.74494-0.1756-0.17557-0.56935 0.17558-0.74493 0-0.1756-0.17557 0.17558-0.56935 0-0.74493-0.1756-0.17558-0.52284 0.11104-0.74496 0-0.55113-0.27556-0.93874-1.2143-1.4899-1.4899-0.22209-0.11107-0.56936 0.17558-0.74493 0-0.35116-0.35118 0.35118-1.1387 0-1.4899-0.17558-0.17557-0.56936 0.17561-0.74494 0-0.17558-0.17557 0.17558-0.56933 0-0.74493-0.17558-0.17558-0.56935 0.1756-0.74493 0-0.17558-0.17558 0.11104-0.52284 0-0.74493-0.0989-0.19778-2.037-2.1359-2.2348-2.2348-0.22209-0.11104-0.56935 0.17558-0.74493 0-0.1756-0.17557 0.17558-0.56935 0-0.74493-0.35118-0.35118-1.1387 0.35115-1.4899 0-0.17558-0.17558 0.1756-0.56936 0-0.74494-0.17558-0.17557-0.52282 0.11105-0.74494 0-0.31409-0.15705-0.43082-0.5879-0.74493-0.74493-0.22209-0.11105-0.56936 0.17558-0.74494 0s0.17558-0.56936 0-0.74493c-0.17558-0.17561-0.52284 0.11104-0.74493 0-0.31409-0.15706-0.43085-0.58791-0.74494-0.74494-0.22209-0.11107-0.56935 0.17558-0.74493 0-0.17558-0.1756 0.17558-0.56936 0-0.74495-0.17558-0.17558-0.56936 0.17559-0.74494 0-0.17557-0.17558 0.17558-0.56935 0-0.74493-0.17557-0.17559-0.56935 0.17558-0.74493 0-0.17558-0.17559 0.17558-0.56936 0-0.74494s-0.56936 0.17558-0.74493 0c-0.17561-0.17558 0.17557-0.56935 0-0.74494-0.17561-0.17558-0.56936 0.17559-0.74494 0-0.1756-0.17558 0.11105-0.52284 0-0.74493-0.15706-0.3141-0.5879-0.43085-0.74493-0.74494-0.22212-0.44419 0.35115-1.1387 0-1.4899-0.17561-0.17559-0.56936 0.17558-0.74496 0-0.17558-0.17559 0.1756-0.56936 0-0.74494-0.17558-0.17558-0.56933 0.17558-0.74494 0-0.35115-0.35117 0.35118-1.1387 0-1.4899-0.17558-0.17559-0.56936 0.17558-0.74493 0-0.17558-0.17559 0.17557-0.56936 0-0.74494-0.17558-0.17558-0.56936 0.17558-0.74494 0-0.35115-0.35117 0.35118-1.1387 0-1.4899-0.17557-0.17559-0.56935 0.17558-0.74493 0-0.17558-0.17559 0.17558-0.56936 0-0.74494s-0.56936 0.17558-0.74494 0c-0.17557-0.17558 0.11105-0.52284 0-0.74494-0.19894-0.39786-1.8426-1.8426-2.2348-2.2348-0.39219-0.39218-1.837-2.0359-2.2348-2.2348-0.22209-0.11105-0.56933 0.17559-0.74493 0-0.17558-0.17558 0.1756-0.56935 0-0.74493-0.17558-0.17559-0.52282 0.11105-0.74494 0-0.31408-0.15705-0.43084-0.58789-0.74493-0.74494-0.22209-0.11105-0.52284 0.11105-0.74494 0-0.31408-0.15705-0.43084-0.58789-0.74493-0.74494-0.22209-0.11104-0.56936 0.17559-0.74493 0-0.17558-0.17558 0.17557-0.56935 0-0.74493-0.35116-0.35117-1.0457 0.22209-1.4899 0-0.31409-0.15705-0.43085-0.58789-0.74494-0.74494-0.44421-0.2221-1.1387 0.35116-1.4899 0-0.1756-0.17558 0.17558-0.56935 0-0.74494-0.35118-0.35116-1.0457 0.2221-1.4899 0-0.31409-0.15704-0.43085-0.58789-0.74494-0.74493-0.22209-0.11105-0.56935 0.17558-0.74493 0-0.17558-0.17559 0.17558-0.56936 0-0.74494s-0.52284 0.11105-0.74493 0c-0.62818-0.31409-0.8617-1.1758-1.4899-1.4899-0.22209-0.11105-0.56936 0.17558-0.74494 0-0.17558-0.17559 0.17558-0.56936 0-0.74494s-0.56935 0.17558-0.74493 0 0.17558-0.56935 0-0.74494c-0.17558-0.17558-0.56936 0.17559-0.74494 0-0.1756-0.17558 0.17558-0.56935 0-0.74493-0.1756-0.17559-0.56935 0.17558-0.74493 0-0.1756-0.17559 0.17558-0.56936 0-0.74494-0.1756-0.17558-0.56936 0.17558-0.74496 0-0.17558-0.17558 0.1756-0.56936 0-0.74494-0.17558-0.17558-0.56933 0.17558-0.74494 0-0.17557-0.17558 0.11108-0.52284 0-0.74494-0.44696-0.89392-1.7878-1.3409-2.2348-2.2348-0.11104-0.2221 0.17558-0.56936 0-0.74494s-0.56936 0.17558-0.74493 0c-0.17558-0.17558 0.17557-0.56935 0-0.74494-0.17558-0.17558-0.56936 0.17559-0.74494 0-0.17558-0.17558 0.17558-0.56935 0-0.74493-0.17558-0.17559-0.56935 0.17558-0.74493 0-0.17558-0.17559 0.17558-0.56936 0-0.74494s-0.56936 0.17558-0.74494 0c-0.17557-0.17558 0.17558-0.56935 0-0.74494-0.17557-0.17558-0.56935 0.17559-0.74493 0-0.1756-0.17558 0.17558-0.56935 0-0.74493-0.1756-0.17559-0.56936 0.17558-0.74494 0-0.1756-0.17559 0.17558-0.56936 0-0.74494-0.1756-0.17558-0.56935 0.17558-0.74493 0-0.1756-0.17558 0.17558-0.56935 0-0.74494-0.1756-0.17558-0.52284 0.11105-0.74496 0-0.31409-0.15704-0.43082-0.58789-0.74493-0.74493-0.2221-0.11105-0.56936 0.17558-0.74494 0-0.17558-0.17559 0.17558-0.56936 0-0.74494s-0.56936 0.17558-0.74493 0c-0.17558-0.17558 0.17557-0.56936 0-0.74494-0.17558-0.17558-0.49663 0-0.74494 0 0-0.24831 0.17558-0.56935 0-0.74494-1.5413-1.5413 0.0602 2.3553-1.4899-0.74493-0.11104-0.2221 0.17558-0.56935 0-0.74494-0.17557-0.17558-0.56935 0.17559-0.74493 0-0.35118-0.35116 0.35115-1.1387 0-1.4899-0.17558-0.17558-0.56936 0.17558-0.74494 0-0.35118-0.35117 0.35116-1.1387 0-1.4899-0.17557-0.17559-0.56935 0.17558-0.74493 0-0.1756-0.17559 0.11105-0.52284 0-0.74494-0.15706-0.31409-0.5879-0.43084-0.74493-0.74494-0.11108-0.2221 0.17557-0.56935 0-0.74494-0.17561-0.17558-0.56936 0.17559-0.74496 0-0.35116-0.35116 0.35118-1.1387 0-1.4899-0.17558-0.17558-0.56934 0.17559-0.74494 0-0.17558-0.17558 0.11107-0.52284 0-0.74493-0.15703-0.3141-0.58788-0.43085-0.74493-0.74494-0.11105-0.2221 0.1756-0.56936 0-0.74494-0.17558-0.17558-0.56936 0.17558-0.74494 0-0.35115-0.35116 0.35118-1.1387 0-1.4899-0.17558-0.17558-0.56935 0.17558-0.74493 0s0.17558-0.56935 0-0.74494c-0.17558-0.17558-0.56936 0.17559-0.74494 0-0.35115-0.35116 0.35116-1.1387 0-1.4899-0.17557-0.17558-0.56935 0.17558-0.74493 0s0.17558-0.56935 0-0.74494c-0.17558-0.17558-0.56936 0.17559-0.74494 0-0.17557-0.17558 0.17558-0.56935 0-0.74493-0.17557-0.17559-0.56935 0.17558-0.74493 0-1.5413-1.5413 2.3553 0.0602-0.74493-1.4899-0.22212-0.11105-0.56936 0.17558-0.74494 0-0.1756-0.17558 0.17558-0.56935 0-0.74494-0.1756-0.17558-0.56936 0.17559-0.74493 0-1.5413-1.5413 2.3553 0.0603-0.74496-1.4899-0.2221-0.11105-0.56933 0.17559-0.74494 0-0.17558-0.17558 0.17561-0.56935 0-0.74493-0.17558-0.17559-0.56935 0.17558-0.74493 0-0.17558-0.17559 0.17558-0.56936 0-0.74494-1.9865 0 0.24831 0.24831-0.74494-0.74494-0.17557-0.17558-0.56935 0.17558-0.74493 0s0.17558-0.56935 0-0.74493c-0.17558-0.17559-0.56936 0.17558-0.74494 0-0.35115-0.35117 0.35116-1.1387 0-1.4899-0.17557-0.17558-0.56935 0.17559-0.74493 0-0.17558-0.17558 0.17558-0.56935 0-0.74493-0.17558-0.17559-0.56936 0.17558-0.74493 0-0.17558-0.17559 0.17557-0.56936 0-0.74494-0.17558-0.17559-0.56936 0.17558-0.74494 0-0.17558-0.17559 0.17558-0.56935 0-0.74494-0.17558-0.17558-0.56936 0.17559-0.74493 0-0.17561-0.17558 0.17557-0.56935 0-0.74493-0.17561-0.17559-0.56936 0.17558-0.74494 0-0.35118-0.35117 0.35116-1.1387 0-1.4899-0.1756-0.17558-0.56935 0.17558-0.74496 0-0.17558-0.17558 0.11107-0.52284 0-0.74494-0.15703-0.31409-0.58788-0.43084-0.74493-0.74493-0.22209-0.4442 0.35118-1.1387 0-1.4899-0.17558-0.17559-0.49663 0-0.74494 0 0-0.24832 0.17561-0.56936 0-0.74494-0.17557-0.17558-0.56935 0.17558-0.74493 0s0.11104-0.52284 0-0.74494c-0.15703-0.31409-0.58788-0.43084-0.74494-0.74493-0.11104-0.2221 0.17558-0.56936 0-0.74494-0.17557-0.17558-0.56935 0.17558-0.74493 0s0.17558-0.56936 0-0.74494-0.56936 0.17558-0.74493 0c-0.17558-0.17558 0.17557-0.56935 0-0.74494-0.17558-0.17558-0.56936 0.17559-0.74494 0-0.17558-0.17558 0.17558-0.56935 0-0.74493-0.17558-0.17559-0.56936 0.17558-0.74493 0-0.17558-0.17559 0.17557-0.56935 0-0.74494-0.49562-0.49561-0.99428 0.49561-1.4899 0-0.17561-0.17558 0.17558-0.56935 0-0.74493-0.17561-0.17559-0.56936 0.17558-0.74494 0-0.1756-0.17559 0.17558-0.56936 0-0.74494-0.35118-0.35117-1.1387 0.35116-1.4899 0-0.17558-0.17558 0.1756-0.56936 0-0.74494-0.17558-0.17558-0.52284 0.11105-0.74494 0-0.31408-0.15704-0.43084-0.58789-0.74493-0.74494-0.22209-0.11104-0.56936 0.17559-0.74493 0-0.17558-0.17558 0.17557-0.56935 0-0.74493-0.17558-0.17558-0.56936 0.17558-0.74494 0s0.17558-0.56935 0-0.74494c-0.17558-0.17558-0.49662 0-0.74493 0 0-0.24831 0.17557-0.56935 0-0.74493-0.17558-0.17559-0.56936 0.17558-0.74494 0-0.17558-0.17559 0.11105-0.52284 0-0.74494-0.79298-1.586-0.69691 0.0961-1.4899-1.4899-0.11104-0.2221 0.17558-0.56936 0-0.74494-1.9865 0 0.24832 0.24831-0.74493-0.74494-0.1756-0.17558-0.56936 0.17558-0.74496 0-0.17558-0.17558 0.11107-0.52284 0-0.74494-0.15703-0.31409-0.58788-0.43084-0.74494-0.74493-0.11104-0.2221 0.17561-0.56935 0-0.74494-0.17557-0.17558-0.56933 0.17559-0.74493 0-0.17558-0.17558 0.1756-0.56935 0-0.74493-0.17558-0.17559-0.56936 0.17558-0.74493 0-0.17558-0.17559 0.17557-0.56936 0-0.74494-0.17558-0.17558-0.56936 0.17558-0.74494 0-0.35115-0.35117 0.35118-1.1387 0-1.4899-0.17558-0.17558-0.56936 0.17559-0.74493 0-0.17558-0.17558 0.17557-0.56935 0-0.74493-0.17558-0.17558-0.56936 0.17558-0.74494 0s0.11105-0.52284 0-0.74494c-0.15705-0.31409-0.5879-0.43084-0.74493-0.74493-0.11105-0.2221 0.17558-0.56936 0-0.74494-0.17558-0.17559-0.56936 0.17558-0.74494 0-0.35118-0.35117 0.35116-1.1387 0-1.4899-0.17557-0.17559-0.56935 0.17558-0.74493 0-0.1756-0.17559 0.17558-0.56936 0-0.74494-0.1756-0.17558-0.56936 0.17558-0.74494 0-0.1756-0.17558 0.17558-0.56936 0-0.74494-0.1756-0.17558-0.56935 0.17558-0.74493 0-0.1756-0.17558 0.17558-0.56935 0-0.74494-0.1756-0.17558-0.56936 0.17559-0.74496 0-0.17558-0.17558-0.24831-0.74493 0-0.74493s0.24831 0.74493 0 0.74493c-0.35116 0-0.58788-0.43084-0.74493-0.74493-0.2221-0.4442 0.35118-1.1387 0-1.4899-0.17558-0.17559-0.56936 0.17558-0.74494 0-0.17558-0.17559 0.17558-0.56936 0-0.74494s-0.56936 0.17558-0.74493 0c-0.35116-0.35117 0.35118-1.1387 0-1.4899-0.17558-0.17559-0.56936 0.17558-0.74494 0-0.17558-0.17559 0.17558-0.56936 0-0.74494s-0.56935 0.17558-0.74493 0 0.17558-0.56936 0-0.74494-0.56936 0.17558-0.74494 0c-0.17557-0.17558 0.17558-0.56935 0-0.74494-0.17557-0.17558-0.56935 0.17559-0.74493 0-0.17558-0.17558 0.17558-0.56935 0-0.74493-0.17558-0.17559-0.56936 0.17558-0.74494 0-0.17557-0.17559 0.17558-0.56935 0-0.74494-0.17557-0.17558-0.56935 0.17559-0.74493 0-0.1756-0.17558 0.11105-0.52284 0-0.74493-0.31411-0.62819-1.1758-0.86169-1.4899-1.4899-0.11105-0.22209 0.1756-0.56935 0-0.74494-0.17558-0.17558-0.56934 0.17559-0.74494 0-0.35115-0.35116 0.35118-1.1387 0-1.4899-0.17558-0.17558-0.56933 0.17559-0.74493 0-0.17558-0.17558 0.1756-0.56935 0-0.74493-0.17558-0.17559-0.56936 0.17558-0.74494 0-0.35115-0.35117 0.35118-1.1387 0-1.4899-0.17558-0.17558-0.56935 0.17558-0.74493 0s0.17558-0.56935 0-0.74493c-0.17558-0.17559-0.56936 0.17558-0.74494 0-0.17557-0.17559 0.17558-0.56936 0-0.74494-0.17557-0.17558-0.56935 0.17558-0.74493 0-0.35118-0.35117 0.35115-1.1387 0-1.4899-0.17558-0.17558-0.56936 0.17559-0.74494 0-0.35118-0.35116 0.35116-1.1387 0-1.4899-0.17557-0.17558-0.56935 0.17559-0.74493 0 0-1.9865 0.24831 0.24831-0.74493-0.74493-0.35119-0.35117 0.35115-1.1387 0-1.4899-0.17561-0.17558-0.56936 0.17558-0.74494 0-0.1756-0.17558 0.17558-0.56935 0-0.74494-0.1756-0.17558-0.56936 0.17559-0.74496 0-0.17558-0.17558 0.11107-0.52284 0-0.74493-0.15703-0.31409-0.58788-0.43084-0.74493-0.74494-0.11105-0.2221 0.1756-0.56935 0-0.74494-0.17558-0.17558-0.56933 0.17559-0.74494 0-0.17558-0.17558 0.17561-0.56935 0-0.74493-0.17558-0.17559-0.56935 0.17558-0.74493 0-0.17558-0.17559 0.11104-0.52284 0-0.74494-0.15703-0.31409-0.58788-0.43084-0.74494-0.74493-0.11104-0.2221 0.17558-0.56936 0-0.74494-0.17557-0.17558-0.56935 0.17558-0.74493 0s0.11104-0.52284 0-0.74494c-0.15706-0.31409-0.58788-0.43084-0.74494-0.74494-0.11104-0.22209 0.17558-0.56935 0-0.74493-0.17557-0.17559-0.56935 0.17558-0.74493 0-0.17558-0.17559 0.11105-0.52284 0-0.74494-0.31409-0.62818-1.1758-0.86169-1.4899-1.4899-0.11104-0.2221 0.17558-0.56936 0-0.74494-0.1756-0.17558-0.56936 0.17558-0.74493 0-0.17561-0.17558 0.17557-0.56935 0-0.74494-0.17561-0.17558-0.56936 0.17559-0.74494 0-0.1756-0.17558 0.11105-0.52284 0-0.74493-0.15705-0.31409-0.5879-0.43084-0.74496-0.74494-0.11104-0.2221 0.17561-0.56935 0-0.74494-0.17558-0.17558-0.56933 0.17559-0.74493 0-0.17558-0.17558 0.1756-0.56935 0-0.74493-0.17558-0.17559-0.49663 0-0.74494 0 0-0.24831 0.17558-0.56935 0-0.74494-0.17557-0.17558-0.56935 0.17559-0.74493 0-0.17558-0.17558 0.11104-0.52284 0-0.74493-0.15703-0.3141-0.58788-0.43085-0.74494-0.74494-0.11104-0.2221 0.17558-0.56936 0-0.74494-0.17557-0.17558-0.56935 0.17558-0.74493 0 0-1.9865 0.24831 0.24831-0.74493-0.74494-0.35119-0.35116 0.35115-1.1387 0-1.4899-0.17558-0.17558-0.56936 0.17559-0.74494 0-0.35118-0.35117 0.35116-1.1387 0-1.4899-0.17558-0.17559-0.56936 0.17558-0.74493 0-0.35118-0.35117 0.35115-1.1387 0-1.4899-0.17558-0.17558-0.56936 0.17559-0.74494 0-0.35118-0.35116 0.35116-1.1387 0-1.4899-0.1756-0.17558-0.56935 0.17558-0.74493 0-0.35118-0.35116 0.35115-1.1387 0-1.4899-0.17561-0.17559-0.56936 0.17558-0.74496 0-0.35116-0.35117 0.35118-1.1387 0-1.4899-0.17558-0.17559-0.56933 0.17558-0.74494 0-0.49802-0.49805 0.49805-0.99184 0-1.4899-0.17557-0.17558-0.56933 0.17558-0.74493 0-0.17558-0.17558 0.1756-0.56935 0-0.74494-0.17558-0.17558-0.56936 0.17559-0.74494 0-0.35115-0.35116 0.35119-1.1387 0-1.4899-0.17557-0.17558-0.56935 0.17558-0.74493 0s0.17558-0.56935 0-0.74494c-0.17558-0.17558-0.56936 0.17559-0.74493 0-0.17558-0.17558 0.17557-0.56935 0-0.74493-0.17558-0.17559-0.56936 0.17558-0.74494 0-0.35115-0.35117 0.35116-1.1387 0-1.4899-0.17558-0.17559-0.56936 0.17558-0.74493 0-0.17558-0.17559 0.17557-0.56936 0-0.74494-0.17558-0.17558-0.56936 0.17558-0.74494 0s0.17558-0.56936 0-0.74494-0.56935 0.17558-0.74493 0c-0.35118-0.35116 0.35115-1.1387 0-1.4899-0.17561-0.17559-0.56936 0.17558-0.74494 0-0.35118-0.35117 0.35116-1.1387 0-1.4899-1.9865 0 0.24832 0.24831-0.74493-0.74494-0.1756-0.17558-0.56936 0.17558-0.74496 0-0.17558-0.17558 0.11107-0.52284 0-0.74494-0.15703-0.31409-0.58788-0.43084-0.74494-0.74494-0.11104-0.22209 0.17561-0.56935 0-0.74493-0.17557-0.17559-0.56935 0.17558-0.74493 0-0.17558-0.17559 0.17558-0.56936 0-0.74494s-0.56936 0.17558-0.74493 0c-0.17558-0.17558 0.17557-0.56935 0-0.74494-0.17558-0.17558-0.56936 0.17559-0.74494 0-0.35115-0.35116 0.35118-1.1387 0-1.4899-0.17558-0.17558-0.56936 0.17559-0.74493 0-0.17558-0.17558 0.17557-0.56935 0-0.74493-0.17558-0.17559-0.49663 0-0.74494 0 0-0.24832 0.17558-0.56936 0-0.74494s-0.56935 0.17558-0.74493 0c-0.35118-0.35116 0.35115-1.1387 0-1.4899-0.17558-0.17558-0.56936 0.17558-0.74494 0-0.17557-0.17558 0.17558-0.56935 0-0.74494-0.17557-0.17558-0.56935 0.17558-0.74493 0-0.37248-0.37247 0.37245-1.8623 0-2.2348-0.1756-0.17559-0.56936 0.17558-0.74494 0-0.35118-0.35117 0.35116-1.1387 0-1.4899-0.1756-0.17558-0.56935 0.17558-0.74496 0-0.35115-0.35117 0.35119-1.1387 0-1.4899-0.17557-0.17558-0.56933 0.17558-0.74493 0-0.17558-0.17558 0.11107-0.52284 0-0.74494-0.15703-0.31409-0.58788-0.43084-0.74493-0.74494-0.11105-0.2221 0.1756-0.56935 0-0.74494-0.17558-0.17558-0.56936 0.17558-0.74494 0s0.17558-0.56935 0-0.74494c-0.17558-0.17558-0.56936 0.17558-0.74493 0-0.35116-0.35117 0.35118-1.1387 0-1.4899-0.17558-0.17558-0.49663 0-0.74494 0 0-0.24831 0.17558-0.56935 0-0.74494-0.17558-0.17558-0.74493 0.24831-0.74493 0s0.99324 0 0.74493 0h-1.4899c-0.24831 0-0.52284 0.11105-0.74493 0-0.31409-0.15705-0.43085-0.58789-0.74494-0.74494-0.22211-0.11105-0.56935 0.17558-0.74493 0-0.1756-0.17558 0.17558-0.56935 0-0.74494-0.37248-0.37247-1.8624 0.37247-2.2348 0-0.17558-0.17558 0.1756-0.56935 0-0.74494-0.17558-0.17558-0.49662 0-0.74493 0h-1.4899 1.4899-2.2348c-0.38954 0-2.7839-0.09793-2.9797 0-0.31412 0.15705-0.43085 0.58789-0.74494 0.74494-0.29538 0.14768-2.0825-0.15229-2.2348 0-0.17558 0.17558 0.17561 0.56936 0 0.74494-0.37245 0.37247-1.8623-0.37247-2.2348 0-0.17558 0.17558 0.17558 0.56936 0 0.74494-0.35116 0.35117-1.0457-0.2221-1.4899 0-0.31409 0.15705-0.43085 0.58789-0.74493 0.74494-0.2221 0.11105-0.49663 0-0.74494 0h-4.4696c-0.24831 0-0.52284-0.11105-0.74494 0-0.31408 0.15705-0.43084 0.58789-0.74493 0.74494-0.22209 0.11105-0.52284-0.11105-0.74493 0-0.31409 0.15705-0.43085 0.58789-0.74494 0.74494-0.44421 0.2221-1.1387-0.35117-1.4899 0-0.1756 0.17558 0.17558 0.56935 0 0.74494-0.37248 0.37247-1.8624-0.37247-2.2348 0-0.17557 0.17558 0.17561 0.56935 0 0.74494-0.35115 0.35117-1.1387-0.35117-1.4899 0-0.17557 0.17558 0.17558 0.56935 0 0.74494-0.35115 0.35117-1.1387-0.35117-1.4899 0-0.17558 0.17558 0.17557 0.56935 0 0.74494-0.35116 0.35116-1.1387-0.35117-1.4899 0-0.17558 0.17558 0.17557 0.56935 0 0.74494-1.9865 0 0.24831-0.24831-0.74494 0.74494-0.17558 0.17558-0.56935-0.17558-0.74493 0-0.17561 0.17558 0.17558 0.56935 0 0.74494-0.35118 0.35116-1.1387-0.35117-1.4899 0-0.1756 0.17558 0.17558 0.56935 0 0.74494-0.49562 0.49561-0.99428-0.49561-1.4899 0-0.17557 0.17558 0.17561 0.56935 0 0.74494-0.17557 0.17558-0.56935-0.17559-0.74493 0-0.17558 0.17558 0.17558 0.56935 0 0.74493-0.35116 0.35117-1.1387-0.35116-1.4899 0-0.17558 0.17559 0.17558 0.56935 0 0.74494-0.35115 0.35117-1.0457-0.2221-1.4899 0-0.31408 0.15705-0.43085 0.58789-0.74493 0.74494-0.46821 0.23411-2.5115-0.2341-2.9798 0-0.31408 0.15705-0.43082 0.58789-0.74493 0.74494-0.19587 0.09794-2.5902 0-2.9797 0h-9.6842c-0.24831 0-0.56936-0.17558-0.74494 0-0.17557 0.17558 0.17558 0.56935 0 0.74494-0.10506 0.10506-2.082 0.0764-2.2348 0-0.31411-0.15705-0.39378-0.74494-0.74496-0.74494-0.24831 0 0.24831 0.74494 0 0.74494s0.1756-0.56935 0-0.74494c-0.17558-0.17558-0.49662 0-0.74493 0h-5.2145c-0.24832 0-0.56936-0.17558-0.74494 0-0.1756 0.17558 0.17558 0.56935 0 0.74494-0.35118 0.35117-1.1387-0.35116-1.4899 0-0.17558 0.17558 0.1756 0.56935 0 0.74494-0.17558 0.17558-0.56933-0.17559-0.74494 0-0.17558 0.17558 0.17561 0.56935 0 0.74493-0.17558 0.17559-0.49662 0-0.74493 0 0 0.24831 0.11104 0.52284 0 0.74494-1.5501 3.1002 0.0514-0.79636-1.4899 0.74493-0.17558 0.17559 0.17558 0.56936 0 0.74494s-0.49662 0-0.74494 0c0 0.24831 0.17558 0.56935 0 0.74494-1.9865 0 0.24832-0.24831-0.74493 0.74493-0.17558 0.17559-0.56935-0.17558-0.74494 0-0.17558 0.17559 0.17559 0.56936 0 0.74494-0.17558 0.17558-0.56935-0.17558-0.74493 0-0.17559 0.17558 0.17558 0.56936 0 0.74494-0.35117 0.35116-1.1387-0.35117-1.4899 0-0.17558 0.17558 0.17558 0.56935 0 0.74494-1.9824 1.9824 0.49257-1.9824-1.4899 0-0.17558 0.17558 0.17558 0.56935 0 0.74493-0.17558 0.17559-0.49662 0-0.74494 0 0 0.24831 0.17559 0.56935 0 0.74494-0.17558 0.17558-0.56935-0.17559-0.74493 0-0.17559 0.17558 0.17558 0.56935 0 0.74493-0.17559 0.17559-0.56936-0.17558-0.74494 0-0.17558 0.17559 0.24831 0.74494 0 0.74494s0.24831-0.74494 0-0.74494c-0.35117 0-0.43085 0.58789-0.74494 0.74494-0.22209 0.11105-0.49662 0-0.74493 0-0.24832 0-0.56936 0.17558-0.74494 0s0.17558-0.56935 0-0.74494c-0.0338-0.0338-3.3734 0-3.7247 0h-0.74494c-0.24831 0-0.56936 0.17559-0.74494 0-0.17558-0.17558 0.17558-0.56935 0-0.74493-0.17558-0.17559-0.56935-0.17559-0.74493 0-0.17559 0.17558-0.24832 0.74493 0 0.74493 0.35116 0 1.0961-0.74493 0.74493-0.74493-0.55524 0-0.96312 0.56935-1.4899 0.74493-0.23557 0.0785-0.56935-0.17558-0.74494 0-0.17558 0.17559 0.17559 0.56936 0 0.74494-0.17558 0.17558-0.56935-0.17558-0.74493 0-0.17559 0.17558 0.17558 0.56936 0 0.74494-0.17559 0.17558-0.49663 0-0.74494 0h-1.4899c0.49662 0 1.4899 0.49662 1.4899 0 0-0.88128-4.3356-0.87894-4.4696-0.74494-0.17559 0.17558 0.17558 0.56936 0 0.74494-1.4868 1.4868-3e-3 -1.4868-1.4899 0-0.17559 0.17558 0.17558 0.56935 0 0.74494-0.17559 0.17558-0.56936-0.17559-0.74494 0-0.17558 0.17558 0.17558 0.56935 0 0.74493s-0.52284-0.11105-0.74494 0c-3.1002 1.5501 0.79637-0.0514-0.74493 1.4899-0.17559 0.17559-0.56936-0.17558-0.74494 0-0.17558 0.17559 0.17558 0.56936 0 0.74494s-0.56935-0.17558-0.74494 0c-0.17558 0.17558 0.17559 0.56935 0 0.74494-0.35116 0.35117-1.1387-0.35117-1.4899 0-0.17558 0.17558 0.17558 0.56935 0 0.74493-0.17558 0.17559-0.56935-0.17558-0.74494 0-0.17558 0.17559 0.11105 0.52284 0 0.74494-0.15704 0.31409-0.49662 0.99325-0.74493 0.74494-0.24832-0.24831 0.74493-1.0961 0.74493-0.74494 0 0.55525-0.56935 0.96312-0.74493 1.4899-0.0785 0.23556 0.17558 0.56935 0 0.74493-0.17559 0.17559-0.56936-0.17558-0.74494 0-0.35117 0.35117 0.35116 1.1387 0 1.4899-0.17558 0.17559-0.56936-0.17558-0.74494 0 0 1.9865 0.24832-0.24831-0.74494 0.74494-0.37246 0.37247 0.37247 1.8623 0 2.2348-0.17558 0.17558-0.56935-0.17558-0.74493 0-0.35117 0.35117 0.35117 1.1387 0 1.4899-0.17559 0.17558-0.56935-0.17559-0.74494 0-0.17558 0.17558 0.11105 0.52283 0 0.74493-0.15705 0.3141-0.58789 0.43085-0.74493 0.74494-0.11105 0.2221 0.17558 0.56935 0 0.74493-0.17559 0.17559-0.56936-0.17558-0.74494 0-0.37247 0.37247 0.37247 1.8624 0 2.2348-0.17558 0.17558-0.56935-0.17559-0.74494 0-0.17558 0.17558 0.17559 0.56935 0 0.74493-0.17558 0.17559-0.56935-0.17558-0.74493 0-0.17559 0.17559 0.17558 0.56935 0 0.74494-0.17559 0.17558-0.56936-0.17559-0.74494 0-0.17558 0.17558 0.17558 0.56935 0 0.74493-0.17558 0.17559-0.56935-0.17558-0.74494 0-0.17558 0.17559 0.17559 0.56936 0 0.74494-0.17558 0.17558-0.56935-0.17558-0.74493 0-0.17559 0.17558 0.17558 0.56936 0 0.74494-0.17559 0.17558-0.56936-0.17558-0.74494 0-0.17559 0.17558 0.17558 0.56935 0 0.74493-0.17559 0.17559-0.56935-0.17558-0.74494 0-0.17558 0.17559 0.17559 0.56936 0 0.74494-0.17558 0.17558-0.56935-0.17558-0.74493 0-0.17559 0.17558 0.17558 0.56936 0 0.74494-0.17559 0.17558-0.56936-0.17558-0.74494 0s0.17558 0.56935 0 0.74494c-0.17558 0.17558-0.56936-0.17559-0.74494 0-0.17558 0.17558 0.11105 0.52283 0 0.74493-0.15704 0.3141-0.58789 0.43085-0.74494 0.74494-0.11104 0.2221 0.17559 0.56935 0 0.74493-0.17558 0.17559-0.56935-0.17558-0.74493 0-0.17558 0.17559 0.17558 0.56936 0 0.74494s-0.56935-0.17558-0.74494 0c-0.17558 0.17558 0.17559 0.56936 0 0.74494-0.17558 0.17558-0.56935-0.17558-0.74493 0-0.35117 0.35116 0.35116 1.1387 0 1.4899-0.17559 0.17559-0.56936-0.17558-0.74494 0-0.17558 0.17559 0.17558 0.56935 0 0.74494-0.17558 0.17558-0.56935-0.17559-0.74494 0-0.99122 0.99122 0.99122 0.49865 0 1.4899-0.17558 0.17559-0.56935-0.17558-0.74493 0-0.17559 0.17559 0.11104 0.52284 0 0.74494-0.15705 0.31409-0.5879 0.43084-0.74494 0.74493-0.11105 0.2221 0.17558 0.56936 0 0.74494s-0.56936-0.17558-0.74494 0 0.17558 0.56936 0 0.74494-0.56935-0.17558-0.74494 0c-0.17558 0.17558 0.17559 0.56935 0 0.74494-0.17558 0.17558-0.56935-0.17559-0.74493 0-0.17559 0.17558 0.17558 0.56935 0 0.74493-0.17559 0.17559-0.56935-0.17558-0.74494 0-0.17558 0.17559 0.17559 0.56935 0 0.74494-0.17558 0.17558-0.56935-0.17559-0.74493 0-0.17559 0.17558 0.17558 0.56935 0 0.74493-0.17559 0.17559-0.56936-0.17558-0.74494 0-0.17558 0.17559 0.17558 0.56936 0 0.74494s-0.56936-0.17558-0.74494 0 0.17558 0.56936 0 0.74494c-0.35116 0.35116-1.1387-0.35117-1.4899 0 0 1.9865 0.24831-0.24831-0.74494 0.74494-0.17558 0.17558 0.17559 0.56935 0 0.74493-0.17558 0.17558-0.56935-0.17558-0.74493 0-0.17559 0.17558 0.17558 0.56936 0 0.74494-0.17559 0.17558-0.56936-0.17558-0.74494 0s0.17558 0.56935 0 0.74494c-0.17558 0.17558-0.56935-0.17559-0.74494 0-0.17558 0.17558 0.17559 0.56935 0 0.74493-0.17558 0.17559-0.56935-0.17558-0.74493 0-0.17559 0.17559 0 0.49663 0 0.74494-0.24832 0-0.56936-0.17559-0.74494 0-0.35117 0.35117 0.35116 1.1387 0 1.4899-0.17558 0.17558-0.56936-0.17558-0.74494 0s0.17558 0.56936 0 0.74494-0.56935-0.17558-0.74494 0c-0.17558 0.17558 0.17559 0.56935 0 0.74494-0.17558 0.17558-0.49662 0-0.74493 0 0 0.24831 0.17558 0.56935 0 0.74493-0.17559 0.17559-0.56935-0.17558-0.74494 0-0.17558 0.17559 0.11105 0.52284 0 0.74494-0.15705 0.31409-0.58789 0.43084-0.74493 0.74493-0.11105 0.2221 0.17558 0.56936 0 0.74494-0.17559 0.17558-0.56936-0.17558-0.74494 0s0.17558 0.56936 0 0.74494-0.56936-0.17558-0.74494 0 0.17558 0.56935 0 0.74494c-0.17558 0.17558-0.56935-0.17559-0.74493 0-0.17559 0.17558 0.17558 0.56935 0 0.74493-0.17559 0.17558-0.56936-0.17558-0.74494 0s0.17558 0.56936 0 0.74494-0.56935-0.17558-0.74494 0c-0.17558 0.17558 0.17559 0.56935 0 0.74494-0.17558 0.17558-0.56935-0.17559-0.74494 0-0.17558 0.17558 0.17559 0.56935 0 0.74493-0.17558 0.17559-0.52283-0.11105-0.74493 0-0.3141 0.15705-0.43085 0.58789-0.74494 0.74494-0.2221 0.11105-0.56935-0.17559-0.74493 0-0.17559 0.17558 0.17558 0.56935 0 0.74493-0.17559 0.17559-0.56936-0.17558-0.74494 0-0.17558 0.17559 0.17558 0.56936 0 0.74494s-0.56936-0.17558-0.74494 0 0.17558 0.56936 0 0.74494-0.56935-0.17558-0.74494 0c-0.17558 0.17558 0.17559 0.56935 0 0.74494-0.17558 0.17558-0.56935-0.17559-0.74493 0-0.17559 0.17558 0.17558 0.56935 0 0.74493-0.17559 0.17559-0.56935-0.17558-0.74494 0-0.17558 0.17559 0.17559 0.56935 0 0.74494-0.17558 0.17558-0.56935-0.17559-0.74493 0-0.17559 0.17558 0.17558 0.56935 0 0.74494-0.17559 0.17558-0.56936-0.17559-0.74494 0-0.17558 0.17558 0.17558 0.56935 0 0.74493-0.17558 0.17559-0.56935-0.17558-0.74494 0-0.17558 0.17559 0.17559 0.56936 0 0.74494-0.17558 0.17558-0.56935-0.17558-0.74493 0-0.17559 0.17558 0.17558 0.56935 0 0.74493-0.17559 0.17559-0.56936-0.17558-0.74494 0-0.17558 0.17559 0.17558 0.56936 0 0.74494s-0.56936-0.17558-0.74494 0 0.11105 0.52284 0 0.74494c-0.31409 0.62818-1.1758 0.86169-1.4899 1.4899-0.11105 0.2221 0.17558 0.56935 0 0.74494-0.17559 0.17558-0.56935-0.17559-0.74494 0-0.17558 0.17558 0.17559 0.56935 0 0.74493-0.17558 0.17559-0.49662 0-0.74493 0 0 0.24832 0.17558 0.56936 0 0.74494-0.17559 0.17558-0.56936-0.17558-0.74494 0s0.17558 0.56936 0 0.74494-0.56936-0.17558-0.74494 0 0.17558 0.56935 0 0.74494c-0.17558 0.17558-0.56935-0.17559-0.74494 0-0.17558 0.17558 0.17559 0.56935 0 0.74493-0.17558 0.17559-0.56935-0.17558-0.74493 0-0.17559 0.17559 0.17558 0.56936 0 0.74494-0.17559 0.17558-0.56935-0.17558-0.74494 0-0.17558 0.17558 0.17559 0.56935 0 0.74494-0.17558 0.17558-0.56935-0.17559-0.74493 0-0.17559 0.17558 0.17558 0.56935 0 0.74493-0.17559 0.17559-0.56936-0.17558-0.74494 0-0.17559 0.17559 0.17558 0.56936 0 0.74494-0.17559 0.17558-0.49663 0-0.74494 0 0 0.24831 0.17559 0.56935 0 0.74493-0.17558 0.17559-0.56935-0.17558-0.74493 0-0.17559 0.17559 0.17558 0.56936 0 0.74494-0.17559 0.17558-0.56936-0.17558-0.74494 0s0.11105 0.52284 0 0.74494c-0.15705 0.31409-0.49663 0.49662-0.74494 0.74494-0.43813 0.43812-2.8073 2.6348-2.9797 2.9797-0.11105 0.2221 0.17558 0.56936 0 0.74494-0.17559 0.17558-0.56936-0.17558-0.74494 0s0.17558 0.56935 0 0.74494c-0.17558 0.17558-0.56936-0.17559-0.74494 0-0.17558 0.17558 0.17558 0.56935 0 0.74493-0.17558 0.17559-0.56935-0.17558-0.74494 0-0.17558 0.17559 0.17559 0.56936 0 0.74494-0.17558 0.17558-0.56935-0.17558-0.74493 0s0.17558 0.56935 0 0.74494c-0.17558 0.17558-0.56936-0.17559-0.74494 0-0.17558 0.17558 0.17558 0.56935 0 0.74493-0.17558 0.17559-0.56935-0.17558-0.74494 0-0.17558 0.17559 0.11105 0.52284 0 0.74494-0.36652 0.73304-2.6132 2.2467-2.9797 2.9798-0.11105 0.22209 0.17558 0.56935 0 0.74493-0.17558 0.17559-0.56936-0.17558-0.74494 0-0.17558 0.17559 0.17558 0.56935 0 0.74494-0.17558 0.17558-0.56935-0.17559-0.74494 0-0.17558 0.17558 0.17559 0.56935 0 0.74494-0.17558 0.17558-0.56935-0.17559-0.74493 0-0.17559 0.17558 0.17558 0.56935 0 0.74493-0.17559 0.17559-0.56935-0.17558-0.74494 0-1.5413 1.5413 2.3553-0.0602-0.74493 1.4899-0.2221 0.11104-0.56936-0.17559-0.74494 0-0.17558 0.17558 0.17558 0.56935 0 0.74493s-0.56936-0.17558-0.74494 0 0.17558 0.56936 0 0.74494-0.56935-0.17558-0.74494 0c-0.17558 0.17558 0.17559 0.56935 0 0.74494-0.17558 0.17558-0.56935-0.17559-0.74493 0-0.17558 0.17558 0.17558 0.56935 0 0.74493-0.17558 0.17559-0.56936-0.17558-0.74494 0-0.17558 0.17559 0.17558 0.56935 0 0.74494-0.17558 0.17558-0.56935-0.17559-0.74494 0-0.17558 0.17558 0.17559 0.56935 0 0.74493-0.17558 0.17559-0.56935-0.17558-0.74493 0-0.17559 0.17559 0.17558 0.56936 0 0.74494-0.17559 0.17558-0.52284-0.11105-0.74494 0-0.62818 0.3141-0.86169 1.1758-1.4899 1.4899-0.2221 0.11104-0.52284-0.11105-0.74494 0-3.1002 1.5501 0.79637-0.0514-0.74494 1.4899-1.239 1.239-0.25084-1.239-1.4899 0-0.17558 0.17558 0.17559 0.56935 0 0.74494-0.17558 0.17558-0.56935-0.17559-0.74493 0-0.17559 0.17558 0 0.49662 0 0.74493-0.24832 0-0.56936-0.17558-0.74494 0-0.17559 0.17559 0.17558 0.56936 0 0.74494-0.17559 0.17558-0.49663 0-0.74494 0 0 0.24831 0.17558 0.56935 0 0.74494-0.17558 0.17558-0.52284-0.11105-0.74493 0-0.3141 0.15704-0.43085 0.58789-0.74494 0.74493-0.2221 0.11105-0.56936-0.17558-0.74494 0s0.17558 0.56936 0 0.74494-0.56935-0.17558-0.74494 0c-0.17558 0.17558 0.17559 0.56935 0 0.74494-0.17558 0.17558-0.49662 0-0.74493 0 0 0.24831 0.17558 0.56935 0 0.74493-0.17559 0.17559-0.56935-0.17558-0.74494 0-0.17558 0.17559 0.17559 0.56935 0 0.74494-0.17558 0.17558-0.56935-0.17559-0.74493 0-0.17559 0.17558 0.17558 0.56935 0 0.74493-0.17559 0.17559-0.56936-0.17558-0.74494 0-0.17558 0.17559 0.17558 0.56936 0 0.74494-0.17558 0.17559-0.56936-0.17558-0.74494 0-0.17558 0.17559 0.17558 0.56936 0 0.74494s-0.56935-0.17558-0.74494 0c-0.17558 0.17558 0.11105 0.52284 0 0.74494-1.5501 3.1002 0.0514-0.79637-1.4899 0.74493-0.17558 0.17559 0.17558 0.56936 0 0.74494s-0.56935-0.17558-0.74494 0c-0.17558 0.17558 0.17559 0.56935 0 0.74494-0.17558 0.17558-0.56935-0.17559-0.74493 0-0.17559 0.17558 0.17558 0.56935 0 0.74493-0.17559 0.17559-0.56935-0.17558-0.74494 0-0.17558 0.17559 0.17559 0.56936 0 0.74494-0.17558 0.17558-0.56935-0.17558-0.74493 0-0.17559 0.17558 0.17558 0.56935 0 0.74493-0.17559 0.17559-0.56936-0.17558-0.74494 0-0.17558 0.17559 0.17558 0.56936 0 0.74494s-0.52284-0.11105-0.74494 0c-0.31409 0.15705-0.43084 0.58789-0.74494 0.74494-0.22209 0.11105-0.56935-0.17558-0.74493 0-0.17559 0.17558 0.17558 0.56935 0 0.74494-0.35117 0.35116-1.1387-0.35117-1.4899 0-0.17559 0.17558 0.17558 0.56935 0 0.74493-0.17559 0.17559-0.52284-0.11105-0.74494 0-2.2578 1.1289 0.7679 0.36099-1.4899 1.4899-0.22209 0.11105-0.56935-0.17559-0.74493 0-0.17559 0.17558 0.17558 0.56935 0 0.74493-0.35117 0.35117-1.1387-0.35116-1.4899 0-0.17558 0.17559 0.17559 0.56936 0 0.74494-0.35116 0.35117-1.1387-0.35117-1.4899 0-0.17558 0.17558 0.17559 0.56935 0 0.74494-0.17558 0.17558-0.52284-0.11105-0.74493 0-0.3141 0.15704-0.43085 0.58789-0.74494 0.74493-0.2221 0.11105-0.56936-0.17558-0.74494 0-0.17558 0.17559 0.17558 0.56936 0 0.74494s-0.52284-0.11105-0.74494 0c-0.31409 0.15705-0.43084 0.58789-0.74493 0.74494-0.2221 0.11104-0.56935-0.17559-0.74494 0-0.17558 0.17558 0.17559 0.56935 0 0.74493-0.17558 0.17559-0.52284-0.11104-0.74494 0-0.62818 0.3141-0.86168 1.1758-1.4899 1.4899-0.2221 0.11106-0.56935-0.17558-0.74494 0-0.17558 0.17559 0.17559 0.56936 0 0.74494-0.17558 0.17558-0.52284-0.11105-0.74493 0-0.31409 0.15705-0.43085 0.58789-0.74494 0.74494-0.2221 0.11105-0.56935-0.17558-0.74494 0-0.17558 0.17558 0.17559 0.56935 0 0.74494-0.17558 0.17558-0.52283-0.11105-0.74493 0-0.62819 0.31409-0.86169 1.1758-1.4899 1.4899-0.2221 0.11105-0.56936-0.17558-0.74494 0s0.17558 0.56935 0 0.74494c-0.35117 0.35116-1.0457-0.2221-1.4899 0-2.4706 2.4706 0.70234-0.35117-1.4899 0.74493-0.89392 0.44696-1.3409 1.7878-2.2348 2.2348-0.2221 0.11105-0.56935-0.17558-0.74493 0-0.17559 0.17559 0.17558 0.56936 0 0.74494-0.35117 0.35116-1.1387-0.35117-1.4899 0-0.17558 0.17558 0.17558 0.56935 0 0.74494-0.35116 0.35116-1.1387-0.35117-1.4899 0-0.17559 0.17558 0.17558 0.56935 0 0.74493-0.35117 0.35117-1.1387-0.35116-1.4899 0-0.17559 0.17559 0.17558 0.56935 0 0.74494-0.17559 0.17558-0.52284-0.11105-0.74494 0-0.3141 0.15705-0.43085 0.58789-0.74494 0.74494-0.22209 0.11105-0.56935-0.17559-0.74494 0-0.17558 0.17558 0.17558 0.56935 0 0.74493-0.17558 0.17559-0.56936-0.17558-0.74494 0-0.17558 0.17559 0.17558 0.56936 0 0.74494-0.35117 0.35117-1.1387-0.35117-1.4899 0-0.17558 0.17558 0.17558 0.56935 0 0.74494-0.17558 0.17558-0.56935-0.17559-0.74494 0-0.17558 0.17558 0.17558 0.56935 0 0.74493-0.17558 0.17559-0.52284-0.11105-0.74494 0-0.3141 0.15705-0.43084 0.58789-0.74494 0.74494-0.2221 0.11105-0.56935-0.17558-0.74494 0s0.17558 0.56935 0 0.74494c-0.17558 0.17558-0.56935-0.17559-0.74494 0-0.17558 0.17558 0.17558 0.56935 0 0.74493-0.17558 0.17559-0.52284-0.11105-0.74494 0-0.62818 0.3141-0.86169 1.1758-1.4899 1.4899-0.2221 0.11104-0.56935-0.17559-0.74494 0-0.17558 0.17558 0.17558 0.56935 0 0.74493s-0.56935-0.17558-0.74493 0c-0.17559 0.17558 0.17558 0.56936 0 0.74494-0.17559 0.17558-0.52284-0.11105-0.74494 0-0.3141 0.15705-0.43084 0.58789-0.74494 0.74494-0.2221 0.11104-0.56936-0.17559-0.74494 0-0.17558 0.17558 0.17558 0.56935 0 0.74493-0.17558 0.17559-0.56936-0.17558-0.74494 0-0.17558 0.17559 0.17558 0.56936 0 0.74494-1.5413 1.5413 0.06025-2.3553-1.4899 0.74494-0.11105 0.22209 0.17558 0.56935 0 0.74493-1.5413 1.5413 0.06025-2.3553-1.4899 0.74494-0.11105 0.2221 0.17558 0.56935 0 0.74494-0.35117 0.35116-1.1387-0.35117-1.4899 0-0.17558 0.17558 0.17558 0.56935 0 0.74493-0.17558 0.17559-0.52284-0.11105-0.74494 0-0.31409 0.15705-0.43084 0.58789-0.74494 0.74494-0.2221 0.11105-0.56935-0.17558-0.74494 0s0.17558 0.56935 0 0.74494c-0.35116 0.35116-1.1387-0.35117-1.4899 0-0.17558 0.17558 0.17559 0.56935 0 0.74493-0.17558 0.17559-0.52284-0.11104-0.74493 0-0.3141 0.15705-0.43084 0.58789-0.74494 0.74495-0.2221 0.11105-0.56935-0.1756-0.74494 0-0.17558 0.17558 0.17558 0.56933 0 0.74494-0.35117 0.35115-1.1387-0.35119-1.4899 0-0.17558 0.17557 0.17558 0.56935 0 0.74493s-0.52284-0.11105-0.74494 0c-0.31409 0.15703-0.43084 0.58788-0.74494 0.74493-0.2221 0.11105-0.52284-0.11104-0.74494 0-0.31409 0.15703-0.43084 0.58788-0.74494 0.74494-0.2221 0.11104-0.56935-0.17558-0.74494 0-0.17558 0.17558 0.17558 0.56936 0 0.74493-0.17558 0.17558-0.56935-0.17557-0.74494 0-0.17558 0.17558 0.17558 0.56936 0 0.74494-0.35116 0.35118-1.1387-0.35116-1.4899 0-0.17558 0.17557 0.17558 0.56935 0 0.74493s-0.52284-0.11104-0.74494 0c-2.4706 2.4706 0.70233-0.35115-1.4899 0.74494-0.3141 0.15705-0.43084 0.5879-0.74494 0.74493-0.2221 0.11105-0.52284-0.11105-0.74494 0-0.31409 0.15706-0.43084 0.5879-0.74494 0.74493-0.2221 0.11108-0.52284-0.11104-0.74494 0-0.31409 0.15706-0.43084 0.58791-0.74494 0.74497-0.2221 0.11104-0.56935-0.17561-0.74494 0-0.17558 0.17557 0.17558 0.56933 0 0.74493-0.35117 0.35116-1.1387-0.35118-1.4899 0-0.17558 0.17558 0.17558 0.56933 0 0.74493-0.35117 0.35116-1.1387-0.35118-1.4899 0-0.17558 0.17558 0.17558 0.56936 0 0.74494-0.35117 0.35115-1.0457-0.22209-1.4899 0-0.31409 0.15703-0.43084 0.58788-0.74494 0.74493-0.2221 0.11105-0.52284-0.11104-0.74494 0-0.31409 0.15703-0.43084 0.58788-0.74494 0.74494-0.2221 0.11104-0.52284-0.11105-0.74493 0-0.3141 0.15705-0.43084 0.58788-0.74494 0.74493-0.2221 0.11105-0.52284-0.11104-0.74494 0-0.31409 0.15706-0.43084 0.58791-0.74494 0.74494-0.2221 0.11104-0.56935-0.17558-0.74494 0-0.17558 0.17557 0.17558 0.56935 0 0.74493s-0.52284-0.11104-0.74494 0c-0.31409 0.15706-0.43084 0.5879-0.74494 0.74494-0.2221 0.11104-0.52284-0.11105-0.74494 0-0.31409 0.15705-0.43084 0.5879-0.74493 0.74493-0.2221 0.11107-0.52284-0.11105-0.74494 0-0.3141 0.15706-0.43084 0.5879-0.74494 0.74493-0.2221 0.11108-0.52284-0.11104-0.74494 0-3.9624 1.9812 2.4725-0.4913-1.4899 1.4899-0.2221 0.11104-0.52284-0.11105-0.74494 0-0.31409 0.15703-0.43084 0.58788-0.74494 0.74493-0.2221 0.11105-0.56935-0.17557-0.74494 0-0.17558 0.17558 0.17558 0.56936 0 0.74494s-0.52284-0.11105-0.74494 0c-0.3141 0.15703-0.43084 0.58788-0.74494 0.74493-0.2221 0.11105-0.52284-0.11104-0.74494 0-0.31409 0.15706-0.43084 0.58788-0.74494 0.74494-0.2221 0.11104-0.56935-0.17558-0.74494 0-0.17558 0.17557 0.17558 0.56935 0 0.74493-0.35116 0.35118-1.1387-0.35115-1.4899 0-0.17558 0.17558 0.17558 0.56936 0 0.74494-0.35117 0.35118-1.1387-0.35116-1.4899 0-0.17558 0.17557 0.17558 0.56935 0 0.74493-0.9464 0.94639-0.54348-0.94639-1.4899 0-0.17558 0.17558 0.17558 0.56936 0 0.74493-0.17558 0.17561-0.52284-0.11104-0.74494 0-0.31409 0.15706-0.43084 0.58791-0.74494 0.74494-0.2221 0.11107-0.52284-0.11105-0.74494 0-0.31409 0.15705-0.43084 0.5879-0.74494 0.74496-0.2221 0.11104-0.56935-0.1756-0.74494 0-0.17558 0.17558 0.17558 0.56933 0 0.74493-0.35117 0.35116-1.0457-0.22211-1.4899 0-0.31409 0.15703-0.43084 0.58788-0.74494 0.74494-0.2221 0.11104-0.52284-0.11105-0.74494 0-0.31409 0.15703-0.43084 0.58788-0.74494 0.74493-0.44419 0.22209-1.1387-0.35118-1.4899 0-0.17558 0.17558 0.17558 0.56936 0 0.74494-0.79375 0.79375-0.69612-0.79375-1.4899 0-0.17558 0.17557 0.17558 0.56935 0 0.74493-0.35117 0.35116-1.1387-0.35115-1.4899 0-0.17558 0.17558 0.17558 0.56936 0 0.74494-0.37247 0.37248-1.8623-0.37246-2.2348 0-0.17558 0.17557 0.17558 0.56935 0 0.74493-0.35117 0.35118-1.0457-0.22209-1.4899 0-0.31409 0.15706-0.43084 0.5879-0.74494 0.74493-0.4442 0.2221-1.0457-0.22209-1.4899 0-0.31409 0.15706-0.43084 0.58791-0.74494 0.74494-0.4442 0.22212-1.1387-0.35116-1.4899 0-0.17558 0.1756 0.17558 0.56936 0 0.74493-0.35117 0.35118-1.0457-0.22209-1.4899 0-0.31409 0.15706-0.43084 0.58791-0.74494 0.74494-0.44419 0.22211-1.0457-0.22209-1.4899 0-0.31409 0.15705-0.43084 0.5879-0.74494 0.74496-0.2221 0.11104-0.52284-0.11107-0.74494 0-0.31409 0.15703-0.43084 0.58788-0.74494 0.74493-0.44419 0.22209-1.1387-0.35118-1.4899 0-0.17558 0.17558 0.17558 0.56936 0 0.74494-0.35117 0.35115-1.0457-0.22209-1.4899 0-0.31409 0.15703-0.43084 0.58787-0.74494 0.74493-0.2221 0.11105-0.56935-0.17558-0.74494 0-0.17558 0.17558 0.17558 0.56936 0 0.74494-0.17558 0.17557-0.52284-0.11105-0.74494 0-0.31409 0.15705-0.43084 0.58787-0.74494 0.74493-0.44419 0.22209-1.1387-0.35116-1.4899 0-0.17558 0.17558 0.17558 0.56936 0 0.74493-0.35117 0.35119-1.1387-0.35115-1.4899 0-0.17558 0.17558 0.17558 0.56936 0 0.74494s-0.52284-0.11105-0.74494 0c-0.31409 0.15706-0.43084 0.5879-0.74494 0.74493-0.2221 0.11105-0.52284-0.11104-0.74494 0-0.31409 0.15706-0.43084 0.58791-0.74494 0.74494-0.2221 0.11104-0.52284-0.11105-0.74494 0-0.31409 0.15705-0.43084 0.5879-0.74494 0.74493-0.2221 0.11107-0.52284-0.11104-0.74494 0-0.31409 0.15706-0.43084 0.58791-0.74494 0.74496-0.2221 0.11105-0.52284-0.11107-0.74494 0-0.31409 0.15703-0.43084 0.58788-0.74494 0.74494-0.2221 0.11104-0.56935-0.17561-0.74494 0-0.17558 0.17557 0.17558 0.56933 0 0.74493-0.35117 0.35116-1.0457-0.22212-1.4899 0-0.31409 0.15703-0.43084 0.58788-0.74494 0.74494-0.2221 0.11104-0.56935-0.17558-0.74494 0-0.17558 0.17557 0.17558 0.56935 0 0.74493-0.35117 0.35115-1.1387-0.35118-1.4899 0-0.17558 0.17558 0.17558 0.56936 0 0.74493-0.17558 0.17558-0.52284-0.11104-0.74494 0-0.31409 0.15706-0.43084 0.58788-0.74494 0.74494-0.2221 0.11104-0.52284-0.11105-0.74494 0-0.31409 0.15706-0.43084 0.5879-0.74494 0.74493-0.2221 0.11105-0.52284-0.11104-0.74494 0-0.31409 0.15706-0.43084 0.58791-0.74494 0.74494-0.2221 0.11104-0.56935-0.17558-0.74494 0-0.17558 0.17557 0.17558 0.56935 0 0.74493-0.35117 0.35118-1.1387-0.35115-1.4899 0-0.17558 0.17561 0.17558 0.56936 0 0.74494-0.35117 0.35118-1.1387-0.35116-1.4899 0-0.17558 0.1756 0.17558 0.56935 0 0.74493-0.17558 0.1756-0.52284-0.11105-0.74494 0-0.31409 0.15706-0.43084 0.5879-0.74494 0.74496-0.2221 0.11105-0.56935-0.1756-0.74494 0-0.17558 0.17558 0.17558 0.56933 0 0.74494-0.17558 0.17557-0.52284-0.11105-0.74494 0-0.31409 0.15703-0.43084 0.58787-0.74494 0.74493-0.4442 0.22209-1.1387-0.35118-1.4899 0-0.17558 0.17558 0.17558 0.56936 0 0.74493-0.17558 0.17558-0.56935-0.17557-0.74494 0-0.17559 0.17558 0.17558 0.56936 0 0.74494-0.35117 0.35115-1.1387-0.35118-1.4899 0-0.17558 0.17558 0.17558 0.56936 0 0.74493-0.35117 0.35116-1.1387-0.35115-1.4899 0-0.17558 0.17558 0.17558 0.56936 0 0.74494-0.35117 0.35118-1.1387-0.35116-1.4899 0-0.17558 0.17557 0.17558 0.56935 0 0.74493s-0.52284-0.11104-0.74494 0c-0.31409 0.15706-0.43084 0.58791-0.74494 0.74494-0.2221 0.11104-0.56935-0.17558-0.74494 0-0.17558 0.17557 0.17558 0.56935 0 0.74493-0.35117 0.35118-1.1387-0.35115-1.4899 0-0.17558 0.1756 0.17558 0.56936 0 0.74493-0.17558 0.17561-0.56935-0.17557-0.74494 0-0.17558 0.17561 0.17558 0.56936 0 0.74497-0.17558 0.17557-0.52284-0.11108-0.74494 0-0.31409 0.15703-0.43084 0.58787-0.74494 0.74493-0.2221 0.11105-0.52284-0.11105-0.74493 0-0.3141 0.15703-0.43084 0.58788-0.74494 0.74493-0.2221 0.11105-0.56935-0.1756-0.74494 0-0.17558 0.17558 0.17558 0.56936 0 0.74494s-0.56935-0.17558-0.74494 0 0.17558 0.56936 0 0.74493c-0.35117 0.35116-1.1387-0.35118-1.4899 0-0.17558 0.17558 0.17558 0.56936 0 0.74494s-0.56935-0.17558-0.74494 0 0.17558 0.56935 0 0.74493c-0.35117 0.35116-1.1387-0.35115-1.4899 0-0.17558 0.17558 0.17558 0.56936 0 0.74494-0.17558 0.17557-0.56935-0.17558-0.74494 0-0.17558 0.17557 0.17558 0.56935 0 0.74493-0.35117 0.35118-1.1387-0.35115-1.4899 0-0.17558 0.17558 0.17558 0.56936 0 0.74493-0.17558 0.17561-0.56935-0.17557-0.74494 0-0.17558 0.17561 0.17558 0.56936 0 0.74494-0.35116 0.35118-1.1387-0.35116-1.4899 0-0.17558 0.1756 0.17558 0.56936 0 0.74493-0.35116 0.35119-1.1387-0.35115-1.4899 0-0.17558 0.17561 0.17558 0.56936 0 0.74496-0.35117 0.35116-1.0457-0.22211-1.4899 0-0.31409 0.15703-0.43084 0.58788-0.74494 0.74494-0.4442 0.22209-1.1387-0.35118-1.4899 0-0.17558 0.17558 0.17558 0.56936 0 0.74493-0.35117 0.35116-1.1387-0.35118-1.4899 0-0.17558 0.17558 0.17558 0.56936 0 0.74494-0.37247 0.37245-1.8623-0.37248-2.2348 0-0.17558 0.17558 0.2221 0.85598 0 0.74493-1.1105-0.55525-1.9865-1.4899-2.9797-2.2348z" fill="url(#t13neb)" filter="url(#t13neh)" inkscape:connector-curvature="0"/>
   <path transform="matrix(1 0 0 .83164 0 48.105)" d="m-39.482 279.79c22.782 1.7879 45.523-3.7728 68.405-1.2589 48.503 3.751 97.132-0.5452 145.74 0.55882 31.879 0.19434 63.768 1.7437 95.312 6.0122 61.011-1.1494 122.19 3.7815 183.02-3.2706 32.07-2.55 64.343-2.7849 96.131-7.0986 2.3145-19.012-3.134-45.136 4.9597-66.284 0.0482-21.488-4.7229-42.807-2.747-64.452 1.0786-12.557-0.91553-23.017-12.252-10.089-22.718 4.3104-46.184 6.3778-69.079 4.5577-20.852-6.8518-38.585-19.504-59.072-26.375-19.553-2.7785-27.142 17.446-40.476 28.048-23.184 9.6472-18.752 38.552-37.471 52.492-16.091 13.021-35.655 18.232-54.659 25.29-21.718 3.95-43.103 0.56134-63.621 12.116-20.129 0.50663-26.828-18.429-41.805-22.847-12.744-14.558-5.153-46.322-29.129-48.826-7.2801-17.488-27.009-18.332-39.076-32.385-21.477-2.716-37.469 12.801-57.31 18.298-10.6 1.0156-5.2956 39.321-13.939 17.436-7.8344-8.1191-2.5852 14.099 2.3097 18.254-14.156 14.958-24.242 31.402-35.929 49.409-18.94 10.983-29.595 28.565-38.751 48.195z" fill="url(#t13nee)" filter="url(#t13nek)" inkscape:connector-curvature="0"/>
   <path d="m-16.86 183.54c23.019-13.852 53.964-14.185 75.729 2.3877 28.06 14.789 60.624 23.698 92.542 17.966 21.113 0.41738 39.421-8.2838 50.415-24.673 18.844-3.2523 17.188-35.449 39.987-23.104 15.956-6.4161 31.108-6.2541 43.219 5.936 18.167 1.7475 29.078 20.833 48.973 22.977 15.837 11.925 33.746 22.946 54.367 23.208 24.781-3.6149 48.127 14.19 72.647 6.3798 19.214-3.7652 39.625-13.896 58.343-12.11 4.3976 20.838-9.5818 43.102-3.1052 64.588 5.3687 18.179 14.584 36.246 9.7164 55.792-12.84 20.322-44.051 14.238-64.903 20.974-50.572 9.0045-102.09 11.143-153.34 8.7063-30.392-2.1626-60.693 1.0123-91.04 2.348-35.186 0.39252-70.295-1.1203-105.4-3.5315-38.25-2.4-79.958 8.0827-114.68-13.196-23.992-14.69-15.778-44.324-13.253-67.109 1.5259-23.431 2.057-46.911 2.7573-70.407-1.1709-5.6943-3.2236-11.224-2.9797-17.134z" fill="url(#t13nef)" filter="url(#t13nel)" inkscape:connector-curvature="0"/>
   <path d="m-40.227 334.92c2.4831 0.49663 4.9579 1.0369 7.4494 1.4899 0.68228 0.12407 1.54 0 2.2348 0h54.38c0.49662 0 1.0081 0.12044 1.4899 0 0.53866-0.13467 0.95121-0.61026 1.4899-0.74493 0.4818-0.12047 0.99325 0 1.4899 0h4.4696c1.0773 0 4.4279 0.15732 5.2146 0 0.54446-0.1089 0.95121-0.61026 1.4899-0.74494 0.4818-0.12046 0.99325 0 1.4899 0 1.3463 0 4.044 0.16722 5.2146 0 1.0135-0.1448 1.9638-0.61796 2.9797-0.74493 1.4704-0.18381 4.2838 0 5.9595 0h16.389c0.99325 0 1.9965 0.14047 2.9797 0 0.77734-0.11105 1.4648-0.59095 2.2348-0.74494 0.48698-0.0974 0.99325 0 1.4899 0h8.9392c0.24831 0 0.50937-0.0785 0.74494 0 0.52675 0.17558 0.95121 0.61027 1.4899 0.74494 0.58598 0.14647 3.6949 0 4.4696 0h23.093c0.79632 0 4.4078 0.16134 5.2146 0 0.76999-0.15402 1.4648-0.59095 2.2348-0.74494 0.97396-0.19481 1.9865 0 2.9797 0h17.134c0.99325 0 2.0058-0.19481 2.9798 0 0.76998 0.15399 1.4648 0.59092 2.2348 0.74494 0.48698 0.0974 0.99325 0 1.4899 0h11.919c0.79632 0 4.4078-0.16134 5.2146 0 0.76998 0.15399 1.4648 0.59092 2.2348 0.74493 0.80671 0.16135 4.4182 0 5.2146 0 0.49662 0 1.0081-0.12046 1.4899 0 0.53866 0.13468 0.94021 0.66641 1.4899 0.74494 2.2124 0.31604 4.5-0.3674 6.7044 0 0.54769 0.0913 0.95121 0.61026 1.4899 0.74493 0.48179 0.12044 0.99324 0 1.4899 0 0.77468 0 3.8836-0.1465 4.4696 0 0.53866 0.13467 0.95121 0.61026 1.4899 0.74494 1.1152 0.27879 3.2903-0.23588 4.4696 0 0.76998 0.15398 1.4648 0.59094 2.2348 0.74493 0.48698 0.0974 1-0.0816 1.4899 0 1.0099 0.16833 1.9638 0.61796 2.9798 0.74494 1.4784 0.18481 2.9798 0 4.4696 0 0.49663 0 1.0081-0.12044 1.4899 0 0.53866 0.13467 0.9512 0.61028 1.4899 0.74493 0.4818 0.12046 0.99325 0 1.4899 0h14.899c0.49662 0 1.0081-0.12044 1.4899 0 0.53866 0.13467 0.94541 0.63606 1.4899 0.74493 0.73047 0.14611 1.4899 0 2.2348 0h58.105c0.74493 0 1.5-0.12245 2.2348 0 0.77455 0.12909 1.4544 0.65823 2.2348 0.74494 1.4808 0.16454 2.9797 0 4.4696 0h34.267c0.74494 0 1.5-0.12245 2.2348 0 0.77454 0.12911 1.4603 0.61584 2.2348 0.74496 0.7348 0.12245 1.4899 0 2.2348 0h59.596c1.2416 0 2.5 0.2041 3.7247 0 0.77454-0.12912 1.4603-0.61585 2.2348-0.74496 1.2246-0.2041 2.4831 0 3.7247 0h10.429c1.2416 0 2.5 0.20412 3.7247 0 0.77454-0.12909 1.4648-0.59092 2.2348-0.74494 0.487-0.0974 0.99325 0 1.4899 0h9.6842c0.74496 0 1.5043 0.14611 2.2348 0 0.54446-0.10887 0.94541-0.63603 1.4899-0.74493 0.73047-0.14608 1.4899 0 2.2348 0h6.7044c7.1292 0-1.6657 0.33316 3.7247-0.74493 0.73049-0.14608 1.4899 0 2.2348 0h6.7044c0.49665 0 1.0081 0.12046 1.4899 0 0.53866-0.13468 0.9512-0.61027 1.4899-0.74494 0.48178-0.12044 0.99324 0 1.4899 0h8.1943c3.775 0-0.88839 0.22209 2.9797-0.74493 0.4818-0.12044 0.99324 0 1.4899 0h5.9595c0.49662 0 1.0081 0.12043 1.4899 0 0.53866-0.13468 0.95123-0.61027 1.4899-0.74494 0.4818-0.12044 0.99327 0 1.4899 0h5.9595c0.49662 0 1.0081 0.12044 1.4899 0 0.53867-0.13467 0.9512-0.61026 1.4899-0.74493 0.48178-0.12047 0.99324 0 1.4899 0h5.9595c4.9413 0-1.0535 0.35115 2.2348-0.74494 0.47115-0.15705 0.99325 0 1.4899 0h6.7045c0.74493 0 1.5281 0.23556 2.2348 0 0.33314-0.11104 0.4118-0.63389 0.74493-0.74493 0.42686-0.14229 3.0253 0 3.7247 0h9.6842c1.747 0-0.35119 0.17558 1.4899-0.74494 0.22649-0.11324 2.4654 0 2.9797 0h6.7044c0.24831 0 0.52284 0.11105 0.74493 0 0.31409-0.15705 0.43085-0.5879 0.74494-0.74496 0.22209-0.11104 0.49662 0 0.74493 0h0.74494c0.24831 0 0.74493-0.24831 0.74493 0 0 0.24834-0.56933 0.17561-0.74493 0-0.17558-0.17557 0-0.49662 0-0.74493 0-0.51813-0.1347-3.4553 0-3.7247 0.15705-0.31409 0.5879-0.43085 0.74493-0.74494 0.25728-0.51456-0.26149-3.4632 0-3.7247 0.1756-0.17557 0.56936 0.17561 0.74496 0 0.26149-0.26148-0.25728-3.2101 0-3.7247 0.15703-0.31408 0.58788-0.43084 0.74493-0.74493 0.0963-0.19262 0-3.9416 0-4.4696v-0.74494c0-0.24831-0.1756-0.56936 0-0.74493 0.17558-0.17558 0.56936 0.17557 0.74494 0 0.17558-0.17558 0-0.49663 0-0.74494v-0.74493c0-0.528-0.0963-4.277 0-4.4696 0.15703-0.31411 0.58788-0.43085 0.74493-0.74496 0.11335-0.22669 0-1.8993 0-2.2348v-5.2145c0-0.33549-0.11334-2.0081 0-2.2348 0.15703-0.31409 0.58788-0.43085 0.74494-0.74494 0.11104-0.22209 0-0.49662 0-0.74493v-5.2145c0-0.33549-0.11335-2.0081 0-2.2348 0.15705-0.31409 0.58788-0.43085 0.74493-0.74493 0.11105-0.2221 0-0.49663 0-0.74494v-5.2145c0-0.33546-0.11335-2.0081 0-2.2348 0.92051-1.841 0.74494 0.25715 0.74494-1.4899 0-0.51813-0.1347-3.4553 0-3.7247 0.15705-0.31411 0.5879-0.43085 0.74493-0.74493 0.20206-0.40413-0.20383-2.7759 0-2.9798 0.17558-0.17558 0.56936 0.17558 0.74494 0 0.26148-0.26149-0.25729-3.2101 0-3.7247 0.15705-0.31409 0.5879-0.43085 0.74493-0.74493 0.2341-0.46821-0.2341-2.5116 0-2.9798 0.15706-0.31409 0.5879-0.43085 0.74493-0.74494 0.29798-0.59595-0.29797-1.6389 0-2.2348 0.15706-0.31409 0.58791-0.43084 0.74496-0.74493 0.23411-0.46821-0.23412-2.5115 0-2.9798 0.15704-0.31409 0.58788-0.43085 0.74494-0.74494 0.29797-0.59595-0.29797-1.6389 0-2.2348 0.15703-0.31409 0.58788-0.43084 0.74493-0.74493 0.23411-0.46821-0.2341-2.5115 0-2.9798 0.15703-0.31409 0.58788-0.43084 0.74494-0.74494 0.23497-0.46995-0.23498-3.2547 0-3.7247 0.15703-0.31409 0.58788-0.43085 0.74493-0.74494 0.0979-0.19587 0-2.5902 0-2.9797 0-0.18067-0.0241-2.2109 0-2.2348 0.17558-0.17559 0.56936 0.17558 0.74494 0 0.17557-0.17559 0-0.49663 0-0.74494v-44.696c0-0.33549 0.11334-2.0081 0-2.2348-0.15706-0.31409-0.58791-0.43084-0.74494-0.74494-0.1347-0.26939 0-3.2066 0-3.7247v-8.1943c0-0.27356 0.03-2.9498 0-2.9797-0.17558-0.17558-0.56935 0.17558-0.74493 0-0.03-0.03 0-2.7062 0-2.9798v-6.7044c0-0.24831-0.17558-0.56935 0-0.74493 0.17558-0.17559 0.56935 0.17558 0.74493 0 0.17558-0.17559 0-0.49663 0-0.74494v-4.4696c0-0.24831 0.17558-0.56935 0-0.74494-0.0745-0.0745-2.1603-0.0745-2.2348 0-0.1756 0.17559 0.17558 0.56935 0 0.74494-0.37248 0.37247-1.8624-0.37247-2.2348 0-0.17558 0.17558 0.1756 0.56935 0 0.74493-0.03 0.03-2.7062 0-2.9797 0s-2.9498-0.03-2.9797 0c-0.1756 0.17559 0.24832 0.74494 0 0.74494-0.35118 0-0.39377-0.74494-0.74493-0.74494-0.35118 0-0.43085 0.58789-0.74496 0.74494-0.26937 0.1347-3.2065 0-3.7247 0-0.35124 0-3.6909-0.0338-3.7247 0-0.17561 0.17558 0.17557 0.56936 0 0.74494-0.1523 0.15229-1.9394-0.14768-2.2348 0-0.31409 0.15704-0.43085 0.58789-0.74494 0.74494-0.44418 0.22209-1.1387-0.35117-1.4899 0-0.17557 0.17558 0.17558 0.56935 0 0.74493-0.17925 0.17926-2.8005-0.17925-2.9797 0-0.17558 0.17558 0.17557 0.56936 0 0.74494-0.26149 0.26149-3.2101-0.25728-3.7247 0-0.31409 0.15705-0.43085 0.58789-0.74494 0.74494-0.40412 0.20206-2.7759-0.20384-2.9797 0-0.17558 0.17558 0.17557 0.56935 0 0.74493-0.37248 0.37247-1.8624-0.37247-2.2348 0-0.1756 0.17559 0.17558 0.56935 0 0.74494-0.1756 0.17558-0.56935-0.17559-0.74493 0-0.17561 0.17558 0.11104 0.52284 0 0.74493-0.15706 0.3141-0.58791 0.43085-0.74496 0.74494-0.11105 0.2221 0.1756 0.56936 0 0.74494-0.17558 0.17558-0.56933-0.17558-0.74494 0-0.17557 0.17558 0.17561 0.56935 0 0.74494-0.17557 0.17558-0.56935-0.17559-0.74493 0-0.17558 0.17558 0.17558 0.56935 0 0.74493-0.49559 0.49561-0.99425-0.49561-1.4899 0-0.17558 0.17559 0.11105 0.52284 0 0.74494-1.5501 3.1002 0.0514-0.79636-1.4899 0.74494-0.17558 0.17558 0.17558 0.56935 0 0.74493-0.49562 0.49561-0.99428-0.49561-1.4899 0-0.17558 0.17559 0.17558 0.56936 0 0.74494s-0.74493 0.24831-0.74493 0 0.99324 0 0.74493 0c-4.2213 0-0.24831-0.49662-1.4899 0.74493-0.1756 0.17559-0.49665 0-0.74496 0h-3.7247c-0.24831 0-0.56936-0.17558-0.74493 0-0.17558 0.17559 0.17557 0.56936 0 0.74494-0.0338 0.0338-3.3734 0-3.7247 0-0.18068 0-2.2108-0.024-2.2348 0-0.17558 0.17558 0.24831 0.74494 0 0.74494-0.35116 0-0.43085-0.58789-0.74494-0.74494-1.6272-0.81362 4e-3 2.2386-1.4899 0.74494-0.17558-0.17558 0.17558-0.56936 0-0.74494s-0.56935-0.17558-0.74493 0 0.17558 0.56936 0 0.74494-0.49663 0-0.74494 0c-1.9865 0 0.24831 0.24831-0.74493-0.74494-0.17558-0.17558-0.49662 0-0.74494 0h-18.623c-0.18066 0-2.2108 0.024-2.2348 0-0.17557-0.17558 0.17558-0.56935 0-0.74494-0.0745-0.0745-2.1603-0.0745-2.2348 0-0.17558 0.17559 0.17558 0.56936 0 0.74494s-0.49662 0-0.74493 0h-3.7247c-0.24831 0-0.56933-0.17558-0.74494 0-0.17557 0.17558 0.17561 0.56936 0 0.74494-0.17557 0.17558-0.49662 0-0.74493 0-0.35124 0-3.6909-0.0338-3.7247 0-0.17558 0.17558 0.17557 0.56935 0 0.74494-0.17558 0.17558-0.49663 0-0.74494 0h-3.7247c-0.24831 0-0.56935 0.17558-0.74493 0-0.17558-0.17559 0.17558-0.56936 0-0.74494-0.37245-0.37247-1.8624 0.37247-2.2348 0-0.17558-0.17558 0.17557-0.56936 0-0.74494-0.35118-0.35116-1.0457 0.2221-1.4899 0-0.31409-0.15704-0.43085-0.58789-0.74494-0.74494-0.44421-0.22209-1.1387 0.35117-1.4899 0-0.17558-0.17558 0.1756-0.56935 0-0.74493-0.17558-0.17558-0.52282 0.11105-0.74494 0-0.31408-0.15705-0.43082-0.58789-0.74493-0.74494-0.22209-0.11105-0.56936 0.17559-0.74493 0-0.17558-0.17558 0.17557-0.56935 0-0.74493-0.4956-0.49562-0.99426 0.49561-1.4899 0-0.17558-0.17559 0.17557-0.56936 0-0.74494-0.35116-0.35117-1.1387 0.35117-1.4899 0-0.17558-0.17559 0.17558-0.56935 0-0.74494-0.37248-0.37247-1.8624 0.37247-2.2348 0-0.1756-0.17558 0.17558-0.56935 0-0.74493-0.35118-0.35117-1.0457 0.22209-1.4899 0-0.31409-0.15705-0.43082-0.5879-0.74493-0.74494-0.2221-0.11105-0.52285 0.11105-0.74494 0-0.31409-0.15705-0.43085-0.58789-0.74493-0.74494-0.2267-0.11335-1.8993 0-2.2348 0-0.24831 0-0.56935-0.17558-0.74493 0s0.17558 0.56936 0 0.74494c-0.37248 0.37247-1.8624-0.37247-2.2348 0-0.17561 0.17558 0.17557 0.56935 0 0.74494-0.03 0.03-2.7062 0-2.9798 0-0.18066 0-2.2109 0.024-2.2348 0-0.17558-0.17559 0.17558-0.56936 0-0.74494s-0.49662 0-0.74494 0c-0.35123 0-3.6909-0.0338-3.7247 0-0.17558 0.17558 0.1756 0.56935 0 0.74494-0.23067 0.23066-3.494-0.23067-3.7247 0-0.17557 0.17558 0.17558 0.56935 0 0.74493-0.37248 0.37247-1.8623-0.37247-2.2348 0-0.17558 0.17559 0.17558 0.56935 0 0.74494-0.37248 0.37247-1.8624-0.37247-2.2348 0-0.17558 0.17558 0.17561 0.56935 0 0.74494-0.17925 0.17925-2.8005-0.17926-2.9797 0-0.17557 0.17558 0.17558 0.56935 0 0.74493-0.49561 0.49561-0.99425-0.49561-1.4899 0-0.17558 0.17559 0.17557 0.56936 0 0.74494-0.35116 0.35117-1.1387-0.35117-1.4899 0-0.17558 0.17558 0.17557 0.56935 0 0.74493-0.49562 0.49561-0.99428-0.4956-1.4899 0-0.17561 0.17559 0.17558 0.56936 0 0.74494-0.17561 0.17558-0.56936-0.17558-0.74494 0-0.1756 0.17558 0.17558 0.56936 0 0.74494-0.35118 0.35116-1.1387-0.35117-1.4899 0-0.17558 0.17558 0.1756 0.56935 0 0.74494-0.17558 0.17558-0.56936-0.17559-0.74494 0-0.17557 0.17558 0.17558 0.56935 0 0.74493-0.17557 0.17559-0.56935-0.17558-0.74493 0-0.17558 0.17559 0.17558 0.56935 0 0.74494-0.35116 0.35117-1.1387-0.35117-1.4899 0-0.17558 0.17558 0.17558 0.56935 0 0.74493-0.17558 0.17559-0.56936-0.17558-0.74493 0-0.17558 0.17559 0.17557 0.56936 0 0.74494-0.35118 0.35117-1.1387-0.35116-1.4899 0-0.17558 0.17558 0.17558 0.56936 0 0.74494s-0.49662 0-0.74494 0h-0.74493c-0.24831 0-0.74496 0.24831-0.74496 0s0.99327 0 0.74496 0c-4.2213 0-0.24831-0.49662-1.4899 0.74494-0.35115 0.35116-1.0457-0.2221-1.4899 0-0.31409 0.15704-0.43085 0.58789-0.74494 0.74493-0.44418 0.2221-1.1387-0.35117-1.4899 0-0.17558 0.17559 0.17558 0.56936 0 0.74494-0.17925 0.17925-2.8005-0.17926-2.9797 0-0.1756 0.17558 0.17558 0.56935 0 0.74494-0.35118 0.35116-1.1387-0.35117-1.4899 0-0.17558 0.17558 0.1756 0.56935 0 0.74493-0.35116 0.35117-1.1387-0.35116-1.4899 0-0.17558 0.17559 0.17558 0.56936 0 0.74494-0.35115 0.35117-1.0457-0.2221-1.4899 0-0.31408 0.15704-0.43085 0.58789-0.74493 0.74493-0.22209 0.11105-0.56936-0.17558-0.74494 0-0.17557 0.17559 0.17558 0.56936 0 0.74494-0.35118 0.35117-1.1387-0.35116-1.4899 0-0.17557 0.17558 0.17558 0.56936 0 0.74494-0.17557 0.17558-0.52284-0.11105-0.74493 0-0.31411 0.15704-0.43085 0.58789-0.74493 0.74494-0.22212 0.11104-0.56936-0.17559-0.74496 0-0.17558 0.17558 0.1756 0.56935 0 0.74493-0.17558 0.17559-0.52282-0.11105-0.74494 0-0.31409 0.15705-0.43082 0.58789-0.74493 0.74494-0.22209 0.11105-0.56936-0.17559-0.74494 0-0.17558 0.17558 0.17558 0.56935 0 0.74493-0.17558 0.17559-0.52284-0.11104-0.74493 0-0.31409 0.15705-0.43085 0.5879-0.74494 0.74494-0.22209 0.11105-0.56935-0.17558-0.74493 0s0.17558 0.56936 0 0.74494c-0.49562 0.49561-0.99428-0.49561-1.4899 0-0.17558 0.17558 0.17558 0.56935 0 0.74494-0.17558 0.17558-0.56936-0.17559-0.74493 0-0.17561 0.17558 0.17557 0.56935 0 0.74493-0.35119 0.35117-1.1387-0.35116-1.4899 0-0.17558 0.17559 0.1756 0.56936 0 0.74494-0.17558 0.17558-0.56933-0.17558-0.74493 0-0.17558 0.17558 0.1756 0.56935 0 0.74494-0.35116 0.35116-1.1387-0.35117-1.4899 0-0.17558 0.17558 0.17558 0.56935 0 0.74493-0.49559 0.49561-0.99425-0.49561-1.4899 0-0.17558 0.17559 0.17558 0.56935 0 0.74494-0.35116 0.35117-1.1387-0.35117-1.4899 0-0.17558 0.17558 0.17558 0.56935 0 0.74493-0.35118 0.35117-1.1387-0.35116-1.4899 0-0.1756 0.17559 0.17558 0.56936 0 0.74494-0.1756 0.17558-0.56936-0.17558-0.74493 0-0.17561 0.17558 0.17557 0.56936 0 0.74494-0.35118 0.35116-1.1387-0.35117-1.4899 0-0.17558 0.17558 0.17561 0.56935 0 0.74494-0.17558 0.17558-0.56933-0.17559-0.74493 0-0.17558 0.17558 0.1756 0.56935 0 0.74493-0.17558 0.17559-0.52282-0.11105-0.74494 0-0.31408 0.15705-0.43084 0.58789-0.74493 0.74494-0.22209 0.11105-0.56936-0.17559-0.74494 0-0.17557 0.17558 0.17558 0.56935 0 0.74494-0.49561 0.49561-0.99425-0.49562-1.4899 0-0.17558 0.17558 0.17557 0.56935 0 0.74493-0.17558 0.17559-0.56936-0.17558-0.74494 0-0.17558 0.17559 0.17558 0.56936 0 0.74494-0.49562 0.49561-0.99428-0.49561-1.4899 0-0.1756 0.17558 0.17558 0.56935 0 0.74494-0.35118 0.35116-1.1387-0.35117-1.4899 0-0.17558 0.17558 0.1756 0.56935 0 0.74493-0.17558 0.17558-0.52282-0.11105-0.74494 0-0.31408 0.15705-0.43082 0.58789-0.74493 0.74494-0.22209 0.11105-0.56936-0.17558-0.74494 0-0.17557 0.17558 0.17558 0.56935 0 0.74494-0.35115 0.35116-1.1387-0.35117-1.4899 0-0.17558 0.17558 0.17557 0.56935 0 0.74493-0.35116 0.35117-1.1387-0.35117-1.4899 0-0.17558 0.17559 0.17557 0.56935 0 0.74494-0.35118 0.35117-1.1387-0.35117-1.4899 0-0.17561 0.17558 0.17558 0.56935 0 0.74493-0.37248 0.37247-1.8624-0.37246-2.2348 0-0.17558 0.17559 0.1756 0.56936 0 0.74494-0.49559 0.49561-0.99425-0.49561-1.4899 0-0.17558 0.17558 0.17558 0.56936 0 0.74494-0.35116 0.35116-1.1387-0.35117-1.4899 0-0.17558 0.17558 0.17558 0.56935 0 0.74494-0.49562 0.49561-0.99425-0.49561-1.4899 0-0.17558 0.17558 0.17558 0.56935 0 0.74493-0.35118 0.35117-1.1387-0.35116-1.4899 0-0.17557 0.17559 0.17558 0.56936 0 0.74494-0.49561 0.49561-0.99427-0.49561-1.4899 0-0.1756 0.17558 0.17558 0.56935 0 0.74494-0.35118 0.35116-1.0457-0.2221-1.4899 0-0.31409 0.15704-0.43082 0.58788-0.74493 0.74493-0.2221 0.11105-0.52285-0.11105-0.74494 0-0.31409 0.15705-0.43085 0.58789-0.74493 0.74494-0.22209 0.11105-0.52285-0.11105-0.74494 0-0.31408 0.15705-0.43085 0.58789-0.74493 0.74494-0.22209 0.11104-0.52285-0.11105-0.74494 0-0.31408 0.15704-0.43084 0.58789-0.74493 0.74493-0.22209 0.11105-0.52284-0.11105-0.74494 0-0.31411 0.15705-0.43084 0.58789-0.74493 0.74494-0.44421 0.2221-1.1387-0.35117-1.4899 0-0.17558 0.17558 0.1756 0.56935 0 0.74494-0.35116 0.35116-1.1387-0.35117-1.4899 0-0.17558 0.17558 0.17557 0.56935 0 0.74493-0.37246 0.37247-1.8623-0.37247-2.2348 0-0.17557 0.17559 0.17558 0.56935 0 0.74494-0.35115 0.35117-1.0457-0.2221-1.4899 0-0.31408 0.15705-0.43084 0.58789-0.74493 0.74493-0.44421 0.2221-1.1387-0.35116-1.4899 0-0.1756 0.17559 0.17558 0.56936 0 0.74494-0.15229 0.1523-1.9394-0.14768-2.2348 0-0.31408 0.15705-0.43085 0.58789-0.74493 0.74494-0.22209 0.11105-0.52285-0.11105-0.74494 0-0.31408 0.15704-0.43084 0.58789-0.74493 0.74494-0.44418 0.22209-1.0457-0.2221-1.4899 0-0.31409 0.15704-0.43085 0.58789-0.74493 0.74493-0.44421 0.2221-1.1387-0.35116-1.4899 0-0.17561 0.17559 0.17557 0.56936 0 0.74494-0.35118 0.35117-1.0457-0.2221-1.4899 0-0.31409 0.15705-0.43082 0.58789-0.74493 0.74494-0.44419 0.22209-1.1387-0.35117-1.4899 0-0.17558 0.17558 0.17558 0.56935 0 0.74493-0.37246 0.37247-1.8624-0.37247-2.2348 0-0.17558 0.17559 0.17557 0.56936 0 0.74494-0.17558 0.17558-0.49663 0-0.74494 0h-1.4899c-0.24831 0-0.52284-0.11105-0.74493 0-0.31412 0.15705-0.43085 0.58789-0.74496 0.74493-0.4041 0.20206-2.7759-0.20382-2.9797 0-0.17558 0.17559 0.17558 0.56936 0 0.74494-0.37245 0.37247-1.8624-0.37247-2.2348 0-0.17558 0.17558 0.17557 0.56936 0 0.74494-0.1523 0.15229-1.9394-0.14768-2.2348 0-0.31411 0.15705-0.43084 0.58789-0.74493 0.74494-0.79298 0.39648-0.69691-0.39649-1.4899 0-0.31408 0.15704-0.43084 0.58789-0.74493 0.74493-0.44418 0.2221-1.1387-0.35117-1.4899 0-0.17558 0.17559 0.17558 0.56936 0 0.74494-0.35115 0.35117-1.0457-0.2221-1.4899 0-0.31408 0.15705-0.43085 0.58789-0.74493 0.74494-0.44421 0.22209-1.1387-0.35117-1.4899 0-0.1756 0.17558 0.17558 0.56935 0 0.74493-0.37248 0.37247-1.8624-0.37247-2.2348 0-0.17558 0.17559 0.1756 0.56936 0 0.74494-0.15229 0.15229-1.9394-0.14768-2.2348 0-0.31409 0.15704-0.43085 0.58789-0.74494 0.74494-0.44418 0.22209-1.1387-0.35117-1.4899 0-0.17557 0.17558 0.17558 0.56935 0 0.74493-0.15229 0.15229-1.9394-0.14768-2.2348 0-0.31411 0.15705-0.43085 0.58789-0.74493 0.74494-0.44421 0.2221-1.0457-0.2221-1.4899 0-0.31409 0.15705-0.43085 0.58789-0.74493 0.74494-0.44419 0.22209-1.0457-0.2221-1.4899 0-0.31409 0.15704-0.43085 0.58789-0.74494 0.74493-0.44418 0.2221-1.0187-0.15704-1.4899 0-0.52675 0.17559-0.96313 0.56936-1.4899 0.74494-0.47115 0.15705-1.0457-0.2221-1.4899 0-0.31409 0.15705-0.43082 0.58789-0.74493 0.74493-0.22209 0.11106-0.50935-0.0785-0.74494 0-0.52673 0.17559-0.96311 0.56936-1.4899 0.74494-0.47114 0.15705-1.0457-0.22209-1.4899 0-0.31408 0.15705-0.43084 0.58789-0.74493 0.74494-0.22209 0.11105-0.52284-0.11105-0.74493 0-0.31409 0.15704-0.43085 0.58789-0.74494 0.74494-0.22212 0.11104-0.50406-0.0602-0.74493 0-0.76179 0.19044-1.4648 0.59093-2.2348 0.74493-0.48697 0.0974-1.0081-0.12045-1.4899 0-1.0773 0.26934-1.9262 1.1387-2.9797 1.4899-0.47114 0.15704-1.0457-0.2221-1.4899 0-0.31409 0.15704-0.43084 0.58789-0.74494 0.74493-0.22209 0.11105-0.49662 0-0.74493 0-0.49662 0-1.0187-0.15704-1.4899 0-0.33315 0.11105-0.43085 0.58789-0.74494 0.74494-0.2221 0.11105-0.52284-0.11105-0.74494 0-0.31409 0.15705-0.43084 0.58789-0.74493 0.74494-0.4442 0.22209-1.0187-0.15705-1.4899 0-0.52675 0.17558-0.96312 0.56935-1.4899 0.74493-0.23557 0.0785-0.52284-0.11105-0.74494 0-0.31409 0.15705-0.43084 0.58789-0.74493 0.74494-0.2221 0.11105-0.49663 0-0.74494 0-0.49663 0-1.0187-0.15705-1.4899 0-0.33315 0.11105-0.43085 0.58789-0.74494 0.74494-4.4992 2.2496-0.3154-0.10739-3.7247 0.74493-0.53867 0.13467-0.96313 0.56935-1.4899 0.74494-0.23557 0.0785-0.52284-0.11105-0.74494 0-0.31409 0.15705-0.41178 0.63389-0.74493 0.74494-0.47114 0.15704-0.99325 0-1.4899 0-0.24832 0-0.52284-0.11105-0.74494 0-0.31409 0.15704-0.43085 0.58789-0.74494 0.74493-0.22209 0.11105-0.50937-0.0785-0.74493 0-0.52675 0.17559-0.96313 0.56936-1.4899 0.74494-0.23557 0.0785-0.52284-0.11105-0.74493 0-0.3141 0.15704-0.4118 0.63389-0.74494 0.74494-0.47114 0.15704-0.99325 0-1.4899 0-0.24832 0-0.52284-0.11105-0.74494 0-0.31409 0.15704-0.49662 0.49662-0.74494 0.74493-0.49662 0-1.0187-0.15704-1.4899 0-0.33315 0.11105-0.41179 0.63389-0.74494 0.74494-0.47114 0.15705-1.0187-0.15705-1.4899 0-0.33315 0.11105-0.43085 0.58789-0.74494 0.74494-0.22209 0.11105-0.50404-0.0602-0.74493 0-1.5236 0.38089-2.946 1.109-4.4696 1.4899-0.2409 0.0602-0.50937-0.0785-0.74494 0-0.52675 0.17558-0.96312 0.56935-1.4899 0.74494-0.47113 0.15704-1.0457-0.2221-1.4899 0-0.31409 0.15704-0.41179 0.63388-0.74493 0.74493-0.47114 0.15705-1.0187-0.15704-1.4899 0-0.33314 0.11105-0.41179 0.63389-0.74493 0.74494-0.47114 0.15705-1.0187-0.15705-1.4899 0-0.33314 0.11105-0.43084 0.58789-0.74494 0.74494-0.22209 0.11104-0.49662 0-0.74493 0-0.49663 0-1.0187-0.15705-1.4899 0-0.33315 0.11104-0.43085 0.58789-0.74494 0.74493-0.2221 0.11105-0.50937-0.0785-0.74494 0-0.52675 0.17559-0.96312 0.56936-1.4899 0.74494-0.23557 0.0785-0.52284-0.11105-0.74494 0-0.31409 0.15705-0.41179 0.63389-0.74493 0.74494-0.47114 0.15704-1.0187-0.15705-1.4899 0-0.33314 0.11105-0.43084 0.58789-0.74493 0.74493-0.2221 0.11105-0.50404-0.0602-0.74494 0-0.76179 0.19045-1.4798 0.52922-2.2348 0.74494-0.98443 0.28126-2.0085 0.42118-2.9798 0.74494-0.52675 0.17558-0.96312 0.56935-1.4899 0.74493-0.47114 0.15705-1.0457-0.22209-1.4899 0-0.31409 0.15705-0.43084 0.58789-0.74493 0.74494-0.59595 0.29797-1.6389-0.29797-2.2348 0-0.31409 0.15705-0.43085 0.58789-0.74494 0.74494-0.59595 0.29797-1.6389-0.29798-2.2348 0-0.31409 0.15704-0.43084 0.58789-0.74493 0.74493-0.4442 0.2221-1.0457-0.2221-1.4899 0-0.31409 0.15705-0.43084 0.58789-0.74493 0.74495-0.59595 0.29797-1.6389-0.29797-2.2348 0-0.31409 0.15703-0.43084 0.58788-0.74493 0.74494-0.59595 0.29797-1.6389-0.29798-2.2348 0-0.31409 0.15703-0.43085 0.58787-0.74494 0.74493-0.59595 0.29797-1.6389-0.29797-2.2348 0-0.31409 0.15703-0.43084 0.58788-0.74493 0.74493-0.59595 0.29798-1.6389-0.29797-2.2348 0-0.3141 0.15703-0.43085 0.58788-0.74494 0.74494-0.46821 0.2341-2.5115-0.2341-2.9798 0-0.31409 0.15706-0.43084 0.58788-0.74493 0.74493-0.59595 0.29798-1.6389-0.29797-2.2348 0-0.31409 0.15706-0.43084 0.58788-0.74493 0.74494-0.4442 0.22209-1.0457-0.22209-1.4899 0-0.31409 0.15705-0.43084 0.5879-0.74493 0.74493-0.46821 0.23411-2.5115-0.2341-2.9798 0-0.31409 0.15706-0.43084 0.58791-0.74494 0.74494-0.59594 0.29797-1.6389-0.29798-2.2348 0-0.3141 0.15705-0.4118 0.63388-0.74494 0.74493-0.34073 0.11359-2.6483-0.16573-2.9798 0-0.31409 0.15706-0.43084 0.5879-0.74494 0.74493-0.59594 0.29798-1.6389-0.29797-2.2348 0-0.3141 0.15706-0.43085 0.58791-0.74494 0.74497-0.46821 0.2341-2.5115-0.23413-2.9798 0-0.31409 0.15703-0.43084 0.58787-0.74493 0.74493-0.4442 0.22209-1.0187-0.15706-1.4899 0-0.52675 0.17558-0.96312 0.56933-1.4899 0.74493-0.79158 0.26385-2.1882-0.26386-2.9798 0-0.33314 0.11105-0.41179 0.63389-0.74493 0.74494-0.47115 0.15703-0.99326 0-1.4899 0-0.24831 0-0.52284-0.11105-0.74494 0-0.31409 0.15703-0.41178 0.63389-0.74493 0.74493-0.47114 0.15703-1.0187-0.15705-1.4899 0-0.33314 0.11105-0.41179 0.63389-0.74493 0.74494-0.67044 0.22346-1.5644-0.2235-2.2348 0-0.52675 0.17558-0.96312 0.56935-1.4899 0.74493-0.7067 0.23556-1.5121-0.18068-2.2348 0-0.53867 0.13467-0.96313 0.56936-1.4899 0.74494-0.23557 0.0785-0.50937-0.0785-0.74494 0-0.52675 0.17557-0.96312 0.56935-1.4899 0.74493-0.23557 0.0785-0.50404-0.0602-0.74494 0-0.76178 0.19045-1.4648 0.59095-2.2348 0.74494-0.48699 0.0974-1.0187-0.15704-1.4899 0-0.33314 0.11104-0.41179 0.63388-0.74494 0.74493-0.70671 0.23558-1.5281-0.23556-2.2348 0-0.52675 0.1756-0.96312 0.56936-1.4899 0.74493-0.23557 0.0785-0.50937-0.0785-0.74494 0-0.52675 0.17561-0.9512 0.61029-1.4899 0.74496-0.48179 0.12044-1.0187-0.15705-1.4899 0-0.33315 0.11105-0.41179 0.63389-0.74494 0.74494-0.70671 0.23556-1.5281-0.23559-2.2348 0-0.52675 0.17558-0.96312 0.56936-1.4899 0.74493-0.23557 0.0785-0.50937-0.0785-0.74494 0-0.52675 0.17558-0.96312 0.56936-1.4899 0.74494-0.70671 0.23556-1.5281-0.23559-2.2348 0-0.33315 0.11104-0.43085 0.58788-0.74494 0.74493-0.2221 0.11105-0.49662 0-0.74494 0-0.49662 0-1.0187-0.15705-1.4899 0-0.33314 0.11105-0.43084 0.58788-0.74493 0.74494-0.46821 0.2341-2.5115-0.23411-2.9798 0-0.31409 0.15705-0.41179 0.63389-0.74494 0.74493-2.5101 0.83669-0.72877-0.50202-2.2348 0-0.52675 0.17558-0.96313 0.56936-1.4899 0.74494-0.51239 0.17081-1.7953-0.21977-2.2348 0-0.31409 0.15705-0.43084 0.5879-0.74494 0.74493-0.46996 0.23498-3.2547-0.23498-3.7247 0-0.31409 0.15706-0.43084 0.5879-0.74494 0.74493-0.46821 0.23411-2.5115-0.2341-2.9797 0-0.3141 0.15706-0.43084 0.58791-0.74494 0.74494-0.45234 0.22619-4.0173-0.22617-4.4696 0-0.31409 0.15705-0.43084 0.5879-0.74493 0.74496-0.19261 0.0963-3.9416 0-4.4696 0-0.24831 0-0.52284-0.11107-0.74494 0-0.31409 0.15703-0.43084 0.58788-0.74494 0.74493-0.2694 0.1347-3.2066 0-3.7247 0-0.24831 0-0.56935-0.1756-0.74494 0-0.17558 0.17558 0.17559 0.56933 0 0.74494-0.03376 0.0338-3.3734 0-3.7247 0-1.747 0 0.35116-0.17561-1.4899 0.74493-0.26939 0.1347-3.2065 0-3.7247 0-0.24831 0-0.56935-0.17558-0.74494 0-0.17558 0.17558 0.17558 0.56936 0 0.74494-0.02397 0.0241-2.0541 0-2.2348 0-0.27357 0-2.9498-0.03-2.9797 0-0.17558 0.17557 0.17558 0.56935 0 0.74493s-0.49663 0-0.74494 0c-0.52801 0-4.277-0.0963-4.4696 0-0.31409 0.15706-0.43084 0.58788-0.74494 0.74494-0.2221 0.11104-0.49663 0-0.74494 0h-0.74494c-0.35124 0-3.6909-0.0338-3.7247 0-0.17558 0.17557 0.17558 0.56935 0 0.74493-0.03376 0.0338-3.3734 0-3.7247 0-0.24831 0-0.56935-0.17558-0.74493 0-0.17559 0.17558 0.17558 0.56936 0 0.74493-0.20383 0.20384-2.5756-0.20206-2.9797 0-0.31409 0.15706-0.43084 0.58791-0.74494 0.74494-0.46821 0.2341-2.5115-0.2341-2.9797 0-0.31409 0.15706-0.43084 0.5879-0.74494 0.74493-0.59595 0.29798-1.6389-0.29797-2.2348 0-0.31409 0.15706-0.43084 0.58791-0.74494 0.74494-0.59595 0.298-1.6389-0.29798-2.2348 0-0.31409 0.15705-0.43084 0.5879-0.74494 0.74496-0.59595 0.29797-1.6389-0.29798-2.2348 0-0.31409 0.15703-0.43084 0.58788-0.74494 0.74493-0.59595 0.29798-1.6389-0.29797-2.2348 0-0.31409 0.15703-0.43084 0.58788-0.74494 0.74494-0.97692 0.48844-0.51295-0.48848-1.4899 0-0.31409 0.15703-0.43084 0.58787-0.74494 0.74493-0.44419 0.22209-1.0457-0.22209-1.4899 0-0.31409 0.15703-0.43084 0.58788-0.74494 0.74494-0.44419 0.22209-1.0457-0.2221-1.4899 0-0.31409 0.15705-0.43084 0.58787-0.74494 0.74493-0.44419 0.22209-1.1387-0.35116-1.4899 0-0.17558 0.17558 0.17558 0.56936 0 0.74493-0.35117 0.35119-1.0457-0.22209-1.4899 0-0.31409 0.15706-0.43084 0.58791-0.74494 0.74494-0.44419 0.22209-1.0457-0.22209-1.4899 0-0.31409 0.15706-0.43084 0.5879-0.74494 0.74493-0.44419 0.22209-1.1387-0.35115-1.4899 0-0.17558 0.17558 0.17558 0.56936 0 0.74494-0.17558 0.1756-0.49662 0-0.74494 0h-0.74494c-1.9865 0 0.24831-0.24831-0.74494 0.74493-0.37247 0.37248-1.8623-0.37245-2.2348 0-0.17558 0.17561 0.17558 0.56936 0 0.74496-0.15229 0.15227-1.9394-0.14769-2.2348 0-0.31409 0.15703-0.43084 0.58788-0.74494 0.74494-0.29536 0.14766-2.0825-0.1523-2.2348 0-0.17558 0.17557 0.17558 0.56933 0 0.74493-0.17926 0.17926-2.8005-0.17925-2.9797 0-0.17558 0.17558 0.17558 0.56936 0 0.74494-0.17558 0.17557-0.49662 0-0.74494 0-0.35124 0-3.6909-0.0338-3.7247 0-0.17558 0.17557 0.17558 0.56935 0 0.74493-0.17926 0.17926-2.8005-0.17926-2.9797 0-0.17558 0.17558 0.17558 0.56936 0 0.74493-0.17558 0.17558-0.49662 0-0.74494 0-0.35124 0-3.6909-0.0338-3.7247 0-0.17558 0.17558 0.17558 0.56936 0 0.74494-0.17926 0.17925-2.8005-0.17926-2.9797 0-0.17558 0.17558 0.17558 0.56936 0 0.74493-0.20383 0.20384-2.5756-0.20206-2.9797 0-0.3141 0.15706-0.43084 0.58791-0.74494 0.74494-0.46821 0.2341-2.5115-0.23411-2.9797 0-0.31409 0.15705-0.43084 0.5879-0.74494 0.74493-0.59595 0.29798-1.6389-0.29797-2.2348 0-0.31409 0.15706-0.43084 0.58791-0.74494 0.74494-0.29536 0.14769-2.0825-0.1523-2.2348 0-0.17558 0.1756 0.17558 0.56935 0 0.74493-0.37247 0.37248-1.8623-0.37245-2.2348 0-0.17559 0.1756 0.17558 0.56936 0 0.74496-0.37247 0.37246-1.8623-0.37248-2.2348 0-0.17558 0.17558 0.17558 0.56933 0 0.74494-0.17558 0.17557-0.52284-0.11105-0.74494 0-3.1002 1.5501 0.79636-0.0514-0.74494 1.4899-0.17558 0.17558-0.56935-0.17557-0.74494 0-0.17558 0.17558 0.11105 0.52285 0 0.74494-0.15705 0.31409-0.58789 0.43085-0.74494 0.74493-0.29798 0.59595 0.29797 1.6389 0 2.2348-0.15705 0.31411-0.58789 0.43084-0.74494 0.74493-0.11336 0.22672 0 1.8993 0 2.2348 0 0.24831-0.17558 0.56933 0 0.74493 0.17558 0.17558 0.56935-0.1756 0.74494 0 0.37247 0.37246-0.37247 1.8623 0 2.2348 0.17558 0.17558 0.56935-0.17558 0.74494 0 0.35117 0.35115-0.2221 1.0457 0 1.4899 0.15705 0.31408 0.58789 0.43084 0.74494 0.74493 0.2221 0.44421-0.35117 1.1387 0 1.4899 0.17558 0.1756 0.49662 0 0.74494 0 0.49662 0.99327 0.99325 1.9865 1.4899 2.9798z" fill="url(#t13nec)" filter="url(#t13nei)" inkscape:connector-curvature="0"/>
  </g>
  <rect x="-1.3128" y="-1.9199" width="510.92" height="316.99" fill="url(#t13ne-c)" opacity=".683" stroke="#fff" stroke-dasharray="0, 16.47858302" stroke-width="1.4981"/>
 </g>
</svg>
