<?xml version="1.0" encoding="UTF-8"?>
<svg width="210mm" height="297mm" version="1.1" viewBox="0 0 210 297" xmlns="http://www.w3.org/2000/svg" xmlns:cc="http://creativecommons.org/ns#" xmlns:dc="http://purl.org/dc/elements/1.1/" xmlns:rdf="http://www.w3.org/1999/02/22-rdf-syntax-ns#">
 <metadata>
  <rdf:RDF>
   <cc:Work rdf:about="">
    <dc:format>image/svg+xml</dc:format>
    <dc:type rdf:resource="http://purl.org/dc/dcmitype/StillImage"/>
    <dc:title/>
   </cc:Work>
  </rdf:RDF>
 </metadata>
 <circle cx="104.32" cy="137.75" r="94.826" fill="#f9f9f9" stroke-width=".42784"/>
 <path d="m105.43 232.23-0.74008-188.25h-0.98678l0.74007 188.25-1.2335-181.56v-6.2452l0.74009 0.44609" fill="none" stroke="#000" stroke-width="1.479"/>
 <g fill="#000000" font-family="sans-serif" font-size="10.583px" stroke-width=".26458">
  <text x="80.141663" y="103.28815" style="line-height:1.25" xml:space="preserve"><tspan x="80.141663" y="103.28815" fill="#000000" stroke-width=".26458">Normal</tspan></text>
  <text transform="rotate(41.8)" x="129.76192" y="-31.247356" style="line-height:1.25" xml:space="preserve"><tspan x="129.76192" y="-31.247356" stroke-width=".26458">Right Normal Long</tspan></text>
  <text transform="rotate(-45.551)" x="-75.298767" y="244.4207" style="line-height:1.25" xml:space="preserve"><tspan x="-75.298767" y="244.4207" stroke-width=".26458">Right Reverse Long</tspan></text>
  <text transform="rotate(44.034)" x="121.09925" y="99.847816" style="line-height:1.25" xml:space="preserve"><tspan x="121.09925" y="99.847816" stroke-width=".26458">Left Reverse Long</tspan></text>
 </g>
 <g>
  <circle cx="104.39" cy="137.75" r="60" fill="#fff" stroke="#000400" stroke-width=".34855"/>
  <circle cx="104.32" cy="137.75" r="24.847" fill="#fff" stroke="#000400" stroke-width="1.105"/>
  <path d="m8.7097 138.98 190.22-0.82063v-1.0942l-190.22 0.82062 183.46-1.3677h6.3106l-0.45076 0.82063" fill="none" stroke="#000" stroke-width="1.5656"/>
 </g>
 <circle cx="104.42" cy="137.79" r="24.847" fill="#fff" stroke="#000400" stroke-width="1.105"/>
 <text transform="scale(.98785 1.0123)" x="85.540848" y="143.38402" fill="#000000" font-family="sans-serif" font-size="8.1682px" stroke-width=".20421" style="line-height:1.25" xml:space="preserve"><tspan x="85.540848" y="143.38402" stroke-width=".20421">3x Height</tspan></text>
 <g fill="#000000" font-family="sans-serif" font-size="10.583px" stroke-width=".26458">
  <text x="63.715103" y="107.02146" style="line-height:1.25" xml:space="preserve"><tspan x="63.715103" y="107.02146" stroke-width=".26458">Normal Medium</tspan></text>
  <text x="59.9818" y="174.1626" style="line-height:1.25" xml:space="preserve"><tspan x="59.9818" y="174.1626" stroke-width=".26458">Reverse Medium</tspan></text>
  <text x="81.850212" y="133.37212" style="line-height:1.25" xml:space="preserve"><tspan x="81.850212" y="133.37212" stroke-width=".26458">Close-up</tspan></text>
  <text transform="rotate(-48.2)" x="-77.581902" y="102.0709" style="line-height:1.25" xml:space="preserve"><tspan x="-77.581902" y="102.0709" stroke-width=".26458">Left Normal Long</tspan></text>
  <text x="87.110481" y="193.13641" style="line-height:1.25" xml:space="preserve"><tspan x="87.110481" y="193.13641" font-size="7.0556px" stroke-width=".26458">12x Height</tspan></text>
 </g>
</svg>
