<?xml version="1.0" standalone="no"?>
<!DOCTYPE svg PUBLIC "-//W3C//DTD SVG 20010904//EN"
 "http://www.w3.org/TR/2001/REC-SVG-20010904/DTD/svg10.dtd">
<svg version="1.0" xmlns="http://www.w3.org/2000/svg"
 width="1280.000000pt" height="567.000000pt" viewBox="0 0 1280.000000 567.000000"
 preserveAspectRatio="xMidYMid meet">
<g transform="translate(0.000000,567.000000) scale(0.100000,-0.100000)"
fill="#000000" stroke="none">
<path d="M9208 5268 c-21 -32 -24 -44 -52 -203 -13 -77 -43 -239 -66 -360 -71
-378 -80 -436 -73 -480 8 -59 -3 -109 -32 -143 -13 -16 -27 -41 -31 -56 -5
-23 -10 -26 -28 -21 -37 12 -120 25 -125 20 -2 -3 4 -12 15 -21 18 -15 17 -15
-11 -9 -73 15 -104 26 -128 48 -29 25 -38 63 -12 53 17 -6 20 15 5 30 -7 7 -4
25 10 58 28 66 26 98 -9 135 -23 25 -37 31 -69 31 -33 0 -45 -6 -72 -37 -18
-20 -39 -53 -47 -72 -8 -20 -28 -55 -45 -78 -27 -41 -32 -43 -77 -43 -42 0
-49 -3 -59 -25 -18 -39 -15 -52 18 -75 34 -24 36 -17 -38 -168 -28 -57 -53
-116 -57 -131 -12 -54 -125 -145 -125 -101 0 6 -16 10 -35 10 -19 0 -35 -5
-35 -11 0 -17 -378 -3 -460 17 -36 9 -85 18 -109 21 -38 4 -43 3 -38 -11 4 -9
2 -16 -3 -16 -6 0 -10 7 -10 15 0 8 -10 20 -22 26 -12 7 -29 19 -38 28 -8 10
-11 11 -6 3 7 -9 3 -15 -13 -19 -17 -4 -19 -8 -10 -14 32 -19 -5 -19 -68 1
-115 37 -115 37 -18 46 l90 8 -95 9 c-118 12 -162 12 -225 2 -68 -10 -81 5
-77 90 2 51 -1 65 -18 80 -12 11 -28 15 -41 12 -13 -4 -40 4 -68 19 -70 37
-131 28 -131 -20 0 -54 -76 -56 -105 -3 -9 18 -34 42 -54 55 -20 13 -58 42
-83 65 -88 80 -237 181 -325 221 -18 8 -33 19 -33 23 0 5 -33 28 -72 53 -40
24 -77 49 -83 56 -5 6 -26 22 -45 35 -37 25 -41 28 -80 60 -14 11 -40 33 -59
47 -19 15 -39 33 -45 39 -6 7 -34 37 -62 67 -28 29 -63 70 -79 90 -15 20 -36
36 -46 36 -11 0 -19 6 -19 14 0 7 -11 21 -25 30 -14 9 -25 25 -25 36 0 16 -7
20 -35 20 -19 0 -38 0 -42 1 -15 1 -13 -18 4 -36 30 -33 93 -129 93 -142 0
-13 23 -23 54 -23 13 0 28 -10 35 -22 7 -13 30 -36 51 -53 21 -16 35 -34 33
-38 -3 -5 -1 -19 5 -30 6 -12 13 -30 16 -39 3 -10 14 -18 24 -18 20 0 52 -29
52 -47 0 -6 11 -21 25 -34 13 -13 25 -30 25 -38 0 -8 18 -36 39 -61 22 -26 51
-68 66 -93 29 -54 190 -225 222 -237 50 -20 67 -98 19 -86 -12 3 -34 -1 -49
-9 -15 -8 -29 -10 -32 -4 -4 5 0 9 7 10 23 2 -36 17 -70 18 -18 1 -40 5 -50
10 -25 14 -159 41 -203 41 -22 0 -39 4 -39 9 0 5 -21 11 -47 14 -107 13 -199
28 -218 36 -19 9 -154 45 -255 70 -248 60 -352 84 -390 91 -25 4 -79 17 -120
27 -41 11 -102 26 -135 33 -33 7 -79 19 -103 26 -23 8 -58 14 -77 14 -19 0
-35 4 -35 9 0 5 -19 11 -42 14 -43 5 -189 37 -283 62 -27 7 -84 18 -125 25
-41 6 -83 16 -92 21 -10 5 -41 9 -69 9 -31 0 -56 6 -65 15 -9 8 -29 15 -45 15
-16 0 -29 5 -29 10 0 6 -9 10 -20 10 -14 0 -20 -7 -20 -22 0 -36 11 -43 70
-46 30 -2 57 -7 60 -11 3 -4 19 -11 37 -14 34 -7 125 -46 133 -58 3 -4 26 -10
53 -14 26 -4 47 -11 47 -16 0 -5 15 -9 33 -9 19 0 56 -7 83 -15 27 -8 70 -15
97 -15 26 0 47 -4 47 -8 0 -13 68 -42 100 -42 17 0 30 -4 30 -10 0 -5 11 -10
25 -10 14 0 42 -7 62 -15 19 -8 48 -15 64 -15 16 0 37 -4 47 -10 27 -15 127
-40 160 -40 17 0 32 -4 34 -10 2 -5 65 -25 142 -44 76 -19 149 -42 162 -51 13
-8 34 -15 46 -15 19 0 20 -2 8 -10 -12 -8 -11 -10 7 -10 12 0 23 6 26 13 3 9
12 8 37 -5 17 -10 38 -18 45 -18 8 0 11 -7 8 -20 -3 -11 -12 -20 -19 -20 -8 0
-14 -4 -14 -9 0 -10 34 -21 68 -21 12 0 22 -4 22 -10 0 -5 14 -10 30 -10 17 0
30 -4 30 -10 0 -5 12 -10 28 -10 15 0 40 -7 56 -15 15 -8 46 -15 67 -15 22 0
39 -4 39 -8 0 -9 132 -42 167 -42 12 0 24 -8 28 -19 4 -15 20 -19 97 -25 88
-6 115 -12 201 -42 20 -8 51 -14 67 -14 17 0 30 -4 30 -10 0 -5 17 -10 38 -10
20 0 69 -7 107 -15 39 -8 91 -15 117 -15 26 0 50 -4 53 -10 3 -5 19 -10 36
-10 26 0 29 -3 29 -32 1 -31 1 -32 15 -14 15 19 15 19 15 -2 0 -17 -6 -22 -25
-22 -28 0 -31 -5 -38 -67 -5 -40 -3 -43 30 -63 20 -12 42 -19 49 -16 8 3 14 1
14 -4 0 -6 -11 -10 -25 -10 -17 0 -41 -15 -69 -42 -24 -24 -61 -49 -82 -57
-21 -7 -56 -24 -76 -37 -21 -13 -49 -24 -63 -24 -15 0 -25 -6 -25 -14 0 -19
-69 -78 -81 -70 -6 3 -16 0 -22 -8 -7 -8 -33 -31 -59 -51 -48 -38 -80 -42
-115 -15 -7 5 -17 7 -22 3 -13 -7 -51 -92 -51 -111 0 -8 -21 -29 -47 -47 -84
-57 -132 -107 -176 -185 -25 -43 -48 -88 -52 -102 -4 -14 -14 -40 -23 -58
l-15 -34 -730 3 -729 4 -19 -60 c-10 -33 -41 -154 -70 -270 -28 -115 -53 -216
-55 -223 -3 -9 -13 -12 -33 -7 -37 8 -59 -21 -33 -42 15 -12 14 -13 -8 -11
-17 2 -25 9 -25 22 0 26 -38 38 -62 21 -32 -24 -4 -48 103 -83 81 -28 120 -35
212 -39 l112 -6 0 27 c0 32 -43 54 -67 35 -21 -18 -63 4 -63 33 0 13 9 55 20
93 11 39 34 123 51 188 l32 118 106 -6 c151 -9 402 -33 408 -39 3 -3 -4 -48
-16 -100 -12 -53 -20 -100 -16 -106 8 -13 102 -13 110 0 3 6 25 10 47 10 23 0
38 3 34 7 -10 11 47 32 60 22 12 -9 35 36 51 101 8 34 10 35 63 38 30 2 70 1
87 -3 27 -5 31 -9 24 -23 -16 -29 -32 -172 -22 -190 10 -18 42 -23 52 -8 4 4
16 3 28 -4 14 -7 27 -8 34 -2 7 5 30 10 52 11 22 1 42 6 43 11 9 25 30 6 36
-32 5 -33 3 -45 -9 -54 -19 -14 -35 -66 -35 -117 0 -40 -28 -76 -60 -77 -9 0
-32 -18 -53 -40 -20 -22 -41 -40 -47 -40 -6 0 -23 -14 -37 -31 -15 -17 -38
-35 -52 -41 -15 -6 -21 -12 -13 -15 26 -10 10 -21 -23 -16 -43 7 -45 -6 -5
-29 39 -22 59 -63 42 -86 -7 -9 -26 -48 -44 -85 -29 -60 -35 -67 -55 -62 -13
3 -23 1 -23 -4 0 -5 10 -11 21 -14 17 -5 20 -11 15 -29 -4 -13 -11 -59 -15
-103 -5 -44 -15 -93 -24 -110 -31 -61 -47 -106 -47 -134 0 -70 -13 -121 -32
-127 -13 -4 -17 -11 -13 -25 4 -12 2 -19 -7 -19 -8 0 -19 -18 -25 -40 -5 -22
-6 -40 -2 -40 14 0 11 -28 -3 -34 -9 -3 -8 -8 5 -16 9 -6 17 -19 17 -29 0 -22
40 -61 63 -61 10 0 33 -6 51 -14 25 -10 46 -11 86 -4 69 12 96 31 125 87 28
56 57 77 75 56 7 -8 19 -15 27 -15 10 0 13 -6 9 -16 -4 -11 0 -14 17 -12 19 3
22 -2 25 -32 2 -19 8 -40 14 -47 7 -8 -1 -44 -26 -116 -25 -71 -36 -122 -36
-160 0 -49 3 -58 31 -81 53 -45 110 -26 147 48 32 62 57 63 48 0 -10 -75 21
-128 81 -140 46 -9 96 40 122 119 28 86 35 136 22 182 -6 25 -7 64 -1 105 7
59 6 67 -12 82 -11 10 -24 15 -29 12 -5 -2 -18 0 -30 6 -15 9 -18 15 -10 23 7
7 15 6 27 -4 15 -12 16 -12 10 8 -6 19 -2 25 27 36 45 19 104 72 111 100 7 28
33 42 104 56 86 18 100 15 104 -16 3 -24 8 -29 37 -31 18 -2 38 1 44 7 6 6 24
11 39 11 15 0 28 5 28 10 0 6 4 10 10 10 5 0 26 11 46 25 20 14 45 25 55 25
10 0 22 6 26 13 4 8 27 18 50 24 34 9 44 8 57 -5 15 -15 16 -15 16 1 0 19 25
31 83 42 29 6 36 4 40 -12 4 -14 5 -15 6 -2 1 20 30 29 89 29 23 0 51 5 61 12
17 10 26 6 65 -26 80 -65 156 -149 156 -173 0 -10 6 -14 20 -10 15 4 32 -7 62
-39 23 -24 47 -44 54 -44 15 0 39 -38 30 -47 -6 -6 95 -88 116 -95 9 -3 4 -23
-15 -65 -31 -70 -34 -122 -9 -165 23 -41 81 -69 128 -63 48 6 75 25 115 80 18
25 38 45 45 45 8 0 10 8 6 22 -4 17 -2 20 12 15 14 -5 17 -2 15 16 -1 12 5 40
15 62 47 108 45 171 -5 223 -59 60 -142 51 -204 -21 -19 -22 -35 -44 -35 -49
0 -4 -4 -8 -10 -8 -5 0 -10 7 -10 15 0 9 -13 44 -29 80 -16 35 -27 66 -24 69
5 5 -18 67 -89 244 -33 82 -32 118 3 86 28 -25 59 -98 71 -168 6 -33 20 -75
31 -94 20 -33 21 -34 36 -14 9 11 34 23 56 26 69 12 74 16 121 88 49 77 49 76
13 174 -25 66 -59 109 -108 133 -20 11 -53 34 -73 53 -20 18 -44 38 -53 43
-15 9 -13 20 25 110 43 103 120 340 120 369 0 24 38 12 160 -52 58 -31 138
-72 179 -93 40 -21 75 -40 77 -42 2 -2 -4 -24 -15 -48 -21 -49 -47 -198 -39
-221 4 -11 18 -14 50 -11 68 5 112 14 128 28 22 18 59 25 66 13 4 -6 15 17 26
51 10 33 23 61 28 61 6 0 48 -21 95 -46 81 -44 84 -46 71 -67 -16 -25 -56
-191 -56 -230 0 -23 3 -25 50 -25 28 0 53 4 56 9 3 5 16 9 29 9 13 0 40 9 60
21 19 12 42 19 50 15 10 -4 19 10 31 49 10 30 21 55 26 55 9 0 438 -219 451
-229 7 -7 -82 -359 -103 -408 -6 -15 -15 -20 -30 -16 -12 3 -28 -2 -40 -12
-18 -16 -20 -16 -35 -1 -21 20 -49 21 -66 0 -20 -25 0 -45 67 -65 210 -61 238
-67 253 -59 9 4 37 6 64 3 47 -6 47 -6 47 25 0 24 -5 31 -26 36 -14 4 -32 2
-40 -4 -8 -7 -26 -9 -44 -5 -29 6 -31 9 -25 38 9 42 56 213 105 381 23 77 26
149 7 185 -6 14 -29 34 -49 45 -21 12 -131 77 -245 146 -114 69 -217 130 -228
136 -39 21 -564 327 -620 362 -16 10 -56 35 -87 55 -32 20 -62 37 -67 37 -5 0
-22 10 -38 23 -15 13 -37 27 -48 31 -26 9 -135 79 -134 86 0 3 19 21 41 40 39
34 45 35 137 40 l96 5 0 45 c0 25 6 49 13 53 17 11 15 37 -3 37 -8 0 -15 4
-15 8 0 13 79 86 86 80 13 -14 64 -261 58 -285 -7 -27 7 -43 39 -43 13 0 17 8
17 32 0 17 32 126 70 240 39 115 70 221 70 236 0 28 53 123 67 120 5 0 16 2
27 7 20 9 244 -28 274 -45 9 -5 66 -19 125 -30 60 -11 116 -24 125 -29 9 -5
67 -17 127 -26 61 -9 115 -21 120 -25 14 -11 120 -30 167 -30 26 0 38 4 38 14
0 21 -17 29 -61 29 -23 0 -40 5 -43 14 -4 10 -16 12 -43 8 -30 -5 -35 -4 -23
5 12 9 9 10 -13 6 -33 -8 -56 2 -36 15 9 6 1 7 -21 3 -24 -4 -31 -3 -21 4 11
8 10 11 -5 15 -45 13 -104 18 -104 9 0 -12 -87 3 -132 23 l-33 14 45 2 45 2
-55 11 c-30 7 -62 15 -70 18 -47 17 -89 28 -107 28 -11 0 -55 11 -97 25 -42
14 -85 25 -94 25 -26 0 -68 22 -80 41 -11 17 3 98 18 109 4 3 10 23 14 45 7
39 90 277 127 363 l19 43 67 -7 c38 -3 133 -15 213 -25 80 -11 154 -20 165
-20 11 -1 121 -12 245 -26 124 -13 290 -31 370 -39 80 -7 195 -20 255 -29 61
-8 209 -26 330 -40 121 -14 270 -32 330 -40 61 -8 190 -24 288 -35 98 -11 209
-27 248 -35 96 -20 292 -50 489 -74 91 -11 215 -30 275 -41 152 -28 319 -38
313 -19 -7 22 -63 34 -588 124 -107 18 -242 43 -300 54 -58 11 -199 34 -315
51 -115 17 -253 37 -305 45 -52 8 -219 31 -370 51 -151 20 -338 44 -415 55
-77 10 -234 30 -350 44 -115 14 -277 34 -360 45 -82 11 -226 29 -320 41 -238
29 -219 22 -211 72 11 69 13 69 203 69 259 -1 242 1 253 -24 5 -13 9 -18 9
-13 1 6 15 19 32 29 27 16 45 18 124 13 101 -7 267 2 260 13 -3 4 -175 11
-382 15 -377 7 -443 13 -443 43 0 8 17 61 38 118 31 87 40 104 58 104 12 0 38
7 58 15 41 17 178 16 211 -3 11 -6 28 -13 38 -16 16 -5 18 -15 15 -77 -2 -52
1 -73 10 -76 9 -4 11 6 9 34 -3 21 -2 27 0 14 4 -19 7 -21 13 -11 5 8 12 12
15 8 3 -3 -5 -29 -19 -58 -26 -53 -26 -81 -1 -60 7 6 16 23 20 38 3 15 20 40
37 55 27 25 32 27 40 13 10 -18 38 -22 38 -6 0 6 14 10 30 10 17 0 30 3 31 8
1 4 2 24 3 45 2 23 10 43 22 51 10 8 17 16 14 18 -3 3 -16 12 -30 21 -13 9
-19 17 -13 17 18 0 43 29 43 51 0 16 -7 19 -40 19 -33 0 -40 3 -40 19 0 11 -4
22 -8 25 -12 7 -14 134 -2 155 5 10 14 78 20 152 6 74 17 168 25 209 7 41 19
111 25 155 12 80 21 131 65 390 14 77 26 150 28 162 6 35 -8 47 -25 21z m-95
-1315 c4 -3 5 -9 2 -14 -7 -11 -45 7 -45 21 0 8 20 5 43 -7z m-3799 -62 c3 -5
0 -11 -8 -14 -15 -6 -26 1 -26 15 0 11 27 10 34 -1z m851 -51 c3 -5 1 -10 -4
-10 -6 0 -11 5 -11 10 0 6 2 10 4 10 3 0 8 -4 11 -10z m1962 -275 c13 -10 13
-15 2 -33 -8 -12 -20 -24 -27 -27 -18 -7 -445 36 -456 45 -7 7 48 14 189 24
107 7 277 2 292 -9z m-1597 -44 c0 -5 9 -13 20 -16 30 -9 24 -27 -7 -23 -20 2
-29 9 -31 26 -2 12 1 22 7 22 6 0 11 -4 11 -9z m487 -45 c7 -7 -9 -32 -31 -48
-20 -15 -26 -15 -53 -1 -39 18 -50 50 -19 57 20 4 97 -2 103 -8z m393 4 c55
-16 446 -78 543 -86 59 -4 87 -10 87 -19 0 -19 -133 -269 -163 -305 -23 -29
-66 -50 -101 -50 -29 0 -34 3 -29 16 5 14 2 16 -20 10 -31 -7 -36 -1 -43 56
-7 59 -11 68 -29 68 -11 0 -15 -11 -15 -38 0 -37 -2 -40 -40 -51 -42 -12 -60
-33 -57 -66 2 -19 -4 -20 -97 -18 -55 1 -102 6 -105 11 -3 5 -14 11 -23 15
-11 4 -18 17 -18 34 0 16 -7 39 -16 51 -30 43 -34 80 -17 153 16 64 16 70 0
87 -9 10 -17 28 -17 41 0 27 -24 36 -122 46 -66 6 -78 9 -78 25 0 10 6 20 13
23 26 9 314 7 347 -3z m607 -1012 c-3 -7 -5 -2 -5 12 0 14 2 19 5 13 2 -7 2
-19 0 -25z m-63 -30 c-3 -18 -12 -64 -20 -103 -7 -38 -16 -87 -19 -109 -4 -21
-9 -36 -11 -33 -6 6 -44 183 -44 203 0 12 76 73 92 74 4 0 5 -15 2 -32z m-974
-1487 c7 -20 27 -67 45 -106 18 -38 40 -87 48 -107 9 -21 20 -38 25 -38 10 0
56 -99 49 -106 -6 -6 -92 77 -147 141 -23 28 -71 80 -106 116 -35 37 -64 72
-64 79 0 23 50 80 70 80 10 0 22 5 26 11 9 15 36 -20 54 -70z m-1535 -375 c17
-12 18 -17 7 -37 -6 -13 -16 -36 -21 -51 -9 -25 -13 -26 -40 -17 -25 9 -30 17
-36 56 -5 33 -3 48 7 54 20 13 62 11 83 -5z m-115 -46 c0 -5 -4 -10 -10 -10
-5 0 -10 5 -10 10 0 6 5 10 10 10 6 0 10 -4 10 -10z"/>
<path d="M7815 3140 c-3 -5 -1 -10 4 -10 6 0 11 5 11 10 0 6 -2 10 -4 10 -3 0
-8 -4 -11 -10z"/>
<path d="M2146 4791 c-4 -7 -5 -15 -2 -18 9 -9 19 4 14 18 -4 11 -6 11 -12 0z"/>
<path d="M2280 4754 c0 -9 28 -34 38 -34 12 0 23 26 15 34 -8 8 -53 8 -53 0z"/>
<path d="M2448 4703 c6 -2 18 -2 25 0 6 3 1 5 -13 5 -14 0 -19 -2 -12 -5z"/>
<path d="M2500 4691 c-9 -18 -8 -21 9 -21 10 0 21 -6 24 -13 5 -14 109 -23
128 -11 18 11 -26 34 -78 40 -26 4 -53 11 -60 16 -8 6 -15 3 -23 -11z"/>
<path d="M2728 4625 c-7 -32 5 -40 27 -19 18 19 15 38 -7 42 -10 2 -17 -6 -20
-23z"/>
<path d="M2800 4603 c0 -13 35 -31 74 -38 20 -4 39 -11 42 -17 7 -11 113 -8
120 4 3 4 -6 8 -20 8 -26 0 -96 29 -96 39 0 4 -27 8 -60 9 -33 2 -60 0 -60 -5z"/>
<path d="M3155 4480 c7 -12 115 -11 115 1 0 5 -27 9 -61 9 -37 0 -58 -4 -54
-10z"/>
<path d="M3298 4453 c7 -3 16 -2 19 1 4 3 -2 6 -13 5 -11 0 -14 -3 -6 -6z"/>
<path d="M3380 4446 c25 -7 50 -14 55 -16 6 -1 16 -2 23 -1 11 1 10 4 -2 16
-9 10 -33 15 -68 14 l-53 0 45 -13z"/>
<path d="M4500 4022 c0 -5 7 -9 15 -9 8 0 12 4 9 9 -3 4 -9 8 -15 8 -5 0 -9
-4 -9 -8z"/>
<path d="M5215 539 c-4 -6 -5 -12 -2 -15 2 -3 7 2 10 11 7 17 1 20 -8 4z"/>
</g>
</svg>
