<?xml version="1.0" standalone="no"?>
<!DOCTYPE svg PUBLIC "-//W3C//DTD SVG 20010904//EN"
 "http://www.w3.org/TR/2001/REC-SVG-20010904/DTD/svg10.dtd">
<svg version="1.0" xmlns="http://www.w3.org/2000/svg"
 width="1033.000000pt" height="1280.000000pt" viewBox="0 0 1033.000000 1280.000000"
 preserveAspectRatio="xMidYMid meet">
<g transform="translate(0.000000,1280.000000) scale(0.100000,-0.100000)"
fill="#000000" stroke="none">
<path d="M8149 12471 c-24 -15 -58 -44 -75 -62 -17 -19 -208 -299 -425 -622
l-394 -588 -45 6 c-64 9 -121 -6 -332 -90 -243 -97 -231 -94 -246 -51 -14 38
-41 53 -69 37 -12 -6 -34 -6 -63 1 -25 5 -63 12 -85 15 -22 3 -50 14 -62 25
-16 15 -30 19 -52 15 -18 -4 -45 0 -66 9 -43 18 -78 9 -160 -36 -27 -16 -68
-31 -90 -35 -22 -3 -69 -13 -105 -21 -59 -14 -82 -13 -214 0 -82 9 -189 16
-238 16 -88 0 -89 0 -124 -35 -19 -19 -39 -35 -44 -35 -5 0 -51 -21 -102 -46
-51 -25 -112 -52 -136 -59 -75 -23 -180 -92 -219 -145 l-36 -49 -26 19 c-58
41 -153 164 -144 186 3 9 -7 29 -24 47 -44 49 -113 135 -113 142 0 3 5 3 12
-1 7 -4 8 -3 4 5 -4 6 -11 9 -16 6 -5 -3 -21 12 -37 32 -41 56 -173 204 -173
195 0 -4 5 -13 11 -19 6 -6 11 -18 13 -27 1 -9 21 -35 45 -57 23 -23 40 -44
36 -47 -8 -8 -96 80 -92 93 2 5 -22 33 -52 60 -61 55 -137 145 -133 158 1 5
-2 6 -8 2 -5 -3 -10 -2 -10 4 0 5 -9 12 -20 16 -11 3 -37 24 -58 46 -30 32
-47 41 -82 45 -57 6 -116 22 -157 42 -29 14 -33 14 -58 -2 -18 -12 -37 -16
-56 -12 -16 3 -52 -3 -85 -14 -31 -11 -67 -20 -80 -20 -13 0 -36 -12 -51 -26
-15 -14 -21 -22 -13 -18 12 5 13 4 3 -6 -10 -11 -15 -11 -28 0 -13 11 -19 9
-40 -10 -14 -13 -25 -29 -25 -37 0 -7 -8 -14 -17 -14 -10 -1 -22 -2 -28 -4 -5
-1 -15 -3 -22 -3 -7 -1 -27 -15 -45 -31 -18 -16 -52 -46 -75 -66 -24 -21 -43
-42 -43 -49 0 -6 7 -2 15 8 8 11 15 15 15 9 0 -14 -25 -35 -33 -27 -8 9 -59
-74 -77 -126 -8 -25 -18 -49 -22 -55 -8 -14 -13 -114 -13 -280 0 -137 1 -142
31 -205 43 -88 49 -110 33 -122 -11 -7 -11 -11 -1 -15 6 -2 12 -11 12 -19 0
-8 6 -23 12 -34 10 -16 10 -24 0 -40 -7 -11 -9 -20 -4 -20 10 0 29 -71 38
-140 7 -59 36 -155 62 -207 16 -33 16 -33 -20 -70 -46 -48 -58 -73 -58 -117 0
-28 7 -40 33 -60 19 -15 38 -26 44 -26 5 0 18 -7 29 -15 16 -13 16 -14 2 -9
-14 5 -18 1 -18 -20 0 -23 -9 -31 -32 -27 -16 2 -136 -210 -144 -255 -2 -12
-13 -44 -24 -69 -11 -26 -20 -50 -20 -55 0 -5 -5 -21 -11 -37 -12 -28 -14 -39
-17 -81 -1 -13 -6 -20 -12 -17 -7 4 -8 -3 -4 -21 5 -19 4 -25 -5 -20 -6 4 -11
2 -11 -3 0 -6 3 -11 8 -11 4 0 8 -25 9 -56 2 -39 13 -78 34 -122 20 -43 29
-77 27 -97 -3 -23 0 -32 11 -31 9 1 20 -19 30 -54 9 -30 24 -70 34 -89 19 -39
64 -211 67 -256 0 -16 1 -58 2 -92 0 -34 5 -60 9 -57 5 3 9 4 9 2 0 -2 7 -21
15 -43 14 -39 14 -39 15 -10 l1 30 14 -32 c7 -18 17 -54 21 -80 3 -26 11 -55
16 -63 17 -27 -2 96 -24 152 -30 80 -33 99 -15 92 17 -6 27 -33 48 -124 12
-54 27 -92 63 -158 23 -44 31 -36 11 11 -8 21 -13 37 -11 37 3 0 -1 19 -9 41
-19 51 -19 54 0 39 12 -10 13 -6 9 27 -4 32 -3 35 6 20 7 -11 10 -30 7 -43 -2
-14 2 -43 9 -65 15 -41 17 -71 17 -218 0 -47 3 -76 7 -65 7 19 7 19 13 -1 3
-11 9 -42 13 -70 10 -77 24 -89 17 -15 -3 36 -9 70 -14 75 -10 13 1 125 11
125 9 0 21 -25 26 -55 2 -11 10 -48 17 -81 9 -39 11 -68 5 -78 -6 -10 -5 -23
1 -33 9 -16 11 -15 11 7 1 16 4 19 7 10 3 -8 9 -17 13 -20 4 -3 26 -50 49
-105 27 -68 38 -108 34 -124 -4 -16 -2 -22 4 -18 6 4 14 -1 18 -11 7 -16 8
-15 16 3 8 17 9 17 5 -5 -3 -14 -1 -32 4 -40 15 -24 42 18 28 43 -7 13 -6 23
1 30 6 6 11 35 11 63 0 54 19 88 21 37 l1 -28 10 28 c8 22 7 32 -6 46 -27 30
-18 31 13 2 30 -28 33 -57 8 -88 -6 -9 -6 -13 1 -13 6 0 12 6 15 13 3 9 8 9
16 1 9 -8 8 -20 -5 -48 -10 -20 -21 -36 -26 -36 -4 0 -8 -5 -8 -11 0 -8 4 -8
14 0 14 12 30 -6 51 -54 8 -19 9 -19 12 2 5 28 25 44 41 34 9 -6 10 -15 3 -34
-6 -15 -12 -52 -14 -83 -4 -54 -3 -56 24 -66 23 -8 29 -16 29 -38 0 -16 4 -31
9 -34 5 -3 3 -33 -5 -68 -7 -35 -13 -77 -14 -94 0 -25 -9 -37 -46 -64 -45 -32
-46 -33 -39 -77 5 -36 1 -57 -25 -119 -19 -47 -30 -88 -29 -112 2 -21 -1 -44
-6 -51 -20 -33 -85 -239 -85 -270 0 -23 -16 -61 -47 -115 -47 -80 -48 -82 -53
-186 -5 -99 -8 -112 -59 -230 -29 -69 -60 -141 -68 -160 -8 -19 -21 -48 -28
-65 -7 -16 -21 -48 -30 -70 -9 -22 -20 -49 -25 -60 -5 -11 -34 -81 -65 -155
-31 -74 -67 -159 -81 -188 -13 -29 -24 -55 -24 -57 0 -10 -122 -271 -204 -435
-69 -137 -88 -172 -97 -180 -19 -15 -89 -148 -89 -170 0 -21 55 -73 105 -98
49 -24 65 -42 99 -109 14 -29 53 -81 86 -116 33 -36 60 -68 60 -73 0 -5 -21
-73 -46 -152 -42 -131 -50 -146 -79 -163 -18 -11 -43 -39 -55 -62 -33 -61
-180 -182 -180 -148 0 27 -57 10 -99 -29 -23 -22 -48 -43 -54 -48 -29 -18 -76
-79 -80 -102 -3 -14 -13 -42 -23 -62 -14 -31 -15 -42 -5 -64 10 -22 9 -30 -5
-45 -9 -10 -18 -29 -19 -41 -2 -13 -17 -52 -33 -88 -52 -113 -92 -256 -128
-459 -39 -217 -62 -328 -75 -351 -7 -13 -8 -12 -9 3 0 19 -13 22 -40 7 -24
-13 -70 -154 -70 -213 0 -23 6 -65 14 -93 l14 -52 -70 -133 c-88 -169 -96
-191 -113 -320 -8 -58 -19 -118 -25 -133 -23 -62 34 -242 100 -311 15 -16 34
-50 40 -75 19 -72 117 -252 179 -328 31 -38 68 -85 81 -104 20 -31 32 -37 87
-47 106 -19 308 -25 458 -12 133 12 142 14 193 47 28 19 52 41 52 48 0 8 11
23 25 33 14 10 27 32 31 49 7 36 -17 67 -175 238 -73 79 -100 114 -96 127 4
12 -10 35 -45 73 -27 31 -50 62 -50 70 0 7 -18 34 -40 59 -22 25 -40 48 -40
53 0 4 -11 22 -25 40 -14 18 -25 43 -25 56 0 13 -7 34 -16 47 -15 21 -15 27
-1 74 9 29 19 72 22 97 3 25 27 95 52 156 l46 112 42 -16 c41 -15 44 -14 79 7
59 37 130 156 177 296 28 88 46 115 72 115 23 0 89 68 106 109 7 15 27 35 46
45 50 27 78 63 109 138 25 60 36 74 103 125 84 64 93 77 93 129 0 24 12 56 34
93 35 57 60 114 70 164 4 16 30 50 61 79 59 55 68 83 35 113 -19 17 -19 18 12
63 l31 45 18 -24 c10 -13 33 -50 51 -82 18 -32 38 -65 44 -74 9 -13 40 43 165
293 365 730 452 920 599 1316 41 109 77 198 80 198 3 0 25 -39 49 -87 72 -146
229 -439 295 -551 l63 -106 -23 -75 c-144 -468 -348 -1098 -363 -1119 -16 -23
-27 -63 -36 -122 -1 -8 -12 -48 -24 -89 -24 -86 -67 -304 -86 -436 -21 -145 9
-167 75 -55 53 89 190 383 190 408 0 11 7 25 15 32 8 7 15 17 15 22 0 5 9 28
20 50 11 23 20 56 20 73 0 27 317 974 340 1014 5 9 31 -45 76 -162 46 -119 73
-175 82 -172 6 3 18 8 26 11 11 4 16 -10 21 -63 8 -86 17 -108 53 -127 38 -19
56 -64 46 -108 -5 -18 -9 -76 -10 -128 -1 -52 -5 -141 -9 -198 -5 -63 -4 -107
3 -115 5 -6 12 -70 16 -142 8 -157 35 -293 81 -420 19 -52 51 -139 71 -192 67
-184 152 -468 143 -477 -24 -26 18 -195 51 -203 39 -10 62 -235 36 -346 -21
-87 -21 -143 -1 -151 12 -4 14 -16 9 -60 -5 -42 -3 -61 9 -79 14 -22 14 -27
-6 -68 -18 -38 -21 -63 -22 -184 0 -132 1 -142 24 -174 15 -21 48 -45 90 -65
59 -28 76 -31 161 -32 86 0 100 -3 144 -29 56 -33 56 -33 471 -22 121 4 227 6
236 7 9 0 24 12 34 26 16 25 16 30 1 78 -17 50 -16 51 4 65 42 28 19 64 -88
135 -25 16 -54 45 -64 63 -11 18 -42 46 -69 63 -27 16 -49 34 -49 40 0 5 -19
22 -42 37 -46 30 -97 82 -98 98 0 6 -18 37 -40 69 -23 34 -37 63 -32 68 5 5
-1 48 -15 100 -21 83 -37 219 -46 391 -3 60 -1 67 16 67 10 0 31 7 47 15 33
17 46 62 36 119 -8 40 -30 61 -73 71 l-32 6 5 72 c4 49 15 93 34 137 16 36 36
92 44 125 17 72 28 362 17 460 -6 51 -4 79 6 103 19 46 19 206 -1 261 -9 24
-16 60 -16 80 0 20 -10 54 -22 76 -11 22 -31 85 -44 140 -12 55 -27 118 -33
140 -6 22 -11 63 -11 90 0 59 -23 163 -45 205 -9 17 -22 69 -30 117 -9 49 -24
120 -35 158 -25 90 -60 238 -60 257 0 8 12 25 26 39 14 13 42 53 62 88 35 63
84 119 149 168 33 26 56 78 55 125 0 22 9 34 43 59 72 52 69 67 -44 229 -36
53 -72 107 -80 120 -44 76 -235 471 -261 540 -7 19 -32 80 -55 135 -23 55 -45
112 -49 128 -6 26 -5 27 38 27 35 0 150 37 175 57 3 2 -7 16 -21 31 -14 15
-31 38 -38 51 -12 23 -40 56 -132 153 -26 27 -46 55 -45 61 3 14 -42 37 -75
37 -16 0 -28 5 -28 10 0 6 18 10 40 10 22 0 40 3 40 6 0 3 -13 23 -28 43 -16
20 -32 44 -35 55 -10 27 36 147 72 185 17 18 34 44 37 56 5 22 9 21 93 -34 48
-31 106 -69 129 -85 64 -44 116 -18 114 55 -1 26 2 27 33 22 27 -4 39 0 60 22
23 22 26 33 22 61 -5 32 -4 34 23 34 18 0 34 8 44 22 19 27 21 79 4 96 -9 9
-8 12 5 12 32 0 75 29 84 57 18 57 10 71 -97 156 -67 53 -87 64 -153 84 -60
18 -149 60 -159 77 -4 6 -8 20 -8 30 0 11 -10 30 -22 44 -19 19 -23 35 -23 82
1 33 8 72 17 91 37 77 68 150 68 164 0 7 5 17 11 20 6 4 8 13 5 21 -3 7 -1 16
3 19 7 4 19 39 36 105 0 3 7 30 15 60 8 30 13 58 12 62 -11 41 56 197 84 198
18 0 73 67 81 98 5 15 8 56 8 92 0 75 -24 132 -68 164 -35 26 -104 27 -142 2
-49 -32 -82 -143 -65 -221 4 -17 3 -41 -1 -53 -5 -12 -4 -24 1 -27 6 -4 7 -13
1 -23 -4 -9 -12 -35 -15 -57 -4 -22 -16 -55 -27 -73 -23 -39 -89 -213 -89
-234 0 -8 -4 -18 -10 -24 -5 -5 -16 -36 -24 -69 -32 -128 -39 -151 -58 -192
-17 -38 -24 -43 -52 -43 -52 0 -180 63 -196 97 -7 15 -13 32 -11 37 4 17 -21
77 -43 104 -13 15 -26 43 -30 63 -9 53 -46 102 -85 115 -27 9 -37 20 -52 59
-10 26 -16 52 -13 56 8 14 -15 47 -38 55 -12 4 -34 19 -49 33 -26 27 -26 27
-8 50 25 31 24 57 -6 113 -26 49 -33 84 -14 73 6 -4 8 -13 6 -19 -6 -16 9 -43
19 -33 4 3 9 26 11 49 2 24 11 49 20 56 10 7 12 12 5 12 -7 0 -12 12 -12 26 0
22 2 25 15 14 9 -8 15 -9 15 -2 0 6 -5 14 -10 17 -6 4 -8 15 -5 25 3 10 1 21
-5 25 -6 4 -8 22 -4 44 4 28 0 52 -15 86 -22 50 -28 105 -11 105 6 0 10 8 10
18 1 15 2 15 15 -2 8 -11 15 -15 15 -9 0 7 -4 15 -10 18 -16 10 -11 47 15 100
14 28 25 56 25 63 0 25 24 6 47 -38 13 -24 23 -38 23 -31 0 16 -47 108 -60
116 -5 3 -10 12 -10 18 0 7 4 6 11 -3 9 -12 9 -11 3 5 -5 11 -6 52 -4 90 9
136 5 178 -18 225 -23 44 -60 100 -88 131 -8 8 -14 23 -14 33 0 9 -4 15 -9 12
-10 -7 -21 17 -21 42 1 15 2 15 13 2 7 -8 19 -16 27 -18 12 -3 13 -1 3 9 -7 7
-13 25 -13 39 0 15 -3 30 -6 33 -11 10 -14 77 -4 77 14 0 -11 61 -27 67 -8 3
-19 15 -23 27 -9 21 -9 21 -9 -2 -1 -13 6 -36 14 -52 19 -36 30 -140 15 -140
-6 0 -8 -4 -5 -10 3 -5 2 -10 -3 -10 -6 0 -13 11 -16 25 -4 14 -12 25 -19 25
-17 1 -52 32 -67 60 -17 32 -23 80 -9 80 6 0 7 5 4 11 -7 10 -16 91 -17 139 0
14 -5 31 -11 39 -6 7 -12 20 -13 28 -3 19 -14 30 -14 15 0 -21 -17 -13 -70 35
-71 64 -98 110 -115 198 -13 70 -29 115 -41 115 -2 0 -1 -8 4 -17 6 -10 12
-38 16 -63 4 -31 3 -39 -3 -25 -5 11 -10 29 -10 40 -1 11 -8 32 -15 47 -14 26
-13 29 5 39 12 6 22 9 25 7 14 -15 106 -179 115 -207 7 -21 14 -29 19 -21 5 8
11 0 19 -21 6 -18 14 -30 17 -27 7 8 -59 139 -99 198 l-31 45 39 -32 c22 -17
65 -68 95 -112 61 -89 98 -118 54 -44 -40 70 -71 111 -128 171 -28 28 -46 52
-41 52 33 0 150 24 205 41 70 22 97 41 111 77 5 12 17 22 28 22 11 0 29 9 39
20 13 14 31 20 58 19 171 -3 180 -2 237 25 51 24 137 98 137 118 0 4 4 8 10 8
5 0 54 24 107 54 78 43 102 52 117 44 15 -8 28 -4 61 20 23 16 58 33 76 37 51
11 107 42 125 70 12 18 25 25 48 25 17 0 65 9 106 20 41 11 93 20 114 20 l40
0 -27 -28 c-32 -33 -36 -81 -9 -105 19 -17 80 -33 164 -44 42 -5 51 -2 85 24
69 54 78 57 120 29 21 -13 57 -30 80 -36 36 -11 46 -10 80 6 34 17 38 24 41
60 2 32 -3 47 -28 78 -34 44 -36 49 -15 66 8 7 15 17 15 22 0 6 11 19 25 30
34 27 85 116 85 150 0 24 6 29 53 43 28 8 95 23 147 34 52 11 124 29 160 40
36 11 82 23 102 26 56 10 67 30 36 62 -22 21 -35 26 -80 25 -30 0 -71 -7 -91
-15 -94 -40 -367 -97 -367 -77 0 3 173 312 385 685 231 408 385 690 385 705 0
27 -16 50 -35 50 -6 0 -31 -13 -56 -29z m-4204 -871 c3 -5 -1 -10 -10 -10 -9
0 -13 5 -10 10 3 6 8 10 10 10 2 0 7 -4 10 -10z m-752 -1843 c3 -8 1 -20 -4
-28 -6 -10 -9 -7 -9 14 0 29 5 35 13 14z m-39 -75 c-6 -40 -56 -103 -70 -89
-4 3 6 30 21 59 46 90 60 98 49 30z m2126 -12 c6 -11 8 -20 6 -20 -3 0 -10 9
-16 20 -6 11 -8 20 -6 20 3 0 10 -9 16 -20z m45 -20 c9 -16 13 -30 11 -30 -3
0 -12 14 -21 30 -9 17 -13 30 -11 30 3 0 12 -13 21 -30z m70 -11 c3 -10 5 -21
3 -25 -1 -5 5 -23 14 -39 9 -17 19 -47 23 -68 4 -20 11 -40 16 -43 16 -9 10
-24 -8 -17 -12 5 -14 3 -8 -8 5 -8 5 -11 -1 -6 -5 5 -9 12 -9 15 0 4 -16 39
-34 77 -19 39 -36 90 -39 113 -5 43 -4 44 17 30 12 -7 24 -20 26 -29z m-31
-146 c9 -18 14 -33 12 -33 -6 0 -36 55 -36 66 0 11 5 3 24 -33z m181 -214 c11
-17 -1 -21 -15 -4 -8 9 -8 15 -2 15 6 0 14 -5 17 -11z m-27 -75 c-4 -3 -12 5
-18 18 -12 22 -12 22 6 6 10 -10 15 -20 12 -24z m186 -216 c27 -49 36 -123 14
-116 -6 2 -13 13 -14 23 -3 21 -29 86 -50 127 -8 14 -14 34 -14 45 0 15 3 14
19 -7 11 -13 31 -46 45 -72z m-2465 -273 c9 -35 9 -56 0 -88 -9 -35 -13 -39
-19 -22 -10 28 -11 167 -1 161 5 -3 14 -26 20 -51z m2359 -60 c-3 -3 -9 2 -12
12 -6 14 -5 15 5 6 7 -7 10 -15 7 -18z m-2468 -220 c0 -5 -5 -3 -10 5 -5 8
-10 20 -10 25 0 6 5 3 10 -5 5 -8 10 -19 10 -25z m2417 -2 c-3 -10 -5 -4 -5
12 0 17 2 24 5 18 2 -7 2 -21 0 -30z m-2374 -13 c3 -11 1 -18 -4 -14 -5 3 -9
12 -9 20 0 20 7 17 13 -6z m2427 -33 c0 -10 -4 -15 -10 -12 -5 3 -10 18 -10
33 0 21 2 24 10 12 5 -8 10 -23 10 -33z m-2342 -11 c27 -46 36 -76 22 -76 -6
0 -13 8 -16 18 -3 9 -9 26 -14 37 -25 62 -22 71 8 21z m2335 -66 c-7 -8 -23
24 -22 45 0 15 3 13 13 -10 7 -16 11 -32 9 -35z m57 -22 c0 -5 -4 -8 -10 -8
-5 0 -10 10 -10 23 0 18 2 19 10 7 5 -8 10 -18 10 -22z m15 22 c3 -5 1 -10 -4
-10 -6 0 -11 5 -11 10 0 6 2 10 4 10 3 0 8 -4 11 -10z m4 -57 c0 -25 -1 -25
-8 -8 -5 11 -7 23 -4 28 8 14 13 7 12 -20z m-18 -30 c13 -16 12 -17 -3 -4 -10
7 -18 15 -18 17 0 8 8 3 21 -13z m10 -91 c-2 -26 -4 -55 -4 -64 -1 -21 -23
-24 -30 -5 -3 8 -2 20 3 27 4 7 6 38 3 69 -4 54 -4 55 13 38 14 -13 18 -29 15
-65z m-51 -3 c0 -5 -7 -9 -15 -9 -15 0 -20 12 -9 23 8 8 24 -1 24 -14z m-2235
-39 c3 -5 1 -10 -4 -10 -6 0 -11 5 -11 10 0 6 2 10 4 10 3 0 8 -4 11 -10z
m2235 -30 c0 -5 -2 -10 -4 -10 -3 0 -8 5 -11 10 -3 6 -1 10 4 10 6 0 11 -4 11
-10z m-2260 -51 c0 -5 -4 -9 -10 -9 -5 0 -10 7 -10 16 0 8 5 12 10 9 6 -3 10
-10 10 -16z m190 -114 c15 -18 27 -165 13 -150 -11 11 -43 122 -43 148 0 21
14 22 30 2z m71 -162 c-9 -16 -10 -16 -11 -1 0 9 3 25 7 35 7 16 8 17 11 1 2
-10 -1 -25 -7 -35z m-74 -19 c10 -28 11 -53 5 -89 l-8 -50 -17 54 c-32 103
-13 181 20 85z m90 -16 c-3 -8 -6 -5 -6 6 -1 11 2 17 5 13 3 -3 4 -12 1 -19z
m2106 -48 c3 -11 3 -20 1 -20 -2 0 -8 9 -14 20 -6 11 -7 20 -2 20 6 0 12 -9
15 -20z m-2132 -33 c-8 -8 -11 -7 -11 4 0 20 13 34 18 19 3 -7 -1 -17 -7 -23z
m133 -13 c9 -3 16 -10 16 -15 0 -4 -6 -6 -14 -3 -13 5 -13 -1 0 -42 19 -63 18
-77 -7 -93 -19 -11 -21 -11 -16 3 4 9 1 15 -5 13 -7 -1 -14 6 -16 16 -4 21 16
49 29 41 5 -3 7 1 4 8 -6 19 -14 78 -10 78 2 0 10 -3 19 -6z m2019 -14 c3 -11
1 -18 -4 -14 -5 3 -9 12 -9 20 0 20 7 17 13 -6z m101 -51 c33 -39 33 -70 1
-85 -19 -10 -27 -9 -39 5 -25 28 -34 62 -22 88 15 31 29 29 60 -8z m-2270 -4
c3 -8 1 -15 -4 -15 -6 0 -10 7 -10 15 0 8 2 15 4 15 2 0 6 -7 10 -15z m2232
-117 c11 -13 28 -41 39 -62 11 -22 32 -47 47 -55 15 -9 31 -26 37 -38 9 -20 7
-22 -29 -28 -63 -11 -101 14 -127 84 -26 66 -28 92 -11 109 17 17 22 15 44
-10z m119 -48 c12 -23 11 -27 -5 -38 -17 -10 -23 -7 -45 26 -23 34 -24 38 -8
49 19 15 37 4 58 -37z m135 -340 c0 -5 -2 -10 -4 -10 -3 0 -8 5 -11 10 -3 6
-1 10 4 10 6 0 11 -4 11 -10z"/>
<path d="M4166 11439 c21 -25 41 -44 44 -42 2 2 -16 23 -40 46 l-44 42 40 -46z"/>
<path d="M4606 10908 c23 -38 80 -108 92 -112 7 -3 -8 21 -34 55 -46 57 -77
89 -58 57z"/>
<path d="M3042 10470 c0 -14 2 -19 5 -12 2 6 2 18 0 25 -3 6 -5 1 -5 -13z"/>
<path d="M5486 9747 c3 -10 9 -15 12 -12 3 3 0 11 -7 18 -10 9 -11 8 -5 -6z"/>
<path d="M5375 9728 c4 -13 11 -27 16 -33 5 -5 4 5 -2 23 -12 36 -24 44 -14
10z"/>
<path d="M5533 9547 c4 -10 7 -21 7 -23 0 -2 6 -4 14 -4 8 0 18 -10 21 -21 6
-17 9 -19 16 -8 5 8 3 20 -5 29 -7 8 -16 22 -19 30 -4 11 -6 12 -6 1 -1 -11
-4 -11 -18 0 -15 12 -16 12 -10 -4z"/>
<path d="M5501 9395 c0 -5 6 -19 14 -29 8 -11 15 -15 15 -10 0 6 -7 19 -15 30
-8 10 -14 15 -14 9z"/>
<path d="M5820 8751 c0 -5 5 -13 10 -16 6 -3 10 -2 10 4 0 5 -4 13 -10 16 -5
3 -10 2 -10 -4z"/>
<path d="M5876 8547 c3 -10 9 -15 12 -12 3 3 0 11 -7 18 -10 9 -11 8 -5 -6z"/>
<path d="M2960 8520 c0 -5 5 -10 11 -10 5 0 7 5 4 10 -3 6 -8 10 -11 10 -2 0
-4 -4 -4 -10z"/>
<path d="M5790 8503 c0 -6 5 -15 10 -18 6 -3 10 -33 10 -65 0 -44 -4 -61 -16
-68 -11 -6 -13 -12 -6 -16 6 -4 8 -14 5 -23 -6 -15 -5 -15 8 -4 8 8 15 23 16
35 1 11 6 41 11 66 8 33 7 52 -3 75 -7 16 -14 23 -14 15 -1 -13 -2 -13 -11 0
-6 9 -10 10 -10 3z"/>
<path d="M5718 8414 c11 -22 42 -51 42 -40 0 4 -12 19 -26 34 -20 21 -24 22
-16 6z"/>
<path d="M5750 8231 c0 -6 4 -13 10 -16 6 -3 7 1 4 9 -7 18 -14 21 -14 7z"/>
<path d="M3160 8051 c0 -5 5 -13 10 -16 6 -3 10 -2 10 4 0 5 -4 13 -10 16 -5
3 -10 2 -10 -4z"/>
<path d="M3167 8013 c-4 -6 0 -24 9 -41 8 -17 17 -54 21 -82 7 -62 18 -57 14
6 -3 52 -34 134 -44 117z"/>
<path d="M3223 7788 c9 -34 36 -98 42 -98 3 0 -2 16 -10 36 -8 20 -15 45 -15
55 0 10 -5 21 -11 25 -8 5 -10 -1 -6 -18z"/>
<path d="M3380 7580 c0 -11 4 -20 9 -20 5 0 7 9 4 20 -3 11 -7 20 -9 20 -2 0
-4 -9 -4 -20z"/>
<path d="M3661 7524 c0 -11 3 -14 6 -6 3 7 2 16 -1 19 -3 4 -6 -2 -5 -13z"/>
<path d="M3611 7484 c0 -11 3 -14 6 -6 3 7 2 16 -1 19 -3 4 -6 -2 -5 -13z"/>
<path d="M3600 7430 c-13 -25 -6 -55 11 -44 7 4 9 0 5 -14 -4 -11 -3 -23 3
-26 5 -3 11 15 13 40 4 53 -14 78 -32 44z"/>
</g>
</svg>
