<?xml version="1.0" encoding="UTF-8" standalone="no"?>
<!-- Created with Inkscape (http://www.inkscape.org/) -->

<svg
   xmlns:dc="http://purl.org/dc/elements/1.1/"
   xmlns:cc="http://creativecommons.org/ns#"
   xmlns:rdf="http://www.w3.org/1999/02/22-rdf-syntax-ns#"
   xmlns:svg="http://www.w3.org/2000/svg"
   xmlns="http://www.w3.org/2000/svg"
   xmlns:sodipodi="http://sodipodi.sourceforge.net/DTD/sodipodi-0.dtd"
   xmlns:inkscape="http://www.inkscape.org/namespaces/inkscape"
   width="800"
   height="85"
   viewBox="0 0 211.66666 22.489584"
   version="1.1"
   id="svg8"
   inkscape:version="0.92.4 (5da689c313, 2019-01-14)"
   sodipodi:docname="flame-head.svg">
  <defs
     id="defs2">
    <filter
       inkscape:label="Flex Metal"
       inkscape:menu="Materials"
       inkscape:menu-tooltip="Bright, polished uneven metal casting, colorizable"
       style="color-interpolation-filters:sRGB;"
       id="filter421"
       height="1.5"
       y="-0.25"
       width="1.5"
       x="-0.25">
      <feColorMatrix
         values="1 0 0 0 0 0 1 0 0 0 0 0 1 0 0 0 0 0 1 1 "
         id="feColorMatrix395" />
      <feColorMatrix
         type="saturate"
         values="0"
         result="result1"
         id="feColorMatrix397" />
      <feFlood
         flood-color="rgb(9,111,151)"
         result="result2"
         id="feFlood399" />
      <feColorMatrix
         type="hueRotate"
         values="0"
         result="result3"
         id="feColorMatrix401" />
      <feBlend
         in2="result1"
         mode="screen"
         result="result2"
         id="feBlend403" />
      <feBlend
         in2="result2"
         result="result4"
         mode="multiply"
         id="feBlend405" />
      <feTurbulence
         numOctaves="5"
         baseFrequency="0.035"
         type="fractalNoise"
         result="result7"
         id="feTurbulence407" />
      <feColorMatrix
         result="result0"
         values="1 0 0 0 0 0 1 0 0 0 0 0 1 0 0 0 0 0 3 -1 "
         id="feColorMatrix409" />
      <feFlood
         flood-opacity="1"
         flood-color="rgb(200,57,93)"
         result="result1"
         id="feFlood411" />
      <feBlend
         in2="result4"
         mode="lighten"
         in="result1"
         result="result5"
         id="feBlend413" />
      <feComposite
         in2="result0"
         operator="out"
         result="result6"
         id="feComposite415" />
      <feComposite
         in2="result4"
         operator="atop"
         result="result8"
         id="feComposite417" />
      <feComposite
         in2="SourceGraphic"
         operator="in"
         id="feComposite419"
         result="fbSourceGraphic" />
      <feColorMatrix
         result="fbSourceGraphicAlpha"
         in="fbSourceGraphic"
         values="0 0 0 -1 0 0 0 0 -1 0 0 0 0 -1 0 0 0 0 1 0"
         id="feColorMatrix423" />
      <feGaussianBlur
         id="feGaussianBlur425"
         stdDeviation="6"
         in="fbSourceGraphic"
         result="result0" />
      <feDiffuseLighting
         id="feDiffuseLighting427"
         lighting-color="rgb(255,255,255)"
         diffuseConstant="1"
         surfaceScale="4"
         result="result5">
        <feDistantLight
           id="feDistantLight429"
           elevation="45"
           azimuth="235" />
      </feDiffuseLighting>
      <feComposite
         in2="fbSourceGraphic"
         id="feComposite431"
         k1="1.4"
         in="result5"
         result="fbSourceGraphic"
         operator="arithmetic" />
      <feGaussianBlur
         id="feGaussianBlur433"
         result="result0"
         in="fbSourceGraphic"
         stdDeviation="6" />
      <feSpecularLighting
         id="feSpecularLighting435"
         specularExponent="25"
         specularConstant="1"
         surfaceScale="4"
         lighting-color="rgb(255,255,255)"
         result="result1"
         in="result0">
        <feDistantLight
           id="feDistantLight437"
           azimuth="235"
           elevation="45" />
      </feSpecularLighting>
      <feComposite
         in2="result1"
         id="feComposite439"
         k3="1"
         k2="1"
         operator="arithmetic"
         in="fbSourceGraphic"
         result="result4" />
      <feComposite
         in2="fbSourceGraphic"
         id="feComposite441"
         operator="in"
         result="fbSourceGraphic"
         in="result4" />
      <feColorMatrix
         result="fbSourceGraphicAlpha"
         in="fbSourceGraphic"
         values="0 0 0 -1 0 0 0 0 -1 0 0 0 0 -1 0 0 0 0 1 0"
         id="feColorMatrix1276" />
      <feGaussianBlur
         id="feGaussianBlur1278"
         stdDeviation="5"
         result="result8"
         in="fbSourceGraphic" />
      <feTurbulence
         id="feTurbulence1280"
         seed="25"
         result="result7"
         type="turbulence"
         numOctaves="2"
         baseFrequency="0.03" />
      <feComposite
         in2="result8"
         id="feComposite1282"
         result="result6"
         operator="in"
         in="result8" />
      <feDisplacementMap
         in2="result6"
         id="feDisplacementMap1284"
         in="result7"
         xChannelSelector="A"
         yChannelSelector="A"
         scale="120"
         result="result4" />
      <feComposite
         in2="result4"
         id="feComposite1286"
         result="result2"
         operator="arithmetic"
         in="fbSourceGraphic"
         k1="2"
         k3="2.5"
         k2="0.25" />
      <feComposite
         in2="fbSourceGraphic"
         id="feComposite1288"
         result="fbSourceGraphic"
         in="result2"
         operator="in" />
      <feBlend
         in2="fbSourceGraphic"
         id="feBlend1290"
         mode="screen"
         result="result91" />
      <feBlend
         in2="result91"
         id="feBlend1292"
         mode="multiply" />
    </filter>
    <filter
       inkscape:label="Blur Double"
       inkscape:menu="Blurs"
       inkscape:menu-tooltip="Overlays two copies with different blur amounts and modifiable blend and composite"
       style="color-interpolation-filters:sRGB;"
       id="filter451">
      <feGaussianBlur
         stdDeviation="5"
         result="fbSourceGraphic"
         id="feGaussianBlur443" />
      <feGaussianBlur
         stdDeviation="0.01"
         in="SourceGraphic"
         result="result1"
         id="feGaussianBlur445" />
      <feComposite
         in2="result1"
         operator="arithmetic"
         in="fbSourceGraphic"
         k2="0.5"
         k3="0.5"
         result="result2"
         id="feComposite447" />
      <feBlend
         in2="fbSourceGraphic"
         mode="normal"
         result="result3"
         id="feBlend449" />
    </filter>
    <filter
       inkscape:label="Riddled"
       inkscape:menu="Textures"
       inkscape:menu-tooltip="Riddle the surface and add bump to images"
       height="1.3"
       y="-0.15"
       width="1.3"
       x="-0.15"
       style="color-interpolation-filters:sRGB;"
       id="filter554">
      <feTurbulence
         baseFrequency="0.05"
         numOctaves="5"
         type="fractalNoise"
         result="result91"
         id="feTurbulence548" />
      <feDisplacementMap
         scale="25"
         result="result5"
         xChannelSelector="R"
         in="SourceGraphic"
         in2="result91"
         id="feDisplacementMap550" />
      <feComposite
         in="SourceGraphic"
         operator="atop"
         in2="result5"
         id="feComposite552"
         result="fbSourceGraphic" />
      <feColorMatrix
         result="fbSourceGraphicAlpha"
         in="fbSourceGraphic"
         values="0 0 0 -1 0 0 0 0 -1 0 0 0 0 -1 0 0 0 0 1 0"
         id="feColorMatrix556" />
      <feGaussianBlur
         id="feGaussianBlur558"
         stdDeviation="0.5"
         in="fbSourceGraphic"
         result="result1" />
      <feTurbulence
         id="feTurbulence560"
         type="fractalNoise"
         baseFrequency="0.04"
         numOctaves="10"
         result="result0" />
      <feGaussianBlur
         id="feGaussianBlur562"
         result="result8"
         stdDeviation="1" />
      <feDisplacementMap
         in2="result0"
         id="feDisplacementMap564"
         in="result1"
         xChannelSelector="R"
         yChannelSelector="B"
         scale="20"
         result="result2" />
      <feComposite
         in2="result8"
         id="feComposite566"
         result="result7"
         operator="in"
         in="result2" />
      <feComposite
         in2="result7"
         id="feComposite568"
         result="fbSourceGraphic"
         k2="0.15"
         in="result2"
         k1="2"
         operator="arithmetic" />
      <feColorMatrix
         id="feColorMatrix570"
         values="1 0 0 -1 0 1 0 1 -1 0 1 0 0 -1 0 -0.8 -1 0 3.7 -2.6 "
         in="fbSourceGraphic"
         result="fbSourceGraphicAlpha"
         type="matrix" />
      <feGaussianBlur
         id="feGaussianBlur572"
         stdDeviation="0.5"
         result="result9" />
      <feSpecularLighting
         id="feSpecularLighting574"
         surfaceScale="10"
         specularExponent="3"
         result="result11"
         specularConstant="0.7">
        <feDistantLight
           id="feDistantLight576"
           azimuth="235"
           elevation="55" />
      </feSpecularLighting>
      <feDiffuseLighting
         id="feDiffuseLighting578"
         in="result9"
         lighting-color="rgb(255,255,255)"
         result="result6"
         diffuseConstant="0.4"
         surfaceScale="50">
        <feDistantLight
           id="feDistantLight580"
           elevation="10"
           azimuth="235" />
      </feDiffuseLighting>
      <feBlend
         in2="result11"
         id="feBlend582"
         result="result10"
         mode="screen" />
      <feComposite
         in2="fbSourceGraphic"
         id="feComposite584"
         in="result10"
         result="result2"
         operator="in" />
      <feComposite
         in2="fbSourceGraphic"
         id="feComposite586"
         k3="0.9"
         k2="1"
         operator="arithmetic" />
    </filter>
    <filter
       inkscape:label="Evanescent"
       inkscape:menu="Blurs"
       inkscape:menu-tooltip="Blur the contents of objects, preserving the outline and adding progressive transparency at edges"
       style="color-interpolation-filters:sRGB;"
       id="filter1346">
      <feGaussianBlur
         result="result6"
         stdDeviation="3"
         in="SourceGraphic"
         id="feGaussianBlur1340" />
      <feColorMatrix
         values="1 0 0 0 0 0 1 0 0 0 0 0 1 0 0 0 0 0 1 0 "
         result="result7"
         in="SourceGraphic"
         id="feColorMatrix1342" />
      <feComposite
         operator="in"
         in="result6"
         in2="result7"
         id="feComposite1344" />
    </filter>
    <filter
       inkscape:label="Evanescent"
       inkscape:menu="Blurs"
       inkscape:menu-tooltip="Blur the contents of objects, preserving the outline and adding progressive transparency at edges"
       style="color-interpolation-filters:sRGB;"
       id="filter1354">
      <feGaussianBlur
         result="result6"
         stdDeviation="3"
         in="SourceGraphic"
         id="feGaussianBlur1348" />
      <feColorMatrix
         values="1 0 0 0 0 0 1 0 0 0 0 0 1 0 0 0 0 0 1 0 "
         result="result7"
         in="SourceGraphic"
         id="feColorMatrix1350" />
      <feComposite
         operator="in"
         in="result6"
         in2="result7"
         id="feComposite1352" />
    </filter>
  </defs>
  <sodipodi:namedview
     id="base"
     pagecolor="#ffffff"
     bordercolor="#666666"
     borderopacity="1.0"
     inkscape:pageopacity="0.0"
     inkscape:pageshadow="2"
     inkscape:zoom="1.2372312"
     inkscape:cx="433.474"
     inkscape:cy="24.285714"
     inkscape:document-units="px"
     inkscape:current-layer="layer4"
     showgrid="false"
     units="px"
     inkscape:window-width="1440"
     inkscape:window-height="837"
     inkscape:window-x="-8"
     inkscape:window-y="-8"
     inkscape:window-maximized="1" />
  <metadata
     id="metadata5">
    <rdf:RDF>
      <cc:Work
         rdf:about="">
        <dc:format>image/svg+xml</dc:format>
        <dc:type
           rdf:resource="http://purl.org/dc/dcmitype/StillImage" />
        <dc:title></dc:title>
      </cc:Work>
    </rdf:RDF>
  </metadata>
  <g
     transform="translate(0,-274.51041)"
     id="g381"
     inkscape:groupmode="layer"
     inkscape:label="Layer 1 copy"
     style="display:inline"
     sodipodi:insensitive="true">
    <path
       inkscape:connector-curvature="0"
       style="fill:#000000;stroke:none;filter:url(#filter451)"
       d="m 15.038279,280.81138 h 1.852083 v 8.14916 h -1.852083 z m -0.370417,-0.37042 v -0.37042 h 2.592916 v 0.37042 c -0.204737,0.003 -0.368393,0.16485 -0.370416,0.37042 h -1.852083 c -0.0063,-0.21188 -0.176278,-0.36697 -0.370417,-0.37042 z m 0,8.89854 c 0.213309,-0.003 0.374108,-0.18196 0.370417,-0.37896 h 1.852083 c 0.0063,0.2076 0.170563,0.36554 0.370416,0.37042 v 0.37042 h -2.592916 z m 2.2225,-4.82396 h 1.852083 v 0.74084 h -1.852083 z m 2.073304,0.74129 -0.221221,-4.5e-4 v -0.73757 l 0.266097,-0.007 c 0.283534,0.0215 0.442925,-0.0893 0.480156,-0.3669 h 0.364997 v 1.48166 h -0.36188 c -0.05056,-0.29485 -0.25175,-0.35504 -0.528149,-0.36996 z m -3.925387,-0.74129 v 0.74084 h -1.852084 v -0.74084 z m -2.073305,0.74129 c -0.276399,0.0149 -0.477586,0.0751 -0.528148,0.36996 h -0.361881 v -1.48166 h 0.364998 c 0.03723,0.27757 0.196621,0.38839 0.480155,0.3669 l 0.266097,0.007 v 0.73757 z m 7.629554,-4.44545 h 1.852083 v 8.14916 h -1.852083 z m -0.370416,-0.37042 v -0.37042 h 2.592916 v 0.37042 c -0.204737,0.003 -0.368393,0.16485 -0.370417,0.37042 h -1.852083 c -0.0063,-0.21188 -0.176277,-0.36697 -0.370416,-0.37042 z m 0,8.89854 c 0.213309,-0.003 0.374108,-0.18196 0.370416,-0.37896 h 1.852083 c 0.0063,0.2076 0.170564,0.36554 0.370417,0.37042 v 0.37042 h -2.592916 z m 6.493999,-0.37896 v 0.74084 c -1.661926,-0.002 -2.860499,-0.65368 -3.314574,-2.33747 -0.04965,-0.40811 0.05975,-0.7867 0.53645,-0.79983 0.308567,0.0165 0.545494,0.2217 0.544381,0.54438 0,0.18128 -0.04289,0.28088 -0.176052,0.40883 -0.09884,0.095 -0.09793,0.10546 0.02781,0.32035 0.684112,0.77126 1.325252,1.12397 2.381982,1.1229 z m 0,-8.14916 c -0.838325,-5.5e-4 -1.816398,0.74144 -1.832426,1.59238 v 1.00053 c 0.0061,0.19526 0.185689,0.38211 0.35076,0.37896 v 0.36188 h -2.2225 v -0.36188 c 0.174084,0.01 0.345317,-0.18051 0.331393,-0.37896 v -1.87711 c 0.787692,-1.04569 2.347226,-1.45884 3.372773,-1.45664 z m -0.221221,4.44545 c -0.276399,0.0149 -0.477586,0.0751 -0.528148,0.36996 h -0.36188 v -1.48166 h 0.364997 c 0.03723,0.27757 0.196621,0.38839 0.480155,0.3669 l 0.266097,0.007 v 0.73757 z m 2.162233,3.86736 c -0.580034,0.39246 -1.345973,0.58409 -1.941012,0.57719 5.58e-4,-0.24904 -7.59e-4,-0.4918 0,-0.74084 1.521644,-8e-5 2.209807,-2.6657 2.209807,-4.07458 0,-1.40888 -0.531678,-4.07815 -2.209807,-4.07458 v -0.74084 c 2.487529,0.007 4.042449,2.43843 4.063211,4.81542 0.01181,1.35186 -0.476729,2.64156 -1.3883,3.63826 0.341674,0.47404 0.827319,0.72869 1.399673,0.80674 v 0.37042 c -0.762636,0.0224 -1.460132,-0.25609 -2.133572,-0.57719 z m 0.281488,-4.60865 v 0.74084 h -2.2225 v -0.74084 z m 12.827307,4.57175 c 0.09701,0.16003 0.191912,0.24367 0.377417,0.24367 h 0.119112 v 0.37077 l -2.230657,-0.0106 -2.621676,-4.40605 1.111055,-1.55037 z m 0.126112,-0.12675 c -0.0061,0.20103 0.157262,0.37118 0.370417,0.37042 h -2.2225 v -4.445 h 1.852083 z m 0,-8.14916 v 4.07458 h -1.852083 v -4.445 h 2.2225 c -0.213155,-7.6e-4 -0.376515,0.16939 -0.370417,0.37042 z m 0.370417,-0.37896 c -0.213309,0.003 -0.374108,0.18196 -0.370417,0.37896 h -1.852083 c -0.0063,-0.2076 -0.170564,-0.36554 -0.370417,-0.37042 v -0.37042 h 2.592917 z m -7.652638,0.25221 c -0.09701,-0.16003 -0.191912,-0.24367 -0.377417,-0.24367 H 34.11528 v -0.37077 l 2.230658,0.0106 2.621675,4.40605 -1.111055,1.55037 z m -0.126112,0.12675 c 0.0061,-0.20103 -0.157262,-0.37118 -0.370417,-0.37042 h 2.2225 v 4.445 h -1.852083 z m 0,8.14916 v -4.07458 h 1.852083 v 4.445 h -2.2225 c 0.213155,7.6e-4 0.376516,-0.16939 0.370417,-0.37042 z m -0.370417,0.37896 c 0.21331,-0.003 0.374108,-0.18196 0.370417,-0.37896 h 1.852083 c 0.0063,0.2076 0.170564,0.36554 0.370417,0.37042 v 0.37042 H 34.11528 Z m 13.697266,-1.11979 h -1.481667 v -2.96333 h 1.481667 z m 0,0.71592 c 6.05e-4,0.23173 0.162727,0.34364 0.370417,0.40387 v 0.36188 h -1.852084 v -0.24492 c -0.341506,0.19696 -0.726347,0.23193 -1.11125,0.25097 v -0.36909 c 0.628755,-0.0706 1.026152,-0.50891 1.118629,-1.11863 h 1.474288 z m -5.17751,-2.17692 c 0.01622,-1.44792 1.010187,-2.97078 2.584593,-2.984 v 0.36068 c -0.764892,-0.007 -1.09897,1.76644 -1.10096,2.60265 -0.002,0.83621 0.324346,2.59386 1.10096,2.60266 v 0.36068 c -1.522725,0 -2.60081,-1.49475 -2.584593,-2.94267 z m 5.17751,-2.21825 v 0.71592 h -1.474288 c -0.09248,-0.60972 -0.489874,-1.04802 -1.118629,-1.11863 v -0.3691 c 0.384903,0.0191 0.769744,0.054 1.11125,0.25098 v -0.24492 h 1.852084 v 0.36188 c -0.20769,0.0602 -0.369812,0.17214 -0.370417,0.40387 z m 1.195146,0.71592 h 1.481666 v 2.96333 h -1.481666 z m 0,-0.71592 c -6.06e-4,-0.23173 -0.162727,-0.34364 -0.370417,-0.40387 v -0.36188 h 1.852083 v 0.24492 c 0.341506,-0.19697 0.726348,-0.23193 1.11125,-0.25098 v 0.3691 c -0.628754,0.0706 -1.026152,0.50891 -1.118629,1.11863 h -1.474287 z m 4.053871,0.69784 c -0.367363,-0.13922 -0.413189,-0.4805 -0.209567,-0.78055 -0.390987,-0.19155 -0.81448,-0.31208 -1.251388,-0.31262 v -0.37649 c 0.689993,0.0193 1.361108,0.24648 1.890099,0.69233 0.181906,0.15332 0.182993,0.46463 0.01617,0.64821 -0.09624,0.10591 -0.320867,0.17628 -0.445313,0.12912 z m -2.200362,3.72655 -1.853509,0.73556 v -1.4807 h 1.481666 c -8.6e-4,0.18997 0.170237,0.36853 0.371843,0.37933 z m 3.507993,-3.70847 h 1.481667 v 2.96333 h -1.481667 z m 0,-0.71592 c -6.05e-4,-0.23173 -0.162726,-0.34364 -0.370416,-0.40387 v -0.36188 h 1.852083 v 0.24492 c 0.341506,-0.19697 0.726347,-0.23193 1.11125,-0.25098 v 0.3691 c -0.628754,0.0706 -1.026152,0.50891 -1.118629,1.11863 h -1.474288 z m 4.053872,0.69784 c -0.367363,-0.13922 -0.413189,-0.4805 -0.209567,-0.78055 -0.390988,-0.19155 -0.814481,-0.31208 -1.251388,-0.31262 v -0.37649 c 0.689993,0.0193 1.361108,0.24648 1.890099,0.69233 0.181906,0.15332 0.182993,0.46463 0.01617,0.64821 -0.09624,0.10591 -0.320866,0.17628 -0.445312,0.12912 z m -2.200362,3.72655 -1.85351,0.73556 v -1.4807 h 1.481667 c -8.61e-4,0.18997 0.170237,0.36853 0.371843,0.37933 z m 8.542915,-0.74514 h -1.481667 v -2.96333 h 1.481667 z m 0,0.71592 c 6.05e-4,0.23173 0.162727,0.34364 0.370417,0.40387 v 0.36188 h -1.852084 v -0.24492 c -0.341506,0.19696 -0.726347,0.23193 -1.11125,0.25097 v -0.36909 c 0.628755,-0.0706 1.026152,-0.50891 1.118629,-1.11863 h 1.474288 z m -3.023957,-5.1373 c 0.09559,-0.01 0.231684,-0.0194 0.302423,-0.0209 l 0.128617,-0.003 v 0.36131 c -0.210762,0.031 -0.424109,0.0588 -0.589367,0.1929 -0.213469,0.17322 -0.384368,0.39225 -0.454367,0.66979 -0.09186,0.27683 -0.08499,0.60852 0,0.88575 0.136194,0.41045 0.450942,0.77786 0.897668,0.83969 l 0.146066,0.023 v 0.36131 c -0.02257,0 -0.04513,0 -0.0677,0 -0.576825,0.0335 -1.051334,0.53346 -1.043548,1.11125 0,0.57474 0.460833,1.08199 1.043548,1.11125 h 0.0677 v 0.37042 l -0.08746,-1.7e-4 c -0.146885,-2.9e-4 -0.44783,-0.0401 -0.643085,-0.0851 -0.650002,-0.19355 -1.502544,-0.61929 -1.479602,-1.39645 0,-0.47379 0.320729,-0.84462 0.710801,-1.08876 0.112941,-0.0674 0.234597,-0.12233 0.346938,-0.18666 -0.02915,-0.0134 -0.05667,-0.0311 -0.08746,-0.0401 -0.133087,-0.039 -0.447492,-0.1919 -0.607809,-0.2956 -0.401022,-0.25942 -0.748458,-0.66909 -0.733545,-1.16696 0,-0.49417 0.316665,-0.90368 0.726621,-1.16221 0.388564,-0.25058 0.912738,-0.42771 1.42356,-0.48105 z m 3.023957,0.74213 v 0.71592 h -1.474288 c -0.09248,-0.60972 -0.489874,-1.04802 -1.118629,-1.11863 v -0.3691 c 0.384903,0.0191 0.769744,0.054 1.11125,0.25098 v -0.24492 h 1.852084 v 0.36188 c -0.20769,0.0602 -0.369812,0.17214 -0.370417,0.40387 z m 3.558677,-3.72908 h 1.852084 v 8.14916 h -1.852084 z m -0.370416,-0.37042 v -0.37042 h 2.592916 v 0.37042 c -0.204737,0.003 -0.368393,0.16485 -0.370416,0.37042 h -1.852084 c -0.0063,-0.21188 -0.176277,-0.36697 -0.370416,-0.37042 z m 0,8.89854 c 0.213309,-0.003 0.374108,-0.18196 0.370416,-0.37896 h 1.852084 c 0.0063,0.2076 0.170563,0.36554 0.370416,0.37042 v 0.37042 H 67.95388 Z m 2.2225,-4.82396 h 1.852083 v 0.74084 H 70.17638 Z m 2.073304,0.74129 -0.221221,-4.5e-4 v -0.73757 l 0.266097,-0.007 c 0.283534,0.0215 0.442925,-0.0893 0.480156,-0.3669 h 0.364997 v 1.48166 h -0.36188 c -0.05056,-0.29485 -0.25175,-0.35504 -0.528149,-0.36996 z m -3.925388,-0.74129 v 0.74084 h -1.852083 v -0.74084 z m -2.073304,0.74129 c -0.276399,0.0149 -0.477586,0.0751 -0.528148,0.36996 h -0.361881 v -1.48166 h 0.364998 c 0.03723,0.27757 0.196621,0.38839 0.480155,0.3669 l 0.266097,0.007 v 0.73757 z m 9.111221,2.96288 h -1.481667 v -2.96333 h 1.481667 z m -1.82921,0.16722 c 0.106678,-0.0515 0.287479,-0.0591 0.347543,-0.16722 h 1.481667 c 0,0.16144 0.01506,0.27614 -0.13969,0.36549 -0.0702,0.0395 -0.112798,0.0396 -0.295265,0.0462 -1.169691,0.0425 -1.340725,1.31786 -1.3446,2.18123 -0.0039,0.86337 0.135471,2.22092 1.052715,2.2225 v 0.37041 c -0.342555,0.004 -0.668238,0.002 -0.978489,-0.11992 -1.026508,-0.40433 -1.680507,-1.38144 -1.669578,-2.47299 0.01093,-1.09156 0.569396,-1.95433 1.545697,-2.4257 z m 2.549331,3.55503 c 0.124447,-0.0472 0.349072,0.0232 0.445313,0.12911 0.166824,0.18358 0.165738,0.4949 -0.01617,0.64821 -0.528991,0.44585 -1.200106,0.67304 -1.890098,0.69234 v -0.37649 c 0.436907,-5.5e-4 0.8604,-0.12108 1.251387,-0.31262 -0.203621,-0.30005 -0.157796,-0.64134 0.209568,-0.78055 z m -2.193363,-9.66064 c 2.66e-4,-0.39105 0.327755,-0.71779 0.736746,-0.7188 0.411045,-0.001 0.729558,0.32765 0.730154,0.7301 5.99e-4,0.4045 -0.309504,0.72966 -0.73449,0.73171 -0.427041,0.002 -0.732675,-0.35195 -0.73241,-0.74301 z m 1.845085,2.22992 v 0.3658 c -0.201606,0.0108 -0.372704,0.18937 -0.371843,0.37934 h -1.481667 v -1.4807 z m 1.469886,1.48606 0.0023,-1.47147 1.849774,3.6733 2.223457,-4.42637 0.369468,0.74439 v 1.48015 l -1.852128,3.70408 H 79.05607 Z m -0.780992,-1.53768 c -0.101577,-0.19994 -0.220593,-0.29396 -0.447175,-0.31449 h -0.06829 v -0.37042 h 1.666875 v 0.37042 h -0.155923 c -0.144898,0 -0.159525,0.005 -0.216076,0.0602 -0.107341,0.10484 -0.04531,0.22798 0.0048,0.32418 l -0.0023,1.46926 z m 4.855576,-0.047 h -0.288102 c 0.02392,-0.28671 -0.237931,-0.26752 -0.452732,-0.26752 v -0.37042 h 2.407709 v 0.3647 c -0.185529,0.007 -0.34944,0.0382 -0.453135,0.20219 l -0.844166,1.65561 h -0.369574 z m 3.40221,5.26511 c -0.510821,-0.0533 -1.034995,-0.23048 -1.423559,-0.48105 -0.409956,-0.25853 -0.726622,-0.66804 -0.726622,-1.16221 -0.01491,-0.49787 0.332524,-0.90754 0.733546,-1.16696 0.160317,-0.10371 0.474722,-0.25661 0.607809,-0.2956 0.03078,-0.009 0.05831,-0.0268 0.08746,-0.0401 -0.112341,-0.0643 -0.233997,-0.11922 -0.346938,-0.18666 -0.390073,-0.24414 -0.710802,-0.61498 -0.710802,-1.08876 -0.02294,-0.77716 0.829601,-1.2029 1.479603,-1.39645 0.195255,-0.045 0.4962,-0.0848 0.643085,-0.0851 l 0.08746,-1.7e-4 v 0.37042 h -0.0677 c -0.582715,0.0292 -1.043548,0.53651 -1.043548,1.11125 -0.0078,0.57778 0.466723,1.07776 1.043548,1.11125 0.02257,0 0.04513,0 0.0677,0 v 0.3613 l -0.146066,0.023 c -0.446726,0.0618 -0.761475,0.42925 -0.897669,0.8397 -0.08499,0.27723 -0.09186,0.60892 0,0.88575 0.07,0.27754 0.240899,0.49657 0.454368,0.66979 0.165258,0.1341 0.378605,0.16194 0.589367,0.1929 v 0.36131 l -0.128617,-0.003 c -0.07074,-0.002 -0.20683,-0.0109 -0.302424,-0.0209 z m 0.431041,-5.53828 v -0.37081 c 0.50379,0.0396 0.993653,0.16548 1.389588,0.49895 0.255674,0.21353 0.253416,0.21208 0.308585,0.19824 0.12092,-0.0608 0.142686,-0.19784 0.158584,-0.3207 h 0.365743 v 1.85208 h -0.364048 c -0.130288,-1.08683 -0.725626,-1.7771 -1.858452,-1.85776 z m 0,5.19719 c 1.132826,-0.0807 1.728164,-0.77093 1.858452,-1.85776 h 0.364048 v 1.85208 h -0.365743 c -0.0159,-0.12286 -0.03766,-0.25986 -0.158584,-0.3207 -0.05517,-0.0138 -0.05291,-0.0153 -0.308585,0.19824 -0.395935,0.33347 -0.885798,0.4594 -1.389588,0.49895 z m 9.990086,-0.3761 c 1.131105,0 2.490469,-0.58468 2.5986,-1.85208 h 0.364733 v 2.2225 h -0.370417 v -0.0898 c 0,-0.15377 -0.12437,-0.25641 -0.283345,-0.23384 -0.04223,0.006 -0.164756,0.0645 -0.27228,0.13005 -0.634023,0.33812 -1.314435,0.56079 -2.037291,0.56404 z m 0,-8.14916 v -0.74084 c 1.661926,0.002 2.860499,0.65368 3.314574,2.33747 0.04965,0.40811 -0.05975,0.7867 -0.53645,0.79983 -0.308567,-0.0165 -0.545494,-0.2217 -0.544381,-0.54438 0,-0.18128 0.04289,-0.28088 0.176052,-0.40883 0.09884,-0.095 0.09793,-0.10546 -0.02781,-0.32035 -0.684112,-0.77126 -1.325252,-1.12397 -2.381982,-1.1229 z m 0.221221,4.44545 -0.221221,-4.5e-4 v -0.73757 l 0.266097,-0.007 c 0.283534,0.0215 0.442925,-0.0893 0.480155,-0.3669 h 0.364997 v 1.48166 h -0.36188 c -0.05056,-0.29485 -0.251749,-0.35504 -0.528148,-0.36996 z m -2.162233,3.86736 c -0.67344,0.3211 -1.370935,0.59959 -2.133572,0.57719 v -0.37042 c 0.572354,-0.0781 1.057999,-0.3327 1.399673,-0.80674 -0.911571,-0.9967 -1.400107,-2.2864 -1.3883,-3.63826 0.02076,-2.37699 1.575682,-4.8087 4.063211,-4.81542 v 0.74084 c -1.678129,-0.004 -2.209807,2.6657 -2.209807,4.07458 0,1.40888 0.688163,4.0745 2.209807,4.07458 7.59e-4,0.24904 -5.58e-4,0.4918 0,0.74084 -0.595039,0.007 -1.360978,-0.18473 -1.941012,-0.57719 z m 1.71979,-3.86736 c -0.276398,0.0149 -0.477586,0.0751 -0.528148,0.36996 h -0.36188 v -1.48166 h 0.364997 c 0.03723,0.27757 0.196621,0.38839 0.480155,0.3669 l 0.266098,0.007 v 0.73757 z m 5.226359,-4.5e-4 h 1.48166 v 2.96333 H 100.107 Z m 0,-0.71592 c -6.1e-4,-0.23173 -0.162731,-0.34364 -0.370421,-0.40387 v -0.36188 h 1.852081 v 0.24492 c 0.34151,-0.19697 0.72635,-0.23193 1.11125,-0.25098 v 0.3691 c -0.62875,0.0706 -1.02615,0.50891 -1.11863,1.11863 H 100.107 Z m 3.68815,1.45241 c -0.001,-0.70546 -0.28428,-1.85016 -1.09524,-1.85334 v -0.37029 c 1.40516,0.002 2.58169,0.52156 2.58169,1.88842 l 0.013,2.56205 h -1.4806 z m 0.016,2.22684 h 1.48167 c -6e-5,0.25922 0.20652,0.72954 0.58202,0.73675 0.22463,-0.009 0.28898,-0.21278 0.42131,-0.34575 l 0.3137,0.26314 c -0.1917,0.5126 -0.76189,0.80976 -1.269,0.82832 -0.92638,0.0339 -1.52697,-0.71206 -1.5297,-1.48246 z m -2.2225,0 c -0.003,0.7704 -0.60332,1.51637 -1.52969,1.48246 -0.507117,-0.0186 -1.077305,-0.31572 -1.269013,-0.82832 l 0.313701,-0.26314 c 0.132331,0.13297 0.196678,0.33694 0.421311,0.34575 0.375498,-0.007 0.582091,-0.47753 0.582021,-0.73675 z m 10.10836,-2.56205 v 2.56205 h -1.48167 v -2.70493 c 0,-0.56796 -0.41816,-1.3784 -1.11125,-1.36965 v -0.37042 c 1.30151,0.007 2.586,0.38553 2.59292,1.88295 z m 0,4.04372 h -1.48167 v -0.24492 c -0.34151,0.19696 -0.72635,0.23193 -1.11125,0.25097 v -0.36909 c 0.62858,-0.0705 1.02618,-0.50911 1.11863,-1.11863 h 1.47429 z m 0,1.48166 h -1.48167 v -1.48166 h 1.48167 z m -2.59292,2.2225 v -0.37041 c 0.84234,0.001 1.11043,-1.11982 1.11125,-1.85209 h 1.48167 c -0.004,1.31451 -1.32572,2.21894 -2.59292,2.2225 z m 0,-0.36474 v 0.37082 c -0.50379,-0.0396 -0.99365,-0.16548 -1.38959,-0.49896 -0.25567,-0.21353 -0.25341,-0.21208 -0.30858,-0.19823 -0.12092,0.0608 -0.14269,0.19783 -0.15859,0.3207 h -0.36574 v -1.85209 h 0.36405 c 0.13029,1.08683 0.72562,1.77711 1.85845,1.85776 z m -2.58459,-6.32342 c -0.0162,-1.44792 1.06186,-2.94267 2.58459,-2.94267 v 0.36068 c -0.77661,0.009 -1.10295,1.76644 -1.10096,2.60265 0.002,0.83621 0.33607,2.60947 1.10096,2.60266 v 0.36068 c -1.57441,-0.0132 -2.56838,-1.53608 -2.58459,-2.984 z m 7.40001,1.50233 h -1.48167 v -2.96333 h 1.48167 z m -1.48167,1.11125 v -1.11125 h 1.48167 v 1.11125 h 0.74083 v 0.37042 h -2.59291 v -0.37042 z m 0,1.85208 v -1.48166 h 1.48167 v 1.48166 z m 1.85351,0.74514 -1.85351,0.73556 v -1.4807 h 1.48167 c -8.6e-4,0.18997 0.17024,0.36853 0.37184,0.37934 z m -0.38026,-9.64686 c 2.6e-4,0.39106 -0.30537,0.74506 -0.73241,0.74301 -0.42499,-0.002 -0.73509,-0.32721 -0.73449,-0.73171 5.9e-4,-0.40245 0.31911,-0.73111 0.73015,-0.7301 0.40899,10e-4 0.73648,0.32775 0.73675,0.7188 z m 0.37884,1.85527 c -0.14488,0.028 -0.2616,0.0893 -0.33139,0.223 -0.0368,0.0705 -0.0382,0.13928 -0.0386,0.49036 l -4.5e-4,0.40643 h -1.48167 l -4.5e-4,-0.40643 c -3.9e-4,-0.35108 -0.007,-0.41734 -0.0386,-0.49036 -0.0618,-0.14223 -0.19486,-0.18648 -0.33139,-0.223 v -0.36188 h 2.2225 z m 0.80359,1.11979 h 1.48167 v 2.96333 h -1.48167 z m 0,-0.71592 c -6.1e-4,-0.23173 -0.16273,-0.34364 -0.37042,-0.40387 v -0.36188 h 1.85209 v 0.24492 c 0.3415,-0.19697 0.72634,-0.23193 1.11125,-0.25098 v 0.3691 c -0.62876,0.0706 -1.02615,0.50891 -1.11863,1.11863 h -1.47429 z m 3.68815,1.45241 c -0.001,-0.70546 -0.28428,-1.85016 -1.09523,-1.85334 v -0.37029 c 1.40516,0.002 2.58169,0.52156 2.58169,1.88842 l 0.013,2.56205 h -1.48058 z m 0.016,3.33809 v -1.11125 h 1.48166 v 1.11125 h 0.74084 v 0.37042 h -2.59292 v -0.37042 z m 0,1.85208 v -1.48166 h 1.48166 v 1.48166 z m 1.85351,0.74514 -1.85351,0.73556 v -1.4807 h 1.48166 c -8.6e-4,0.18997 0.17024,0.36853 0.37185,0.37934 z m -5.9281,-2.58868 c 0.14488,-0.028 0.2616,-0.0893 0.3314,-0.223 0.0368,-0.0705 0.0382,-0.13928 0.0386,-0.49036 l 4.5e-4,-0.40643 h 1.48167 l 4.5e-4,0.40643 c 3.9e-4,0.35108 0.007,0.41734 0.0386,0.49036 0.0618,0.14223 0.19486,0.18648 0.33139,0.223 v 0.36188 h -2.2225 z m 6.29127,-2.62212 c -0.0162,-1.44792 1.06187,-2.94267 2.58459,-2.94267 v 0.36068 c -0.77661,0.009 -1.10295,1.76644 -1.10096,2.60265 0.002,0.83621 0.33607,2.60947 1.10096,2.60266 v 0.36068 c -1.5744,-0.0132 -2.56837,-1.53608 -2.58459,-2.984 z m 1.47334,-0.34975 h 2.21424 c -0.0778,-0.75929 -0.22383,-2.02372 -1.10299,-2.23224 v -0.36068 c 1.65246,0.0228 2.49597,1.46505 2.5988,2.96333 h -3.71005 z m 2.57221,1.87016 c 0.12445,-0.0472 0.34907,0.0232 0.44531,0.12911 0.16683,0.18359 0.16574,0.4949 -0.0162,0.64822 -0.52899,0.44584 -1.2001,0.67304 -1.8901,0.69233 v -0.37649 c 0.43691,-5.4e-4 0.8604,-0.12107 1.25139,-0.31262 -0.20362,-0.30005 -0.15779,-0.64134 0.20957,-0.78055 z"
       id="path379" />
  </g>
  <g
     id="g455"
     inkscape:groupmode="layer"
     inkscape:label="Layer 1 copy 1"
     transform="translate(0,-274.51041)"
     style="display:inline"
     sodipodi:insensitive="true">
    <path
       inkscape:connector-curvature="0"
       style="fill:#000000;stroke:none;filter:url(#filter421)"
       d="m 15.038279,280.81138 h 1.852083 v 8.14916 h -1.852083 z m -0.370417,-0.37042 v -0.37042 h 2.592916 v 0.37042 c -0.204737,0.003 -0.368393,0.16485 -0.370416,0.37042 h -1.852083 c -0.0063,-0.21188 -0.176278,-0.36697 -0.370417,-0.37042 z m 0,8.89854 c 0.213309,-0.003 0.374108,-0.18196 0.370417,-0.37896 h 1.852083 c 0.0063,0.2076 0.170563,0.36554 0.370416,0.37042 v 0.37042 h -2.592916 z m 2.2225,-4.82396 h 1.852083 v 0.74084 h -1.852083 z m 2.073304,0.74129 -0.221221,-4.5e-4 v -0.73757 l 0.266097,-0.007 c 0.283534,0.0215 0.442925,-0.0893 0.480156,-0.3669 h 0.364997 v 1.48166 h -0.36188 c -0.05056,-0.29485 -0.25175,-0.35504 -0.528149,-0.36996 z m -3.925387,-0.74129 v 0.74084 h -1.852084 v -0.74084 z m -2.073305,0.74129 c -0.276399,0.0149 -0.477586,0.0751 -0.528148,0.36996 h -0.361881 v -1.48166 h 0.364998 c 0.03723,0.27757 0.196621,0.38839 0.480155,0.3669 l 0.266097,0.007 v 0.73757 z m 7.629554,-4.44545 h 1.852083 v 8.14916 h -1.852083 z m -0.370416,-0.37042 v -0.37042 h 2.592916 v 0.37042 c -0.204737,0.003 -0.368393,0.16485 -0.370417,0.37042 h -1.852083 c -0.0063,-0.21188 -0.176277,-0.36697 -0.370416,-0.37042 z m 0,8.89854 c 0.213309,-0.003 0.374108,-0.18196 0.370416,-0.37896 h 1.852083 c 0.0063,0.2076 0.170564,0.36554 0.370417,0.37042 v 0.37042 h -2.592916 z m 6.493999,-0.37896 v 0.74084 c -1.661926,-0.002 -2.860499,-0.65368 -3.314574,-2.33747 -0.04965,-0.40811 0.05975,-0.7867 0.53645,-0.79983 0.308567,0.0165 0.545494,0.2217 0.544381,0.54438 0,0.18128 -0.04289,0.28088 -0.176052,0.40883 -0.09884,0.095 -0.09793,0.10546 0.02781,0.32035 0.684112,0.77126 1.325252,1.12397 2.381982,1.1229 z m 0,-8.14916 c -0.838325,-5.5e-4 -1.816398,0.74144 -1.832426,1.59238 v 1.00053 c 0.0061,0.19526 0.185689,0.38211 0.35076,0.37896 v 0.36188 h -2.2225 v -0.36188 c 0.174084,0.01 0.345317,-0.18051 0.331393,-0.37896 v -1.87711 c 0.787692,-1.04569 2.347226,-1.45884 3.372773,-1.45664 z m -0.221221,4.44545 c -0.276399,0.0149 -0.477586,0.0751 -0.528148,0.36996 h -0.36188 v -1.48166 h 0.364997 c 0.03723,0.27757 0.196621,0.38839 0.480155,0.3669 l 0.266097,0.007 v 0.73757 z m 2.162233,3.86736 c -0.580034,0.39246 -1.345973,0.58409 -1.941012,0.57719 5.58e-4,-0.24904 -7.59e-4,-0.4918 0,-0.74084 1.521644,-8e-5 2.209807,-2.6657 2.209807,-4.07458 0,-1.40888 -0.531678,-4.07815 -2.209807,-4.07458 v -0.74084 c 2.487529,0.007 4.042449,2.43843 4.063211,4.81542 0.01181,1.35186 -0.476729,2.64156 -1.3883,3.63826 0.341674,0.47404 0.827319,0.72869 1.399673,0.80674 v 0.37042 c -0.762636,0.0224 -1.460132,-0.25609 -2.133572,-0.57719 z m 0.281488,-4.60865 v 0.74084 h -2.2225 v -0.74084 z m 12.827307,4.57175 c 0.09701,0.16003 0.191912,0.24367 0.377417,0.24367 h 0.119112 v 0.37077 l -2.230657,-0.0106 -2.621676,-4.40605 1.111055,-1.55037 z m 0.126112,-0.12675 c -0.0061,0.20103 0.157262,0.37118 0.370417,0.37042 h -2.2225 v -4.445 h 1.852083 z m 0,-8.14916 v 4.07458 h -1.852083 v -4.445 h 2.2225 c -0.213155,-7.6e-4 -0.376515,0.16939 -0.370417,0.37042 z m 0.370417,-0.37896 c -0.213309,0.003 -0.374108,0.18196 -0.370417,0.37896 h -1.852083 c -0.0063,-0.2076 -0.170564,-0.36554 -0.370417,-0.37042 v -0.37042 h 2.592917 z m -7.652638,0.25221 c -0.09701,-0.16003 -0.191912,-0.24367 -0.377417,-0.24367 H 34.11528 v -0.37077 l 2.230658,0.0106 2.621675,4.40605 -1.111055,1.55037 z m -0.126112,0.12675 c 0.0061,-0.20103 -0.157262,-0.37118 -0.370417,-0.37042 h 2.2225 v 4.445 h -1.852083 z m 0,8.14916 v -4.07458 h 1.852083 v 4.445 h -2.2225 c 0.213155,7.6e-4 0.376516,-0.16939 0.370417,-0.37042 z m -0.370417,0.37896 c 0.21331,-0.003 0.374108,-0.18196 0.370417,-0.37896 h 1.852083 c 0.0063,0.2076 0.170564,0.36554 0.370417,0.37042 v 0.37042 H 34.11528 Z m 13.697266,-1.11979 h -1.481667 v -2.96333 h 1.481667 z m 0,0.71592 c 6.05e-4,0.23173 0.162727,0.34364 0.370417,0.40387 v 0.36188 h -1.852084 v -0.24492 c -0.341506,0.19696 -0.726347,0.23193 -1.11125,0.25097 v -0.36909 c 0.628755,-0.0706 1.026152,-0.50891 1.118629,-1.11863 h 1.474288 z m -5.17751,-2.17692 c 0.01622,-1.44792 1.010187,-2.97078 2.584593,-2.984 v 0.36068 c -0.764892,-0.007 -1.09897,1.76644 -1.10096,2.60265 -0.002,0.83621 0.324346,2.59386 1.10096,2.60266 v 0.36068 c -1.522725,0 -2.60081,-1.49475 -2.584593,-2.94267 z m 5.17751,-2.21825 v 0.71592 h -1.474288 c -0.09248,-0.60972 -0.489874,-1.04802 -1.118629,-1.11863 v -0.3691 c 0.384903,0.0191 0.769744,0.054 1.11125,0.25098 v -0.24492 h 1.852084 v 0.36188 c -0.20769,0.0602 -0.369812,0.17214 -0.370417,0.40387 z m 1.195146,0.71592 h 1.481666 v 2.96333 h -1.481666 z m 0,-0.71592 c -6.06e-4,-0.23173 -0.162727,-0.34364 -0.370417,-0.40387 v -0.36188 h 1.852083 v 0.24492 c 0.341506,-0.19697 0.726348,-0.23193 1.11125,-0.25098 v 0.3691 c -0.628754,0.0706 -1.026152,0.50891 -1.118629,1.11863 h -1.474287 z m 4.053871,0.69784 c -0.367363,-0.13922 -0.413189,-0.4805 -0.209567,-0.78055 -0.390987,-0.19155 -0.81448,-0.31208 -1.251388,-0.31262 v -0.37649 c 0.689993,0.0193 1.361108,0.24648 1.890099,0.69233 0.181906,0.15332 0.182993,0.46463 0.01617,0.64821 -0.09624,0.10591 -0.320867,0.17628 -0.445313,0.12912 z m -2.200362,3.72655 -1.853509,0.73556 v -1.4807 h 1.481666 c -8.6e-4,0.18997 0.170237,0.36853 0.371843,0.37933 z m 3.507993,-3.70847 h 1.481667 v 2.96333 h -1.481667 z m 0,-0.71592 c -6.05e-4,-0.23173 -0.162726,-0.34364 -0.370416,-0.40387 v -0.36188 h 1.852083 v 0.24492 c 0.341506,-0.19697 0.726347,-0.23193 1.11125,-0.25098 v 0.3691 c -0.628754,0.0706 -1.026152,0.50891 -1.118629,1.11863 h -1.474288 z m 4.053872,0.69784 c -0.367363,-0.13922 -0.413189,-0.4805 -0.209567,-0.78055 -0.390988,-0.19155 -0.814481,-0.31208 -1.251388,-0.31262 v -0.37649 c 0.689993,0.0193 1.361108,0.24648 1.890099,0.69233 0.181906,0.15332 0.182993,0.46463 0.01617,0.64821 -0.09624,0.10591 -0.320866,0.17628 -0.445312,0.12912 z m -2.200362,3.72655 -1.85351,0.73556 v -1.4807 h 1.481667 c -8.61e-4,0.18997 0.170237,0.36853 0.371843,0.37933 z m 8.542915,-0.74514 h -1.481667 v -2.96333 h 1.481667 z m 0,0.71592 c 6.05e-4,0.23173 0.162727,0.34364 0.370417,0.40387 v 0.36188 h -1.852084 v -0.24492 c -0.341506,0.19696 -0.726347,0.23193 -1.11125,0.25097 v -0.36909 c 0.628755,-0.0706 1.026152,-0.50891 1.118629,-1.11863 h 1.474288 z m -3.023957,-5.1373 c 0.09559,-0.01 0.231684,-0.0194 0.302423,-0.0209 l 0.128617,-0.003 v 0.36131 c -0.210762,0.031 -0.424109,0.0588 -0.589367,0.1929 -0.213469,0.17322 -0.384368,0.39225 -0.454367,0.66979 -0.09186,0.27683 -0.08499,0.60852 0,0.88575 0.136194,0.41045 0.450942,0.77786 0.897668,0.83969 l 0.146066,0.023 v 0.36131 c -0.02257,0 -0.04513,0 -0.0677,0 -0.576825,0.0335 -1.051334,0.53346 -1.043548,1.11125 0,0.57474 0.460833,1.08199 1.043548,1.11125 h 0.0677 v 0.37042 l -0.08746,-1.7e-4 c -0.146885,-2.9e-4 -0.44783,-0.0401 -0.643085,-0.0851 -0.650002,-0.19355 -1.502544,-0.61929 -1.479602,-1.39645 0,-0.47379 0.320729,-0.84462 0.710801,-1.08876 0.112941,-0.0674 0.234597,-0.12233 0.346938,-0.18666 -0.02915,-0.0134 -0.05667,-0.0311 -0.08746,-0.0401 -0.133087,-0.039 -0.447492,-0.1919 -0.607809,-0.2956 -0.401022,-0.25942 -0.748458,-0.66909 -0.733545,-1.16696 0,-0.49417 0.316665,-0.90368 0.726621,-1.16221 0.388564,-0.25058 0.912738,-0.42771 1.42356,-0.48105 z m 3.023957,0.74213 v 0.71592 h -1.474288 c -0.09248,-0.60972 -0.489874,-1.04802 -1.118629,-1.11863 v -0.3691 c 0.384903,0.0191 0.769744,0.054 1.11125,0.25098 v -0.24492 h 1.852084 v 0.36188 c -0.20769,0.0602 -0.369812,0.17214 -0.370417,0.40387 z m 3.558677,-3.72908 h 1.852084 v 8.14916 h -1.852084 z m -0.370416,-0.37042 v -0.37042 h 2.592916 v 0.37042 c -0.204737,0.003 -0.368393,0.16485 -0.370416,0.37042 h -1.852084 c -0.0063,-0.21188 -0.176277,-0.36697 -0.370416,-0.37042 z m 0,8.89854 c 0.213309,-0.003 0.374108,-0.18196 0.370416,-0.37896 h 1.852084 c 0.0063,0.2076 0.170563,0.36554 0.370416,0.37042 v 0.37042 H 67.95388 Z m 2.2225,-4.82396 h 1.852083 v 0.74084 H 70.17638 Z m 2.073304,0.74129 -0.221221,-4.5e-4 v -0.73757 l 0.266097,-0.007 c 0.283534,0.0215 0.442925,-0.0893 0.480156,-0.3669 h 0.364997 v 1.48166 h -0.36188 c -0.05056,-0.29485 -0.25175,-0.35504 -0.528149,-0.36996 z m -3.925388,-0.74129 v 0.74084 h -1.852083 v -0.74084 z m -2.073304,0.74129 c -0.276399,0.0149 -0.477586,0.0751 -0.528148,0.36996 h -0.361881 v -1.48166 h 0.364998 c 0.03723,0.27757 0.196621,0.38839 0.480155,0.3669 l 0.266097,0.007 v 0.73757 z m 9.111221,2.96288 h -1.481667 v -2.96333 h 1.481667 z m -1.82921,0.16722 c 0.106678,-0.0515 0.287479,-0.0591 0.347543,-0.16722 h 1.481667 c 0,0.16144 0.01506,0.27614 -0.13969,0.36549 -0.0702,0.0395 -0.112798,0.0396 -0.295265,0.0462 -1.169691,0.0425 -1.340725,1.31786 -1.3446,2.18123 -0.0039,0.86337 0.135471,2.22092 1.052715,2.2225 v 0.37041 c -0.342555,0.004 -0.668238,0.002 -0.978489,-0.11992 -1.026508,-0.40433 -1.680507,-1.38144 -1.669578,-2.47299 0.01093,-1.09156 0.569396,-1.95433 1.545697,-2.4257 z m 2.549331,3.55503 c 0.124447,-0.0472 0.349072,0.0232 0.445313,0.12911 0.166824,0.18358 0.165738,0.4949 -0.01617,0.64821 -0.528991,0.44585 -1.200106,0.67304 -1.890098,0.69234 v -0.37649 c 0.436907,-5.5e-4 0.8604,-0.12108 1.251387,-0.31262 -0.203621,-0.30005 -0.157796,-0.64134 0.209568,-0.78055 z m -2.193363,-9.66064 c 2.66e-4,-0.39105 0.327755,-0.71779 0.736746,-0.7188 0.411045,-0.001 0.729558,0.32765 0.730154,0.7301 5.99e-4,0.4045 -0.309504,0.72966 -0.73449,0.73171 -0.427041,0.002 -0.732675,-0.35195 -0.73241,-0.74301 z m 1.845085,2.22992 v 0.3658 c -0.201606,0.0108 -0.372704,0.18937 -0.371843,0.37934 h -1.481667 v -1.4807 z m 1.469886,1.48606 0.0023,-1.47147 1.849774,3.6733 2.223457,-4.42637 0.369468,0.74439 v 1.48015 l -1.852128,3.70408 H 79.05607 Z m -0.780992,-1.53768 c -0.101577,-0.19994 -0.220593,-0.29396 -0.447175,-0.31449 h -0.06829 v -0.37042 h 1.666875 v 0.37042 h -0.155923 c -0.144898,0 -0.159525,0.005 -0.216076,0.0602 -0.107341,0.10484 -0.04531,0.22798 0.0048,0.32418 l -0.0023,1.46926 z m 4.855576,-0.047 h -0.288102 c 0.02392,-0.28671 -0.237931,-0.26752 -0.452732,-0.26752 v -0.37042 h 2.407709 v 0.3647 c -0.185529,0.007 -0.34944,0.0382 -0.453135,0.20219 l -0.844166,1.65561 h -0.369574 z m 3.40221,5.26511 c -0.510821,-0.0533 -1.034995,-0.23048 -1.423559,-0.48105 -0.409956,-0.25853 -0.726622,-0.66804 -0.726622,-1.16221 -0.01491,-0.49787 0.332524,-0.90754 0.733546,-1.16696 0.160317,-0.10371 0.474722,-0.25661 0.607809,-0.2956 0.03078,-0.009 0.05831,-0.0268 0.08746,-0.0401 -0.112341,-0.0643 -0.233997,-0.11922 -0.346938,-0.18666 -0.390073,-0.24414 -0.710802,-0.61498 -0.710802,-1.08876 -0.02294,-0.77716 0.829601,-1.2029 1.479603,-1.39645 0.195255,-0.045 0.4962,-0.0848 0.643085,-0.0851 l 0.08746,-1.7e-4 v 0.37042 h -0.0677 c -0.582715,0.0292 -1.043548,0.53651 -1.043548,1.11125 -0.0078,0.57778 0.466723,1.07776 1.043548,1.11125 0.02257,0 0.04513,0 0.0677,0 v 0.3613 l -0.146066,0.023 c -0.446726,0.0618 -0.761475,0.42925 -0.897669,0.8397 -0.08499,0.27723 -0.09186,0.60892 0,0.88575 0.07,0.27754 0.240899,0.49657 0.454368,0.66979 0.165258,0.1341 0.378605,0.16194 0.589367,0.1929 v 0.36131 l -0.128617,-0.003 c -0.07074,-0.002 -0.20683,-0.0109 -0.302424,-0.0209 z m 0.431041,-5.53828 v -0.37081 c 0.50379,0.0396 0.993653,0.16548 1.389588,0.49895 0.255674,0.21353 0.253416,0.21208 0.308585,0.19824 0.12092,-0.0608 0.142686,-0.19784 0.158584,-0.3207 h 0.365743 v 1.85208 h -0.364048 c -0.130288,-1.08683 -0.725626,-1.7771 -1.858452,-1.85776 z m 0,5.19719 c 1.132826,-0.0807 1.728164,-0.77093 1.858452,-1.85776 h 0.364048 v 1.85208 h -0.365743 c -0.0159,-0.12286 -0.03766,-0.25986 -0.158584,-0.3207 -0.05517,-0.0138 -0.05291,-0.0153 -0.308585,0.19824 -0.395935,0.33347 -0.885798,0.4594 -1.389588,0.49895 z m 9.990086,-0.3761 c 1.131105,0 2.490469,-0.58468 2.5986,-1.85208 h 0.364733 v 2.2225 h -0.370417 v -0.0898 c 0,-0.15377 -0.12437,-0.25641 -0.283345,-0.23384 -0.04223,0.006 -0.164756,0.0645 -0.27228,0.13005 -0.634023,0.33812 -1.314435,0.56079 -2.037291,0.56404 z m 0,-8.14916 v -0.74084 c 1.661926,0.002 2.860499,0.65368 3.314574,2.33747 0.04965,0.40811 -0.05975,0.7867 -0.53645,0.79983 -0.308567,-0.0165 -0.545494,-0.2217 -0.544381,-0.54438 0,-0.18128 0.04289,-0.28088 0.176052,-0.40883 0.09884,-0.095 0.09793,-0.10546 -0.02781,-0.32035 -0.684112,-0.77126 -1.325252,-1.12397 -2.381982,-1.1229 z m 0.221221,4.44545 -0.221221,-4.5e-4 v -0.73757 l 0.266097,-0.007 c 0.283534,0.0215 0.442925,-0.0893 0.480155,-0.3669 h 0.364997 v 1.48166 h -0.36188 c -0.05056,-0.29485 -0.251749,-0.35504 -0.528148,-0.36996 z m -2.162233,3.86736 c -0.67344,0.3211 -1.370935,0.59959 -2.133572,0.57719 v -0.37042 c 0.572354,-0.0781 1.057999,-0.3327 1.399673,-0.80674 -0.911571,-0.9967 -1.400107,-2.2864 -1.3883,-3.63826 0.02076,-2.37699 1.575682,-4.8087 4.063211,-4.81542 v 0.74084 c -1.678129,-0.004 -2.209807,2.6657 -2.209807,4.07458 0,1.40888 0.688163,4.0745 2.209807,4.07458 7.59e-4,0.24904 -5.58e-4,0.4918 0,0.74084 -0.595039,0.007 -1.360978,-0.18473 -1.941012,-0.57719 z m 1.71979,-3.86736 c -0.276398,0.0149 -0.477586,0.0751 -0.528148,0.36996 h -0.36188 v -1.48166 h 0.364997 c 0.03723,0.27757 0.196621,0.38839 0.480155,0.3669 l 0.266098,0.007 v 0.73757 z m 5.226359,-4.5e-4 h 1.48166 v 2.96333 H 100.107 Z m 0,-0.71592 c -6.1e-4,-0.23173 -0.162731,-0.34364 -0.370421,-0.40387 v -0.36188 h 1.852081 v 0.24492 c 0.34151,-0.19697 0.72635,-0.23193 1.11125,-0.25098 v 0.3691 c -0.62875,0.0706 -1.02615,0.50891 -1.11863,1.11863 H 100.107 Z m 3.68815,1.45241 c -0.001,-0.70546 -0.28428,-1.85016 -1.09524,-1.85334 v -0.37029 c 1.40516,0.002 2.58169,0.52156 2.58169,1.88842 l 0.013,2.56205 h -1.4806 z m 0.016,2.22684 h 1.48167 c -6e-5,0.25922 0.20652,0.72954 0.58202,0.73675 0.22463,-0.009 0.28898,-0.21278 0.42131,-0.34575 l 0.3137,0.26314 c -0.1917,0.5126 -0.76189,0.80976 -1.269,0.82832 -0.92638,0.0339 -1.52697,-0.71206 -1.5297,-1.48246 z m -2.2225,0 c -0.003,0.7704 -0.60332,1.51637 -1.52969,1.48246 -0.507117,-0.0186 -1.077305,-0.31572 -1.269013,-0.82832 l 0.313701,-0.26314 c 0.132331,0.13297 0.196678,0.33694 0.421311,0.34575 0.375498,-0.007 0.582091,-0.47753 0.582021,-0.73675 z m 10.10836,-2.56205 v 2.56205 h -1.48167 v -2.70493 c 0,-0.56796 -0.41816,-1.3784 -1.11125,-1.36965 v -0.37042 c 1.30151,0.007 2.586,0.38553 2.59292,1.88295 z m 0,4.04372 h -1.48167 v -0.24492 c -0.34151,0.19696 -0.72635,0.23193 -1.11125,0.25097 v -0.36909 c 0.62858,-0.0705 1.02618,-0.50911 1.11863,-1.11863 h 1.47429 z m 0,1.48166 h -1.48167 v -1.48166 h 1.48167 z m -2.59292,2.2225 v -0.37041 c 0.84234,0.001 1.11043,-1.11982 1.11125,-1.85209 h 1.48167 c -0.004,1.31451 -1.32572,2.21894 -2.59292,2.2225 z m 0,-0.36474 v 0.37082 c -0.50379,-0.0396 -0.99365,-0.16548 -1.38959,-0.49896 -0.25567,-0.21353 -0.25341,-0.21208 -0.30858,-0.19823 -0.12092,0.0608 -0.14269,0.19783 -0.15859,0.3207 h -0.36574 v -1.85209 h 0.36405 c 0.13029,1.08683 0.72562,1.77711 1.85845,1.85776 z m -2.58459,-6.32342 c -0.0162,-1.44792 1.06186,-2.94267 2.58459,-2.94267 v 0.36068 c -0.77661,0.009 -1.10295,1.76644 -1.10096,2.60265 0.002,0.83621 0.33607,2.60947 1.10096,2.60266 v 0.36068 c -1.57441,-0.0132 -2.56838,-1.53608 -2.58459,-2.984 z m 7.40001,1.50233 h -1.48167 v -2.96333 h 1.48167 z m -1.48167,1.11125 v -1.11125 h 1.48167 v 1.11125 h 0.74083 v 0.37042 h -2.59291 v -0.37042 z m 0,1.85208 v -1.48166 h 1.48167 v 1.48166 z m 1.85351,0.74514 -1.85351,0.73556 v -1.4807 h 1.48167 c -8.6e-4,0.18997 0.17024,0.36853 0.37184,0.37934 z m -0.38026,-9.64686 c 2.6e-4,0.39106 -0.30537,0.74506 -0.73241,0.74301 -0.42499,-0.002 -0.73509,-0.32721 -0.73449,-0.73171 5.9e-4,-0.40245 0.31911,-0.73111 0.73015,-0.7301 0.40899,10e-4 0.73648,0.32775 0.73675,0.7188 z m 0.37884,1.85527 c -0.14488,0.028 -0.2616,0.0893 -0.33139,0.223 -0.0368,0.0705 -0.0382,0.13928 -0.0386,0.49036 l -4.5e-4,0.40643 h -1.48167 l -4.5e-4,-0.40643 c -3.9e-4,-0.35108 -0.007,-0.41734 -0.0386,-0.49036 -0.0618,-0.14223 -0.19486,-0.18648 -0.33139,-0.223 v -0.36188 h 2.2225 z m 0.80359,1.11979 h 1.48167 v 2.96333 h -1.48167 z m 0,-0.71592 c -6.1e-4,-0.23173 -0.16273,-0.34364 -0.37042,-0.40387 v -0.36188 h 1.85209 v 0.24492 c 0.3415,-0.19697 0.72634,-0.23193 1.11125,-0.25098 v 0.3691 c -0.62876,0.0706 -1.02615,0.50891 -1.11863,1.11863 h -1.47429 z m 3.68815,1.45241 c -0.001,-0.70546 -0.28428,-1.85016 -1.09523,-1.85334 v -0.37029 c 1.40516,0.002 2.58169,0.52156 2.58169,1.88842 l 0.013,2.56205 h -1.48058 z m 0.016,3.33809 v -1.11125 h 1.48166 v 1.11125 h 0.74084 v 0.37042 h -2.59292 v -0.37042 z m 0,1.85208 v -1.48166 h 1.48166 v 1.48166 z m 1.85351,0.74514 -1.85351,0.73556 v -1.4807 h 1.48166 c -8.6e-4,0.18997 0.17024,0.36853 0.37185,0.37934 z m -5.9281,-2.58868 c 0.14488,-0.028 0.2616,-0.0893 0.3314,-0.223 0.0368,-0.0705 0.0382,-0.13928 0.0386,-0.49036 l 4.5e-4,-0.40643 h 1.48167 l 4.5e-4,0.40643 c 3.9e-4,0.35108 0.007,0.41734 0.0386,0.49036 0.0618,0.14223 0.19486,0.18648 0.33139,0.223 v 0.36188 h -2.2225 z m 6.29127,-2.62212 c -0.0162,-1.44792 1.06187,-2.94267 2.58459,-2.94267 v 0.36068 c -0.77661,0.009 -1.10295,1.76644 -1.10096,2.60265 0.002,0.83621 0.33607,2.60947 1.10096,2.60266 v 0.36068 c -1.5744,-0.0132 -2.56837,-1.53608 -2.58459,-2.984 z m 1.47334,-0.34975 h 2.21424 c -0.0778,-0.75929 -0.22383,-2.02372 -1.10299,-2.23224 v -0.36068 c 1.65246,0.0228 2.49597,1.46505 2.5988,2.96333 h -3.71005 z m 2.57221,1.87016 c 0.12445,-0.0472 0.34907,0.0232 0.44531,0.12911 0.16683,0.18359 0.16574,0.4949 -0.0162,0.64822 -0.52899,0.44584 -1.2001,0.67304 -1.8901,0.69233 v -0.37649 c 0.43691,-5.4e-4 0.8604,-0.12107 1.25139,-0.31262 -0.20362,-0.30005 -0.15779,-0.64134 0.20957,-0.78055 z"
       id="path453" />
  </g>
  <g
     inkscape:groupmode="layer"
     id="layer3"
     inkscape:label="Layer 1 copy 2">
    <text
       xml:space="preserve"
       style="font-style:normal;font-variant:normal;font-weight:normal;font-stretch:normal;font-size:10.58333302px;line-height:1.25;font-family:'Stencil Std';-inkscape-font-specification:'Stencil Std';letter-spacing:0px;word-spacing:0px;fill:#ff6600;fill-opacity:1;stroke:none;stroke-width:0.26458332;filter:url(#filter554)"
       x="9.9364338"
       y="17.761065"
       id="text512"><tspan
         sodipodi:role="line"
         id="tspan510"
         x="9.9364338"
         y="17.761065"
         style="font-style:normal;font-variant:normal;font-weight:normal;font-stretch:normal;font-family:'Stencil Std';-inkscape-font-specification:'Stencil Std';fill:#ff6600;stroke-width:0.26458332">T13 Narrative Engine</tspan></text>
  </g>
  <g
     inkscape:label="Layer 1"
     inkscape:groupmode="layer"
     id="layer1"
     transform="translate(0,-274.51041)"
     style="display:inline">
    <path
       id="path373"
       d="m 15.038279,280.81138 h 1.852083 v 8.14916 h -1.852083 z m -0.370417,-0.37042 v -0.37042 h 2.592916 v 0.37042 c -0.204737,0.003 -0.368393,0.16485 -0.370416,0.37042 h -1.852083 c -0.0063,-0.21188 -0.176278,-0.36697 -0.370417,-0.37042 z m 0,8.89854 c 0.213309,-0.003 0.374108,-0.18196 0.370417,-0.37896 h 1.852083 c 0.0063,0.2076 0.170563,0.36554 0.370416,0.37042 v 0.37042 h -2.592916 z m 2.2225,-4.82396 h 1.852083 v 0.74084 h -1.852083 z m 2.073304,0.74129 -0.221221,-4.5e-4 v -0.73757 l 0.266097,-0.007 c 0.283534,0.0215 0.442925,-0.0893 0.480156,-0.3669 h 0.364997 v 1.48166 h -0.36188 c -0.05056,-0.29485 -0.25175,-0.35504 -0.528149,-0.36996 z m -3.925387,-0.74129 v 0.74084 h -1.852084 v -0.74084 z m -2.073305,0.74129 c -0.276399,0.0149 -0.477586,0.0751 -0.528148,0.36996 h -0.361881 v -1.48166 h 0.364998 c 0.03723,0.27757 0.196621,0.38839 0.480155,0.3669 l 0.266097,0.007 v 0.73757 z m 7.629554,-4.44545 h 1.852083 v 8.14916 h -1.852083 z m -0.370416,-0.37042 v -0.37042 h 2.592916 v 0.37042 c -0.204737,0.003 -0.368393,0.16485 -0.370417,0.37042 h -1.852083 c -0.0063,-0.21188 -0.176277,-0.36697 -0.370416,-0.37042 z m 0,8.89854 c 0.213309,-0.003 0.374108,-0.18196 0.370416,-0.37896 h 1.852083 c 0.0063,0.2076 0.170564,0.36554 0.370417,0.37042 v 0.37042 h -2.592916 z m 6.493999,-0.37896 v 0.74084 c -1.661926,-0.002 -2.860499,-0.65368 -3.314574,-2.33747 -0.04965,-0.40811 0.05975,-0.7867 0.53645,-0.79983 0.308567,0.0165 0.545494,0.2217 0.544381,0.54438 0,0.18128 -0.04289,0.28088 -0.176052,0.40883 -0.09884,0.095 -0.09793,0.10546 0.02781,0.32035 0.684112,0.77126 1.325252,1.12397 2.381982,1.1229 z m 0,-8.14916 c -0.838325,-5.5e-4 -1.816398,0.74144 -1.832426,1.59238 v 1.00053 c 0.0061,0.19526 0.185689,0.38211 0.35076,0.37896 v 0.36188 h -2.2225 v -0.36188 c 0.174084,0.01 0.345317,-0.18051 0.331393,-0.37896 v -1.87711 c 0.787692,-1.04569 2.347226,-1.45884 3.372773,-1.45664 z m -0.221221,4.44545 c -0.276399,0.0149 -0.477586,0.0751 -0.528148,0.36996 h -0.36188 v -1.48166 h 0.364997 c 0.03723,0.27757 0.196621,0.38839 0.480155,0.3669 l 0.266097,0.007 v 0.73757 z m 2.162233,3.86736 c -0.580034,0.39246 -1.345973,0.58409 -1.941012,0.57719 5.58e-4,-0.24904 -7.59e-4,-0.4918 0,-0.74084 1.521644,-8e-5 2.209807,-2.6657 2.209807,-4.07458 0,-1.40888 -0.531678,-4.07815 -2.209807,-4.07458 v -0.74084 c 2.487529,0.007 4.042449,2.43843 4.063211,4.81542 0.01181,1.35186 -0.476729,2.64156 -1.3883,3.63826 0.341674,0.47404 0.827319,0.72869 1.399673,0.80674 v 0.37042 c -0.762636,0.0224 -1.460132,-0.25609 -2.133572,-0.57719 z m 0.281488,-4.60865 v 0.74084 h -2.2225 v -0.74084 z m 12.827307,4.57175 c 0.09701,0.16003 0.191912,0.24367 0.377417,0.24367 h 0.119112 v 0.37077 l -2.230657,-0.0106 -2.621676,-4.40605 1.111055,-1.55037 z m 0.126112,-0.12675 c -0.0061,0.20103 0.157262,0.37118 0.370417,0.37042 h -2.2225 v -4.445 h 1.852083 z m 0,-8.14916 v 4.07458 h -1.852083 v -4.445 h 2.2225 c -0.213155,-7.6e-4 -0.376515,0.16939 -0.370417,0.37042 z m 0.370417,-0.37896 c -0.213309,0.003 -0.374108,0.18196 -0.370417,0.37896 h -1.852083 c -0.0063,-0.2076 -0.170564,-0.36554 -0.370417,-0.37042 v -0.37042 h 2.592917 z m -7.652638,0.25221 c -0.09701,-0.16003 -0.191912,-0.24367 -0.377417,-0.24367 H 34.11528 v -0.37077 l 2.230658,0.0106 2.621675,4.40605 -1.111055,1.55037 z m -0.126112,0.12675 c 0.0061,-0.20103 -0.157262,-0.37118 -0.370417,-0.37042 h 2.2225 v 4.445 h -1.852083 z m 0,8.14916 v -4.07458 h 1.852083 v 4.445 h -2.2225 c 0.213155,7.6e-4 0.376516,-0.16939 0.370417,-0.37042 z m -0.370417,0.37896 c 0.21331,-0.003 0.374108,-0.18196 0.370417,-0.37896 h 1.852083 c 0.0063,0.2076 0.170564,0.36554 0.370417,0.37042 v 0.37042 H 34.11528 Z m 13.697266,-1.11979 h -1.481667 v -2.96333 h 1.481667 z m 0,0.71592 c 6.05e-4,0.23173 0.162727,0.34364 0.370417,0.40387 v 0.36188 h -1.852084 v -0.24492 c -0.341506,0.19696 -0.726347,0.23193 -1.11125,0.25097 v -0.36909 c 0.628755,-0.0706 1.026152,-0.50891 1.118629,-1.11863 h 1.474288 z m -5.17751,-2.17692 c 0.01622,-1.44792 1.010187,-2.97078 2.584593,-2.984 v 0.36068 c -0.764892,-0.007 -1.09897,1.76644 -1.10096,2.60265 -0.002,0.83621 0.324346,2.59386 1.10096,2.60266 v 0.36068 c -1.522725,0 -2.60081,-1.49475 -2.584593,-2.94267 z m 5.17751,-2.21825 v 0.71592 h -1.474288 c -0.09248,-0.60972 -0.489874,-1.04802 -1.118629,-1.11863 v -0.3691 c 0.384903,0.0191 0.769744,0.054 1.11125,0.25098 v -0.24492 h 1.852084 v 0.36188 c -0.20769,0.0602 -0.369812,0.17214 -0.370417,0.40387 z m 1.195146,0.71592 h 1.481666 v 2.96333 h -1.481666 z m 0,-0.71592 c -6.06e-4,-0.23173 -0.162727,-0.34364 -0.370417,-0.40387 v -0.36188 h 1.852083 v 0.24492 c 0.341506,-0.19697 0.726348,-0.23193 1.11125,-0.25098 v 0.3691 c -0.628754,0.0706 -1.026152,0.50891 -1.118629,1.11863 h -1.474287 z m 4.053871,0.69784 c -0.367363,-0.13922 -0.413189,-0.4805 -0.209567,-0.78055 -0.390987,-0.19155 -0.81448,-0.31208 -1.251388,-0.31262 v -0.37649 c 0.689993,0.0193 1.361108,0.24648 1.890099,0.69233 0.181906,0.15332 0.182993,0.46463 0.01617,0.64821 -0.09624,0.10591 -0.320867,0.17628 -0.445313,0.12912 z m -2.200362,3.72655 -1.853509,0.73556 v -1.4807 h 1.481666 c -8.6e-4,0.18997 0.170237,0.36853 0.371843,0.37933 z m 3.507993,-3.70847 h 1.481667 v 2.96333 h -1.481667 z m 0,-0.71592 c -6.05e-4,-0.23173 -0.162726,-0.34364 -0.370416,-0.40387 v -0.36188 h 1.852083 v 0.24492 c 0.341506,-0.19697 0.726347,-0.23193 1.11125,-0.25098 v 0.3691 c -0.628754,0.0706 -1.026152,0.50891 -1.118629,1.11863 h -1.474288 z m 4.053872,0.69784 c -0.367363,-0.13922 -0.413189,-0.4805 -0.209567,-0.78055 -0.390988,-0.19155 -0.814481,-0.31208 -1.251388,-0.31262 v -0.37649 c 0.689993,0.0193 1.361108,0.24648 1.890099,0.69233 0.181906,0.15332 0.182993,0.46463 0.01617,0.64821 -0.09624,0.10591 -0.320866,0.17628 -0.445312,0.12912 z m -2.200362,3.72655 -1.85351,0.73556 v -1.4807 h 1.481667 c -8.61e-4,0.18997 0.170237,0.36853 0.371843,0.37933 z m 8.542915,-0.74514 h -1.481667 v -2.96333 h 1.481667 z m 0,0.71592 c 6.05e-4,0.23173 0.162727,0.34364 0.370417,0.40387 v 0.36188 h -1.852084 v -0.24492 c -0.341506,0.19696 -0.726347,0.23193 -1.11125,0.25097 v -0.36909 c 0.628755,-0.0706 1.026152,-0.50891 1.118629,-1.11863 h 1.474288 z m -3.023957,-5.1373 c 0.09559,-0.01 0.231684,-0.0194 0.302423,-0.0209 l 0.128617,-0.003 v 0.36131 c -0.210762,0.031 -0.424109,0.0588 -0.589367,0.1929 -0.213469,0.17322 -0.384368,0.39225 -0.454367,0.66979 -0.09186,0.27683 -0.08499,0.60852 0,0.88575 0.136194,0.41045 0.450942,0.77786 0.897668,0.83969 l 0.146066,0.023 v 0.36131 c -0.02257,0 -0.04513,0 -0.0677,0 -0.576825,0.0335 -1.051334,0.53346 -1.043548,1.11125 0,0.57474 0.460833,1.08199 1.043548,1.11125 h 0.0677 v 0.37042 l -0.08746,-1.7e-4 c -0.146885,-2.9e-4 -0.44783,-0.0401 -0.643085,-0.0851 -0.650002,-0.19355 -1.502544,-0.61929 -1.479602,-1.39645 0,-0.47379 0.320729,-0.84462 0.710801,-1.08876 0.112941,-0.0674 0.234597,-0.12233 0.346938,-0.18666 -0.02915,-0.0134 -0.05667,-0.0311 -0.08746,-0.0401 -0.133087,-0.039 -0.447492,-0.1919 -0.607809,-0.2956 -0.401022,-0.25942 -0.748458,-0.66909 -0.733545,-1.16696 0,-0.49417 0.316665,-0.90368 0.726621,-1.16221 0.388564,-0.25058 0.912738,-0.42771 1.42356,-0.48105 z m 3.023957,0.74213 v 0.71592 h -1.474288 c -0.09248,-0.60972 -0.489874,-1.04802 -1.118629,-1.11863 v -0.3691 c 0.384903,0.0191 0.769744,0.054 1.11125,0.25098 v -0.24492 h 1.852084 v 0.36188 c -0.20769,0.0602 -0.369812,0.17214 -0.370417,0.40387 z m 3.558677,-3.72908 h 1.852084 v 8.14916 h -1.852084 z m -0.370416,-0.37042 v -0.37042 h 2.592916 v 0.37042 c -0.204737,0.003 -0.368393,0.16485 -0.370416,0.37042 h -1.852084 c -0.0063,-0.21188 -0.176277,-0.36697 -0.370416,-0.37042 z m 0,8.89854 c 0.213309,-0.003 0.374108,-0.18196 0.370416,-0.37896 h 1.852084 c 0.0063,0.2076 0.170563,0.36554 0.370416,0.37042 v 0.37042 H 67.95388 Z m 2.2225,-4.82396 h 1.852083 v 0.74084 H 70.17638 Z m 2.073304,0.74129 -0.221221,-4.5e-4 v -0.73757 l 0.266097,-0.007 c 0.283534,0.0215 0.442925,-0.0893 0.480156,-0.3669 h 0.364997 v 1.48166 h -0.36188 c -0.05056,-0.29485 -0.25175,-0.35504 -0.528149,-0.36996 z m -3.925388,-0.74129 v 0.74084 h -1.852083 v -0.74084 z m -2.073304,0.74129 c -0.276399,0.0149 -0.477586,0.0751 -0.528148,0.36996 h -0.361881 v -1.48166 h 0.364998 c 0.03723,0.27757 0.196621,0.38839 0.480155,0.3669 l 0.266097,0.007 v 0.73757 z m 9.111221,2.96288 h -1.481667 v -2.96333 h 1.481667 z m -1.82921,0.16722 c 0.106678,-0.0515 0.287479,-0.0591 0.347543,-0.16722 h 1.481667 c 0,0.16144 0.01506,0.27614 -0.13969,0.36549 -0.0702,0.0395 -0.112798,0.0396 -0.295265,0.0462 -1.169691,0.0425 -1.340725,1.31786 -1.3446,2.18123 -0.0039,0.86337 0.135471,2.22092 1.052715,2.2225 v 0.37041 c -0.342555,0.004 -0.668238,0.002 -0.978489,-0.11992 -1.026508,-0.40433 -1.680507,-1.38144 -1.669578,-2.47299 0.01093,-1.09156 0.569396,-1.95433 1.545697,-2.4257 z m 2.549331,3.55503 c 0.124447,-0.0472 0.349072,0.0232 0.445313,0.12911 0.166824,0.18358 0.165738,0.4949 -0.01617,0.64821 -0.528991,0.44585 -1.200106,0.67304 -1.890098,0.69234 v -0.37649 c 0.436907,-5.5e-4 0.8604,-0.12108 1.251387,-0.31262 -0.203621,-0.30005 -0.157796,-0.64134 0.209568,-0.78055 z m -2.193363,-9.66064 c 2.66e-4,-0.39105 0.327755,-0.71779 0.736746,-0.7188 0.411045,-0.001 0.729558,0.32765 0.730154,0.7301 5.99e-4,0.4045 -0.309504,0.72966 -0.73449,0.73171 -0.427041,0.002 -0.732675,-0.35195 -0.73241,-0.74301 z m 1.845085,2.22992 v 0.3658 c -0.201606,0.0108 -0.372704,0.18937 -0.371843,0.37934 h -1.481667 v -1.4807 z m 1.469886,1.48606 0.0023,-1.47147 1.849774,3.6733 2.223457,-4.42637 0.369468,0.74439 v 1.48015 l -1.852128,3.70408 H 79.05607 Z m -0.780992,-1.53768 c -0.101577,-0.19994 -0.220593,-0.29396 -0.447175,-0.31449 h -0.06829 v -0.37042 h 1.666875 v 0.37042 h -0.155923 c -0.144898,0 -0.159525,0.005 -0.216076,0.0602 -0.107341,0.10484 -0.04531,0.22798 0.0048,0.32418 l -0.0023,1.46926 z m 4.855576,-0.047 h -0.288102 c 0.02392,-0.28671 -0.237931,-0.26752 -0.452732,-0.26752 v -0.37042 h 2.407709 v 0.3647 c -0.185529,0.007 -0.34944,0.0382 -0.453135,0.20219 l -0.844166,1.65561 h -0.369574 z m 3.40221,5.26511 c -0.510821,-0.0533 -1.034995,-0.23048 -1.423559,-0.48105 -0.409956,-0.25853 -0.726622,-0.66804 -0.726622,-1.16221 -0.01491,-0.49787 0.332524,-0.90754 0.733546,-1.16696 0.160317,-0.10371 0.474722,-0.25661 0.607809,-0.2956 0.03078,-0.009 0.05831,-0.0268 0.08746,-0.0401 -0.112341,-0.0643 -0.233997,-0.11922 -0.346938,-0.18666 -0.390073,-0.24414 -0.710802,-0.61498 -0.710802,-1.08876 -0.02294,-0.77716 0.829601,-1.2029 1.479603,-1.39645 0.195255,-0.045 0.4962,-0.0848 0.643085,-0.0851 l 0.08746,-1.7e-4 v 0.37042 h -0.0677 c -0.582715,0.0292 -1.043548,0.53651 -1.043548,1.11125 -0.0078,0.57778 0.466723,1.07776 1.043548,1.11125 0.02257,0 0.04513,0 0.0677,0 v 0.3613 l -0.146066,0.023 c -0.446726,0.0618 -0.761475,0.42925 -0.897669,0.8397 -0.08499,0.27723 -0.09186,0.60892 0,0.88575 0.07,0.27754 0.240899,0.49657 0.454368,0.66979 0.165258,0.1341 0.378605,0.16194 0.589367,0.1929 v 0.36131 l -0.128617,-0.003 c -0.07074,-0.002 -0.20683,-0.0109 -0.302424,-0.0209 z m 0.431041,-5.53828 v -0.37081 c 0.50379,0.0396 0.993653,0.16548 1.389588,0.49895 0.255674,0.21353 0.253416,0.21208 0.308585,0.19824 0.12092,-0.0608 0.142686,-0.19784 0.158584,-0.3207 h 0.365743 v 1.85208 h -0.364048 c -0.130288,-1.08683 -0.725626,-1.7771 -1.858452,-1.85776 z m 0,5.19719 c 1.132826,-0.0807 1.728164,-0.77093 1.858452,-1.85776 h 0.364048 v 1.85208 h -0.365743 c -0.0159,-0.12286 -0.03766,-0.25986 -0.158584,-0.3207 -0.05517,-0.0138 -0.05291,-0.0153 -0.308585,0.19824 -0.395935,0.33347 -0.885798,0.4594 -1.389588,0.49895 z m 9.990086,-0.3761 c 1.131105,0 2.490469,-0.58468 2.5986,-1.85208 h 0.364733 v 2.2225 h -0.370417 v -0.0898 c 0,-0.15377 -0.12437,-0.25641 -0.283345,-0.23384 -0.04223,0.006 -0.164756,0.0645 -0.27228,0.13005 -0.634023,0.33812 -1.314435,0.56079 -2.037291,0.56404 z m 0,-8.14916 v -0.74084 c 1.661926,0.002 2.860499,0.65368 3.314574,2.33747 0.04965,0.40811 -0.05975,0.7867 -0.53645,0.79983 -0.308567,-0.0165 -0.545494,-0.2217 -0.544381,-0.54438 0,-0.18128 0.04289,-0.28088 0.176052,-0.40883 0.09884,-0.095 0.09793,-0.10546 -0.02781,-0.32035 -0.684112,-0.77126 -1.325252,-1.12397 -2.381982,-1.1229 z m 0.221221,4.44545 -0.221221,-4.5e-4 v -0.73757 l 0.266097,-0.007 c 0.283534,0.0215 0.442925,-0.0893 0.480155,-0.3669 h 0.364997 v 1.48166 h -0.36188 c -0.05056,-0.29485 -0.251749,-0.35504 -0.528148,-0.36996 z m -2.162233,3.86736 c -0.67344,0.3211 -1.370935,0.59959 -2.133572,0.57719 v -0.37042 c 0.572354,-0.0781 1.057999,-0.3327 1.399673,-0.80674 -0.911571,-0.9967 -1.400107,-2.2864 -1.3883,-3.63826 0.02076,-2.37699 1.575682,-4.8087 4.063211,-4.81542 v 0.74084 c -1.678129,-0.004 -2.209807,2.6657 -2.209807,4.07458 0,1.40888 0.688163,4.0745 2.209807,4.07458 7.59e-4,0.24904 -5.58e-4,0.4918 0,0.74084 -0.595039,0.007 -1.360978,-0.18473 -1.941012,-0.57719 z m 1.71979,-3.86736 c -0.276398,0.0149 -0.477586,0.0751 -0.528148,0.36996 h -0.36188 v -1.48166 h 0.364997 c 0.03723,0.27757 0.196621,0.38839 0.480155,0.3669 l 0.266098,0.007 v 0.73757 z m 5.226359,-4.5e-4 h 1.48166 v 2.96333 H 100.107 Z m 0,-0.71592 c -6.1e-4,-0.23173 -0.162731,-0.34364 -0.370421,-0.40387 v -0.36188 h 1.852081 v 0.24492 c 0.34151,-0.19697 0.72635,-0.23193 1.11125,-0.25098 v 0.3691 c -0.62875,0.0706 -1.02615,0.50891 -1.11863,1.11863 H 100.107 Z m 3.68815,1.45241 c -0.001,-0.70546 -0.28428,-1.85016 -1.09524,-1.85334 v -0.37029 c 1.40516,0.002 2.58169,0.52156 2.58169,1.88842 l 0.013,2.56205 h -1.4806 z m 0.016,2.22684 h 1.48167 c -6e-5,0.25922 0.20652,0.72954 0.58202,0.73675 0.22463,-0.009 0.28898,-0.21278 0.42131,-0.34575 l 0.3137,0.26314 c -0.1917,0.5126 -0.76189,0.80976 -1.269,0.82832 -0.92638,0.0339 -1.52697,-0.71206 -1.5297,-1.48246 z m -2.2225,0 c -0.003,0.7704 -0.60332,1.51637 -1.52969,1.48246 -0.507117,-0.0186 -1.077305,-0.31572 -1.269013,-0.82832 l 0.313701,-0.26314 c 0.132331,0.13297 0.196678,0.33694 0.421311,0.34575 0.375498,-0.007 0.582091,-0.47753 0.582021,-0.73675 z m 10.10836,-2.56205 v 2.56205 h -1.48167 v -2.70493 c 0,-0.56796 -0.41816,-1.3784 -1.11125,-1.36965 v -0.37042 c 1.30151,0.007 2.586,0.38553 2.59292,1.88295 z m 0,4.04372 h -1.48167 v -0.24492 c -0.34151,0.19696 -0.72635,0.23193 -1.11125,0.25097 v -0.36909 c 0.62858,-0.0705 1.02618,-0.50911 1.11863,-1.11863 h 1.47429 z m 0,1.48166 h -1.48167 v -1.48166 h 1.48167 z m -2.59292,2.2225 v -0.37041 c 0.84234,0.001 1.11043,-1.11982 1.11125,-1.85209 h 1.48167 c -0.004,1.31451 -1.32572,2.21894 -2.59292,2.2225 z m 0,-0.36474 v 0.37082 c -0.50379,-0.0396 -0.99365,-0.16548 -1.38959,-0.49896 -0.25567,-0.21353 -0.25341,-0.21208 -0.30858,-0.19823 -0.12092,0.0608 -0.14269,0.19783 -0.15859,0.3207 h -0.36574 v -1.85209 h 0.36405 c 0.13029,1.08683 0.72562,1.77711 1.85845,1.85776 z m -2.58459,-6.32342 c -0.0162,-1.44792 1.06186,-2.94267 2.58459,-2.94267 v 0.36068 c -0.77661,0.009 -1.10295,1.76644 -1.10096,2.60265 0.002,0.83621 0.33607,2.60947 1.10096,2.60266 v 0.36068 c -1.57441,-0.0132 -2.56838,-1.53608 -2.58459,-2.984 z m 7.40001,1.50233 h -1.48167 v -2.96333 h 1.48167 z m -1.48167,1.11125 v -1.11125 h 1.48167 v 1.11125 h 0.74083 v 0.37042 h -2.59291 v -0.37042 z m 0,1.85208 v -1.48166 h 1.48167 v 1.48166 z m 1.85351,0.74514 -1.85351,0.73556 v -1.4807 h 1.48167 c -8.6e-4,0.18997 0.17024,0.36853 0.37184,0.37934 z m -0.38026,-9.64686 c 2.6e-4,0.39106 -0.30537,0.74506 -0.73241,0.74301 -0.42499,-0.002 -0.73509,-0.32721 -0.73449,-0.73171 5.9e-4,-0.40245 0.31911,-0.73111 0.73015,-0.7301 0.40899,10e-4 0.73648,0.32775 0.73675,0.7188 z m 0.37884,1.85527 c -0.14488,0.028 -0.2616,0.0893 -0.33139,0.223 -0.0368,0.0705 -0.0382,0.13928 -0.0386,0.49036 l -4.5e-4,0.40643 h -1.48167 l -4.5e-4,-0.40643 c -3.9e-4,-0.35108 -0.007,-0.41734 -0.0386,-0.49036 -0.0618,-0.14223 -0.19486,-0.18648 -0.33139,-0.223 v -0.36188 h 2.2225 z m 0.80359,1.11979 h 1.48167 v 2.96333 h -1.48167 z m 0,-0.71592 c -6.1e-4,-0.23173 -0.16273,-0.34364 -0.37042,-0.40387 v -0.36188 h 1.85209 v 0.24492 c 0.3415,-0.19697 0.72634,-0.23193 1.11125,-0.25098 v 0.3691 c -0.62876,0.0706 -1.02615,0.50891 -1.11863,1.11863 h -1.47429 z m 3.68815,1.45241 c -0.001,-0.70546 -0.28428,-1.85016 -1.09523,-1.85334 v -0.37029 c 1.40516,0.002 2.58169,0.52156 2.58169,1.88842 l 0.013,2.56205 h -1.48058 z m 0.016,3.33809 v -1.11125 h 1.48166 v 1.11125 h 0.74084 v 0.37042 h -2.59292 v -0.37042 z m 0,1.85208 v -1.48166 h 1.48166 v 1.48166 z m 1.85351,0.74514 -1.85351,0.73556 v -1.4807 h 1.48166 c -8.6e-4,0.18997 0.17024,0.36853 0.37185,0.37934 z m -5.9281,-2.58868 c 0.14488,-0.028 0.2616,-0.0893 0.3314,-0.223 0.0368,-0.0705 0.0382,-0.13928 0.0386,-0.49036 l 4.5e-4,-0.40643 h 1.48167 l 4.5e-4,0.40643 c 3.9e-4,0.35108 0.007,0.41734 0.0386,0.49036 0.0618,0.14223 0.19486,0.18648 0.33139,0.223 v 0.36188 h -2.2225 z m 6.29127,-2.62212 c -0.0162,-1.44792 1.06187,-2.94267 2.58459,-2.94267 v 0.36068 c -0.77661,0.009 -1.10295,1.76644 -1.10096,2.60265 0.002,0.83621 0.33607,2.60947 1.10096,2.60266 v 0.36068 c -1.5744,-0.0132 -2.56837,-1.53608 -2.58459,-2.984 z m 1.47334,-0.34975 h 2.21424 c -0.0778,-0.75929 -0.22383,-2.02372 -1.10299,-2.23224 v -0.36068 c 1.65246,0.0228 2.49597,1.46505 2.5988,2.96333 h -3.71005 z m 2.57221,1.87016 c 0.12445,-0.0472 0.34907,0.0232 0.44531,0.12911 0.16683,0.18359 0.16574,0.4949 -0.0162,0.64822 -0.52899,0.44584 -1.2001,0.67304 -1.8901,0.69233 v -0.37649 c 0.43691,-5.4e-4 0.8604,-0.12107 1.25139,-0.31262 -0.20362,-0.30005 -0.15779,-0.64134 0.20957,-0.78055 z"
       style="fill:#000000;stroke:none;filter:url(#filter421)"
       inkscape:connector-curvature="0" />
  </g>
  <g
     inkscape:groupmode="layer"
     id="layer4"
     inkscape:label="Layer 2">
    <rect
       style="display:inline;fill:#cccccc;stroke-width:0.26458332;filter:url(#filter1354)"
       id="rect1316"
       width="167.23161"
       height="1.7108094"
       x="3.6354697"
       y="1.532169" />
    <rect
       style="display:inline;fill:#cccccc;stroke-width:0.26458332;filter:url(#filter1346)"
       id="rect1316-1"
       width="167.23161"
       height="1.7108094"
       x="3.8493209"
       y="20.13722" />
  </g>
</svg>
