<?xml version="1.0" standalone="no"?>
<!DOCTYPE svg PUBLIC "-//W3C//DTD SVG 20010904//EN"
 "http://www.w3.org/TR/2001/REC-SVG-20010904/DTD/svg10.dtd">
<svg version="1.0" xmlns="http://www.w3.org/2000/svg"
 width="836.000000pt" height="1280.000000pt" viewBox="0 0 836.000000 1280.000000"
 preserveAspectRatio="xMidYMid meet">
<g transform="translate(0.000000,1280.000000) scale(0.100000,-0.100000)"
fill="#000000" stroke="none">
<path d="M3469 12790 c-492 -23 -975 -79 -1145 -131 -101 -31 -147 -94 -199
-274 -68 -236 -103 -559 -125 -1155 -9 -259 -28 -581 -33 -587 -4 -3 -798
-172 -1033 -218 -121 -25 -258 -49 -305 -54 -140 -16 -166 -35 -156 -118 11
-104 113 -241 241 -325 94 -61 328 -131 761 -227 217 -48 265 -63 330 -99 59
-32 66 -53 29 -86 -24 -20 -26 -26 -15 -39 7 -9 24 -17 38 -19 14 -2 31 -11
36 -20 9 -13 3 -26 -31 -62 l-43 -46 2 -86 c1 -72 -1 -89 -17 -104 -11 -10
-71 -37 -134 -61 -332 -121 -602 -306 -873 -599 -180 -194 -332 -435 -344
-542 -7 -63 31 -144 124 -263 122 -156 207 -246 723 -770 368 -373 460 -484
429 -521 -6 -8 -22 -14 -35 -14 -20 0 -24 5 -24 28 0 73 -239 344 -644 729
-295 279 -366 343 -382 343 -24 0 -16 -16 38 -79 64 -73 429 -678 517 -855 63
-126 155 -366 141 -366 -13 0 -120 81 -129 99 -8 14 -27 19 -92 24 -44 4 -95
13 -112 22 -38 19 -37 19 -37 -3 0 -10 -23 -40 -51 -67 -188 -183 -622 -883
-812 -1310 -65 -146 -83 -209 -97 -344 -23 -232 -5 -438 55 -618 75 -224 174
-372 408 -605 68 -68 128 -135 132 -148 4 -13 2 -40 -5 -61 -12 -35 -11 -41
13 -81 15 -24 70 -90 122 -148 131 -143 136 -153 139 -253 2 -71 11 -106 63
-262 34 -99 108 -306 166 -460 177 -475 202 -569 173 -651 -39 -108 -34 -144
23 -173 102 -52 373 -53 761 -2 1221 161 1504 194 1650 194 136 0 209 -14 218
-40 2 -7 -7 -17 -20 -22 -13 -5 -50 -19 -83 -31 -61 -24 -500 -239 -673 -332
-794 -422 -1315 -729 -1351 -796 -6 -11 -6 -24 -1 -33 8 -12 56 -14 287 -14
279 0 413 8 413 26 0 11 -10 15 -63 24 -39 6 -49 20 -19 29 100 30 800 76
1267 82 l370 4 -110 -38 c-60 -21 -147 -57 -191 -80 -124 -65 -174 -133 -61
-83 95 43 240 81 472 128 127 25 241 52 254 60 23 15 23 15 4 34 -33 33 -126
58 -260 69 -70 6 -369 14 -663 17 -498 5 -693 -1 -854 -24 -53 -8 -40 9 34 47
76 38 983 400 1285 513 127 47 363 135 525 196 267 99 702 272 1152 456 183
75 193 83 186 160 -5 57 -35 74 -156 88 -77 8 -148 8 -294 -1 -253 -17 -704
-58 -896 -82 -84 -11 -164 -20 -177 -20 -35 0 -82 46 -201 196 -58 74 -111
134 -118 134 -8 0 -18 -23 -25 -60 -7 -33 -18 -63 -26 -67 -9 -6 -15 -31 -17
-78 l-3 -70 -39 -5 -38 -5 43 -39 c42 -37 42 -39 24 -53 -15 -10 -36 -12 -85
-8 -138 14 -269 38 -355 66 -49 17 -132 39 -183 50 -102 21 -106 22 -139 52
-12 11 -46 24 -75 28 -58 9 -266 76 -463 149 -335 124 -475 190 -525 247 -33
38 -37 76 -8 81 9 2 72 -21 140 -51 143 -63 195 -81 298 -102 106 -22 242 -29
405 -20 159 9 150 18 -30 29 -213 12 -398 44 -499 84 l-40 16 59 18 c37 11
121 22 215 28 578 35 688 36 808 10 l54 -12 -93 -61 c-51 -33 -87 -63 -81 -65
16 -5 156 26 199 44 22 8 31 18 27 27 -6 17 34 50 114 92 28 16 52 31 52 36 0
9 -26 19 -50 19 -9 0 -24 7 -31 16 -22 26 15 45 81 42 l55 -3 -2 -42 c-2 -57
-28 -102 -68 -119 -44 -18 -49 -28 -25 -49 24 -22 25 -51 4 -143 l-16 -70 -56
4 c-32 2 -169 11 -307 20 -251 15 -415 30 -447 40 -33 10 -18 -6 20 -21 179
-76 965 -98 1022 -30 17 20 0 24 -67 13 -85 -14 -93 -10 -93 55 0 55 13 88 84
209 15 26 30 70 33 99 10 87 65 128 173 129 46 0 296 85 605 205 138 53 309
119 380 147 383 147 1023 368 1265 437 238 68 268 72 255 31 -4 -13 0 -20 15
-25 26 -8 57 17 62 49 3 20 7 21 148 21 l144 0 8 45 c11 61 32 86 124 147 153
101 157 105 191 173 36 72 98 276 137 453 36 159 34 246 -9 492 -48 268 -55
399 -27 491 37 119 170 296 332 439 41 36 135 107 209 158 241 164 371 281
371 333 0 20 -18 45 -73 98 -177 171 -548 419 -983 656 -212 115 -211 115
-194 136 27 32 395 291 465 326 45 23 104 42 401 128 307 89 414 128 473 170
51 38 62 72 31 105 -91 96 -720 320 -1180 420 -268 58 -333 83 -605 239 -225
128 -420 227 -640 322 -196 84 -245 111 -269 146 -24 34 -20 120 14 271 36
160 50 288 43 380 -7 84 0 93 119 153 312 157 695 410 778 515 61 78 163 288
164 340 1 39 -2 43 -29 51 -84 24 -892 239 -970 258 -49 12 -151 32 -225 44
l-135 23 -59 159 c-143 390 -318 883 -347 977 -28 92 -32 120 -38 287 -7 179
-8 187 -36 238 -39 71 -119 153 -177 180 -100 46 -181 53 -658 57 -245 2 -524
-1 -621 -5z m1831 -4032 c-23 -89 -68 -203 -100 -256 -24 -39 -133 -112 -168
-112 -22 0 -20 4 29 58 70 76 157 212 211 329 49 107 59 101 28 -19z m-1060
-48 c128 -151 358 -366 520 -484 26 -20 -23 39 -137 160 -61 65 -131 143 -155
173 l-42 54 44 -26 c25 -14 61 -28 81 -32 25 -5 59 -27 112 -75 178 -160 271
-192 388 -132 l55 27 -39 -89 c-21 -49 -57 -152 -80 -228 -22 -76 -44 -138
-47 -138 -4 0 -56 28 -116 61 -136 77 -214 112 -214 98 0 -6 27 -45 60 -86
110 -136 138 -226 85 -278 -13 -14 -30 -25 -37 -25 -30 1 -101 42 -147 85 -47
44 -51 46 -72 32 -12 -9 -29 -13 -38 -10 -37 11 20 -25 84 -53 65 -29 66 -29
59 -64 -8 -44 -29 -86 -49 -93 -16 -7 -55 28 -55 49 0 7 -4 15 -9 18 -5 3 -9
-13 -9 -35 -1 -23 -3 -44 -6 -47 -3 -3 -39 -7 -81 -10 -56 -3 -75 -1 -75 8 0
9 -4 9 -12 3 -7 -6 -73 -13 -145 -16 -117 -5 -133 -4 -133 10 0 15 -2 15 -18
0 -10 -9 -43 -20 -75 -25 -71 -11 -87 2 -88 74 l-1 49 -13 -31 c-28 -62 -62
-67 -88 -11 -38 80 -38 82 55 124 58 27 77 39 61 41 -12 2 -27 10 -33 17 -10
12 -21 7 -64 -30 -56 -49 -120 -85 -153 -85 -12 0 -31 12 -42 26 -45 57 -17
141 89 274 62 77 68 90 48 90 -13 0 -183 -90 -295 -156 -42 -25 -97 -49 -121
-54 -44 -8 -46 -7 -95 39 -27 25 -84 98 -127 161 -42 63 -114 162 -159 220
l-82 105 30 25 c39 34 51 60 51 114 0 69 10 64 92 -45 58 -77 151 -171 201
-203 15 -10 27 -22 27 -27 0 -17 -41 -9 -112 21 -39 17 -73 28 -75 26 -10 -10
116 -88 164 -102 116 -34 214 20 358 196 42 51 64 69 88 74 17 3 44 13 60 20
46 25 49 30 -161 -277 l-64 -92 94 95 c101 103 211 235 304 369 72 103 151
168 226 186 29 7 56 12 59 11 3 0 34 -35 69 -76z m-1412 -160 c10 -17 9 -27
-11 -66 l-23 -45 -22 40 c-25 43 -22 63 11 79 30 15 31 15 45 -8z m22 -615
c145 -159 186 -233 270 -490 23 -71 47 -139 53 -150 10 -19 11 -19 18 5 4 14
7 46 8 72 1 62 17 69 32 16 6 -24 26 -99 45 -168 l34 -125 -5 160 c-6 150 -31
420 -41 437 -3 5 5 8 19 8 29 0 62 -35 113 -119 36 -60 39 -70 40 -141 0 -61
5 -83 21 -106 37 -53 53 -93 53 -133 0 -34 5 -44 33 -64 38 -28 55 -35 122
-48 40 -8 58 -18 97 -59 30 -32 56 -50 70 -50 13 0 68 10 123 23 80 17 111 20
155 13 39 -6 83 -4 150 7 81 13 101 13 140 1 65 -20 80 -18 152 21 36 19 97
41 135 50 104 24 136 55 169 163 14 48 31 93 38 101 6 8 10 21 8 30 -1 9 16
74 38 143 32 102 46 131 71 152 17 14 35 26 40 26 5 0 38 -12 74 -27 78 -32
78 -35 35 -164 -38 -114 -65 -167 -160 -314 -85 -132 -127 -211 -117 -221 15
-15 36 9 73 80 l39 75 19 -47 c17 -41 20 -78 24 -312 3 -238 -6 -431 -22 -447
-3 -3 -26 11 -50 31 -65 53 -142 85 -264 109 -59 12 -109 22 -111 24 -2 1 26
34 63 74 70 76 130 165 142 213 13 53 -17 23 -95 -94 -84 -127 -121 -161 -202
-190 -89 -31 -283 -61 -430 -67 -120 -5 -145 -3 -205 15 -38 12 -86 32 -107
45 -66 40 -155 136 -257 277 -97 134 -151 199 -264 315 -96 99 -215 231 -353
392 l-129 151 -17 199 c-10 109 -17 209 -17 223 l0 25 24 -25 c13 -14 61 -65
106 -115z m2403 113 c2 -7 0 -29 -4 -48 -4 -19 -15 -87 -24 -150 -10 -63 -22
-121 -27 -127 -6 -7 -24 -13 -41 -13 -35 0 -116 36 -124 55 -2 7 9 41 26 74
72 146 177 259 194 209z m-1987 -191 c18 7 64 -23 64 -42 0 -16 -57 -85 -71
-85 -5 0 -9 6 -9 13 0 6 -14 41 -32 77 -18 36 -34 69 -36 74 -3 4 12 -3 33
-17 21 -14 44 -23 51 -20z m414 -236 c12 -23 14 -128 3 -134 -5 -3 -24 -7 -43
-9 -43 -4 -54 23 -15 40 27 12 35 42 11 42 -8 0 -26 -4 -40 -10 -14 -5 -26 -7
-26 -4 0 15 33 65 52 78 30 21 45 20 58 -3z m1031 9 c62 -34 107 -255 78 -389
-19 -88 -52 -90 -99 -7 l-30 51 0 -45 c0 -110 -39 -156 -88 -106 l-26 26 37
69 c44 82 46 93 10 60 -67 -59 -73 -63 -73 -46 0 9 32 55 70 103 66 82 83 114
60 114 -5 0 -10 11 -10 24 0 19 6 24 36 29 40 7 64 23 64 43 0 7 -15 29 -34
48 -33 36 -32 45 5 26z m-921 -110 c0 -5 -6 -10 -14 -10 -8 0 -23 -3 -33 -6
-16 -5 -16 -4 1 10 22 18 46 21 46 6z m834 -41 c14 -21 12 -24 -32 -66 -96
-89 -164 -115 -334 -129 l-91 -7 5 77 c3 42 7 79 10 81 2 3 27 9 54 14 57 11
58 10 76 -69 l12 -55 7 63 c9 73 18 88 59 94 33 5 56 -14 86 -72 l18 -35 7 49
c11 74 13 76 63 76 35 0 48 -5 60 -21z m-635 -22 c5 -13 12 -50 17 -83 l7 -59
13 64 c8 36 17 68 22 73 5 5 32 4 61 -3 l52 -11 -3 -76 -3 -76 -35 -8 c-62
-15 -290 2 -380 28 -21 6 -18 0 22 -42 l46 -49 -15 -38 c-14 -34 -19 -38 -42
-34 -14 3 -33 1 -43 -4 -18 -10 -19 -6 -34 91 l-6 44 -18 -34 c-23 -45 -55
-74 -74 -67 -19 8 -36 69 -36 133 l0 51 58 12 c31 7 95 31 141 52 46 21 85 39
86 39 1 0 6 -19 9 -42 l7 -43 21 40 c26 51 44 65 85 65 26 0 36 -5 42 -23z
m-82 -333 c-2 -2 -20 -1 -40 3 -33 5 -37 9 -37 35 l0 29 40 -32 c22 -18 39
-34 37 -35z m-1484 -25 c58 -29 77 -48 77 -76 0 -12 -38 -98 -85 -190 -85
-165 -86 -170 -96 -267 -19 -197 -95 -506 -124 -506 -11 0 -14 -16 -13 -67 1
-55 -4 -78 -25 -120 -44 -85 -34 -141 29 -168 22 -9 40 -26 49 -47 13 -31 14
-27 15 82 1 150 14 249 39 291 43 73 127 462 140 648 6 90 13 126 31 161 29
58 81 133 87 127 5 -6 -11 -90 -77 -397 -27 -124 -75 -353 -106 -510 -57 -278
-58 -289 -58 -450 0 -170 8 -214 41 -227 28 -11 91 70 177 228 148 271 198
339 262 355 65 16 188 -25 225 -76 23 -30 59 -170 59 -226 0 -32 -6 -46 -31
-70 -61 -56 -139 -257 -139 -356 0 -50 13 -68 50 -68 35 0 58 26 124 143 93
164 151 230 224 252 36 11 129 -22 172 -61 44 -40 56 -70 65 -169 3 -38 9 -78
11 -87 10 -34 43 -19 91 41 65 80 80 86 148 60 120 -45 141 -85 156 -307 6
-86 17 -193 24 -237 7 -44 11 -82 9 -84 -5 -5 1 -16 -66 119 -59 117 -101 180
-113 168 -4 -3 -1 -31 5 -61 7 -31 10 -82 7 -123 -19 -224 -19 -227 2 -324 44
-207 47 -207 53 0 5 182 16 246 40 238 21 -7 27 -63 39 -378 17 -461 5 -760
-31 -760 -4 0 -19 9 -32 20 -32 25 -38 18 -27 -28 5 -20 9 -48 9 -60 0 -22 -3
-23 -41 -17 -41 7 -42 7 -35 -18 9 -37 -9 -74 -60 -129 -32 -35 -44 -55 -44
-78 0 -38 46 -108 96 -147 40 -32 66 -75 58 -96 -11 -30 -84 -59 -168 -66 -55
-5 -95 -15 -117 -28 -19 -11 -65 -30 -104 -43 -84 -26 -325 -145 -325 -160 0
-8 151 6 320 31 242 35 281 39 307 33 17 -5 31 0 47 15 l24 22 21 -27 c24 -30
27 -66 9 -82 -7 -6 -40 -19 -73 -30 l-60 -21 102 6 102 6 7 -27 c9 -36 -15
-94 -49 -120 l-28 -21 -19 25 c-18 24 -19 25 -48 8 -40 -24 -173 -45 -322 -53
l-125 -6 123 45 c68 24 126 47 130 51 6 7 -29 4 -133 -11 -53 -8 -46 -3 56 41
89 37 134 69 124 86 -4 5 5 13 18 18 14 6 28 15 32 20 12 20 -44 12 -93 -13
-106 -54 -134 -57 -507 -67 -348 -9 -417 -15 -415 -34 1 -16 42 -23 166 -31
63 -4 117 -10 120 -15 17 -28 -407 -75 -603 -67 -83 3 -108 8 -163 34 -66 31
-130 78 -130 95 0 5 24 6 55 3 49 -6 55 -5 55 11 0 10 -25 41 -55 69 -30 28
-55 56 -55 61 0 6 9 21 20 35 28 35 25 59 -15 134 -19 37 -35 76 -35 88 0 12
16 35 40 55 22 19 40 41 40 48 0 7 -27 66 -60 130 -69 134 -77 170 -25 111 38
-42 175 -306 196 -375 10 -35 10 -44 -1 -51 -10 -6 -6 -16 16 -45 34 -45 28
-58 -47 -100 -95 -54 -73 -79 97 -110 149 -26 363 -31 469 -10 50 10 101 23
115 30 l25 13 -35 6 c-19 3 -75 7 -125 10 -153 8 -354 76 -415 141 l-25 27 72
-7 c54 -6 89 -3 142 10 39 9 74 21 77 26 3 5 -24 9 -61 9 -103 0 -225 52 -225
97 0 16 74 17 135 3 22 -5 41 -7 44 -5 7 8 -162 85 -185 85 -31 0 -106 78
-190 197 -38 54 -90 123 -116 155 -56 67 -56 94 -2 85 49 -8 42 9 -19 43 -73
41 -127 89 -181 160 -62 83 -98 162 -94 208 3 33 6 37 33 40 46 5 55 25 56
126 0 50 4 100 9 111 7 19 9 18 19 -8 6 -15 20 -78 31 -140 11 -62 26 -133 35
-158 20 -58 69 -118 111 -135 35 -15 124 -19 124 -6 0 4 -38 33 -85 66 -121
84 -124 89 -44 84 l64 -3 -3 43 c-5 79 -85 304 -116 324 -6 5 -18 0 -26 -10
-14 -16 -15 -10 -16 67 -1 60 -11 122 -33 206 -35 135 -38 192 -15 313 17 93
15 210 -6 372 -25 190 4 686 50 847 11 37 35 122 53 188 19 66 42 152 51 190
9 39 41 120 72 180 31 61 83 163 116 228 49 96 68 123 102 146 70 48 88 50
149 20z m2057 -14 c-7 -8 -22 -15 -34 -15 -20 1 -20 2 4 15 33 19 46 19 30 0z
m-195 -35 c-3 -5 -15 -10 -25 -10 -10 0 -22 5 -25 10 -4 6 7 10 25 10 18 0 29
-4 25 -10z m852 -713 c27 -79 66 -290 89 -477 21 -178 30 -685 15 -856 -6 -71
-18 -196 -26 -279 -8 -82 -18 -241 -21 -353 -4 -111 -10 -205 -14 -207 -9 -6
-43 77 -70 170 -40 136 -69 292 -90 480 -46 420 -89 532 -288 764 l-80 93 -7
116 c-4 63 -6 196 -3 296 6 224 17 254 78 206 34 -26 48 -25 104 11 27 16 55
29 64 27 8 -2 21 -21 29 -43 7 -22 20 -46 28 -54 18 -18 45 -7 45 18 0 41 39
37 61 -7 12 -25 14 -21 25 68 7 52 13 97 13 98 1 2 7 2 14 0 6 -2 22 -34 34
-71z m-1110 4 c180 -9 206 -18 218 -71 9 -43 3 -75 -87 -430 -82 -325 -91
-384 -50 -320 12 19 37 71 55 115 49 122 80 180 99 183 24 4 134 -108 141
-143 2 -16 -6 -72 -19 -124 -33 -135 -46 -311 -38 -543 5 -133 4 -198 -3 -198
-17 0 -144 301 -333 795 -51 132 -120 301 -152 375 -33 74 -78 174 -99 223
-37 83 -48 135 -31 151 4 5 36 5 72 1 36 -3 138 -10 227 -14z m-2501 -526 c63
-31 168 -140 196 -202 28 -64 32 -125 14 -261 -25 -192 -63 -253 -78 -123 -4
37 -21 94 -44 144 -20 45 -49 118 -64 161 -29 86 -68 140 -133 187 -46 34 -57
36 -57 11 0 -26 56 -89 106 -118 l45 -27 -27 -28 c-26 -27 -26 -30 -11 -47 10
-11 17 -35 17 -57 0 -32 7 -45 51 -87 89 -86 130 -221 94 -310 -22 -56 -55
-238 -55 -310 0 -31 9 -84 21 -120 18 -52 22 -95 26 -243 5 -182 -9 -421 -25
-437 -11 -11 -71 55 -74 80 -1 9 -2 118 -3 242 0 211 -2 232 -28 333 -35 137
-54 302 -62 532 -9 265 -20 342 -62 449 -36 90 -54 212 -39 252 10 25 124 12
192 -21z m704 -21 c0 -19 -5 -24 -24 -24 -29 0 -40 24 -20 44 20 20 44 9 44
-20z m765 -434 c-14 -91 -22 -120 -35 -120 -17 0 -20 54 -5 116 31 134 61 137
40 4z m1456 -161 c49 -49 74 -188 67 -369 -4 -98 -9 -124 -27 -153 -27 -44
-27 -47 9 -47 17 0 30 -5 30 -10 0 -13 -43 -98 -62 -124 -13 -16 -14 -12 -10
41 3 44 0 69 -13 93 -9 18 -23 72 -31 119 -16 92 -31 428 -21 455 9 22 33 20
58 -5z m-2665 -34 c15 -39 15 -52 4 -88 -16 -53 -71 -164 -99 -197 l-20 -25
-1 27 c0 48 22 131 51 194 16 34 29 77 29 97 0 50 15 46 36 -8z m-39 -571 c3
-8 -2 -23 -11 -32 -15 -15 -17 -15 -32 0 -21 21 -11 48 16 48 11 0 23 -7 27
-16z m2779 -141 c-8 -32 -42 -81 -51 -71 -3 3 1 23 10 44 27 66 53 83 41 27z
m-2575 -306 c10 -42 9 -51 -5 -65 -15 -15 -18 -15 -26 -2 -15 23 -23 95 -15
131 l7 33 14 -25 c7 -13 18 -46 25 -72z m1905 -853 c17 -42 11 -84 -12 -84
-19 0 -56 82 -48 104 11 29 44 18 60 -20z m2139 0 c-31 -23 -234 -80 -213 -59
16 16 175 75 203 75 29 -1 29 -1 10 -16z m-571 -144 c-25 -25 -681 -299 -1010
-423 -147 -55 -326 -107 -368 -107 -35 0 -56 15 -56 41 0 26 24 40 99 55 143
30 633 210 707 261 27 18 46 23 65 19 20 -4 31 -1 37 11 7 12 18 15 47 10 34
-6 37 -4 31 16 -5 21 -2 22 52 23 39 0 101 15 197 46 180 59 220 69 199 48z
m-1627 -236 c2 -7 -25 -18 -69 -29 -40 -9 -80 -19 -88 -21 -25 -7 21 26 65 47
42 20 86 21 92 3z m-1762 -174 c21 -34 -45 -87 -96 -76 -33 6 -36 -5 -20 -61
13 -46 -2 -49 -38 -8 -34 39 -42 93 -17 114 38 32 157 53 171 31z m1140 -180
c9 -15 -36 -29 -149 -46 -145 -21 -162 -27 -158 -51 4 -26 -47 -51 -185 -91
-183 -55 -344 -68 -351 -31 -4 22 11 27 135 39 154 15 409 78 323 80 -52 1
-54 17 -4 33 166 54 375 90 389 67z m-1187 -78 c5 -15 -44 -16 -53 -2 -4 6 -4
18 -1 27 6 13 9 14 28 1 12 -8 24 -20 26 -26z m1602 -2 c0 -5 -16 -10 -36 -10
-21 0 -33 4 -29 10 3 6 19 10 36 10 16 0 29 -4 29 -10z m-125 -30 c4 -6 -8
-10 -30 -10 -22 0 -34 4 -30 10 3 6 17 10 30 10 13 0 27 -4 30 -10z m-1335
-69 c19 -10 37 -26 39 -36 2 -15 -2 -17 -29 -12 -46 10 -120 44 -120 56 0 18
73 12 110 -8z m-120 -215 c106 -102 163 -131 421 -217 101 -34 261 -90 356
-125 275 -102 465 -156 933 -265 412 -96 390 -94 390 -37 0 50 -11 61 -54 53
-48 -9 -46 5 6 49 61 52 84 49 152 -24 64 -69 109 -141 101 -161 -3 -8 -24
-26 -48 -40 -139 -87 -267 -96 -492 -36 -421 113 -1075 362 -1490 568 -269
133 -358 201 -380 292 -12 45 12 32 105 -57z m2490 -640 c0 -21 -26 -38 -62
-39 -40 -2 -50 24 -16 41 33 16 78 15 78 -2z"/>
<path d="M4026 8370 c-27 -118 -51 -224 -53 -235 -2 -11 16 18 41 65 52 99 68
176 64 300 l-3 85 -49 -215z"/>
<path d="M4131 8564 c-2 -43 30 -199 50 -243 21 -49 100 -171 110 -171 4 0
-122 346 -155 425 -3 6 -5 0 -5 -11z"/>
<path d="M4325 8251 c-4 -7 -4 -24 0 -39 7 -26 8 -26 17 -6 12 25 -4 66 -17
45z"/>
<path d="M3771 8026 c-16 -63 -14 -101 7 -124 9 -12 58 -44 107 -71 103 -58
144 -100 175 -177 21 -51 40 -70 40 -41 0 23 45 57 74 57 52 0 106 42 193 148
105 128 123 171 90 216 -12 17 -18 14 -83 -38 -91 -74 -156 -106 -214 -106
-46 0 -67 11 -169 85 -19 14 -52 28 -73 31 -21 4 -56 20 -78 35 -22 16 -44 29
-49 29 -5 0 -14 -20 -20 -44z"/>
<path d="M2240 5345 c0 -25 39 -94 59 -104 14 -8 22 -7 31 4 10 11 8 21 -9 49
-19 30 -60 66 -76 66 -3 0 -5 -7 -5 -15z"/>
<path d="M2407 5288 c-16 -33 -57 -83 -106 -130 -119 -116 -124 -157 -11 -95
42 23 71 33 75 27 3 -5 -39 -57 -93 -114 -133 -138 -148 -179 -48 -132 66 32
86 33 86 6 0 -25 -45 -69 -77 -75 -68 -14 -79 -17 -90 -27 -7 -6 -13 -17 -13
-25 0 -17 58 -43 97 -43 48 0 102 -20 114 -42 18 -34 -25 -69 -87 -71 -46 -2
-49 -3 -46 -27 5 -37 44 -103 121 -208 l69 -93 6 33 c40 223 42 389 5 587 -26
143 -25 176 6 207 30 30 31 34 5 34 -28 0 -25 15 12 74 27 41 33 60 33 105 0
77 -23 81 -58 9z"/>
<path d="M3496 5138 c-18 -25 -7 -44 18 -35 17 7 23 57 7 57 -6 0 -17 -10 -25
-22z"/>
<path d="M2955 4919 l-47 -51 7 -104 7 -105 -38 3 c-33 3 -39 0 -39 -17 0 -14
11 -22 40 -30 29 -8 47 -22 64 -48 19 -28 27 -34 37 -26 34 28 46 190 20 254
-8 19 -26 40 -40 47 -34 15 -33 28 9 78 33 40 40 50 31 50 -2 0 -25 -23 -51
-51z"/>
<path d="M3402 4768 c-19 -19 -14 -26 13 -20 18 3 25 0 25 -12 0 -17 -5 -20
-53 -31 l-28 -6 20 -33 c23 -37 20 -43 -37 -66 -44 -17 -61 -49 -37 -66 22
-16 35 -10 35 17 0 23 23 25 43 4 10 -10 14 -27 10 -52 -5 -41 10 -93 27 -93
32 0 88 242 74 318 -9 46 -62 70 -92 40z"/>
<path d="M2554 4416 c-7 -29 9 -157 26 -200 5 -15 14 -24 20 -21 22 13 1 208
-25 234 -12 12 -15 10 -21 -13z"/>
<path d="M2820 4420 c-11 -7 -12 -12 -3 -21 14 -14 71 -5 99 16 17 13 15 14
-31 15 -27 0 -57 -5 -65 -10z"/>
<path d="M2870 4316 c0 -30 98 -91 117 -72 14 14 -75 86 -107 86 -5 0 -10 -6
-10 -14z"/>
<path d="M2101 4289 c-1 -9 27 -103 60 -210 80 -252 109 -363 109 -415 0 -26
6 -47 17 -55 22 -19 43 -71 44 -111 l1 -33 10 38 c21 78 -39 316 -150 592 -55
138 -90 213 -91 194z"/>
<path d="M3176 4267 c-32 -48 -63 -237 -46 -281 9 -25 13 -27 25 -15 23 24 46
120 52 222 6 102 -2 120 -31 74z"/>
<path d="M2324 4223 c9 -39 107 -242 123 -255 20 -17 16 10 -12 80 -27 68 -32
108 -12 115 22 8 -67 87 -99 87 -3 0 -3 -12 0 -27z"/>
<path d="M3270 4142 c0 -33 4 -51 10 -47 13 8 13 65 0 85 -7 11 -10 0 -10 -38z"/>
<path d="M2591 4043 c-16 -32 -24 -147 -11 -192 9 -35 15 -42 33 -39 18 2 22
9 20 38 -15 219 -19 235 -42 193z"/>
<path d="M3240 3962 c0 -33 4 -51 10 -47 13 8 13 65 0 85 -7 11 -10 0 -10 -38z"/>
<path d="M2730 3803 c5 -21 11 -78 15 -128 8 -119 14 -145 31 -145 28 0 8 183
-30 275 -19 46 -26 45 -16 -2z"/>
<path d="M3090 3781 c-5 -11 -10 -29 -10 -41 0 -48 40 -81 54 -44 14 37 -1
104 -24 104 -5 0 -14 -9 -20 -19z"/>
<path d="M2570 3735 c0 -22 37 -55 61 -55 22 0 19 10 -14 48 -23 25 -47 29
-47 7z"/>
<path d="M2687 3543 c-11 -10 -8 -241 2 -248 25 -15 44 139 28 218 -8 36 -16
44 -30 30z"/>
<path d="M3158 3340 c-21 -31 -45 -97 -50 -136 -5 -47 24 -35 50 19 16 34 22
62 20 95 l-3 47 -17 -25z"/>
<path d="M3480 3327 c0 -8 9 -40 20 -72 24 -70 26 -111 4 -119 -9 -3 -37 -6
-64 -6 -31 0 -55 -6 -70 -18 -21 -17 -21 -19 -4 -32 13 -12 47 -15 153 -13
142 1 212 11 218 29 6 17 -90 127 -164 189 -64 54 -93 68 -93 42z"/>
<path d="M1030 6356 c0 -20 5 -36 10 -36 6 0 10 13 10 29 0 17 -4 33 -10 36
-6 4 -10 -8 -10 -29z"/>
<path d="M7015 3285 c-94 -22 -220 -60 -165 -50 14 3 93 12 175 21 149 16 173
22 161 43 -11 16 -60 12 -171 -14z"/>
<path d="M6645 3270 c-4 -6 10 -10 35 -10 25 0 39 4 35 10 -3 6 -19 10 -35 10
-16 0 -32 -4 -35 -10z"/>
<path d="M6195 3236 c-23 -7 -50 -18 -60 -24 -18 -10 -17 -11 11 -12 37 0 124
28 124 41 0 12 -26 10 -75 -5z"/>
<path d="M6663 3209 c-29 -5 -67 -16 -85 -24 l-33 -15 60 4 c67 4 145 25 145
38 0 9 -16 9 -87 -3z"/>
<path d="M6395 3203 c-348 -79 -634 -156 -845 -228 -58 -20 -124 -40 -148 -45
-37 -9 -157 -78 -149 -86 1 -2 91 26 199 61 174 57 453 141 531 159 15 3 27 2
27 -2 0 -5 -56 -28 -125 -51 -222 -74 -258 -97 -89 -57 129 32 292 84 299 97
4 5 2 16 -4 23 -10 11 5 13 86 12 84 -1 106 3 153 23 33 15 76 25 107 25 29 1
53 4 53 7 0 3 -19 14 -42 24 l-43 19 35 4 c51 5 63 22 15 21 -22 -1 -49 -3
-60 -6z m-65 -51 c0 -15 -51 -33 -105 -38 -43 -5 -47 -4 -30 7 20 13 98 37
123 38 6 1 12 -3 12 -7z"/>
<path d="M6728 3135 c-307 -63 -773 -189 -1001 -271 -86 -30 -109 -42 -125
-66 -8 -10 -58 -41 -113 -68 -54 -28 -99 -53 -99 -56 0 -10 38 1 285 81 346
112 410 128 795 204 398 78 466 89 456 73 -13 -22 -110 -46 -336 -82 -139 -23
-320 -66 -334 -81 -12 -11 15 -11 69 1 210 45 477 81 492 66 4 -3 -2 -13 -13
-21 -17 -13 -11 -14 66 -14 76 0 83 1 66 14 -22 17 -23 16 61 108 67 74 89
113 72 133 -20 25 -157 16 -341 -21z m202 -45 c11 -7 1 -10 -35 -10 -36 0 -46
3 -35 10 8 5 24 10 35 10 11 0 27 -5 35 -10z"/>
<path d="M5921 3151 c-10 -6 -10 -10 -1 -16 15 -10 62 3 55 15 -8 12 -35 13
-54 1z"/>
<path d="M5744 3101 c-70 -21 -114 -43 -97 -48 17 -6 132 26 173 47 32 17 33
19 10 19 -14 0 -52 -9 -86 -18z"/>
<path d="M5519 3031 c-39 -12 -69 -31 -69 -42 0 -11 18 -7 88 18 65 24 50 44
-19 24z"/>
<path d="M5305 2949 c-33 -11 -67 -27 -75 -36 -13 -14 -11 -15 25 -9 22 3 47
6 56 6 9 0 33 14 54 30 46 36 28 39 -60 9z"/>
<path d="M5098 2869 c-36 -18 -50 -39 -28 -39 19 0 90 40 90 50 0 15 -21 11
-62 -11z"/>
<path d="M6120 2840 c0 -5 13 -10 29 -10 17 0 33 5 36 10 4 6 -8 10 -29 10
-20 0 -36 -4 -36 -10z"/>
<path d="M4862 2764 c-68 -34 -98 -64 -49 -48 36 11 115 53 122 64 14 23 -4
19 -73 -16z"/>
<path d="M6392 2638 c-17 -17 -15 -48 3 -48 17 0 39 36 30 50 -8 13 -18 13
-33 -2z"/>
<path d="M5595 2190 c-69 -52 -102 -105 -47 -76 15 8 38 27 53 43 63 70 61 82
-6 33z"/>
<path d="M3132 2151 c-10 -6 -8 -9 10 -13 31 -5 60 1 53 13 -8 11 -45 12 -63
0z"/>
<path d="M5402 2109 c-10 -15 -10 -25 -3 -32 14 -14 41 9 41 34 0 25 -22 24
-38 -2z"/>
<path d="M5276 2071 c-17 -19 -21 -47 -8 -55 8 -4 19 12 39 56 8 16 -16 16
-31 -1z"/>
</g>
</svg>
