<?xml version="1.0" standalone="no"?>
<!DOCTYPE svg PUBLIC "-//W3C//DTD SVG 20010904//EN"
 "http://www.w3.org/TR/2001/REC-SVG-20010904/DTD/svg10.dtd">
<svg version="1.0" xmlns="http://www.w3.org/2000/svg"
 width="1097.000000pt" height="1280.000000pt" viewBox="0 0 1097.000000 1280.000000"
 preserveAspectRatio="xMidYMid meet">
<g transform="translate(0.000000,1280.000000) scale(0.100000,-0.100000)"
fill="#000000" stroke="none">
<path d="M3084 12405 c3 -126 12 -286 20 -355 10 -88 490 -2575 551 -2856 9
-42 -23 -33 -84 23 -34 30 -75 75 -92 99 -60 88 -77 50 -57 -128 8 -68 13
-147 10 -176 -4 -48 -1 -55 25 -80 16 -15 45 -58 63 -97 33 -69 133 -182 204
-231 l28 -20 -48 -93 c-27 -51 -57 -107 -66 -123 -9 -17 -20 -56 -23 -87 -6
-59 -19 -120 -37 -184 -10 -31 -9 -43 4 -65 11 -20 17 -69 21 -182 4 -85 13
-202 22 -259 9 -57 15 -127 13 -154 l-3 -49 -95 -39 c-52 -22 -116 -46 -142
-55 -27 -8 -51 -21 -55 -28 -5 -6 -34 -20 -67 -30 -32 -10 -104 -41 -160 -69
-132 -68 -252 -180 -285 -270 -38 -105 -21 -191 51 -252 48 -41 84 -53 220
-76 159 -26 209 -48 260 -113 22 -28 45 -51 51 -51 17 0 39 85 34 133 -10 95
-102 173 -272 231 -55 19 -102 36 -104 37 -8 7 46 46 110 78 104 54 158 66
332 71 157 4 157 4 157 -18 0 -34 34 -146 64 -208 14 -31 26 -60 26 -65 0 -5
15 -31 33 -58 35 -52 35 -59 8 -187 -4 -20 -5 -44 -1 -54 3 -10 -2 -59 -13
-109 -23 -111 -53 -164 -158 -280 -44 -48 -79 -88 -79 -90 0 -1 -18 -72 -40
-157 -101 -393 -142 -517 -201 -615 -57 -95 -108 -224 -149 -378 -38 -140 -38
-169 -5 -184 14 -7 32 -12 39 -12 8 0 29 -17 49 -39 40 -45 56 -106 36 -143
-20 -37 -108 -286 -190 -536 -35 -106 1 -98 65 16 125 218 260 443 291 487 20
27 52 77 71 110 18 33 45 74 59 90 l26 30 -5 -75 c-13 -163 -19 -348 -13 -372
10 -37 27 -40 109 -19 40 10 104 22 142 26 l69 7 -7 -139 c-10 -219 20 -460
95 -767 87 -351 98 -498 50 -662 -15 -55 -39 -121 -52 -149 -31 -65 -32 -159
-1 -227 36 -82 168 -188 235 -188 11 0 17 -8 17 -23 0 -40 29 -112 62 -151 44
-54 97 -76 185 -76 65 0 78 4 160 46 147 77 173 113 173 238 0 132 -62 273
-125 286 -17 4 -40 12 -53 19 -13 7 -40 11 -61 9 -33 -3 -44 3 -90 44 l-53 48
-5 122 c-5 135 -11 107 101 468 35 113 86 337 86 379 0 11 3 21 8 20 4 0 37
-46 73 -102 36 -56 78 -108 92 -116 24 -13 28 -12 57 13 17 14 51 52 76 83 24
32 57 74 74 93 l31 35 -6 -175 c-6 -153 -4 -181 11 -220 11 -29 19 -82 21
-147 4 -97 3 -103 -26 -155 -39 -69 -81 -242 -81 -334 0 -99 22 -155 79 -207
l48 -42 -18 -140 c-22 -166 -55 -307 -100 -430 -32 -87 -33 -95 -34 -250 -1
-88 -5 -169 -9 -180 -4 -11 -40 -84 -78 -161 -48 -97 -72 -157 -75 -190 -3
-27 -18 -81 -34 -121 -40 -99 -69 -226 -69 -304 0 -179 176 -306 395 -286 229
22 320 188 271 496 -9 56 -16 129 -16 162 0 35 -13 109 -30 177 -54 205 -53
283 5 352 19 23 39 58 45 78 16 60 12 154 -11 228 -18 59 -20 83 -15 162 11
153 65 454 86 477 37 41 53 90 60 180 5 71 14 108 42 175 54 129 78 247 77
376 l-2 109 83 170 c45 94 102 197 125 230 23 33 75 118 116 189 l73 128 23
-133 c25 -147 45 -434 37 -544 -2 -38 -11 -171 -19 -295 -13 -193 -19 -240
-45 -329 -33 -115 -38 -195 -15 -260 39 -111 27 -261 -31 -381 -19 -40 -34
-80 -34 -91 0 -10 -11 -56 -24 -101 -13 -46 -27 -109 -31 -141 -7 -55 -6 -58
23 -85 45 -43 109 -57 247 -57 142 0 196 14 243 61 34 34 34 36 28 92 -14 119
-48 238 -98 337 -46 94 -50 106 -55 198 -6 90 -4 101 17 140 l24 42 1 435 c2
535 10 638 70 860 57 209 61 240 46 358 -12 93 -12 101 14 196 14 55 29 106
34 114 9 15 8 17 88 -123 22 -38 66 -115 98 -170 33 -55 73 -127 89 -160 38
-74 61 -80 60 -15 -1 65 -22 245 -33 288 -5 21 -13 99 -16 174 l-7 137 31 40
c49 62 145 111 217 111 16 0 38 6 47 13 18 13 15 26 -47 192 -9 25 -13 61 -10
95 2 30 9 133 15 227 10 168 11 175 50 260 21 49 39 93 39 99 0 6 7 17 15 24
29 24 59 -3 104 -94 49 -95 71 -110 71 -45 0 40 -34 376 -46 453 -8 47 11 41
32 -10 8 -19 19 -34 24 -34 14 0 12 34 -4 105 -17 70 -102 537 -111 610 -4 28
-16 87 -27 133 -11 46 -18 85 -16 88 3 2 15 -14 27 -36 12 -22 28 -40 35 -40
10 0 3 34 -25 120 -21 66 -41 143 -45 170 -6 48 -5 51 31 85 l38 34 -40 58
c-22 32 -71 103 -108 158 -91 135 -211 287 -324 413 -114 127 -121 147 -81
235 46 102 72 197 65 240 -6 35 -54 97 -76 97 -11 0 -12 37 0 44 4 3 11 38 14
77 3 40 11 75 16 78 14 9 30 118 19 129 -10 10 0 42 13 42 5 0 9 22 9 49 0 48
0 49 37 56 80 15 123 58 123 125 0 53 -41 222 -73 300 -63 156 -225 359 -320
403 -80 37 -309 111 -440 142 -98 23 -117 31 -111 44 53 129 54 174 9 371 -32
141 -56 190 -118 246 -126 113 -313 110 -435 -9 -56 -54 -77 -96 -112 -221
-16 -55 -38 -121 -49 -146 -11 -25 -21 -55 -21 -68 0 -25 -26 -39 -94 -51 -36
-6 -44 -13 -84 -79 -31 -51 -49 -72 -64 -72 -11 0 -65 -9 -120 -20 -91 -19
-102 -19 -118 -5 -26 23 -47 18 -59 -15 -5 -16 -11 -30 -13 -31 -2 0 -57 -4
-123 -9 -77 -6 -138 -16 -170 -28 -43 -17 -50 -24 -53 -50 -2 -17 1 -40 7 -50
8 -15 5 -24 -13 -41 -12 -11 -30 -21 -39 -21 -9 0 -17 -6 -17 -14 0 -19 -45
-47 -64 -40 -10 4 -16 18 -16 38 0 49 -24 76 -69 76 -42 0 -58 -13 -70 -55 -5
-21 -18 -32 -53 -45 l-47 -18 -10 32 c-6 17 -130 636 -276 1376 -287 1452
-296 1493 -421 1802 -35 89 -67 164 -71 167 -3 3 -3 -97 1 -224z m3456 -4240
c0 -19 -4 -35 -10 -35 -5 0 -10 16 -10 35 0 19 5 35 10 35 6 0 10 -16 10 -35z
m419 -2085 c10 -121 9 -142 -20 -344 -5 -39 -14 -268 -20 -510 -5 -242 -11
-442 -14 -444 -7 -8 -49 91 -87 208 -45 136 -70 268 -70 372 0 135 4 149 30
107 8 -12 17 -18 22 -13 16 16 40 333 40 516 0 128 3 178 12 178 6 0 27 18 46
41 27 32 37 38 43 27 5 -8 13 -70 18 -138z m-3156 4 c-13 -68 -12 -78 2 -100
13 -20 14 -37 5 -114 -6 -49 -17 -104 -24 -122 -8 -18 -24 -66 -36 -107 -12
-40 -24 -71 -27 -67 -3 3 -14 39 -23 79 -18 74 -18 75 5 163 13 49 37 132 53
184 17 52 33 110 37 128 4 17 10 32 15 32 4 0 1 -34 -7 -76z m1459 -2436 l-9
-33 -8 28 c-5 18 -3 33 6 43 17 21 22 4 11 -38z"/>
</g>
</svg>
