<?xml version="1.0" encoding="UTF-8" standalone="no"?>
<svg
   xmlns:dc="http://purl.org/dc/elements/1.1/"
   xmlns:cc="http://creativecommons.org/ns#"
   xmlns:rdf="http://www.w3.org/1999/02/22-rdf-syntax-ns#"
   xmlns:svg="http://www.w3.org/2000/svg"
   xmlns="http://www.w3.org/2000/svg"
   xmlns:xlink="http://www.w3.org/1999/xlink"
   xmlns:sodipodi="http://sodipodi.sourceforge.net/DTD/sodipodi-0.dtd"
   xmlns:inkscape="http://www.inkscape.org/namespaces/inkscape"
   width="640"
   height="480"
   enable-background="new"
   inkscape:export-filename="C:\Users\Dale\Documents\Websites\www.cjmoseley.dev.cc\wp-content\plugins\t13ne\images\type\char.png"
   inkscape:export-xdpi="96"
   inkscape:export-ydpi="96"
   inkscape:version="0.92.4 (5da689c313, 2019-01-14)"
   preserveAspectRatio="none"
   sodipodi:docname="char.svg"
   version="1.1"
   viewBox="0 0 169.33 127"
   id="svg995">
  <metadata
     id="metadata997">
    <rdf:RDF>
      <cc:Work
         rdf:about="">
        <dc:format>image/svg+xml</dc:format>
        <dc:type
           rdf:resource="http://purl.org/dc/dcmitype/StillImage" />
        <dc:title></dc:title>
      </cc:Work>
    </rdf:RDF>
  </metadata>
  <defs
     id="defs988">
    <linearGradient
       inkscape:collect="always"
       id="linearGradient11621">
      <stop
         style="stop-color:#000000;stop-opacity:1"
         offset="0"
         id="stop11617" />
      <stop
         style="stop-color:#cccccc;stop-opacity:1"
         offset="1"
         id="stop11619" />
    </linearGradient>
    <linearGradient
       inkscape:collect="always"
       id="linearGradient11555">
      <stop
         style="stop-color:#000000;stop-opacity:1"
         offset="0"
         id="stop11551" />
      <stop
         style="stop-color:#e6e6e6;stop-opacity:1"
         offset="1"
         id="stop11553" />
    </linearGradient>
    <filter
       id="filter882"
       x="-.3"
       y="-.3"
       width="1.6"
       height="1.6"
       color-interpolation-filters="sRGB"
       inkscape:label="Cracked Lava"
       inkscape:menu="Materials"
       inkscape:menu-tooltip="A volcanic texture, a little like leather">
      <feTurbulence
         baseFrequency="0.037"
         numOctaves="3"
         result="result0"
         id="feTurbulence893" />
      <feSpecularLighting
         result="result1"
         specularExponent="24.3"
         surfaceScale="2"
         id="feSpecularLighting897">
        <feDistantLight
           azimuth="225"
           elevation="45"
           id="feDistantLight895" />
      </feSpecularLighting>
      <feDiffuseLighting
         diffuseConstant="1.21"
         in="result0"
         surfaceScale="3"
         id="feDiffuseLighting901">
        <feDistantLight
           azimuth="225"
           elevation="42"
           id="feDistantLight899" />
      </feDiffuseLighting>
      <feBlend
         in2="SourceGraphic"
         mode="multiply"
         result="result91"
         id="feBlend903" />
      <feComposite
         in="result1"
         in2="result91"
         k2="1"
         k3="1"
         operator="arithmetic"
         id="feComposite905" />
      <feComposite
         in2="SourceAlpha"
         operator="in"
         result="fbSourceGraphic"
         id="feComposite907" />
      <feColorMatrix
         in="fbSourceGraphic"
         result="fbSourceGraphicAlpha"
         values="0 0 0 -1 0 0 0 0 -1 0 0 0 0 -1 0 0 0 0 1 0"
         id="feColorMatrix909" />
      <feTurbulence
         baseFrequency="0.002 0.107"
         in="fbSourceGraphic"
         id="feTurbulence911" />
      <feColorMatrix
         result="result91"
         values="2 0 0 0 0 0 0 0 0 0 0 0 0 0 0 0 0 0 0.5 0.5"
         id="feColorMatrix913" />
      <feDisplacementMap
         in="fbSourceGraphic"
         in2="result91"
         result="fbSourceGraphic"
         scale="14.3"
         xChannelSelector="R"
         id="feDisplacementMap915" />
      <feColorMatrix
         in="fbSourceGraphic"
         result="fbSourceGraphicAlpha"
         values="0 0 0 -1 0 0 0 0 -1 0 0 0 0 -1 0 0 0 0 1 0"
         id="feColorMatrix917" />
      <feGaussianBlur
         in="fbSourceGraphic"
         result="blur"
         stdDeviation="15 15"
         id="feGaussianBlur919" />
      <feComposite
         in="fbSourceGraphic"
         in2="blur"
         operator="atop"
         result="composite1"
         id="feComposite921" />
      <feComposite
         in2="composite1"
         operator="in"
         result="composite2"
         id="feComposite923" />
      <feComposite
         in2="composite2"
         operator="in"
         result="composite3"
         id="feComposite925" />
      <feTurbulence
         baseFrequency="0.05 0.05"
         numOctaves="3"
         result="turbulence"
         seed="11"
         type="fractalNoise"
         id="feTurbulence927" />
      <feDisplacementMap
         in="composite3"
         in2="turbulence"
         result="map"
         scale="30"
         xChannelSelector="R"
         yChannelSelector="G"
         id="feDisplacementMap929" />
      <feColorMatrix
         result="colormatrix"
         values="1 0 0 0 0 0 1 0 0 0 0 0 1 0 0 0 0 0 7.03 -3.91 "
         id="feColorMatrix931" />
      <feComposite
         in="composite3"
         in2="colormatrix"
         result="fbSourceGraphic"
         id="feComposite933" />
      <feColorMatrix
         in="fbSourceGraphic"
         result="fbSourceGraphicAlpha"
         values="0 0 0 -1 0 0 0 0 -1 0 0 0 0 -1 0 0 0 0 1 0"
         id="feColorMatrix935" />
      <feGaussianBlur
         in="fbSourceGraphic"
         result="result0"
         stdDeviation="1"
         id="feGaussianBlur937" />
      <feTurbulence
         baseFrequency="0.017"
         numOctaves="7"
         result="result1"
         seed="488"
         id="feTurbulence939" />
      <feComposite
         in="result0"
         in2="result1"
         operator="out"
         result="result2"
         id="feComposite941" />
      <feGaussianBlur
         result="result5"
         stdDeviation="0.5"
         id="feGaussianBlur943" />
      <feSpecularLighting
         in="result5"
         result="result4"
         specularConstant="4"
         specularExponent="100"
         surfaceScale="1.5"
         id="feSpecularLighting947">
        <feDistantLight
           azimuth="225"
           elevation="62"
           id="feDistantLight945" />
      </feSpecularLighting>
      <feComposite
         in="result4"
         in2="result2"
         operator="atop"
         result="result91"
         id="feComposite949" />
      <feBlend
         in2="result91"
         mode="multiply"
         result="fbSourceGraphic"
         id="feBlend951" />
      <feColorMatrix
         in="fbSourceGraphic"
         result="fbSourceGraphicAlpha"
         values="0 0 0 -1 0 0 0 0 -1 0 0 0 0 -1 0 0 0 0 1 0"
         id="feColorMatrix953" />
      <feGaussianBlur
         in="fbSourceGraphic"
         result="result0"
         stdDeviation="0.5"
         id="feGaussianBlur955" />
      <feTurbulence
         baseFrequency="0.042"
         numOctaves="7"
         result="result1"
         seed="488"
         id="feTurbulence957" />
      <feDisplacementMap
         in="result1"
         in2="result1"
         result="result5"
         xChannelSelector="R"
         yChannelSelector="G"
         id="feDisplacementMap959" />
      <feComposite
         in="result0"
         in2="result5"
         operator="in"
         result="result2"
         id="feComposite961" />
      <feSpecularLighting
         lighting-color="rgb(255,230,136)"
         in="result2"
         result="result4"
         specularConstant="2"
         specularExponent="65"
         surfaceScale="2"
         id="feSpecularLighting965">
        <feDistantLight
           azimuth="225"
           elevation="62"
           id="feDistantLight963" />
      </feSpecularLighting>
      <feComposite
         in="result4"
         in2="result2"
         k1="2.5"
         k2="-0.5"
         k3="1"
         operator="arithmetic"
         result="result91"
         id="feComposite967" />
      <feBlend
         in2="result91"
         mode="multiply"
         result="fbSourceGraphic"
         id="feBlend969" />
      <feColorMatrix
         in="fbSourceGraphic"
         result="fbSourceGraphicAlpha"
         values="1 0 0 -1 0 1 0 1 -1 0 1 0 0 -1 0 -2 -0.5 0 5 -2"
         id="feColorMatrix971" />
      <feGaussianBlur
         in="fbSourceGraphicAlpha"
         result="result0"
         stdDeviation="8"
         id="feGaussianBlur973" />
      <feOffset
         dx="2"
         dy="2"
         in="result0"
         result="result3"
         id="feOffset975" />
      <feSpecularLighting
         lighting-color="rgb(255,255,255)"
         in="result0"
         result="result1"
         specularConstant="0.8"
         specularExponent="15"
         surfaceScale="4"
         id="feSpecularLighting979">
        <fePointLight
           x="-5000"
           y="-10000"
           z="20000"
           id="fePointLight977" />
      </feSpecularLighting>
      <feComposite
         in="result1"
         in2="fbSourceGraphicAlpha"
         operator="in"
         result="result2"
         id="feComposite981" />
      <feComposite
         in="fbSourceGraphic"
         in2="result2"
         k2="2"
         k3="2"
         operator="arithmetic"
         result="result4"
         id="feComposite983" />
      <feBlend
         in2="result4"
         mode="darken"
         id="feBlend985" />
    </filter>
    <linearGradient
       id="t13nea">
      <stop
         id="stop1972"
         offset="0"
         stop-color="#fff6d5" />
      <stop
         id="stop1974"
         offset="1"
         stop-color="#250" />
    </linearGradient>
    <linearGradient
       xlink:href="#t13nea"
       gradientUnits="userSpaceOnUse"
       gradientTransform="translate(1.0182 26.664)"
       y2="149.43"
       y1="309.59"
       x2="234.66"
       x1="228.7"
       id="t13nef" />
    <linearGradient
       gradientUnits="userSpaceOnUse"
       y2="89.087"
       y1="264.89"
       x2="89.392"
       x1="94.607"
       id="t13nee">
      <stop
         id="stop1978"
         offset="0"
         stop-color="#00112b" />
      <stop
         id="stop1980"
         offset="1"
         stop-color="#d5e5ff" />
    </linearGradient>
    <filter
       color-interpolation-filters="sRGB"
       id="t13nel">
      <feColorMatrix
         id="feColorMatrix1983"
         values="0 0 0 0 0 0 0 0 0 0 0 0 0 0 0 0.21 0.72 0.07 0 0 "
         result="result1" />
      <feColorMatrix
         id="feColorMatrix1985"
         values="1 0 0 0 0 0 1 0 0 0 0 0 1 0 0 0 0 0 2 0 "
         result="result9" />
      <feComposite
         id="feComposite1987"
         result="result4"
         operator="in"
         in2="result9"
         in="SourceGraphic" />
      <feFlood
         id="feFlood1989"
         result="result2"
         flood-color="rgb(0,0,0)" />
      <feComposite
         id="feComposite1991"
         result="result10"
         operator="in"
         in2="result9" />
      <feComposite
         id="feComposite1993"
         operator="atop"
         in2="result4" />
      <feGaussianBlur
         id="feGaussianBlur1995"
         stdDeviation="3"
         result="result8" />
      <feOffset
         id="feOffset1997"
         result="result3"
         in="result8"
         dy="3"
         dx="3" />
      <feFlood
         id="feFlood1999"
         result="result5"
         flood-color="rgb(219,173,62)" />
      <feMerge
         id="feMerge2007"
         result="result6">
        <feMergeNode
           id="feMergeNode2001"
           in="result5" />
        <feMergeNode
           id="feMergeNode2003"
           in="result3" />
        <feMergeNode
           id="feMergeNode2005"
           in="result4" />
      </feMerge>
      <feComposite
         id="feComposite2009"
         result="result7"
         operator="in"
         in2="SourceGraphic" />
    </filter>
    <filter
       color-interpolation-filters="sRGB"
       id="t13nek">
      <feColorMatrix
         id="feColorMatrix2012"
         values="0 0 0 0 0 0 0 0 0 0 0 0 0 0 0 0.21 0.72 0.07 0 0 "
         result="result1" />
      <feColorMatrix
         id="feColorMatrix2014"
         values="1 0 0 0 0 0 1 0 0 0 0 0 1 0 0 0 0 0 2 0 "
         result="result9" />
      <feComposite
         id="feComposite2016"
         result="result4"
         operator="in"
         in2="result9"
         in="SourceGraphic" />
      <feFlood
         id="feFlood2018"
         result="result2"
         flood-color="rgb(0,0,0)" />
      <feComposite
         id="feComposite2020"
         result="result10"
         operator="in"
         in2="result9" />
      <feComposite
         id="feComposite2022"
         operator="atop"
         in2="result4" />
      <feGaussianBlur
         id="feGaussianBlur2024"
         stdDeviation="3"
         result="result8" />
      <feOffset
         id="feOffset2026"
         result="result3"
         in="result8"
         dy="3"
         dx="3" />
      <feFlood
         id="feFlood2028"
         result="result5"
         flood-color="rgb(219,173,62)" />
      <feMerge
         id="feMerge2036"
         result="result6">
        <feMergeNode
           id="feMergeNode2030"
           in="result5" />
        <feMergeNode
           id="feMergeNode2032"
           in="result3" />
        <feMergeNode
           id="feMergeNode2034"
           in="result4" />
      </feMerge>
      <feComposite
         id="feComposite2038"
         result="fbSourceGraphic"
         operator="in"
         in2="SourceGraphic" />
      <feColorMatrix
         id="feColorMatrix2040"
         values="0 0 0 -1 0 0 0 0 -1 0 0 0 0 -1 0 0 0 0 1 0"
         result="fbSourceGraphicAlpha"
         in="fbSourceGraphic" />
      <feColorMatrix
         id="feColorMatrix2042"
         values="0 0 0 0 0 0 0 0 0 0 0 0 0 0 0 0.21 0.72 0.07 0 0 "
         result="result1"
         in="fbSourceGraphic" />
      <feColorMatrix
         id="feColorMatrix2044"
         values="1 0 0 0 0 0 1 0 0 0 0 0 1 0 0 0 0 0 2 0 "
         result="result9" />
      <feComposite
         id="feComposite2046"
         result="result4"
         operator="in"
         in2="result9"
         in="fbSourceGraphic" />
      <feFlood
         id="feFlood2048"
         result="result2"
         flood-color="rgb(0,0,0)" />
      <feComposite
         id="feComposite2050"
         result="result10"
         operator="in"
         in2="result9" />
      <feComposite
         id="feComposite2052"
         operator="atop"
         in2="result4" />
      <feGaussianBlur
         id="feGaussianBlur2054"
         stdDeviation="3"
         result="result8" />
      <feOffset
         id="feOffset2056"
         result="result3"
         in="result8"
         dy="3"
         dx="3" />
      <feFlood
         id="feFlood2058"
         result="result5"
         flood-color="rgb(219,173,62)" />
      <feMerge
         id="feMerge2066"
         result="result6">
        <feMergeNode
           id="feMergeNode2060"
           in="result5" />
        <feMergeNode
           id="feMergeNode2062"
           in="result3" />
        <feMergeNode
           id="feMergeNode2064"
           in="result4" />
      </feMerge>
      <feComposite
         id="feComposite2068"
         result="result7"
         operator="in"
         in2="fbSourceGraphic" />
    </filter>
    <linearGradient
       xlink:href="#t13nea"
       gradientUnits="userSpaceOnUse"
       gradientTransform="translate(30.101 25.144)"
       y2="156.12"
       y1="287.24"
       x2="241.81"
       x1="239.12"
       id="t13ned" />
    <filter
       color-interpolation-filters="sRGB"
       id="t13nej">
      <feColorMatrix
         id="feColorMatrix2072"
         values="0 0 0 0 0 0 0 0 0 0 0 0 0 0 0 0.21 0.72 0.07 0 0 "
         result="result1" />
      <feColorMatrix
         id="feColorMatrix2074"
         values="1 0 0 0 0 0 1 0 0 0 0 0 1 0 0 0 0 0 2 0 "
         result="result9" />
      <feComposite
         id="feComposite2076"
         result="result4"
         operator="in"
         in2="result9"
         in="SourceGraphic" />
      <feFlood
         id="feFlood2078"
         result="result2"
         flood-color="rgb(0,0,0)" />
      <feComposite
         id="feComposite2080"
         result="result10"
         operator="in"
         in2="result9" />
      <feComposite
         id="feComposite2082"
         operator="atop"
         in2="result4" />
      <feGaussianBlur
         id="feGaussianBlur2084"
         stdDeviation="3"
         result="result8" />
      <feOffset
         id="feOffset2086"
         result="result3"
         in="result8"
         dy="3"
         dx="3" />
      <feFlood
         id="feFlood2088"
         result="result5"
         flood-color="rgb(219,173,62)" />
      <feMerge
         id="feMerge2096"
         result="result6">
        <feMergeNode
           id="feMergeNode2090"
           in="result5" />
        <feMergeNode
           id="feMergeNode2092"
           in="result3" />
        <feMergeNode
           id="feMergeNode2094"
           in="result4" />
      </feMerge>
      <feComposite
         id="feComposite2098"
         result="result7"
         operator="in"
         in2="SourceGraphic" />
    </filter>
    <linearGradient
       xlink:href="#t13nea"
       gradientUnits="userSpaceOnUse"
       y2="142.72"
       y1="311.08"
       x2="356.82"
       x1="397.8"
       id="t13nec" />
    <linearGradient
       gradientUnits="userSpaceOnUse"
       y2="92.811"
       y1="223.92"
       x2="306.17"
       x1="317.34"
       id="t13neb">
      <stop
         id="stop2102"
         offset="0"
         stop-color="#dbdee3" />
      <stop
         id="stop2104"
         offset="1"
         stop-color="#57657a" />
    </linearGradient>
    <filter
       color-interpolation-filters="sRGB"
       id="t13nei">
      <feColorMatrix
         id="feColorMatrix2107"
         values="0 0 0 0 0 0 0 0 0 0 0 0 0 0 0 0.21 0.72 0.07 0 0 "
         result="result1" />
      <feColorMatrix
         id="feColorMatrix2109"
         values="1 0 0 0 0 0 1 0 0 0 0 0 1 0 0 0 0 0 2 0 "
         result="result9" />
      <feComposite
         id="feComposite2111"
         result="result4"
         operator="in"
         in2="result9"
         in="SourceGraphic" />
      <feFlood
         id="feFlood2113"
         result="result2"
         flood-color="rgb(0,0,0)" />
      <feComposite
         id="feComposite2115"
         result="result10"
         operator="in"
         in2="result9" />
      <feComposite
         id="feComposite2117"
         operator="atop"
         in2="result4" />
      <feGaussianBlur
         id="feGaussianBlur2119"
         stdDeviation="3"
         result="result8" />
      <feOffset
         id="feOffset2121"
         result="result3"
         in="result8"
         dy="3"
         dx="3" />
      <feFlood
         id="feFlood2123"
         result="result5"
         flood-color="rgb(219,173,62)" />
      <feMerge
         id="feMerge2131"
         result="result6">
        <feMergeNode
           id="feMergeNode2125"
           in="result5" />
        <feMergeNode
           id="feMergeNode2127"
           in="result3" />
        <feMergeNode
           id="feMergeNode2129"
           in="result4" />
      </feMerge>
      <feComposite
         id="feComposite2133"
         result="result7"
         operator="in"
         in2="SourceGraphic" />
    </filter>
    <filter
       color-interpolation-filters="sRGB"
       id="t13neh">
      <feColorMatrix
         id="feColorMatrix2136"
         values="0 0 0 0 0 0 0 0 0 0 0 0 0 0 0 0.21 0.72 0.07 0 0 "
         result="result1" />
      <feColorMatrix
         id="feColorMatrix2138"
         values="1 0 0 0 0 0 1 0 0 0 0 0 1 0 0 0 0 0 2 0 "
         result="result9" />
      <feComposite
         id="feComposite2140"
         result="result4"
         operator="in"
         in2="result9"
         in="SourceGraphic" />
      <feFlood
         id="feFlood2142"
         result="result2"
         flood-color="rgb(0,0,0)" />
      <feComposite
         id="feComposite2144"
         result="result10"
         operator="in"
         in2="result9" />
      <feComposite
         id="feComposite2146"
         operator="atop"
         in2="result4" />
      <feGaussianBlur
         id="feGaussianBlur2148"
         stdDeviation="3"
         result="result8" />
      <feOffset
         id="feOffset2150"
         result="result3"
         in="result8"
         dy="3"
         dx="3" />
      <feFlood
         id="feFlood2152"
         result="result5"
         flood-color="rgb(219,173,62)" />
      <feMerge
         id="feMerge2160"
         result="result6">
        <feMergeNode
           id="feMergeNode2154"
           in="result5" />
        <feMergeNode
           id="feMergeNode2156"
           in="result3" />
        <feMergeNode
           id="feMergeNode2158"
           in="result4" />
      </feMerge>
      <feComposite
         id="feComposite2162"
         result="result7"
         operator="in"
         in2="SourceGraphic" />
    </filter>
    <filter
       inkscape:menu-tooltip="Cut out, add inner shadow and colorize some parts of an image"
       inkscape:menu="Shadows and Glows"
       inkscape:label="Emergence"
       color-interpolation-filters="sRGB"
       id="filter47501">
      <feColorMatrix
         id="feColorMatrix2170"
         values="0 0 0 0 0 0 0 0 0 0 0 0 0 0 0 0.21 0.72 0.07 0 0 "
         result="result1" />
      <feColorMatrix
         id="feColorMatrix2172"
         values="1 0 0 0 0 0 1 0 0 0 0 0 1 0 0 0 0 0 2 0 "
         result="result9" />
      <feComposite
         id="feComposite2174"
         result="result4"
         operator="in"
         in2="result9"
         in="SourceGraphic" />
      <feFlood
         id="feFlood2176"
         result="result2"
         flood-color="rgb(0,0,0)" />
      <feComposite
         id="feComposite2178"
         result="result10"
         operator="in"
         in2="result9" />
      <feComposite
         id="feComposite2180"
         operator="atop"
         in2="result4" />
      <feGaussianBlur
         id="feGaussianBlur2182"
         stdDeviation="3"
         result="result8" />
      <feOffset
         id="feOffset2184"
         result="result3"
         in="result8"
         dy="3"
         dx="3" />
      <feFlood
         id="feFlood2186"
         result="result5"
         flood-color="rgb(219,173,62)" />
      <feMerge
         id="feMerge2194"
         result="result6">
        <feMergeNode
           id="feMergeNode2188"
           in="result5" />
        <feMergeNode
           id="feMergeNode2190"
           in="result3" />
        <feMergeNode
           id="feMergeNode2192"
           in="result4" />
      </feMerge>
      <feComposite
         id="feComposite2196"
         result="result7"
         operator="in"
         in2="SourceGraphic" />
    </filter>
    <filter
       inkscape:menu-tooltip="Cut out, add inner shadow and colorize some parts of an image"
       inkscape:menu="Shadows and Glows"
       inkscape:label="Emergence"
       color-interpolation-filters="sRGB"
       id="filter47501-6">
      <feColorMatrix
         id="feColorMatrix2200"
         values="0 0 0 0 0 0 0 0 0 0 0 0 0 0 0 0.21 0.72 0.07 0 0 "
         result="result1" />
      <feColorMatrix
         id="feColorMatrix2202"
         values="1 0 0 0 0 0 1 0 0 0 0 0 1 0 0 0 0 0 2 0 "
         result="result9" />
      <feComposite
         id="feComposite2204"
         result="result4"
         operator="in"
         in2="result9"
         in="SourceGraphic" />
      <feFlood
         id="feFlood2206"
         result="result2"
         flood-color="rgb(0,0,0)" />
      <feComposite
         id="feComposite2208"
         result="result10"
         operator="in"
         in2="result9" />
      <feComposite
         id="feComposite2210"
         operator="atop"
         in2="result4" />
      <feGaussianBlur
         id="feGaussianBlur2212"
         stdDeviation="3"
         result="result8" />
      <feOffset
         id="feOffset2214"
         result="result3"
         in="result8"
         dy="3"
         dx="3" />
      <feFlood
         id="feFlood2216"
         result="result5"
         flood-color="rgb(219,173,62)" />
      <feMerge
         id="feMerge2224"
         result="result6">
        <feMergeNode
           id="feMergeNode2218"
           in="result5" />
        <feMergeNode
           id="feMergeNode2220"
           in="result3" />
        <feMergeNode
           id="feMergeNode2222"
           in="result4" />
      </feMerge>
      <feComposite
         id="feComposite2226"
         result="result7"
         operator="in"
         in2="SourceGraphic" />
    </filter>
    <filter
       inkscape:menu-tooltip="Cut out, add inner shadow and colorize some parts of an image"
       inkscape:menu="Shadows and Glows"
       inkscape:label="Emergence"
       color-interpolation-filters="sRGB"
       id="filter47630">
      <feColorMatrix
         id="feColorMatrix2235"
         values="0 0 0 0 0 0 0 0 0 0 0 0 0 0 0 0.21 0.72 0.07 0 0 "
         result="result1" />
      <feColorMatrix
         id="feColorMatrix2237"
         values="1 0 0 0 0 0 1 0 0 0 0 0 1 0 0 0 0 0 2 0 "
         result="result9" />
      <feComposite
         id="feComposite2239"
         result="result4"
         operator="in"
         in2="result9"
         in="SourceGraphic" />
      <feFlood
         id="feFlood2241"
         result="result2"
         flood-color="rgb(0,0,0)" />
      <feComposite
         id="feComposite2243"
         result="result10"
         operator="in"
         in2="result9" />
      <feComposite
         id="feComposite2245"
         operator="atop"
         in2="result4" />
      <feGaussianBlur
         id="feGaussianBlur2247"
         stdDeviation="3"
         result="result8" />
      <feOffset
         id="feOffset2249"
         result="result3"
         in="result8"
         dy="3"
         dx="3" />
      <feFlood
         id="feFlood2251"
         result="result5"
         flood-color="rgb(219,173,62)" />
      <feMerge
         id="feMerge2259"
         result="result6">
        <feMergeNode
           id="feMergeNode2253"
           in="result5" />
        <feMergeNode
           id="feMergeNode2255"
           in="result3" />
        <feMergeNode
           id="feMergeNode2257"
           in="result4" />
      </feMerge>
      <feComposite
         id="feComposite2261"
         result="result7"
         operator="in"
         in2="SourceGraphic" />
    </filter>
    <filter
       inkscape:menu-tooltip="Cut out, add inner shadow and colorize some parts of an image"
       inkscape:menu="Shadows and Glows"
       inkscape:label="Emergence"
       color-interpolation-filters="sRGB"
       id="filter47794">
      <feColorMatrix
         id="feColorMatrix2269"
         values="0 0 0 0 0 0 0 0 0 0 0 0 0 0 0 0.21 0.72 0.07 0 0 "
         result="result1" />
      <feColorMatrix
         id="feColorMatrix2271"
         values="1 0 0 0 0 0 1 0 0 0 0 0 1 0 0 0 0 0 2 0 "
         result="result9" />
      <feComposite
         id="feComposite2273"
         result="result4"
         operator="in"
         in2="result9"
         in="SourceGraphic" />
      <feFlood
         id="feFlood2275"
         result="result2"
         flood-color="rgb(0,0,0)" />
      <feComposite
         id="feComposite2277"
         result="result10"
         operator="in"
         in2="result9" />
      <feComposite
         id="feComposite2279"
         operator="atop"
         in2="result4" />
      <feGaussianBlur
         id="feGaussianBlur2281"
         stdDeviation="3"
         result="result8" />
      <feOffset
         id="feOffset2283"
         result="result3"
         in="result8"
         dy="3"
         dx="3" />
      <feFlood
         id="feFlood2285"
         result="result5"
         flood-color="rgb(219,173,62)" />
      <feMerge
         id="feMerge2293"
         result="result6">
        <feMergeNode
           id="feMergeNode2287"
           in="result5" />
        <feMergeNode
           id="feMergeNode2289"
           in="result3" />
        <feMergeNode
           id="feMergeNode2291"
           in="result4" />
      </feMerge>
      <feComposite
         id="feComposite2295"
         result="result7"
         operator="in"
         in2="SourceGraphic" />
    </filter>
    <filter
       inkscape:label="Matte Bevel"
       inkscape:menu="Bevels"
       inkscape:menu-tooltip="Soft, pastel-colored, blurry bevel"
       x="-0.25"
       y="-0.25"
       width="1.5"
       height="1.5"
       style="color-interpolation-filters:sRGB;"
       id="filter11537">
      <feGaussianBlur
         stdDeviation="1"
         result="result6"
         id="feGaussianBlur11513" />
      <feComposite
         operator="in"
         in="result6"
         in2="result6"
         result="result7"
         id="feComposite11515" />
      <feGaussianBlur
         stdDeviation="8"
         result="result3"
         in="result7"
         id="feGaussianBlur11517" />
      <feComposite
         in2="result7"
         operator="over"
         result="result91"
         id="feComposite11519" />
      <feComposite
         operator="in"
         in="result3"
         result="result5"
         in2="result91"
         id="feComposite11521" />
      <feColorMatrix
         values="0 0 0 -1 0 0 0 0 -1 0 0 0 0 -1 0 0 0 0 1 0 "
         result="result4"
         id="feColorMatrix11523" />
      <feSpecularLighting
         surfaceScale="3"
         specularConstant="2"
         specularExponent="45"
         in="result4"
         result="result11"
         id="feSpecularLighting11527">
        <fePointLight
           x="-5000"
           y="-10000"
           z="20000"
           id="fePointLight11525" />
      </feSpecularLighting>
      <feComposite
         operator="arithmetic"
         k1="1"
         in2="result4"
         result="result10"
         id="feComposite11529" />
      <feComposite
         operator="arithmetic"
         k2="0.5"
         k3="1"
         in="result5"
         result="result8"
         in2="result10"
         id="feComposite11531" />
      <feComposite
         result="result9"
         in2="result8"
         id="feComposite11533" />
      <feBlend
         mode="normal"
         in2="result9"
         id="feBlend11535" />
    </filter>
    <linearGradient
       inkscape:collect="always"
       xlink:href="#linearGradient11621"
       id="linearGradient11625"
       x1="7407.5269"
       y1="938.13074"
       x2="3874.137"
       y2="11693.381"
       gradientUnits="userSpaceOnUse" />
    <linearGradient
       inkscape:collect="always"
       xlink:href="#linearGradient11621"
       id="linearGradient11814"
       x1="2160"
       y1="2063"
       x2="7279.4429"
       y2="11946.643"
       gradientUnits="userSpaceOnUse" />
    <radialGradient
       inkscape:collect="always"
       xlink:href="#linearGradient11555"
       id="radialGradient11819"
       gradientUnits="userSpaceOnUse"
       gradientTransform="matrix(0.0096047,1.6860181,-1.5115593,0.00767482,8976.3104,-7995.7217)"
       cx="5235.9053"
       cy="2507.804"
       fx="5235.9053"
       fy="2507.804"
       r="6360.9306" />
    <radialGradient
       inkscape:collect="always"
       xlink:href="#linearGradient11555"
       id="radialGradient11821"
       gradientUnits="userSpaceOnUse"
       gradientTransform="matrix(0.0096047,1.6860181,-1.5115593,0.00767482,8976.3104,-7995.7217)"
       cx="5235.9053"
       cy="2507.804"
       fx="5235.9053"
       fy="2507.804"
       r="6360.9306" />
    <radialGradient
       inkscape:collect="always"
       xlink:href="#linearGradient11555"
       id="radialGradient11823"
       gradientUnits="userSpaceOnUse"
       gradientTransform="matrix(0.0096047,1.6860181,-1.5115593,0.00767482,8976.3104,-7995.7217)"
       cx="5235.9053"
       cy="2507.804"
       fx="5235.9053"
       fy="2507.804"
       r="6360.9306" />
    <radialGradient
       inkscape:collect="always"
       xlink:href="#linearGradient11555"
       id="radialGradient11825"
       gradientUnits="userSpaceOnUse"
       gradientTransform="matrix(0.0096047,1.6860181,-1.5115593,0.00767482,8976.3104,-7995.7217)"
       cx="5235.9053"
       cy="2507.804"
       fx="5235.9053"
       fy="2507.804"
       r="6360.9306" />
    <radialGradient
       inkscape:collect="always"
       xlink:href="#linearGradient11555"
       id="radialGradient11827"
       gradientUnits="userSpaceOnUse"
       gradientTransform="matrix(0.0096047,1.6860181,-1.5115593,0.00767482,8976.3104,-7995.7217)"
       cx="5235.9053"
       cy="2507.804"
       fx="5235.9053"
       fy="2507.804"
       r="6360.9306" />
    <radialGradient
       inkscape:collect="always"
       xlink:href="#linearGradient11555"
       id="radialGradient11831"
       gradientUnits="userSpaceOnUse"
       gradientTransform="matrix(0.0096047,1.6860181,-1.5115593,0.00767482,8976.3104,-7995.7217)"
       cx="5235.9053"
       cy="2507.804"
       fx="5235.9053"
       fy="2507.804"
       r="6360.9306" />
    <radialGradient
       inkscape:collect="always"
       xlink:href="#linearGradient11555"
       id="radialGradient11833"
       gradientUnits="userSpaceOnUse"
       gradientTransform="matrix(0.0096047,1.6860181,-1.5115593,0.00767482,8976.3104,-7995.7217)"
       cx="5235.9053"
       cy="2507.804"
       fx="5235.9053"
       fy="2507.804"
       r="6360.9306" />
    <linearGradient
       inkscape:collect="always"
       xlink:href="#linearGradient11621"
       id="linearGradient11905"
       gradientUnits="userSpaceOnUse"
       x1="2160"
       y1="2063"
       x2="7279.4429"
       y2="11946.643" />
    <linearGradient
       inkscape:collect="always"
       xlink:href="#linearGradient11621"
       id="linearGradient11907"
       gradientUnits="userSpaceOnUse"
       x1="2160"
       y1="2063"
       x2="7279.4429"
       y2="11946.643" />
    <linearGradient
       inkscape:collect="always"
       xlink:href="#linearGradient11621"
       id="linearGradient11909"
       gradientUnits="userSpaceOnUse"
       x1="2160"
       y1="2063"
       x2="7279.4429"
       y2="11946.643" />
    <linearGradient
       inkscape:collect="always"
       xlink:href="#linearGradient11621"
       id="linearGradient11911"
       gradientUnits="userSpaceOnUse"
       x1="2160"
       y1="2063"
       x2="7279.4429"
       y2="11946.643" />
    <linearGradient
       inkscape:collect="always"
       xlink:href="#linearGradient11621"
       id="linearGradient11913"
       gradientUnits="userSpaceOnUse"
       x1="2160"
       y1="2063"
       x2="7279.4429"
       y2="11946.643" />
    <linearGradient
       inkscape:collect="always"
       xlink:href="#linearGradient11621"
       id="linearGradient11915"
       gradientUnits="userSpaceOnUse"
       x1="2160"
       y1="2063"
       x2="7279.4429"
       y2="11946.643" />
    <linearGradient
       inkscape:collect="always"
       xlink:href="#linearGradient11621"
       id="linearGradient11917"
       gradientUnits="userSpaceOnUse"
       x1="2160"
       y1="2063"
       x2="7279.4429"
       y2="11946.643" />
    <linearGradient
       inkscape:collect="always"
       xlink:href="#linearGradient11621"
       id="linearGradient11919"
       gradientUnits="userSpaceOnUse"
       x1="2160"
       y1="2063"
       x2="7279.4429"
       y2="11946.643" />
    <linearGradient
       inkscape:collect="always"
       xlink:href="#linearGradient11621"
       id="linearGradient11921"
       gradientUnits="userSpaceOnUse"
       x1="2160"
       y1="2063"
       x2="7279.4429"
       y2="11946.643" />
    <linearGradient
       inkscape:collect="always"
       xlink:href="#linearGradient11621"
       id="linearGradient11923"
       gradientUnits="userSpaceOnUse"
       x1="2160"
       y1="2063"
       x2="7279.4429"
       y2="11946.643" />
    <linearGradient
       inkscape:collect="always"
       xlink:href="#linearGradient11621"
       id="linearGradient11925"
       gradientUnits="userSpaceOnUse"
       x1="2160"
       y1="2063"
       x2="7279.4429"
       y2="11946.643" />
    <linearGradient
       inkscape:collect="always"
       xlink:href="#linearGradient11621"
       id="linearGradient11927"
       gradientUnits="userSpaceOnUse"
       x1="2160"
       y1="2063"
       x2="7279.4429"
       y2="11946.643" />
    <linearGradient
       inkscape:collect="always"
       xlink:href="#linearGradient11621"
       id="linearGradient11929"
       gradientUnits="userSpaceOnUse"
       x1="2160"
       y1="2063"
       x2="7279.4429"
       y2="11946.643" />
    <linearGradient
       inkscape:collect="always"
       xlink:href="#linearGradient11621"
       id="linearGradient11931"
       gradientUnits="userSpaceOnUse"
       x1="2160"
       y1="2063"
       x2="7279.4429"
       y2="11946.643" />
    <linearGradient
       inkscape:collect="always"
       xlink:href="#linearGradient11621"
       id="linearGradient11933"
       gradientUnits="userSpaceOnUse"
       x1="2160"
       y1="2063"
       x2="7279.4429"
       y2="11946.643" />
    <linearGradient
       inkscape:collect="always"
       xlink:href="#linearGradient11621"
       id="linearGradient11935"
       gradientUnits="userSpaceOnUse"
       x1="2160"
       y1="2063"
       x2="7279.4429"
       y2="11946.643" />
    <linearGradient
       inkscape:collect="always"
       xlink:href="#linearGradient11621"
       id="linearGradient11937"
       gradientUnits="userSpaceOnUse"
       x1="2160"
       y1="2063"
       x2="7279.4429"
       y2="11946.643" />
    <linearGradient
       inkscape:collect="always"
       xlink:href="#linearGradient11621"
       id="linearGradient11939"
       gradientUnits="userSpaceOnUse"
       x1="2160"
       y1="2063"
       x2="7279.4429"
       y2="11946.643" />
    <linearGradient
       inkscape:collect="always"
       xlink:href="#linearGradient11621"
       id="linearGradient11941"
       gradientUnits="userSpaceOnUse"
       x1="2160"
       y1="2063"
       x2="7279.4429"
       y2="11946.643" />
    <linearGradient
       inkscape:collect="always"
       xlink:href="#linearGradient11621"
       id="linearGradient11943"
       gradientUnits="userSpaceOnUse"
       x1="2160"
       y1="2063"
       x2="7279.4429"
       y2="11946.643" />
    <linearGradient
       inkscape:collect="always"
       xlink:href="#linearGradient11621"
       id="linearGradient11945"
       gradientUnits="userSpaceOnUse"
       x1="2160"
       y1="2063"
       x2="7279.4429"
       y2="11946.643" />
    <linearGradient
       inkscape:collect="always"
       xlink:href="#linearGradient11621"
       id="linearGradient11947"
       gradientUnits="userSpaceOnUse"
       x1="7407.5269"
       y1="938.13074"
       x2="3874.137"
       y2="11693.381" />
    <filter
       inkscape:label="Matte Bevel"
       inkscape:menu="Bevels"
       inkscape:menu-tooltip="Soft, pastel-colored, blurry bevel"
       x="-0.25"
       y="-0.25"
       width="1.5"
       height="1.5"
       style="color-interpolation-filters:sRGB;"
       id="filter12004">
      <feGaussianBlur
         stdDeviation="1"
         result="result6"
         id="feGaussianBlur11980" />
      <feComposite
         operator="in"
         in="result6"
         in2="result6"
         result="result7"
         id="feComposite11982" />
      <feGaussianBlur
         stdDeviation="8"
         result="result3"
         in="result7"
         id="feGaussianBlur11984" />
      <feComposite
         in2="result7"
         operator="over"
         result="result91"
         id="feComposite11986" />
      <feComposite
         operator="in"
         in="result3"
         result="result5"
         in2="result91"
         id="feComposite11988" />
      <feColorMatrix
         values="0 0 0 -1 0 0 0 0 -1 0 0 0 0 -1 0 0 0 0 1 0 "
         result="result4"
         id="feColorMatrix11990" />
      <feSpecularLighting
         surfaceScale="3"
         specularConstant="2"
         specularExponent="45"
         in="result4"
         result="result11"
         id="feSpecularLighting11994">
        <fePointLight
           x="-5000"
           y="-10000"
           z="20000"
           id="fePointLight11992" />
      </feSpecularLighting>
      <feComposite
         operator="arithmetic"
         k1="1"
         in2="result4"
         result="result10"
         id="feComposite11996" />
      <feComposite
         operator="arithmetic"
         k2="0.5"
         k3="1"
         in="result5"
         result="result8"
         in2="result10"
         id="feComposite11998" />
      <feComposite
         result="result9"
         in2="result8"
         id="feComposite12000" />
      <feBlend
         mode="normal"
         in2="result9"
         id="feBlend12002" />
    </filter>
    <filter
       inkscape:label="Matte Bevel"
       inkscape:menu="Bevels"
       inkscape:menu-tooltip="Soft, pastel-colored, blurry bevel"
       x="-0.25"
       y="-0.25"
       width="1.5"
       height="1.5"
       style="color-interpolation-filters:sRGB;"
       id="filter12030">
      <feGaussianBlur
         stdDeviation="1"
         result="result6"
         id="feGaussianBlur12006" />
      <feComposite
         operator="in"
         in="result6"
         in2="result6"
         result="result7"
         id="feComposite12008" />
      <feGaussianBlur
         stdDeviation="8"
         result="result3"
         in="result7"
         id="feGaussianBlur12010" />
      <feComposite
         in2="result7"
         operator="over"
         result="result91"
         id="feComposite12012" />
      <feComposite
         operator="in"
         in="result3"
         result="result5"
         in2="result91"
         id="feComposite12014" />
      <feColorMatrix
         values="0 0 0 -1 0 0 0 0 -1 0 0 0 0 -1 0 0 0 0 1 0 "
         result="result4"
         id="feColorMatrix12016" />
      <feSpecularLighting
         surfaceScale="3"
         specularConstant="2"
         specularExponent="45"
         in="result4"
         result="result11"
         id="feSpecularLighting12020">
        <fePointLight
           x="-5000"
           y="-10000"
           z="20000"
           id="fePointLight12018" />
      </feSpecularLighting>
      <feComposite
         operator="arithmetic"
         k1="1"
         in2="result4"
         result="result10"
         id="feComposite12022" />
      <feComposite
         operator="arithmetic"
         k2="0.5"
         k3="1"
         in="result5"
         result="result8"
         in2="result10"
         id="feComposite12024" />
      <feComposite
         result="result9"
         in2="result8"
         id="feComposite12026" />
      <feBlend
         mode="normal"
         in2="result9"
         id="feBlend12028" />
    </filter>
  </defs>
  <sodipodi:namedview
     id="base"
     width="1048mm"
     bordercolor="#666666"
     borderopacity="1.0"
     inkscape:current-layer="g993"
     inkscape:cx="334.49403"
     inkscape:cy="175.23301"
     inkscape:document-units="mm"
     inkscape:pagecheckerboard="true"
     inkscape:pageopacity="0.0"
     inkscape:pageshadow="2"
     inkscape:window-height="837"
     inkscape:window-maximized="1"
     inkscape:window-width="1440"
     inkscape:window-x="-8"
     inkscape:window-y="-8"
     inkscape:zoom="1.484606"
     pagecolor="#ffffff"
     showgrid="false"
     units="px" />
  <g
     transform="translate(0,-170)"
     opacity=".174"
     stroke="#fff"
     inkscape:groupmode="layer"
     inkscape:label="Layer 1"
     id="g993"
     style="opacity:1">
    <g
       id="g11772"
       transform="matrix(-0.00786041,0,0,-0.00651389,96.260208,298.05434)"
       style="fill:url(#linearGradient11814);fill-opacity:1;stroke:none;filter:url(#filter12030)">
      <path
         id="path11730"
         d="m 8149,12471 c -24,-15 -58,-44 -75,-62 -17,-19 -208,-299 -425,-622 l -394,-588 -45,6 c -64,9 -121,-6 -332,-90 -243,-97 -231,-94 -246,-51 -14,38 -41,53 -69,37 -12,-6 -34,-6 -63,1 -25,5 -63,12 -85,15 -22,3 -50,14 -62,25 -16,15 -30,19 -52,15 -18,-4 -45,0 -66,9 -43,18 -78,9 -160,-36 -27,-16 -68,-31 -90,-35 -22,-3 -69,-13 -105,-21 -59,-14 -82,-13 -214,0 -82,9 -189,16 -238,16 -88,0 -89,0 -124,-35 -19,-19 -39,-35 -44,-35 -5,0 -51,-21 -102,-46 -51,-25 -112,-52 -136,-59 -75,-23 -180,-92 -219,-145 l -36,-49 -26,19 c -58,41 -153,164 -144,186 3,9 -7,29 -24,47 -44,49 -113,135 -113,142 0,3 5,3 12,-1 7,-4 8,-3 4,5 -4,6 -11,9 -16,6 -5,-3 -21,12 -37,32 -41,56 -173,204 -173,195 0,-4 5,-13 11,-19 6,-6 11,-18 13,-27 1,-9 21,-35 45,-57 23,-23 40,-44 36,-47 -8,-8 -96,80 -92,93 2,5 -22,33 -52,60 -61,55 -137,145 -133,158 1,5 -2,6 -8,2 -5,-3 -10,-2 -10,4 0,5 -9,12 -20,16 -11,3 -37,24 -58,46 -30,32 -47,41 -82,45 -57,6 -116,22 -157,42 -29,14 -33,14 -58,-2 -18,-12 -37,-16 -56,-12 -16,3 -52,-3 -85,-14 -31,-11 -67,-20 -80,-20 -13,0 -36,-12 -51,-26 -15,-14 -21,-22 -13,-18 12,5 13,4 3,-6 -10,-11 -15,-11 -28,0 -13,11 -19,9 -40,-10 -14,-13 -25,-29 -25,-37 0,-7 -8,-14 -17,-14 -10,-1 -22,-2 -28,-4 -5,-1 -15,-3 -22,-3 -7,-1 -27,-15 -45,-31 -18,-16 -52,-46 -75,-66 -24,-21 -43,-42 -43,-49 0,-6 7,-2 15,8 8,11 15,15 15,9 0,-14 -25,-35 -33,-27 -8,9 -59,-74 -77,-126 -8,-25 -18,-49 -22,-55 -8,-14 -13,-114 -13,-280 0,-137 1,-142 31,-205 43,-88 49,-110 33,-122 -11,-7 -11,-11 -1,-15 6,-2 12,-11 12,-19 0,-8 6,-23 12,-34 10,-16 10,-24 0,-40 -7,-11 -9,-20 -4,-20 10,0 29,-71 38,-140 7,-59 36,-155 62,-207 16,-33 16,-33 -20,-70 -46,-48 -58,-73 -58,-117 0,-28 7,-40 33,-60 19,-15 38,-26 44,-26 5,0 18,-7 29,-15 16,-13 16,-14 2,-9 -14,5 -18,1 -18,-20 0,-23 -9,-31 -32,-27 -16,2 -136,-210 -144,-255 -2,-12 -13,-44 -24,-69 -11,-26 -20,-50 -20,-55 0,-5 -5,-21 -11,-37 -12,-28 -14,-39 -17,-81 -1,-13 -6,-20 -12,-17 -7,4 -8,-3 -4,-21 5,-19 4,-25 -5,-20 -6,4 -11,2 -11,-3 0,-6 3,-11 8,-11 4,0 8,-25 9,-56 2,-39 13,-78 34,-122 20,-43 29,-77 27,-97 -3,-23 0,-32 11,-31 9,1 20,-19 30,-54 9,-30 24,-70 34,-89 19,-39 64,-211 67,-256 0,-16 1,-58 2,-92 0,-34 5,-60 9,-57 5,3 9,4 9,2 0,-2 7,-21 15,-43 14,-39 14,-39 15,-10 l 1,30 14,-32 c 7,-18 17,-54 21,-80 3,-26 11,-55 16,-63 17,-27 -2,96 -24,152 -30,80 -33,99 -15,92 17,-6 27,-33 48,-124 12,-54 27,-92 63,-158 23,-44 31,-36 11,11 -8,21 -13,37 -11,37 3,0 -1,19 -9,41 -19,51 -19,54 0,39 12,-10 13,-6 9,27 -4,32 -3,35 6,20 7,-11 10,-30 7,-43 -2,-14 2,-43 9,-65 15,-41 17,-71 17,-218 0,-47 3,-76 7,-65 7,19 7,19 13,-1 3,-11 9,-42 13,-70 10,-77 24,-89 17,-15 -3,36 -9,70 -14,75 -10,13 1,125 11,125 9,0 21,-25 26,-55 2,-11 10,-48 17,-81 9,-39 11,-68 5,-78 -6,-10 -5,-23 1,-33 9,-16 11,-15 11,7 1,16 4,19 7,10 3,-8 9,-17 13,-20 4,-3 26,-50 49,-105 27,-68 38,-108 34,-124 -4,-16 -2,-22 4,-18 6,4 14,-1 18,-11 7,-16 8,-15 16,3 8,17 9,17 5,-5 -3,-14 -1,-32 4,-40 15,-24 42,18 28,43 -7,13 -6,23 1,30 6,6 11,35 11,63 0,54 19,88 21,37 l 1,-28 10,28 c 8,22 7,32 -6,46 -27,30 -18,31 13,2 30,-28 33,-57 8,-88 -6,-9 -6,-13 1,-13 6,0 12,6 15,13 3,9 8,9 16,1 9,-8 8,-20 -5,-48 -10,-20 -21,-36 -26,-36 -4,0 -8,-5 -8,-11 0,-8 4,-8 14,0 14,12 30,-6 51,-54 8,-19 9,-19 12,2 5,28 25,44 41,34 9,-6 10,-15 3,-34 -6,-15 -12,-52 -14,-83 -4,-54 -3,-56 24,-66 23,-8 29,-16 29,-38 0,-16 4,-31 9,-34 5,-3 3,-33 -5,-68 -7,-35 -13,-77 -14,-94 0,-25 -9,-37 -46,-64 -45,-32 -46,-33 -39,-77 5,-36 1,-57 -25,-119 -19,-47 -30,-88 -29,-112 2,-21 -1,-44 -6,-51 -20,-33 -85,-239 -85,-270 0,-23 -16,-61 -47,-115 -47,-80 -48,-82 -53,-186 -5,-99 -8,-112 -59,-230 -29,-69 -60,-141 -68,-160 -8,-19 -21,-48 -28,-65 -7,-16 -21,-48 -30,-70 -9,-22 -20,-49 -25,-60 -5,-11 -34,-81 -65,-155 -31,-74 -67,-159 -81,-188 -13,-29 -24,-55 -24,-57 0,-10 -122,-271 -204,-435 -69,-137 -88,-172 -97,-180 -19,-15 -89,-148 -89,-170 0,-21 55,-73 105,-98 49,-24 65,-42 99,-109 14,-29 53,-81 86,-116 33,-36 60,-68 60,-73 0,-5 -21,-73 -46,-152 -42,-131 -50,-146 -79,-163 -18,-11 -43,-39 -55,-62 -33,-61 -180,-182 -180,-148 0,27 -57,10 -99,-29 -23,-22 -48,-43 -54,-48 -29,-18 -76,-79 -80,-102 -3,-14 -13,-42 -23,-62 -14,-31 -15,-42 -5,-64 10,-22 9,-30 -5,-45 -9,-10 -18,-29 -19,-41 -2,-13 -17,-52 -33,-88 -52,-113 -92,-256 -128,-459 -39,-217 -62,-328 -75,-351 -7,-13 -8,-12 -9,3 0,19 -13,22 -40,7 -24,-13 -70,-154 -70,-213 0,-23 6,-65 14,-93 l 14,-52 -70,-133 c -88,-169 -96,-191 -113,-320 -8,-58 -19,-118 -25,-133 -23,-62 34,-242 100,-311 15,-16 34,-50 40,-75 19,-72 117,-252 179,-328 31,-38 68,-85 81,-104 20,-31 32,-37 87,-47 106,-19 308,-25 458,-12 133,12 142,14 193,47 28,19 52,41 52,48 0,8 11,23 25,33 14,10 27,32 31,49 7,36 -17,67 -175,238 -73,79 -100,114 -96,127 4,12 -10,35 -45,73 -27,31 -50,62 -50,70 0,7 -18,34 -40,59 -22,25 -40,48 -40,53 0,4 -11,22 -25,40 -14,18 -25,43 -25,56 0,13 -7,34 -16,47 -15,21 -15,27 -1,74 9,29 19,72 22,97 3,25 27,95 52,156 l 46,112 42,-16 c 41,-15 44,-14 79,7 59,37 130,156 177,296 28,88 46,115 72,115 23,0 89,68 106,109 7,15 27,35 46,45 50,27 78,63 109,138 25,60 36,74 103,125 84,64 93,77 93,129 0,24 12,56 34,93 35,57 60,114 70,164 4,16 30,50 61,79 59,55 68,83 35,113 -19,17 -19,18 12,63 l 31,45 18,-24 c 10,-13 33,-50 51,-82 18,-32 38,-65 44,-74 9,-13 40,43 165,293 365,730 452,920 599,1316 41,109 77,198 80,198 3,0 25,-39 49,-87 72,-146 229,-439 295,-551 l 63,-106 -23,-75 c -144,-468 -348,-1098 -363,-1119 -16,-23 -27,-63 -36,-122 -1,-8 -12,-48 -24,-89 -24,-86 -67,-304 -86,-436 -21,-145 9,-167 75,-55 53,89 190,383 190,408 0,11 7,25 15,32 8,7 15,17 15,22 0,5 9,28 20,50 11,23 20,56 20,73 0,27 317,974 340,1014 5,9 31,-45 76,-162 46,-119 73,-175 82,-172 6,3 18,8 26,11 11,4 16,-10 21,-63 8,-86 17,-108 53,-127 38,-19 56,-64 46,-108 -5,-18 -9,-76 -10,-128 -1,-52 -5,-141 -9,-198 -5,-63 -4,-107 3,-115 5,-6 12,-70 16,-142 8,-157 35,-293 81,-420 19,-52 51,-139 71,-192 67,-184 152,-468 143,-477 -24,-26 18,-195 51,-203 39,-10 62,-235 36,-346 -21,-87 -21,-143 -1,-151 12,-4 14,-16 9,-60 -5,-42 -3,-61 9,-79 14,-22 14,-27 -6,-68 -18,-38 -21,-63 -22,-184 0,-132 1,-142 24,-174 15,-21 48,-45 90,-65 59,-28 76,-31 161,-32 86,0 100,-3 144,-29 56,-33 56,-33 471,-22 121,4 227,6 236,7 9,0 24,12 34,26 16,25 16,30 1,78 -17,50 -16,51 4,65 42,28 19,64 -88,135 -25,16 -54,45 -64,63 -11,18 -42,46 -69,63 -27,16 -49,34 -49,40 0,5 -19,22 -42,37 -46,30 -97,82 -98,98 0,6 -18,37 -40,69 -23,34 -37,63 -32,68 5,5 -1,48 -15,100 -21,83 -37,219 -46,391 -3,60 -1,67 16,67 10,0 31,7 47,15 33,17 46,62 36,119 -8,40 -30,61 -73,71 l -32,6 5,72 c 4,49 15,93 34,137 16,36 36,92 44,125 17,72 28,362 17,460 -6,51 -4,79 6,103 19,46 19,206 -1,261 -9,24 -16,60 -16,80 0,20 -10,54 -22,76 -11,22 -31,85 -44,140 -12,55 -27,118 -33,140 -6,22 -11,63 -11,90 0,59 -23,163 -45,205 -9,17 -22,69 -30,117 -9,49 -24,120 -35,158 -25,90 -60,238 -60,257 0,8 12,25 26,39 14,13 42,53 62,88 35,63 84,119 149,168 33,26 56,78 55,125 0,22 9,34 43,59 72,52 69,67 -44,229 -36,53 -72,107 -80,120 -44,76 -235,471 -261,540 -7,19 -32,80 -55,135 -23,55 -45,112 -49,128 -6,26 -5,27 38,27 35,0 150,37 175,57 3,2 -7,16 -21,31 -14,15 -31,38 -38,51 -12,23 -40,56 -132,153 -26,27 -46,55 -45,61 3,14 -42,37 -75,37 -16,0 -28,5 -28,10 0,6 18,10 40,10 22,0 40,3 40,6 0,3 -13,23 -28,43 -16,20 -32,44 -35,55 -10,27 36,147 72,185 17,18 34,44 37,56 5,22 9,21 93,-34 48,-31 106,-69 129,-85 64,-44 116,-18 114,55 -1,26 2,27 33,22 27,-4 39,0 60,22 23,22 26,33 22,61 -5,32 -4,34 23,34 18,0 34,8 44,22 19,27 21,79 4,96 -9,9 -8,12 5,12 32,0 75,29 84,57 18,57 10,71 -97,156 -67,53 -87,64 -153,84 -60,18 -149,60 -159,77 -4,6 -8,20 -8,30 0,11 -10,30 -22,44 -19,19 -23,35 -23,82 1,33 8,72 17,91 37,77 68,150 68,164 0,7 5,17 11,20 6,4 8,13 5,21 -3,7 -1,16 3,19 7,4 19,39 36,105 0,3 7,30 15,60 8,30 13,58 12,62 -11,41 56,197 84,198 18,0 73,67 81,98 5,15 8,56 8,92 0,75 -24,132 -68,164 -35,26 -104,27 -142,2 -49,-32 -82,-143 -65,-221 4,-17 3,-41 -1,-53 -5,-12 -4,-24 1,-27 6,-4 7,-13 1,-23 -4,-9 -12,-35 -15,-57 -4,-22 -16,-55 -27,-73 -23,-39 -89,-213 -89,-234 0,-8 -4,-18 -10,-24 -5,-5 -16,-36 -24,-69 -32,-128 -39,-151 -58,-192 -17,-38 -24,-43 -52,-43 -52,0 -180,63 -196,97 -7,15 -13,32 -11,37 4,17 -21,77 -43,104 -13,15 -26,43 -30,63 -9,53 -46,102 -85,115 -27,9 -37,20 -52,59 -10,26 -16,52 -13,56 8,14 -15,47 -38,55 -12,4 -34,19 -49,33 -26,27 -26,27 -8,50 25,31 24,57 -6,113 -26,49 -33,84 -14,73 6,-4 8,-13 6,-19 -6,-16 9,-43 19,-33 4,3 9,26 11,49 2,24 11,49 20,56 10,7 12,12 5,12 -7,0 -12,12 -12,26 0,22 2,25 15,14 9,-8 15,-9 15,-2 0,6 -5,14 -10,17 -6,4 -8,15 -5,25 3,10 1,21 -5,25 -6,4 -8,22 -4,44 4,28 0,52 -15,86 -22,50 -28,105 -11,105 6,0 10,8 10,18 1,15 2,15 15,-2 8,-11 15,-15 15,-9 0,7 -4,15 -10,18 -16,10 -11,47 15,100 14,28 25,56 25,63 0,25 24,6 47,-38 13,-24 23,-38 23,-31 0,16 -47,108 -60,116 -5,3 -10,12 -10,18 0,7 4,6 11,-3 9,-12 9,-11 3,5 -5,11 -6,52 -4,90 9,136 5,178 -18,225 -23,44 -60,100 -88,131 -8,8 -14,23 -14,33 0,9 -4,15 -9,12 -10,-7 -21,17 -21,42 1,15 2,15 13,2 7,-8 19,-16 27,-18 12,-3 13,-1 3,9 -7,7 -13,25 -13,39 0,15 -3,30 -6,33 -11,10 -14,77 -4,77 14,0 -11,61 -27,67 -8,3 -19,15 -23,27 -9,21 -9,21 -9,-2 -1,-13 6,-36 14,-52 19,-36 30,-140 15,-140 -6,0 -8,-4 -5,-10 3,-5 2,-10 -3,-10 -6,0 -13,11 -16,25 -4,14 -12,25 -19,25 -17,1 -52,32 -67,60 -17,32 -23,80 -9,80 6,0 7,5 4,11 -7,10 -16,91 -17,139 0,14 -5,31 -11,39 -6,7 -12,20 -13,28 -3,19 -14,30 -14,15 0,-21 -17,-13 -70,35 -71,64 -98,110 -115,198 -13,70 -29,115 -41,115 -2,0 -1,-8 4,-17 6,-10 12,-38 16,-63 4,-31 3,-39 -3,-25 -5,11 -10,29 -10,40 -1,11 -8,32 -15,47 -14,26 -13,29 5,39 12,6 22,9 25,7 14,-15 106,-179 115,-207 7,-21 14,-29 19,-21 5,8 11,0 19,-21 6,-18 14,-30 17,-27 7,8 -59,139 -99,198 l -31,45 39,-32 c 22,-17 65,-68 95,-112 61,-89 98,-118 54,-44 -40,70 -71,111 -128,171 -28,28 -46,52 -41,52 33,0 150,24 205,41 70,22 97,41 111,77 5,12 17,22 28,22 11,0 29,9 39,20 13,14 31,20 58,19 171,-3 180,-2 237,25 51,24 137,98 137,118 0,4 4,8 10,8 5,0 54,24 107,54 78,43 102,52 117,44 15,-8 28,-4 61,20 23,16 58,33 76,37 51,11 107,42 125,70 12,18 25,25 48,25 17,0 65,9 106,20 41,11 93,20 114,20 h 40 l -27,-28 c -32,-33 -36,-81 -9,-105 19,-17 80,-33 164,-44 42,-5 51,-2 85,24 69,54 78,57 120,29 21,-13 57,-30 80,-36 36,-11 46,-10 80,6 34,17 38,24 41,60 2,32 -3,47 -28,78 -34,44 -36,49 -15,66 8,7 15,17 15,22 0,6 11,19 25,30 34,27 85,116 85,150 0,24 6,29 53,43 28,8 95,23 147,34 52,11 124,29 160,40 36,11 82,23 102,26 56,10 67,30 36,62 -22,21 -35,26 -80,25 -30,0 -71,-7 -91,-15 -94,-40 -367,-97 -367,-77 0,3 173,312 385,685 231,408 385,690 385,705 0,27 -16,50 -35,50 -6,0 -31,-13 -56,-29 z m -4204,-871 c 3,-5 -1,-10 -10,-10 -9,0 -13,5 -10,10 3,6 8,10 10,10 2,0 7,-4 10,-10 z M 3193,9757 c 3,-8 1,-20 -4,-28 -6,-10 -9,-7 -9,14 0,29 5,35 13,14 z m -39,-75 c -6,-40 -56,-103 -70,-89 -4,3 6,30 21,59 46,90 60,98 49,30 z m 2126,-12 c 6,-11 8,-20 6,-20 -3,0 -10,9 -16,20 -6,11 -8,20 -6,20 3,0 10,-9 16,-20 z m 45,-20 c 9,-16 13,-30 11,-30 -3,0 -12,14 -21,30 -9,17 -13,30 -11,30 3,0 12,-13 21,-30 z m 70,-11 c 3,-10 5,-21 3,-25 -1,-5 5,-23 14,-39 9,-17 19,-47 23,-68 4,-20 11,-40 16,-43 16,-9 10,-24 -8,-17 -12,5 -14,3 -8,-8 5,-8 5,-11 -1,-6 -5,5 -9,12 -9,15 0,4 -16,39 -34,77 -19,39 -36,90 -39,113 -5,43 -4,44 17,30 12,-7 24,-20 26,-29 z m -31,-146 c 9,-18 14,-33 12,-33 -6,0 -36,55 -36,66 0,11 5,3 24,-33 z m 181,-214 c 11,-17 -1,-21 -15,-4 -8,9 -8,15 -2,15 6,0 14,-5 17,-11 z m -27,-75 c -4,-3 -12,5 -18,18 -12,22 -12,22 6,6 10,-10 15,-20 12,-24 z m 186,-216 c 27,-49 36,-123 14,-116 -6,2 -13,13 -14,23 -3,21 -29,86 -50,127 -8,14 -14,34 -14,45 0,15 3,14 19,-7 11,-13 31,-46 45,-72 z M 3239,8715 c 9,-35 9,-56 0,-88 -9,-35 -13,-39 -19,-22 -10,28 -11,167 -1,161 5,-3 14,-26 20,-51 z m 2359,-60 c -3,-3 -9,2 -12,12 -6,14 -5,15 5,6 7,-7 10,-15 7,-18 z M 3130,8435 c 0,-5 -5,-3 -10,5 -5,8 -10,20 -10,25 0,6 5,3 10,-5 5,-8 10,-19 10,-25 z m 2417,-2 c -3,-10 -5,-4 -5,12 0,17 2,24 5,18 2,-7 2,-21 0,-30 z m -2374,-13 c 3,-11 1,-18 -4,-14 -5,3 -9,12 -9,20 0,20 7,17 13,-6 z m 2427,-33 c 0,-10 -4,-15 -10,-12 -5,3 -10,18 -10,33 0,21 2,24 10,12 5,-8 10,-23 10,-33 z m -2342,-11 c 27,-46 36,-76 22,-76 -6,0 -13,8 -16,18 -3,9 -9,26 -14,37 -25,62 -22,71 8,21 z m 2335,-66 c -7,-8 -23,24 -22,45 0,15 3,13 13,-10 7,-16 11,-32 9,-35 z m 57,-22 c 0,-5 -4,-8 -10,-8 -5,0 -10,10 -10,23 0,18 2,19 10,7 5,-8 10,-18 10,-22 z m 15,22 c 3,-5 1,-10 -4,-10 -6,0 -11,5 -11,10 0,6 2,10 4,10 3,0 8,-4 11,-10 z m 4,-57 c 0,-25 -1,-25 -8,-8 -5,11 -7,23 -4,28 8,14 13,7 12,-20 z m -18,-30 c 13,-16 12,-17 -3,-4 -10,7 -18,15 -18,17 0,8 8,3 21,-13 z m 10,-91 c -2,-26 -4,-55 -4,-64 -1,-21 -23,-24 -30,-5 -3,8 -2,20 3,27 4,7 6,38 3,69 -4,54 -4,55 13,38 14,-13 18,-29 15,-65 z m -51,-3 c 0,-5 -7,-9 -15,-9 -15,0 -20,12 -9,23 8,8 24,-1 24,-14 z m -2235,-39 c 3,-5 1,-10 -4,-10 -6,0 -11,5 -11,10 0,6 2,10 4,10 3,0 8,-4 11,-10 z m 2235,-30 c 0,-5 -2,-10 -4,-10 -3,0 -8,5 -11,10 -3,6 -1,10 4,10 6,0 11,-4 11,-10 z m -2260,-51 c 0,-5 -4,-9 -10,-9 -5,0 -10,7 -10,16 0,8 5,12 10,9 6,-3 10,-10 10,-16 z m 190,-114 c 15,-18 27,-165 13,-150 -11,11 -43,122 -43,148 0,21 14,22 30,2 z m 71,-162 c -9,-16 -10,-16 -11,-1 0,9 3,25 7,35 7,16 8,17 11,1 2,-10 -1,-25 -7,-35 z m -74,-19 c 10,-28 11,-53 5,-89 l -8,-50 -17,54 c -32,103 -13,181 20,85 z m 90,-16 c -3,-8 -6,-5 -6,6 -1,11 2,17 5,13 3,-3 4,-12 1,-19 z m 2106,-48 c 3,-11 3,-20 1,-20 -2,0 -8,9 -14,20 -6,11 -7,20 -2,20 6,0 12,-9 15,-20 z m -2132,-33 c -8,-8 -11,-7 -11,4 0,20 13,34 18,19 3,-7 -1,-17 -7,-23 z m 133,-13 c 9,-3 16,-10 16,-15 0,-4 -6,-6 -14,-3 -13,5 -13,-1 0,-42 19,-63 18,-77 -7,-93 -19,-11 -21,-11 -16,3 4,9 1,15 -5,13 -7,-1 -14,6 -16,16 -4,21 16,49 29,41 5,-3 7,1 4,8 -6,19 -14,78 -10,78 2,0 10,-3 19,-6 z m 2019,-14 c 3,-11 1,-18 -4,-14 -5,3 -9,12 -9,20 0,20 7,17 13,-6 z m 101,-51 c 33,-39 33,-70 1,-85 -19,-10 -27,-9 -39,5 -25,28 -34,62 -22,88 15,31 29,29 60,-8 z m -2270,-4 c 3,-8 1,-15 -4,-15 -6,0 -10,7 -10,15 0,8 2,15 4,15 2,0 6,-7 10,-15 z m 2232,-117 c 11,-13 28,-41 39,-62 11,-22 32,-47 47,-55 15,-9 31,-26 37,-38 9,-20 7,-22 -29,-28 -63,-11 -101,14 -127,84 -26,66 -28,92 -11,109 17,17 22,15 44,-10 z m 119,-48 c 12,-23 11,-27 -5,-38 -17,-10 -23,-7 -45,26 -23,34 -24,38 -8,49 19,15 37,4 58,-37 z m 135,-340 c 0,-5 -2,-10 -4,-10 -3,0 -8,5 -11,10 -3,6 -1,10 4,10 6,0 11,-4 11,-10 z"
         inkscape:connector-curvature="0"
         style="fill:url(#linearGradient11905);fill-opacity:1" />
      <path
         id="path11732"
         d="m 4166,11439 c 21,-25 41,-44 44,-42 2,2 -16,23 -40,46 l -44,42 z"
         inkscape:connector-curvature="0"
         style="fill:url(#linearGradient11907);fill-opacity:1" />
      <path
         id="path11734"
         d="m 4606,10908 c 23,-38 80,-108 92,-112 7,-3 -8,21 -34,55 -46,57 -77,89 -58,57 z"
         inkscape:connector-curvature="0"
         style="fill:url(#linearGradient11909);fill-opacity:1" />
      <path
         id="path11736"
         d="m 3042,10470 c 0,-14 2,-19 5,-12 2,6 2,18 0,25 -3,6 -5,1 -5,-13 z"
         inkscape:connector-curvature="0"
         style="fill:url(#linearGradient11911);fill-opacity:1" />
      <path
         id="path11738"
         d="m 5486,9747 c 3,-10 9,-15 12,-12 3,3 0,11 -7,18 -10,9 -11,8 -5,-6 z"
         inkscape:connector-curvature="0"
         style="fill:url(#linearGradient11913);fill-opacity:1" />
      <path
         id="path11740"
         d="m 5375,9728 c 4,-13 11,-27 16,-33 5,-5 4,5 -2,23 -12,36 -24,44 -14,10 z"
         inkscape:connector-curvature="0"
         style="fill:url(#linearGradient11915);fill-opacity:1" />
      <path
         id="path11742"
         d="m 5533,9547 c 4,-10 7,-21 7,-23 0,-2 6,-4 14,-4 8,0 18,-10 21,-21 6,-17 9,-19 16,-8 5,8 3,20 -5,29 -7,8 -16,22 -19,30 -4,11 -6,12 -6,1 -1,-11 -4,-11 -18,0 -15,12 -16,12 -10,-4 z"
         inkscape:connector-curvature="0"
         style="fill:url(#linearGradient11917);fill-opacity:1" />
      <path
         id="path11744"
         d="m 5501,9395 c 0,-5 6,-19 14,-29 8,-11 15,-15 15,-10 0,6 -7,19 -15,30 -8,10 -14,15 -14,9 z"
         inkscape:connector-curvature="0"
         style="fill:url(#linearGradient11919);fill-opacity:1" />
      <path
         id="path11746"
         d="m 5820,8751 c 0,-5 5,-13 10,-16 6,-3 10,-2 10,4 0,5 -4,13 -10,16 -5,3 -10,2 -10,-4 z"
         inkscape:connector-curvature="0"
         style="fill:url(#linearGradient11921);fill-opacity:1" />
      <path
         id="path11748"
         d="m 5876,8547 c 3,-10 9,-15 12,-12 3,3 0,11 -7,18 -10,9 -11,8 -5,-6 z"
         inkscape:connector-curvature="0"
         style="fill:url(#linearGradient11923);fill-opacity:1" />
      <path
         id="path11750"
         d="m 2960,8520 c 0,-5 5,-10 11,-10 5,0 7,5 4,10 -3,6 -8,10 -11,10 -2,0 -4,-4 -4,-10 z"
         inkscape:connector-curvature="0"
         style="fill:url(#linearGradient11925);fill-opacity:1" />
      <path
         id="path11752"
         d="m 5790,8503 c 0,-6 5,-15 10,-18 6,-3 10,-33 10,-65 0,-44 -4,-61 -16,-68 -11,-6 -13,-12 -6,-16 6,-4 8,-14 5,-23 -6,-15 -5,-15 8,-4 8,8 15,23 16,35 1,11 6,41 11,66 8,33 7,52 -3,75 -7,16 -14,23 -14,15 -1,-13 -2,-13 -11,0 -6,9 -10,10 -10,3 z"
         inkscape:connector-curvature="0"
         style="fill:url(#linearGradient11927);fill-opacity:1" />
      <path
         id="path11754"
         d="m 5718,8414 c 11,-22 42,-51 42,-40 0,4 -12,19 -26,34 -20,21 -24,22 -16,6 z"
         inkscape:connector-curvature="0"
         style="fill:url(#linearGradient11929);fill-opacity:1" />
      <path
         id="path11756"
         d="m 5750,8231 c 0,-6 4,-13 10,-16 6,-3 7,1 4,9 -7,18 -14,21 -14,7 z"
         inkscape:connector-curvature="0"
         style="fill:url(#linearGradient11931);fill-opacity:1" />
      <path
         id="path11758"
         d="m 3160,8051 c 0,-5 5,-13 10,-16 6,-3 10,-2 10,4 0,5 -4,13 -10,16 -5,3 -10,2 -10,-4 z"
         inkscape:connector-curvature="0"
         style="fill:url(#linearGradient11933);fill-opacity:1" />
      <path
         id="path11760"
         d="m 3167,8013 c -4,-6 0,-24 9,-41 8,-17 17,-54 21,-82 7,-62 18,-57 14,6 -3,52 -34,134 -44,117 z"
         inkscape:connector-curvature="0"
         style="fill:url(#linearGradient11935);fill-opacity:1" />
      <path
         id="path11762"
         d="m 3223,7788 c 9,-34 36,-98 42,-98 3,0 -2,16 -10,36 -8,20 -15,45 -15,55 0,10 -5,21 -11,25 -8,5 -10,-1 -6,-18 z"
         inkscape:connector-curvature="0"
         style="fill:url(#linearGradient11937);fill-opacity:1" />
      <path
         id="path11764"
         d="m 3380,7580 c 0,-11 4,-20 9,-20 5,0 7,9 4,20 -3,11 -7,20 -9,20 -2,0 -4,-9 -4,-20 z"
         inkscape:connector-curvature="0"
         style="fill:url(#linearGradient11939);fill-opacity:1" />
      <path
         id="path11766"
         d="m 3661,7524 c 0,-11 3,-14 6,-6 3,7 2,16 -1,19 -3,4 -6,-2 -5,-13 z"
         inkscape:connector-curvature="0"
         style="fill:url(#linearGradient11941);fill-opacity:1" />
      <path
         id="path11768"
         d="m 3611,7484 c 0,-11 3,-14 6,-6 3,7 2,16 -1,19 -3,4 -6,-2 -5,-13 z"
         inkscape:connector-curvature="0"
         style="fill:url(#linearGradient11943);fill-opacity:1" />
      <path
         id="path11770"
         d="m 3600,7430 c -13,-25 -6,-55 11,-44 7,4 9,0 5,-14 -4,-11 -3,-23 3,-26 5,-3 11,15 13,40 4,53 -14,78 -32,44 z"
         inkscape:connector-curvature="0"
         style="fill:url(#linearGradient11945);fill-opacity:1" />
    </g>
    <path
       style="fill:url(#radialGradient11819);fill-opacity:1;stroke:none;filter:url(#filter11537)"
       inkscape:connector-curvature="0"
       d="m 1379,12413 c -6,-16 -31,-131 -55,-258 -66,-338 -90,-442 -125,-541 -18,-49 -36,-105 -40,-124 -17,-68 -50,-436 -44,-478 5,-36 12,-45 41,-59 33,-16 34,-19 29,-58 -12,-97 -27,-409 -30,-625 -2,-129 -19,-498 -39,-820 -20,-322 -36,-591 -36,-597 0,-7 -9,-13 -21,-13 -23,0 -108,-46 -126,-68 -20,-24 -15,-51 12,-76 l 25,-23 -24,-13 c -54,-28 -59,-103 -8,-125 12,-5 22,-17 22,-26 0,-9 9,-36 19,-60 20,-43 20,-44 -1,-77 -27,-45 -18,-79 25,-90 27,-7 32,-13 35,-43 1,-19 -18,-374 -43,-789 C 971,7035 928,6317 900,5855 872,5393 827,4642 800,4185 773,3729 728,2979 700,2520 673,2061 639,1494 625,1260 611,1026 595,824 590,810 585,796 575,700 569,596 l -11,-190 26,-23 c 55,-47 166,-23 216,46 19,28 19,28 -1,27 -11,0 -24,-8 -30,-16 -7,-11 -8,8 -4,62 4,42 8,177 10,300 3,189 54,1047 180,3028 23,359 134,2138 235,3765 22,352 40,651 40,665 v 25 l 87,-3 c 58,-3 102,1 129,11 40,13 43,13 80,-13 30,-20 40,-33 42,-59 6,-61 134,-201 184,-201 8,0 76,-65 151,-144 75,-79 171,-170 214,-202 133,-100 182,-144 199,-180 17,-35 48,-51 81,-40 22,7 79,58 110,98 l 21,28 88,-11 c 116,-15 423,-5 533,16 108,21 293,90 456,170 72,35 144,66 161,70 l 32,6 7,-188 c 11,-268 2,-379 -56,-693 -36,-194 -33,-401 9,-630 32,-173 57,-442 83,-870 9,-152 9,-273 -1,-552 -14,-387 -10,-634 16,-903 13,-131 18,-299 19,-735 4,-994 44,-1323 173,-1432 26,-22 31,-36 46,-132 9,-60 19,-157 23,-216 5,-93 3,-114 -16,-168 -11,-34 -21,-84 -21,-110 0,-41 -5,-52 -32,-78 -18,-17 -50,-41 -70,-53 -26,-16 -46,-41 -72,-92 -45,-89 -84,-139 -106,-139 -10,0 -61,-29 -112,-64 -52,-34 -107,-66 -121,-70 -32,-8 -81,-79 -72,-105 3,-9 1,-38 -3,-63 -12,-61 4,-106 48,-137 19,-13 27,-21 17,-18 -10,4 -16,3 -13,-2 11,-18 100,-41 155,-41 132,0 241,44 369,146 97,78 112,87 273,148 165,63 228,122 227,212 0,23 3,50 6,62 5,15 2,24 -11,31 -17,8 -20,3 -31,-45 -7,-30 -10,-59 -6,-66 4,-7 3,-8 -5,-4 -8,5 -9,23 -5,56 3,26 1,94 -5,149 -13,104 -12,110 25,214 9,25 13,78 12,160 -2,113 1,134 40,287 34,135 52,187 103,286 l 61,122 81,4 c 124,7 127,9 127,125 v 96 l 78,-5 c 61,-3 94,-12 146,-36 117,-55 251,-63 427,-27 100,20 144,46 168,99 12,29 31,50 51,61 83,43 299,59 397,30 50,-15 53,-19 111,-113 74,-120 84,-143 126,-306 52,-196 70,-303 56,-336 -12,-30 -2,-67 24,-89 14,-12 16,-39 15,-185 0,-114 4,-181 12,-201 7,-17 11,-34 9,-40 -9,-30 3,-82 24,-103 29,-29 132,-56 296,-77 134,-16 218,-34 400,-83 140,-38 214,-50 346,-58 104,-7 193,8 163,27 -11,7 -11,9 2,9 8,0 25,9 38,21 18,17 21,27 15,52 -9,45 -22,64 -84,130 -71,76 -103,98 -146,102 -54,5 -208,98 -307,186 -59,52 -118,94 -173,121 -65,32 -84,46 -84,62 0,12 -10,41 -21,66 -50,109 -69,549 -35,815 11,90 17,193 15,290 -2,162 4,197 61,353 35,96 39,174 14,283 -9,39 -14,83 -11,97 3,16 -3,42 -14,64 -23,46 -53,50 -97,13 l -30,-25 -6,23 c -4,12 -9,65 -13,117 -5,79 -2,109 16,180 13,47 25,114 28,150 7,91 -33,500 -64,650 -14,69 -25,142 -24,163 3,55 -83,311 -144,434 -51,100 -52,105 -40,141 8,21 21,86 31,145 21,129 17,136 -72,146 -54,6 -58,8 -70,41 -17,48 -17,101 1,143 8,20 13,42 10,49 -7,17 -87,68 -107,68 -8,0 -35,7 -60,16 -41,13 -46,19 -52,52 -11,70 -6,102 26,158 25,45 32,71 36,130 2,41 7,74 11,74 4,0 38,-13 76,-29 321,-135 777,-181 1151,-116 476,83 884,316 1130,645 378,506 267,1167 -265,1578 -48,36 -93,72 -101,79 -26,23 -183,113 -197,113 -7,0 -35,11 -61,24 -77,39 -281,105 -406,130 -408,85 -842,51 -1230,-98 -37,-14 -72,-26 -76,-26 -3,0 -7,39 -7,88 -2,177 -104,446 -192,509 -13,8 -52,19 -88,23 -50,6 -77,16 -117,44 -102,70 -185,85 -261,46 -22,-11 -40,-20 -41,-20 -1,0 12,73 28,163 26,146 28,175 23,302 -7,161 -21,295 -38,345 -18,58 -18,62 8,57 14,-2 22,0 19,4 -3,5 -13,9 -23,9 -10,0 -24,7 -31,15 -14,17 -7,19 19,6 11,-6 22,-6 32,1 11,8 10,9 -5,4 -13,-4 -17,-2 -13,8 4,10 0,12 -14,9 -10,-3 -19,-1 -19,5 0,5 19,8 43,6 l 42,-3 -52,24 c -60,27 -69,40 -20,31 23,-4 28,-3 17,4 -8,5 -25,10 -37,10 -12,0 -25,4 -28,10 -3,5 0,8 7,5 7,-3 33,-1 58,3 44,9 44,9 15,16 -59,15 -61,17 -30,31 25,11 27,14 9,14 -24,1 -43,31 -20,31 8,0 16,6 19,13 4,10 -2,13 -21,9 -24,-5 -26,-4 -13,11 7,10 28,21 45,26 30,9 30,9 4,10 -38,1 -28,43 16,62 18,8 16,9 -9,5 -16,-3 -24,-3 -17,0 18,8 15,24 -5,25 -14,0 -13,2 5,9 28,12 29,24 1,17 -21,-6 -21,-5 2,19 12,13 28,24 35,24 7,0 16,4 19,10 4,6 -7,8 -27,4 l -33,-5 24,20 c 26,24 16,28 -14,7 -17,-11 -22,-11 -33,0 -10,11 -5,19 30,45 30,22 36,30 21,26 -13,-3 -23,-1 -23,4 0,5 -13,3 -30,-6 -41,-21 -38,-11 5,15 19,12 33,26 30,30 -3,5 3,13 12,19 10,6 14,11 8,11 -5,0 -26,-10 -45,-21 l -35,-21 30,32 c 23,24 26,30 10,24 -18,-6 -17,-4 4,19 27,30 19,36 -13,10 l -21,-18 20,25 c 11,14 31,37 44,53 14,15 20,27 13,27 -6,0 -14,-4 -17,-10 -3,-5 -11,-10 -17,-10 -7,0 1,14 18,32 l 29,31 -36,-26 c -20,-15 -39,-27 -44,-27 -10,0 24,51 44,68 14,10 13,11 -4,5 -11,-3 -31,-13 -45,-22 -17,-10 -10,1 20,34 43,46 36,46 -20,0 l -25,-20 18,21 c 27,32 20,38 -15,13 -33,-24 -31,-17 11,41 l 25,35 -34,-30 c -19,-16 -43,-39 -53,-50 -18,-20 -18,-20 -8,2 20,40 34,78 36,97 2,18 1,18 -12,1 -21,-29 -15,-4 8,35 l 21,35 -32,-30 -32,-30 16,39 c 21,50 20,57 -4,26 -13,-17 -20,-20 -20,-10 0,13 -1,13 -10,0 -8,-11 -9,-7 -4,14 5,22 4,27 -6,21 -14,-9 -7,22 17,69 10,20 11,26 2,20 -9,-5 -10,-2 -6,9 18,44 17,49 -2,19 -23,-36 -26,-46 -11,-37 13,8 13,-5 0,-25 -8,-13 -10,-12 -10,4 0,20 0,20 -15,0 -10,-13 -8,-2 6,36 l 20,55 -21,-25 -20,-25 -6,22 c -7,26 -24,21 -24,-7 0,-10 -4,-22 -10,-25 -6,-4 -8,7 -4,27 4,28 3,30 -6,15 -18,-28 -42,-2 -35,37 l 5,31 -15,-30 -15,-30 5,33 c 3,20 1,31 -5,27 -6,-3 -10,1 -10,9 0,25 -19,19 -30,-9 -12,-33 -18,-32 -12,3 3,23 0,28 -19,29 -13,1 -29,-3 -36,-9 -9,-7 -13,-7 -13,1 0,6 -3,10 -7,10 -21,-3 -33,2 -33,16 0,19 -16,20 -23,1 -4,-9 -14,-12 -26,-9 -16,4 -21,1 -21,-16 0,-11 -5,-21 -11,-21 -6,0 -9,6 -6,14 3,8 0,17 -8,20 -10,3 -15,-5 -18,-27 -4,-31 -4,-31 -5,6 -1,20 -6,37 -11,37 -15,0 -23,-35 -16,-67 5,-21 4,-24 -4,-13 -6,8 -11,24 -11,35 0,11 -5,27 -10,35 -7,10 -8,3 -5,-25 l 5,-40 -14,30 -15,30 -1,-50 c -1,-43 -3,-47 -12,-27 -6,12 -15,22 -20,22 -5,0 -4,-10 2,-22 11,-22 10,-22 -4,-4 -9,11 -16,25 -16,32 0,7 -4,15 -9,19 -6,3 -6,-7 0,-27 11,-41 11,-51 0,-44 -5,3 -7,-16 -5,-42 l 4,-47 -24,50 -25,50 4,-64 c 2,-40 0,-59 -6,-50 -5,8 -9,10 -9,4 0,-5 -12,4 -26,20 l -26,30 22,-43 c 26,-54 20,-66 -10,-18 -26,43 -36,47 -15,6 8,-16 15,-31 15,-35 0,-11 -26,1 -39,18 -9,14 -16,16 -24,8 -8,-8 -8,-14 1,-23 14,-14 16,-32 2,-23 -6,4 -7,-1 -3,-11 5,-14 8,-13 19,7 7,13 13,18 14,11 0,-7 4,-11 9,-8 5,3 15,-2 22,-12 13,-15 12,-16 -3,-3 -15,11 -18,11 -18,0 0,-11 -2,-11 -10,1 -9,13 -10,13 -11,0 -1,-8 -1,-22 1,-30 1,-8 -12,1 -29,20 l -31,35 17,-40 c 16,-40 25,-95 15,-95 -3,0 -17,10 -30,23 l -25,22 17,-33 c 9,-18 14,-37 11,-42 -3,-6 -3,-16 2,-22 4,-7 8,-15 8,-18 1,-3 11,-25 24,-50 l 23,-45 -36,40 c -31,33 -34,35 -19,10 l 18,-30 -30,19 c -25,16 -23,11 15,-30 l 45,-48 -57,48 c -62,51 -77,52 -28,1 l 30,-31 -24,1 c -13,0 -28,4 -33,9 -5,5 0,6 11,2 16,-5 17,-4 6,9 -15,18 -35,20 -24,3 5,-8 2,-9 -11,-4 -10,3 13,-23 51,-60 38,-36 56,-57 39,-46 -16,11 -41,32 -54,46 -14,14 -29,26 -35,26 -7,0 -8,-3 -1,-8 17,-11 118,-122 113,-122 -3,0 -23,14 -44,31 -40,32 -74,53 -74,46 0,-2 33,-29 73,-60 84,-65 127,-107 107,-107 -9,0 -5,-10 11,-27 14,-16 2,-9 -27,15 -72,58 -76,52 -9,-13 56,-54 56,-54 39,-80 -13,-20 -15,-39 -11,-84 l 5,-59 -38,-21 c -63,-35 -128,-94 -160,-144 -17,-26 -30,-52 -30,-58 0,-6 -11,-29 -24,-52 -24,-42 -38,-115 -51,-267 -4,-41 -13,-106 -21,-143 -18,-87 -18,-366 0,-586 l 14,-163 -32,-29 c -17,-16 -42,-32 -56,-35 -60,-13 -179,-58 -226,-85 -56,-32 -147,-123 -184,-184 -29,-48 -33,-51 -79,-59 -20,-3 -62,-21 -92,-39 -36,-22 -91,-42 -154,-56 -126,-30 -263,-99 -380,-192 -81,-65 -191,-129 -222,-129 -6,0 -116,-31 -244,-70 -129,-38 -245,-70 -259,-70 -22,0 -54,17 -170,89 -26,16 -7,19 64,9 57,-8 72,-7 84,6 13,13 13,18 -2,41 -23,35 -61,48 -116,39 -60,-10 -80,-7 -180,22 -94,28 -436,196 -607,299 -62,37 -120,65 -135,65 -16,0 -42,12 -60,28 -100,86 -162,112 -270,112 -56,0 -68,3 -68,16 0,38 80,1314 85,1359 4,28 10,59 15,70 9,20 40,469 40,576 0,56 0,56 41,74 63,29 68,49 70,318 2,215 0,241 -24,357 -16,79 -32,204 -42,340 -34,468 -36,490 -56,490 -5,0 -14,-12 -20,-27 z m 3541,-1084 c 0,-6 -4,-7 -10,-4 -5,3 -10,11 -10,16 0,6 5,7 10,4 6,-3 10,-11 10,-16 z m -25,-211 16,-33 -20,25 c -20,24 -26,40 -16,40 2,0 12,-15 20,-32 z m -78,-1981 c 21,-35 21,-36 2,-53 -33,-30 -46,-2 -52,111 l -6,100 18,-61 c 9,-34 27,-77 38,-97 z m 817,-18 c -10,-24 -18,-45 -20,-47 -1,-2 -21,2 -43,9 -29,9 -40,17 -36,27 3,7 5,18 5,23 0,5 10,9 23,9 12,1 36,7 52,14 17,7 31,12 33,11 2,-1 -5,-22 -14,-46 z"
       id="path11390"
       transform="matrix(0.00732699,0,0,-0.00776318,62.456277,299.83397)" />
    <path
       style="fill:url(#radialGradient11821);fill-opacity:1;stroke:none;filter:url(#filter11537)"
       inkscape:connector-curvature="0"
       d="m 5521,11464 c 0,-11 3,-14 6,-6 3,7 2,16 -1,19 -3,4 -6,-2 -5,-13 z"
       id="path11392"
       transform="matrix(0.00732699,0,0,-0.00776318,62.456277,299.83397)" />
    <path
       style="fill:url(#radialGradient11823);fill-opacity:1;stroke:none;filter:url(#filter11537)"
       inkscape:connector-curvature="0"
       d="m 4925,10780 c 10,-11 20,-20 23,-20 3,0 -3,9 -13,20 -10,11 -20,20 -23,20 -3,0 3,-9 13,-20 z"
       id="path11394"
       transform="matrix(0.00732699,0,0,-0.00776318,62.456277,299.83397)" />
    <path
       style="fill:url(#radialGradient11825);fill-opacity:1;stroke:none;filter:url(#filter11537)"
       inkscape:connector-curvature="0"
       d="m 5808,10663 c 6,-2 18,-2 25,0 6,3 1,5 -13,5 -14,0 -19,-2 -12,-5 z"
       id="path11396"
       transform="matrix(0.00732699,0,0,-0.00776318,62.456277,299.83397)" />
    <path
       style="fill:url(#radialGradient11827);fill-opacity:1;stroke:none;filter:url(#filter11537)"
       inkscape:connector-curvature="0"
       d="m 5790,10600 c -8,-5 -10,-10 -5,-10 6,0 17,5 25,10 8,5 11,10 5,10 -5,0 -17,-5 -25,-10 z"
       id="path11398"
       transform="matrix(0.00732699,0,0,-0.00776318,62.456277,299.83397)" />
    <path
       style="fill:url(#radialGradient11831);fill-opacity:1;stroke:none;filter:url(#filter11537)"
       inkscape:connector-curvature="0"
       d="m 4531,974 c 0,-11 3,-14 6,-6 3,7 2,16 -1,19 -3,4 -6,-2 -5,-13 z"
       id="path11402"
       transform="matrix(0.00732699,0,0,-0.00776318,62.456277,299.83397)" />
    <path
       style="fill:url(#radialGradient11833);fill-opacity:1;stroke:none;filter:url(#filter11537)"
       inkscape:connector-curvature="0"
       d="m 4560,966 c 0,-2 7,-7 16,-10 8,-3 12,-2 9,4 -6,10 -25,14 -25,6 z"
       id="path11404"
       transform="matrix(0.00732699,0,0,-0.00776318,62.456277,299.83397)" />
    <g
       id="g11591"
       transform="matrix(0.00624449,0,0,-0.00633893,87.562548,297.78297)"
       style="fill:url(#linearGradient11625);fill-opacity:1;stroke:none;filter:url(#filter12004)">
      <path
         id="path11589"
         d="m 4800,12359 c -109,-14 -239,-68 -336,-140 -29,-21 -89,-80 -133,-130 -130,-147 -226,-361 -319,-711 -7,-27 -7,-38 1,-41 9,-3 6,-31 -8,-101 -20,-96 -34,-120 -46,-74 -5,21 -6,20 -17,-12 -26,-80 -25,-106 3,-169 24,-52 27,-69 22,-118 -4,-32 -3,-86 1,-120 5,-34 5,-68 1,-76 -12,-21 13,-89 45,-122 62,-65 90,-172 72,-281 -11,-68 -13,-73 -76,-135 -36,-36 -84,-92 -108,-125 -23,-32 -60,-80 -82,-106 -56,-69 -81,-143 -88,-268 l -7,-105 -55,2 c -30,1 -161,13 -290,27 -129,13 -266,27 -305,30 l -70,5 75,-15 c 41,-9 200,-35 353,-59 154,-23 284,-48 289,-53 14,-14 -7,-100 -31,-127 -21,-22 -31,-59 -35,-125 -4,-52 -21,-100 -36,-100 -6,0 -31,-19 -55,-41 -43,-40 -57,-69 -34,-69 7,0 9,-17 4,-52 -8,-61 -18,-76 -38,-59 -19,15 -33,-2 -45,-57 -6,-24 -27,-62 -49,-89 -22,-27 -48,-60 -57,-75 -10,-15 -33,-36 -51,-47 -18,-10 -46,-41 -61,-67 -24,-42 -28,-59 -30,-138 -2,-116 -24,-184 -80,-252 -62,-77 -84,-125 -91,-200 -5,-56 -14,-79 -66,-167 l -60,-102 -3,-180 c -3,-175 -2,-181 22,-222 13,-23 24,-48 24,-56 0,-19 -61,-68 -115,-93 -36,-17 -41,-24 -55,-82 -12,-47 -25,-72 -51,-97 -52,-50 -101,-106 -128,-145 -34,-50 -210,-239 -481,-515 -129,-132 -323,-341 -430,-465 -107,-124 -253,-293 -325,-375 -71,-83 -137,-160 -145,-170 -17,-24 586,563 711,692 48,48 142,151 209,228 215,246 500,544 538,564 43,22 69,47 121,117 28,36 49,53 78,62 22,6 48,21 58,32 10,11 22,20 27,20 19,0 144,54 167,72 13,10 35,18 48,18 17,0 41,17 76,54 29,29 73,70 99,90 25,21 58,59 72,86 14,26 49,85 79,131 76,120 75,117 51,100 -10,-8 -33,-28 -51,-44 -39,-36 -58,-31 -66,19 -6,37 -4,41 80,129 240,249 289,297 319,311 57,27 66,126 13,154 -43,23 -122,-9 -133,-55 -10,-39 -81,-126 -220,-270 l -126,-129 -27,20 c -21,16 -29,31 -31,61 -3,33 3,47 39,91 25,31 55,56 75,62 55,18 84,47 84,84 0,42 29,69 100,93 l 55,18 3,46 c 3,49 36,94 70,94 11,0 29,24 50,65 17,36 42,83 55,105 12,22 33,66 47,97 19,44 39,69 85,106 39,31 74,71 100,115 22,37 45,67 52,67 45,0 90,-111 78,-193 -6,-36 -2,-53 16,-88 20,-36 23,-58 22,-123 -1,-61 4,-93 23,-146 13,-37 24,-85 24,-106 1,-65 33,-122 82,-144 84,-37 129,-43 193,-26 32,8 62,13 67,10 23,-14 62,-118 79,-208 10,-56 26,-123 35,-151 25,-79 29,-241 10,-375 -10,-63 -22,-120 -28,-127 -6,-7 -21,-10 -39,-6 -38,7 -37,-2 2,-22 27,-15 30,-20 24,-48 -12,-54 -22,-60 -90,-53 -51,5 -66,3 -100,-17 -35,-20 -40,-27 -38,-57 1,-35 4,-38 84,-99 52,-40 53,-57 24,-251 -14,-96 -30,-189 -36,-206 -6,-19 -6,-41 -1,-55 5,-13 12,-77 16,-142 8,-128 29,-190 86,-252 17,-19 33,-55 44,-98 51,-209 235,-447 584,-757 l 73,-65 -12,-35 c -6,-19 -55,-127 -109,-240 -161,-337 -207,-475 -236,-700 -16,-132 -18,-412 -4,-585 26,-308 92,-656 200,-1065 172,-646 231,-984 266,-1508 5,-84 10,-104 25,-112 30,-16 102,-11 144,10 43,22 84,20 143,-7 24,-10 50,-13 90,-8 32,3 107,5 169,5 109,-2 112,-1 128,24 30,45 20,267 -21,501 -47,265 -117,516 -258,928 -177,517 -247,774 -295,1079 -66,419 -47,668 67,893 16,33 65,114 109,180 43,66 87,139 97,163 10,23 25,42 33,42 8,0 45,-26 82,-58 94,-82 260,-193 417,-282 155,-87 369,-233 391,-266 12,-19 13,-30 4,-56 -9,-26 -8,-43 10,-96 18,-54 20,-77 15,-139 -4,-43 -15,-90 -27,-111 -21,-40 -24,-68 -9,-77 6,-3 10,3 10,14 0,36 20,33 36,-6 8,-21 21,-50 29,-65 19,-33 19,-47 0,-84 -16,-32 -7,-89 20,-127 15,-22 4,-74 -27,-124 -14,-23 -18,-42 -13,-62 4,-18 0,-49 -10,-78 -9,-26 -21,-85 -28,-130 -9,-71 -8,-85 5,-100 32,-37 38,-64 49,-224 9,-128 9,-201 -1,-335 -12,-160 -12,-174 6,-220 52,-138 119,-193 197,-160 19,8 38,24 42,35 8,25 18,27 35,6 18,-21 48,-19 55,5 3,11 13,20 20,20 23,0 125,102 125,126 0,11 -9,47 -20,80 -33,94 -51,191 -55,299 -2,55 -8,129 -14,165 -6,36 -11,88 -11,117 0,28 -4,63 -10,78 -8,20 -7,27 6,32 23,8 60,-31 216,-231 122,-157 139,-183 134,-208 -4,-20 2,-39 24,-71 43,-65 135,-147 163,-147 19,0 51,-33 153,-157 173,-211 159,-188 144,-234 -11,-34 -11,-42 1,-54 12,-12 20,-13 46,-3 37,14 52,4 99,-63 24,-35 25,-42 14,-68 -16,-40 -2,-63 53,-89 43,-20 45,-24 61,-89 10,-37 23,-79 31,-93 11,-21 11,-29 -5,-60 -15,-30 -17,-47 -10,-105 14,-117 41,-239 57,-257 8,-9 27,-61 43,-115 36,-123 90,-244 130,-289 16,-19 30,-41 30,-48 0,-7 9,-25 21,-40 22,-28 57,-34 89,-14 16,10 23,9 43,-10 26,-25 39,-27 66,-10 16,10 24,7 51,-15 31,-27 40,-27 71,0 14,12 18,10 33,-12 25,-38 63,-34 82,10 16,40 33,44 59,15 27,-30 104,-28 133,3 28,30 29,84 2,136 -10,21 -28,61 -38,89 -11,28 -53,97 -94,154 -42,56 -83,118 -92,135 -36,70 -77,199 -90,282 -8,47 -19,99 -25,114 -17,44 -13,81 9,95 46,28 5,117 -74,160 -45,25 -179,168 -182,194 -1,13 -3,29 -3,35 -1,7 -19,24 -41,38 -27,17 -53,49 -84,102 l -45,78 21,22 c 18,19 20,27 10,48 -7,14 -20,25 -31,25 -48,0 -68,23 -150,170 -45,81 -85,157 -88,168 -2,11 3,31 12,45 9,14 15,36 13,49 -2,19 -10,24 -40,26 -20,2 -41,9 -48,17 -32,39 -158,455 -175,578 -3,27 -12,50 -20,53 -7,3 -24,31 -36,62 -13,31 -47,108 -76,171 -35,74 -55,133 -60,170 -5,45 -14,67 -50,113 -24,31 -69,76 -100,100 l -57,44 -12,104 c -7,58 -17,134 -24,170 -6,36 -16,141 -20,235 -5,110 -19,231 -39,343 -36,207 -57,287 -112,424 -23,56 -74,196 -114,309 -41,114 -117,314 -170,445 -65,163 -93,244 -88,256 4,9 23,27 42,40 19,13 51,46 70,74 20,28 55,68 79,89 24,21 55,59 69,84 15,25 37,61 51,80 l 25,34 -59,-9 c -32,-5 -126,-9 -209,-8 -122,0 -160,4 -205,20 -51,18 -55,21 -54,49 7,138 7,139 -38,265 -42,119 -73,176 -187,339 -17,23 -50,58 -74,77 -24,18 -53,52 -66,74 l -22,40 35,45 c 60,79 57,135 -6,135 -33,0 -112,-50 -128,-80 -14,-26 -35,-25 -86,5 -53,31 -62,56 -35,92 12,14 20,28 18,30 -7,6 -37,-9 -37,-18 0,-5 -9,-9 -21,-9 -15,0 -26,13 -40,48 -11,26 -34,74 -50,107 -39,80 -44,135 -25,290 8,72 20,207 26,300 16,274 27,335 97,535 15,44 34,186 37,285 2,46 4,50 29,53 21,3 28,-2 32,-21 4,-14 16,-29 28,-36 12,-6 34,-20 48,-32 22,-17 43,-21 143,-25 134,-4 167,-15 176,-59 10,-49 32,-74 79,-92 35,-14 47,-14 63,-4 17,11 24,9 43,-9 34,-32 95,-25 113,13 16,32 32,34 58,6 27,-30 84,-51 120,-46 23,4 36,0 48,-14 14,-17 24,-19 61,-13 39,5 47,3 64,-17 16,-20 22,-21 52,-13 27,8 36,18 54,62 12,28 25,56 31,62 13,13 229,15 294,2 30,-6 73,-11 95,-10 53,3 267,-29 328,-49 27,-8 57,-13 68,-10 12,3 39,-8 70,-29 54,-36 86,-43 95,-20 3,8 17,17 31,21 69,17 104,76 83,140 -7,20 -24,43 -38,52 -15,9 -37,28 -48,42 -20,24 -23,24 -65,12 -24,-7 -52,-19 -62,-26 -14,-10 -27,-11 -48,-3 -16,6 -39,8 -52,5 -25,-7 -327,26 -345,37 -20,12 -13,25 26,45 46,24 207,180 249,243 46,68 47,80 19,166 -14,42 -28,88 -31,102 -8,40 -95,147 -165,202 l -65,50 -115,-7 c -105,-5 -113,-5 -96,9 11,9 28,16 38,16 10,0 18,4 18,10 0,16 -45,22 -86,11 -34,-9 -43,-8 -74,13 -90,60 -119,69 -196,62 -65,-6 -76,-4 -120,19 -27,14 -73,33 -104,42 -30,8 -68,26 -83,39 -27,23 -54,28 -122,24 -36,-1 -57,19 -74,72 -8,23 -37,62 -73,98 l -60,60 h -72 c -62,0 -85,6 -162,39 -86,37 -143,53 -230,66 -26,4 -61,21 -93,45 -71,54 -105,59 -177,26 -31,-14 -60,-26 -64,-26 -4,0 -33,34 -64,76 -59,79 -105,175 -124,259 -15,65 -52,333 -52,376 0,19 -9,106 -20,194 -11,88 -25,196 -30,241 -29,238 -128,438 -289,584 -45,41 -97,83 -115,92 -45,23 -182,57 -206,51 -11,-3 -51,4 -89,16 -73,22 -97,23 -201,10 z m 963,-1757 c 9,-10 22,-33 28,-50 6,-18 15,-32 20,-32 14,0 40,-58 29,-65 -5,-3 -23,1 -40,10 -24,13 -35,14 -46,5 -16,-14 -44,-7 -44,11 0,7 9,9 25,5 20,-5 23,-3 18,11 -4,10 -13,28 -21,40 -9,14 -11,33 -7,53 8,35 15,37 38,12 z m -93,-178 c 0,-8 -4,-12 -10,-9 -5,3 -10,10 -10,16 0,5 5,9 10,9 6,0 10,-7 10,-16 z m -1424,-129 c 16,-40 18,-55 4,-55 -11,0 -40,53 -40,75 0,27 21,16 36,-20 z m -89,-29 c 9,-19 24,-37 34,-39 37,-10 18,-23 -33,-22 -50,0 -53,2 -56,27 -4,29 13,68 29,68 5,0 17,-15 26,-34 z m 2606,-8 c 32,-19 57,-40 57,-50 0,-17 -21,-7 -58,27 -38,36 -38,44 1,23 z m 737,-355 c 56,-29 76,-53 43,-53 -38,1 -148,47 -151,63 -5,26 46,21 108,-10 z m -977,-302 c 33,-14 46,-26 51,-48 10,-40 54,-82 98,-93 31,-9 44,-7 79,10 31,16 51,20 79,15 52,-9 66,-21 89,-85 l 21,-54 -22,-26 c -12,-14 -38,-41 -58,-61 -19,-20 -43,-46 -53,-58 -16,-20 -24,-22 -65,-16 -74,11 -143,36 -194,71 l -47,32 -77,-22 c -43,-13 -80,-30 -86,-39 -5,-9 -18,-17 -30,-17 -19,0 -20,4 -16,68 5,61 9,73 47,122 23,30 60,92 82,138 23,45 44,82 49,82 5,0 28,-9 53,-19 z m 172,-92 c -8,-11 -16,-11 -34,0 -22,14 -4,33 20,21 11,-6 17,-15 14,-21 z m 453,-114 c 12,-4 20,-11 17,-16 -7,-11 -95,-12 -95,-1 0,15 24,32 40,28 8,-3 25,-7 38,-11 z M 6480,7398 c 0,-19 -44,-78 -57,-78 -21,0 -15,42 9,67 23,25 48,31 48,11 z m -3226,-87 c 19,-20 14,-41 -8,-41 -18,0 -49,37 -41,49 10,17 30,13 49,-8 z m 3189,-102 c 35,-16 51,-53 30,-70 -31,-26 -85,25 -69,67 6,17 8,17 39,3 z m -3372,-90 c -28,-23 -61,-25 -61,-5 0,25 40,47 63,34 21,-11 21,-11 -2,-29 z m 3600,-151 c 22,-34 42,-74 46,-88 3,-14 11,-32 19,-40 20,-24 56,-128 66,-194 5,-34 11,-74 14,-91 6,-40 -9,-64 -33,-49 -26,15 -105,135 -165,251 l -53,101 23,46 c 12,26 22,64 22,86 0,22 5,40 10,40 6,0 28,-28 51,-62 z m -2016,-29 c 9,-13 -23,-79 -38,-79 -7,0 -27,9 -44,20 -36,21 -44,56 -15,63 33,9 91,7 97,-4 z m 71,-33 c 7,-19 -26,-76 -44,-76 -11,0 -13,9 -7,37 4,21 9,41 11,45 8,13 34,9 40,-6 z m 3,-169 c 12,-15 5,-27 -16,-27 -7,0 -13,9 -13,20 0,23 13,26 29,7 z m 8,-231 c -4,-9 -11,-16 -17,-16 -11,0 -14,33 -3,43 11,11 26,-10 20,-27 z m -80,-72 c 10,-15 31,-41 47,-57 28,-30 28,-33 22,-107 -6,-70 -29,-212 -42,-252 -8,-25 -33,-22 -38,5 -3,12 -7,33 -10,47 -2,14 -9,43 -15,66 -10,41 -14,273 -4,307 6,24 19,21 40,-9 z M 6890,3298 c 0,-16 -3,-19 -11,-11 -6,6 -8,16 -5,22 11,17 16,13 16,-11 z"
         inkscape:connector-curvature="0"
         style="fill:url(#linearGradient11947);fill-opacity:1" />
    </g>
  </g>
</svg>
