<?xml version="1.0" encoding="UTF-8"?>
<svg width="640" height="480" enable-background="new" inkscape:export-filename="C:\Users\Dale\Documents\Websites\www.cjmoseley.dev.cc\wp-content\plugins\t13ne\images\type\prof.png" inkscape:export-xdpi="96" inkscape:export-ydpi="96" inkscape:version="0.92.4 (5da689c313, 2019-01-14)" preserveAspectRatio="none" sodipodi:docname="prof.svg" version="1.1" viewBox="0 0 169.33 127" xmlns="http://www.w3.org/2000/svg" xmlns:inkscape="http://www.inkscape.org/namespaces/inkscape" xmlns:sodipodi="http://sodipodi.sourceforge.net/DTD/sodipodi-0.dtd" xmlns:xlink="http://www.w3.org/1999/xlink">
 <defs>
  <linearGradient id="linearGradient11555" inkscape:collect="always">
   <stop offset="0"/>
   <stop stop-color="#e6e6e6" offset="1"/>
  </linearGradient>
  <filter id="filter11537" x="-.25" y="-.25" width="1.5" height="1.5" color-interpolation-filters="sRGB" inkscape:label="Matte Bevel" inkscape:menu="Bevels" inkscape:menu-tooltip="Soft, pastel-colored, blurry bevel">
   <feGaussianBlur result="result6" stdDeviation="1"/>
   <feComposite in="result6" in2="result6" operator="in" result="result7"/>
   <feGaussianBlur in="result7" result="result3" stdDeviation="8"/>
   <feComposite in2="result7" result="result91"/>
   <feComposite in="result3" in2="result91" operator="in" result="result5"/>
   <feColorMatrix result="result4" values="0 0 0 -1 0 0 0 0 -1 0 0 0 0 -1 0 0 0 0 1 0 "/>
   <feSpecularLighting in="result4" result="result11" specularConstant="2" specularExponent="45" surfaceScale="3">
    <fePointLight x="-5000" y="-10000" z="20000"/>
   </feSpecularLighting>
   <feComposite in2="result4" k1="1" operator="arithmetic" result="result10"/>
   <feComposite in="result5" in2="result10" k2="0.5" k3="1" operator="arithmetic" result="result8"/>
   <feComposite in2="result8" result="result9"/>
   <feBlend in2="result9"/>
  </filter>
  <radialGradient id="radialGradient11821" cx="5235.9" cy="2507.8" r="6360.9" gradientTransform="matrix(.0096047 1.686 -1.5116 .0076748 8976.3 -7995.7)" gradientUnits="userSpaceOnUse" inkscape:collect="always" xlink:href="#linearGradient11555"/>
 </defs>
 <sodipodi:namedview id="base" width="1048mm" bordercolor="#666666" borderopacity="1.0" inkscape:current-layer="g993" inkscape:cx="556.62356" inkscape:cy="425.91857" inkscape:document-units="mm" inkscape:pagecheckerboard="true" inkscape:pageopacity="0.0" inkscape:pageshadow="2" inkscape:window-height="837" inkscape:window-maximized="1" inkscape:window-width="1440" inkscape:window-x="-8" inkscape:window-y="-8" inkscape:zoom="0.67660687" pagecolor="#ffffff" showgrid="false" units="px"/>
 <g transform="translate(0,-170)" opacity=".303" inkscape:groupmode="layer" inkscape:label="Layer 1">
  <g fill="url(#radialGradient11821)">
   <path transform="matrix(.007327 0 0 -.0077632 62.456 299.83)" d="m5521 11464c0-11 3-14 6-6 3 7 2 16-1 19-3 4-6-2-5-13z" filter="url(#filter11537)" inkscape:connector-curvature="0"/>
   <path transform="matrix(.007327 0 0 -.0077632 62.456 299.83)" d="m4925 10780c10-11 20-20 23-20s-3 9-13 20-20 20-23 20 3-9 13-20z" filter="url(#filter11537)" inkscape:connector-curvature="0"/>
   <path transform="matrix(.007327 0 0 -.0077632 62.456 299.83)" d="m5808 10663c6-2 18-2 25 0 6 3 1 5-13 5s-19-2-12-5z" filter="url(#filter11537)" inkscape:connector-curvature="0"/>
   <path transform="matrix(.007327 0 0 -.0077632 62.456 299.83)" d="m5790 10600c-8-5-10-10-5-10 6 0 17 5 25 10s11 10 5 10c-5 0-17-5-25-10z" filter="url(#filter11537)" inkscape:connector-curvature="0"/>
   <path transform="matrix(.007327 0 0 -.0077632 62.456 299.83)" d="m4531 974c0-11 3-14 6-6 3 7 2 16-1 19-3 4-6-2-5-13z" filter="url(#filter11537)" inkscape:connector-curvature="0"/>
   <path transform="matrix(.007327 0 0 -.0077632 62.456 299.83)" d="m4560 966c0-2 7-7 16-10 8-3 12-2 9 4-6 10-25 14-25 6z" filter="url(#filter11537)" inkscape:connector-curvature="0"/>
  </g>
  <g transform="matrix(.0092477 0 0 -.0092479 -4.0562 299.51)" fill="#000080">
   <path d="m6247 10949c-127-19-313-75-2392-729-2817-886-3047-958-3051-962-7-8 2411-842 2501-863 133-32 174-18 293 102 261 262 600 388 1372 507 438 68 786 96 1280 103 510 7 870-11 1320-68 727-91 1181-248 1560-539 117-90 152-105 240-104 69 1 111 14 565 169 270 92 826 280 1237 418 410 139 744 255 741 260-15 25-218 92-1323 437-674 210-1850 578-2615 817-764 239-1419 441-1455 449-71 15-183 16-273 3z" inkscape:connector-curvature="0"/>
   <path d="m1138 9007-28-12-6-705c-9-921-9-869 5-918 16-57 71-117 127-138s110-8 148 36c47 57 49 94 42 790-8 768-9 777-103 881-63 69-126 92-185 66z" inkscape:connector-curvature="0"/>
   <path d="m6130 8963c-712-13-1606-143-1999-290-293-109-462-235-513-380l-23-68 3-1140c2-626 4-1140 5-1141s52 11 112 26c212 53 323 65 635 65 328 0 415-8 1e3 -90 454-64 603-80 845-96 291-18 515-3 826 56 524 100 1029 139 1512 116 229-10 507-33 565-46l23-6-6 2276-22 57c-57 150-178 254-382 328-188 69-721 185-1096 239-484 70-1003 103-1485 94z" inkscape:connector-curvature="0"/>
   <path d="m1176 7099c-84-21-133-72-149-157-11-54 11-116 59-172 95-112 83-214-52-419-36-57-75-125-85-152-54-141 9-278 161-348 46-21 69-25 145-25 182 0 317 68 345 173 23 87-2 165-134 405-58 105-82 191-70 251 3 20 31 72 60 117 48 72 54 86 54 133 0 70-44 139-112 173-54 28-157 38-222 21z" inkscape:connector-curvature="0"/>
   <path d="m9440 5091c-23-8-571-225-2112-837-493-196-622-251-639-272-19-24-21-37-17-112 7-140 57-230 246-437 144-158 181-209 229-308 49-103 57-204 23-294-20-55-21-61-6-90 36-68 102-83 226-48 514 141 2713 784 2717 794 6 16-116 445-202 713-87 267-247 697-292 783-49 93-107 129-173 108z" inkscape:connector-curvature="0"/>
   <path d="m9760 4998c1-73 33-170 154-457 103-244 197-560 241-804 11-64 23-101 32-104 26-10 60 15 83 62 19 40 22 61 22 178 0 218-52 422-183 729-81 191-133 288-181 343-44 50-103 85-143 85-22 0-25-4-25-32z" inkscape:connector-curvature="0"/>
   <path d="m10099 5017c-20-16-39-51-39-74 0-10 34-81 75-158 139-259 191-422 204-635 5-92 13-145 24-166 24-46 75-86 106-82 26 3 26 4 29 93 8 237-51 495-168 730-61 122-184 305-204 305-6 0-18-6-27-13z" inkscape:connector-curvature="0"/>
   <path d="m6444 3949c-29-33-47-39-165-59-141-23-176-42-212-111-41-76-35-160 17-262 20-40 47-85 59-101l23-29 50 35c111 80 252 128 371 128 75 0 75-3 33 121-39 116-131 299-151 299-3 0-14-9-25-21z" inkscape:connector-curvature="0"/>
   <path d="m5685 3694c-11-3-164-52-340-109-820-266-1360-423-2070-605-196-50-287-78-302-92-62-58-56-148 31-448 83-289 177-562 280-820 103-255 134-318 169-344 64-47 29-59 1387 484 690 276 1268 509 1283 517 15 7 37 28 47 46 39 63 23 115-78 271-97 147-108 234-71 534 17 137 18 181 10 243-27 203-120 317-264 325-34 1-71 0-82-2z" inkscape:connector-curvature="0"/>
   <path d="m6466 3399c-66-16-174-79-231-136-145-146-175-350-79-543 156-311 511-372 755-130 200 200 206 475 14 665-126 124-305 180-459 144z" inkscape:connector-curvature="0"/>
   <path d="m2785 2676c-37-16-82-68-91-103-15-59 32-311 101-543 70-233 204-550 271-637 34-45 104-77 149-69 65 12 64 22-10 189-156 351-286 754-351 1090-9 48-22 87-28 87-6-1-25-7-41-14z" inkscape:connector-curvature="0"/>
   <path d="m7014 2514c-21-15-60-46-86-69-25-23-60-46-76-51l-31-9 249-349c137-192 253-353 259-359 5-5 21-7 34-3 28 7 47 49 47 105 0 82 63 129 187 140l73 6-111 145c-257 334-322 413-368 441-60 39-123 40-177 3z" inkscape:connector-curvature="0"/>
   <path d="m2473 2434c-3-9-3-82 0-162 10-239 59-428 168-649 66-134 188-313 221-326 33-12 65 15 73 62 10 61-15 131-125 348-124 243-158 345-171 512-6 74-16 137-25 157-28 59-125 99-141 58z" inkscape:connector-curvature="0"/>
   <path d="m6333 2364c-28-14-32-22-42-80-30-169-36-415-15-601l6-53 27 19c98 69 244 65 349-10l45-33-6 94c-4 51-7 208-7 348v255l-44-6c-80-11-178 14-256 65-23 15-28 16-57 2z" inkscape:connector-curvature="0"/>
  </g>
 </g>
</svg>
