<?xml version="1.0" encoding="UTF-8"?>
<svg width="167.09pt" height="242.67pt" inkscape:export-filename="/home/byron/art/cards/final/PNGs/2_of_clubs.png" inkscape:export-xdpi="215.44792" inkscape:export-ydpi="215.44792" inkscape:version="0.92.4 (5da689c313, 2019-01-14)" sodipodi:docname="nocard.svg" version="1.1" viewBox="0 0 167.09 242.67" xmlns="http://www.w3.org/2000/svg" xmlns:inkscape="http://www.inkscape.org/namespaces/inkscape" xmlns:sodipodi="http://sodipodi.sourceforge.net/DTD/sodipodi-0.dtd" xmlns:xlink="http://www.w3.org/1999/xlink">
 <sodipodi:namedview bordercolor="#666666" borderopacity="1" gridtolerance="10" guidetolerance="10" inkscape:current-layer="svg2" inkscape:cx="109.36271" inkscape:cy="161.77799" inkscape:pageopacity="0" inkscape:pageshadow="2" inkscape:window-height="837" inkscape:window-maximized="1" inkscape:window-width="1440" inkscape:window-x="-8" inkscape:window-y="-8" inkscape:zoom="1.971838" objecttolerance="10" pagecolor="#ffffff" showgrid="false"/>
 <g stroke="#000">
  <path d="m166.84 235.55c0 3.7774-3.0869 6.8691-6.8711 6.8691h-152.85c-3.7749 0-6.8608-3.0918-6.8608-6.8691v-228.43c0-3.7773 3.0859-6.8701 6.8608-6.8701h152.85c3.7842 0 6.8711 3.0928 6.8711 6.8701z" fill="#fff" stroke-width=".5" inkscape:connector-curvature="0"/>
  <g stroke="none"></g>
 </g>
 <g transform="matrix(.88569 0 0 1.6212 -28.869 0)" stroke-width=".74394" aria-label="No Card Selected">
  <path d="m61.708 73.056-5.5795-13.455v13.251h-1.4966v-16.477l-1.0171-2.2522 3.0077-1.4094 5.6086 13.135v-12.83h1.4821v19.441z" inkscape:connector-curvature="0"/>
  <path d="m71.312 71.167q0.52308 0 0.81368-0.46496 0.26154-0.46496 0.26154-1.3077 0-0.79915-0.24701-2.165-0.21795-1.1915-0.62479-2.5428-0.97351-3.2257-2.1504-3.2257-1.0898 0-1.0898 1.7727 0 0.8718 0.23248 2.0778 0.26154 1.3658 0.63932 2.5863 0.50855 1.671 1.0316 2.4701 0.49402 0.75556 1.1333 0.79915zm-5.5505-4.0248q0-1.6564 0.46496-3.0949 0.46496-1.4239 1.3513-2.5282 0.78462-0.95898 1.7-1.4675 0.90086-0.47949 1.8017-0.47949 1.0898 0 1.9761 0.7265 0.8718 0.71197 1.3513 2.0487 0.46496 1.3513 0.46496 2.9932 0 2.0487-0.69744 3.8359-0.71197 1.7872-1.918 2.8334-1.1915 1.0462-2.5863 1.0462-1.1333 0-2.0342-0.74103-0.8718-0.69744-1.3804-2.0778-0.49402-1.3368-0.49402-3.0949z" inkscape:connector-curvature="0"/>
  <path d="m89.881 69.787 0.75556 1.1043q-1.206 1.235-2.2522 1.7436-1.0607 0.52308-2.2957 0.52308-2.4265 0-3.6906-2.0633-1.4385-2.3829-1.4385-6.1898 0-2.2086 0.47949-4.4026 0.46496-2.1504 1.3368-3.9958 0.85727-1.8017 1.918-2.7752 1.0752-0.98804 2.165-0.98804 0.7265 0 1.3222 0.42137 0.55214 0.42137 1.0607 1.3513 0.46496 0.88633 0.88633 2.3103l-2.8624 2.1795q-0.05812-0.15983-0.17436-0.50855l-0.33419-1.0898q-0.5812-1.8453-1.5402-1.8453-0.7265 0-1.1043 0.81368-0.37778 0.84274-0.37778 2.5573 0 0.84274 0.11624 2.2667 0.10171 1.235 0.33419 2.6299 0.17436 1.206 0.46496 2.4265 0.36325 1.5111 0.82821 2.5573 0.4359 1.0316 0.97351 1.5256 0.55214 0.50855 1.206 0.50855 0.47949 0 1.0171-0.24701 0.52308-0.23248 1.206-0.81368z" inkscape:connector-curvature="0"/>
  <path d="m97.844 63.568q-1.3077-1.8889-2.7171-1.8889-0.63932 0-0.88633 0.37778-0.26154 0.39231-0.26154 1.3658 0 1.206 0.20342 2.7898 0.20342 1.6419 0.50855 2.7462 0.26154 1.0462 0.71197 1.0462 0.23248 0 0.45043-0.30513 0.23248-0.36325 0.49402-1.0607 0.84274-2.1795 1.4966-5.071zm2.4556-3.8069v13.092h-3.0368v-3.9231q-0.82821 2.3393-1.5111 3.2257-0.66838 0.88633-1.6855 0.88633-0.78462 0-1.4239-0.63932-0.65385-0.62479-1.0171-1.7727-0.36325-1.1043-0.36325-2.5718 0-1.8453 0.7265-3.865 0.71197-1.947 1.8453-3.3128 1.1043-1.3222 2.165-1.3222 0.65385 0 1.1479 0.39231 0.53761 0.45043 1.1915 1.453l0.30513-1.6419z" inkscape:connector-curvature="0"/>
  <path d="m105.73 72.853h-2.8479v-13.092h3.1675v5.0564q0.40684-1.4966 1.0607-3.2402 0.36325-1.0171 0.81368-1.5402 0.42137-0.47949 0.94445-0.47949 0.45043 0 0.74103 0.27607 0.30513 0.30513 0.5812 0.91539 0.24701 0.56667 0.79915 2.2522l-2.5137 2.0778-0.0726-0.36325q-0.15983-0.78462-0.2906-1.1479-0.11624-0.2906-0.27607-0.2906-0.13077 0-0.23248 0.18889-0.0581 0.10171-0.37778 0.98804-0.49402 1.4821-0.75556 2.688-0.30513 1.2932-0.47949 2.688-0.17436 1.3949-0.26154 3.0222z" inkscape:connector-curvature="0"/>
  <path d="m117.68 63.568q-1.3077-1.8889-2.7171-1.8889-0.63932 0-0.88633 0.37778-0.26154 0.39231-0.26154 1.3658 0 1.206 0.20342 2.7898 0.20342 1.6419 0.50855 2.7462 0.26154 1.0462 0.71197 1.0462 0.23248 0 0.45043-0.30513 0.23248-0.36325 0.49402-1.0607 0.84274-2.1795 1.4966-5.071zm2.4556-10.549v19.833h-3.0368v-3.9231q-0.82821 2.3393-1.5111 3.2257-0.66838 0.88633-1.6855 0.88633-0.78462 0-1.4239-0.63932-0.65385-0.62479-1.0171-1.7727-0.36325-1.1043-0.36325-2.5718 0-1.8453 0.7265-3.8504 0.74103-2.0051 1.8162-3.2983 1.0898-1.3368 2.0923-1.3368 0.82821 0 1.3658 1.0026v-7.5556z" inkscape:connector-curvature="0"/>
  <path d="m135.32 54.225-0.81368 1.2496q-0.81368-0.7265-1.3368-0.97351-0.61026-0.2906-1.2641-0.2906-0.90086 0-1.4966 0.56667-0.59573 0.59573-0.59573 1.4675 0 0.77009 0.47949 1.5983 0.42137 0.75556 2.0778 2.906 1.5838 2.0778 2.1214 2.9351 1.4675 2.3393 1.4675 4.3881 0 1.4675-0.65385 2.6299-0.65385 1.1769-1.8017 1.8308t-2.6154 0.65385q-1.206 0-2.2086-0.45043-1.0752-0.47949-2.0342-1.3804l0.84274-1.2205q1.4966 1.4675 2.8769 1.4675 1.0026 0 1.7291-0.77009 0.69744-0.77009 0.69744-1.8744 0-1.3658-1.2641-3.2111-0.0727-0.11624-0.81368-1.1769-0.27607-0.37778-0.52308-0.7265-0.23248-0.33419-0.34872-0.49402-0.92992-1.2786-1.2496-1.7436-1.3368-2.0778-1.3368-3.9376 0-1.3222 0.62479-2.4701t1.6855-1.8162q1.0752-0.65385 2.2812-0.65385 0.88633 0 1.7145 0.33419 0.75556 0.31966 1.7581 1.1624z" inkscape:connector-curvature="0"/>
  <path d="m140.3 67.796q2.3539-1.5983 2.3539-4.2137 0-1.0752-0.34872-1.7436-0.34872-0.68291-0.8718-0.68291-0.40684 0-0.74103 0.47949-0.33419 0.50855-0.52308 1.3658-0.18889 0.84274-0.18889 1.8744 0 0.65385 0.0872 1.4239 0.0872 0.84274 0.23248 1.4966zm4.8966 2.1795 0.55214 0.94445q-1.3804 1.1333-2.441 1.6274-1.0607 0.47949-2.1504 0.47949-1.1915 0-2.0923-0.61026-0.88633-0.5812-1.3513-1.7145-0.47949-1.1188-0.47949-2.659 0-2.1068 0.78462-4.0829 0.77009-1.9616 2.0487-3.1821 1.2932-1.206 2.6445-1.206 1.2205 0 1.9616 0.81368 0.7265 0.81368 0.7265 2.165 0 2.3829-1.9761 4.3154-0.88633 0.84274-2.8624 1.947 0.45043 1.3222 0.97351 1.8889 0.50855 0.56667 1.1915 0.56667 0.46496 0 1.0171-0.2906 0.52308-0.27607 1.453-1.0026z" inkscape:connector-curvature="0"/>
  <path d="m147.29 53.019h3.1821v15.533q0 0.5812 0.0436 1.1769 0.10171 1.8017 1.0752 1.8017 0.2906 0 0.81368-0.24701l0.40684 0.8718q-0.62479 0.36325-1.0316 0.53761-0.37778 0.17436-0.84274 0.27607-0.4359 0.08718-0.88633 0.08718-1.4675 0-2.1068-1.0462-0.65385-1.0316-0.65385-3.4146z" inkscape:connector-curvature="0"/>
  <path d="m155.88 67.796q2.3539-1.5983 2.3539-4.2137 0-1.0752-0.34872-1.7436-0.34872-0.68291-0.8718-0.68291-0.40684 0-0.74103 0.47949-0.33419 0.50855-0.52308 1.3658-0.18889 0.84274-0.18889 1.8744 0 0.65385 0.0872 1.4239 0.0872 0.84274 0.23248 1.4966zm4.8966 2.1795 0.55214 0.94445q-1.3804 1.1333-2.441 1.6274-1.0607 0.47949-2.1504 0.47949-1.1915 0-2.0923-0.61026-0.88633-0.5812-1.3513-1.7145-0.47949-1.1188-0.47949-2.659 0-2.1068 0.78462-4.0829 0.77009-1.9616 2.0487-3.1821 1.2932-1.206 2.6445-1.206 1.2205 0 1.9616 0.81368 0.7265 0.81368 0.7265 2.165 0 2.3829-1.9761 4.3154-0.88633 0.84274-2.8624 1.947 0.45043 1.3222 0.97351 1.8889 0.50855 0.56667 1.1915 0.56667 0.46496 0 1.0171-0.2906 0.52308-0.27607 1.453-1.0026z" inkscape:connector-curvature="0"/>
  <path d="m169.83 69.903 0.56667 0.85727q-1.4094 1.2932-2.3393 1.7727-0.98804 0.50855-2.0197 0.50855-1.7145 0-2.7607-1.3949-1.0462-1.3804-1.0462-3.6761 0-1.5692 0.45043-3.0513 0.4359-1.4966 1.1769-2.7171 0.75556-1.2205 1.6855-1.9325t1.8744-0.71197q2.2376 0 2.5573 3.2692l-2.659 1.3368q-0.0726-1.6564-0.2906-2.3103-0.24701-0.68291-0.74103-0.68291-0.37778 0-0.63932 0.4359-0.26154 0.40684-0.42137 1.2641-0.1453 0.81368-0.1453 1.8308 0 1.4239 0.21795 2.7171 0.18889 1.235 0.5812 2.1795 0.37778 0.84274 0.78462 1.206 0.42137 0.39231 0.90086 0.39231 0.77009 0 2.2667-1.2932z" inkscape:connector-curvature="0"/>
  <path d="m177.47 59.761v1.0898h-2.2231v7.4975q0 1.2496 0.0727 1.8744 0.20342 1.3077 1.1188 1.3077 0.37778 0 0.98804-0.39231l0.42137 0.85727q-1.6419 1.0607-3.0513 1.0607-1.453 0-2.0778-1.0607-0.65385-1.0752-0.65385-3.4v-7.7445h-1.3949v-1.0898h1.3949v-3.1966l3.1821-1.1769v4.3735z" inkscape:connector-curvature="0"/>
  <path d="m181.07 67.796q2.3539-1.5983 2.3539-4.2137 0-1.0752-0.34872-1.7436-0.34872-0.68291-0.8718-0.68291-0.40684 0-0.74103 0.47949-0.33419 0.50855-0.52308 1.3658-0.18889 0.84274-0.18889 1.8744 0 0.65385 0.0872 1.4239 0.0872 0.84274 0.23248 1.4966zm4.8966 2.1795 0.55214 0.94445q-1.3804 1.1333-2.441 1.6274-1.0607 0.47949-2.1504 0.47949-1.1915 0-2.0923-0.61026-0.88633-0.5812-1.3513-1.7145-0.47949-1.1188-0.47949-2.659 0-2.1068 0.78462-4.0829 0.77009-1.9616 2.0487-3.1821 1.2932-1.206 2.6445-1.206 1.2205 0 1.9616 0.81368 0.7265 0.81368 0.7265 2.165 0 2.3829-1.9761 4.3154-0.88633 0.84274-2.8624 1.947 0.45043 1.3222 0.97351 1.8889 0.50855 0.56667 1.1915 0.56667 0.46496 0 1.0171-0.2906 0.52308-0.27607 1.453-1.0026z" inkscape:connector-curvature="0"/>
  <path d="m194.03 63.568q-1.3077-1.8889-2.7171-1.8889-0.63932 0-0.88633 0.37778-0.26154 0.39231-0.26154 1.3658 0 1.206 0.20342 2.7898 0.20342 1.6419 0.50855 2.7462 0.26154 1.0462 0.71197 1.0462 0.23248 0 0.45043-0.30513 0.23248-0.36325 0.49402-1.0607 0.84275-2.1795 1.4966-5.071zm2.4556-10.549v19.833h-3.0368v-3.9231q-0.82822 2.3393-1.5111 3.2257-0.66838 0.88633-1.6855 0.88633-0.78462 0-1.4239-0.63932-0.65385-0.62479-1.0171-1.7727-0.36325-1.1043-0.36325-2.5718 0-1.8453 0.7265-3.8504 0.74103-2.0051 1.8162-3.2983 1.0898-1.3368 2.0923-1.3368 0.82822 0 1.3658 1.0026v-7.5556z" inkscape:connector-curvature="0"/>
 </g>
</svg>
